<?xml version="1.0" encoding="utf-8"?>
<!-- Generator: Adobe Illustrator 21.1.0, SVG Export Plug-In . SVG Version: 6.00 Build 0)  -->
<svg version="1.1" id="OBJECTS" xmlns="http://www.w3.org/2000/svg" xmlns:xlink="http://www.w3.org/1999/xlink" x="0px" y="0px"
	 viewBox="0 0 2400 800" style="enable-background:new 0 0 2400 800;" xml:space="preserve">
<style type="text/css">
	.st0{display:none;}
	.st1{display:inline;fill:#F8B366;}
	.st2{display:inline;fill:#3A9122;}
	.st3{display:inline;fill:#F4A153;}
	.st4{display:inline;fill:#F3A254;}
	.st5{display:inline;fill:#F1A75B;}
	.st6{display:inline;fill:#F4A051;}
	.st7{display:inline;fill:#F2A458;}
	.st8{fill:#891A1A;}
	.st9{fill:#AF1E1E;}
	.st10{fill:#FFFFFF;}
</style>
<g class="st0">
	<path class="st1" d="M-4895.3,465.9c-2.3-11.5-4.5-22.9-6.8-34.4c2-9.7,0.7-23,6.7-28.6c32.3-30.2,70.1-48,116.2-43.2
		c48.4,5.1,98,14.1,141.4-16.8c8.9-6.3,14-21.9,14.9-33.7c0.5-6.5-11.6-13.8-18-20.8c-19.8-36.8-40.7-73.1-59.3-110.6
		c-21.6-43.4-23.8-89.3-10.3-135.6c6.8-23.4,20.3-40.2,47.6-40c-2,5.4-6.7,11.5-5.5,16c5.6,21.1,12.5,41.9,19.7,62.5
		c12.9,36.8,18.4,79.7,41.2,108.9c48,61.2,105.2,115.3,158.9,172c18.7,19.7,36,42,58.2,56.7c38.5,25.5,87.1,37.3,107.1,85.9
		c0.8,1.9,6.2,2,9.5,2.9c0.2,56.9,0.3,113.8,0.5,170.7c-41.1-5.2-78.3,2.2-112.3,28.3s-70.5,49.1-105.9,73.5
		c-90.5,27.2-183.7,19.7-276.1,21.1c-16.9,0.3-33.8-1.8-50.7-3c-27.7-2-41.2-15.7-36.1-44.4c31.7-19.8,63.5-39.5,91.2-56.8
		c-33.8-7.9-51-11.1-84,8.8c-12.4-15.7-27.9-30-36.2-47.7c-5.1-11,0.7-27.2,1.7-41c5.5,3.8,12.3,11.9,16.2,10.7
		c42.1-13.1,83.6-27.7,121.7-40.7c-28.9-24.8-89.5-26.1-130.3,2.4c-12-20-27.8-38.8-34.6-60.4c-4.6-14.5,3.7-33,6.2-49.7
		c0.7,12,1.5,24,1.9,30.6c52.5-12.5,103.4-24.6,160.3-38.1c-38.1-6.8-72.5-15.1-107.4-18.1C-4863.1,451.9-4879.4,461.4-4895.3,465.9
		z"/>
	<path class="st2" d="M-4273.2,677.9c-0.2-56.9-0.3-113.8-0.5-170.7c0.1-38.9,0.2-77.8,0.3-116.8c6.5-29.5,26-39,54.8-39.4
		c89.6-1.2,90.6-0.8,90.6,89.9c0,87.4,0.1,174.8-0.1,262.2c-0.1,40.5-10.1,50.4-49.9,51.3c-13.6,0.3-27.3-0.3-40.9,0.5
		c-31,1.8-50.1-10.8-54.1-42.9C-4273.1,700.6-4273.2,689.3-4273.2,677.9z"/>
	<path class="st3" d="M-4273.5,390.4c-0.1,38.9-0.2,77.8-0.3,116.8c-3.3-0.9-8.7-1-9.5-2.9c-20-48.6-68.6-60.4-107.1-85.9
		c-22.2-14.7-39.5-37-58.2-56.7c-53.8-56.7-110.9-110.8-158.9-172c-22.9-29.2-28.4-72.1-41.2-108.9c-7.2-20.6-14-41.4-19.7-62.5
		c-1.2-4.5,3.5-10.7,5.5-16c32.4-2.7,50.4,10.9,55.5,44.2c10.7,70.3,45.2,126.8,98.8,174.1c43.5,38.3,83.2,81,123.2,123
		C-4354.5,375.8-4318.2,392.3-4273.5,390.4z"/>
	<path class="st4" d="M-4641,288.4c6.4,7,18.5,14.3,18,20.8c-0.9,11.8-6,27.4-14.9,33.7c-43.4,30.9-93,21.9-141.4,16.8
		c-46.1-4.8-83.8,13-116.2,43.2c-5.9,5.6-4.6,18.9-6.7,28.6c-25.2-56.6-0.4-100.5,59.3-102.3c44.1-1.3,88.4,2.3,132.3-0.8
		c23.5-1.7,46.2-12.9,69.3-19.8c0.7-0.6,2.2-1.3,2.1-1.8c-0.2-1.7-0.9-3.3-1.4-4.9C-4640.7,297.4-4640.8,292.9-4641,288.4z"/>
	<path class="st5" d="M-4273.2,677.9c0.1,11.4,0.1,22.7,0.2,34.1c-50.9-7.5-94.6,8.4-137.2,36.1c-23.8,15.5-53.9,21.4-81.2,31.6
		c35.4-24.4,71.9-47.3,105.9-73.5C-4351.5,680.1-4314.4,672.6-4273.2,677.9z"/>
	<path class="st6" d="M-4895.3,465.9c15.9-4.5,32.1-14,47.5-12.6c34.9,3,69.3,11.4,107.4,18.1c-56.8,13.5-107.8,25.6-160.3,38.1
		c-0.4-6.5-1.1-18.6-1.9-30.6C-4900.1,474.6-4897.7,470.2-4895.3,465.9z"/>
	<path class="st6" d="M-4874.1,589c40.9-28.4,101.5-27.2,130.3-2.4c-38,12.9-79.6,27.5-121.7,40.7c-3.9,1.2-10.7-6.9-16.2-10.7
		l0.2-0.4c2-7.1,3.9-14.3,5.9-21.4C-4875.7,592.7-4875.2,590.8-4874.1,589z"/>
	<path class="st7" d="M-4847.1,705.4c33-19.8,50.2-16.7,84-8.8c-27.8,17.3-59.5,37.1-91.2,56.8v-0.1c-0.1-7-0.2-14.1-0.3-21.1
		c-0.4-2.2-0.1-4.4,0.7-6.5c1.8-3.1,3.5-6.2,5.3-9.3C-4848.1,712.7-4847.6,709-4847.1,705.4z"/>
	<path class="st1" d="M-4875.5,594.8c-2,7.2-3.9,14.3-5.9,21.4C-4879.4,609.1-4877.4,601.9-4875.5,594.8z"/>
	<path class="st1" d="M-4854.6,732.2c0.1,7,0.2,14.1,0.3,21.1C-4854.4,746.3-4854.5,739.2-4854.6,732.2z"/>
	<path class="st1" d="M-4640.6,301.9c0.5,1.6,1.2,3.2,1.4,4.9c0.1,0.5-1.4,1.2-2.1,1.8C-4641.9,306.2-4641.6,304-4640.6,301.9z"/>
	<path class="st1" d="M-4848.6,716.4c-1.8,3.1-3.5,6.2-5.3,9.3C-4852.2,722.6-4850.4,719.5-4848.6,716.4z"/>
</g>
<g>
	<g>
		<path class="st8" d="M2366.5,800H75c-20.5,0-78.7-18.4-78.7-25.2L37.7,25.2c0-6.8,16.8-12.4,37.3-12.4L2325,0
			c20.5,0,78.7,18.4,78.7,25.2v762.4C2403.7,794.4,2387,800,2366.5,800z"/>
	</g>
	<path class="st9" d="M2350.3,787.2H8.3c-6.6,0-12-5.4-12-12V12c0-6.6,5.4-12,12-12h2342.1c6.6,0,12,5.4,12,12v763.2
		C2362.3,781.8,2356.9,787.2,2350.3,787.2z"/>
</g>
<g>
	<path class="st10" d="M187.9,378c0.3,1,0.8,2,1,3.1c1.5,7.8,8.2,13.6,16.2,13.6c18,0.1,36,0.1,54.1,0c9.2,0,16.6-7.5,16.6-16.8
		c0.1-20,0-40,0-60c0-35.5,0-71.1,0-106.6c0-11.5-7.1-18.8-18.6-18.9c-16.7-0.1-33.3-0.1-50,0c-11.1,0.1-17.8,7.1-18.5,15.1
		c-0.1,0.5-0.6,1.1-0.9,1.6C187.9,265.3,187.9,321.7,187.9,378z"/>
	<path class="st10" d="M287,295.7c0,28.4,0,56.8,0,85.2c0,5,0,5.1,4.8,4.9c9.9-0.4,17.2,4.7,23.6,11.3c11.2,11.4,19.4,25,26.4,39.2
		c7.3,15,14.1,30.2,20.4,45.5c4.4,10.7,10.8,19.7,20.1,26c23,15.5,33.9,38,38,64.3c2.3,14.7,3.8,29.5,5.3,44.4
		c0.7,6.6,3.5,8.8,12.1,8.3c21.5-1.2,41.3-16.2,46-44.2c3.7-22.3,0.2-43.3-9.7-63.6c-6.9-14.2-13.4-28.6-19.6-43.1
		c-2.6-6.1-3.8-12.7-2.7-19.6c0.8-5,1.4-5.7,6.2-5.6c13.6,0.2,27.2,0.7,40.7,0.7c21.6-0.1,43.2-0.3,64.7-2.9
		c6.8-0.8,13.7-2.4,18.6-7.3c8.3-8.2,19.1-8.8,19.6-25.4c0.1-2.1-0.2-16.9-3.1-20.6c-2.7-3.4-5-7.1-7.7-10.4
		c-4.2-5.3-4.5-10.8-1.2-16.5c2.9-5,8.9-12.4,8.7-18.2c-0.2-5.8-0.2-4.7-0.5-8.1c-0.4-5.2-2.5-10.1-5.9-14.1c-1.3-1.5-2.6-3.1-4-4.5
		c-5.1-5.5-6.1-11.5-3.2-18.4c1.9-4.5,3.4-11.8,5.3-16.8c0.4-1.2,0.8-2.4,0.9-3.6c0.6-4.7,0.1-5.5-0.7-8.4c-0.8-3.2-2.8-5.9-5-8.3
		c-2.7-3.1-5.5-6.1-8.6-8.7c-8.3-6.8-11.3-15.4-9.7-25.6c1.3-8.5-1.7-15.3-7.2-21.2c-4.4-4.6-9.2-9-14-13.2
		c-8.4-7.3-18.6-10.3-29.5-11.5c-24.5-2.8-49.1-1.9-73.6-1.3c-19.3,0.5-38.7,1.8-57.9,3.7c-13.2,1.3-26.2,4.3-39.3,6.7
		c-18,3.3-36,6.8-54.1,10c-3.4,0.6-4.4,2-4.3,5.3C287,238.6,287,267.2,287,295.7z"/>
</g>
<g>
	<path class="st10" d="M806.8,460.2V266H845l79.5,129.7V266h36.4v194.2h-39.3l-78.3-126.6v126.6H806.8z"/>
	<path class="st10" d="M1001.1,460.2V266h39.2v194.2H1001.1z"/>
	<path class="st10" d="M1077.7,460.2V266h144v32.8h-104.8v43h97.5v32.7h-97.5v52.8h108.5v32.7H1077.7z"/>
	<path class="st10" d="M1302.3,460.2V298.9h-57.6V266H1399v32.8h-57.5v161.3H1302.3z"/>
	<path class="st10" d="M1500.8,460.2V267.6h39.2v159.9h97.5v32.7H1500.8z"/>
	<path class="st10" d="M1665.4,460.2V266h144v32.8h-104.8v43h97.5v32.7h-97.5v52.8h108.5v32.7H1665.4z"/>
	<path class="st10" d="M1846.1,266h39.2v105.2c0,16.7,0.5,27.5,1.5,32.5c1.7,7.9,5.7,14.3,12,19.1c6.3,4.8,14.9,7.2,25.9,7.2
		c11.1,0,19.5-2.3,25.2-6.8c5.7-4.5,9.1-10.1,10.2-16.8c1.1-6.6,1.7-17.6,1.7-33V266h39.2v102c0,23.3-1.1,39.8-3.2,49.4
		c-2.1,9.6-6,17.7-11.7,24.4c-5.7,6.6-13.3,11.9-22.8,15.8c-9.5,3.9-22,5.9-37.4,5.9c-18.5,0-32.6-2.1-42.2-6.4
		c-9.6-4.3-17.2-9.8-22.7-16.7c-5.6-6.8-9.2-14-11-21.5c-2.6-11.1-3.8-27.6-3.8-49.3V266z"/>
	<path class="st10" d="M2042.8,460.2V266h39.2v86.2l79.2-86.2h52.7l-73.1,75.6l77.1,118.5h-50.7l-53.4-91.1l-31.8,32.5v58.7H2042.8z
		"/>
</g>
</svg>
