<?xml version="1.0" encoding="utf-8"?>
<!-- Generator: Adobe Illustrator 21.1.0, SVG Export Plug-In . SVG Version: 6.00 Build 0)  -->
<svg version="1.1" id="OBJECTS" xmlns="http://www.w3.org/2000/svg" xmlns:xlink="http://www.w3.org/1999/xlink" x="0px" y="0px"
	 viewBox="0 0 2400 800" style="enable-background:new 0 0 2400 800;" xml:space="preserve">
<style type="text/css">
	.st0{display:none;}
	.st1{display:inline;fill:#F8B366;}
	.st2{display:inline;fill:#3A9122;}
	.st3{display:inline;fill:#F4A153;}
	.st4{display:inline;fill:#F3A254;}
	.st5{display:inline;fill:#F1A75B;}
	.st6{display:inline;fill:#F4A051;}
	.st7{display:inline;fill:#F2A458;}
	.st8{fill:#337F33;}
	.st9{fill:#43AF43;}
	.st10{fill:#FFFFFF;}
</style>
<g class="st0">
	<path class="st1" d="M-4895.3,465.9c-2.3-11.5-4.5-22.9-6.8-34.4c2-9.7,0.7-23,6.7-28.6c32.3-30.2,70.1-48,116.2-43.2
		c48.4,5.1,98,14.1,141.4-16.8c8.9-6.3,14-21.9,14.9-33.7c0.5-6.5-11.6-13.8-18-20.8c-19.8-36.8-40.7-73.1-59.3-110.6
		c-21.6-43.4-23.8-89.3-10.3-135.6c6.8-23.4,20.3-40.2,47.6-40c-2,5.4-6.7,11.5-5.5,16c5.6,21.1,12.5,41.9,19.7,62.5
		c12.9,36.8,18.4,79.7,41.2,108.9c48,61.2,105.2,115.3,158.9,172c18.7,19.7,36,42,58.2,56.7c38.5,25.5,87.1,37.3,107.1,85.9
		c0.8,1.9,6.2,2,9.5,2.9c0.2,56.9,0.3,113.8,0.5,170.7c-41.1-5.2-78.3,2.2-112.3,28.3s-70.5,49.1-105.9,73.5
		c-90.5,27.2-183.7,19.7-276.1,21.1c-16.9,0.3-33.8-1.8-50.7-3c-27.7-2-41.2-15.7-36.1-44.4c31.7-19.8,63.5-39.5,91.2-56.8
		c-33.8-7.9-51-11.1-84,8.8c-12.4-15.7-27.9-30-36.2-47.7c-5.1-11,0.7-27.2,1.7-41c5.5,3.8,12.3,11.9,16.2,10.7
		c42.1-13.1,83.6-27.7,121.7-40.7c-28.9-24.8-89.5-26.1-130.3,2.4c-12-20-27.8-38.8-34.6-60.4c-4.6-14.5,3.7-33,6.2-49.7
		c0.7,12,1.5,24,1.9,30.6c52.5-12.5,103.4-24.6,160.3-38.1c-38.1-6.8-72.5-15.1-107.4-18.1C-4863.1,451.9-4879.4,461.4-4895.3,465.9
		z"/>
	<path class="st2" d="M-4273.2,677.9c-0.2-56.9-0.3-113.8-0.5-170.7c0.1-38.9,0.2-77.8,0.3-116.8c6.5-29.5,26-39,54.8-39.4
		c89.6-1.2,90.6-0.8,90.6,89.9c0,87.4,0.1,174.8-0.1,262.2c-0.1,40.5-10.1,50.4-49.9,51.3c-13.6,0.3-27.3-0.3-40.9,0.5
		c-31,1.8-50.1-10.8-54.1-42.9C-4273.1,700.6-4273.2,689.3-4273.2,677.9z"/>
	<path class="st3" d="M-4273.5,390.4c-0.1,38.9-0.2,77.8-0.3,116.8c-3.3-0.9-8.7-1-9.5-2.9c-20-48.6-68.6-60.4-107.1-85.9
		c-22.2-14.7-39.5-37-58.2-56.7c-53.8-56.7-110.9-110.8-158.9-172c-22.9-29.2-28.4-72.1-41.2-108.9c-7.2-20.6-14-41.4-19.7-62.5
		c-1.2-4.5,3.5-10.7,5.5-16c32.4-2.7,50.4,10.9,55.5,44.2c10.7,70.3,45.2,126.8,98.8,174.1c43.5,38.3,83.2,81,123.2,123
		C-4354.5,375.8-4318.2,392.3-4273.5,390.4z"/>
	<path class="st4" d="M-4641,288.4c6.4,7,18.5,14.3,18,20.8c-0.9,11.8-6,27.4-14.9,33.7c-43.4,30.9-93,21.9-141.4,16.8
		c-46.1-4.8-83.8,13-116.2,43.2c-5.9,5.6-4.6,18.9-6.7,28.6c-25.2-56.6-0.4-100.5,59.3-102.3c44.1-1.3,88.4,2.3,132.3-0.8
		c23.5-1.7,46.2-12.9,69.3-19.8c0.7-0.6,2.2-1.3,2.1-1.8c-0.2-1.7-0.9-3.3-1.4-4.9C-4640.7,297.4-4640.8,292.9-4641,288.4z"/>
	<path class="st5" d="M-4273.2,677.9c0.1,11.4,0.1,22.7,0.2,34.1c-50.9-7.5-94.6,8.4-137.2,36.1c-23.8,15.5-53.9,21.4-81.2,31.6
		c35.4-24.4,71.9-47.3,105.9-73.5C-4351.5,680.1-4314.4,672.6-4273.2,677.9z"/>
	<path class="st6" d="M-4895.3,465.9c15.9-4.5,32.1-14,47.5-12.6c34.9,3,69.3,11.4,107.4,18.1c-56.8,13.5-107.8,25.6-160.3,38.1
		c-0.4-6.5-1.1-18.6-1.9-30.6C-4900.1,474.6-4897.7,470.2-4895.3,465.9z"/>
	<path class="st6" d="M-4874.1,589c40.9-28.4,101.5-27.2,130.3-2.4c-38,12.9-79.6,27.5-121.7,40.7c-3.9,1.2-10.7-6.9-16.2-10.7
		l0.2-0.4c2-7.1,3.9-14.3,5.9-21.4C-4875.7,592.7-4875.2,590.8-4874.1,589z"/>
	<path class="st7" d="M-4847.1,705.4c33-19.8,50.2-16.7,84-8.8c-27.8,17.3-59.5,37.1-91.2,56.8v-0.1c-0.1-7-0.2-14.1-0.3-21.1
		c-0.4-2.2-0.1-4.4,0.7-6.5c1.8-3.1,3.5-6.2,5.3-9.3C-4848.1,712.7-4847.6,709-4847.1,705.4z"/>
	<path class="st1" d="M-4875.5,594.8c-2,7.2-3.9,14.3-5.9,21.4C-4879.4,609.1-4877.4,601.9-4875.5,594.8z"/>
	<path class="st1" d="M-4854.6,732.2c0.1,7,0.2,14.1,0.3,21.1C-4854.4,746.3-4854.5,739.2-4854.6,732.2z"/>
	<path class="st1" d="M-4640.6,301.9c0.5,1.6,1.2,3.2,1.4,4.9c0.1,0.5-1.4,1.2-2.1,1.8C-4641.9,306.2-4641.6,304-4640.6,301.9z"/>
	<path class="st1" d="M-4848.6,716.4c-1.8,3.1-3.5,6.2-5.3,9.3C-4852.2,722.6-4850.4,719.5-4848.6,716.4z"/>
</g>
<g>
	<g>
		<path class="st8" d="M2362.8,800.5H78.5C58,800.5,0,782.1,0,775.3L41.3,25.7c0-6.8,16.7-12.4,37.2-12.4L2321.5,0.5
			c20.4,0,78.5,18.4,78.5,25.2v762.4C2400,794.9,2383.3,800.5,2362.8,800.5z"/>
	</g>
	<path class="st9" d="M2346.7,786.7H12c-6.6,0-12-5.4-12-12V11.5c0-6.6,5.4-12,12-12h2334.7c6.6,0,12,5.4,12,12v763.2
		C2358.7,781.3,2353.3,786.7,2346.7,786.7z"/>
</g>
<g>
	<path class="st10" d="M168,439.3c0.4-1.1,0.9-2.1,1.1-3.2c1.6-8.2,8.6-14.3,17-14.3c18.9-0.1,37.8-0.1,56.8,0
		c9.7,0,17.4,7.9,17.4,17.7c0.1,21,0,42,0,63c0,37.3,0,74.6,0,112c0,12-7.5,19.8-19.5,19.9c-17.5,0.1-35,0.1-52.5,0
		c-11.7-0.1-18.6-7.4-19.4-15.9c-0.1-0.6-0.6-1.1-0.9-1.7C168,557.6,168,498.5,168,439.3z"/>
	<path class="st10" d="M272,525.8c0-29.8,0-59.7,0-89.5c0-5.2,0-5.4,5-5.2c10.4,0.4,18-5,24.8-11.9c11.7-12,20.4-26.2,27.7-41.1
		c7.7-15.7,14.8-31.7,21.5-47.8c4.6-11.2,11.4-20.7,21.1-27.3c24.1-16.3,35.5-39.9,39.9-67.5c2.4-15.4,4-31,5.5-46.6
		c0.7-6.9,3.6-9.2,12.7-8.7c22.6,1.2,43.4,17,48.3,46.4c3.9,23.4,0.2,45.5-10.2,66.7c-7.3,14.9-14.1,30-20.5,45.2
		c-2.7,6.4-3.9,13.4-2.8,20.5c0.8,5.3,1.4,5.9,6.5,5.9c14.3-0.2,28.5-0.8,42.8-0.7c22.7,0.1,45.3,0.3,67.9,3
		c7.1,0.9,14.3,2.5,19.6,7.7c8.7,8.6,20,9.3,20.6,26.7c0.1,2.2-0.2,17.7-3.3,21.6c-2.8,3.6-5.2,7.4-8.1,11
		c-4.4,5.5-4.7,11.3-1.3,17.3c3,5.3,9.3,13,9.2,19.1c-0.2,6.1-0.2,5-0.5,8.5c-0.5,5.4-2.6,10.6-6.2,14.8c-1.4,1.6-2.8,3.2-4.2,4.8
		c-5.3,5.8-6.4,12.1-3.4,19.3c2,4.8,3.6,12.4,5.6,17.7c0.5,1.2,0.8,2.5,1,3.8c0.6,4.9,0.1,5.8-0.7,8.8c-0.8,3.3-2.9,6.2-5.2,8.7
		c-2.8,3.2-5.8,6.5-9,9.2c-8.7,7.1-11.9,16.2-10.2,26.9c1.4,8.9-1.8,16.1-7.6,22.3c-4.6,4.9-9.6,9.4-14.7,13.8
		c-8.9,7.6-19.6,10.8-31,12.1c-25.7,2.9-51.5,2-77.3,1.4c-20.3-0.5-40.6-1.9-60.8-3.9c-13.8-1.4-27.5-4.5-41.3-7
		c-18.9-3.5-37.8-7.2-56.8-10.5c-3.6-0.6-4.6-2.1-4.6-5.6C272.1,585.7,272,555.7,272,525.8z"/>
</g>
<g>
	<path class="st10" d="M1241.1,522.2V261.6h53.1V478h131.9v44.3H1241.1z"/>
	<path class="st10" d="M1463.9,522.2V259.5h194.8v44.5H1517v58.3h131.9v44.3H1517V478h146.8v44.3H1463.9z"/>
	<path class="st10" d="M1708.4,259.5h53.1v142.3c0,22.6,0.7,37.2,2,43.9c2.3,10.8,7.7,19.4,16.2,25.9c8.5,6.5,20.2,9.8,35,9.8
		c15.1,0,26.4-3.1,34.1-9.2c7.6-6.2,12.2-13.7,13.8-22.7s2.3-23.8,2.3-44.6V259.5h53.1v138c0,31.5-1.4,53.8-4.3,66.9
		c-2.9,13-8.2,24-15.9,33c-7.7,9-18,16.1-30.9,21.4c-12.9,5.3-29.8,8-50.5,8c-25.1,0-44.1-2.9-57.1-8.7c-13-5.8-23.2-13.3-30.7-22.6
		c-7.5-9.3-12.5-19-14.9-29.1c-3.5-15.1-5.2-37.3-5.2-66.7V259.5z"/>
	<path class="st10" d="M1974.6,522.2V259.5h53.1v116.7l107.2-116.7h71.3l-98.9,102.4l104.3,160.4h-68.7l-72.2-123.3l-43,43.9v79.4
		H1974.6z"/>
</g>
</svg>
