<?xml version="1.0" encoding="utf-8"?>
<!-- Generator: Adobe Illustrator 21.1.0, SVG Export Plug-In . SVG Version: 6.00 Build 0)  -->
<svg version="1.1" id="OBJECTS" xmlns="http://www.w3.org/2000/svg" xmlns:xlink="http://www.w3.org/1999/xlink" x="0px" y="0px"
	 viewBox="0 0 800 800" style="enable-background:new 0 0 800 800;" xml:space="preserve">
<style type="text/css">
	.st0{fill:#F8B366;}
	.st1{fill:#3A9122;}
	.st2{fill:#F4A153;}
	.st3{fill:#F3A254;}
	.st4{fill:#F1A75B;}
	.st5{fill:#F4A051;}
	.st6{fill:#F2A458;}
	.st7{display:none;}
	.st8{display:inline;fill:#F8B366;}
	.st9{display:inline;fill:#F4A051;}
	.st10{display:inline;fill:#BC1313;}
	.st11{display:inline;fill:#F8B467;}
	.st12{display:inline;fill:#F8B264;}
</style>
<g>
	<path class="st0" d="M24.7,465.9c-2.3-11.5-4.5-22.9-6.8-34.4c2-9.7,0.7-23,6.7-28.6c32.3-30.2,70.1-48,116.2-43.2
		c48.4,5.1,98,14.1,141.4-16.8c8.9-6.3,14-21.9,14.9-33.7c0.5-6.5-11.6-13.8-18-20.8c-19.8-36.8-40.7-73.1-59.3-110.6
		c-21.6-43.4-23.8-89.3-10.3-135.6c6.8-23.4,20.3-40.2,47.6-40c-2,5.4-6.7,11.5-5.5,16c5.6,21.1,12.5,41.9,19.7,62.5
		c12.9,36.8,18.4,79.7,41.2,108.9c48,61.2,105.2,115.3,158.9,172c18.7,19.7,36,42,58.2,56.7c38.5,25.5,87.1,37.3,107.1,85.9
		c0.8,1.9,6.2,2,9.5,2.9c0.2,56.9,0.3,113.8,0.5,170.7c-41.1-5.2-78.3,2.2-112.3,28.3c-34,26.1-70.5,49.1-105.9,73.5
		c-90.5,27.2-183.7,19.7-276.1,21.1c-16.9,0.3-33.8-1.8-50.7-3c-27.7-2-41.2-15.7-36.1-44.4c31.7-19.8,63.5-39.5,91.2-56.8
		c-33.8-7.9-51-11.1-84,8.8c-12.4-15.7-27.9-30-36.2-47.7c-5.1-11,0.7-27.2,1.7-41c5.5,3.8,12.3,11.9,16.2,10.7
		c42.1-13.1,83.6-27.7,121.7-40.7c-28.9-24.8-89.5-26.1-130.3,2.4c-12-20-27.8-38.8-34.6-60.4c-4.6-14.5,3.7-33,6.2-49.7
		c0.7,12,1.5,24,1.9,30.6c52.5-12.5,103.4-24.6,160.3-38.1c-38.1-6.8-72.5-15.1-107.4-18.1C56.9,451.9,40.6,461.4,24.7,465.9z"/>
	<path class="st1" d="M646.8,677.9c-0.2-56.9-0.3-113.8-0.5-170.7c0.1-38.9,0.2-77.8,0.3-116.8c6.5-29.5,26-39,54.8-39.4
		c89.6-1.2,90.6-0.8,90.6,89.9c0,87.4,0.1,174.8-0.1,262.2c-0.1,40.5-10.1,50.4-49.9,51.3c-13.6,0.3-27.3-0.3-40.9,0.5
		c-31,1.8-50.1-10.8-54.1-42.9C646.9,700.6,646.8,689.3,646.8,677.9z"/>
	<path class="st2" d="M646.5,390.4c-0.1,38.9-0.2,77.8-0.3,116.8c-3.3-0.9-8.7-1-9.5-2.9c-20-48.6-68.6-60.4-107.1-85.9
		c-22.2-14.7-39.5-37-58.2-56.7c-53.8-56.7-110.9-110.8-158.9-172c-22.9-29.2-28.4-72.1-41.2-108.9c-7.2-20.6-14-41.4-19.7-62.5
		c-1.2-4.5,3.5-10.7,5.5-16c32.4-2.7,50.4,10.9,55.5,44.2c10.7,70.3,45.2,126.8,98.8,174.1c43.5,38.3,83.2,81,123.2,123
		C565.5,375.8,601.8,392.3,646.5,390.4z"/>
	<path class="st3" d="M279,288.4c6.4,7,18.5,14.3,18,20.8c-0.9,11.8-6,27.4-14.9,33.7c-43.4,30.9-93,21.9-141.4,16.8
		c-46.1-4.8-83.8,13-116.2,43.2c-5.9,5.6-4.6,18.9-6.7,28.6C-7.4,374.9,17.4,331,77.1,329.2c44.1-1.3,88.4,2.3,132.3-0.8
		c23.5-1.7,46.2-12.9,69.3-19.8c0.7-0.6,2.2-1.3,2.1-1.8c-0.2-1.7-0.9-3.3-1.4-4.9C279.3,297.4,279.2,292.9,279,288.4z"/>
	<path class="st4" d="M646.8,677.9c0.1,11.4,0.1,22.7,0.2,34.1c-50.9-7.5-94.6,8.4-137.2,36.1c-23.8,15.5-53.9,21.4-81.2,31.6
		c35.4-24.4,71.9-47.3,105.9-73.5C568.5,680.1,605.6,672.6,646.8,677.9z"/>
	<path class="st5" d="M24.7,465.9c15.9-4.5,32.1-14,47.5-12.6c34.9,3,69.3,11.4,107.4,18.1C122.8,484.9,71.8,497,19.3,509.5
		c-0.4-6.5-1.1-18.6-1.9-30.6C19.9,474.6,22.3,470.2,24.7,465.9z"/>
	<path class="st5" d="M45.9,589c40.9-28.4,101.5-27.2,130.3-2.4c-38,12.9-79.6,27.5-121.7,40.7c-3.9,1.2-10.7-6.9-16.2-10.7
		c0,0,0.2-0.4,0.2-0.4c2-7.1,3.9-14.3,5.9-21.4C44.3,592.7,44.8,590.8,45.9,589z"/>
	<path class="st6" d="M72.9,705.4c33-19.8,50.2-16.7,84-8.8c-27.8,17.3-59.5,37.1-91.2,56.8c0,0,0-0.1,0-0.1
		c-0.1-7-0.2-14.1-0.3-21.1c-0.4-2.2-0.1-4.4,0.7-6.5c1.8-3.1,3.5-6.2,5.3-9.3C71.9,712.7,72.4,709,72.9,705.4z"/>
	<path class="st0" d="M44.5,594.8c-2,7.2-3.9,14.3-5.9,21.4C40.6,609.1,42.6,601.9,44.5,594.8z"/>
	<path class="st0" d="M65.4,732.2c0.1,7,0.2,14.1,0.3,21.1C65.6,746.3,65.5,739.2,65.4,732.2z"/>
	<path class="st0" d="M279.4,301.9c0.5,1.6,1.2,3.2,1.4,4.9c0.1,0.5-1.4,1.2-2.1,1.8C278.1,306.2,278.4,304,279.4,301.9z"/>
	<path class="st0" d="M71.4,716.4c-1.8,3.1-3.5,6.2-5.3,9.3C67.8,722.6,69.6,719.5,71.4,716.4z"/>
</g>
<g class="st7">
	<path class="st8" d="M651.3,412.7c-54.6-7.2-95.7,18.3-131.6,55.2c-40,41-77.3,85-119.6,123.4c-50,45.3-79.2,99.5-92.1,164.9
		c-9,45.8-41.6,56.3-81.4,28.6c3-9.4,11.3-21.5,8.2-27.8c-19.7-39.8,2.7-66.9,23.2-96.9c44.7-65.2,94-126.7,91.3-215.1
		c-1.8-60.1,23.1-114.4,89.6-136.5c40.9-13.6,80.8-30.3,121.2-45.6c-75.9-18.6-145.9,4.8-216.4,35.3c-1.6-11.2-3.5-16.8-2.9-22.1
		c6.7-63,13.1-126,21.5-188.7c0.7-5.6,14.4-13.7,21.8-13.5c51.2,1.5,92.6,23,124.4,63.7c11.7,14.9,23.5,32.9,39.5,40.5
		c32.9,15.7,68.7,25.4,103.4,37.6c0.3,45.2,0.5,90.4,0.8,135.7c0,11.2-0.1,22.4-0.1,33.5C651.7,394.1,651.5,403.4,651.3,412.7z"/>
	<path class="st9" d="M651.2,215.6c-34.6-12.2-70.4-21.9-103.4-37.6c-16-7.7-27.9-25.6-39.5-40.5c-31.8-40.7-73.2-62.2-124.4-63.7
		c-7.4-0.2-21,7.9-21.8,13.5c-8.4,62.7-14.8,125.7-21.5,188.7c-0.6,5.3,1.3,10.9,2.9,22.1c70.5-30.5,140.5-53.9,216.4-35.3
		c-40.4,15.3-80.3,32-121.2,45.6c-66.5,22.1-91.4,76.4-89.6,136.5c2.6,88.4-46.6,149.9-91.3,215.1c-20.6,30-43,57.2-23.2,96.9
		c3.2,6.4-5.2,18.4-8.2,27.8c0,0-1.2-0.9-1.2-0.9c-1.9-1.9-3.8-3.8-5.7-5.7c0,0-0.9-1-0.9-1c-1.5-1.8-3-3.6-4.5-5.4
		c-35.6-72.2-6.4-134.7,29.4-196.2c9-15.4,18.5-30.6,27.7-45.9c12.5-21,9.8-38.3-12.4-50.8c0.6-8-1.7-18,2.2-23.7
		c25.9-38.2,24.8-59.2-16.6-71.4C167.6,361,88.2,344.3,15.1,405.5c0-11.5,0-22.4,0-33.3c2.3-4.8,4.6-9.5,6.9-14.3
		c10-4.5,20.1-12.9,30.1-12.9c64.6,0,129.3,0.6,193.9,3.6c25.9,1.2,40.7-9.9,49.6-31.1c9.5-22.5-6-33.4-23.5-40.9
		c-13.2-5.7-27.2-12.9-41.1-13.3c-46.7-1.5-93.7-3.1-140.2,0.8C65,266.2,40.1,279.2,15,287.2c0-4.5,0-17.5,0-30.6
		c6.6-7.1,13.2-14.1,19.8-21.2c38-2.2,76-5.2,114-6.3c38.3-1.1,76.6-1.4,114.9,0.3c23.6,1,39.7-10.2,40.5-30.4
		c0.6-14.7-9.4-38.7-20.8-43.4c-28.4-11.5-60.8-21-90.8-19.1c-53.5,3.4-109.9,1.9-156.2,37.8c0.1-6.8,0.1-13.5,0.2-20.3
		c4.1-10.9,8.3-21.9,12.4-32.8c8.3-2.9,16.6-5.8,24.9-8.7c57.1-1.5,114.5-7.4,171.2-3.4c53.6,3.8,55,7.2,65.1-43.2
		c-32.7-35-75.4-33-118.2-34.4c-44.4-1.4-85.9,3.3-123.1,41.6c0-19,0-30.2,0-41.3c9.3-8.2,18.3-23.2,27.8-23.5
		C215.6,5.4,335.3-5.9,451.2,32.9c19,6.4,39.2,13.4,54.7,25.3c44,33.9,92.8,42.4,146.1,35.7C651.7,134.5,651.5,175,651.2,215.6z"/>
	<path class="st10" d="M651.2,215.6c0.3-40.6,0.5-81.1,0.8-121.7c6-26.2,22.8-35.3,49.1-35.6c95-1.2,95-1.8,95,93.3
		c0,83.3,0.3,166.5,0,249.8c-0.1,38.4-11.6,49.5-50.5,50.4c-13.5,0.3-27-0.5-40.5,0.1c-28.6,1.3-47.9-9.7-53.9-39.2
		c0.2-9.3,0.4-18.6,0.6-27.9c0-11.2,0.1-22.4,0.1-33.5C651.7,306,651.5,260.8,651.2,215.6z"/>
	<path class="st11" d="M15.1,372.2c0,10.9,0,21.8,0,33.3c73.1-61.2,152.4-44.6,229.4-21.9c41.4,12.2,42.6,33.2,16.6,71.4
		c-3.9,5.7-1.6,15.7-2.2,23.7c-48,0-96,0.4-143.9-0.2c-15.6-0.2-31.1-4.1-46.7-4.6C17,472.2-4.6,426.4,15.1,372.2z"/>
	<path class="st12" d="M15,256.6c0,13,0,26.1,0,30.6c25.1-8,50-21,75.8-23.2c46.5-3.9,93.5-2.4,140.2-0.8
		c13.8,0.5,27.8,7.6,41.1,13.3c17.5,7.6,33,18.4,23.5,40.9c-8.9,21.2-23.8,32.3-49.6,31.1c-64.6-3-129.3-3.6-193.9-3.6
		c-10,0-20.1,8.4-30.1,12.9c-4.5-20-10.9-39.8-12.9-60.1C7.8,284.4,12.9,270.4,15,256.6z"/>
	<path class="st8" d="M36.4,174.5c46.3-36,102.7-34.4,156.2-37.8c30-1.9,62.4,7.6,90.8,19.1c11.4,4.6,21.4,28.6,20.8,43.4
		c-0.8,20.2-16.9,31.4-40.5,30.4c-38.2-1.7-76.6-1.4-114.9-0.3c-38,1.1-76,4.1-114,6.3c2.8-9.9,7.6-19.7,7.8-29.6
		C42.9,195.4,38.7,184.9,36.4,174.5z"/>
	<path class="st12" d="M68.9,32.1c0,11.1,0,22.3,0,41.3c37.2-38.3,78.7-43,123.1-41.6c42.8,1.3,85.5-0.6,118.2,34.4
		c-10,50.4-11.4,46.9-65.1,43.2c-56.7-4-114.1,1.8-171.2,3.4C72.3,85.8,70.6,58.9,68.9,32.1z"/>
	<path class="st9" d="M652,351.3c0,11.2-0.1,22.4-0.1,33.5C651.9,373.6,652,362.4,652,351.3z"/>
</g>
</svg>
