<?xml version="1.0" encoding="utf-8"?>
<!-- Generator: Adobe Illustrator 21.1.0, SVG Export Plug-In . SVG Version: 6.00 Build 0)  -->
<svg version="1.1" id="Layer_3" xmlns="http://www.w3.org/2000/svg" xmlns:xlink="http://www.w3.org/1999/xlink" x="0px" y="0px"
	 viewBox="0 0 1920 1080" style="enable-background:new 0 0 1920 1080;" xml:space="preserve">
<style type="text/css">
	.st0{fill:#82A6BF;}
	.st1{fill:#69869E;}
	.st2{fill:none;stroke:#69869E;stroke-width:60;stroke-miterlimit:10;}
</style>
<path class="st0" d="M892.8,193L892.8,193c-5,0-9.9,1.9-13.6,5.3L666.8,400.7c-3.7,3.4-8.6,5.3-13.6,5.3h-114
	c-11.1,0-20.2,9-20.2,20.2v247.6c0,11.1,9,20.2,20.2,20.2h111.7c5.2,0,10.2,2,14,5.7l210.3,193.7c3.8,3.6,8.8,5.7,14,5.7h3.7
	c11.1,0,20.2-9,20.2-20.2V213.2C913,202,904,193,892.8,193z"/>
<path class="st1" d="M890.9,904h10.1c6.6,0,11.9-5.4,11.9-11.9V199.9c0-6.6-5.4-11.9-11.9-11.9h-10.1c-6.6,0-11.9,5.4-11.9,11.9
	v692.1C879,898.6,884.4,904,890.9,904z"/>
<path class="st2" d="M987.9,402c43.6,38.3,71.1,94.5,71.1,157c0,54-20.4,103.1-54,140.2"/>
<path class="st2" d="M1078.4,306c84.5,46.7,141.7,136.6,141.7,240c0,101.4-55.1,189.9-136.9,237.3"/>
<path class="st2" d="M1184.9,226.9c119.3,56.6,201.8,178.2,201.8,319.1c0,141.1-82.8,262.9-202.5,319.4"/>
</svg>
