<?xml version="1.0" encoding="utf-8"?>
<!-- Generator: Adobe Illustrator 21.1.0, SVG Export Plug-In . SVG Version: 6.00 Build 0)  -->
<svg version="1.1" id="OBJECTS" xmlns="http://www.w3.org/2000/svg" xmlns:xlink="http://www.w3.org/1999/xlink" x="0px" y="0px"
	 viewBox="0 0 800 800" style="enable-background:new 0 0 800 800;" xml:space="preserve">
<style type="text/css">
	.st0{fill:#315D89;}
	.st1{fill:#3D6FB7;}
	.st2{display:none;}
	.st3{display:inline;fill:#F8B366;}
	.st4{display:inline;fill:#3A9122;}
	.st5{display:inline;fill:#F4A153;}
	.st6{display:inline;fill:#F3A254;}
	.st7{display:inline;fill:#F1A75B;}
	.st8{display:inline;fill:#F4A051;}
	.st9{display:inline;fill:#F2A458;}
	.st10{fill:none;stroke:#FFFFFF;stroke-width:75.3061;stroke-miterlimit:10;}
	.st11{fill:#FFFFFF;}
	.st12{fill:none;stroke:#FFFFFF;stroke-width:31.7131;stroke-miterlimit:10;}
	.st13{fill:none;}
	.st14{fill:#337F33;}
	.st15{fill:#43AF43;}
	.st16{fill:#891A1A;}
	.st17{fill:#AF1E1E;}
</style>
<g>
	<g>
		<path class="st0" d="M788.1,800H25.7c-6.8,0-26.2-18.4-26.2-25.2L13.3,25.2c0-6.8,5.6-12.4,12.4-12.4L774.3,0
			c6.8,0,26.2,18.4,26.2,25.2v762.4C800.5,794.4,794.9,800,788.1,800z"/>
	</g>
	<path class="st1" d="M774.7,787.2H11.5c-6.6,0-12-5.4-12-12V12c0-6.6,5.4-12,12-12h763.2c6.6,0,12,5.4,12,12v763.2
		C786.7,781.8,781.3,787.2,774.7,787.2z"/>
</g>
<g>
	<path class="st11" d="M357.4,168.7L357.4,168.7c-3.4,0-6.7,1.3-9.2,3.6L204.9,308.9c-2.5,2.3-5.8,3.6-9.2,3.6h-76.9
		c-7.5,0-13.6,6.1-13.6,13.6v167.1c0,7.5,6.1,13.6,13.6,13.6h75.4c3.5,0,6.9,1.3,9.4,3.8l141.9,130.7c2.6,2.4,5.9,3.8,9.4,3.8h2.5
		c7.5,0,13.6-6.1,13.6-13.6V182.4C371,174.8,364.9,168.7,357.4,168.7z"/>
	<path class="st11" d="M356.1,648.5h6.8c4.5,0,8-3.6,8-8V173.4c0-4.5-3.6-8-8-8h-6.8c-4.5,0-8,3.6-8,8v467
		C348.1,644.8,351.7,648.5,356.1,648.5z"/>
	<path class="st12" d="M421.5,309.7c29.4,25.8,48,63.8,48,105.9c0,36.4-13.8,69.6-36.4,94.6"/>
	<path class="st12" d="M482.6,245c57,31.5,95.6,92.2,95.6,161.9c0,68.4-37.2,128.1-92.4,160.1"/>
	<path class="st12" d="M554.5,191.6c80.5,38.2,136.2,120.2,136.2,215.3c0,95.2-55.9,177.4-136.6,215.5"/>
</g>
</svg>
