<?xml version="1.0" encoding="utf-8"?>
<!-- Generator: Adobe Illustrator 18.0.0, SVG Export Plug-In . SVG Version: 6.00 Build 0)  -->
<!DOCTYPE svg PUBLIC "-//W3C//DTD SVG 1.1//EN" "http://www.w3.org/Graphics/SVG/1.1/DTD/svg11.dtd">
<svg version="1.1" xmlns="http://www.w3.org/2000/svg" xmlns:xlink="http://www.w3.org/1999/xlink" x="0px" y="0px"
	 viewBox="0 0 402.3 297" enable-background="new 0 0 402.3 297" xml:space="preserve">
<g id="Layer_2">
	<path fill="none" stroke="#000000" stroke-width="0.4563" stroke-miterlimit="10" d="M20.5,63.6c0,0,26.6-18.6,52.7-5.5
		c17,8.5,66.4,52.3,97.3,22.8"/>
	<path fill="none" stroke="#000000" stroke-width="0.4563" stroke-miterlimit="10" d="M20.5,71.3c0,0,19.1-13.1,44.6-5.7
		c3.6,1.1,7,2.8,10,5c21.1,15.8,27.3,20,27.3,20s31.9,22.2,68.1,5.8"/>
	<path fill="none" stroke="#000000" stroke-width="0.4563" stroke-miterlimit="10" d="M20.5,76.4c0,0,18-10.7,46.2,0.6
		c0.5,0.2,1,0.4,1.5,0.5c11.3,4,22.9,18.7,30.9,25.6c13.1,11.3,36.2,21.6,71.5,8.2"/>
	<path fill="none" stroke="#000000" stroke-width="0.4563" stroke-miterlimit="10" d="M20.5,82c0,0,14.1-7.9,42.7,4
		c11.6,3.7,25.5,22.5,33.8,29.6c13.1,11.3,38.3,25.2,73.6,11.9"/>
	<path fill="none" stroke="#000000" stroke-width="0.4563" stroke-miterlimit="10" d="M20.5,88.6c0,0,13.5-5.4,41.6,6
		c0.1,0.1,0.3,0.1,0.4,0.2c0.9,0.4,1.8,0.8,2.6,1.3c11.5,6.7,22.7,20.8,28.2,29.4c11.9,18.3,42,31.3,77.3,17.9"/>
	<g>
		<path fill="#1D1D1B" d="M65.6,63h0.7c0,0,4.6,17.4,5.7,23c0.7,3.6-0.8,7.8-5.4,7.3c-1-0.1-1.8-0.8-2.1-1.8
			c-1.4-4.7,3.8-5.6,5.7-5.8c0.4,0,0.6-0.4,0.5-0.8L65.6,63z"/>
		<path fill="#727272" d="M65.1,90.9c0,0,0.8-2,2.7-3.4C68,86.2,63.6,88.5,65.1,90.9z"/>
	</g>
	<g>
		<path fill="#1D1D1B" d="M76.9,70.3h0.7c0,0,4.6,17.4,5.7,23c0.7,3.6-0.8,7.8-5.4,7.3c-1-0.1-1.8-0.8-2.1-1.8
			c-1.4-4.7,3.8-5.6,5.7-5.8c0.4,0,0.6-0.4,0.5-0.8L76.9,70.3z"/>
		<path fill="#727272" d="M76.4,98.2c0,0,1.2-3.3,2.7-3.4C79.3,93.5,74.9,95.9,76.4,98.2z"/>
	</g>
	<path fill="#1D1D1B" d="M48.5,106.2c0,0,3.3-2.2,2.2-4.5c-0.6-1.2-1.7-1.7-2.7-1.9c-0.9-0.2-1.8,0.2-2.4,0.9c-0.6,0.8-1.2,2-1,3.2
		c0.2,1.2,1.2,2.4,2.1,3.1c0.6,0.6,1.5,0.9,2.3,0.8c1.2,0,2.9-0.1,3.9-0.5c1-0.4,3.4-1.8,3.7-4.8c0.2-3-4.3-10.9-4.3-10.9l-5.3-10.3
		l-5.2-10c0,0-3.9-6.8-3.7-10c0.2-3.2,0.6-6.3,2.4-6.5s2.4,2.7,2.3,4.3c-0.1,1.6-3.4,9.9-4,10.7c-1.5,2.4-4.3,9.7-4.4,9.7
		c-0.5,0.9-0.1,8.5,1.9,10.4c2,1.9,4.4,4.9,10.1,4.9c5.9,0,9-5.4,9.2-6c0.6-1.5,0.6-5.8-1.5-8.5c-1.9-2.4-3.5-3.7-8.2-2.9
		c-3.8,0.6-4.7,5.2-4.9,6.9c0,0.4,0,0.8,0.1,1.2c0.4,1.4,1.7,5,5,5.3c0.3,0,0.5-0.4,0.2-0.6c-2.4-1.5-2.9-3.5-2.9-4.7
		c0-0.5,0.1-1.1,0.4-1.5c0.8-1.4,3.2-4.2,7.7-1.8c5.7,3.1,1.6,8,1.6,8s-4,4.2-7.7,3.5c-3.6-0.6-8.4-2.7-8.1-7.7
		c0.3-5.8,3.6-11.1,6.4-16.1c2.6-4.8,0.8-11.1,0-14c-0.2-0.8-0.6-1.5-1.1-2.1c-1.1-1.4-2.4-4.2-4.1-3.8c-0.6,0.1-2.3,4.6-2.4,8.2
		c-0.1,3.7,3,9.9,3,9.9l7.7,15.6l6.5,12.8c0,0,2.9,5.9,0.5,8.7C51.4,107.8,48.5,106.2,48.5,106.2z"/>
	<path fill="#727272" d="M45.5,103.4c-0.5-0.5,1.9-3.4,3-2.8C46.1,102,45.9,103.9,45.5,103.4z"/>
	<path fill="#727272" d="M42.4,82.9c0,0,0.2-4.7,7.5-4.7c0.9-0.4-3.7-0.9-5.1,0C41.9,80,41.9,83.1,42.4,82.9z"/>
	<path fill="#727272" d="M37.4,55.7c-0.1,0.2-0.4,0.1-0.3-0.1c0.4-2.1,1.1-4.9,1.5-5c0.7-0.2,1.9,1.1,1.8,1.5S40,51.5,39,51.8
		C37.9,52.1,38,54,37.4,55.7z"/>
	<path fill="#727272" d="M35.5,83.4c0,0.2,0.4,0.3,0.4,0c0.3-2.8,1-7.3,2.4-9.3c1-1.4,4.1-7.9,5.1-12.8c0-0.2-0.2-0.3-0.3-0.1
		c-2.6,5.9-3.6,9.9-5.6,13.2C36.6,75.7,35.4,78.8,35.5,83.4z"/>
	<path fill="#1D1D1B" d="M114.9,99.1c0.5-2.1,0.7-4.3,2.8-5.7c0.6-0.4,1.3-0.6,2.1-0.6l25.4,1c2.2,0.1,0.7,8.6,0.2,10.7l-7.5,28.3
		c0,0,0,0,0,0.1c-0.1,0.4-1.1,4.7-4.6,3.6c-3.6-1.1-17.9-5.6-22,4.7c-2.5,6.4,3.9,10.4,9.1,12.5c4.3,1.7,9,2.3,13.6,1.5
		c2.9-0.5,5.8-1.6,6.9-3.9c0.3-0.6,0.6-1.2,0.9-1.7c2.5-4.4,3.8-9.4,4.6-10.8c0.9-1.6,17.1-57,17.1-57l1.4-5.2c0.1-0.5,0-1-0.4-1.3
		c-1.6-1.3-6.1-4.5-10.2-1.8c-0.4,0.2-0.6,0.6-0.6,1l0,0c0,0.7-0.6,1.3-1.3,1.3h-32.7c-0.5,0-1-0.3-1.2-0.8c-0.5-1.5-2.4-4.4-8.3-3
		c-0.5,0.1-0.9,0.5-0.9,1l-8.5,53.1c0,0.1,0,0.1,0,0.2c0,0.6-0.2,4.4-1.4,4c-2.2-0.2-12-5.5-17.9,1.1c-2.4,2.7-2.6,6.7-0.4,9.5
		c2.9,3.8,8.8,6,13.2,6.1c0.1,0,0.1,0,0.2,0c3.1,0.5,10.4-1.8,11.1-5.6c0-0.1,0-0.2,0.1-0.3c2.6-6.1,3.7-16,3.8-16.8
		c0,0,0-0.1,0-0.1"/>
	<path fill="#727272" d="M113.8,80.4c-1.7,8.4-4.5,27.1-7.2,41.8c-1.4,7.6-3.5,14.1-4,17.5c-0.1,0.4,0.6,0.6,0.7,0.2
		c2.7-8.7,9-42.4,9.5-44.9c0-0.1,0-0.2,0-0.3l1.4-14.1C114.3,80.2,113.9,80.1,113.8,80.4z"/>
	<path fill="#515151" d="M102.6,139.7c-0.1,0.4,0.5,0.6,0.7,0.2c3.6-6.8,9-42.4,9.5-44.9"/>
	<path fill="#515151" d="M161.9,77.7c0,0-13.7,43.2-14,44.4s-7.1,22.7-7.3,23.1c-1.4,2.9-5.2,6.7-4.1,6.5c1.5-0.2,4.6-0.3,8.5-14.4
		S159.1,91,159.1,91S164.3,78,161.9,77.7z"/>
	<path fill="#515151" d="M122.9,147.2c0,0,4.9-2.7,4.9-3.6c0-0.9,2.9,0.9,2.9,0.9S125.3,148.1,122.9,147.2z"/>
	<path fill="#141413" d="M150.8,82.6l-3.2,7.4c-0.5,1.1-2,1.9-3.7,1.9h-14.4h-2.8c-0.8,0-1.4-0.5-1.1-1c0.6-1.2,3.9-2.5,5.8-3.3
		c2.8-1.2,10.5-7.5,12.5-7.7c0.7-0.1,5.9-0.8,7.2-0.9C153.5,78.7,151.5,81,150.8,82.6z"/>
	<path fill="#141413" d="M121.9,149.7c-1-0.5-0.8-1.9,0.3-2.1c3.2-0.6,8-1.8,8.8-4c0.7-1.9,2.3-0.5,3.6,1c1,1.2,0.6,3-0.7,3.8
		C131.1,149.9,126.4,151.8,121.9,149.7z"/>
	<path fill="#141413" d="M85.9,142c-1-0.5-0.8-1.9,0.3-2.1c3.2-0.6,8-1.8,8.8-4c0.7-1.9,2.3-0.5,3.6,1c1,1.2,0.6,3-0.7,3.8
		C95.2,142.3,90.5,144.2,85.9,142z"/>
	<path fill="#515151" d="M88.7,138.4c0,0,4.9-2.7,4.9-3.6c0-0.2,1.4-0.1,1.6-0.1c1.2,0.2,0.2,1.6-0.8,2.2
		C92.6,137.9,90.4,140.1,88.7,138.4z"/>
</g>
<g id="Layer_3">
	<path fill="#3F3F44" d="M119,206.8c0,0,2.2-6.6,3.8-9.3c1.5-2.5,4.4-6.6,7.7-8.2c3.3-1.6,8.2-2.7,10.4-2.7s7.6-0.4,8.8,0
		c1.6,0.5,6,1.1,9.3,3.3c2.7,1.8,7.9,8,11,14.8c3.3,7.1,4.9,14.3,4.9,18.7c0,6.6-1.6,16.5-1.6,16.5s-1.6,4.4-2.2,6
		s-6.6,10.4-8.2,11.5s-5.5,2.7-11,3.8s-11.7-0.1-13.7-1.1c-2.2-1.1-3.7-1.1-9.3-6c-4.4-3.8-6.6-10.4-8.2-14.3
		c-1.6-3.7-3.8-14.3-3.8-20.9S119,206.8,119,206.8z"/>
	<path fill="none" stroke="#37373A" stroke-width="0.2747" stroke-miterlimit="10" d="M158.2,195.6c0-0.1-6.7-9-17.6-8.8"/>
	<path d="M155.2,192.5c0,0,9.3,11.5,11,18.7s3.3,17,1.6,23.6s-3.8,15.4-8.8,20.3s-5.5,4.9-5.5,4.9h1.1c0,0,6.6-4.9,9.3-10.4
		s6-16.5,6-20.3c0-3.8-0.5-14.8-2.7-20.3s-8.2-14.3-9.9-15.4S155.2,192.5,155.2,192.5z"/>
	<path d="M145.3,198c0,0-3.8-1.6-6-1.6s-8.2,1.1-11.5,6.6c-3.3,5.5-5.5,11.5-5.5,15.9s2.2,18.7,4.4,22c2.2,3.3,4.9,6.6,9.9,8.2
		s8,2.3,11.5,0.5c1.1-0.5,6-3.8,6-3.8s-4.4,6-8.2,7.1s-9.9-0.5-12.1-2.2s-7.1-6-8.2-7.7s-3.8-8.2-3.8-11.5s-2.2-11.5-0.5-18.1
		s3.8-12.1,6-13.7c2.2-1.6,5.5-4.9,9.3-4.9s8.2,2.2,8.2,2.2S145.3,196.9,145.3,198z"/>
	<path d="M143.1,214.5c0,0,1.1,1,2.2,3.1c1.1,2,1.6,4.1,1.6,6.1s-2.2,7.1-2.2,7.1s-2.2,3.1-3.3,3.1s-0.5,2-0.5,2s2.7,0,4.9-3.6
		c2.2-3.6,2.2-6.1,2.2-6.1s0.5-5.1-1.1-7.7c-0.9-1.4-2.2-3.1-2.2-3.1L143.1,214.5z"/>
	<path fill="#4F4E54" d="M137.1,212.8c0,0,3-0.5,4,0c1,0.5,1.4,0.4,2.5,1.5c1,1,4,4.6,3.5,9.2c-0.5,5.1-2.5,8.7-2.5,8.7
		s-1.5,3.6-3.5,3.6s-4.5,0-6.4-2.1c-2-2.1-2.5-4.6-2.5-4.6v-10.8c0,0,1-3.1,2-4.1C135.1,213.4,137.1,212.8,137.1,212.8z"/>
	<path fill="#6A6873" d="M141.5,188.7c0,0,2.2,1.6,5.5,3.3c4.2,2.1,7.4,4.3,9.9,8.2c2.7,4.4,8.2,17,8.8,24.2
		c0.5,7.1-1.6,14.8-1.6,14.8s-3.3,8.2-4.4,11s-4.4,7.7-6,8.8c-1.3,0.9-1.6,1.6-1.6,1.6l1.6-0.5c1.2-0.2,2.2-1.1,3.3-2.2l4.4-4.9
		c1.6-1.6,4.9-11.5,4.9-11.5s2.7-8.8,2.2-14.8c-0.3-3.8-2.2-15.9-4.4-19.2s-6.8-13.4-14.3-15.9C146.4,190.3,141.5,188.7,141.5,188.7
		z"/>
	<path fill="none" stroke="#37373A" stroke-width="0.2747" stroke-miterlimit="10" d="M154.1,245.8c0,0,6-11,4.9-20.3
		c-1.1-9.3-1.1-8.8-1.1-8.8s-2.7-14.8-12.6-19.2"/>
	<path fill="#E8E8EA" d="M108,219.5l24.7-1.1c0,0,1.6-2.2,2.7-2.2s2.7-0.5,4.4,1.1c2.2,2.2,2.7,4.9,2.7,4.9l0.5,2.2
		c0,0-1.1,3.8-1.6,4.9s-1.6,3.3-4.4,2.7c-2.2-0.4-2.7-1.6-2.7-1.6l-26.4,2.2V219.5z"/>
	<path fill="#66646F" d="M136.5,216.2L136.5,216.2c-0.3-0.2,2.2,0,2.5,0.1c0.7,0.3,2.7,1.3,3.5,2.6c0.6,0.9,1.1,2.6,1.3,3.9
		c0.2,1.1,0.3,2.2,0.2,3.3c-0.2,1.3-0.4,3.1-0.9,3.8c-1.1,1.6-2.7,3.3-4.9,3.3s-2.7-1.6-2.7-1.6s0,0,2.2,0.5
		c1.7,0.4,3.3-1.6,3.8-2.7c0.5-1,1.1-3.8,1.1-5.5c0-1.7-1.3-4.1-2.7-5.5C138.2,216.7,138.7,217.3,136.5,216.2z"/>
	<path fill="#5E5D66" d="M133.3,217.8h2.2l1.1-1.6l1.6,0.5l-0.5,1.6c0,0,1.6,2.7,1.6,3.8c0,0.5,0.2,0.4,0.4,0.2
		c0.6-0.5,1.5-0.8,2.3-0.8h1.6c0,0,0.5,1.6,0.5,3.3c0,1.7-0.5,2.2-1.1,2.2s-3.3-1.1-3.3-1.1l-1.1,2.7c0,0-1.4,1.1-2.2,1.1
		c-1.1,0-0.7-0.3-0.3-0.4c0.2-0.1,0.4-0.3,0.5-0.5l0.9-1.8l0.4-1.2c0.1-0.2,0.1-0.4,0.1-0.7c0-0.2,0-0.3-0.1-0.5l-0.4-1.1
		c-0.1-0.2-0.2-0.4-0.3-0.6c-1-2-1.5-3-2.6-4.1c-1.1-1.1-1.6-0.5-1.6-0.5V217.8z"/>
	<path fill="#E0E0E0" d="M109.6,228.2l28.4-2.1l-0.3,1l-1,1.9c0,0-0.4,0.4-0.8,0.6c-0.4,0.2-1.5,0.8-1.5,0.8l-23.8,2L109.6,228.2"/>
	<polygon fill="#F4F4F4" points="106.3,220.6 134.9,218.9 135.6,219.6 106.9,221.7 	"/>
	<path fill="#3F3F44" d="M54.7,217.8c0,0,2.2-11,3.8-13.7c1.5-2.5,4.9-9.9,8.2-11.5c3.3-1.6,5.5-3.3,7.7-3.3s11-0.5,12.1,0
		s8.8,3.3,10.4,6c1.6,2.7,7.1,7.7,9.3,14.8s4.4,15.9,4.4,22.5c0,6.6-1.6,12.6-1.6,12.6s-0.5,3.3-1.1,4.9s-5.5,11.5-7.1,12.6
		s-4.9,4.4-10.4,5.5c-5.5,1.1-10.4,1.1-12.6,0.5c-2.2-0.5-7.7-2.7-11.5-7.7s-7.1-12.1-8.2-15.9s-3.3-14.3-3.3-20.9
		C54.7,217.8,54.7,217.8,54.7,217.8z"/>
	<path fill="none" stroke="#37373A" stroke-width="0.2747" stroke-miterlimit="10" d="M93.4,198.3c0,0-5.5-9.3-19.2-9.1"/>
	<path fill="none" stroke="#37373A" stroke-width="0.2747" stroke-miterlimit="10" d="M95.6,261.5c-0.8,1.3-2.8,3.9-6.3,5.8
		c-3.1,1.6-5.9,1.9-7.4,1.9"/>
	<path fill="none" stroke="#37373A" stroke-width="0.1373" stroke-miterlimit="10" d="M74.2,198.9c0,0,9.9,0.5,12.6,6.6
		c1.6,3.6,6.6,14.3,7.1,17.6s0.5,11.5,0,15.4S92.3,251,89,254.3s-6.1,5.3-6.1,5.3"/>
	<path fill="#0B090A" d="M92.1,196.4c0,0,6,11.6,7.1,15.4c1.8,5.8,3.9,10.4,4.4,20.3c0.7,14.9-9.9,31.9-9.3,31.3
		c3.8-3.8,9.9-12.1,11-20.3c1.2-9.3,1.1-11.5,0.5-15.9c-0.5-4.4-3.8-14.3-3.8-14.3S97.5,201.3,92.1,196.4z"/>
	<path d="M79.2,199.7C79.2,199.7,79.3,199.6,79.2,199.7c-0.8-0.2-4.4-1.1-5.8-1.1c-1.6,0-4.6,1-7.7,3.3c-2.2,1.6-7.1,11.5-7.1,15.9
		s3.8,29.7,6,32.4c1.7,2.2,4.5,5.8,5.6,7.1c0.3,0.4,0.7,0.7,1.1,0.9c1.3,0.6,4.1,2,5.4,2.4c1.6,0.5,5.7-0.2,7.1-1.6
		c1.1-1.1-2.7,2.2-6,1.1c-3.8-1.3-6.3-3-7.1-3.8c-1.1-1.1-6-6.6-6.6-13.2c-0.5-6.6-3.3-24.8-2.7-27.5c0.5-2.7,2.9-9.4,4.9-11.5
		C67.9,202.4,70.6,198.6,79.2,199.7z"/>
	<path d="M76.7,207.9c0,0,3.3,2.7,4.4,4.4s3.8,9.3,4.4,11.5c0.4,1.6,0.5,4.4,0.5,7.1s0,8.2-1.6,12.1s-3.8,7.1-4.9,8.2
		s-4.9,1.6-4.9,1.6s4.4,0,5.5-0.5s0,2.2,0,2.2s7.7-6.6,7.1-7.7s1.6,0,1.6,0s1.6-3.3,2.2-6.6s0-8.8,0-8.8l3.3-2.7
		c0,0-0.5-2.7-1.6-2.2s-3.3,1.6-3.3,1.6l-2.7-11c0,0-4.4-7.1-6-7.7S76.7,207.9,76.7,207.9z"/>
	<path fill="#4F4E54" d="M64,210.1c0,0,3.3-2.7,7.7-2.7c6.6,0,6.3,1.8,8.8,3.8c3.3,2.7,5.6,12,6,15.9c0.5,4.9-0.5,12.6-2.7,18.1
		c-2.1,5.3-3.3,6-6.6,7.1c-3.1,1-7.8-0.6-10.4-2.2c-5.5-3.3-6.3-34.1-4.9-37C62.9,211.2,64,210.1,64,210.1z"/>
	<path d="M63.5,215.6l1.6,1.1c0,0,0-2.2,1.1-3.3c1.6-1.6,6.6-1.9,7.7-1.6c2.2,0.5-0.7-0.7-4.9-0.5c-0.5,0-2.2,0-3.8,1.1
		c-1.6,1.1-2.2,2.7-2.2,2.7L63.5,215.6z"/>
	<path d="M66.3,245.5c0,0,3.2,2.7,4.8,3.1c2.3,0.5,5.6-1.1,5.6-1.1s-3.8,1.1-5.6,0.6c-1.2-0.4-4.2-3-4.2-3L66.3,245.5z"/>
	<path fill="#6A6873" d="M75,211.2c0,0,4.9,6,5.5,7.1s2.2,7.7,2.2,9.9c0,2.2-0.5,11.5-1.6,13.2s-1.1,3.8-3.8,6s-2.2,2.2-2.2,2.2
		s4.9-2.2,5.5-3.3s3.3-7.1,3.3-9.3s0-13.2-1.1-15.9s-2.7-6-3.8-7.7s-4.4-3.3-4.9-3.3S75,211.2,75,211.2z"/>
	<path fill="#6A6873" d="M74.5,192.5c0,0,8.8,2.2,12.1,6.6c4.7,6.2,7.7,15.4,8.2,17.6c0.5,2.2,2.2,9.3,2.2,9.3s-0.5-12.6-2.2-15.9
		c-1.3-2.6-0.5-4.4-6-11.5S74.5,192.5,74.5,192.5z"/>
	<path d="M69,220c0,0,0.5-1.6,2.2-1.6s1.6,1.7,1.6,3.3c0,1.6,2.2,3.3,2.2,3.3s3.3,0,3.3,2.2c0,1.6-1.1,2.7-1.1,2.7s0,1.6,0,2.2
		c0,5.7,3.3,5.5-4.4,9.9S69,220,69,220z"/>
	<path fill="#66646F" d="M65.3,215.6c0,0,2.3,1.6,2.6,2.4c0.3,0.7,0.3,2,1.3,2.4c1,0.5,3.7,1.1,4.3,2.5c0.5,1.5,2.1,3.4,1.2,5.4
		c-0.9,2-2.5,5.5-1.7,6.5s1.9,3.9,1.6,4.4c-0.2,0.5-1.8,4-3,4.1s-2.2-0.4-2.2-0.4s-1.4,3-2.3,3.8c-1,0.8-4,0.1-4,0.1l1.6-5.5l1.4-3
		l2.7,0.6l-0.9-3.4l0.6-4l-1.2-5.4l-0.1-2.5l-3.1-3.8l0.9-3.5L65.3,215.6z"/>
	<path fill="#F4F3F9" d="M55.4,224.4c0,0-0.4-4.4,0.5-5.2c1-0.8,3,1.4,3.7,1.1c0.7-0.3,2-5.7,3.2-5.8c1.2,0,2.5,1.1,2.5,1.1
		s0.6,3.9,1.2,5.4c0.5,1.5,3.5,1.6,3.5,1.6s1.7,0.2,1.8,2.6c0.1,2.5-2,5.7-1.9,7c0,1.2,1.1,4.1,1.5,6.1c0.3,2-0.6,4-2.1,3.3
		c-1.5-0.7-3-1.4-3.2-0.9c-0.2,0.5-2.7,6-2.7,6s-1.7-0.2-2.3-1.6s0-5.4-1.5-6.1s-4-1.8-4-1.8L55.4,224.4z"/>
	<path fill="#E8E8EA" d="M63.4,223.8l-15,1.1c0,0-3.5,3.8-1.4,8.4c2,4.3,2.9,4.3,2.9,4.3l15-1.1c0,0,2.8-4.8,0.6-9.4
		C63.7,223.3,63.4,223.8,63.4,223.8z"/>
	<path fill="#F4F3F9" d="M51.9,229.4c0,0-0.8-2.2-1.6-3.1c-0.8-1-1.8-1.4-1.8-1.4s-3.8,4.3-1,9.1c2,3.4,2.5,3.6,2.5,3.6
		S53,233.6,51.9,229.4z"/>
	<path fill="#E0E0E0" d="M50,237.6l14.9-1.1c0,0,0.2-0.3,0.5-1c0.3-0.7,0.7-2.1,0.7-2.1l0.2-0.8l0.1-0.5L52,233.2h0.5H52l-0.5,1.6
		l-0.7,1.6"/>
</g>
<g id="Layer_1">
	<path fill="#341E0E" d="M312,166.2c0,0,5.9,12.3,7.6,15.8c1.8,3.5,3.8,8.2,5.9,11.1c2.1,2.9,7.6,11.1,8.2,13.2
		c0.6,2.1,10.6,44.6,10.8,45.4c0.6,1.8,0.6,0.6,1.5,2.6c0.9,2.1-0.3,3.2-1.9,5c-1.6,1.7,0.4,5.5,2.8,5.6c1.8,0.1,3.7-0.2,4.2-0.5
		c2.2-1.1,1.4-3.2,1.1-4.6c-0.5-2.6,0.7-2.5,1.2-3.4c0.5-0.9,1.6-2.9,0.7-3.6c-0.9-0.7-3.5-9.5-3.6-10.8c-0.1-1.4-1.1-8.2-1.1-9.5
		c0-1.3-1.6-23.8-1.6-23.8s-0.3-1.8,0.4-3.5c0.7-1.8,2.2-2.7,1.9-4.6c-0.4-1.9-1.8-6.3-1.6-6.8c0.2-0.6,1.3-22.8,2.1-22.8
		s-15.9-24.4-15.9-24.4L312,166.2z"/>
	<path fill="#B1874D" d="M350.8,94.3c0,0,9.9,1.5,13.4,4.8c3.5,3.3,16.5,26.7,17,36.2c0.5,9.1,6.7,44.6,8.5,48.3
		c1.8,3.7,0.3,29.7,3.2,38.2s-5.9-7.4-6.7-8.9c-0.9-1.5-0.3,10.2,0.6,11.4c0.9,1.2-2.7-3.5-4.4-7.7c-1.5-3.7-3.2-7.7-5-14.2
		c-1.8-6.6-0.6,9.4-1.8,9c-1.2-0.4-4.4-11.9-5.3-16c-0.9-4.1-1.2-17.7-2-23.5c-0.5-3.5-1.8-34.2-3.9-41.2s-5.3-20.9-7.9-25.2
		C354.3,101.9,350.8,94.3,350.8,94.3z"/>
	<path fill="#A57D49" d="M364.2,99.1c3.5,3.3,16.5,26.7,17,36.2c0.5,9.1,6.7,44.6,8.5,48.3c1.8,3.7,0.3,29.7,3.2,38.2
		s-5.9-7.4-6.7-8.9c-0.9-1.5-0.3,10.2,0.6,11.4c0.9,1.2-2.7-3.5-4.4-7.7c-1.5-3.7-3.2-7.7-5-14.2c-1.8-6.6-1.8-24.6-2.6-30.4
		c-0.2-1.1,3.5-16.8,1.6-27.7C372.5,121.9,361.8,96.9,364.2,99.1z"/>
	<path fill="#523212" d="M206.9,41c0.4,1,5.7,5.9,6.9,6.3c1.2,0.4,4.3,1.4,6.8,2.9c2.5,1.6,3.9,3.7,4.9,4.9c1,1.2,6.8,5.9,7.4,7.2
		c0.6,1.4,5.1,8.6,5.5,10.6s6.5,8.8,7.8,9.6c1.4,0.8,14.9,7,14.9,7s8.2,4.1,9.2,4.7s10.9,0.6,13.1,0s20.3-5.9,20.3-5.9
		s17.8-2.7,23.1-2.5c1.8,0.1,15.8-1.4,25.2,9.8s10.2,13.1,12.3,17.6c0.9,2,5.7,7.4,3.5,20.1c-2.2,12.7-4.7,13.9-6.8,20.3
		c-1.8,5.4-9,21.1-9.6,21.7c-0.6,0.6-2.5,19.7-3.1,20.5c-0.6,0.8-0.8,9.4-0.8,9.4l-1.8,10.4c0,0-1.6,7.4-1.6,10.8
		c0,3.3-1.2,8.8-1.2,12.1c0,3.3-0.8,12.7,0,13.7c0.4,0.6-3.5,2.9-3,6.5c0.3,1.8,0.5,2.8,0,3.6c-0.4,0.7-2.5,0.9-3.7,0.9
		c-1.2,0-5.9-2.2-5.9-3.4c0-1.2,3.4-3.6,3.4-3.6s1.6-2.3,1.6-3.9s0.4-9.4,0.4-9.4s0.4-10-0.8-15.1c-0.2-0.8,0.6-12.5,0.6-12.5
		s0-36.9-1-36.7c-1,0.2-2.1-23.9-5.3-23.9c-3.2,0-10.9,11.8-20.2,15.8c-9,3.9-14.8,5.4-21.5,5.7c-6.7,0.3-22.5,1.5-22.5,1.5
		s-0.6,8.4-0.9,11.7s-0.6,11-0.4,11.6c0.1,0.6-0.1,9.5-0.1,9.8s-0.6,4.8-0.9,5.3c-0.3,0.4-0.1,5.9,0.3,8.1
		c0.4,2.2,3.1,19.2,3.1,18.8c0.2,1,1.1,8.7,1.2,9.1c0.1,2.2-0.6,4.5-0.9,4.4c-0.3-0.1-1.9,1.3-2.5,3.1c-0.6,1.8,0.7,3,0.7,3.7
		c0,0.9-0.9,2.7-1.6,3c-2.8,1-10.7,1.1-11,0.4s2.1-4.5,2.6-5.1c0.6-0.6,2.1-2.1,2.3-3.2c0.3-1.2,0.7-2.2,0.9-4.8
		c0.1-2.6,0.1-8.2,0-9.4c-0.1-1.2-1.2-17.7-2.1-18s-4.4-10-4.5-11c-0.1-1-0.3-10-0.6-10.4c-0.3-0.4-2.8-24.5-3.8-25.7
		c-1-1.2-2.2-3.8-4.8-3.8c-2.6,0-5.1,2.2-5.1,3.5s1.5,23.7,1.5,23.7s1.5,13.6,0.9,14.7c-0.6,1,0.9,23.9,1.3,25.1s0.6,11.1-0.4,11.7
		c-2.5,1.6-1.3,7.3-1.3,7.3s0.6,2.2-0.7,3.2c-1.1,0.9-7.1,1.7-9.7,1.3c-2.6-0.4-2.3-0.6-2.1-1.8c0.3-1.2,0.6-2.9,2.9-5.1
		c2.9-2.8,2.5-4.3,2.6-5.6c0.1-1.3-0.6-9.1-0.6-11s0.1-17-0.9-17.7c-1-0.7-2.9-12.9-2.6-13.9c1-3.5-3.2-18.3-3.8-18.6
		c-0.6-0.3-6.7-17.9-6-19.5c0.7-1.5-4.8-8.5-4.8-8.5s-6.2-11.7-7.6-15s0.3-29.9-1-30.6s-5.4-21.5-5.6-21.1S206.9,41,206.9,41z"/>
	<path fill="#4D4D4D" d="M341.3,265c0,0,2.4-6,3-5.6c0.5,0.4,2.7,1.3,3,1.3s2.5,1,3,1.5c0.5,0.5,2.2,1.4,2.2,1.4s-0.4,0.9-3.8,2
		c-0.4,0.1-2.3,0.6-4.2,0.2C343.7,265.7,341.3,265,341.3,265z"/>
	<path fill="#4D4D4D" d="M328.1,263.9c0,0,2.9-6.5,3.5-6c0.6,0.5,2.6,1.4,3,1.4c0.4,0,2.7,1.1,3.2,1.6c0.5,0.5,2.3,1.2,2.3,1.2
		s-0.4,1.3-4.1,2.4c-0.4,0.1-2.4,0.6-4.5,0.2C330.7,264.6,328.1,263.9,328.1,263.9z"/>
	<path fill="#4D4D4D" d="M251.5,267c0,0,2.9-6.5,3.5-6c0.6,0.5,2.8,1.3,3.1,1.3s2.7,1.1,3.3,1.7c0.6,0.5,2.4,1.4,2.4,1.4
		s-0.4,1.2-4.2,2.4c-0.4,0.1-2.5,0.6-4.6,0.2C254.2,267.7,251.5,267,251.5,267z"/>
	<path fill="#4D4D4D" d="M224.9,266c0,0,3-7.1,3.7-6.6c0.6,0.5,3,1.5,3.4,1.5c0.4,0,2.9,1.2,3.5,1.8c0.6,0.5,2.7,1.4,2.7,1.4
		s-0.6,1.4-4.7,2.6c-0.4,0.1-2.7,0.7-4.9,0.2C227.8,266.7,224.9,266,224.9,266z"/>
	<path fill="#40230E" d="M206.9,128.5c-2.1,2.4,5,12.7,5.7,15.8c0.3,1.1,0.3,3.6,0,4.7c-0.5,1.8-3.6,6.6-3.6,6.6l4.2,8.2
		c0,0,2.6-6.4,5-8.2c1.9-1.4,6.5-0.4,8.8,0c2.9,0.5,5.9,5.8,8.8,6.5c3.5,0.9,15-0.8,16.1-4.2c2.2-6.4-15.9-15.1-21.9-18.4
		c-2.3-1.3-3.2-3-4.5-5.3c-0.7-1.3,3.2-16.3,1.9-16.9c-2.1-0.9-11.3,15.3-13.6,15.4C212.3,132.9,207.9,127.3,206.9,128.5z"/>
	<path fill="#341E0E" d="M199.4,98.7c0.6,5.1,5,19.1,5,19.1s1.1,12.3,3.5,14.7c2.4,2.3,5.9,2.3,8.8,0c2.9-2.3,11.1-11.7,11.1-14.7
		s1.2-18.2,0-18.8s-0.6-7-2.9-12.9s-10.4-13.7-12.5-15.3C210.3,69.2,198.5,91.5,199.4,98.7z"/>
	<path fill="#40230E" d="M329.3,154.5c0,0,4.5-6.3,5.4-8c1.4-2.5,1.6-11,1.6-11l-1.8-15.8c0,0,5,21.6,5.3,25.2
		c0.1,1.9,1,5.7,1.7,7.5c1,2.4,1.3,6.4,2.8,8.5c1,1.4,3.2,4,3.7,5.6c0.5,1.9-0.5,5.9,0,7.7c0.3,1.2,2.3,5.6-3.9,5.5
		s-7.8-2.1-8.2-5.7c-0.4-3.5-1.8-8.9-2.6-9.2C332.4,164.6,329.3,154.5,329.3,154.5z"/>
	<path fill="#40230E" d="M346.7,209.7c0,0-3.1,1.2-4.5,1.4c-1.4,0.3-4.6,0-4.6,0s0.6,6,0,5.6c-0.6-0.4,6.5,8.9,6.7,7.6
		C344.4,223.1,346.7,209.7,346.7,209.7z"/>
	<path fill="#40230E" d="M228.1,213.7c0,0,0.9,1.8,3.9,1.8c2.9,0,7.4-2.2,7.4-2.2s0.1,3,0,3.3s-0.2,0.4-0.2,1c0,0.6-0.1,5.7-1,6.3
		c-0.9,0.6-5.3,0.5-5.6,0.3s-3.1-2.8-3.2-3.4C229.2,220.1,228.1,213.7,228.1,213.7z"/>
	<path fill="#40230E" d="M251.4,215.1c2.3,1.2,4.5,1.5,5.4,1.4c0.9-0.1,6.1-1.2,6.2-1.4c0-0.2-0.3,1-0.3,1.1c0,0.1,0,3.2,0,3.4
		s-0.7,5.1-2,4.8c-0.7-0.1-2.2,0.3-3.9-0.4c-1.3-0.5-2.9-2.2-3-2.4C253.6,221.1,251.4,215.1,251.4,215.1z"/>
	<path fill="#331608" d="M279.6,225.3"/>
	<path fill="#40230E" d="M264.9,177.3c0,0,4-6,5-7.6c2-3.2,2.4-5.7,3.3-8.6c0.6-1.9,1.6-8.8,1.6-8.8s1.5,9.8,3.2,11.5
		c2.8,2.6,5.3,1.9,8.6,2.5c2,0.3,0.8-0.1,2.8,0.1c4.2,0.6,8.8,1.1,13.5,0c4.7-1.1,14.6-5.5,17-7c3-1.9,9.4-4.9,9.4-4.9l-7,5.6
		c0,0-5.6,5.9-6.6,6.7c-1.1,0.9-15.6,7.7-21.1,8.4c-5.4,0.7-14.4,0.9-14.4,0.9L264.9,177.3z"/>
	<path fill="#40230E" d="M237.5,177.3c0,0-8.9-5.8-11.7-8c-1.3-1-3.7-3.5-4.3-5.1c-0.5-1.4,1.5-0.4,2.9-0.4c2.9,0,3.7-0.1,6.1-0.8
		c1.4-0.4,2.6-3.2,3-4.9c0.4-1.6,2.5-1.3,3.9-2.2c1.1-0.7,3.9-0.3,5.1,0c1.8,0.5,5.2,1.2,7,1.6c1.8,0.3,5.6,0.5,7.4,0.8
		c2.3,0.4,6.6,2,8,3.9c1.2,1.5,2.8,5.7,2,7.4c-0.8,1.5-2.5,4-4.1,3.7c-2.4-0.5-6.2-5.1-8.6-5.6c-1.3-0.3-3.9,1.2-4.7,2.3
		c-1.4,1.8-3.7,7.2-3.7,7.2s-2.8-2.1-4.1-2.1C240.4,175.1,237.5,177.3,237.5,177.3z"/>
	<path fill="#1F120D" d="M184,103.9c1,1.4,2.2,2.2,3.3,2.3c1.1,0.2,3.9,0,4.8,0c0.6,0,2.3-0.5,3-1.1c0.6-0.6,1.9-3.8,1.2-3.6
		c-0.7,0.2-2.1-0.5-2.1-0.5l-10.2,1.4V103.9z"/>
	<path fill="#B7925E" d="M237.7,61.6c0,0,4.3,4.6,4.5,5.1c0.2,0.5,1.9,4.1,2,4.7c0.1,0.6,1.8,5.9,1.8,5.9s2,8.1,2.2,8.7
		c0.2,0.6,1.3,6.5,1.4,7.3s1.2,5.7,1.9,7c0.7,1.3,2.1,4.5,2.1,4.5s-4.4-1.3-5.5-1.9s-2.3-2.3-3.7-3.3c-1.4-1-4.6-9.7-5-10.7
		s-4.2-28.4-4.2-28.4L237.7,61.6z"/>
	<path fill="#B1874D" d="M224.6,50.9c0,0,6.5,2.9,8.4,4.6c1.1,1,3.3,3.2,4,4.5c0.8,1.5,1.6,4.9,2,6.5c0.4,1.8,1.1,5.6,1.4,7.4
		c0.2,1.5,0.6,4.6,0.8,6.2c0.3,2.4,1.4,9.3,1.4,9.6c0,0.3,1.2,4.8,1.6,6.4c0.3,1.2,0.8,3.7,1.2,5c0.4,1.6,1.9,6.4,1.9,6.4
		s-4.8-2.2-6.2-3.1c-1.2-0.8-3-2.6-3.9-3.8c-0.5-0.6-2.7-3-3-3.7c-2.2-4.5-4.5-17.3-4.5-17.3l-2.3-15.6L224.6,50.9z"/>
	<path fill="#A57D49" d="M209.6,42.1c0,0,5.8,2.5,7.7,3.5c1.7,0.9,5.5,2.3,6.8,3.7c1.8,2,3.3,7.3,4,9.9c0.6,2.2,1.9,6.6,2.1,8.8
		c0.3,2.3,0.3,7.1,0.6,9.4c0.1,1.1,0.4,3.2,0.6,4.3c0.3,2.2,0.7,6.8,1.2,9c0.4,1.7,1.5,5.1,2.2,6.7c0.5,1.4,2.2,5.4,2.2,5.4
		s-6.4-4.5-6.9-4.9s-6.6-5.6-8.4-7.8c-1.1-1.3-2.9-4.3-3.5-6c-1.4-3.9-4.2-10.9-5-15c-0.9-4.6-2.7-19.1-2.7-19.4
		S209.6,42.1,209.6,42.1z"/>
	<path fill="#523212" d="M192.4,38.4c-1.9,1-5.1,4-6.5,5.7c-1.3,1.6-3.4,5.1-4.4,7c-0.7,1.3-2.3,4-2.6,5.5c-0.2,0.8-0.2,2.4,0,3.2
		c0.3,1.1,1.5,3.1,1.9,4.3c0.4,1.2,0.8,3.6,0.9,4.8c0.1,1.3-0.2,4-0.1,5.3c0,2.3,0.3,6.8,0.7,9.1c0.1,0.7,0.6,2.3,0.3,2.9
		c-0.3,0.6-1,1.6-1.3,2.1c-0.4,0.5-0.6,1.5-0.9,2.1c-0.4,0.9-0.9,2.8-0.9,3.8c0,0.6,0.4,1.8,0.7,2.3c0.4,0.6,1.2,1.5,1.6,2.2
		c0.4,0.8,0.1,2.8,0.4,3.7c0.2,0.6,1.2,1,1.8,1.3c1,0.5,3.2,0.4,4.3,0.4c0.8,0.1,2.4,0.2,3.2,0c0.8-0.2,2.3,0.4,2.9-0.1
		c0.6-0.5,1.5-1.6,1.9-2.2c0.4-0.6,1.1-1.9,1.5-2.5c0.4-0.5,1.3-1.4,1.5-2.1c0.3-0.8,0-2.5,0-3.4c0-0.4,0.4-1.4,0.6-1.8
		c0.5-1,2-2.1,2.8-2.9c0.8-0.9,1.6-3.4,2.3-4.4c0.9-1.2,3.5-2.8,4.4-4c1.2-1.5,2.9-5.1,3.4-7c0.4-1.6,0.9-5,0.9-6.7
		c0-2-0.3-5.9-0.7-7.8c-0.4-1.6-1.5-4.8-2.1-6.3c-0.6-1.6-2.1-4.7-2.6-6.3c-0.5-1.4-0.6-4.4-1.5-5.6c-0.7-1-2.8-2.3-4-2.6
		c-1.6-0.5-4.9-0.9-6.6-0.9C195.3,37.6,193.3,37.9,192.4,38.4z"/>
	<path fill="#40230E" d="M199.8,90.7c0,0,1.2-5.2,1.9-6.5c0.4-0.7,0.3-4.7,1-5.1c0.7-0.4,3.7-1.8,4.4-3.1s2.1-2.7,2.4-3.9
		c0.3-1.2,1.2-2.9,1.8-5.4c0.6-2.5,2.2-3.2,2.2-3.2s0.3,7.1,0.2,8.2s-2.7,6.9-4.3,9.1c-0.9,1.2-4.4,4-4.4,4s-1.3,2.8-1.8,3.6
		c-0.5,0.8-2.7,3.1-2.7,3.1L199.8,90.7"/>
	<path fill="#40230E" d="M180.9,52.4c0,0,6.4-1.3,7.2-1.7c2.3-1,10.9-4.8,10.9-5.7s-1.8-3.9-1.8-3.9l-9.2,4.1l-5.5,4.4L180.9,52.4z"
		/>
	<path fill="#493B32" d="M181.3,88.3c-0.4,0.5-0.6,1.5-0.9,2.1c-0.4,0.9-0.9,2.8-0.9,3.8c0,0.6,0.4,1.8,0.7,2.3
		c0.4,0.6,1.2,1.5,1.6,2.2c0.4,0.8,0.1,2.8,0.4,3.7c0.2,0.6,1.2,1,1.8,1.3c1,0.5,3.2,0.9,4.3,1c0.8,0.1,2.4,0.2,3.2,0
		c0.8-0.2,2.3-0.2,2.9-0.7c0.6-0.5,2.1-1.6,2.5-2.2c0.4-0.6,1.1-1.9,1.5-2.5c0.4-0.5,0.7-1.4,1-2.1c0.3-0.8,0.6-2.5,0.6-3.4
		c0-0.4,0.4-1.9,0.6-2.3c0.1-0.3-1.9-1.5-4.1-1.7c-2.4-0.2-6.8,2.7-8.3,0.6C186.6,88.2,181.4,88.1,181.3,88.3z"/>
	<path fill="#40230E" d="M180.9,59.7c0,0,1.7,0.1,2.2,1.5c0.5,1.4,0.8,2.9,0.6,5.3c-0.2,2.4-2.2,5.9-2.2,5.9s0.1-3.7-0.1-5
		c-0.2-1.2-1.3-4.8-1.3-4.8L180.9,59.7z"/>
	<path fill="#40230E" d="M207.3,59.4c-2.5-0.3-3.9,0.9-4.5,1.5c-0.6,0.6-0.4,2.7,0,3.5c0.4,0.8,1.8,3.2,1.5,3.5
		c-0.3,0.3,2.5-1.5,2.9-2.2s0.7-1.6,0-2c-0.6-0.3-1.7-0.5-2.6-0.9S207.3,59.4,207.3,59.4z"/>
	<path fill="#F2F2F2" d="M192.1,52.9c0,0-0.9,3.2-2.1,5.7s0,5.4,1,10.7c1,5.3,3.2-0.5,4.9-2.9c1.7-2.4-2.6-16.7-2.6-17.8
		C193.4,47.5,192.1,52.9,192.1,52.9z"/>
	<path fill="#2C261B" d="M185.6,103.6c0.5-0.3,1.1-1.3,1.3-1.8c0.4-0.6,0.1-1.7,0.6-2.2c0.4-0.5,0.4-1.9,0.7-2.4
		c0.4-0.7,0-4.3,1.3-4.7c1.3-0.5,1.6,0.6,2.8,2.1c1,1.3,0.6,2.6,0.6,2.6s-0.8,0.6-0.8,2.4c0,1.3-0.5,0.9,0,2
		c0.3,0.7,0.7,1.6,0.9,2.1c0.2,0.4,1.6,0.1,1.4,0.4c-0.4,0.5-3.7,0.8-4.9,0.8c-1.1,0-3.8-0.1-4.7-0.9
		C184.6,103.7,185.4,103.7,185.6,103.6z"/>
	<path fill="#1F120D" d="M182.7,90.2c0,0-1.4,1.6-1.1,2.4c0.3,0.9,0.5,2.4,1.1,3.1c0.5,0.6,2.7-0.9,1.8-1.5s-0.3-2.9-0.4-3.3
		c-0.1-0.4-0.9-1.7-0.9-1.7L182.7,90.2z"/>
	<path fill="#1F120D" d="M196.2,91.4c0,0,1.4,1.6,1.1,2.5c-0.4,1-0.2,2.2-1.1,3.2c-0.5,0.7-2.7-0.9-1.9-1.5c0.9-0.7,0.3-3,0.4-3.4
		c0.1-0.4,1-1.8,1-1.8L196.2,91.4z"/>
	<path fill="#341E0E" d="M206.4,46.3c0,0-2.1-1.7-2.9-3.6c-0.7-1.9,0.9-6.8,0.9-6.8s2.1-3.5,2.5-4.6c0.1-0.3,0.3-2.4,0.9-2.4
		c0.6,0,1.5,1.1,1.5,1.1s1.7,2.4,2.6,4.3c0.3,0.5,0.8,5,0.1,6.2c-0.7,1.2-1.6,4.1-2.4,4.8C208.9,46.1,206.4,46.3,206.4,46.3z"/>
	<path fill="#341E0E" d="M190.7,40.1c-3.1-3.1-3.6-5.3-4.7-7c-0.9-1.4-1.3-4-2.1-4.1c-0.7-0.1-3.1,2.7-3.2,3.3c-0.3,1.5-0.1,5,0,6.1
		c0.1,1.3,0.4,2.5,0.6,2.9c0.1,0.4,3.4,5.1,3.8,4.6"/>
	<path fill="#00000F" d="M181.6,60.7c0,1.1,0,2.1-0.8,2.1c-0.8,0-1.5-1-2-2.1c-0.3-0.7,0-2.1,0-2.1S181.6,59.6,181.6,60.7z"/>
	<ellipse fill="#FFFFFF" cx="179.6" cy="59.7" rx="0.7" ry="0.3"/>
	<path d="M204,62.7c0,0-0.3-1.8,0.9-2.6c1.2-0.7,2.9-0.4,2.9-0.4s0.6,1.3,0,2.1C207.3,62.6,204,62.7,204,62.7z"/>
	<ellipse fill="#FFFFFF" cx="207.1" cy="60.3" rx="0.7" ry="0.3"/>
	<path fill="#B7925E" d="M196.3,37.4c0,0-3.6,0.1-5,1s-8.2,8.6-9.1,9.4c-0.8,0.8-4.1,4-4.1,4s8.2-2.7,9.1-3.1
		c0.9-0.4,6.7-2.7,8.4-4.2c1.7-1.5,4.7-5.3,4.4-6.3S196.3,37.4,196.3,37.4z"/>
	<path fill="#B1874D" d="M203.5,38.4c0,0-2.3-0.4-2.9-0.5c-0.7-0.1-1.5,0.1-1.5,0.1s-2.4,2.7-2,4.5c0.6,2.5,9.3,8.7,11.1,10
		c1.8,1.3,4.3,3.2,4.3,3.2l-1.3-3.7c0,0-1.3-3.8-3.5-5.2c-0.9-0.6-4.4-5.8-4.5-5.8S203.5,38.4,203.5,38.4z"/>
</g>
</svg>
