<svg xmlns="http://www.w3.org/2000/svg" viewBox="0 0 416.42 439.77"><defs><style>.cls-1{fill:#282828;}.cls-2{fill:#111110;}.cls-3{fill:#efc2af;}.cls-4{fill:#be978c;}.cls-5{fill:#e9b01f;}.cls-6{fill:#cd971e;}.cls-7{fill:#e2b7a8;}.cls-8{fill:#d1a698;}.cls-9{opacity:0.3;}.cls-10{fill:#a98277;}.cls-11{fill:#dda095;}.cls-12{fill:#cf8d7a;}.cls-13{fill:#e72175;}.cls-14{fill:#cc2072;}.cls-15{fill:#cfcece;}.cls-16{fill:#3d3d3d;}.cls-17{fill:#e2e2e1;}.cls-18{fill:#a48c74;}.cls-19{fill:#b79d86;}.cls-20{fill:#bfbebe;}</style></defs><title>alleensporten</title><g id="Laag_7" data-name="Laag 7"><path class="cls-1" d="M429.48,543.89s4.65-2.88,8.41,5.75,3.32,19.91,3.32,19.91.44,2.21,3.32,6.2S443,589.69,443,589.69s-1.11,3.1-8.63,3.65-19.25-1.17-19.25-1.17-3.08-4.25,4.32-9.12.77-13.28,1.88-26.11S429.48,543.89,429.48,543.89Z" transform="translate(-221.81 -198.86)"/><path class="cls-2" d="M287.44,496.1s4.1-17.94,12.34-24.46l43.2,3.88L396.74,468s5.53,3.76,6.42,9.51-2,9.29,4.2,18.59c0,0,4.87,5.31.22,13.28s-16.74,19.22-16.74,19.22-11.58,3.57-23.53,1.58c0,0-4,.44-10.62-9.29s-17.48-25.44-21.9-12.61-5.53,18.14-5.53,18.14-4,2.66-15.27.44Z" transform="translate(-221.81 -198.86)"/><path class="cls-3" d="M396.63,593.34a8.75,8.75,0,0,1-6.65,8.23c-6.72,1.88-.34,5.91,3.33,5.11s7-4.09,9-6.61c0,0-.2,6.88,5.17,15.21,0,0,4.57,2.69,5.64-1.61a86.56,86.56,0,0,1-3.5-10.21S415,611.24,421.15,615c0,0,4.84,2.15,4-4.57a111.54,111.54,0,0,1-8.87-8.06s8.48,7.52,12.84,9.14c0,0,6.24,0,3-4.57,0,0-4.94-2.69-9.32-5.37,0,0,7.14,3,10.25,2.15,0,0,3.85-2.42-3.11-5.37s-5.72.22-7.14-6.66Z" transform="translate(-221.81 -198.86)"/><path class="cls-2" d="M430,548.27c-3.46,1.79-5.94,13.14-5.94,13.14s.33,8,3.2,14.1,1.21,11.64-5.13,12.63c-3.91.61-5.13,2.72-5.5,4.25,3.41.44,11.85,1.4,17.73,1,7.52-.55,8.63-3.65,8.63-3.65s4.43-10,1.55-13.94-3.32-6.2-3.32-6.2a59.46,59.46,0,0,0-1.27-13.43h0S433.45,546.47,430,548.27Z" transform="translate(-221.81 -198.86)"/><path class="cls-1" d="M308,472.38l-8.22-.74c-8.24,6.52-12.34,24.46-12.34,24.46l2.84,3.29h6v-3.94a7,7,0,0,1,7.35-1.66s-7.4-5.33-11.23-3.57c0,0,8-6.45,14.45-5.37,0,0-4.17-1.32-11.58-.12,0,0,6.87-5.06,12.73-5Z" transform="translate(-221.81 -198.86)"/><path class="cls-4" d="M409.57,501.07s.66,5,5.64,11.62c0,0,11.28,5,15.6,29.87,0,0,.66,4,4.65,10.29s-3.65,11.62-6.31,11.28-4.52-.41-9.29-10-17.59-14.6-17.59-14.6l5.31-30.2S409.57,508,409.57,501.07Z" transform="translate(-221.81 -198.86)"/><path class="cls-5" d="M309.12,394.24s16.15-1.69,25.44-1.69,16.59.44,28.76,15a122,122,0,0,1,20.36,34.07s4.43,8.19,9.07,13.05,4,13.28,4,13.28,8.65,10.35,3,17.67-63.4,16.18-88-2.19c0,0-9.42-6.42-14.11-15.27,0,0-12-6.64-22-8.85s-12.39-30.75-12.39-30.75l7.08-14.38" transform="translate(-221.81 -198.86)"/><path class="cls-6" d="M397.16,468s.66-8.41-4-13.28-9.07-13.05-9.07-13.05a122,122,0,0,0-20.36-34.07c-9.75-11.7-16.37-14.31-23.4-14.88A73.16,73.16,0,0,0,329.26,396c5.21,8.24-3.06,12.68-3.06,12.68,2.15-3.8,0-9.1,0-9.1-6.09,2.51-9.82,9.1-9.82,9.1l-17.76-8.77-27.78,14.35-7.08,14.38s2.43,28.54,12.39,30.75a70.18,70.18,0,0,1,11.42,3.81c6,2.38,15.28,6.85,22.88,13.78a55.54,55.54,0,0,0,26.16,13.26c-14.25,0-26.15-8.35-31.21-12.52a54.56,54.56,0,0,0,6.82,5.78c24.56,18.36,82.31,9.51,88,2.19S397.16,468,397.16,468Z" transform="translate(-221.81 -198.86)"/><path class="cls-7" d="M239.65,593.34a149.44,149.44,0,0,1,4.65-15.6c3-8.3-3.65-50.78,5.31-77.66,0,0,1.55-17.26,2.43-29.21s-9.4-36.51,14.16-58.41l5.22,13.3s2.08,19.56,6.39,32.5c0,0-.66,26.22-4,44.64,0,0-10.29,40.66-16.93,63.89,0,0-2.66,8.3-1.33,26.55Z" transform="translate(-221.81 -198.86)"/><path class="cls-8" d="M274.07,502.9c3.32-18.42,4-44.64,4-44.64-4.31-12.94-6.39-32.5-6.39-32.5l-1-2.65-.2.09s-18,16.12-7.1,44.79a89.14,89.14,0,0,1-1.58,34.9s-3.11-2-3-9.11c0,0-.62,8.61-3.84,13.63s-3.58,21.86-2.51,34c1,11.82-5,49.63-5.36,51.88h8.8c-1.33-18.25,1.33-26.55,1.33-26.55C263.78,543.55,274.07,502.9,274.07,502.9Z" transform="translate(-221.81 -198.86)"/><path class="cls-3" d="M315.49,397.8a5,5,0,0,1,2.81.39c5,1.88,0,16.26,0,16.26s4,16.93,4.31,27.21-4.31,14.6-12.61,14.6-11.95-1.66-19.91-10.62c0,0-4.31,1.33-9.29-8s-15.6-14.6-14.6-25.22a18.58,18.58,0,0,0-2.66-9.62c-3-5.31-5.64-32.86,21.57-35.51s31.2,13.61,30.2,27.55" transform="translate(-221.81 -198.86)"/><path class="cls-8" d="M321,450.85l-.13-.14s-6.82,2-7.89-2.6,9.3-2.1,9.3-2.1l.19-7.76a207.54,207.54,0,0,0-4.1-23.8s5-14.38,0-16.26a5,5,0,0,0-2.81-.39l-.17-2.93c1-13.94-3-30.2-30.2-27.55a34,34,0,0,0-6.35,1.22c4.89-.75,13.42,1.91,3.26,11.85-11.54,11.29-1.27,15.23-1.27,15.23a90.64,90.64,0,0,1,1.27,13.91c1.9,4.42,1.1,18.38,1.1,18.38a4.66,4.66,0,0,0,4.11-1.31,4.54,4.54,0,0,1,1.34,5.06l-3.89,7.85c4.08,1.83,10.38,0,10.38,0-.85,3.7-7.73,4.82-8.85,5,2.33,1.64,3.89,1.16,3.89,1.16,8,9,11.62,10.62,19.91,10.62C315.26,456.27,319,454.6,321,450.85Z" transform="translate(-221.81 -198.86)"/><path class="cls-3" d="M332.91,394.54s15.27-3.32,26.88,11.95,16.93,23.23,18.59,35.18c0,0,21.24,29.87,22.24,50.45,0,0,12.28,20.91,14.93,57.75,0,0,4,18.59,5,30.53l2.32,11.28-26.22,1.66s.33-7,6-9.62,3.32-15.6,3.32-15.6-2.32-16.26-10.29-29.54A63.44,63.44,0,0,1,387,512s.33-7.63-7-13.61-18.25-25.22-20.91-38.83a9.15,9.15,0,0,0-10-7s-10-17.3-11.62-37.83S332.91,394.54,332.91,394.54Z" transform="translate(-221.81 -198.86)"/><path class="cls-1" d="M316.37,539.65s5.58-9,10.23-10.59,9.74,2.66,11.51,11.73a88,88,0,0,0,8.19,23.36c3.1,5.85,8.63,14.92,5.31,25.1s-14.29,2-17.1-4.2a109.19,109.19,0,0,0-13.43-20.89c-4.14-4.77-4.7-12.29-4.7-12.29Z" transform="translate(-221.81 -198.86)"/><path class="cls-3" d="M287.44,496.1s10.29-6,41.82,18.25c0,0-16.26,18.92-22.9,24.23,0,0,7.63.66,14.27,1.66s12.61,14.93.33,19.58c0,0-11.28-2.66-26.22,4.65s-26.88-2-28.21-7,0-19.25,7-34.85A227.38,227.38,0,0,1,287.44,496.1Z" transform="translate(-221.81 -198.86)"/><path class="cls-9" d="M315.32,394.87c1-13.94-3-30.2-30.2-27.55s-24.56,30.2-21.57,35.51c.24.42.45.84.65,1.25-.41-2.76-.95-5.86-1.6-8.77-1.79-8,4.84-2.56,4.84-2.56,12.9,9.32,26.87-4.3,26.87-4.3,5.07-3.8,14.15-3.76,14,6.86S311.14,411,311.14,411l3.4-1.43a25.64,25.64,0,0,1,0-6.81c.11-.61.58-2.46,1.26-5a2.4,2.4,0,0,0-.32,0Z" transform="translate(-221.81 -198.86)"/><path d="M286.24,411s2.6-5.46,11.91-1.61C298.16,409.42,290.18,408.34,286.24,411Z" transform="translate(-221.81 -198.86)"/><path d="M292.39,409.85a1.8,1.8,0,0,0-.14-.7c-.27-.65-3.05-.65-3.33,0a1.81,1.81,0,1,0,3.47.71Z" transform="translate(-221.81 -198.86)"/><path d="M277.81,411s-5.1-3.85-8.32.63C269.49,411.66,272.08,409.59,277.81,411Z" transform="translate(-221.81 -198.86)"/><circle cx="52.05" cy="212.16" r="1.5"/><path class="cls-10" d="M288.78,423.21s3.07,1.07,0,3.4-6.3,3-7.73.72-2-2.33-.72-3.85a2.26,2.26,0,0,0,.45,2.19c.9,1.21,1.52,2.33,2.55,2.24a8,8,0,0,0,5.73-2.64S290.1,424.51,288.78,423.21Z" transform="translate(-221.81 -198.86)"/><path class="cls-10" d="M281,421.24A23.88,23.88,0,0,0,281,411S283.82,415,281,421.24Z" transform="translate(-221.81 -198.86)"/><path class="cls-11" d="M279.63,429.93s8.27,12.56,16.65-2.06C296.27,427.87,288.78,437.5,279.63,429.93Z" transform="translate(-221.81 -198.86)"/><path class="cls-12" d="M279.63,429.93s8.77,5.37,16.65-2.06C296.27,427.87,289.14,438.26,279.63,429.93Z" transform="translate(-221.81 -198.86)"/><path class="cls-4" d="M298.16,428.76s.52-5.24-6-4C292.19,424.73,299.59,420,298.16,428.76Z" transform="translate(-221.81 -198.86)"/><path class="cls-8" d="M278.31,426s-3.94.21-1.61,4.53C276.7,430.52,271.86,425.36,278.31,426Z" transform="translate(-221.81 -198.86)"/><path class="cls-9" d="M285.57,407.4s3.1-8.33,12.77-2.42C298.34,405,290.18,403.77,285.57,407.4Z" transform="translate(-221.81 -198.86)"/><path class="cls-3" d="M414.47,539.54h-7v2.79c4.12,2.4,9.63,6.44,12.41,12,4.67,9.34,6.56,9.62,9.12,9.94l.17-.14C425.06,552.76,414.47,539.54,414.47,539.54Z" transform="translate(-221.81 -198.86)"/><path class="cls-2" d="M338.11,540.79c-1.77-9.07-6.86-13.28-11.51-11.73a9.49,9.49,0,0,0-2.86,1.71c.09,0,8.19,3.21,1.75,12.65s-7.18,16.16-7.18,16.16h0s14,6.95,17.91,18.06c1.59,4.47,1.72,8.73,2.93,13.25,4.37,3.68,10.18,5.28,12.45-1.66,3.32-10.18-2.21-19.25-5.31-25.1A88,88,0,0,1,338.11,540.79Z" transform="translate(-221.81 -198.86)"/><path class="cls-9" d="M277.24,407.4s-5.51-6.58-9.81,0C267.43,407.4,270.25,405.52,277.24,407.4Z" transform="translate(-221.81 -198.86)"/><path class="cls-8" d="M321,560c12.28-4.65,6.31-18.59-.33-19.58s-14.27-1.66-14.27-1.66c6.64-5.31,22.9-24.23,22.9-24.23a163.52,163.52,0,0,0-13.76-9.58l-11.79-6S291,495.32,282.31,505c-2.51,4.57-5.66,10.67-8.81,17.73A92.85,92.85,0,0,0,268,538.92c2.87-8.34,9.77-24.92,19-23.84,0,0-8.16,17.56-7.81,31.89a21.83,21.83,0,0,0,2.6,11.47s-6.19-1.07-7.27-5.37a70.68,70.68,0,0,0,.78,12.54c5,2.13,11.88,2.72,19.49-1C309.67,557.3,321,560,321,560Z" transform="translate(-221.81 -198.86)"/><path class="cls-8" d="M420.52,580.39c-1-11.95-5-30.53-5-30.53-2.66-36.84-14.93-57.75-14.93-57.75-1-20.58-22.24-50.45-22.24-50.45-1.66-11.95-7-19.91-18.59-35.18s-26.88-11.95-26.88-11.95,3-.29,4.65,20.24,11.62,37.83,11.62,37.83a9.41,9.41,0,0,1,5.94,1.3l.14,0s4.72-3.3,9.38,3.5c0,0,1.79,2.51,8.6,3.94s1.6,22.2,18.63,37.61c0,0,3.58,1.63,2.87,8.71s5,24.34,12.54,41.15-1.43,43.34-1.43,43.34l1,.56,16-1Z" transform="translate(-221.81 -198.86)"/><path class="cls-10" d="M316.52,409.53s2.33-3.22-.36-3.6c0,0,.09-6.2,2-4.85a1.85,1.85,0,0,1,.9,1.78s.81-2.49-1.43-2.94-2.42,6.9-2.42,6.9S317.5,406.43,316.52,409.53Z" transform="translate(-221.81 -198.86)"/><path class="cls-8" d="M430,598.34c-7-3-5.72.22-7.14-6.66l-17,.46c-2,2.84-10.65,14.62-18.1,13a7,7,0,0,0,5.56,1.55c3.66-.81,7-4.09,9-6.62a41.47,41.47,0,0,0,.63,4.75c.57-3,3.73-6.91,3.73-6.91s-1.25,4.84,2.15,14.33c0,0,.59,4,3.23,3.29a3.35,3.35,0,0,0,1.07-1.86,86.56,86.56,0,0,1-3.5-10.21s-.8-.9-.26-3.58A68,68,0,0,0,419.43,611c5.84,5,1.72,4,1.72,4l.08,0c.6.23,4.7,1.63,4-4.6a111.54,111.54,0,0,1-8.87-8.06s8.48,7.52,12.84,9.14c0,0,6.24,0,3-4.57,0,0-4.94-2.69-9.32-5.37,0,0,7.14,3,10.25,2.15C433.09,603.72,436.94,601.3,430,598.34Z" transform="translate(-221.81 -198.86)"/><path class="cls-8" d="M255.82,593.34s2.47,7.5-3.71,10.55c0,0-1.58,7.62-5.09,9.5,0,0-5.93.66-4.59-3.57a38.4,38.4,0,0,0,3.22-5.93c.54-1.79-1-4.74-6,2.78,0,0-4.47,4.57-10.38,4.84,0,0-8.87-.27-3.22-4,0,0-5.91-.46-3.76-3.59s15.07-2.08,17.37-10.55" transform="translate(-221.81 -198.86)"/><path class="cls-7" d="M239.65,593.34c-2.3,8.48-15.22,7.42-17.37,10.55s3.76,3.59,3.76,3.59a7.73,7.73,0,0,0-1.27,1c2.88,2.88,12.55-1.82,14.28-4.19a42.79,42.79,0,0,1,5.44-5.52,15.24,15.24,0,0,0,.72,2.69l-.18.37c.7.24.87,1.26.63,2a38.4,38.4,0,0,1-3.22,5.93c-.7,2.21.58,3.08,2,3.41-.39-.35-.93-1.21.27-2.8A15.52,15.52,0,0,0,247,599.86a17.06,17.06,0,0,1,0-6.53Z" transform="translate(-221.81 -198.86)"/></g><g id="Bovenarm"><path class="cls-3" d="M569,329.6c-6.5-14.28-19.25-35.47-19.25-35.47a34,34,0,0,0-22.12-21.35s-10-2.86-11.54,4.62,4,18.11,11.35,25.67,9.28,10.8,12,18.72l1.1,4.59c6.5,15.25,19,21.75,24.25,27s10.25,0,10.25,0C577.6,345.07,569,329.6,569,329.6Z" transform="translate(-221.81 -198.86)"/></g><g id="Onderarm"><path class="cls-13" d="M631.33,282.14a12.12,12.12,0,0,0-11.78,0h0l-.12.09a8.74,8.74,0,0,0-1,.72l0,0-.06.05-.09.08-2.69,2.31.65.64c-1.9,4.66.78,10.49,6.28,13.31a13,13,0,0,0,8.44,1.3l.91.9,2.8-2.43a8.5,8.5,0,0,0,1.44-1.25l0,0h0a8.1,8.1,0,0,0,1.21-1.74C639.77,291.35,637.08,285.1,631.33,282.14Z" transform="translate(-221.81 -198.86)"/><ellipse class="cls-14" cx="623.86" cy="293.37" rx="9.68" ry="11.71" transform="translate(-143.93 515.43) rotate(-62.82)"/><path class="cls-3" d="M573.17,330.43c-3.48.81-6.92,3-9.74,4.52-2.29,1.26-5.13,3.83-5.93,6-1.34,3.67,3.52,10.32,3.52,10.32,3.13,6.73,9.63,3.52,9.63,3.52,18.38-9.52,37.05-26.39,43.23-29.46s8.59-6,8.59-6c7.6-12.78,10-22.31,10-22.31a43.68,43.68,0,0,0-9.29-8.83,22.54,22.54,0,0,0-11.75,5.93l4.41,20-11,5.25c-13.25,5-31.72,11.07-31.72,11.07h0" transform="translate(-221.81 -198.86)"/><path class="cls-8" d="M568.76,332.07s6.58-1.29,8.22-1.87c0,0,12.58-3.47,23.24-5.69s6,3.45,1,6.93-14.92,11.16-31.23,21.7a22.09,22.09,0,0,0-3.23,2.45,8.71,8.71,0,0,0,3.86-.76c18.38-9.52,37.05-26.39,43.23-29.46a37.44,37.44,0,0,0,5.4-3.24s6.19-10.49,6.25-17.12-5.51-2.68-5.51-2.68l-5.37,6.36,1.2,5.43-11,5.25c-13.25,5-31.72,11.07-31.72,11.07Z" transform="translate(-221.81 -198.86)"/><path class="cls-13" d="M616.73,296.17c-5.11-2.63-10.91-1.84-14,1.6h0l-5.29,5.59,3.59,2.79a13,13,0,0,0,6.63,7.64,14,14,0,0,0,5.13,1.5l3.31,2.57,4.73-4.88a8.48,8.48,0,0,0,1.08-1.12l.08-.08h0a8.26,8.26,0,0,0,.86-1.32C625.36,305.59,622.62,299.2,616.73,296.17Z" transform="translate(-221.81 -198.86)"/><ellipse class="cls-14" cx="607.5" cy="309.85" rx="9.91" ry="11.98" transform="translate(-167.47 509.83) rotate(-62.82)"/><path class="cls-8" d="M569.43,353.32c8.4-1.88,16.47-7.77,16.71-7.93a150.22,150.22,0,0,1-15.48,9.44s-6.5,3.22-9.63-3.52C561,351.31,563.4,354.66,569.43,353.32Z" transform="translate(-221.81 -198.86)"/></g><g id="Schaduw"><path class="cls-8" d="M567.28,352.87c-3.19-3.3,0-3-8.48-11.49S545.08,320,545.08,320a158.84,158.84,0,0,0-10-15.22c-6.57-9-12.57-15.93-14.92-20-3.54-6.07-.16-12-.16-12l-.36.07a5.87,5.87,0,0,0-3.79,4.56c-1.58,7.48,4,18.11,11.35,25.67s9.46,10.8,12.15,18.72l1.1,4.59c6.5,15.25,18.92,21.83,24.25,27C569.09,357.63,567.28,352.87,567.28,352.87Z" transform="translate(-221.81 -198.86)"/></g><g id="Romp"><path class="cls-15" d="M468.47,603.88s-5.5-2.25-6.25,7.75-.5,12-1.75,15.25-.75,6.75,11,6.25,19-3.5,31-3,27.25-1,28.75-7-32.75-27.79-32.75-27.79-2.2-4.79-6.25-1.88-1.5,4.17-1.5,4.17l-5.25-.25Z" transform="translate(-221.81 -198.86)"/><path class="cls-16" d="M471.47,633.13c11.75-.5,19-3.5,31-3,11.33.47,25.56-.84,28.37-6l-1.82-.71-2.73,2.33c-6.68,3.33-16.94,3.17-23.32,3.17s-8.25-2.12-10-3.12-5.62-2.12-6.25,1.13-3.12,3.25-3.12,3.25a76.43,76.43,0,0,1-15.46,1.25c-7-.37-7.67-4.5-7.67-4.5C459.22,630.13,459.72,633.63,471.47,633.13Z" transform="translate(-221.81 -198.86)"/><path class="cls-17" d="M520.64,583.21s-7.93,1.44-17.68,9.31c0,0-9.75-1.64-3.25,7.86s21.5,20.1,34.75,32.8,28.5-.3,25.75-3.55-6.5-7.5-10.5-8.75-2.75-15.5-.5-20.25,4.94-11.26-6.4-11.75Z" transform="translate(-221.81 -198.86)"/><path class="cls-8" d="M525.47,507.88s-7.67,15.33-3.67,33,1,36-1.16,42.33A21.83,21.83,0,0,1,530.8,591s3.33,3.83,12,1.83c0,0-.33-25.33,4-36.67s9-50.33,9-50.33Z" transform="translate(-221.81 -198.86)"/><path class="cls-8" d="M495.3,530.13a352,352,0,0,0-7.22,49.64s.28,9.45,0,21.11c0,0-3.61.33-8.28,5.33s-11.33-2.33-11.33-2.33,1.67-29.67-4-50,12.33-45.67,12.33-45.67Z" transform="translate(-221.81 -198.86)"/><path class="cls-2" d="M477.47,444.88s-4.33,12.67-2.67,32.5-2,32.59-2,32.59-3.33-.5-.75,2.41c0,0-3.5.25-1.92,3.33,0,0-2.08,1.08-1.33,2.17,0,0-4.5-.83.67,2.58s17.58,6.33,25.83,9.67c0,0,3.33.42.83-3.17a2,2,0,0,0,.93-3.25,70.32,70.32,0,0,1,6.07-9.17c3.67-4.67,4.67-9,4.33-15s11.67-18.78,16.67-33.06Z" transform="translate(-221.81 -198.86)"/><path class="cls-1" d="M477.47,444.88s-4.33,12.67-2.67,32.5-2,32.59-2,32.59-3.33-.5-.75,2.41c0,0-3.5.25-1.92,3.33,0,0-2.08,1.08-1.33,2.17,0,0-4.5-.83.67,2.58a23.68,23.68,0,0,0,3.44,1.8s-.92-2,.81-1.93a9.83,9.83,0,0,1,3.25,1s-2.25-2.3-4.31-2.67c0,0,.38-.25,2.16,0,0,0-1.51-2.08-3.09-2.5a71.53,71.53,0,0,1,8.88,3.07s-3.18-3.91-6.12-5.32c0,0-.12-2,2.25-1.5a3.53,3.53,0,0,0-1.87-1.87,109.73,109.73,0,0,0,4.49-30c-.1-13.76-.5-21.72,2-33.82Z" transform="translate(-221.81 -198.86)"/><path class="cls-3" d="M464.47,553.88c5.67,20.33,4,50,4,50s.18.2.5.5l.78.25c2-31-.53-37.5-2.77-53s5.92-29.38,5.92-29.38l-3-1.93C465.54,529.53,461.29,542.49,464.47,553.88Z" transform="translate(-221.81 -198.86)"/><circle class="cls-13" cx="211.97" cy="223.37" r="12.35"/><path class="cls-2" d="M466.47,383.63s-25.33,34.92,2.33,58.92,57.67,49.33,57.67,49.33,5,4.33,1.67,11.67a11.77,11.77,0,0,0-2.67,4.33A64.09,64.09,0,0,0,547.13,510s3.67-3.09,7.33,4.58a124.12,124.12,0,0,1,6.33-14c3.33-6,7-15-1.67-26s-20.67-38-33-49.33c0,0-.67-6,.67-17.31s1.67-14.77,1.67-14.77L482.8,379.54Z" transform="translate(-221.81 -198.86)"/><path class="cls-1" d="M502,394.88s2.49.43,5.82.74A18.76,18.76,0,0,0,502,394.88Z" transform="translate(-221.81 -198.86)"/><path class="cls-1" d="M559.13,474.54c-8.29-10.52-19.63-35.67-31.39-47.75h0c-.54-.55-1.07-1.08-1.61-1.58l-.06-.08.05.07c0-.15-.65-6.08.67-17.3s1.67-14.77,1.67-14.77l-2.24-.67-2.1.86c-2.12,3-10.52,2.84-16.35,2.29a9,9,0,0,1,3.51,1.93c3.17,3,12.83,2.3,12.83,2.3s-8,2-14,.61a27.06,27.06,0,0,0-11.72.09,23.84,23.84,0,0,1,10.87,1.67,74.13,74.13,0,0,1,11.11,5.69,16,16,0,0,1-8.65-1.53c4.33,3.49,6.94,9.92,6.94,9.92h0c-4.78-5-11.14-10.17-16.78-9.91,0,0,26.44,21.75,43.22,49.25a164,164,0,0,0,13.53,23c7.5,10.25,1.35,23.28,1.35,23.29.24-.47.49-.93.74-1.37C564.13,494.54,567.8,485.54,559.13,474.54Z" transform="translate(-221.81 -198.86)"/><path class="cls-8" d="M478.46,264.17a27,27,0,0,0-10.33,1.7c-4.83,2-9.83,4.67-13.67,17.33s-9.33,44.67-9.33,44.67a28.1,28.1,0,0,1-3.17,7.67c-2.5,4.33-9.67,14.33-16.5,53.17,0,0,.33,3-3.17,10a21.49,21.49,0,0,0-.83,18c1.83,4.33-3.33,12.83,5.33,15l10.5-6.17,1.83-10.5a20.35,20.35,0,0,0-5-6.33c-3.5-3,26.67-49,27.17-70,0,0,9.33-21,11.67-32.83,0,0,20.67-6.83,13.67-30Z" transform="translate(-221.81 -198.86)"/><path class="cls-13" d="M521.14,268.4s8.32-1,16.82,27,11.75,27-3,46c0,0-3.26,7-3.13,20.75s-3.37,31-3.37,31-19,1.75-35.5-5.25-26.5-4.25-26.5-4.25,6.25-14.25,8.25-22,1-29.5-6-40.5A102.65,102.65,0,0,1,473,305.88s22.25-8,12.5-31.5l-4.5-8.5" transform="translate(-221.81 -198.86)"/><path class="cls-14" d="M488.93,288.44s-4.53,19.4,0,31.67c0,0,.68-17,4.48-25.73,0,0,3.8,10.75,8.55,17.25a75.68,75.68,0,0,0-1.23-9.36,38.34,38.34,0,0,0,7,7.36s-1.57-3.19-2.07-11a39.81,39.81,0,0,0,6,9.67s-3.75-11-3.75-11.87v.83Z" transform="translate(-221.81 -198.86)"/><path class="cls-18" d="M531.84,198.91c-15.63-.75-20.37,8-20.37,8-14.75-2.25-23,5.25-22.5,25.5s-7,21.75-10,30-1.5,20-1.5,20a19.2,19.2,0,0,1,2.5-8.75c-.25,9.75,3.5,23.5,3.5,23.5s2.5-22.25,5.05-20.5.7,9.25.7,9.25c-2.75,21.75,3.5,35,3.5,35-1-13.5,1.75-28,1.75-28a46.52,46.52,0,0,0,8.88,17c-2.62-5.25-3.63-13-3.63-13a20.52,20.52,0,0,0,7.75,8.75,11.4,11.4,0,0,1-1.75-7c4.25,5.5,7.75,7,7.75,7a99.65,99.65,0,0,1-7.75-13.75c3.5,6.25,10.49,10.58,10.49,10.58L516,264.41l19.75-19L555,236.16l5.36-8C561.94,202.91,531.84,198.91,531.84,198.91Zm-27.37,35s1,6.5-.89,9c0,0-1.86-13.86-1.86-17.68s-1.25-15.32,6.5-11.32C508.22,213.91,503.72,220.91,504.47,233.91Z" transform="translate(-221.81 -198.86)"/><path class="cls-3" d="M560.33,225.63s.25,12.75-5,19c0,0-3,4.25-2.75,11.75,0,0,.5,5.25-5.75,0,0,0-1.75-.33-1.25,2.33,0,0,.25,2.42-3.25,1.67,0,0,1.39,3.78-3,3.71,0,0-3.51-.46-3.26,2.29s0,4.75-6.75,1.25-8.5-3.75-9.25-.25c0,0,7.25,5.25,15.75,32,0,0,5.75,10.5-6.5,8.75s-18-9-21.75-17.5-4.75-21-4-47.5c0,0,6.5.25,12.75-7.25,0,0,3-5.75,7-7.75,0,0,6.5-6.5,9.75.75a23.24,23.24,0,0,1-1.24,12.25s6.24,1.25,9.49-5.5,12.75-3.5,12.75-3.5S554.83,225.88,560.33,225.63Z" transform="translate(-221.81 -198.86)"/><path class="cls-8" d="M527.59,242.69s-9.9-2.81-4.26-14.56c0,0-.39,0-1.67,1.08C520.14,230.48,518.72,243,527.59,242.69Z" transform="translate(-221.81 -198.86)"/><path class="cls-8" d="M518.74,298.54a44.55,44.55,0,0,1,1.69,6.87c.39.2.78.39,1.19.57A13.65,13.65,0,0,0,518.74,298.54Z" transform="translate(-221.81 -198.86)"/><path class="cls-11" d="M540.75,263.94s-2.77-2.2-.78-6.47l1.15-.91,1.2,3.82S543.54,263.09,540.75,263.94Z" transform="translate(-221.81 -198.86)"/><path class="cls-12" d="M545.58,258.71a2.27,2.27,0,0,0-1.74-.58c-1.25,0-2.19-2-2.19-2l-.52,1a5.77,5.77,0,0,0,1.2,3.29S545.56,261.2,545.58,258.71Z" transform="translate(-221.81 -198.86)"/><path class="cls-19" d="M491.56,215.92c-1.87,4.09-2.77,9.61-2.6,16.7.5,20.25-7,21.75-10,30a27.25,27.25,0,0,0-1.13,4.26s2.14-6.51,7.63-10,6-22.25,6-22.25.25,16.45-1,25.48,2.25,14.77,2.25,14.77-.25-13.75,1.25-20.13,1.25-19.87,0-26.12,4.26-17,9.38-18C503.35,210.63,498.16,209.22,491.56,215.92Z" transform="translate(-221.81 -198.86)"/><path class="cls-8" d="M540.47,257.13a29.77,29.77,0,0,1,5.75-4c3-1.5,2.5-5.5,1.5-7,0,0,4.94,6-2.53,9.25S540.47,257.13,540.47,257.13Z" transform="translate(-221.81 -198.86)"/><path class="cls-3" d="M466.24,266.71c-4.22,2-8.44,5.48-11.77,16.5-3.83,12.67-9.33,44.67-9.33,44.67a28.1,28.1,0,0,1-3.17,7.67c-2.5,4.33-9.67,14.33-16.5,53.17,0,0,.33,3-3.17,10a21.49,21.49,0,0,0-.83,18c1.6,3.78-2.13,10.74,2.66,13.89-2.09-5,.34-11,.34-11s-4.49-12.77-1.25-18.25,4.5-14.5,4.5-14.5c4.75-27,12.25-42,14.5-46.75s3.75-8.75,3.75-8.75,4.5-14.5,8-32.83a94.35,94.35,0,0,1,12.48-31.66Z" transform="translate(-221.81 -198.86)"/><path class="cls-3" d="M521.6,540.81c4,17.64,1,35.94-1.14,42.3l.81,0c3.25-10.5,6-27.5,3-42.75s3.55-32.67,3.55-32.67l-.14-.09-2.41.16S517.6,523.15,521.6,540.81Z" transform="translate(-221.81 -198.86)"/><circle class="cls-13" cx="217.53" cy="229.89" r="13.13"/><path class="cls-1" d="M505,471.38c-28.33-24.17-38-35.83-38-35.83-14.65-19.5,2.32-48.33,2.32-48.33a59.44,59.44,0,0,0,9.83,0,38.16,38.16,0,0,0-9.33-1.5,119.6,119.6,0,0,1,13.17.67,65.73,65.73,0,0,0-14-3l-2.52.63s-25.33,34.92,2.33,58.92,57.67,49.33,57.67,49.33,5,4.33,1.67,11.67a12.25,12.25,0,0,0-2.54,4l2,.51L530,503C532.13,493,533.3,495.54,505,471.38Z" transform="translate(-221.81 -198.86)"/><path class="cls-8" d="M529,237s-1.62-3.25,1.75-2.75c0,0,1.84-5.75-2.14-5.5s-3.73,1.87-4,4.12c0,0-1.75-4.17,3-4.75s5.24,3.5,4.25,6.75C531.84,234.88,528.47,234.5,529,237Z" transform="translate(-221.81 -198.86)"/><path class="cls-8" d="M530.34,264.16c-6.5-5.09-8.73-4.27-8.73-4.27-5.6,1.88-1.53,7.49-1.53,7.49.75-3.5,2.5-3.25,9.25.25s7,1.5,6.75-1.25C532.94,266.75,530.34,264.16,530.34,264.16Z" transform="translate(-221.81 -198.86)"/><path class="cls-8" d="M503.4,263.12c.36-2.61,2.78-18.11,9.73-24h0c-5.08,4.19-9.53,4-9.53,4C503.36,250.92,503.29,257.49,503.4,263.12Z" transform="translate(-221.81 -198.86)"/><path class="cls-8" d="M552.63,242.89a9.25,9.25,0,0,0-2.37,3.43l.71.39A9.37,9.37,0,0,1,552.63,242.89Z" transform="translate(-221.81 -198.86)"/><path d="M547.63,242.7a6.43,6.43,0,0,0,4.33,4.18S547.13,248.77,547.63,242.7Z" transform="translate(-221.81 -198.86)"/><path class="cls-18" d="M549.32,239.09a5.4,5.4,0,0,1,6.32,0s1.75,1.54.67,2.12S554.83,238,549.32,239.09Z" transform="translate(-221.81 -198.86)"/><path class="cls-14" d="M497.3,334.21s14.83,5.33,27.5,25.67c0,0,3.5,5.17,4.33,10.17C529.13,370,515.47,348.71,497.3,334.21Z" transform="translate(-221.81 -198.86)"/><path class="cls-14" d="M475.43,346.39s3.87,4.15,11.87,4.82,17.83,9.33,20.67,13.17c0,0-13.67-12.67-22.67-12.25,0,0-6.65-.69-9.74-3.47Z" transform="translate(-221.81 -198.86)"/><path class="cls-14" d="M533.73,345.07a25.68,25.68,0,0,1,1.23-3.7,111.58,111.58,0,0,0,7-9.73c-.07,0-6.71,3.88-16.16,1.23C525.8,332.88,535,339,533.73,345.07Z" transform="translate(-221.81 -198.86)"/><path class="cls-14" d="M533.56,345.74h0l0-.09Z" transform="translate(-221.81 -198.86)"/><path class="cls-14" d="M531.83,308.32h0c11.75,1.95,3.63-15.61,3.63-15.61-7-20.66-14.32-24.32-14.32-24.32h0c2.31,2.51,8.12,10.34,14.68,31C535.83,299.38,540.71,308.32,531.83,308.32Z" transform="translate(-221.81 -198.86)"/><path class="cls-14" d="M473,305.88s2,19.79,14,25.77c0,0-6.33,3-9.13,6.71,0,0-4.12-12.48-9.12-17.23A124.1,124.1,0,0,1,473,305.88Z" transform="translate(-221.81 -198.86)"/><path class="cls-14" d="M475.09,342.61s1.62,1.26,4.37-1.74,14.25-6.67,14.25-6.67-11,6.42-13.25,8.67a19.39,19.39,0,0,1-5,3.51Z" transform="translate(-221.81 -198.86)"/><path class="cls-14" d="M481.8,355.71a9.73,9.73,0,0,1,5.12,3.33,9.43,9.43,0,0,0,4.78,3.33s-4.4-1-5.86-2.75A14.23,14.23,0,0,0,481.8,355.71Z" transform="translate(-221.81 -198.86)"/><path class="cls-14" d="M522.55,584a8.53,8.53,0,0,1,2.24,7c-.5,4.5,3.83,4.67,9.33,5s9.17,2.33,9,6.33c0,0-4.17-4.67-9.33-4.5s-11.24.18-11.24-6.83C522.55,591,523.62,588.68,522.55,584Z" transform="translate(-221.81 -198.86)"/><path class="cls-14" d="M465.47,604.09s2.67-.42,5.5,4.08,7.83,5,13.67,0,7.33-5.83,11-4.83c0,0-3.16-3.17-8.5.75s-9.62,8.57-14.23,3.33S465.47,604.09,465.47,604.09Z" transform="translate(-221.81 -198.86)"/><path class="cls-16" d="M558.91,633.68h0c-14.68,8.42-24.94-3.42-24.94-3.42s-7.62-6-9-11.37-2.75-8.62-6-6.6-4.87,0-4.87,0-5-4.52-10.87-10.77-4-8.75-4-8.75h0c-1.82.68-3,2.58.5,7.62,6.5,9.5,21.5,20.1,34.75,32.8C544.15,642.46,554.9,638,558.91,633.68Z" transform="translate(-221.81 -198.86)"/><path class="cls-15" d="M519.47,599.71s-9.17,2.59-12.17-4.37a18.26,18.26,0,0,1,6.08-7A22.84,22.84,0,0,1,519.47,599.71Z" transform="translate(-221.81 -198.86)"/><path class="cls-20" d="M463.36,614.88s5.1-1.34,14.44,1.58a19.16,19.16,0,0,1-13.67,5.92A20.6,20.6,0,0,1,463.36,614.88Z" transform="translate(-221.81 -198.86)"/></g></svg>