<svg id="alleenbuiten" xmlns="http://www.w3.org/2000/svg" viewBox="0 0 641.94 556.2"><defs><style>.cls-1,.cls-16,.cls-7{fill:none;stroke-miterlimit:10;}.cls-1{stroke:#010101;stroke-width:0.46px;}.cls-2{fill:#1e1e1c;}.cls-3{fill:#737373;}.cls-4{fill:#525252;}.cls-5{fill:#141414;}.cls-6{fill:#3f3f44;}.cls-16,.cls-7{stroke:#37373a;}.cls-7{stroke-width:0.27px;}.cls-8{fill:#010101;}.cls-9{fill:#504f55;}.cls-10{fill:#6b6974;}.cls-11{fill:#e8e9eb;}.cls-12{fill:#676570;}.cls-13{fill:#5f5e67;}.cls-14{fill:#e0e0e0;}.cls-15{fill:#f4f3f4;}.cls-16{stroke-width:0.14px;}.cls-17{fill:#0b0a0b;}.cls-18{fill:#f3f3f9;}.cls-19{fill:#331f12;}.cls-20{fill:#b2884c;}.cls-21{fill:#a57e4a;}.cls-22{fill:#523315;}.cls-23{fill:#4e4d4d;}.cls-24{fill:#402514;}.cls-25{fill:#1f120e;}.cls-26{fill:#b8935e;}.cls-27{fill:#4a3b33;}.cls-28{fill:#f2f2f2;}.cls-29{fill:#2c261b;}.cls-30{fill:#05050b;}.cls-31{fill:#fff;}</style></defs><title>Alleengeenbal</title><g id="Layer_2" data-name="Layer 2"><path class="cls-1" d="M0,104s44.38-31,87.92-9.18c28.36,14.18,110.77,87.25,162.32,38"/><path class="cls-1" d="M0,116.86S31.86,95,74.4,107.35a55.9,55.9,0,0,1,16.68,8.34c35.2,26.36,45.54,33.37,45.54,33.37s53.22,37,113.61,9.68"/><path class="cls-1" d="M0,125.37s30-17.85,77.07,1a14.68,14.68,0,0,0,2.5.83c18.85,6.67,38.2,31.2,51.55,42.71,21.85,18.85,60.39,36,119.28,13.68"/><path class="cls-1" d="M0,134.71s23.52-13.18,71.23,6.67c19.35,6.17,42.54,37.54,56.39,49.38,21.85,18.85,63.89,42,122.78,19.85"/><path class="cls-1" d="M0,145.72s22.52-9,69.4,10c.17.17.5.17.67.33a35.06,35.06,0,0,1,4.34,2.17c19.19,11.18,37.87,34.7,47,49,19.85,30.53,70.07,52.22,129,29.86"/><path class="cls-2" d="M75.24,103h1.17s7.67,29,9.51,38.37c1.17,6-1.33,13-9,12.18a4.09,4.09,0,0,1-3.5-3c-2.34-7.84,6.34-9.34,9.51-9.68.67,0,1-.67.83-1.33Z"/><path class="cls-3" d="M74.4,149.56a14.61,14.61,0,0,1,4.5-5.67C79.24,141.72,71.9,145.55,74.4,149.56Z"/><path class="cls-2" d="M94.09,115.19h1.17s7.67,29,9.51,38.37c1.17,6-1.33,13-9,12.18a4.09,4.09,0,0,1-3.5-3c-2.34-7.84,6.34-9.34,9.51-9.68.67,0,1-.67.83-1.33Z"/><path class="cls-3" d="M93.26,161.74s2-5.51,4.5-5.67C98.09,153.9,90.75,157.9,93.26,161.74Z"/><path class="cls-2" d="M46.71,175.08s5.51-3.67,3.67-7.51a6.1,6.1,0,0,0-4.5-3.17,4.15,4.15,0,0,0-4,1.5,7.35,7.35,0,0,0-1.67,5.34,9.33,9.33,0,0,0,3.5,5.17,4.76,4.76,0,0,0,3.84,1.33,20.48,20.48,0,0,0,6.51-.83,9.87,9.87,0,0,0,6.17-8c.33-5-7.17-18.18-7.17-18.18l-8.84-17.18-8.67-16.68S29,105.52,29.36,100.18s1-10.51,4-10.84,4,4.5,3.84,7.17S31.53,113,30.53,114.36c-2.5,4-7.17,16.18-7.34,16.18-.83,1.5-.17,14.18,3.17,17.35s7.34,8.17,16.85,8.17c9.84,0,15-9,15.35-10,1-2.5,1-9.68-2.5-14.18-3.17-4-5.84-6.17-13.68-4.84-6.34,1-7.84,8.67-8.17,11.51a8.12,8.12,0,0,0,.17,2c.67,2.34,2.84,8.34,8.34,8.84a.55.55,0,0,0,.33-1c-4-2.5-4.84-5.84-4.84-7.84a4.34,4.34,0,0,1,.67-2.5c1.33-2.34,5.34-7,12.85-3,9.51,5.17,2.67,13.35,2.67,13.35s-6.67,7-12.85,5.84c-6-1-14-4.5-13.51-12.85.5-9.68,6-18.52,10.68-26.86,4.34-8,1.33-18.52,0-23.36a8.83,8.83,0,0,0-1.84-3.5c-1.84-2.34-4-7-6.84-6.34C29,81.49,26.19,89,26,95c-.17,6.17,5,16.52,5,16.52l12.85,26L54.72,158.9s4.84,9.84.83,14.51A7.35,7.35,0,0,1,46.71,175.08Z"/><path class="cls-3" d="M41.71,170.41c-.83-.83,3.17-5.67,5-4.67C42.71,168.08,42.37,171.25,41.71,170.41Z"/><path class="cls-3" d="M36.53,136.21s.33-7.84,12.51-7.84c1.5-.67-6.17-1.5-8.51,0C35.7,131.37,35.7,136.55,36.53,136.21Z"/><path class="cls-3" d="M28.19,90.84c-.17.33-.67.17-.5-.17.67-3.5,1.84-8.17,2.5-8.34,1.17-.33,3.17,1.84,3,2.5s-.67-1-2.34-.5C29,84.83,29.19,88,28.19,90.84Z"/><path class="cls-3" d="M25,137c0,.33.67.5.67,0,.5-4.67,1.67-12.18,4-15.51,1.67-2.34,6.84-13.18,8.51-21.35,0-.33-.33-.5-.5-.17-4.34,9.84-6,16.52-9.34,22C26.86,124.2,24.86,129.37,25,137Z"/><path class="cls-2" d="M157.48,163.24c.83-3.5,1.17-7.17,4.67-9.51a6.17,6.17,0,0,1,3.5-1L208,154.4c3.67.17,1.17,14.35.33,17.85l-12.51,47.21v.17c-.17.67-1.84,7.84-7.67,6-6-1.84-29.86-9.34-36.7,7.84-4.17,10.68,6.51,17.35,15.18,20.85a42.13,42.13,0,0,0,22.69,2.5c4.84-.83,9.68-2.67,11.51-6.51.5-1,1-2,1.5-2.84,4.17-7.34,6.34-15.68,7.67-18,1.5-2.67,28.53-95.09,28.53-95.09l2.34-8.67a2.08,2.08,0,0,0-.67-2.17c-2.67-2.17-10.18-7.51-17-3a1.83,1.83,0,0,0-1,1.67h0a2.21,2.21,0,0,1-2.17,2.17H165.49a2.17,2.17,0,0,1-2-1.33c-.83-2.5-4-7.34-13.85-5a1.77,1.77,0,0,0-1.5,1.67L134,208.28v.33c0,1-.33,7.34-2.34,6.67-3.67-.33-20-9.18-29.86,1.84A12.37,12.37,0,0,0,101.1,233c4.84,6.34,14.68,10,22,10.18h.33c5.17.83,17.35-3,18.52-9.34a.61.61,0,0,1,.17-.5c4.34-10.18,6.17-26.69,6.34-28v-.17"/><path class="cls-3" d="M155.65,132c-2.84,14-7.51,45.21-12,69.73C141.3,214.45,137.8,225.3,137,231c-.17.67,1,1,1.17.33,4.5-14.51,15-70.73,15.85-74.9v-.5l2.34-23.52C156.48,131.71,155.82,131.54,155.65,132Z"/><path class="cls-4" d="M137,231c-.17.67.83,1,1.17.33,6-11.34,15-70.73,15.85-74.9"/><path class="cls-4" d="M235.89,127.54S213,199.61,212.54,201.61s-11.84,37.87-12.18,38.54C198,245,191.68,251.32,193.52,251c2.5-.33,7.67-.5,14.18-24s23.52-77.24,23.52-77.24S239.9,128,235.89,127.54Z"/><path class="cls-4" d="M170.83,243.48s8.17-4.5,8.17-6,4.84,1.5,4.84,1.5S174.83,245,170.83,243.48Z"/><path class="cls-5" d="M217.37,135.71,212,148.06c-.83,1.84-3.34,3.17-6.17,3.17H177.17c-1.33,0-2.34-.83-1.84-1.67,1-2,6.51-4.17,9.68-5.51,4.67-2,17.52-12.51,20.85-12.85,1.17-.17,9.84-1.33,12-1.5C221.88,129.21,218.54,133,217.37,135.71Z"/><path class="cls-5" d="M169.16,247.65a1.84,1.84,0,0,1,.5-3.5c5.34-1,13.35-3,14.68-6.67,1.17-3.17,3.84-.83,6,1.67a4.29,4.29,0,0,1-1.17,6.34C184.51,248,176.67,251.16,169.16,247.65Z"/><path class="cls-5" d="M109.1,234.81a1.84,1.84,0,0,1,.5-3.5c5.34-1,13.35-3,14.68-6.67,1.17-3.17,3.84-.83,6,1.67a4.29,4.29,0,0,1-1.17,6.34C124.62,235.31,116.78,238.48,109.1,234.81Z"/><path class="cls-4" d="M113.78,228.8s8.17-4.5,8.17-6c0-.33,2.34-.17,2.67-.17,2,.33.33,2.67-1.33,3.67C120.28,228,116.61,231.64,113.78,228.8Z"/></g><g id="Layer_3" data-name="Layer 3"><path class="cls-6" d="M202.64,385.69a68.13,68.13,0,0,1,3.73-9.14c1.47-2.46,4.32-6.49,7.57-8.06a29.65,29.65,0,0,1,10.22-2.65c2.16,0,7.47-.39,8.65,0,1.57.49,5.9,1.08,9.14,3.24,2.65,1.77,7.76,7.86,10.81,14.54,3.24,7,4.82,14.05,4.82,18.38A129,129,0,0,1,256,418.21s-1.57,4.32-2.16,5.9-6.49,10.22-8.06,11.3-5.41,2.65-10.81,3.73-11.5-.1-13.46-1.08c-2.16-1.08-3.64-1.08-9.14-5.9-4.32-3.73-6.49-10.22-8.06-14.05-1.57-3.64-3.73-14.05-3.73-20.54A37.16,37.16,0,0,1,202.64,385.69Z"/><path class="cls-7" d="M241.17,374.68c0-.1-6.58-8.84-17.3-8.65"/><path class="cls-8" d="M238.22,371.63S247.36,382.93,249,390s3.24,16.71,1.57,23.19-3.73,15.13-8.65,19.95-5.41,4.82-5.41,4.82h1.08s6.49-4.82,9.14-10.22,5.9-16.22,5.9-19.95-.49-14.54-2.65-19.95-8.06-14.05-9.73-15.13S238.22,371.63,238.22,371.63Z"/><path class="cls-8" d="M228.49,377s-3.73-1.57-5.9-1.57a13.89,13.89,0,0,0-11.3,6.49c-3.24,5.41-5.41,11.3-5.41,15.63S208,416,210.21,419.2s4.82,6.49,9.73,8.06,7.86,2.26,11.3.49c1.08-.49,5.9-3.73,5.9-3.73s-4.32,5.9-8.06,7-9.73-.49-11.89-2.16-7-5.9-8.06-7.57-3.73-8.06-3.73-11.3-2.16-11.3-.49-17.79,3.73-11.89,5.9-13.46,5.41-4.82,9.14-4.82,8.06,2.16,8.06,2.16S228.49,376,228.49,377Z"/><path class="cls-8" d="M226.33,393.25a11.77,11.77,0,0,1,2.16,3,12.43,12.43,0,0,1,1.57,6c0,2-2.16,7-2.16,7s-2.16,3-3.24,3-.49,2-.49,2,2.65,0,4.82-3.54a12.78,12.78,0,0,0,2.16-6s.49-5-1.08-7.57c-.88-1.38-2.16-3-2.16-3Z"/><path class="cls-9" d="M220.43,391.58s2.95-.49,3.93,0a6,6,0,0,1,2.46,1.47c1,1,3.93,4.52,3.44,9a24.12,24.12,0,0,1-2.46,8.55s-1.47,3.54-3.44,3.54-4.42,0-6.29-2.06a10.18,10.18,0,0,1-2.46-4.52V397s1-3,2-4A9.64,9.64,0,0,1,220.43,391.58Z"/><path class="cls-10" d="M224.76,367.9a45.66,45.66,0,0,0,5.41,3.24c4.13,2.06,7.27,4.23,9.73,8.06,2.65,4.32,8.06,16.71,8.65,23.78A50.73,50.73,0,0,1,247,417.53s-3.24,8.06-4.32,10.81-4.32,7.57-5.9,8.65a4.44,4.44,0,0,0-1.57,1.57l1.57-.49A6.52,6.52,0,0,0,240,435.9l4.32-4.82c1.57-1.57,4.82-11.3,4.82-11.3s2.65-8.65,2.16-14.54c-.29-3.73-2.16-15.63-4.32-18.87s-6.68-13.17-14.05-15.63C229.57,369.47,224.76,367.9,224.76,367.9Z"/><path class="cls-7" d="M237.14,424S243,413.2,242,404.06s-1.08-8.65-1.08-8.65-2.65-14.54-12.38-18.87"/><path class="cls-11" d="M191.83,398.17l24.27-1.08s1.57-2.16,2.65-2.16,2.65-.49,4.32,1.08a10.17,10.17,0,0,1,2.65,4.82l.49,2.16s-1.08,3.73-1.57,4.82-1.57,3.24-4.32,2.65c-2.16-.39-2.65-1.57-2.65-1.57L191.74,411V398.17Z"/><path class="cls-12" d="M219.84,394.92h0c-.29-.2,2.16,0,2.46.1a8.41,8.41,0,0,1,3.44,2.56,11,11,0,0,1,1.28,3.83,12,12,0,0,1,.2,3.24c-.2,1.28-.39,3-.88,3.73-1.08,1.57-2.65,3.24-4.82,3.24a2.59,2.59,0,0,1-2.65-1.57l2.16.49c1.67.39,3.24-1.57,3.73-2.65a16.44,16.44,0,0,0,1.08-5.41,9.09,9.09,0,0,0-2.65-5.41C221.51,395.42,222,396,219.84,394.92Z"/><path class="cls-13" d="M216.7,396.5h2.16l1.08-1.57,1.57.49L221,397s1.57,2.65,1.57,3.73c0,.49.2.39.39.2a3.71,3.71,0,0,1,2.26-.79h1.57a12.35,12.35,0,0,1,.49,3.24c0,1.67-.49,2.16-1.08,2.16a20.61,20.61,0,0,1-3.24-1.08l-1.08,2.65a5.35,5.35,0,0,1-2.16,1.08c-1.08,0-.69-.29-.29-.39a1.18,1.18,0,0,0,.49-.49l.88-1.77.39-1.18a1.46,1.46,0,0,0,.1-.69.89.89,0,0,0-.1-.49l-.39-1.08-.29-.59a13.58,13.58,0,0,0-2.56-4c-1.08-1.08-1.57-.49-1.57-.49v-.49Z"/><path class="cls-14" d="M193.41,406.72l27.91-2.06-.29,1-1,1.87a3.67,3.67,0,0,1-.79.59c-.39.2-1.47.79-1.47.79l-23.39,2-1-4.13"/><polygon class="cls-15" points="190.16 399.25 218.27 397.58 218.96 398.26 190.75 400.33 190.16 399.25"/><path class="cls-6" d="M139.45,396.5s2.16-10.81,3.73-13.46c1.47-2.46,4.82-9.73,8.06-11.3s5.41-3.24,7.57-3.24,10.81-.49,11.89,0,8.65,3.24,10.22,5.9,7,7.57,9.14,14.54,4.32,15.63,4.32,22.11a54.27,54.27,0,0,1-1.57,12.38,33,33,0,0,1-1.08,4.82c-.59,1.57-5.41,11.3-7,12.38s-4.82,4.32-10.22,5.41-10.22,1.08-12.38.49a21.64,21.64,0,0,1-11.3-7.57,56.5,56.5,0,0,1-8.06-15.63c-1.08-3.73-3.24-14.05-3.24-20.54Z"/><path class="cls-7" d="M177.49,377.33s-5.41-9.14-18.87-8.94"/><path class="cls-7" d="M179.65,439.44a16.83,16.83,0,0,1-6.19,5.7,16.22,16.22,0,0,1-7.27,1.87"/><path class="cls-16" d="M158.62,377.92s9.73.49,12.38,6.49c1.57,3.54,6.49,14.05,7,17.3a77.81,77.81,0,0,1,0,15.13c-.49,3.83-1.57,12.28-4.82,15.53a53.34,53.34,0,0,1-6,5.21"/><path class="cls-17" d="M176.21,375.47s5.9,11.4,7,15.13c1.77,5.7,3.83,10.22,4.32,19.95.69,14.64-9.73,31.35-9.14,30.76,3.73-3.73,9.73-11.89,10.81-19.95,1.18-9.14,1.08-11.3.49-15.63s-3.73-14.05-3.73-14.05S181.52,380.28,176.21,375.47Z"/><path class="cls-8" d="M163.53,378.71h0a36.91,36.91,0,0,0-5.7-1.08c-1.57,0-4.52,1-7.57,3.24-2.16,1.57-7,11.3-7,15.63s3.73,29.19,5.9,31.84c1.67,2.16,4.42,5.7,5.5,7a3.07,3.07,0,0,0,1.08.88c1.28.59,4,2,5.31,2.36,1.57.49,5.6-.2,7-1.57,1.08-1.08-2.65,2.16-5.9,1.08a20.43,20.43,0,0,1-7-3.73c-1.08-1.08-5.9-6.49-6.49-13s-3.24-24.37-2.65-27,2.85-9.24,4.82-11.3C152.43,381.36,155.08,377.63,163.53,378.71Z"/><path class="cls-8" d="M161.07,386.77a28.28,28.28,0,0,1,4.32,4.32c1.08,1.67,3.73,9.14,4.32,11.3a34.49,34.49,0,0,1,.49,7c0,2.65,0,8.06-1.57,11.89a28.59,28.59,0,0,1-4.82,8.06c-1.08,1.08-4.82,1.57-4.82,1.57s4.32,0,5.41-.49,0,2.16,0,2.16,7.57-6.49,7-7.57,1.57,0,1.57,0a29.26,29.26,0,0,0,2.16-6.49,39.07,39.07,0,0,0,0-8.65l3.24-2.65s-.49-2.65-1.57-2.16-3.24,1.57-3.24,1.57l-2.65-10.81s-4.32-7-5.9-7.57Z"/><path class="cls-9" d="M148.59,388.93a13.16,13.16,0,0,1,7.57-2.65c6.49,0,6.19,1.77,8.65,3.73,3.24,2.65,5.5,11.79,5.9,15.63a42.9,42.9,0,0,1-2.65,17.79c-2.06,5.21-3.24,5.9-6.49,7-3,1-7.67-.59-10.22-2.16-5.41-3.24-6.19-33.51-4.82-36.36A13.23,13.23,0,0,1,148.59,388.93Z"/><path class="cls-8" d="M148.1,394.33l1.57,1.08a5.34,5.34,0,0,1,1.08-3.24c1.57-1.57,6.49-1.87,7.57-1.57,2.16.49-.69-.69-4.82-.49a6.53,6.53,0,0,0-3.73,1.08,6.25,6.25,0,0,0-2.16,2.65Z"/><path class="cls-8" d="M150.85,423.72s3.14,2.65,4.72,3c2.26.49,5.5-1.08,5.5-1.08s-3.73,1.08-5.5.59c-1.18-.39-4.13-2.95-4.13-2.95Z"/><path class="cls-10" d="M159.4,390s4.82,5.9,5.41,7a40.83,40.83,0,0,1,2.16,9.73c0,2.16-.49,11.3-1.57,13s-1.08,3.73-3.73,5.9-2.16,2.16-2.16,2.16,4.82-2.16,5.41-3.24,3.24-7,3.24-9.14,0-13-1.08-15.63a54.32,54.32,0,0,0-3.73-7.57,10.49,10.49,0,0,0-4.82-3.24C158,388.93,159.4,390,159.4,390Z"/><path class="cls-10" d="M158.91,371.63s8.65,2.16,11.89,6.49c4.62,6.09,7.57,15.13,8.06,17.3s2.16,9.14,2.16,9.14-.49-12.38-2.16-15.63c-1.28-2.56-.49-4.32-5.9-11.3S158.91,371.63,158.91,371.63Z"/><path class="cls-8" d="M153.51,398.66a2.32,2.32,0,0,1,2.16-1.57c1.67,0,1.57,1.67,1.57,3.24s2.16,3.24,2.16,3.24,3.24,0,3.24,2.16a4.09,4.09,0,0,1-1.08,2.65v2.16c0,5.6,3.24,5.41-4.32,9.73S153.51,398.66,153.51,398.66Z"/><path class="cls-12" d="M149.87,394.33s2.26,1.57,2.56,2.36.29,2,1.28,2.36,3.64,1.08,4.23,2.46,2.06,3.34,1.18,5.31-2.46,5.41-1.67,6.39,1.87,3.83,1.57,4.32-1.77,3.93-2.95,4a4.51,4.51,0,0,1-2.16-.39,17.56,17.56,0,0,1-2.26,3.73c-1,.79-3.93.1-3.93.1l1.57-5.41,1.38-2.95,2.65.59-.88-3.34L153,410l-1.18-5.31-.1-2.46-3-3.73.88-3.44Z"/><path class="cls-18" d="M140.14,403s-.39-4.32.49-5.11,2.95,1.38,3.64,1.08,2-5.6,3.14-5.7a4.7,4.7,0,0,1,2.46,1.08,36.76,36.76,0,0,0,1.18,5.31c.49,1.47,3.44,1.57,3.44,1.57s1.67.2,1.77,2.56-2,5.6-1.87,6.88,1.08,4,1.47,6-.59,3.93-2.06,3.24-2.95-1.38-3.14-.88-2.65,5.9-2.65,5.9a3,3,0,0,1-2.26-1.57c-.59-1.38,0-5.31-1.47-6s-3.93-1.77-3.93-1.77Z"/><path class="cls-11" d="M148,402.39l-14.74,1.08s-3.44,3.73-1.38,8.26c2,4.23,2.85,4.23,2.85,4.23l14.74-1.08s2.75-4.72.59-9.24C148.3,401.9,148,402.39,148,402.39Z"/><path class="cls-18" d="M136.7,407.9a12.59,12.59,0,0,0-1.57-3,4.83,4.83,0,0,0-1.77-1.38s-3.73,4.23-1,8.94c2,3.34,2.46,3.54,2.46,3.54S137.78,412,136.7,407.9Z"/><path class="cls-14" d="M134.83,416l14.64-1.08a6.79,6.79,0,0,0,.49-1c.29-.69.69-2.06.69-2.06l.2-.79.1-.49-14.15,1.08h0l-.49,1.57-.69,1.57"/></g><g id="Layer_1" data-name="Layer 1"><path class="cls-19" d="M486.3,275.18s9.84,20.52,12.68,26.36c3,5.84,6.34,13.68,9.84,18.52s12.68,18.52,13.68,22,17.68,74.4,18,75.74c1,3,1,1,2.5,4.34,1.5,3.5-.5,5.34-3.17,8.34-2.67,2.84.67,9.18,4.67,9.34,3,.17,6.17-.33,7-.83,3.67-1.84,2.34-5.34,1.84-7.67-.83-4.34,1.17-4.17,2-5.67s2.67-4.84,1.17-6-5.84-15.85-6-18c-.17-2.34-1.84-13.68-1.84-15.85s-2.67-39.7-2.67-39.7a12,12,0,0,1,.67-5.84c1.17-3,3.67-4.5,3.17-7.67-.67-3.17-3-10.51-2.67-11.34.33-1,2.17-38,3.5-38s-26.53-40.71-26.53-40.71Z"/><path class="cls-20" d="M551,155.23s16.52,2.5,22.35,8,27.53,44.54,28.36,60.39c.83,15.18,11.18,74.4,14.18,80.58s.5,49.55,5.34,63.73-9.84-12.35-11.18-14.85c-1.5-2.5-.5,17,1,19s-4.5-5.84-7.34-12.85a191.37,191.37,0,0,1-8.34-23.69c-3-11-1,15.68-3,15s-7.34-19.85-8.84-26.69-2-29.53-3.34-39.2c-.83-5.84-3-57.05-6.51-68.73s-8.84-34.87-13.18-42C556.87,167.91,551,155.23,551,155.23Z"/><path class="cls-21" d="M573.38,163.24c5.84,5.51,27.53,44.54,28.36,60.39.83,15.18,11.18,74.4,14.18,80.58s.5,49.55,5.34,63.73-9.84-12.35-11.18-14.85c-1.5-2.5-.5,17,1,19s-4.5-5.84-7.34-12.85a191.37,191.37,0,0,1-8.34-23.69c-3-11-3-41-4.34-50.72-.33-1.84,5.84-28,2.67-46.21C587.23,201.27,569.38,159.57,573.38,163.24Z"/><path class="cls-22" d="M311,66.31c.67,1.67,9.51,9.84,11.51,10.51a59.07,59.07,0,0,1,11.34,4.84c4.17,2.67,6.51,6.17,8.17,8.17s11.34,9.84,12.35,12c1,2.34,8.51,14.35,9.18,17.68s10.84,14.68,13,16c2.34,1.33,24.86,11.68,24.86,11.68s13.68,6.84,15.35,7.84,18.18,1,21.85,0,33.87-9.84,33.87-9.84,29.7-4.5,38.54-4.17c3,.17,26.36-2.34,42,16.35s17,21.85,20.52,29.36c1.5,3.34,9.51,12.35,5.84,33.53s-7.84,23.19-11.34,33.87c-3,9-15,35.2-16,36.2s-4.17,32.86-5.17,34.2-1.33,15.68-1.33,15.68l-3,17.35s-2.67,12.35-2.67,18c0,5.51-2,14.68-2,20.19s-1.33,21.19,0,22.86c.67,1-5.84,4.84-5,10.84.5,3,.83,4.67,0,6-.67,1.17-4.17,1.5-6.17,1.5s-9.84-3.67-9.84-5.67,5.67-6,5.67-6,2.67-3.84,2.67-6.51.67-15.68.67-15.68.67-16.68-1.33-25.19c-.33-1.33,1-20.85,1-20.85s0-61.56-1.67-61.23S520.33,256,515,256s-18.18,19.69-33.7,26.36c-15,6.51-24.69,9-35.87,9.51s-37.54,2.5-37.54,2.5-1,14-1.5,19.52-1,18.35-.67,19.35c.17,1-.17,15.85-.17,16.35s-1,8-1.5,8.84c-.5.67-.17,9.84.5,13.51s5.17,32,5.17,31.36c.33,1.67,1.84,14.51,2,15.18.17,3.67-1,7.51-1.5,7.34s-3.17,2.17-4.17,5.17,1.17,5,1.17,6.17c0,1.5-1.5,4.5-2.67,5-4.67,1.67-17.85,1.84-18.35.67s3.5-7.51,4.34-8.51c1-1,3.5-3.5,3.84-5.34a35.73,35.73,0,0,0,1.5-8c.17-4.34.17-13.68,0-15.68s-2-29.53-3.5-30-7.34-16.68-7.51-18.35-.5-16.68-1-17.35-4.67-40.87-6.34-42.87-3.67-6.34-8-6.34S361,294,361,296.2s2.5,39.54,2.5,39.54,2.5,22.69,1.5,24.52c-1,1.67,1.5,39.87,2.17,41.87s1,18.52-.67,19.52c-4.17,2.67-2.17,12.18-2.17,12.18s1,3.67-1.17,5.34c-1.84,1.5-11.84,2.84-16.18,2.17s-3.84-1-3.5-3a15,15,0,0,1,4.84-8.51c4.84-4.67,4.17-7.17,4.34-9.34s-1-15.18-1-18.35.17-28.36-1.5-29.53-4.84-21.52-4.34-23.19c1.67-5.84-5.34-30.53-6.34-31s-11.18-29.86-10-32.53c1.17-2.5-8-14.18-8-14.18s-10.34-19.52-12.68-25,.5-49.88-1.67-51-9-35.87-9.34-35.2S311,66.31,311,66.31Z"/><path class="cls-23" d="M535.18,440s4-10,5-9.34a20.64,20.64,0,0,0,5,2.17,17.46,17.46,0,0,1,5,2.5,23.73,23.73,0,0,0,3.67,2.34s-.67,1.5-6.34,3.34a16.24,16.24,0,0,1-7,.33C539.18,441.17,535.18,440,535.18,440Z"/><path class="cls-23" d="M513.16,438.17s4.84-10.84,5.84-10a16.52,16.52,0,0,0,5,2.34,17.74,17.74,0,0,1,5.34,2.67,17.05,17.05,0,0,0,3.84,2s-.67,2.17-6.84,4a18.3,18.3,0,0,1-7.51.33C517.49,439.34,513.16,438.17,513.16,438.17Z"/><path class="cls-23" d="M385.37,443.34s4.84-10.84,5.84-10a18.12,18.12,0,0,0,5.17,2.17,19.24,19.24,0,0,1,5.51,2.84,31.75,31.75,0,0,0,4,2.34s-.67,2-7,4a19.24,19.24,0,0,1-7.67.33C389.87,444.51,385.37,443.34,385.37,443.34Z"/><path class="cls-23" d="M341,441.67s5-11.84,6.17-11a20.38,20.38,0,0,0,5.67,2.5,19.48,19.48,0,0,1,5.84,3,29.65,29.65,0,0,0,4.5,2.34s-1,2.34-7.84,4.34a18.65,18.65,0,0,1-8.17.33Z"/><path class="cls-24" d="M311,212.28c-3.5,4,8.34,21.19,9.51,26.36a20.66,20.66,0,0,1,0,7.84c-.83,3-6,11-6,11l7,13.68s4.34-10.68,8.34-13.68c3.17-2.34,10.84-.67,14.68,0,4.84.83,9.84,9.68,14.68,10.84,5.84,1.5,25-1.33,26.86-7,3.67-10.68-26.53-25.19-36.53-30.7-3.84-2.17-5.34-5-7.51-8.84-1.17-2.17,5.34-27.19,3.17-28.19-3.5-1.5-18.85,25.52-22.69,25.69C320,219.63,312.63,210.28,311,212.28Z"/><path class="cls-19" d="M298.45,162.57c1,8.51,8.34,31.86,8.34,31.86S308.63,215,312.63,219c4,3.84,9.84,3.84,14.68,0s18.52-19.52,18.52-24.52,2-30.36,0-31.36-1-11.68-4.84-21.52S323.64,118.7,320.14,116,297,150.56,298.45,162.57Z"/><path class="cls-24" d="M515.16,255.66s7.51-10.51,9-13.35c2.34-4.17,2.67-18.35,2.67-18.35l-3-26.36s8.34,36,8.84,42a54.35,54.35,0,0,0,2.84,12.51c1.67,4,2.17,10.68,4.67,14.18,1.67,2.34,5.34,6.67,6.17,9.34.83,3.17-.83,9.84,0,12.85.5,2,3.84,9.34-6.51,9.18s-13-3.5-13.68-9.51c-.67-5.84-3-14.85-4.34-15.35C520.33,272.51,515.16,255.66,515.16,255.66Z"/><path class="cls-24" d="M544.19,347.75a52.28,52.28,0,0,1-7.51,2.34c-2.34.5-7.67,0-7.67,0s1,10,0,9.34,10.84,14.85,11.18,12.68C540.35,370.1,544.19,347.75,544.19,347.75Z"/><path class="cls-24" d="M346.33,354.42s1.5,3,6.51,3c4.84,0,12.35-3.67,12.35-3.67s.17,5,0,5.51a3.59,3.59,0,0,0-.33,1.67c0,1-.17,9.51-1.67,10.51s-8.84.83-9.34.5-5.17-4.67-5.34-5.67C348.17,365.1,346.33,354.42,346.33,354.42Z"/><path class="cls-24" d="M385.2,356.76a18.42,18.42,0,0,0,9,2.34c1.5-.17,10.18-2,10.34-2.34a8.85,8.85,0,0,0-.5,1.84v5.67c0,.33-1.17,8.51-3.34,8-1.17-.17-3.67.5-6.51-.67a15.34,15.34,0,0,1-5-4C388.87,366.77,385.2,356.76,385.2,356.76Z"/><path class="cls-24" d="M407.72,293.7s6.67-10,8.34-12.68c3.34-5.34,4-9.51,5.51-14.35,1-3.17,2.67-14.68,2.67-14.68s2.5,16.35,5.34,19.19c4.67,4.34,8.84,3.17,14.35,4.17,3.34.5,1.33-.17,4.67.17,7,1,14.68,1.84,22.52,0s24.36-9.18,28.36-11.68c5-3.17,15.68-8.17,15.68-8.17L503.48,265s-9.34,9.84-11,11.18c-1.84,1.5-26,12.85-35.2,14-9,1.17-24,1.5-24,1.5Z"/><path class="cls-24" d="M362,293.7s-14.85-9.68-19.52-13.35c-2.17-1.67-6.17-5.84-7.17-8.51-.83-2.34,2.5-.67,4.84-.67a27.9,27.9,0,0,0,10.18-1.33c2.34-.67,4.34-5.34,5-8.17.67-2.67,4.17-2.17,6.51-3.67,1.84-1.17,6.51-.5,8.51,0,3,.83,8.67,2,11.68,2.67,3,.5,9.34.83,12.35,1.33,3.84.67,11,3.34,13.35,6.51,2,2.5,4.67,9.51,3.34,12.35-1.33,2.5-4.17,6.67-6.84,6.17-4-.83-10.34-8.51-14.35-9.34-2.17-.5-6.51,2-7.84,3.84-2.34,3-6.17,12-6.17,12S371.19,290,369,290,362,293.7,362,293.7Z"/><path class="cls-25" d="M272.76,171.25c1.67,2.34,3.67,3.67,5.51,3.84,1.84.33,6.51,0,8,0a10.85,10.85,0,0,0,5-1.84c1-1,3.17-6.34,2-6s-3.5-.83-3.5-.83l-17,2.34Z"/><path class="cls-26" d="M362.35,100.68s7.17,7.67,7.51,8.51S373,116,373.19,117s3,9.84,3,9.84,3.34,13.51,3.67,14.51,2.17,10.84,2.34,12.18,2,9.51,3.17,11.68,3.5,7.51,3.5,7.51-7.34-2.17-9.18-3.17-3.84-3.84-6.17-5.51-7.67-16.18-8.34-17.85-7-47.38-7-47.38Z"/><path class="cls-20" d="M340.49,82.83s10.84,4.84,14,7.67c1.84,1.67,5.51,5.34,6.67,7.51,1.33,2.5,2.67,8.17,3.34,10.84.67,3,1.84,9.34,2.34,12.35.33,2.5,1,7.67,1.33,10.34.5,4,2.34,15.51,2.34,16s2,8,2.67,10.68c.5,2,1.33,6.17,2,8.34.67,2.67,3.17,10.68,3.17,10.68s-8-3.67-10.34-5.17a33.4,33.4,0,0,1-6.51-6.34c-.83-1-4.5-5-5-6.17-3.67-7.51-7.51-28.86-7.51-28.86l-3.84-26Z"/><path class="cls-21" d="M315.47,68.15s9.68,4.17,12.85,5.84c2.84,1.5,9.18,3.84,11.34,6.17,3,3.34,5.51,12.18,6.67,16.52,1,3.67,3.17,11,3.5,14.68.5,3.84.5,11.84,1,15.68.17,1.84.67,5.34,1,7.17.5,3.67,1.17,11.34,2,15a87.55,87.55,0,0,0,3.67,11.18c.83,2.34,3.67,9,3.67,9s-10.68-7.51-11.51-8.17-11-9.34-14-13a42.55,42.55,0,0,1-5.84-10c-2.34-6.51-7-18.18-8.34-25-1.5-7.67-4.5-31.86-4.5-32.36S315.47,68.15,315.47,68.15Z"/><path class="cls-22" d="M286.77,62c-3.17,1.67-8.51,6.67-10.84,9.51a92,92,0,0,0-7.34,11.68c-1.17,2.17-3.84,6.67-4.34,9.18a14.36,14.36,0,0,0,0,5.34c.5,1.84,2.5,5.17,3.17,7.17a45.07,45.07,0,0,1,1.5,8c.17,2.17-.33,6.67-.17,8.84a116.27,116.27,0,0,0,1.17,15.18c.17,1.17,1,3.84.5,4.84s-1.67,2.67-2.17,3.5c-.67.83-1,2.5-1.5,3.5a20.7,20.7,0,0,0-1.5,6.34,10.27,10.27,0,0,0,1.17,3.84c.67,1,2,2.5,2.67,3.67.67,1.33.17,4.67.67,6.17.33,1,2,1.67,3,2.17,1.67.83,5.34.67,7.17.67a19.08,19.08,0,0,0,5.34,0c1.33-.33,3.84.67,4.84-.17a21.74,21.74,0,0,0,3.17-3.67c.67-1,1.84-3.17,2.5-4.17.67-.83,2.17-2.34,2.5-3.5.5-1.33,0-4.17,0-5.67a10.6,10.6,0,0,1,1-3c.83-1.67,3.34-3.5,4.67-4.84,1.33-1.5,2.67-5.67,3.84-7.34,1.5-2,5.84-4.67,7.34-6.67a42.12,42.12,0,0,0,5.67-11.68,62.15,62.15,0,0,0,1.5-11.18,83.85,83.85,0,0,0-1.17-13c-.67-2.67-2.5-8-3.5-10.51-1-2.67-3.5-7.84-4.34-10.51-.83-2.34-1-7.34-2.5-9.34A15,15,0,0,0,304.12,62a48.64,48.64,0,0,0-11-1.5C291.61,60.64,288.28,61.14,286.77,62Z"/><path class="cls-24" d="M299.12,149.22s2-8.67,3.17-10.84c.67-1.17.5-7.84,1.67-8.51s6.17-3,7.34-5.17,3.5-4.5,4-6.51,2-4.84,3-9,3.67-5.34,3.67-5.34.5,11.84.33,13.68-4.5,11.51-7.17,15.18c-1.5,2-7.34,6.67-7.34,6.67s-2.17,4.67-3,6a61.55,61.55,0,0,1-4.5,5.17l-1.17-1.33"/><path class="cls-24" d="M267.59,85.33s10.68-2.17,12-2.84c3.84-1.67,18.18-8,18.18-9.51s-3-6.51-3-6.51l-15.35,6.84-9.18,7.34Z"/><path class="cls-27" d="M268.26,145.22c-.67.83-1,2.5-1.5,3.5a20.7,20.7,0,0,0-1.5,6.34,10.27,10.27,0,0,0,1.17,3.84c.67,1,2,2.5,2.67,3.67.67,1.33.17,4.67.67,6.17.33,1,2,1.67,3,2.17a26.42,26.42,0,0,0,7.17,1.67,19.08,19.08,0,0,0,5.34,0c1.33-.33,3.84-.33,4.84-1.17s3.5-2.67,4.17-3.67,1.84-3.17,2.5-4.17a17.09,17.09,0,0,0,1.67-3.5,21.29,21.29,0,0,0,1-5.67,16.29,16.29,0,0,1,1-3.84c.17-.5-3.17-2.5-6.84-2.84-4-.33-11.34,4.5-13.85,1C277.1,145.05,268.42,144.89,268.26,145.22Z"/><path class="cls-24" d="M267.59,97.51s2.84.17,3.67,2.5a19.52,19.52,0,0,1,1,8.84c-.33,4-3.67,9.84-3.67,9.84a76.94,76.94,0,0,0-.17-8.34c-.33-2-2.17-8-2.17-8Z"/><path class="cls-24" d="M311.63,97a8.61,8.61,0,0,0-7.51,2.5c-1,1-.67,4.5,0,5.84s3,5.34,2.5,5.84,4.17-2.5,4.84-3.67,1.17-2.67,0-3.34c-1-.5-2.84-.83-4.34-1.5S311.63,97,311.63,97Z"/><path class="cls-28" d="M286.27,86.16a69.39,69.39,0,0,1-3.5,9.51c-2,4.17,0,9,1.67,17.85s5.34-.83,8.17-4.84-4.34-27.86-4.34-29.7C288.44,77.16,286.27,86.16,286.27,86.16Z"/><path class="cls-29" d="M275.43,170.75a7.72,7.72,0,0,0,2.17-3c.67-1,.17-2.84,1-3.67.67-.83.67-3.17,1.17-4,.67-1.17,0-7.17,2.17-7.84,2.17-.83,2.67,1,4.67,3.5a5.08,5.08,0,0,1,1,4.34s-1.33,1-1.33,4c0,2.17-.83,1.5,0,3.34.5,1.17,1.17,2.67,1.5,3.5.33.67,2.67.17,2.34.67-.67.83-6.17,1.33-8.17,1.33-1.84,0-6.34-.17-7.84-1.5C273.76,170.91,275.1,170.91,275.43,170.75Z"/><path class="cls-25" d="M270.59,148.39s-2.34,2.67-1.84,4c.5,1.5.83,4,1.84,5.17.83,1,4.5-1.5,3-2.5s-.5-4.84-.67-5.51a20.36,20.36,0,0,0-1.5-2.84Z"/><path class="cls-25" d="M293.11,150.39s2.34,2.67,1.84,4.17c-.67,1.67-.33,3.67-1.84,5.34-.83,1.17-4.5-1.5-3.17-2.5,1.5-1.17.5-5,.67-5.67a21.64,21.64,0,0,1,1.67-3Z"/><path class="cls-19" d="M310.13,75.15s-3.5-2.84-4.84-6c-1.17-3.17,1.5-11.34,1.5-11.34A85.34,85.34,0,0,0,311,50.13c.17-.5.5-4,1.5-4S315,48,315,48a59.6,59.6,0,0,1,4.34,7.17c.5.83,1.33,8.34.17,10.34s-2.67,6.84-4,8C314.3,74.82,310.13,75.15,310.13,75.15Z"/><path class="cls-19" d="M283.94,64.81c-5.17-5.17-6-8.84-7.84-11.68-1.5-2.34-2.17-6.67-3.5-6.84-1.17-.17-5.17,4.5-5.34,5.51-.5,2.5-.17,8.34,0,10.18a16.67,16.67,0,0,0,1,4.84c.17.67,5.67,8.51,6.34,7.67"/><path class="cls-30" d="M268.76,99.18c0,1.84,0,3.5-1.33,3.5s-2.5-1.67-3.34-3.5a7.77,7.77,0,0,1,0-3.5S268.76,97.34,268.76,99.18Z"/><ellipse class="cls-31" cx="265.42" cy="97.51" rx="1.17" ry="0.5"/><path class="cls-8" d="M306.13,102.51s-.5-3,1.5-4.34a8.23,8.23,0,0,1,4.84-.67s1,2.17,0,3.5C311.63,102.35,306.13,102.51,306.13,102.51Z"/><ellipse class="cls-31" cx="311.3" cy="98.51" rx="1.17" ry="0.5"/><path class="cls-26" d="M293.28,60.31s-6,.17-8.34,1.67-13.68,14.35-15.18,15.68c-1.33,1.33-6.84,6.67-6.84,6.67s13.68-4.5,15.18-5.17,11.18-4.5,14-7,7.84-8.84,7.34-10.51S293.28,60.31,293.28,60.31Z"/><path class="cls-20" d="M305.29,62l-4.84-.83a7.62,7.62,0,0,0-2.5.17s-4,4.5-3.34,7.51c1,4.17,15.51,14.51,18.52,16.68s7.17,5.34,7.17,5.34l-2.17-6.17S316,78.32,312.3,76c-1.5-1-7.34-9.68-7.51-9.68A38.37,38.37,0,0,1,305.29,62Z"/></g></svg>