<?xml version="1.0" encoding="utf-8"?>
<!-- Generator: Adobe Illustrator 18.0.0, SVG Export Plug-In . SVG Version: 6.00 Build 0)  -->
<!DOCTYPE svg PUBLIC "-//W3C//DTD SVG 1.1//EN" "http://www.w3.org/Graphics/SVG/1.1/DTD/svg11.dtd">
<svg version="1.1" id="Layer_1" xmlns="http://www.w3.org/2000/svg" xmlns:xlink="http://www.w3.org/1999/xlink" x="0px" y="0px"
	 viewBox="0 0 402.3 273" enable-background="new 0 0 402.3 273" xml:space="preserve">
<path fill="none" stroke="#000000" stroke-width="2.0137" stroke-miterlimit="10" d="M106.6,169.9c-2.3-2.9-4.8-5.5-7.6-7.7
	c-17-13.7-41.9-14.4-59.8-0.3C28,170.7,21.8,183.6,21,196.8"/>
<path fill="none" stroke="#535355" stroke-width="3.9928" stroke-miterlimit="10" d="M97.9,232.8C78.1,250,48,246.5,32.8,225.1
	c-13-18.3-9.9-43.9,7-58.6c19.7-17.2,49.9-13.7,65.1,7.7C117.8,192.5,114.8,218,97.9,232.8z"/>
<path fill="none" stroke="#535355" stroke-width="1.2082" stroke-miterlimit="10" d="M95,229.5c-17.8,15.5-45,12.3-58.7-7
	c-11.7-16.5-9-39.6,6.3-52.9c17.8-15.5,45-12.3,58.7,7C113,193.2,110.3,216.2,95,229.5z"/>
<g>
	<path fill="none" stroke="#535355" stroke-width="0.6041" stroke-miterlimit="10" d="M35.6,221.9"/>
	<path fill="none" stroke="#535355" stroke-width="0.6041" stroke-miterlimit="10" d="M67.5,201.7"/>
	<path fill="none" stroke="#535355" stroke-width="0.6041" stroke-miterlimit="10" d="M32.3,214.5"/>
	<polyline fill="none" stroke="#535355" stroke-width="0.6041" stroke-miterlimit="10" points="28.6,201.5 66.9,197.5 29.8,209.2 	
		"/>
	<polyline fill="none" stroke="#535355" stroke-width="0.6041" stroke-miterlimit="10" points="28.7,196 67.5,201.7 30,188.9 	"/>
	<line fill="none" stroke="#535355" stroke-width="0.6041" stroke-miterlimit="10" x1="32.3" y1="182.5" x2="65.7" y2="196"/>
	<line fill="none" stroke="#535355" stroke-width="0.6041" stroke-miterlimit="10" x1="36.3" y1="175.9" x2="66.9" y2="197.5"/>
	<polyline fill="none" stroke="#535355" stroke-width="0.6041" stroke-miterlimit="10" points="40.7,172.5 65.7,201.4 46.6,166.1 	
		"/>
	<polyline fill="none" stroke="#535355" stroke-width="0.6041" stroke-miterlimit="10" points="51.7,164 70.3,199.9 59,161.5 	"/>
	<polyline fill="none" stroke="#535355" stroke-width="0.6041" stroke-miterlimit="10" points="64.4,159.8 64.6,199.3 71,159.7 	"/>
	<polyline fill="none" stroke="#535355" stroke-width="0.6041" stroke-miterlimit="10" points="77.7,160.8 69.3,195.7 85.2,163.4 	
		"/>
	<polyline fill="none" stroke="#535355" stroke-width="0.6041" stroke-miterlimit="10" points="90.8,166.6 69.3,195.7 97.1,171.9 	
		"/>
	<path fill="none" stroke="#535355" stroke-width="0.6041" stroke-miterlimit="10" d="M104.5,182.9"/>
	<path fill="none" stroke="#535355" stroke-width="0.6041" stroke-miterlimit="10" d="M67.5,201.7"/>
	<path fill="none" stroke="#535355" stroke-width="0.6041" stroke-miterlimit="10" d="M100.9,176.5"/>
</g>
<g>
	<polyline fill="none" stroke="#535355" stroke-width="0.6041" stroke-miterlimit="10" points="105.1,184.5 69.9,197.3 101.9,177.1 
			"/>
	<polyline fill="none" stroke="#535355" stroke-width="0.6041" stroke-miterlimit="10" points="108.8,197.5 70.5,201.5 107.6,189.9 
			"/>
	<polyline fill="none" stroke="#535355" stroke-width="0.6041" stroke-miterlimit="10" points="108.7,203.1 69.9,197.3 107.4,210.2 
			"/>
	<line fill="none" stroke="#535355" stroke-width="0.6041" stroke-miterlimit="10" x1="105.1" y1="216.5" x2="71.7" y2="203"/>
	<line fill="none" stroke="#535355" stroke-width="0.6041" stroke-miterlimit="10" x1="101.1" y1="223.1" x2="70.5" y2="201.5"/>
	<polyline fill="none" stroke="#535355" stroke-width="0.6041" stroke-miterlimit="10" points="96.7,226.5 71.7,197.6 90.8,232.9 	
		"/>
	<polyline fill="none" stroke="#535355" stroke-width="0.6041" stroke-miterlimit="10" points="85.7,235 67.1,199.1 78.2,237.1 	"/>
	<polyline fill="none" stroke="#535355" stroke-width="0.6041" stroke-miterlimit="10" points="73,239.2 72.8,199.7 66.4,239.3 	"/>
	<polyline fill="none" stroke="#535355" stroke-width="0.6041" stroke-miterlimit="10" points="59.7,238.3 68.1,203.3 52.2,235.6 	
		"/>
	<polyline fill="none" stroke="#535355" stroke-width="0.6041" stroke-miterlimit="10" points="46.7,232.4 68.1,203.3 40.3,227.1 	
		"/>
	<polyline fill="none" stroke="#535355" stroke-width="0.6041" stroke-miterlimit="10" points="36.5,222.5 69.9,197.3 32.9,216.2 	
		"/>
</g>
<path fill="#535355" d="M73.2,202.4c-2.3,2.5-6.3,2-8-0.9c-1-1.8-0.8-4.2,0.7-5.8c2.3-2.5,6.3-2,8,0.9
	C74.9,198.5,74.7,200.9,73.2,202.4z"/>
<path fill="#F41C3B" d="M25.8,175.3L25.8,175.3c-0.6,0-1.1-0.5-1.1-1.1v-3.6c0-0.6,0.5-1.1,1.1-1.1h0c0.6,0,1.1,0.5,1.1,1.1v3.6
	C26.9,174.8,26.4,175.3,25.8,175.3z"/>
<path d="M32.3,168.9h-4.4c-1.1,0-2.1,0.9-2.1,2.1v5.3L32.3,168.9z"/>
<path fill="#C1BC00" d="M194,121.4L194,121.4c-0.6-0.1-1-0.7-0.9-1.3l0.8-4.4c0.1-0.6,0.7-1,1.3-0.9l0,0c0.6,0.1,1,0.7,0.9,1.3
	l-0.8,4.4C195.2,121.1,194.6,121.5,194,121.4z"/>
<path d="M61.4,197.5c0,0,1.5-4.7,11.7-4.5s67.4,4.5,67.4,4.5s17.3,1.8,14.4,15.5c-2.9,13.7-14.4,11.9-14.4,11.9l-69-15.9
	C71.4,208.9,61,208.5,61.4,197.5z"/>
<path fill="#A7A9AD" d="M183.7,128.2c0,0,0.5-7.8,4.8-7.6c0,0-3.8-0.3-3.8-3.2c0-4.6,9.8-3.7,9.8-3.7l-1.2,8.3c0,0-6.5-1.6-8.1,6.9
	C183.7,130.3,183.7,128.2,183.7,128.2z"/>
<g>
	<path fill="#1C1C1C" d="M127.9,201.1c0,0,1-0.2,2.6-0.3c1.7-0.1,4.1-0.2,7,0c1.5,0.1,3,0.3,4.7,0.7c1.6,0.4,3.3,0.9,5,1.8
		c1.6,0.8,3.2,2.1,4.4,3.7c1.2,1.6,1.8,3.6,1.9,5.6l0,0.7c0,0.3,0,0.5,0,0.8c0,0.2,0,0.5-0.1,0.7l-0.2,0.8c-0.1,0.5-0.3,1-0.5,1.4
		c-0.2,0.5-0.5,0.9-0.7,1.3c-1.2,1.6-2.9,2.7-4.7,3.3c-1.8,0.6-3.6,0.7-5.2,0.8c-0.8,0-1.7,0-2.4,0c-0.8-0.1-1.5-0.1-2.3-0.2
		c-1.4-0.2-2.8-0.4-3.9-0.6c-1.2-0.3-2.2-0.4-3-0.7c-1.6-0.4-2.6-0.7-2.6-0.7s0.9,0.2,2.6,0.5c0.8,0.2,1.8,0.3,3,0.5
		c0.6,0.1,1.2,0.2,1.9,0.3c0.7,0.1,1.3,0.2,2.1,0.2c0.7,0,1.5,0.1,2.2,0.1c0.8,0,1.6,0,2.4,0c1.6-0.1,3.4-0.3,5-0.9
		c1.7-0.6,3.3-1.5,4.3-3c1-1.5,1.4-3.4,1.2-5.3c-0.1-1.9-0.6-3.7-1.7-5.2c-1-1.5-2.5-2.7-4.1-3.5c-3.2-1.7-6.5-2.3-9.4-2.6
		c-2.9-0.3-5.3-0.4-7-0.3C128.8,201,127.9,201.1,127.9,201.1z"/>
</g>
<path fill="#535355" d="M157.1,223.7l-15.5-12.2c-0.8-0.6-0.9-1.7-0.3-2.5h0c0.6-0.8,1.7-0.9,2.5-0.3l15.5,12.2
	c0.8,0.6,0.9,1.7,0.3,2.5l0,0C159,224.2,157.9,224.3,157.1,223.7z"/>
<path fill="#A7A9AD" d="M164.6,226.9h-14.5c-1.6,0-2.8-1.3-2.8-2.8v0c0-1.6,1.3-2.8,2.8-2.8h14.5c1.6,0,2.8,1.3,2.8,2.8v0
	C167.4,225.6,166.2,226.9,164.6,226.9z"/>
<path d="M159.8,223.4c0.5,1.9-1.2,3.5-3.1,3.1c-0.9-0.2-1.6-0.9-1.8-1.8c-0.5-1.9,1.2-3.5,3.1-3.1
	C158.9,221.8,159.6,222.5,159.8,223.4z"/>
<path fill="none" stroke="#000000" stroke-width="2.0137" stroke-miterlimit="10" d="M229.4,153.3c-2.7-0.5-5.6-0.7-8.5-0.7
	c-26.5,0-48,21.5-48,48c0,14.3,6.3,27.1,16.2,35.9"/>
<path fill="none" stroke="#535355" stroke-width="3.9928" stroke-miterlimit="10" d="M265,198.3c1.3,26.2-20.2,47.7-46.3,46.3
	c-22.4-1.1-40.6-19.3-41.8-41.8c-1.3-26.2,20.2-47.7,46.3-46.3C245.6,157.7,263.8,175.9,265,198.3z"/>
<path fill="none" stroke="#535355" stroke-width="1.2082" stroke-miterlimit="10" d="M260.6,198.5c1.2,23.6-18.2,43-41.8,41.8
	c-20.2-1-36.6-17.4-37.6-37.6c-1.2-23.6,18.2-43,41.8-41.8C243.2,161.9,259.6,178.3,260.6,198.5z"/>
<g>
	<path fill="none" stroke="#535355" stroke-width="0.6041" stroke-miterlimit="10" d="M217.8,240.5"/>
	<path fill="none" stroke="#535355" stroke-width="0.6041" stroke-miterlimit="10" d="M221.7,202.9"/>
	<path fill="none" stroke="#535355" stroke-width="0.6041" stroke-miterlimit="10" d="M210,238.5"/>
	<polyline fill="none" stroke="#535355" stroke-width="0.6041" stroke-miterlimit="10" points="197.5,233.3 218.1,200.8 
		204.2,237.2 	"/>
	<polyline fill="none" stroke="#535355" stroke-width="0.6041" stroke-miterlimit="10" points="193.2,229.8 221.7,202.9 
		188.4,224.4 	"/>
	<line fill="none" stroke="#535355" stroke-width="0.6041" stroke-miterlimit="10" x1="184.9" y1="218.6" x2="216.1" y2="200.8"/>
	<line fill="none" stroke="#535355" stroke-width="0.6041" stroke-miterlimit="10" x1="182.1" y1="211.5" x2="218.1" y2="200.8"/>
	<polyline fill="none" stroke="#535355" stroke-width="0.6041" stroke-miterlimit="10" points="182.2,205.9 220.4,204.2 
		180.8,197.3 	"/>
	<polyline fill="none" stroke="#535355" stroke-width="0.6041" stroke-miterlimit="10" points="182.4,192 222.1,199.7 184.9,184.7 	
		"/>
	<polyline fill="none" stroke="#535355" stroke-width="0.6041" stroke-miterlimit="10" points="186.9,179.5 218,203.7 191,174.2 	
		"/>
	<polyline fill="none" stroke="#535355" stroke-width="0.6041" stroke-miterlimit="10" points="195.9,169.6 218.1,197.8 
		202.6,165.3 	"/>
	<polyline fill="none" stroke="#535355" stroke-width="0.6041" stroke-miterlimit="10" points="208.5,162.9 218.1,197.8 
		216.7,161.3 	"/>
	<path fill="none" stroke="#535355" stroke-width="0.6041" stroke-miterlimit="10" d="M229.8,162.2"/>
	<path fill="none" stroke="#535355" stroke-width="0.6041" stroke-miterlimit="10" d="M221.7,202.9"/>
	<path fill="none" stroke="#535355" stroke-width="0.6041" stroke-miterlimit="10" d="M222.6,161.1"/>
</g>
<g>
	<polyline fill="none" stroke="#535355" stroke-width="0.6041" stroke-miterlimit="10" points="231.5,162.7 219.8,198.3 
		223.7,160.7 	"/>
	<polyline fill="none" stroke="#535355" stroke-width="0.6041" stroke-miterlimit="10" points="244,167.9 223.4,200.4 237.3,164.1 	
		"/>
	<polyline fill="none" stroke="#535355" stroke-width="0.6041" stroke-miterlimit="10" points="248.3,171.4 219.8,198.3 
		253.1,176.8 	"/>
	<line fill="none" stroke="#535355" stroke-width="0.6041" stroke-miterlimit="10" x1="256.6" y1="182.6" x2="225.4" y2="200.4"/>
	<line fill="none" stroke="#535355" stroke-width="0.6041" stroke-miterlimit="10" x1="259.4" y1="189.8" x2="223.4" y2="200.4"/>
	<polyline fill="none" stroke="#535355" stroke-width="0.6041" stroke-miterlimit="10" points="259.3,195.3 221.1,197.1 
		260.7,203.9 	"/>
	<polyline fill="none" stroke="#535355" stroke-width="0.6041" stroke-miterlimit="10" points="259.1,209.2 219.4,201.6 
		256.2,216.5 	"/>
	<polyline fill="none" stroke="#535355" stroke-width="0.6041" stroke-miterlimit="10" points="254.6,221.8 223.4,197.5 250.5,227 	
		"/>
	<polyline fill="none" stroke="#535355" stroke-width="0.6041" stroke-miterlimit="10" points="245.6,231.6 223.4,203.4 
		238.9,235.9 	"/>
	<polyline fill="none" stroke="#535355" stroke-width="0.6041" stroke-miterlimit="10" points="233,238.3 223.4,203.4 224.8,240 	
		"/>
	<polyline fill="none" stroke="#535355" stroke-width="0.6041" stroke-miterlimit="10" points="218.9,240.1 219.8,198.3 211.7,239 	
		"/>
</g>
<path fill="#535355" d="M225.8,198.9c0.5,3.4-2.3,6.2-5.7,5.7c-2.1-0.3-3.8-2-4.1-4.1c-0.5-3.4,2.3-6.2,5.7-5.7
	C223.8,195.1,225.5,196.8,225.8,198.9z"/>
<polygon fill="#535355" points="107.7,151.4 101.3,139.2 97.7,139.2 97.7,135.3 93.3,135.3 93.3,142 99.5,142.5 105,154.3 "/>
<polygon fill="#535355" points="190.3,155.6 206.5,188.8 219.3,201.8 220.3,199.3 209.2,187 193.3,154.3 "/>
<polygon fill="#535355" points="180.4,130.1 184.7,128.8 176.8,112.6 180.7,109.4 180.7,100.9 176.8,102.5 176.8,107.6 172.5,111.2 
	"/>
<path d="M55.2,153.2l20.9,35.6L67.8,200l0,0c0.2,1,1.1,1.8,2.2,1.8h0.3l9.7-11.5l36,3.2c0,0-1.4-17.6-12.2-28.4l4-4.3l-1.4-2.5
	l-4.7,4.9C101.7,163.2,85.5,145.7,55.2,153.2z"/>
<path d="M63.9,195.3H66l-19.8-40.6v-6.8l39.4,2.6c0,0,14.2,7.9,18.9,6.1c5.3,6.3,18.7,40.6,18.7,40.6h5.8l-17.3-39.2l69.8-21.9
	l5.8,15.4l-41,48.3l4.3,4l38.5-47.5l6.1-1.4l-10.4-25.9l-5.8,1.8v2.2l-69,21.9l-2.2-3.3l-4.7,1.9c0,0-9-0.4-17.4-5.4
	c-7.4-0.4-51.6-3.6-51.6-3.6v3.2l9.3,0.7l0.4,6.8L63.9,195.3z"/>
<path d="M176.8,102.5c0,0-16.3-1.1-26.3,1.8v-4.7c0,0,11.6-1.8,13.4-2.9c1.8-1.1,5.4-4,8.6-4c3.2,0,3.2,0,3.2,0s2.9,5.8,6.8,7.9
	C182.5,102.5,176.8,102.5,176.8,102.5z"/>
<path fill="none" stroke="#333333" stroke-width="1.2082" stroke-miterlimit="10" d="M182.5,100.7c0,0,16.7,0,19.8,10.1
	c4.7,15.1-4.7,38.4-6.9,48.7"/>
<path fill="none" stroke="#333333" stroke-width="1.2082" stroke-miterlimit="10" d="M180.7,104.3c0,0,33.2,2.5,25,24.5
	c-6,16-13.5,18.6-13.5,18.6"/>
<path fill="none" stroke="#333333" stroke-width="0.6041" stroke-miterlimit="10" d="M103.4,134.3c0,0,2.6,3.8-13.3,4.9"/>
<ellipse fill="none" stroke="#333333" stroke-width="0.5425" stroke-miterlimit="10" cx="86.5" cy="134.3" rx="3.6" ry="1.6"/>
<ellipse fill="none" stroke="#333333" stroke-width="0.5425" stroke-miterlimit="10" cx="86.5" cy="136.7" rx="3.6" ry="1.6"/>
<ellipse fill="none" stroke="#333333" stroke-width="0.5425" stroke-miterlimit="10" cx="86.5" cy="139.2" rx="3.6" ry="1.6"/>
<path fill="#9E562E" d="M82.6,133.8l11.5,1.4h3.6c0,0,14.7-2,18.3-5.1c3.6-3.1-3.6-4.2-3.6-4.2H82.6
	C82.6,125.9,80.1,128.1,82.6,133.8z"/>
<path fill="#1C1C1C" d="M71.7,200c0.4,1.6-1,3-2.6,2.6c-0.8-0.2-1.4-0.8-1.6-1.6c-0.4-1.6,1-3,2.6-2.6
	C70.8,198.7,71.5,199.3,71.7,200z"/>
<path fill="#1C1C1C" d="M223,199.1c0.4,1.6-1,3-2.6,2.6c-0.8-0.2-1.4-0.8-1.6-1.6c-0.4-1.6,1-3,2.6-2.6
	C222.2,197.8,222.8,198.4,223,199.1z"/>
<g>
	<path fill="#1C1C1C" d="M59.9,156.7c0,0,1.1-0.2,2.9-0.4c1.9-0.2,4.6-0.4,7.8-0.4c3.2,0,7,0.2,11.1,0.9c2,0.4,4.1,0.9,6.1,1.6
		c2,0.7,4,1.7,5.8,3c3.5,2.6,6.3,6,8.6,9.4c2.2,3.4,3.9,6.9,5.1,9.9c1.2,3,2,5.6,2.5,7.4c0.2,0.9,0.4,1.6,0.5,2.1
		c0.1,0.5,0.2,0.8,0.2,0.6c0,0.2-0.1-0.1-0.2-0.6c-0.1-0.5-0.4-1.2-0.6-2.1c-0.6-1.8-1.4-4.3-2.7-7.3c-1.3-3-3-6.3-5.2-9.6
		c-2.2-3.3-5.1-6.6-8.5-9.2c-3.4-2.5-7.6-3.8-11.5-4.6c-3.9-0.7-7.7-1-10.9-1.1c-3.2-0.1-5.9,0-7.8,0.1
		C61,156.6,59.9,156.7,59.9,156.7z"/>
</g>
<path fill="#341E0E" d="M314.6,150.4c0,0,5.8,12.2,7.5,15.7s3.8,8.1,5.8,11c2,2.9,7.5,11,8.1,13.1c0.6,2,10.5,44.1,10.7,45
	c0.6,1.8,0.6,0.6,1.5,2.6c0.9,2-0.3,3.2-1.8,4.9c-1.5,1.7,0.4,5.4,2.8,5.5c1.8,0.1,3.6-0.2,4.2-0.5c2.1-1,1.4-3.2,1.1-4.5
	c-0.5-2.6,0.7-2.5,1.2-3.4c0.5-0.9,1.5-2.9,0.7-3.6s-3.5-9.4-3.6-10.7c-0.1-1.4-1.1-8.1-1.1-9.4c0-1.3-1.5-23.6-1.5-23.6
	s-0.3-1.7,0.4-3.5c0.7-1.7,2.2-2.7,1.8-4.5c-0.4-1.8-1.7-6.2-1.5-6.8c0.2-0.6,1.3-22.5,2-22.5c0.8,0-15.7-24.2-15.7-24.2
	L314.6,150.4z"/>
<path fill="#B1874D" d="M353,79.2c0,0,9.7,1.4,13.2,4.8c3.5,3.3,16.3,26.4,16.8,35.8c0.5,9,6.7,44.2,8.4,47.8s0.3,29.4,3.2,37.8
	s-5.8-7.3-6.7-8.8c-0.9-1.5-0.3,10.1,0.6,11.3c0.9,1.2-2.7-3.4-4.4-7.6c-1.5-3.7-3.2-7.6-4.9-14.1c-1.7-6.5-0.6,9.3-1.7,8.9
	c-1.2-0.4-4.4-11.8-5.2-15.8s-1.2-17.5-2-23.3c-0.5-3.4-1.8-33.8-3.8-40.7c-2-6.9-5.2-20.6-7.8-24.9C356.5,86.7,353,79.2,353,79.2z"
	/>
<path fill="#A57D49" d="M366.2,83.9c3.5,3.3,16.3,26.4,16.8,35.8c0.5,9,6.7,44.2,8.4,47.8s0.3,29.4,3.2,37.8s-5.8-7.3-6.7-8.8
	c-0.9-1.5-0.3,10.1,0.6,11.3c0.9,1.2-2.7-3.4-4.4-7.6c-1.5-3.7-3.2-7.6-4.9-14.1c-1.7-6.5-1.7-24.4-2.5-30.1
	c-0.2-1.1,3.5-16.6,1.6-27.4C374.5,106.5,363.9,81.7,366.2,83.9z"/>
<path fill="#523212" d="M210.6,26.5c0.4,1,5.7,5.8,6.8,6.2c1.2,0.4,4.3,1.4,6.8,2.9s3.9,3.7,4.8,4.8c1,1.2,6.8,5.8,7.3,7.2
	c0.6,1.4,5,8.5,5.4,10.4c0.4,1.9,6.4,8.7,7.7,9.5c1.4,0.8,14.7,7,14.7,7s8.1,4.1,9.1,4.6c1,0.6,10.8,0.6,13,0s20.1-5.8,20.1-5.8
	s17.6-2.7,22.8-2.5c1.7,0.1,15.7-1.4,24.9,9.7c9.3,11,10.1,13,12.2,17.4c0.9,1.9,5.6,7.3,3.5,19.9c-2.1,12.6-4.6,13.8-6.8,20.1
	c-1.8,5.3-8.9,20.9-9.5,21.5c-0.6,0.6-2.5,19.5-3.1,20.3c-0.6,0.8-0.8,9.3-0.8,9.3l-1.7,10.2c0,0-1.5,7.3-1.5,10.6
	c0,3.3-1.2,8.7-1.2,12s-0.8,12.6,0,13.5c0.4,0.5-3.5,2.8-2.9,6.4c0.3,1.8,0.5,2.8,0,3.5c-0.4,0.7-2.5,0.9-3.7,0.9
	c-1.2,0-5.9-2.2-5.9-3.4c0-1.2,3.4-3.6,3.4-3.6s1.5-2.3,1.5-3.9c0-1.5,0.4-9.3,0.4-9.3s0.4-9.9-0.8-14.9c-0.2-0.8,0.6-12.4,0.6-12.4
	s0-36.6-1-36.4c-1,0.2-2-23.7-5.2-23.7s-10.8,11.7-20,15.7c-8.9,3.9-14.6,5.4-21.2,5.7s-22.3,1.5-22.3,1.5s-0.6,8.3-0.9,11.6
	c-0.3,3.3-0.6,10.9-0.4,11.5c0.1,0.6-0.1,9.4-0.1,9.7s-0.6,4.8-0.9,5.2c-0.3,0.4-0.1,5.8,0.3,8c0.4,2.2,3.1,19,3,18.6
	c0.2,1,1.1,8.6,1.2,9c0.1,2.1-0.6,4.5-0.9,4.4c-0.3-0.1-1.9,1.3-2.5,3c-0.6,1.7,0.7,2.9,0.7,3.7c0,0.8-0.9,2.7-1.6,2.9
	c-2.8,1-10.6,1.1-10.9,0.4c-0.3-0.7,2-4.5,2.6-5.1c0.6-0.6,2-2,2.3-3.2c0.3-1.2,0.7-2.2,0.9-4.8c0.1-2.6,0.1-8.1,0-9.3
	s-1.2-17.5-2-17.8s-4.4-9.9-4.5-10.9c-0.1-1-0.3-9.9-0.6-10.3c-0.3-0.4-2.8-24.2-3.8-25.4c-1-1.2-2.2-3.8-4.8-3.8
	c-2.6,0-5.1,2.2-5.1,3.5s1.5,23.5,1.5,23.5s1.5,13.5,0.9,14.5c-0.6,1,0.9,23.6,1.3,24.8c0.4,1.2,0.6,11-0.4,11.6
	c-2.5,1.5-1.3,7.3-1.3,7.3s0.6,2.2-0.7,3.2c-1.1,0.9-7,1.7-9.6,1.3c-2.6-0.4-2.3-0.6-2-1.7c0.3-1.2,0.6-2.8,2.9-5.1
	c2.9-2.8,2.5-4.2,2.6-5.5s-0.6-9-0.6-10.9s0.1-16.8-0.9-17.5c-1-0.7-2.9-12.8-2.6-13.8c1-3.5-3.2-18.1-3.8-18.4
	c-0.6-0.3-6.7-17.7-5.9-19.3c0.7-1.5-4.8-8.4-4.8-8.4s-6.1-11.6-7.5-14.8c-1.5-3.2,0.3-29.6-1-30.3c-1.3-0.7-5.4-21.3-5.6-20.9
	C202.5,82.3,210.6,26.5,210.6,26.5z"/>
<path fill="#4D4D4D" d="M343.5,248.1c0,0,2.4-5.9,2.9-5.5s2.6,1.3,3,1.3s2.4,1,2.9,1.5c0.5,0.5,2.2,1.4,2.2,1.4s-0.4,0.9-3.8,1.9
	c-0.4,0.1-2.2,0.5-4.1,0.2C345.9,248.7,343.5,248.1,343.5,248.1z"/>
<path fill="#4D4D4D" d="M330.6,247c0,0,2.8-6.4,3.4-5.9c0.6,0.5,2.6,1.4,2.9,1.4s2.6,1.1,3.2,1.6c0.5,0.5,2.3,1.2,2.3,1.2
	s-0.4,1.3-4,2.4c-0.4,0.1-2.4,0.6-4.4,0.2C333.1,247.7,330.6,247,330.6,247z"/>
<path fill="#4D4D4D" d="M254.7,250c0,0,2.9-6.4,3.5-6c0.6,0.5,2.7,1.3,3.1,1.3s2.7,1.1,3.3,1.6c0.6,0.5,2.4,1.4,2.4,1.4
	s-0.4,1.2-4.2,2.4c-0.4,0.1-2.5,0.6-4.6,0.2C257.4,250.7,254.7,250,254.7,250z"/>
<path fill="#4D4D4D" d="M228.4,249c0,0,3-7,3.6-6.5c0.6,0.5,3,1.5,3.4,1.5c0.4,0,2.9,1.2,3.5,1.7s2.7,1.4,2.7,1.4s-0.6,1.4-4.6,2.6
	c-0.4,0.1-2.7,0.6-4.9,0.2C231.3,249.8,228.4,249,228.4,249z"/>
<path fill="#40230E" d="M210.6,113c-2,2.3,4.9,12.6,5.6,15.6c0.3,1.1,0.3,3.5,0,4.6c-0.5,1.8-3.6,6.6-3.6,6.6l4.2,8.1
	c0,0,2.6-6.3,4.9-8.1c1.8-1.4,6.4-0.4,8.7,0c2.9,0.5,5.9,5.7,8.7,6.5c3.5,0.9,14.8-0.8,16-4.2c2.1-6.4-15.8-15-21.7-18.2
	c-2.3-1.3-3.1-3-4.4-5.2c-0.7-1.3,3.2-16.1,1.8-16.7c-2.1-0.9-11.2,15.1-13.4,15.3C216,117.4,211.6,111.9,210.6,113z"/>
<path fill="#341E0E" d="M203.2,83.6c0.6,5,5,18.9,5,18.9s1.1,12.2,3.4,14.5c2.4,2.3,5.8,2.3,8.7,0c2.9-2.3,11-11.6,11-14.5
	c0-2.9,1.2-18,0-18.6s-0.6-7-2.9-12.8c-2.3-5.8-10.3-13.5-12.4-15.2C214,54.3,202.3,76.4,203.2,83.6z"/>
<path fill="#40230E" d="M331.7,138.8c0,0,4.4-6.2,5.4-7.9c1.4-2.5,1.6-10.9,1.6-10.9l-1.7-15.7c0,0,5,21.3,5.2,24.9
	c0.1,1.9,1,5.7,1.7,7.4c0.9,2.4,1.3,6.4,2.8,8.4c1,1.3,3.2,3.9,3.7,5.5c0.5,1.8-0.5,5.8,0,7.6c0.3,1.2,2.3,5.6-3.9,5.4
	s-7.7-2.1-8.1-5.6c-0.4-3.5-1.7-8.8-2.6-9.1C334.8,148.7,331.7,138.8,331.7,138.8z"/>
<path fill="#40230E" d="M349,193.3c0,0-3.1,1.1-4.4,1.4s-4.6,0-4.6,0s0.5,5.9,0,5.5c-0.5-0.4,6.4,8.8,6.6,7.6S349,193.3,349,193.3z"
	/>
<path fill="#40230E" d="M231.6,197.3c0,0,0.9,1.8,3.8,1.8s7.3-2.2,7.3-2.2s0.1,3,0,3.2c-0.1,0.3-0.2,0.4-0.2,1c0,0.6-0.1,5.6-1,6.2
	c-0.9,0.6-5.3,0.5-5.6,0.3c-0.3-0.1-3.1-2.7-3.2-3.4C232.7,203.7,231.6,197.3,231.6,197.3z"/>
<path fill="#40230E" d="M254.7,198.7c2.2,1.2,4.5,1.5,5.3,1.4s6.1-1.2,6.1-1.4c0-0.2-0.3,1-0.3,1.1c0,0.1,0,3.2,0,3.4s-0.7,5-2,4.8
	c-0.7-0.1-2.2,0.3-3.8-0.4c-1.3-0.5-2.9-2.2-3-2.4C256.8,204.7,254.7,198.7,254.7,198.7z"/>
<path fill="#331608" d="M282.6,208.8"/>
<path fill="#40230E" d="M268,161.3c0,0,4-5.9,5-7.5c1.9-3.2,2.4-5.6,3.2-8.5c0.6-1.8,1.6-8.7,1.6-8.7s1.5,9.7,3.2,11.3
	c2.8,2.6,5.2,1.9,8.6,2.5c2,0.3,0.7-0.1,2.8,0.1c4.2,0.6,8.7,1.1,13.3,0c4.6-1.1,14.4-5.4,16.8-6.9c3-1.9,9.3-4.8,9.3-4.8l-6.9,5.5
	c0,0-5.6,5.9-6.5,6.6c-1.1,0.8-15.5,7.6-20.9,8.3c-5.4,0.7-14.2,0.9-14.2,0.9L268,161.3z"/>
<path fill="#40230E" d="M240.8,161.3c0,0-8.8-5.7-11.6-7.9c-1.3-1-3.7-3.5-4.3-5c-0.5-1.4,1.5-0.4,2.9-0.4c2.8,0,3.6-0.1,6.1-0.8
	c1.4-0.4,2.6-3.2,3-4.8c0.4-1.5,2.5-1.3,3.9-2.1c1.1-0.7,3.8-0.3,5,0c1.8,0.5,5.1,1.2,7,1.5c1.8,0.3,5.5,0.5,7.3,0.8
	c2.3,0.3,6.5,2,7.9,3.9c1.2,1.5,2.8,5.7,1.9,7.3c-0.8,1.5-2.4,4-4.1,3.7c-2.3-0.5-6.2-5-8.5-5.5c-1.3-0.3-3.8,1.2-4.6,2.2
	c-1.4,1.8-3.7,7.1-3.7,7.1s-2.8-2.1-4.1-2.1C243.7,159.1,240.8,161.3,240.8,161.3z"/>
<path fill="#1F120D" d="M188,88.7c1,1.4,2.1,2.1,3.2,2.3s3.8,0,4.7,0c0.6,0,2.3-0.5,3-1.1c0.6-0.6,1.9-3.8,1.2-3.6
	c-0.7,0.2-2-0.5-2-0.5L188,87.1V88.7z"/>
<path fill="#B7925E" d="M241,46.8c0,0,4.3,4.5,4.4,5c0.2,0.5,1.8,4.1,1.9,4.6c0.1,0.6,1.8,5.8,1.8,5.8s2,8,2.1,8.6s1.3,6.4,1.4,7.2
	c0.1,0.8,1.2,5.6,1.9,6.9c0.7,1.3,2,4.4,2,4.4s-4.4-1.3-5.4-1.8c-1.1-0.6-2.3-2.3-3.7-3.3c-1.4-1-4.5-9.6-4.9-10.5
	s-4.2-28.1-4.2-28.1L241,46.8z"/>
<path fill="#B1874D" d="M228.1,36.2c0,0,6.4,2.8,8.3,4.5c1.1,1,3.3,3.1,4,4.4c0.8,1.5,1.6,4.8,1.9,6.5c0.4,1.8,1.1,5.5,1.4,7.3
	c0.2,1.5,0.6,4.6,0.8,6.1c0.3,2.4,1.4,9.2,1.4,9.5c0,0.3,1.2,4.7,1.5,6.3c0.3,1.2,0.8,3.7,1.2,4.9c0.4,1.6,1.8,6.3,1.8,6.3
	s-4.8-2.2-6.1-3.1c-1.2-0.8-3-2.6-3.9-3.8c-0.5-0.6-2.7-3-3-3.7c-2.2-4.4-4.4-17.1-4.4-17.1l-2.3-15.5L228.1,36.2z"/>
<path fill="#A57D49" d="M213.2,27.6c0,0,5.7,2.5,7.6,3.4c1.7,0.9,5.5,2.2,6.8,3.7c1.8,2,3.3,7.3,4,9.8c0.6,2.2,1.9,6.5,2.1,8.7
	c0.3,2.3,0.3,7,0.6,9.3c0.1,1.1,0.4,3.2,0.6,4.3c0.3,2.2,0.7,6.7,1.2,8.9c0.4,1.7,1.5,5,2.1,6.7c0.5,1.3,2.2,5.3,2.2,5.3
	s-6.4-4.4-6.8-4.8c-0.5-0.4-6.6-5.5-8.3-7.7c-1.1-1.3-2.9-4.3-3.5-5.9c-1.4-3.8-4.1-10.8-4.9-14.8c-0.9-4.5-2.7-18.9-2.7-19.1
	S213.2,27.6,213.2,27.6z"/>
<path fill="#523212" d="M196.3,23.9c-1.9,1-5,4-6.4,5.7c-1.3,1.6-3.4,5.1-4.4,6.9c-0.7,1.3-2.3,4-2.6,5.4c-0.2,0.8-0.2,2.4,0,3.2
	c0.3,1.1,1.5,3.1,1.9,4.2c0.4,1.2,0.8,3.6,0.9,4.8c0.1,1.3-0.2,3.9-0.1,5.2c0,2.3,0.3,6.8,0.7,9c0.1,0.7,0.6,2.3,0.3,2.9
	c-0.3,0.6-1,1.5-1.3,2c-0.4,0.5-0.6,1.5-0.9,2c-0.4,0.9-0.9,2.8-0.9,3.8c0,0.6,0.4,1.8,0.7,2.3c0.4,0.6,1.2,1.5,1.6,2.2
	c0.4,0.8,0.1,2.8,0.4,3.6c0.2,0.6,1.2,1,1.7,1.3c1,0.5,3.1,0.3,4.2,0.4c0.8,0.1,2.4,0.2,3.2,0c0.8-0.2,2.3,0.4,2.9-0.1
	c0.6-0.4,1.5-1.6,1.9-2.2c0.4-0.6,1.1-1.9,1.5-2.5c0.4-0.5,1.3-1.4,1.5-2c0.3-0.8,0-2.5,0-3.3c0-0.4,0.4-1.3,0.6-1.7
	c0.5-1,2-2.1,2.8-2.9c0.8-0.9,1.6-3.4,2.3-4.4c0.9-1.2,3.4-2.8,4.4-3.9c1.2-1.5,2.9-5.1,3.3-7c0.4-1.6,0.9-5,0.9-6.7
	c0-1.9-0.3-5.8-0.7-7.7c-0.4-1.6-1.4-4.7-2-6.2c-0.6-1.6-2.1-4.6-2.6-6.2c-0.5-1.3-0.6-4.3-1.5-5.5c-0.7-1-2.8-2.3-3.9-2.6
	c-1.6-0.5-4.9-0.9-6.5-0.9C199.2,23,197.2,23.4,196.3,23.9z"/>
<path fill="#40230E" d="M203.6,75.6c0,0,1.2-5.2,1.9-6.4c0.4-0.7,0.3-4.6,1-5c0.7-0.4,3.6-1.7,4.4-3c0.7-1.3,2.1-2.7,2.4-3.8
	c0.3-1.2,1.2-2.9,1.8-5.4c0.6-2.5,2.2-3.2,2.2-3.2s0.3,7.1,0.2,8.1s-2.7,6.8-4.2,9c-0.8,1.2-4.4,3.9-4.4,3.9s-1.2,2.8-1.8,3.6
	c-0.5,0.8-2.7,3.1-2.7,3.1L203.6,75.6"/>
<path fill="#40230E" d="M184.8,37.7c0,0,6.3-1.3,7.1-1.6c2.3-1,10.8-4.7,10.8-5.7c0-1-1.8-3.9-1.8-3.9l-9.1,4.1l-5.4,4.4L184.8,37.7
	z"/>
<path fill="#493B32" d="M185.2,73.2c-0.4,0.5-0.6,1.5-0.9,2c-0.4,0.9-0.9,2.8-0.9,3.8c0,0.6,0.4,1.8,0.7,2.3
	c0.4,0.6,1.2,1.5,1.6,2.2c0.4,0.8,0.1,2.8,0.4,3.6c0.2,0.6,1.2,1,1.7,1.3c1,0.5,3.1,0.9,4.2,1c0.8,0.1,2.4,0.2,3.2,0
	c0.8-0.2,2.3-0.2,2.9-0.7c0.6-0.4,2.1-1.6,2.5-2.2c0.4-0.6,1.1-1.9,1.5-2.5c0.4-0.5,0.7-1.4,0.9-2c0.3-0.8,0.6-2.5,0.6-3.3
	c0-0.4,0.4-1.9,0.6-2.3c0.1-0.3-1.8-1.5-4-1.6c-2.3-0.2-6.7,2.6-8.2,0.6C190.6,73.2,185.4,73,185.2,73.2z"/>
<path fill="#40230E" d="M184.9,45c0,0,1.7,0.1,2.2,1.5s0.8,2.8,0.6,5.3s-2.2,5.9-2.2,5.9s0.1-3.7-0.1-4.9c-0.2-1.2-1.3-4.7-1.3-4.7
	L184.9,45z"/>
<path fill="#40230E" d="M211,44.7c-2.4-0.3-3.9,0.9-4.5,1.4c-0.6,0.6-0.4,2.7,0,3.5s1.8,3.2,1.5,3.5c-0.3,0.3,2.4-1.5,2.8-2.2
	c0.4-0.8,0.7-1.6,0-2c-0.6-0.3-1.7-0.5-2.6-0.9C207.4,47.6,211,44.7,211,44.7z"/>
<path fill="#F2F2F2" d="M196,38.3c0,0-0.9,3.2-2,5.6c-1.2,2.5,0,5.3,1,10.6c1,5.2,3.2-0.5,4.9-2.8c1.7-2.4-2.6-16.5-2.6-17.6
	C197.2,32.9,196,38.3,196,38.3z"/>
<path fill="#2C261B" d="M189.6,88.4c0.5-0.2,1.1-1.3,1.3-1.7c0.4-0.6,0.1-1.6,0.6-2.2c0.4-0.5,0.4-1.8,0.7-2.4
	c0.4-0.7,0-4.2,1.3-4.7c1.3-0.4,1.6,0.6,2.7,2.1c1,1.3,0.6,2.5,0.6,2.5s-0.8,0.5-0.8,2.3c0,1.3-0.5,0.9,0,1.9c0.3,0.7,0.7,1.6,0.9,2
	c0.2,0.4,1.6,0.1,1.4,0.4c-0.4,0.5-3.6,0.8-4.8,0.7c-1.1,0-3.8-0.1-4.7-0.9C188.5,88.5,189.4,88.5,189.6,88.4z"/>
<path fill="#1F120D" d="M186.7,75.1c0,0-1.4,1.6-1.1,2.4c0.3,0.8,0.5,2.4,1.1,3.1c0.5,0.6,2.6-0.8,1.8-1.5c-0.8-0.6-0.3-2.8-0.4-3.3
	c-0.1-0.4-0.9-1.7-0.9-1.7L186.7,75.1z"/>
<path fill="#1F120D" d="M200,76.3c0,0,1.4,1.6,1.1,2.5c-0.4,1-0.2,2.1-1.1,3.2c-0.5,0.7-2.7-0.9-1.8-1.5c0.9-0.7,0.3-2.9,0.4-3.4
	c0.1-0.4,1-1.7,1-1.7L200,76.3z"/>
<path fill="#341E0E" d="M210.1,31.6c0,0-2.1-1.7-2.8-3.6c-0.7-1.9,0.9-6.7,0.9-6.7s2-3.5,2.5-4.5c0.1-0.3,0.3-2.3,0.9-2.3
	s1.5,1.1,1.5,1.1s1.6,2.3,2.6,4.2c0.3,0.5,0.8,4.9,0.1,6.2c-0.7,1.2-1.6,4-2.4,4.8C212.6,31.5,210.1,31.6,210.1,31.6z"/>
<path fill="#341E0E" d="M194.6,25.6c-3.1-3.1-3.6-5.3-4.7-6.9c-0.9-1.3-1.3-3.9-2-4.1c-0.7-0.1-3,2.7-3.2,3.3c-0.3,1.5-0.1,5,0,6
	c0.1,1.3,0.4,2.5,0.6,2.9s3.4,5,3.8,4.5"/>
<path fill="#00000F" d="M185.5,45.9c0,1.1,0,2-0.8,2s-1.4-1-2-2c-0.3-0.7,0-2,0-2S185.5,44.8,185.5,45.9z"/>
<ellipse fill="#FFFFFF" cx="183.6" cy="45" rx="0.7" ry="0.3"/>
<path d="M207.8,48c0,0-0.3-1.8,0.9-2.5c1.2-0.7,2.8-0.4,2.8-0.4s0.5,1.3,0,2.1C211,47.8,207.8,48,207.8,48z"/>
<ellipse fill="#FFFFFF" cx="210.8" cy="45.6" rx="0.7" ry="0.3"/>
<path fill="#B7925E" d="M200.1,22.9c0,0-3.5,0.1-4.9,1s-8.2,8.5-9,9.3c-0.8,0.8-4.1,4-4.1,4s8.2-2.7,9-3.1c0.9-0.4,6.6-2.7,8.3-4.2
	c1.7-1.5,4.7-5.2,4.3-6.3C203.4,22.6,200.1,22.9,200.1,22.9z"/>
<path fill="#B1874D" d="M207.3,23.9c0,0-2.3-0.4-2.9-0.5s-1.4,0.1-1.4,0.1s-2.4,2.7-2,4.5c0.6,2.5,9.2,8.6,11,9.9s4.2,3.2,4.2,3.2
	l-1.3-3.7c0,0-1.2-3.8-3.4-5.1c-0.9-0.6-4.3-5.7-4.4-5.7S207.3,23.9,207.3,23.9z"/>
</svg>
