<svg id="Alleenzonderbalbuiten" xmlns="http://www.w3.org/2000/svg" viewBox="0 0 641.94 556.2"><defs><style>.cls-1{fill:#010101;}.cls-2{fill:#545456;}.cls-3{fill:#e62a3f;}.cls-4{fill:#c1bc02;}.cls-5{fill:#a8aaad;}.cls-6{fill:#1d1d1d;}.cls-7{fill:#343434;}.cls-8{fill:#9f572f;}.cls-9{fill:#331f12;}.cls-10{fill:#b2884c;}.cls-11{fill:#a57e4a;}.cls-12{fill:#523315;}.cls-13{fill:#4e4d4d;}.cls-14{fill:#402514;}.cls-15{fill:#1f120e;}.cls-16{fill:#b8935e;}.cls-17{fill:#4a3b33;}.cls-18{fill:#f2f2f2;}.cls-19{fill:#2c261b;}.cls-20{fill:#05050b;}.cls-21{fill:#fff;}</style></defs><title>alleenzonderbalbuiten</title><path class="cls-1" d="M4,356.72l-3.44-.21A83.9,83.9,0,0,1,32.3,295.6c30.39-23.94,74.29-23.72,104.37.53a80.16,80.16,0,0,1,13.26,13.43l-2.7,2.14a76.73,76.73,0,0,0-12.71-12.88c-28.86-23.26-71-23.47-100.1-.51A80.45,80.45,0,0,0,4,356.72Z"/><path class="cls-2" d="M83.86,440.24a78.12,78.12,0,0,1-9.29-.55A79.07,79.07,0,0,1,19.64,407C-3.47,374.44,2,328.44,32.15,302.24A78.88,78.88,0,0,1,148.46,316c22.92,32.52,17.43,78.51-12.5,104.72h0A79.58,79.58,0,0,1,83.86,440.24Zm.3-150.69a72.37,72.37,0,0,0-47.53,17.83C9.12,331.31,4.11,373.32,25.2,403a71.27,71.27,0,0,0,50.18,29.9,72.61,72.61,0,0,0,56.08-17.33c27.34-23.94,32.36-66,11.43-95.65a72,72,0,0,0-58.73-30.39Z"/><path class="cls-2" d="M83.92,430.34a68.59,68.59,0,0,1-8.11-.48,69.35,69.35,0,0,1-48.24-28.72C7.32,372.59,12.12,332.26,38.5,309.33a69.1,69.1,0,0,1,101.87,12.15c20.17,28.62,15.37,68.95-10.93,91.81h0A69.41,69.41,0,0,1,83.92,430.34Zm.09-136a67.34,67.34,0,0,0-44.16,16.54C14.27,333.13,9.61,372.25,29.25,400a67,67,0,0,0,98.83,11.78h0c25.51-22.18,30.17-61.3,10.6-89.06a67.29,67.29,0,0,0-46.8-27.86A66.62,66.62,0,0,0,84,294.35Z"/><polygon class="cls-2" points="17.45 378.3 17.14 377.32 75.69 358.86 15.3 365.16 15.19 364.13 85.75 356.76 17.45 378.3"/><polygon class="cls-2" points="81.67 365.5 15.34 355.76 15.49 354.73 76.25 363.66 17.47 343.6 17.8 342.62 81.91 364.5 81.67 365.5"/><rect class="cls-2" x="49.6" y="312.91" width="1.03" height="61.59" transform="translate(-287.32 261.37) rotate(-67.99)"/><rect class="cls-2" x="54.04" y="307.33" width="1.03" height="64.03" transform="translate(-254.14 188.23) rotate(-54.78)"/><polygon class="cls-2" points="81.37 368.4 35.54 315.41 36.32 314.73 75.96 360.56 45.56 304.38 46.47 303.89 81.37 368.4"/><polygon class="cls-2" points="86.07 362.15 54.27 300.78 55.19 300.3 84.52 356.91 66.72 296.41 67.71 296.12 87.03 361.77 86.07 362.15"/><polygon class="cls-2" points="77.3 360.97 76.27 360.89 75.93 293.37 76.96 293.36 77.27 354.65 87.22 293.11 88.24 293.27 77.3 360.97"/><polygon class="cls-2" points="83.23 359.13 98.68 294.95 99.68 295.19 86.41 350.33 111.54 299.29 112.47 299.74 83.23 359.13"/><polygon class="cls-2" points="81.71 358.08 121.16 304.68 121.99 305.29 87.93 351.39 132.01 313.65 132.68 314.44 81.71 358.08"/><polygon class="cls-2" points="81.51 359.59 140.28 322.5 140.83 323.37 90.18 355.34 145.85 335.1 146.2 336.07 81.51 359.59"/><polygon class="cls-2" points="86.92 365.16 86.72 364.15 150.14 344.32 150.45 345.31 91.96 363.6 152.29 357.3 152.4 358.32 86.92 365.16"/><polygon class="cls-2" points="149.79 380.01 85.68 357.96 85.92 356.96 152.25 366.87 152.1 367.89 91.34 358.81 150.12 379.03 149.79 380.01"/><rect class="cls-2" x="116.96" y="347.96" width="1.03" height="61.59" transform="translate(-277.7 345.73) rotate(-67.99)"/><rect class="cls-2" x="112.51" y="351.09" width="1.03" height="64.03" transform="translate(-265.14 254.51) rotate(-54.78)"/><polygon class="cls-2" points="121.12 418.57 86.22 354.06 132.05 407.05 131.27 407.72 91.63 361.9 122.03 418.08 121.12 418.57"/><polygon class="cls-2" points="99.54 425.65 80.56 360.69 81.52 360.31 113.31 421.68 112.4 422.15 83.05 365.5 100.53 425.36 99.54 425.65"/><polygon class="cls-2" points="80.37 429.35 79.35 429.19 90.29 361.49 91.32 361.57 91.66 429.09 90.63 429.1 90.32 367.81 80.37 429.35"/><polygon class="cls-2" points="68.91 427.68 67.91 427.44 81.19 372.11 56.05 423.17 55.12 422.71 84.35 363.34 68.91 427.68"/><polygon class="cls-2" points="46.6 417.78 45.77 417.17 79.69 371.04 35.58 408.81 34.91 408.02 85.85 364.41 46.6 417.78"/><polygon class="cls-2" points="29.06 400.96 28.44 400.14 80.81 360.62 22.83 390.24 22.36 389.32 85.61 357.01 86.16 357.88 29.06 400.96"/><path class="cls-2" d="M91.49,366.19a8.47,8.47,0,1,1,1.2-9.92A8.54,8.54,0,0,1,91.49,366.19Z"/><path class="cls-3" d="M10.46,319.86h0A1.9,1.9,0,0,1,8.57,318v-6.15a1.9,1.9,0,0,1,1.88-1.88h0a1.9,1.9,0,0,1,1.88,1.88V318A1.9,1.9,0,0,1,10.46,319.86Z"/><path class="cls-1" d="M21.57,308.92H14a3.61,3.61,0,0,0-3.59,3.59v9.06Z"/><path class="cls-4" d="M298,227.71h0a1.93,1.93,0,0,1-1.54-2.22l1.37-7.52a1.93,1.93,0,0,1,2.22-1.54h0a1.93,1.93,0,0,1,1.54,2.22l-1.37,7.52A1.93,1.93,0,0,1,298,227.71Z"/><path class="cls-1" d="M71.31,357.81s2.56-8,20-7.69,115.22,7.69,115.22,7.69,29.58,3.08,24.62,26.5-24.62,20.34-24.62,20.34l-118-27.18C88.41,377.3,70.63,376.61,71.31,357.81Z"/><path class="cls-5" d="M280.39,239.34s.85-13.33,8.21-13c0,0-6.5-.51-6.5-5.47,0-7.86,16.75-6.33,16.75-6.33l-2.05,14.19S285.69,226,283,240.54C280.39,242.93,280.39,239.34,280.39,239.34Z"/><path class="cls-6" d="M185,364a36.71,36.71,0,0,1,4.44-.51,91.63,91.63,0,0,1,12,0,48.16,48.16,0,0,1,8,1.2,37,37,0,0,1,8.55,3.08,21.92,21.92,0,0,1,7.52,6.33,17.4,17.4,0,0,1,3.25,9.57v2.56a2.91,2.91,0,0,1-.17,1.2l-.34,1.37a9.89,9.89,0,0,1-.85,2.39c-.34.85-.85,1.54-1.2,2.22a16.53,16.53,0,0,1-8,5.64,34.11,34.11,0,0,1-8.89,1.37h-4.1c-1.37-.17-2.56-.17-3.93-.34-2.39-.34-4.79-.68-6.67-1-2.05-.51-3.76-.68-5.13-1.2-2.74-.68-4.44-1.2-4.44-1.2s1.54.34,4.44.85c1.37.34,3.08.51,5.13.85,1,.17,2.05.34,3.25.51a23.27,23.27,0,0,0,3.59.34c1.2,0,2.56.17,3.76.17h4.1a30,30,0,0,0,8.55-1.54,14.12,14.12,0,0,0,7.35-5.13,13.77,13.77,0,0,0,2.05-9.06,16.21,16.21,0,0,0-2.91-8.89,18.26,18.26,0,0,0-7-6,43,43,0,0,0-16.07-4.44,79.08,79.08,0,0,0-12-.51C186.54,363.79,185,364,185,364Z"/><path class="cls-2" d="M234.92,402.6l-26.5-20.86a3,3,0,0,1-.51-4.27h0a3,3,0,0,1,4.27-.51l26.5,20.86a3,3,0,0,1,.51,4.27h0A3,3,0,0,1,234.92,402.6Z"/><path class="cls-5" d="M247.74,408.07H223a4.78,4.78,0,0,1-4.79-4.79h0A4.78,4.78,0,0,1,223,398.5h24.79a4.78,4.78,0,0,1,4.79,4.79h0A4.78,4.78,0,0,1,247.74,408.07Z"/><path class="cls-1" d="M239.53,402.09a4.36,4.36,0,0,1-5.3,5.3,4,4,0,0,1-3.08-3.08,4.36,4.36,0,0,1,5.3-5.3A4,4,0,0,1,239.53,402.09Z"/><path class="cls-1" d="M288.48,425.77A83.71,83.71,0,0,1,344,279.33a82.32,82.32,0,0,1,14.84,1.23l-.63,3.39A78.75,78.75,0,0,0,344,282.77a80.27,80.27,0,0,0-53.22,140.42Z"/><path class="cls-2" d="M344.23,441.85q-2.09,0-4.19-.11c-39.74-2-72.55-34.76-74.68-74.68a78.7,78.7,0,0,1,82.74-82.74c39.75,2.13,72.55,34.94,74.68,74.69h0a78.71,78.71,0,0,1-78.55,82.84ZM343.91,291a71.88,71.88,0,0,0-71.73,75.68c1.94,36.46,31.91,66.43,68.22,68.22A71.87,71.87,0,0,0,416,359.35C414,323,384,293.07,347.74,291.13Q345.82,291,343.91,291Z"/><path class="cls-2" d="M343.85,432.1q-1.75,0-3.51-.09c-34.87-1.73-63.53-30.39-65.26-65.26a69.05,69.05,0,0,1,72.54-72.54c34.87,1.73,63.53,30.39,65.26,65.26h0a69,69,0,0,1-69,72.63Zm.27-135.91a67,67,0,0,0-67,70.46c1.67,33.82,29.48,61.63,63.3,63.3a67,67,0,0,0,70.38-70.38h0c-1.67-33.82-29.48-61.62-63.3-63.3Q345.82,296.19,344.12,296.19Z"/><polygon class="cls-2" points="315.92 425.86 314.95 425.5 336.88 368.07 304.42 419.29 303.55 418.74 338.76 363.18 339.68 363.64 315.92 425.86"/><polygon class="cls-2" points="296.99 413.4 296.28 412.65 340.91 370.52 288.71 404.23 288.15 403.36 345.07 366.61 345.71 367.42 296.99 413.4"/><rect class="cls-2" x="278.41" y="378.15" width="61.41" height="1.03" transform="translate(-147.04 202.98) rotate(-29.71)"/><rect class="cls-2" x="276.33" y="372.08" width="64.2" height="1.03" transform="translate(-93.39 103.34) rotate(-16.56)"/><polygon class="cls-2" points="277.85 372.69 277.81 371.65 338.37 368.96 275.35 357.98 275.52 356.96 347.89 369.57 277.85 372.69"/><polygon class="cls-2" points="345.94 362.08 278.07 348.92 278.27 347.9 340.86 360.04 282.25 336.41 282.64 335.45 346.23 361.09 345.94 362.08"/><polygon class="cls-2" points="338.71 368.82 285.55 327.44 286.18 326.63 334.52 364.24 292.49 318.33 293.25 317.63 339.41 368.06 338.71 368.82"/><polygon class="cls-2" points="341.66 362.29 300.84 310.43 301.65 309.8 336.74 354.36 312.24 302.99 313.17 302.54 341.66 362.29"/><polygon class="cls-2" points="339.89 362.77 322.29 298.8 323.29 298.52 338.51 353.88 336.29 295.95 337.32 295.9 339.89 362.77"/><polygon class="cls-2" points="341.1 363.9 348.26 294.85 349.29 294.95 343.12 354.45 361.62 298.16 362.6 298.48 341.1 363.9"/><polygon class="cls-2" points="348.7 363.05 347.78 362.58 371.54 300.53 372.5 300.9 350.59 358.13 383.04 306.93 383.91 307.49 348.7 363.05"/><polygon class="cls-2" points="342.39 359.61 341.75 358.8 390.47 312.82 391.18 313.57 346.55 355.7 398.75 321.99 399.31 322.86 342.39 359.61"/><rect class="cls-2" x="347.64" y="347.04" width="61.41" height="1.03" transform="translate(-122.52 233.2) rotate(-29.71)"/><rect class="cls-2" x="346.95" y="353.19" width="64.16" height="1.03" transform="translate(-84.51 121.53) rotate(-16.42)"/><polygon class="cls-2" points="411.94 369.26 339.57 356.83 409.61 353.53 409.66 354.57 349.08 357.42 412.11 368.24 411.94 369.26"/><polygon class="cls-2" points="404.14 390.77 341.23 365.3 341.52 364.31 409.39 377.3 409.19 378.32 346.5 366.32 404.53 389.81 404.14 390.77"/><polygon class="cls-2" points="394.21 408.59 347.88 358.16 348.58 357.4 401.92 398.94 401.28 399.76 352.84 362.03 394.97 407.89 394.21 408.59"/><polygon class="cls-2" points="374.29 423.68 345.8 363.94 386.62 415.79 385.81 416.43 350.72 371.86 375.22 423.23 374.29 423.68"/><polygon class="cls-2" points="350.14 430.49 347.57 363.45 365.17 427.42 364.17 427.7 348.95 372.34 351.17 430.44 350.14 430.49"/><polygon class="cls-2" points="341.08 430.65 340.05 430.63 341.46 365.06 328.77 428.86 327.75 428.65 341.6 359.08 342.62 359.19 341.08 430.65"/><path class="cls-2" d="M352.36,360.2a8.48,8.48,0,0,1-9.74,9.74,8.34,8.34,0,0,1-7-7,8.48,8.48,0,0,1,9.74-9.74A8.34,8.34,0,0,1,352.36,360.2Z"/><polygon class="cls-2" points="150.47 279 139.53 258.14 133.37 258.14 133.37 251.48 125.85 251.48 125.85 262.93 136.45 263.79 145.85 283.96 150.47 279"/><polygon class="cls-2" points="291.68 286.18 319.37 342.94 341.25 365.16 342.96 360.89 323.99 339.86 296.8 283.96 291.68 286.18"/><polygon class="cls-2" points="274.75 242.59 282.1 240.37 268.6 212.67 275.26 207.2 275.26 192.67 268.6 195.4 268.6 204.12 261.25 210.28 274.75 242.59"/><path class="cls-1" d="M60.72,282.08l35.73,60.86L82.26,362.08h0A3.86,3.86,0,0,0,86,365.16h.51l16.58-19.66L164.66,351s-2.39-30.09-20.86-48.55l6.84-7.35-2.39-4.27-8,8.38S112.51,269.26,60.72,282.08Z"/><path class="cls-1" d="M75.59,354h3.59L45.33,284.64V273l67.36,4.44S137,291,145,287.89c9.06,10.77,32,69.41,32,69.41h9.92l-29.58-67,119.33-37.44,9.92,26.33-70.09,82.57,7.35,6.84,65.82-81.2L300.05,285l-17.78-44.28-9.92,3.08v3.76L154.4,285l-3.76-5.64-8,3.25a71.08,71.08,0,0,1-29.75-9.23c-12.65-.68-88.21-6.15-88.21-6.15v5.47l15.9,1.2.68,11.62Z"/><path class="cls-1" d="M268.6,195.4s-27.87-1.88-45,3.08v-8s19.83-3.08,22.91-5,9.23-6.84,14.7-6.84h5.47s5,9.92,11.62,13.51C278.34,195.4,268.6,195.4,268.6,195.4Z"/><path class="cls-7" d="M301.4,293.06l-2-.43c.86-4,2.34-9.14,4.05-15.05,5.86-20.26,13.89-48,7.77-67.68-5-16.35-32.58-16.54-32.86-16.54v-2.07c1.2,0,29.38.2,34.84,18,6.3,20.25-1.82,48.35-7.76,68.86C303.72,284,302.25,289.11,301.4,293.06Z"/><path class="cls-7" d="M295.26,273.14l-.68-1.95c.12,0,12.53-4.73,22.45-31.18,3.2-8.59,2.83-16.06-1.11-22.21-10.11-15.79-40.44-18.26-40.74-18.28l.16-2.06c1.29.1,31.66,2.57,42.32,19.23,4.31,6.73,4.75,14.82,1.3,24C308.66,268.22,295.8,273,295.26,273.14Z"/><path class="cls-7" d="M120.41,258.66l-.07-1c17.4-1.2,21.45-4.27,22.31-6a1.64,1.64,0,0,0,0-1.59l.86-.58a2.65,2.65,0,0,1,.06,2.58C142,255.44,133.94,257.72,120.41,258.66Z"/><path class="cls-7" d="M114.22,253c-3.77,0-6.62-1.38-6.62-3.2s2.85-3.2,6.62-3.2,6.62,1.38,6.62,3.2S118,253,114.22,253Zm0-5.47c-3.35,0-5.69,1.2-5.69,2.27s2.34,2.27,5.69,2.27,5.69-1.2,5.69-2.27S117.58,247.5,114.22,247.5Z"/><path class="cls-7" d="M114.22,257.07c-3.77,0-6.62-1.38-6.62-3.2s2.85-3.2,6.62-3.2,6.62,1.38,6.62,3.2S118,257.07,114.22,257.07Zm0-5.47c-3.35,0-5.69,1.2-5.69,2.27s2.34,2.27,5.69,2.27,5.69-1.2,5.69-2.27S117.58,251.6,114.22,251.6Z"/><path class="cls-7" d="M114.22,261.34c-3.77,0-6.62-1.38-6.62-3.2s2.85-3.2,6.62-3.2,6.62,1.38,6.62,3.2S118,261.34,114.22,261.34Zm0-5.47c-3.35,0-5.69,1.2-5.69,2.27s2.34,2.27,5.69,2.27,5.69-1.2,5.69-2.27S117.58,255.87,114.22,255.87Z"/><path class="cls-8" d="M107.56,248.91l19.66,2.39h6.15s25.13-3.42,31.28-8.72-6.15-7.18-6.15-7.18H107.56S103.28,239.17,107.56,248.91Z"/><path class="cls-6" d="M88.92,362.08a3.63,3.63,0,0,1-4.44,4.44,3.71,3.71,0,0,1-2.74-2.74,3.63,3.63,0,0,1,4.44-4.44A4.79,4.79,0,0,1,88.92,362.08Z"/><path class="cls-6" d="M347.58,360.55a3.63,3.63,0,0,1-4.44,4.44,3.71,3.71,0,0,1-2.74-2.74,3.63,3.63,0,0,1,4.44-4.44A4.34,4.34,0,0,1,347.58,360.55Z"/><path class="cls-6" d="M68.75,288.06s1.88-.34,5-.68A128.62,128.62,0,0,1,87,286.69a112.82,112.82,0,0,1,19,1.54A78.18,78.18,0,0,1,116.45,291a39.08,39.08,0,0,1,9.92,5.13,65.34,65.34,0,0,1,14.7,16.07,100.06,100.06,0,0,1,8.72,16.92,122.54,122.54,0,0,1,4.27,12.65c.34,1.54.68,2.74.85,3.59s.34,1.37.34,1c0,.34-.17-.17-.34-1s-.68-2.05-1-3.59c-1-3.08-2.39-7.35-4.62-12.48a104.72,104.72,0,0,0-8.89-16.41,66.32,66.32,0,0,0-14.53-15.73c-5.81-4.27-13-6.5-19.66-7.86a129.68,129.68,0,0,0-18.63-1.88c-5.47-.17-10.09,0-13.33.17Z"/><path class="cls-9" d="M504.17,277.29s9.92,20.86,12.82,26.84,6.5,13.85,9.92,18.8,12.82,18.8,13.85,22.39c1,3.42,18,75.39,18.29,76.93,1,3.08,1,1,2.56,4.44s-.51,5.47-3.08,8.38.68,9.23,4.79,9.4a18.32,18.32,0,0,0,7.18-.85c3.59-1.71,2.39-5.47,1.88-7.69-.85-4.44,1.2-4.27,2.05-5.81s2.56-5,1.2-6.15-6-16.07-6.15-18.29c-.17-2.39-1.88-13.85-1.88-16.07S565,349.26,565,349.26a12.34,12.34,0,0,1,.68-6c1.2-2.91,3.76-4.62,3.08-7.69S565.88,325,566.23,324s2.22-38.46,3.42-38.46c1.37,0-26.84-41.37-26.84-41.37Z"/><path class="cls-10" d="M569.82,155.57s16.58,2.39,22.57,8.21c6,5.64,27.87,45.13,28.72,61.2.85,15.39,11.45,75.56,14.36,81.72s.51,50.26,5.47,64.62-9.92-12.48-11.45-15-.51,17.27,1,19.32a71.6,71.6,0,0,1-7.52-13,170.9,170.9,0,0,1-8.38-24.1c-2.91-11.11-1,15.9-2.91,15.21-2.05-.68-7.52-20.17-8.89-27s-2.05-29.92-3.42-39.83c-.85-5.81-3.08-57.78-6.5-69.58s-8.89-35.22-13.33-42.57C575.8,168.39,569.82,155.57,569.82,155.57Z"/><path class="cls-11" d="M592.38,163.61c6,5.64,27.87,45.13,28.72,61.2.85,15.39,11.45,75.56,14.36,81.72s.51,50.26,5.47,64.62-9.92-12.48-11.45-15-.51,17.27,1,19.32a71.6,71.6,0,0,1-7.52-13,170.9,170.9,0,0,1-8.38-24.1c-2.91-11.11-2.91-41.71-4.27-51.46-.34-1.88,6-28.38,2.74-46.84C606.57,202.24,588.45,159.85,592.38,163.61Z"/><path class="cls-12" d="M326.38,65.48c.68,1.71,9.74,9.92,11.62,10.6a60.53,60.53,0,0,1,11.62,5c4.27,2.56,6.67,6.33,8.21,8.21,1.71,2.05,11.62,9.92,12.48,12.31,1,2.39,8.55,14.53,9.23,17.78s10.94,14.87,13.16,16.24c2.39,1.37,25.13,12,25.13,12l15.56,7.86c1.71,1,18.46,1,22.22,0S490,145.49,490,145.49s30.09-4.62,39-4.27c2.91.17,26.84-2.39,42.57,16.58,15.9,18.8,17.27,22.22,20.86,29.75,1.54,3.25,9.57,12.48,6,34s-7.86,23.59-11.62,34.36c-3.08,9.06-15.21,35.73-16.24,36.76s-4.27,33.34-5.3,34.7-1.37,15.9-1.37,15.9l-2.91,17.44s-2.56,12.48-2.56,18.12-2.05,14.87-2.05,20.51-1.37,21.54,0,23.08c.68.85-6,4.79-5,10.94.51,3.08.85,4.79,0,6-.68,1.2-4.27,1.54-6.33,1.54s-10.09-3.76-10.09-5.81,5.81-6.15,5.81-6.15,2.56-3.93,2.56-6.67c0-2.56.68-15.9.68-15.9s.68-16.92-1.37-25.47c-.34-1.37,1-21.2,1-21.2s0-62.57-1.71-62.23-3.42-40.52-8.89-40.52-18.46,20-34.19,26.84c-15.21,6.67-25,9.23-36.24,9.74s-38.12,2.56-38.12,2.56-1,14.19-1.54,19.83-1,18.63-.68,19.66c.17,1-.17,16.07-.17,16.58s-1,8.21-1.54,8.89-.17,9.92.51,13.68,5.3,32.48,5.13,31.8c.34,1.71,1.88,14.7,2.05,15.39.17,3.59-1,7.69-1.54,7.52s-3.25,2.22-4.27,5.13,1.2,5,1.2,6.33-1.54,4.62-2.74,5c-4.79,1.71-18.12,1.88-18.63.68s3.42-7.69,4.44-8.72,3.42-3.42,3.93-5.47a36.61,36.61,0,0,0,1.54-8.21c.17-4.44.17-13.85,0-15.9s-2.05-29.92-3.42-30.43-7.52-16.92-7.69-18.63-.51-16.92-1-17.61-4.79-41.37-6.5-43.42-3.76-6.5-8.21-6.5-8.72,3.76-8.72,6,2.56,40.17,2.56,40.17,2.56,23.08,1.54,24.79,1.54,40.35,2.22,42.4,1,18.8-.68,19.83c-4.27,2.56-2.22,12.48-2.22,12.48s1,3.76-1.2,5.47c-1.88,1.54-12,2.91-16.41,2.22s-3.93-1-3.42-2.91c.51-2.05,1-4.79,5-8.72,5-4.79,4.27-7.18,4.44-9.4s-1-15.39-1-18.63.17-28.72-1.54-29.92-5-21.88-4.44-23.59c1.71-6-5.47-30.94-6.5-31.46s-11.45-30.26-10.09-33c1.2-2.56-8.21-14.36-8.21-14.36s-10.43-19.83-12.82-25.3c-2.56-5.47.51-50.6-1.71-51.8s-9.23-36.41-9.57-35.73C312.53,160.87,326.38,65.48,326.38,65.48Z"/><path class="cls-13" d="M553.58,444.31s4.1-10.09,5-9.4a18.66,18.66,0,0,0,5.13,2.22,15.3,15.3,0,0,1,5,2.56,24.32,24.32,0,0,0,3.76,2.39s-.68,1.54-6.5,3.25a19,19,0,0,1-7,.34C557.68,445.34,553.58,444.31,553.58,444.31Z"/><path class="cls-13" d="M531.52,442.43s4.79-10.94,5.81-10.09a18.34,18.34,0,0,0,5,2.39,23.16,23.16,0,0,1,5.47,2.74,17.47,17.47,0,0,0,3.93,2.05s-.68,2.22-6.84,4.1a18.14,18.14,0,0,1-7.52.34C535.8,443.63,531.52,442.43,531.52,442.43Z"/><path class="cls-13" d="M401.77,447.56s5-10.94,6-10.26a16.79,16.79,0,0,0,5.3,2.22,21.11,21.11,0,0,1,5.64,2.74,32.53,32.53,0,0,0,4.1,2.39s-.68,2.05-7.18,4.1a19.71,19.71,0,0,1-7.86.34Z"/><path class="cls-13" d="M356.81,445.85s5.13-12,6.15-11.11a20.89,20.89,0,0,0,5.81,2.56,23.79,23.79,0,0,1,6,2.91,30.38,30.38,0,0,0,4.62,2.39s-1,2.39-7.86,4.44a22.36,22.36,0,0,1-8.38.34C361.77,447.22,356.81,445.85,356.81,445.85Z"/><path class="cls-14" d="M326.38,213.35C323,217.29,334.75,234.89,336,240a20.29,20.29,0,0,1,0,7.86c-.85,3.08-6.15,11.28-6.15,11.28L337,273s4.44-10.77,8.38-13.85c3.08-2.39,10.94-.68,14.87,0,5,.85,10.09,9.74,14.87,11.11,6,1.54,25.3-1.37,27.35-7.18,3.59-10.94-27-25.64-37.1-31.11-3.93-2.22-5.3-5.13-7.52-8.89-1.2-2.22,5.47-27.52,3.08-28.55-3.59-1.54-19.15,25.81-22.91,26.16C335.61,220.88,328.09,211.47,326.38,213.35Z"/><path class="cls-9" d="M313.73,163.09c1,8.55,8.55,32.31,8.55,32.31s1.88,20.86,5.81,24.79c4.1,3.93,9.92,3.93,14.87,0s18.8-19.83,18.8-24.79,2.05-30.77,0-31.8-1-12-5-21.88-17.61-23.08-21.2-26C332.19,113,312.19,150.78,313.73,163.09Z"/><path class="cls-14" d="M533.4,257.46s7.52-10.6,9.23-13.51c2.39-4.27,2.74-18.63,2.74-18.63l-2.91-26.84S551,234.89,551.35,241a52.38,52.38,0,0,0,2.91,12.65c1.54,4.1,2.22,10.94,4.79,14.36,1.71,2.22,5.47,6.67,6.33,9.4.85,3.08-.85,9.92,0,13,.51,2.05,3.93,9.57-6.67,9.23s-13.16-3.59-13.85-9.57-2.91-15-4.44-15.56C538.7,274.38,533.4,257.46,533.4,257.46Z"/><path class="cls-14" d="M563,350.63s-5.3,1.88-7.52,2.39-7.86,0-7.86,0,.85,10.09,0,9.4,10.94,15,11.28,13S563,350.63,563,350.63Z"/><path class="cls-14" d="M362.28,357.47s1.54,3.08,6.5,3.08,12.48-3.76,12.48-3.76.17,5.13,0,5.47a3.68,3.68,0,0,0-.34,1.71c0,1-.17,9.57-1.71,10.6s-9.06.85-9.57.51c-.51-.17-5.3-4.62-5.47-5.81C364.16,368.41,362.28,357.47,362.28,357.47Z"/><path class="cls-14" d="M401.77,359.86a18.35,18.35,0,0,0,9.06,2.39c1.37-.17,10.43-2.05,10.43-2.39a9.07,9.07,0,0,0-.51,1.88v5.81c0,.34-1.2,8.55-3.42,8.21-1.2-.17-3.76.51-6.5-.68a15.72,15.72,0,0,1-5.13-4.1C405.36,370.12,401.77,359.86,401.77,359.86Z"/><path class="cls-14" d="M424.51,295.92s6.84-10.09,8.55-12.82c3.25-5.47,4.1-9.57,5.47-14.53,1-3.08,2.74-14.87,2.74-14.87s2.56,16.58,5.47,19.32c4.79,4.44,8.89,3.25,14.7,4.27,3.42.51,1.2-.17,4.79.17,7.18,1,14.87,1.88,22.74,0s24.62-9.23,28.72-11.8c5.13-3.25,15.9-8.21,15.9-8.21l-11.8,9.4s-9.57,10.09-11.11,11.28c-1.88,1.37-26.5,13-35.73,14.19s-24.28,1.54-24.28,1.54Z"/><path class="cls-14" d="M378,295.92s-15-9.74-19.83-13.51c-2.22-1.71-6.33-6-7.35-8.55-.85-2.39,2.56-.68,5-.68a29.64,29.64,0,0,0,10.43-1.37c2.39-.68,4.44-5.47,5.13-8.21.68-2.56,4.27-2.22,6.67-3.59,1.88-1.2,6.5-.51,8.55,0,3.08.85,8.72,2.05,12,2.56,3.08.51,9.4.85,12.48,1.37,3.93.51,11.11,3.42,13.51,6.67,2.05,2.56,4.79,9.74,3.25,12.48-1.37,2.56-4.1,6.84-7,6.33-3.93-.85-10.6-8.55-14.53-9.4-2.22-.51-6.5,2.05-7.86,3.76C396,286.86,392,295.92,392,295.92s-4.79-3.59-7-3.59C383,292.16,378,295.92,378,295.92Z"/><path class="cls-15" d="M287.74,171.81a8.79,8.79,0,0,0,5.47,3.93c1.88.34,6.5,0,8,0a11.12,11.12,0,0,0,5.13-1.88c1-1,3.25-6.5,2.05-6.15s-3.42-.85-3.42-.85l-17.27,2.22Z"/><path class="cls-16" d="M378.35,100.18s7.35,7.69,7.52,8.55c.34.85,3.08,7,3.25,7.86.17,1,3.08,9.92,3.08,9.92s3.42,13.68,3.59,14.7,2.22,10.94,2.39,12.31,2.05,9.57,3.25,11.8,3.42,7.52,3.42,7.52-7.52-2.22-9.23-3.08c-1.88-1-3.93-3.93-6.33-5.64s-7.69-16.41-8.38-18-7.18-48-7.18-48Z"/><path class="cls-10" d="M356.3,82.06s10.94,4.79,14.19,7.69c1.88,1.71,5.64,5.3,6.84,7.52,1.37,2.56,2.74,8.21,3.25,11.11.68,3.08,1.88,9.4,2.39,12.48.34,2.56,1,7.86,1.37,10.43.51,4.1,2.39,15.73,2.39,16.24s2.05,8,2.56,10.77c.51,2.05,1.37,6.33,2.05,8.38.68,2.74,3.08,10.77,3.08,10.77s-8.21-3.76-10.43-5.3a34.23,34.23,0,0,1-6.67-6.5c-.85-1-4.62-5.13-5.13-6.33-3.76-7.52-7.52-29.23-7.52-29.23l-3.93-26.5Z"/><path class="cls-11" d="M330.82,67.36s9.74,4.27,13,5.81c2.91,1.54,9.4,3.76,11.62,6.33,3.08,3.42,5.64,12.48,6.84,16.75,1,3.76,3.25,11.11,3.59,14.87.51,3.93.51,12,1,15.9.17,1.88.68,5.47,1,7.35.51,3.76,1.2,11.45,2.05,15.21.68,2.91,2.56,8.55,3.59,11.45.85,2.22,3.76,9.06,3.76,9.06s-10.94-7.52-11.62-8.21c-.85-.68-11.28-9.4-14.19-13.16a46.18,46.18,0,0,1-6-10.09c-2.39-6.5-7-18.46-8.38-25.3-1.54-7.69-4.62-32.31-4.62-32.65S330.82,67.36,330.82,67.36Z"/><path class="cls-12" d="M301.93,61c-3.25,1.71-8.55,6.84-10.94,9.74a106,106,0,0,0-7.52,11.8c-1.2,2.22-3.93,6.84-4.44,9.23a14.72,14.72,0,0,0,0,5.47c.51,1.88,2.56,5.3,3.25,7.18a46.18,46.18,0,0,1,1.54,8.21c.17,2.22-.34,6.67-.17,8.89a114.35,114.35,0,0,0,1.2,15.39c.17,1.2,1,3.93.51,5s-1.71,2.56-2.22,3.42c-.68.85-1,2.56-1.54,3.42a21.21,21.21,0,0,0-1.54,6.5,10.52,10.52,0,0,0,1.2,3.93c.68,1,2.05,2.56,2.74,3.76.68,1.37.17,4.79.68,6.15.34,1,2.05,1.71,2.91,2.22,1.71.85,5.3.51,7.18.68a19.55,19.55,0,0,0,5.47,0c1.37-.34,3.93.68,5-.17a17.16,17.16,0,0,0,3.25-3.76c.68-1,1.88-3.25,2.56-4.27.68-.85,2.22-2.39,2.56-3.42.51-1.37,0-4.27,0-5.64a9.87,9.87,0,0,1,1-2.91c.85-1.71,3.42-3.59,4.79-5,1.37-1.54,2.74-5.81,3.93-7.52,1.54-2.05,5.81-4.79,7.52-6.67a38.45,38.45,0,0,0,5.64-12A63.69,63.69,0,0,0,338,109.24a85.64,85.64,0,0,0-1.2-13.16,109.47,109.47,0,0,0-3.42-10.6c-1-2.74-3.59-7.86-4.44-10.6-.85-2.22-1-7.35-2.56-9.4A15.82,15.82,0,0,0,319.71,61,49.7,49.7,0,0,0,308.6,59.5,18.07,18.07,0,0,0,301.93,61Z"/><path class="cls-14" d="M314.41,149.42s2.05-8.89,3.25-10.94c.68-1.2.51-7.86,1.71-8.55s6.15-2.91,7.52-5.13c1.2-2.22,3.59-4.62,4.1-6.5.51-2.05,2.05-5,3.08-9.23s3.76-5.47,3.76-5.47.51,12.14.34,13.85-4.62,11.62-7.18,15.39c-1.37,2.05-7.52,6.67-7.52,6.67a49.93,49.93,0,0,1-3.08,6.15,63.08,63.08,0,0,1-4.62,5.3l-1.37-1.54"/><path class="cls-14" d="M282.27,84.63S293,82.4,294.41,81.89c3.93-1.71,18.46-8,18.46-9.74s-3.08-6.67-3.08-6.67l-15.56,7L285,80Z"/><path class="cls-17" d="M283,145.31c-.68.85-1,2.56-1.54,3.42a21.21,21.21,0,0,0-1.54,6.5,10.52,10.52,0,0,0,1.2,3.93c.68,1,2.05,2.56,2.74,3.76.68,1.37.17,4.79.68,6.15.34,1,2.05,1.71,2.91,2.22a25.9,25.9,0,0,0,7.18,1.71,19.55,19.55,0,0,0,5.47,0c1.37-.34,3.93-.34,5-1.2a22.48,22.48,0,0,0,4.27-3.76c.68-1,1.88-3.25,2.56-4.27a12.34,12.34,0,0,0,1.54-3.42,21.81,21.81,0,0,0,1-5.64,16.69,16.69,0,0,1,1-3.93c.17-.51-3.08-2.56-6.84-2.74-3.93-.34-11.45,4.44-14,1C292.19,145.31,283.3,145,283,145.31Z"/><path class="cls-14" d="M282.44,97.11s2.91.17,3.76,2.56a19.66,19.66,0,0,1,1,9.06c-.34,4.27-3.76,10.09-3.76,10.09a75.41,75.41,0,0,0-.17-8.38c-.34-2.05-2.22-8-2.22-8Z"/><path class="cls-14" d="M327.06,96.59A9.67,9.67,0,0,0,319.37,99c-1,1-.68,4.62,0,6s3.08,5.47,2.56,6,4.1-2.56,4.79-3.76c.68-1.37,1.2-2.74,0-3.42-1-.51-2.91-.85-4.44-1.54C320.91,101.55,327.06,96.59,327.06,96.59Z"/><path class="cls-18" d="M301.42,85.65A78.5,78.5,0,0,1,298,95.22c-2.05,4.27,0,9.06,1.71,18.12,1.71,8.89,5.47-.85,8.38-4.79,2.91-4.1-4.44-28.21-4.44-30.09C303.47,76.42,301.42,85.65,301.42,85.65Z"/><path class="cls-19" d="M290.48,171.3c.85-.34,1.88-2.22,2.22-2.91.68-1,.17-2.74,1-3.76.68-.85.68-3.08,1.2-4.1.68-1.2,0-7.18,2.22-8,2.22-.68,2.74,1,4.62,3.59a4.87,4.87,0,0,1,1,4.27s-1.37.85-1.37,3.93c0,2.22-.85,1.54,0,3.25.51,1.2,1.2,2.74,1.54,3.42s2.74.17,2.39.68c-.68.85-6.15,1.37-8.21,1.2-1.88,0-6.5-.17-8-1.54C288.6,171.47,290.14,171.47,290.48,171.3Z"/><path class="cls-15" d="M285.52,148.56s-2.39,2.74-1.88,4.1.85,4.1,1.88,5.3c.85,1,4.44-1.37,3.08-2.56-1.37-1-.51-4.79-.68-5.64a20.86,20.86,0,0,0-1.54-2.91Z"/><path class="cls-15" d="M308.26,150.61s2.39,2.74,1.88,4.27c-.68,1.71-.34,3.59-1.88,5.47-.85,1.2-4.62-1.54-3.08-2.56,1.54-1.2.51-5,.68-5.81a18.62,18.62,0,0,1,1.71-2.91Z"/><path class="cls-9" d="M325.52,74.2s-3.59-2.91-4.79-6.15,1.54-11.45,1.54-11.45,3.42-6,4.27-7.69c.17-.51.51-3.93,1.54-3.93s2.56,1.88,2.56,1.88A83.06,83.06,0,0,1,335.1,54c.51.85,1.37,8.38.17,10.6-1.2,2.05-2.74,6.84-4.1,8.21C329.8,74,325.52,74.2,325.52,74.2Z"/><path class="cls-9" d="M299,63.94c-5.3-5.3-6.15-9.06-8-11.8-1.54-2.22-2.22-6.67-3.42-7-1.2-.17-5.13,4.62-5.47,5.64-.51,2.56-.17,8.55,0,10.26a17.08,17.08,0,0,0,1,5c.34.68,5.81,8.55,6.5,7.69"/><path class="cls-20" d="M283.47,98.64c0,1.88,0,3.42-1.37,3.42s-2.39-1.71-3.42-3.42a7.18,7.18,0,0,1,0-3.42S283.47,96.76,283.47,98.64Z"/><ellipse class="cls-21" cx="280.22" cy="97.11" rx="1.2" ry="0.51"/><path class="cls-1" d="M321.59,102.23s-.51-3.08,1.54-4.27a7.91,7.91,0,0,1,4.79-.68s.85,2.22,0,3.59C327.06,101.89,321.59,102.23,321.59,102.23Z"/><ellipse class="cls-21" cx="326.72" cy="98.13" rx="1.2" ry="0.51"/><path class="cls-16" d="M308.43,59.32s-6,.17-8.38,1.71-14,14.53-15.39,15.9-7,6.84-7,6.84,14-4.62,15.39-5.3c1.54-.68,11.28-4.62,14.19-7.18s8-8.89,7.35-10.77C314.07,58.81,308.43,59.32,308.43,59.32Z"/><path class="cls-10" d="M320.74,61l-5-.85a7.15,7.15,0,0,0-2.39.17S309.28,65,310,68c1,4.27,15.73,14.7,18.8,16.92S336,90.44,336,90.44l-2.22-6.33s-2.05-6.5-5.81-8.72c-1.54-1-7.35-9.74-7.52-9.74A41.92,41.92,0,0,1,320.74,61Z"/></svg>