<svg id="Laag_6" data-name="Laag 6" xmlns="http://www.w3.org/2000/svg" viewBox="0 0 185.36 64.08"><defs><style>.cls-1{fill:#e3f2f4;}.cls-2{fill:#d2e7ea;}.cls-3{fill:#efc2af;}.cls-4{opacity:0.08;}.cls-5{fill:#cae7ec;}.cls-6{fill:#3f3f3f;}.cls-7{fill:#a4c8c8;}.cls-8{fill:#dda095;}.cls-9{fill:#d08e7a;}.cls-10{fill:#ba958c;}.cls-11{fill:#724e42;}.cls-12{fill:#5c5c5c;}.cls-13{fill:#fff;}</style></defs><title>zwemmer</title><path class="cls-1" d="M701.13,436.25s5.83-1,3.46,0,.33,1.5,1.42,1,1.17-1.81,2-1.74a3.15,3.15,0,0,0,1.25,0,5,5,0,0,0,2-.43c.92-.42-.08,1,.42.83s.5-.15,1.42-.41.75-.16,1.58,0,1.67-.05,1.33.72-1.17.84-1,1.22,1.5.74.58.9-1.58.74-.67.74,2.73.67,1.16.92-1.58-.5-1.91,0-.75.61-.17,1.18.5.27,1.42.5,1.08,1.07.5,1.07-2.83-.5-2.08,0a3.54,3.54,0,0,0,1.83.75c.5,0-.53.75,1,.75s2.22.5,2.22,0,1-.5.83-1.83.25.33-.17-1.33-.62-2.67.19-2.25.64-.35.64.91a8,8,0,0,0,0,1.94,2.84,2.84,0,0,1-.43,2.15c-.42.75-.84,1.58-.33,1.72s.5-.22,1.16-1,.92-.5,1.08,0,0,1.25.92.67.89-1.25,1.16-1.42-1.74-.25-1.07-1.17,1.25-.83,1.58-.17.58-.58,1.08,0-.25.75-.46,1.42-.32.33-1.06,1.08.27.33-.65,1.33-10-1-10-1l-.61-1.92a14.16,14.16,0,0,0-.25-3.42c-.33-.92-1-.63-.83.85s-.43,1.77-.47,2.71-.37-2.56-.2-3.56-.42-1.67-1-1.08-.5.42-1.75.17-.25.58-1.92.58-2.58-.5-3.17-.17-1.35-1-1.3.25.35,1.1-.45,1.51-2.19,1-2.25.5-1.17-1.6,0-2.35,3.33-1.25,3.67-.58,1.67-.39,2.25-.4.58.74,1.25.57,1-.64,1.83-.57,1-.93,1.75-.93,1.17-.25,1.75-.08.58.42,1.33.17,2.33-1.08,1.08-1.08a7.52,7.52,0,0,0-1.93.17c-1.23.17-2.23-.67-1.4-.67s-.17-.33-1.42.25-1.17-.17-1.42.08-.92.75-1.17,1a7.13,7.13,0,0,1-2.83.58c-.58-.08-1.92-.67-1.33-1s-1.15-.51-1.53,0S701.13,436.25,701.13,436.25Z" transform="translate(-687.44 -423.77)"/><path class="cls-2" d="M810.25,446.25c-1.62-.25-1.87.75-2.62,0s-2.12-2-2.37-3.12a20.5,20.5,0,0,0-1.87-4.77,12,12,0,0,1-1.75-3.1,4.55,4.55,0,0,0-1.85-2.62c-.52-.25-.31.13-.66-1.37a3.4,3.4,0,0,0-.82-1.51,3.08,3.08,0,0,0,1-.05c1.7-.31.63,1.06,1.75,2s1.88-.36,2.5-.11a12.08,12.08,0,0,0,3,0c1.15,0,1.47-.5,1.22-1.94s-1.62.06-2.5,0a2.6,2.6,0,0,1-2.4-.91c-1.15-1.1-.85-.4-2.49-.57s-.74-.33.51-1.48-.5-1.23-2.37-2.1-.21,1.06-.69,2.75a3,3,0,0,0-.13,2c-.15,0-.22.2-.13.62.32,1.38-.05.25-.61,2.63s-2.42-.75-2.05,2.38.61,4.83,2.05,3.35-1.69-3.35,0-3.35.9-3.35,2.17-.55.89,1,2,5,1.5-.29,3.13,5a6,6,0,0,1-3.12-2.12c-1.12-1.62-2.47.08-3.31-.5s-.7-2.89-1.5-1.32-2.68,2.94-.68,2.94,3.72.25,4.74,1.13,1.76.13,3,1.75,2.53.54,3.15,1.76-.4,2.33,1,2.22a9,9,0,0,0,2.75-.77S811.88,446.5,810.25,446.25Z" transform="translate(-687.44 -423.77)"/><path class="cls-2" d="M794.89,428.72c-.44-1.62-.3-2.47-1.53-1.72s-1.66,1.76-.63,2.38S795.13,429.64,794.89,428.72Z" transform="translate(-687.44 -423.77)"/><path class="cls-2" d="M815.75,437.55c-1-.08,0-.92,0-2.3s-.87-1.12-1.87-1.5-1.37-.62-1.25-2.25.75-1.62,0-2.12-1.37.25-1.65,2-.5,3.88,1.65,3.88c1,0,3.13,2.3,2.75,3.1s.63,1.65,1.38,1.46,1.25-.18,1.25-1.46S816.75,437.63,815.75,437.55Z" transform="translate(-687.44 -423.77)"/><path class="cls-2" d="M824.56,442.5c-1.31-1.25-1.19,0-1.06,1.25s.75,1.24,2.13,1.38c.82.08,1.5.25,1.5-1.57S825.88,443.75,824.56,442.5Z" transform="translate(-687.44 -423.77)"/><path class="cls-2" d="M783.83,428.21c-.83.67-1.62,1-1,1.48,1.52,1.19,2,.77,2-.46S784.65,427.54,783.83,428.21Z" transform="translate(-687.44 -423.77)"/><path class="cls-2" d="M779.38,432.63c-1.25.75.13,1.75,1.81,1.91s.91-1.14,0-2.43C780.78,431.52,780.63,431.88,779.38,432.63Z" transform="translate(-687.44 -423.77)"/><path class="cls-2" d="M775.93,437.41a2.39,2.39,0,0,1-.3.14S776.06,437.81,775.93,437.41Z" transform="translate(-687.44 -423.77)"/><path class="cls-2" d="M776.63,435.38c-.62,0-1.76.31-1,1.47a2.71,2.71,0,0,1,.3.57C777.23,436.77,777.21,435.38,776.63,435.38Z" transform="translate(-687.44 -423.77)"/><path class="cls-2" d="M773,442.5c-.53,2,.1,2.19-1,2.22s-2.62.4-1.5,1.53,2,2.59,1.13,3-.12.75-1.5,1-1.89-1-3.13-1-2.49-.39-3.24,0-1.75,0,0-1.31-1.37-3.55,0-3.92,1.62-1.22,2.5-.42,1.46-2,2.36-2.45.64-.87,1.77-.37,3.3-3.11,1.88-3.91c-.76-.43,2.91-3,1.21-3.09s-1.21.34-1.83,1.55-2.87,1.05-1.75,2.25,1,.83-.31,1.7-.19-.5-1.94,0-3.12.13-2,1.38-.25,1.34-1.12,1.36-2.32-.61-1.78.89.84,3.25,0,3.38-1.33.22-2,1.67-1.1.67-1.77,2.31,8.7,3.94,8.7,3.94l7.47,1.54v-13S773.55,440.5,773,442.5Z" transform="translate(-687.44 -423.77)"/><path class="cls-2" d="M767,445.17c-1,.31-2.87.7-1.74,2.08s2.38,1.63,2.38,0S767.64,445,767,445.17Z" transform="translate(-687.44 -423.77)"/><path class="cls-2" d="M759.88,438.35s-1.55,2.53.82,3,1.3-1.67.8-3a8.89,8.89,0,0,0-2.12-3c-.5-.5-1.88-1.52-1.13-2.2s1.06-2.3-.22-2.18-3.77.86-2.15,2.18,1.74.45,2.37,2.2S760.32,436.34,759.88,438.35Z" transform="translate(-687.44 -423.77)"/><path class="cls-2" d="M855.07,457.37s2.18,2.05.81,2-3.25-.46-2.5,1.35,2.78,1.17,3,2.55,2.17,2.72,2.92,2.05.63-3,2.13-1.09.5,1.91.75,2.79.13-.24,1.88.76,2.54.53,2.77,2.14.85,2.64-.65,2.31a5.53,5.53,0,0,1-3.25-1.75c-.87-.95-2.2-1.94-2.72-1.19s-1.28,1.15-1.9.63-2.25-1.37-1,.56,1.13,2.69.38,2.93-2-1.74-2.25-2.93,0-1.79-1.37-1.12-1.87,1.15-2.25.41-1.87-3.89-1-3.75.84-1.61-.27-1.36A1.93,1.93,0,0,0,849,467a5.19,5.19,0,0,1,.63,2.34c.25,1.79.3,2.86-.72,2.83s0-3.14-1.15-1.71-2.37-.3-1.5,1.75,2-1,2,1.2-.5,1.35-1.75,1.72-3,2.13-.54,2.38,3.17,1.17,4.17.9.25.31,1.13-1.48.88-3.09,2-2.82,2.5,2.15,1.63,1.9-1.12-.37-1.87,0-.5,1.25-.87,1.75.25,2.25.25,2.25,1.75-2,2.13-1.6,2.71.73,1.42,1.6a4.4,4.4,0,0,1-2.67.79,9.18,9.18,0,0,0-2,.83s-1.37-.17-1.62-.83-.25-.42-1.37-.79a3,3,0,0,0-2,0l-1.12.79,1.13,2.21s1.63-1.62,3,0,.25,2.25-1,2-3.72-.87-4.11-.62-.77,1-1.39.68a16,16,0,0,0-2.33-.61s-6.42-3.65-6.42-3.65l-26-8.16-1.47-13.1Z" transform="translate(-687.44 -423.77)"/><path class="cls-1" d="M866.86,428.78a1.24,1.24,0,0,0-.86-1c-.75-.17.25-.5-.42-1s-1.58-1.58-1.75-.92-1.17.41-1.25-.21.08-2-.46-1.46.54,1,0,1.33-1.71.25-1.62-.83-.83-1.33-.75.08-1.08,1.25-1.42.58-.58-.5-1.08-.17-1.33-.67-.75-.67-1.5-.58-.83.92-.75,1-1.25,1.42a3.46,3.46,0,0,1-2.58.42c-.67-.25-1.67-1-2.5-.25s-.42.42-1.75.58a2.56,2.56,0,0,0-2.08,1.19c-.58.64-.66-1-1.54.45s-.58,1.61-1.77,2.19-1.27,1.83-.94,2.17-.58,1-.83,2.33a6.44,6.44,0,0,1-.58,2.43c-.5,1-.17,1.73-1.33,2.65s-2,2.13-2.47,1-1.57,1-.46,1.27.4.83,0,1.33.54,2.25-.47,1.75-1.43-.17-1.09-1.58.61-3.17-.11-3.33-.61-1.66,0-1.58.61-1.8,0-1.49-.75-2.33-1.25-.8.5,1.12,0,2.29-1,1.75-.5,2.66,1.5.42,1.08,2.25-.6,2.94-.38,2.92S836,448,836,448l4.66-2.13s-.19-1.37-1-1.46-2,.24-1.17-.84,1.25-1.83,1.92-2.74.17-1.75.67-2.92-.75-1.3.5-2,3.17-2.31,2.38-2.56-1.38-.25-1.21-1,.42-1.58,1.21-1.58,1.87-.15,1.71-1.06.33-1,1.17-.91a5,5,0,0,0,2.58-.05c.84-.39.42-.89,1.51-.52a4.67,4.67,0,0,0,2.67.52c1.25-.14,1.83-1.5,2.33-1.65s.67-.53,1.5-.34,2.25-1,1.92,0-.42.36-1.25,1-.42,1.39.25,1,1.83-.61,1.83-1.28.75-.88,1.25-.77.83.36.08,1-1.83,1-.75,1,1.58.22,2.25-.57,1.75-1.46,1.33-.37,0,.7-.67,1.39-.08,1.52-.83,1.52-.25-1.46-1.17-1.06-1.08.81-1.83.81-.25-.87-1.17-.81-1.5-.81-1.83,0a2.46,2.46,0,0,0-.15.69c0,.32-.11.43-.93.21a6.33,6.33,0,0,1-2-.9,7.61,7.61,0,0,1,.33,1.65c0,.58-.67.25-1.67.33s-.92.75-1.67.75-1.08-1.42-1.92-.75-.33,1.25-.33,1.83-.33-.1-.58,1,.5,1.82-.25,2.31-1.33-.09-1.42,1.16-.17.92-1.25,1.84-.25,1.79-1,2.15a2.21,2.21,0,0,1-1.38.35c-.67,0-2.42-.75-1.83.17s.46,1.32,1.44,1.08,1.15.67.65,1.17-.42,1.33,0,1.5,1.67-.74,1.67-1.08,1.08-2.25,1.58-2.25-1.67-1.33-.33-1.83,1.75-.58,1.75.5a6.52,6.52,0,0,1-.5,2.33c-.17.5-.67,1,0,1.25s.75,0,1.17-1.17.82-2.33,1.24-1.33-.08,2.42.59,2.5,1.83.15.92-1.59-1.67-2.08-1-2.41.92-1.16,2-1.33.83-1,1.75-.84.5.58.58,1.92-.58,1.67-.67,2.25.67,1,.67,1,1.08-1.62,1.42-2.18.92-2.48,1.5-2.15.17-1.64,1.17-1.49,2.25-.85,1.5.48a5.66,5.66,0,0,1-1.33,1.75s.5,1.58-.17,1.92-1.33.4-1.33,1.08-.33,2.17.08,2.09.5-.58,1.33-1.58,1.92-1.42,2.33-1.17.75,1.42.5,1.67-.83,1-.83,1l.21,1,3.46.09-.17-4.39-.48-3.33s-.69-1.33-1.85-1-.67-.19-1.67-.68a4.51,4.51,0,0,0-1.83-.48h-1.17s-2.08-1.31-2.08-1,.58,1.09-.08,1.43-1-.22-1.83.23-1.58.78-2,.45-.83-.13-1.08.35a2.62,2.62,0,0,0-.42,1.49c.09.41,0,1.33-.74,1.25s-1.42-.41-1.42-1.25a1.34,1.34,0,0,1,1.17-1.49c.67,0,1.5-1.51,1.5-1.51s-.08-2.19.5-2.31,1.33-.38,1.92,0,.75,2.08,1.5,1.36,1-1.72.67-1.81-1.83-1-.67-1.5,1.92.92,2,1.17.75,1.5,1.08,1.25,1.58-1,1.58-1l.75-1.33a9.32,9.32,0,0,0-2-.92c-.58-.08-.17-1.67.33-1.67a1.18,1.18,0,0,1,1.17.5c.42.5,1.92.5,2.42.42s.58.67,1,.92-.21.17-1.21.42-1.25.5-1,.67a17.74,17.74,0,0,0,2.21.58l1.13-.67s-.42-.75.08-1.17.33-1.25,1.08-1.17,1.08.75.92,1.08a18.38,18.38,0,0,1-.92,1.83c-.42.67-.75,1.25-.42,1.58s.33,1.51.75,1.76-.42,1.44.42,1.51a12.43,12.43,0,0,0,1.69,0Z" transform="translate(-687.44 -423.77)"/><path class="cls-1" d="M728.11,478.66s-2.92.34-3.23-.35,0-.87-.89-.62-1.68.7-2.43.48-.94-.73-1.94-.29a14.62,14.62,0,0,1-2.37.56c-1.06.31-2.17.31-2.75,1.31s-1.42,1.17-2,.75-.58-.87,0-1.35-1.25-.56-2,.44a2.47,2.47,0,0,1-2.42,1.13c-.75-.13-3.25-1.63-2.25-2s3.67-.59,2.33-1.17-1.47-.58-2.57,0-1.93,1.33-3.18.42a2.16,2.16,0,0,1-1-2.08h2.5s2.25,3.83,2.25-.75-.75-4.18-1-3-.17,3.18-.58,3.09-1-.08-1.25-.92-1.94-.5-1.94-.5-4-1.48-1.65-2.45,1.17-.47,3.08-1.22,2.17-1.83,3-.83,3,2,2.08,0-1.83-2.92-2.58-2.17-3.33,1.25-3.33.25.17-1.42,1.83-1.42,2.67.25,2.25-.92-.25-3.07-.92-2.83-1.17,1.24-2.08-.67.75-1.5-1.08-3,2.15-1.71,0-1.77-3.25.35-3.43-1.23-.1-2.5-1.1-2.5.25.08-.67-1-2.83-5.87-2.83-5.87l13.33,5.42,22.58,5.15L749,461.25l3.5,3.92,3.83,9.25-4.17,3.83-8.58,2Z" transform="translate(-687.44 -423.77)"/><path class="cls-3" d="M800.36,452.62s4.58-3.37,8.2-3.62,8.87.88,11.19-.69,12.44-.56,12.44-.56,2-.26,3.06-.32,2.19-1.68,5.44-1.56,6.75-.56,19.94.75h2.13s1.19-.94.94-1.94-1.81-3.12-.25-5.69c0,0,.69-1.31,1.38,0a3.3,3.3,0,0,0,.56,1.63c.56.88.75.25,1.06,1.38,0,0-.4-3.35-.38-5.5,0-.11,0-.21,0-.31.06-2.12-.75-6.44.38-6.94,0,0,.5-1.19,1.31,0s3.38,7.06,4.13,8.19a4.2,4.2,0,0,1,.88,3.5c-.19,1.81.06,3.06-.62,5.5s.56,3.63-2.81,6.5-6.12,2.25-7.19,2.38-12.06,3.63-12.06,3.63a15.22,15.22,0,0,1-6.5.44c-3.87-.5-8.19,2.63-23.69,7.94l-6.37,2.43h-6.94l-4-1.4-3.31-5.11Z" transform="translate(-687.44 -423.77)"/><path class="cls-3" d="M773.16,454.33a7.54,7.54,0,0,0-3.85-.52s-1.12-1.31-4.19-1.56-4.06-2.47-8.31-2-13.25-.83-16.69-.06a37.86,37.86,0,0,0-8-.67,9.2,9.2,0,0,1-2-.56s-.06-.69-2.44-1.19-15.25-4.69-26.19-6a18.21,18.21,0,0,1-2.08-.46l-.23-.1s2.56.06,1.25-1.44c0,0,2-.19,1.06-1.37,0,0,1.88-.94-.37-2.12s-3.81-1.12-5.81-1.25-3.19-1.37-5.19.38a1.71,1.71,0,0,0-.44,1.38c.13.81-1,1.38-1,1.38a1.19,1.19,0,0,0-.62,1c-.12.81.69.75-.31,1.94s.75,2.38.75,2.38.5.19.19,1.31.62,2.13,2.37,2.88a18.73,18.73,0,0,1,3.62,2.06c.19.19,2.06,2.44,2.06,2.44s.44.38,1.31,0,.63-1.12.5-1.62a1.29,1.29,0,0,0-.62-.75s3.44,1.5,6.56,2.5,7.31,5.31,16.5,6.69a15.72,15.72,0,0,1,6.94,2.19,64.63,64.63,0,0,0,16.44,6.13,7.48,7.48,0,0,1,2.75,1.63l4.25.87,4.75.42,2.69-1.82.31-2.78,1.5-3.31.81-1.63H763l2.19,1.63h1.25l2.19-2-.5-1.08,1.13-.66,1.19.66,1.56.16,1.16-.16.65-2.74Z" transform="translate(-687.44 -423.77)"/><g class="cls-4"><path d="M699.44,441.18c.61,0,2-.23,1-1.43,0,0,2-.19,1.06-1.37A1.92,1.92,0,0,0,702,438h0c-.38-1.3-.78-1.2-2.45-2.12s-4,0-4,0a10.85,10.85,0,0,1,1.92,3.67A3.45,3.45,0,0,0,699.44,441.18Z" transform="translate(-687.44 -423.77)"/><path d="M701.13,441.68h0Z" transform="translate(-687.44 -423.77)"/></g><g class="cls-4"><path d="M697.94,449.75l.58.65A1.39,1.39,0,0,0,697.94,449.75Z" transform="translate(-687.44 -423.77)"/><path d="M759.56,459.33c-1.19-.73-4.62-.82-4.62-.82a7.65,7.65,0,0,1,4.31-1s-.37-1.56-3.06-2.75-8.12-.44-8.12-.44c1.94-1.44,6.19-1.62,6.19-1.62s-.5-.81-4.12-.87h-.31a12.08,12.08,0,0,0-6.19,2A5.52,5.52,0,0,1,747,451.5a65.55,65.55,0,0,0-7.56-.5,7.4,7.4,0,0,0-4.06,1.31,6.36,6.36,0,0,1,2.31-1.62s-6-.62-7.06-1a30.92,30.92,0,0,0-5.44-.31,10.41,10.41,0,0,1,1.25-.44,16.64,16.64,0,0,1,3.69,0,1.82,1.82,0,0,0-.36-.43,3.14,3.14,0,0,0-.62-.33l-.86-.28-.53-.13a20.47,20.47,0,0,1-4.68-.58,14.5,14.5,0,0,0-4.81-.56c-4,.35-15.37-4.19-17.87-4.19a9.38,9.38,0,0,1-3.69-.56,6.82,6.82,0,0,0-2.25-.81c-.94-.06-1.25-.62-.91-1.06s1.84-.31,1.84-.31c-.62-.62-2.25-.37-2.25-.37-.75-.37.38-.87.38-.87.56-.75-.62-1.37-1.45-2.56s0-1.41,0-1.41a3.23,3.23,0,0,0-1.93.91,1.71,1.71,0,0,0-.44,1.38c.13.81-1,1.38-1,1.38a1.19,1.19,0,0,0-.62,1c-.12.81.69.75-.31,1.94s.75,2.38.75,2.38.5.19.19,1.31.62,2.13,2.37,2.88a18.73,18.73,0,0,1,3.62,2.06c.19.19,2.06,2.44,2.06,2.44a1.06,1.06,0,0,0,.81.14c-.21-.49-.51-1-.75-1.58-.44-1-.25-1.31-.25-1.31l1.37.38s3.44,1.5,6.56,2.5,7.31,5.31,16.5,6.69a15.72,15.72,0,0,1,6.94,2.19,64.63,64.63,0,0,0,16.44,6.13,7.48,7.48,0,0,1,2.75,1.63l4.25.87,4.75.42,2.69-1.82.31-2.78,1.5-3.31.07-.14A3.43,3.43,0,0,0,759.56,459.33Zm-34.27-6.71a9.18,9.18,0,0,0-2.67,0c-1.17.25-2.33.33-2.08,0s1-.36,1-.36a3,3,0,0,1-1.08-.35c-.62-.58,1-.58,1.5-.33a5.8,5.8,0,0,0,1.58.33,5.7,5.7,0,0,0,1.46,0c.38-.08,1.13,0,1.13.39S725.29,452.63,725.29,452.63Z" transform="translate(-687.44 -423.77)"/></g><path class="cls-4" d="M761.92,457.42a7.21,7.21,0,0,0-3.5-4.58,41.27,41.27,0,0,1-6.25-1.83,23.58,23.58,0,0,0,4.33,0C757.92,450.75,765.08,450.75,761.92,457.42Z" transform="translate(-687.44 -423.77)"/><path class="cls-4" d="M806.56,469.74h6.94l6.38-2.43c15.5-5.31,19.81-8.44,23.69-7.94a15.22,15.22,0,0,0,6.5-.44s11-3.5,12.06-3.62,3.81.5,7.19-2.37c2.57-2.19,2.46-3.4,2.56-4.93-2.21,4-7,2-15.46,1.22s-10.75,4.68-12.83,3.77a6.58,6.58,0,0,0-3.42-.69c1.33,1.14-.08,2.69-5.92.44s-8-1.17-8-1.17c5.17,7.83-8.92,11.66-8.92,11.66-1.5,1.07-4.75,0-4.75,0s4-.66-.58-3.91-.58-7-.58-7-3.58,2.44-3.67,5.11-3.25,2.69-3.25,2.69a2.9,2.9,0,0,0-2.83-3.29c3.45,3.26-2.07,4.64-2.23,4.68l-.18,1.74,3.31,5.11Z" transform="translate(-687.44 -423.77)"/><path class="cls-4" d="M843.92,451a9.39,9.39,0,0,0-3.5-1.77S844.42,445.33,843.92,451Z" transform="translate(-687.44 -423.77)"/><path class="cls-4" d="M868.81,445.81c-1.75-1.06-.06-1.5-.06-1.5,1.31-1.62.92-5.1.92-5.1a3.1,3.1,0,0,1,1.75-.42,3.06,3.06,0,0,0-2.25-.25,3.83,3.83,0,0,1,1.75-.87c-.46-.42-1.67-.17-1.67-.17a3.45,3.45,0,0,1,1.67-.54.85.85,0,0,0-.83-.33,8,8,0,0,0-.42-1.21c-.25-.54.42-.51.42-.51a1.09,1.09,0,0,0-.71-.62,24.05,24.05,0,0,0-1.08-3.21c-.83-2.15-1.34-2.3-1.43-2.31a1.07,1.07,0,0,0-.42.47c-1.12.5-.31,4.81-.37,6.94,0,.1,0,.21,0,.31,0,2.15.38,5.5.38,5.5-.94.54-.79-1-1.85-1.37s-.87-2-.87-2h0a1.69,1.69,0,0,0-.28.37c-1.56,2.56,0,4.69.25,5.69s-.94,1.94-.94,1.94h-.62c4.42.27,3.13-.06,4.75-.37s3.94,1.67,3.94,1.67S870.56,446.88,868.81,445.81Z" transform="translate(-687.44 -423.77)"/><path class="cls-4" d="M773.46,457.93a6.37,6.37,0,0,0-1.83-1c-1-.32-2.37.13-3.75,0s-3.75,1.16-3.75,1.16a2.77,2.77,0,0,1,1.88,1.24c.81,1.9-2.24,1.85-2.24,1.85h0l1.43,1.07h1.25l2.19-2-.5-1.08,1.13-.66,1.19.66,1.56.16,1.16-.16.3-1.25Z" transform="translate(-687.44 -423.77)"/><path class="cls-1" d="M780,486.9s2.5,1,2-.65,1.17-.37.83.65,2.55,1.08,2.35-.57,1.21,1,3.56.57,2.51-2.42,4.09-1.45,2.77.3,2.05,1.88,4.61-.92,4.36-1.42,2.92-1,3.67.25a2.13,2.13,0,0,0,3.17.35c.42-.69,2.58-.56,3.5,0s2.08,1,3.08,0,4.5,0,4.5,0,4.58-1.23,4,0,2.67,1.27,2.5,0-2.65-1.44,0-2.27.83-2.83,3.41-1,3.17.08,5.75.92,2.92-.93,4.23-.39,3.94,1.59,3.38,0,.19-1.34,1.13-1.27,1.63-1.81.31-1.87-2.94.19-2.81-.37-1.06-.19-1.75-.31-2.06-.5-.69-1.25,1.44-1.44,2.56-.87,2.5.65,2.56-.21a2,2,0,0,1,1.63-1.79q1.31-.19.38-2.06c-.62-1.25-.25-1.87-1.5-1.56s-2.37.63-2.31,1.38a2,2,0,0,1-.5,1.88c-.69.94-.19,1.13-1.81,1.38s.05.44-1.6,1-2.59.44-2.9-.44.13-2.37-.69-1.62-.94,1.94-1.5,1.69-1.75-.44-1.94-1.62-1-.62-1.25-.37-.31-.5-.06-1.25-1.19-1.31-1.5-.12-1.44,1.5-1.87.75-.44.25-.44-1.69.25-1.51-.75-.57-2.44.33-1.81.07,1.19,0,.69-.87-.56-.39-1.31-.64-1.37-.48-.62-1,1.19-.87.56-1-1.5.26-1.12-.77.25-1.72,1-2,0,.2,1.06-1.09,1.06-2.56.56-2.05-.06.57-1.12,1.7-1.81,1.36-2,2.05a1.23,1.23,0,0,1-1.31,1c-.69,0-.31-.75-1-.62s-1.5.75-1.75.25,0-.39-.94-.63-1.48-.32-1.93,0-.51-.12-.82-.55,0-1.12-.56-.87-.94.54-1.31.43-.44-.16-.69-.7-.37-1.33-1.12-1.09-1.19-.08-.62-.58,1.13.19.56-1.37-.44-1.94-.94-1.06-.87,1.69-1.44,1.06-2.06-1.8-2.37-1.53-.94.21-1.44.77a2.28,2.28,0,0,1-1.25.75c-.25.06-.89-.8-1.75,0L785.82,466" transform="translate(-687.44 -423.77)"/><path class="cls-5" d="M773.58,457.42s-.8.07-.55.68,0,.78-.78.78-1.31-.22-1.44.3-.69-1.49-1.12-1.08-1.44-.6-1.5.24-.87.2-.87.84,1.44.15.88,1.08-1.56.88-1.75,1.63-.56-.67-1.44-.69-2.25-.62-1.5-.94-.62-2.31-1.19-.72-1.17-.47-1.62.72-.07,1.91-.82,3-2.12,3.2-1.94,4.39c0,0,.13.38-.5.38s.12,1.11-.63,1.12-1.62,0-1.69-.77-.69,0-.37.77-2.35.51-2.58-.49-2,1.11-2.35.49-1.31-3.12-2.12-3.49-1.81-2.87-2.56-2,1.75.94,2.06,2.63.63,2.63-.25,2.09-4.81-1.49-4.25-2.36,1.2-1.52-.05-1.79-.88,1.32-2.45,1.09,0-2-2.19-1.66,2.5,1.56,1.38,2.63c0,0-.5,1.06,1.44,1.31s1.63,1.44.69,1.06-2.75-1.62-2.62-.75,0,1.86,1.25,1.87,2,2,.5,1.38-1.69-1.94-2.25-2-2.19-.94-1.75.31-1.06.19-1.25,1.19,1.19,1.5,1.81,1.25,2.19.06,1.56.38-1.94-.75-2.12.56.25,1.69-.87,1.94-1.62.19-1.19,1.31.88.88-.5,1.5-.44.69-2.62.69-1.77-1.17-2.85,0-2.08.67-3.25.67-3.17.75,2.25,1.08.33,1.5,1.67,1.92,2.5.08,3.83.42,2.67-.33,3.25.67,1.58,1.38,3,.77,2.17-1.36,3.25-.61-.92,1.5,1.33,1.5,4.15-1.12,4.87-.89.47.73,1.63.89,3.25-2.45,3.25-.89,1.5,2,2.42,2,.25-1.42,2.67-1.08,3.27.75,4,.75,1.53-.25,2.87-.25.25.67,2.58,1,2.17-.58,3.33-.42a6.23,6.23,0,0,1,2,.49c.38.18,1.88.66,2.63,0s2.08.08,2.67.34,1.92.58,1.92,0-.46-2.16.52-1.58,1.06.17,1.65-.33.44-.42,1.43-.17.71.33,1.26-.33,0-.37,1.17-.39.73-1.72,1.07-2S773.58,457.42,773.58,457.42Z" transform="translate(-687.44 -423.77)"/><path class="cls-3" d="M775.11,463.24s0,.14.07.4c.52,2.87,4,20.19,12.65,20.11,9.42-.08,11.42-21.5,11.42-21.5l-.14-7.17-6.86-4.85-17.14,4.1Z" transform="translate(-687.44 -423.77)"/><path class="cls-6" d="M799.11,460.33a5.14,5.14,0,0,0-.57-1.82,5.29,5.29,0,0,1-1.17,3.64h0a3.41,3.41,0,0,0-3.06-1.79c-3.75-.06-4,2.44-4,2.44-1.12.25-1.25.81-1.25.81a1.86,1.86,0,0,0-1.69,0v.23c0-.54-.21-.67-.67-.85s-.38-.5-.38-.5a3.55,3.55,0,0,0-3.48-2.06c-2.73,0-3.77,1.38-3.77,1.38a7.74,7.74,0,0,1-2.82-3c-.69,0-.62,1.15-.62,1.15,1.75,3.25,2.75,3.69,2.75,3.69,2.62,4,7.13,1.69,8,1.56.69-.1.91-.43,1-.87a5.08,5.08,0,0,1,1.9-.07c.78.79,1.31.44,1.31.44,1.15,1.5,3.75,1.29,3.75,1.29,1.89-.22,2.89-1,3.22-2h0A5.63,5.63,0,0,0,799.11,460.33Z" transform="translate(-687.44 -423.77)"/><ellipse class="cls-7" cx="95.09" cy="39.47" rx="3.16" ry="2.05"/><ellipse class="cls-7" cx="106.53" cy="39.47" rx="2.97" ry="2.05"/><path class="cls-8" d="M785.54,476s-.68,4.79,3.2,4.79,3-4.79,3-4.79Z" transform="translate(-687.44 -423.77)"/><path class="cls-9" d="M791.79,476s.17-1.91.17-2.62-1.37-1.26-2.33-1.17-3.71-.29-3.94,1a14.2,14.2,0,0,0-.15,2.79Z" transform="translate(-687.44 -423.77)"/><path class="cls-4" d="M791,471.61c1.11.29,1.62.47,1.86,1.33a10.23,10.23,0,0,1,.27,2,28.49,28.49,0,0,1,1.78-4.51,4.36,4.36,0,0,0-.15-4.53l1-.65,1.78-1.28-.16-1.84-1.94-1.58a3.28,3.28,0,0,1,2.11-1.23,2.45,2.45,0,0,0-1.5-.92,8,8,0,0,0-2.47.27,15.62,15.62,0,0,1-4.85-1.12l-5.91-1.88-7.72,2.18v5.38s0,.14.07.4c.52,2.87,4,20.19,12.65,20.11a6,6,0,0,0,.81-.07s-2.28-1.18-.52-2.12l2.51-1.33-1-8A1,1,0,0,1,791,471.61Z" transform="translate(-687.44 -423.77)"/><path class="cls-10" d="M792.31,469.13s1.69-.54.77,6.88A21.89,21.89,0,0,0,792.31,469.13Z" transform="translate(-687.44 -423.77)"/><path class="cls-11" d="M784.81,460.25s-.56-1.41-3.5-1.74-3.25.21-3.75.87C777.56,459.38,779.44,458.88,784.81,460.25Z" transform="translate(-687.44 -423.77)"/><path class="cls-10" d="M785.19,468.34a3.65,3.65,0,0,0-.22,1c0,.56,1,.44,1,.44l1.11-.08a5.33,5.33,0,0,1-1.48.42c-.8.09-1.12-.55-1-.91A3.42,3.42,0,0,1,785.19,468.34Z" transform="translate(-687.44 -423.77)"/><path class="cls-3" d="M789.47,469.89s.8-.39,0-1.22a2.31,2.31,0,0,1-.73-1.68V464.2a20.24,20.24,0,0,0,2.66,3.67c1.09,1,.9,1.25.9,1.25l.07.21-.42.39A6.48,6.48,0,0,0,789.47,469.89Z" transform="translate(-687.44 -423.77)"/><path class="cls-10" d="M792.09,468.34a1.38,1.38,0,0,1,.22.78c0,.56-.66.47-.66.47s-.62,0-1.37,0,.91.18,1.5.28a.74.74,0,0,0,.94-.77C792.66,468.66,792.09,468.34,792.09,468.34Z" transform="translate(-687.44 -423.77)"/><path class="cls-10" d="M790.63,469.33a3.5,3.5,0,0,1-3.94.14A2.43,2.43,0,0,0,790.63,469.33Z" transform="translate(-687.44 -423.77)"/><path class="cls-11" d="M792,460.25a3.19,3.19,0,0,1,2.48-1.83c2-.42,2.67-.47,3.37.1A40.51,40.51,0,0,0,792,460.25Z" transform="translate(-687.44 -423.77)"/><path class="cls-10" d="M783.92,476.92s-.71-6.81,1.27-8.57C785.19,468.34,782.08,468.75,783.92,476.92Z" transform="translate(-687.44 -423.77)"/><path class="cls-12" d="M785.13,436.88a11.42,11.42,0,0,0-10.87,7.63c-3.25,8.13,1,19.13,1,19.13s-.5-5.14,2.38-5.7,12,.07,17.5-.93c0,0,4.13-1.37,4.13,5.25C799.25,462.25,806.25,435.75,785.13,436.88Z" transform="translate(-687.44 -423.77)"/><path class="cls-11" d="M785.82,476.21s-.53-3.87,3.1-3.58c0,0,2.71-.5,2.67,3.13,0,0-.17,4.25-2.9,4.25S785.82,476.21,785.82,476.21Z" transform="translate(-687.44 -423.77)"/><path class="cls-13" d="M791,473.44a2.23,2.23,0,0,0-2.08-.82,2.58,2.58,0,0,0-2.61,1.07A5,5,0,0,0,791,473.44Z" transform="translate(-687.44 -423.77)"/><path class="cls-13" d="M791,478.28a7,7,0,0,1-4.65,0l0,.13a2.45,2.45,0,0,0,4.63-.12Z" transform="translate(-687.44 -423.77)"/><path class="cls-6" d="M799.11,449.23c0,1.23-1.61,4.85-3.77,4.6s-6-.83-7.25-7.42.75-6.33,1.58-7.33-1.5-1.33-3-1.5a23.64,23.64,0,0,0-4.53.33c-5.64,1.41-8.68,9.17-8.71,9.25-1.6,7.67,1.79,16.46,1.79,16.46s-.5-5.14,2.38-5.7,12,.07,17.5-.93c0,0,4.13-1.37,4.13,5.25,0,0,.33-6.08.5-9.94S799.08,448,799.11,449.23Z" transform="translate(-687.44 -423.77)"/><path class="cls-2" d="M794.91,426.73c-1,1.31-1.09-1.6,0-1.23S795.31,426.21,794.91,426.73Z" transform="translate(-687.44 -423.77)"/></svg>