<svg id="Laag_5" data-name="Laag 5" xmlns="http://www.w3.org/2000/svg" viewBox="0 0 124.58 455.91"><defs><style>.cls-1{fill:#575656;}.cls-2{fill:#efc2af;}.cls-3{fill:#d1a698;}.cls-4{fill:#1e1e1e;}.cls-5{fill:#111110;}.cls-6{fill:#ab9172;}.cls-7{fill:#a98277;}.cls-8{fill:#634139;}.cls-9{fill:#fff;}.cls-10{fill:#cf8d7a;}.cls-11{fill:#dda095;}.cls-12{fill:#2c120d;}.cls-13{fill:#cb171a;}.cls-14{fill:#eaeaea;}.cls-15{opacity:0.25;}.cls-16{fill:#be988e;}.cls-17{fill:#6e6e6d;}.cls-18{fill:#3f3f3f;}</style></defs><title>basketballer</title><path class="cls-1" d="M416.49,595s-1.06-5.82,1.32-10.58A103.51,103.51,0,0,1,420,567.28s-3.44-5.56,1.83-6.48,18.71,0,18.71,0,3.66-.39,2,5.43a139.26,139.26,0,0,1,10.22,16.92,58.67,58.67,0,0,0,8.46,9.25c4.23,3.44,5.82-.93,7.67,10.64,0,0-29.08,12.39-38.33-2.56C430.51,600.48,418.35,600.33,416.49,595Z" transform="translate(-416.26 -151.95)"/><path class="cls-1" d="M539.17,586.85s-5.82,5.55-16.39,5-24.59-5.82-33-5c0,0-10.44-1.47-13.55-5.36a15.19,15.19,0,0,1,1.12-8.91s.53-10.58,4.23-19.3c0,0-5.35-4.48,2.21-6.08s14.44,4,14.44,4l6.87,2.91s13.48,12,21.15,22.38C526.21,576.45,540.75,580,539.17,586.85Z" transform="translate(-416.26 -151.95)"/><path class="cls-2" d="M430.43,478.1c-13.82,20.27-10,44-10,44,.79,23.27,1.59,47.32,1.59,47.32.25,7.54,5.54,3.35,5.54,3.35,4.75-7.75,14.91-5.46,14.91-5.46l-1.59-3.53c-1.76-6.7-.53-16.57-.53-16.57,9.52-35.78,8.46-44.68,8.46-44.68-.44-4.85.18-7.05.18-7.05,1.41-3.08,3.26-7.4,3.26-7.4a63,63,0,0,0,5.16-6.3Z" transform="translate(-416.26 -151.95)"/><path class="cls-3" d="M420.46,522.08c.79,23.27,1.59,47.32,1.59,47.32.25,7.54,5.54,3.35,5.54,3.35a11.39,11.39,0,0,1,3.08-3.34h0c-6.34,2.32-5.33-3.74-5.33-3.74s1.33-38.67,3-63.67,27-17.49,27-17.49h0c1.18-1.5,2.08-2.74,2.08-2.74l-27-3.66C416.61,498.37,420.46,522.08,420.46,522.08Z" transform="translate(-416.26 -151.95)"/><path class="cls-2" d="M481.53,474.23s-11.1,24.86-1.32,46.53c0,0,5,20.35,3.17,37.27,0,0,11.1,10.84,21.68-4,0,0-3.7-12.69,0-34.37s1.59-32.78,1.32-35.69l4.23-11.37-19.3-6.35Z" transform="translate(-416.26 -151.95)"/><path class="cls-3" d="M486.27,470.56l-4.53,3.67s-11.1,24.86-1.32,46.53c0,0,5,20.35,3.17,37.27,0,0,5.32,5.19,12.1,3.47l0-.06s-6.1-2-7.85-5.2c0,0,.25-28.09-2.75-42.17s2-32,2-32,6.31-3.16,19.28-2.74Z" transform="translate(-416.26 -151.95)"/><path class="cls-4" d="M437.41,353.69a9.26,9.26,0,0,0,0,3.51s-6.37,28.55-11.66,81.6L423.46,476a23.17,23.17,0,0,1,7,2.12c3.6,1.76,34.62,5.64,48.37,3.17a31.31,31.31,0,0,0,0-8.81s17.63,14.1,44.06,2.47a41.73,41.73,0,0,0,0-7.45s2.82-60.31-9.87-103.27c0,0,1.76-1.72.71-6.66Z" transform="translate(-416.26 -151.95)"/><path class="cls-5" d="M453.29,481.29c.63.11,1.33.19,2.07.24Z" transform="translate(-416.26 -151.95)"/><path class="cls-5" d="M430,466.29c1-11.16,1.76-46.94,1.76-46.94a242.2,242.2,0,0,1,.35,28.17c-.79,13.22,0,30.58,0,30.58,6.78,1.37,16,2.56,21.2,3.19-7.93-1.35-8-6.53-8-6.53S453,442,452.71,423.2s-5.55-43.09-6.35-48.91a76.64,76.64,0,0,1-.53-11.9c-2.12,7.14-2.91,28.82-4,20.09s.79-21.68.79-21.68c-4.76,11.37-9,40.45-9,40.45,0-13.22,6.35-44.42,6.35-44.42,6.87,2.12,26.3,4.52,26.3,4.52l-1.19-6.27-27.73-1.4a9.27,9.27,0,0,0,0,3.51s-6.37,28.55-11.66,81.6L423.46,476a22.11,22.11,0,0,1,4.36,1S429,477.41,430,466.29Z" transform="translate(-416.26 -151.95)"/><path class="cls-5" d="M457.43,481.76s9.29.31-1.38-.19l-.69,0,2.08.23Z" transform="translate(-416.26 -151.95)"/><path class="cls-2" d="M444.65,194.51s-2.12-1.45-2.91-.66-.53,5.68,2.91,11.24c0,0,3.57,2.78,4.76,1.06,0,0,2.25,10.58,3,16.66a14.4,14.4,0,0,1-1.85,6.87s-7.93,4.89-10,6.21c0,0,9.17,4.27,11.9,6.74a30.33,30.33,0,0,0,4.14,1.41,179.38,179.38,0,0,1,22.69,8.9,99.21,99.21,0,0,1,7.27-9.52,53,53,0,0,0,4.36-7.27s-8.33-4-9.25-6.74c0,0,0-14.81-.26-27.89,0,0,1.19.93,2.91-1.45s2.64-2.38,2.25-7.53-2.91-6.87-4.36-3.7l-.53-8.86-6.08-9.78-9.85-4L453,170.59l-7.67,8.59-2.51,7.14Z" transform="translate(-416.26 -151.95)"/><path class="cls-3" d="M481.4,201.67s1.19.93,2.91-1.45,2.64-2.38,2.25-7.53-2.91-6.87-4.36-3.7c0,0-2.31.87-1.81,4.47C481.2,199.34,481.4,201.67,481.4,201.67Z" transform="translate(-416.26 -151.95)"/><path class="cls-6" d="M441.35,176s-3.7,2.91-2.91,9.39a6.46,6.46,0,0,0,1.4-1.72,45.44,45.44,0,0,1,.72,7.53,1.45,1.45,0,0,0,1.19-.59,26.18,26.18,0,0,0,.88,3,11.09,11.09,0,0,1,4.27,4.85,50.71,50.71,0,0,0-1.52-9.91s2.25-.46,1.52-4.63l2.78-2.91a3.31,3.31,0,0,1-.86,2s3.11-.93,3.5-3.77a48.74,48.74,0,0,1,5-3.77c1.92-1.12,8.59-3.7,16.83-3.66a28.57,28.57,0,0,0,4.89,10.53,72.85,72.85,0,0,0,1.32,11.1s1.24-4.18,3-6.06a18.92,18.92,0,0,0,0-3.11,5.18,5.18,0,0,1,.92,1.41,13.26,13.26,0,0,0-1.06-6.08,2.72,2.72,0,0,1,1.08.71s-.64-5-2.93-7.4c0,0,.18-.26,1.23,0,0,0-1.5-2.73-3.35-3.61a6.73,6.73,0,0,0,0-3.08,4.41,4.41,0,0,1-1,1.06,31.8,31.8,0,0,0-3.7-7.14,5.69,5.69,0,0,1,0,1.85,28.69,28.69,0,0,1-5.46-5.64,3.94,3.94,0,0,0,.26,1.67,13.47,13.47,0,0,0-6.7-2.12,2.06,2.06,0,0,1,.62,1.5,17.36,17.36,0,0,1-3.7-3.79A5.23,5.23,0,0,0,459,156s-1.41-1.32,1.06-4.05a8.29,8.29,0,0,0-4.23,2.82,5.76,5.76,0,0,1,0-1.94s-2.64,1.67-3.44,3.79a3.5,3.5,0,0,0-1.94-.88,1.79,1.79,0,0,1,0,2.38,3.75,3.75,0,0,1-.88-2.91,6.13,6.13,0,0,0-2.29,5.2,6,6,0,0,1-1-1.85,8.17,8.17,0,0,0-1.67,4.32,5.35,5.35,0,0,1-1.06-1.59s-4.76,5.9-2.47,11.46a6.35,6.35,0,0,0-2.76.35S440.82,174.51,441.35,176Z" transform="translate(-416.26 -151.95)"/><path class="cls-3" d="M444.65,194.51s-2.12-1.45-2.91-.66-.53,5.68,2.91,11.24c0,0,3.57,2.78,4.76,1.06,0,0-1.21-4-2.51-7.67A33.3,33.3,0,0,0,444.65,194.51Z" transform="translate(-416.26 -151.95)"/><path class="cls-3" d="M451,211.08a9.61,9.61,0,0,0,4.76,7.23l2.91,1.94s1.76,2.29,6,1.94l5.29-.44a5.84,5.84,0,0,0,5.2-2.38,36.36,36.36,0,0,1,3.17-4s-3.26,5.71-5.82,6.82c0,0,1.59.58-.18,1.81s-3.44,1.32-1.15,3.08,3,3.26,1.94,4.41-9.23-3-12.82-7.8S452.89,220.91,451,211.08Z" transform="translate(-416.26 -151.95)"/><path class="cls-6" d="M448.22,193.19s-.35-2.73,2-3.35a66,66,0,0,1,7.67-1.06,2.21,2.21,0,0,1,.44,2.2C457.91,192.31,450.51,190.64,448.22,193.19Z" transform="translate(-416.26 -151.95)"/><path class="cls-6" d="M465.73,190.11s-.68-.53-.68-2.47c0,0,3.79-.88,7.05-1.67A4.59,4.59,0,0,1,477,188,21,21,0,0,0,465.73,190.11Z" transform="translate(-416.26 -151.95)"/><path class="cls-7" d="M460,202s-1.32,2.82,1.28,2.47c0,0,.84-.79,1.37.44s3.53,1.15,4.05-.53,1.06-1.15,1.06-1.15,2.29.26,1.85-1.23-.79-1.23-.79-1.23.53,1.23,0,1.59-2.06-.25-2.56,1.41a1.81,1.81,0,0,1-3.35.09c-.35-1.32-1.63-.09-1.63-.09S459.76,204.65,460,202Z" transform="translate(-416.26 -151.95)"/><path class="cls-8" d="M456.5,208s6.43,2.12,18.07-2.25C474.57,205.75,467.34,217.78,456.5,208Z" transform="translate(-416.26 -151.95)"/><polygon class="cls-9" points="43.74 56.71 44.65 59.13 50.27 59.55 54.78 57.3 54.78 54.99 50.99 56.18 45.05 56.45 43.74 56.71"/><path class="cls-10" d="M456.5,208a24.53,24.53,0,0,0,18.07-2.25A53.67,53.67,0,0,1,456.5,208Z" transform="translate(-416.26 -151.95)"/><path class="cls-11" d="M474.57,205.75s-3.81,7.47-8,7.93-7.89-3.37-10-5.68C456.5,208,465.1,215.53,474.57,205.75Z" transform="translate(-416.26 -151.95)"/><path class="cls-3" d="M456.15,209.22s-3.05-2.9,3.54-7.92C459.69,201.3,451.48,205.68,456.15,209.22Z" transform="translate(-416.26 -151.95)"/><path class="cls-3" d="M475.27,206.94s2.64-3.38-4.94-6.19C470.34,200.75,479.15,202.18,475.27,206.94Z" transform="translate(-416.26 -151.95)"/><path class="cls-7" d="M447.69,203.25s-1.59-.81-.79-3.1a21.7,21.7,0,0,0-4.05-5.29s-1.32-1.06-.79,1.67c0,0,.27-3.49,4,3.79C446,200.33,445.22,203.62,447.69,203.25Z" transform="translate(-416.26 -151.95)"/><path class="cls-12" d="M459.37,194.12a5.48,5.48,0,0,0-8.11,1A6.79,6.79,0,0,1,459.37,194.12Z" transform="translate(-416.26 -151.95)"/><path class="cls-12" d="M466.77,193s1.67-4.94,8.06-2C474.83,191,469.19,188.87,466.77,193Z" transform="translate(-416.26 -151.95)"/><path class="cls-13" d="M512.64,352.61a576.1,576.1,0,0,0-2.82-64.42s1.72-11.46-1.06-29A55,55,0,0,0,501,241.66s-5-2.7-10.09-5.51h-.31l.31.15a53,53,0,0,1-4.36,7.27,99.2,99.2,0,0,0-7.27,9.52,179.38,179.38,0,0,0-22.69-8.9,30.33,30.33,0,0,1-4.14-1.41c-2.73-2.47-11.9-6.74-11.9-6.74l.24-.15h-.24s-7.84,5.24-10.84,9.3c0,0,23.7-1.06,25,20.53l-15.09,12.55-1.85,8.5-1.72,6.75s-.66,4.76-7.14,4c0,0,.66,9.52,2.25,15.2,0,0,4.27,19.48,5.86,35v.88s-2.11,3-.71,4.58,64.51,21,77.37,4.41C513.7,357.55,515.64,354,512.64,352.61Z" transform="translate(-416.26 -151.95)"/><path class="cls-12" d="M456.85,193.9a1.53,1.53,0,0,0-.28-.88c-.28-.4-2.37-.32-2.63.17a1.54,1.54,0,1,0,2.91.71Z" transform="translate(-416.26 -151.95)"/><path class="cls-14" d="M429.07,299.27a7.17,7.17,0,0,0,7.77-3.27l-1.08-1.5s-2.25,4.31-6.83,3Z" transform="translate(-416.26 -151.95)"/><path class="cls-12" d="M472.34,191.54a1.54,1.54,0,0,0-.77-1.34,3,3,0,0,0-1.85.25,1.54,1.54,0,1,0,2.63,1.09Z" transform="translate(-416.26 -151.95)"/><path class="cls-15" d="M503.73,326.67l-17.18-21.1-44.94-18.79-3.95.44-1.61,6.31s-.66,4.76-7.14,4c0,0,.66,9.52,2.25,15.2,0,0,4.27,19.48,5.86,35v.88s-2.11,3-.71,4.58c.52.59,9.44,3.6,21.14,6.33-26.42-6.88-16.91-11.09-16.91-11.09.53-8.2-3.44-27.4-3.44-27.4s-1.59-17.81,1.32-10.37,6.87,16.35,10.31,16,10.84,1.62,10.84,1.62,13,9,20.09,4,9.33-4.49,9.33-4.49C494.9,332,503.73,326.67,503.73,326.67Z" transform="translate(-416.26 -151.95)"/><path class="cls-7" d="M482.19,197.89a2.3,2.3,0,0,0,0-3.3s2-8.75,3.17-3.6c0,0-.27-4.2-1.88-1.63a18.86,18.86,0,0,0-2.21,5.72S482.52,195.18,482.19,197.89Z" transform="translate(-416.26 -151.95)"/><path class="cls-3" d="M441.93,236.55s11.1-9.91,13,1.72c0,0,2.34-2.23-.2-7.53a9,9,0,0,1-2.73-4.55,13.08,13.08,0,0,1-1.39,3.49l-10,6.21Z" transform="translate(-416.26 -151.95)"/><path class="cls-3" d="M453.34,243s11-.23,16.35.57c0,0-8.56-.09-13.1.48Z" transform="translate(-416.26 -151.95)"/><path class="cls-3" d="M477.48,248.36a5.83,5.83,0,0,1-3.44-7.23S469.28,247.13,477.48,248.36Z" transform="translate(-416.26 -151.95)"/><path class="cls-14" d="M470.83,273.19l2.83-5.69,17.25-3,4.08,5.36a33.82,33.82,0,0,1,1.33,10.62l-3.14,3.69,3.15,2.61v10.45l-.66,4.44-4-11.67-4.5-5.83,5.32-5.67-1.57-7.33-2.24-2.28L477.48,271l-2.41,4.83Z" transform="translate(-416.26 -151.95)"/><path class="cls-14" d="M454.78,265.79l-6.54,5.44,7.47,2.38a26.28,26.28,0,0,0-3.9-20.75c-6.21-9.12-20.94-8.83-20.94-8.83h-.09c-.37.41-.72.82-1,1.21C429.78,245.26,453.47,244.2,454.78,265.79Z" transform="translate(-416.26 -151.95)"/><path class="cls-15" d="M508.42,263.72s.48,18.7-2.3,23.33a12.27,12.27,0,0,0-7.4.79c-3.57,1.72-21.93-.5-21.93-.5l2.89,5.26,14.81,4.63,14-7.67A75.14,75.14,0,0,0,508.42,263.72Z" transform="translate(-416.26 -151.95)"/><path class="cls-15" d="M453.34,258.31l.23.41a30.12,30.12,0,0,1,3.51,11.14,38.83,38.83,0,0,1,9.12,10.62l-6.43-.56-11-7.49" transform="translate(-416.26 -151.95)"/><path class="cls-2" d="M501,241.66a70.1,70.1,0,0,1,7.89,4.27s16.92.79,18.24,28c0,0,6.48,4.89,9.65,11.76s1.85,8.06,3.7,16.79a29.1,29.1,0,0,1,0,9c-.79,4.63.26,5.95-1.45,7.67s-4.1.26-10.44,3.3-26.31,7.14-45.47,1.06a22.62,22.62,0,0,0-7.53-1.45c-3.44.13-10.44-3.44-12.29-6.21,0,0-1.06-1.45-4.1-.4s-7.38-6-7.38-6l5.66-10.09,27.5,7,21.94-10.84,1.59-5.95s3.32-17-1.72-32.25Z" transform="translate(-416.26 -151.95)"/><path class="cls-2" d="M429.71,245.19a11.56,11.56,0,0,0-1.67,2.38s-4.94,1.41-7.4,9.17,1.59,16.22,1.59,16.22-.18,8.09,2.55,13.82,3.86,7.53,4.14,10.72c0,0,4.94,1.54,6.83-3,0,0,11.14,17.13,32.47,21.5,0,0,11.46,5.6,25.73-2.34,0,0,10.58-6.2,16-11s6.7-5.8,6.7-5.8-6.87-10.1-15.16-7.21-20.51-2.95-31.85-2.85c0,0-.94-9-14.86-16.52C454.83,270.25,458.71,245.45,429.71,245.19Z" transform="translate(-416.26 -151.95)"/><path class="cls-16" d="M435.75,294.5a74.17,74.17,0,0,1-6.83-12.95s-.53-2.43-3.7-4.9c0,0,1.76,2.34,3.7,8.93C428.92,285.57,431,291.38,435.75,294.5Z" transform="translate(-416.26 -151.95)"/><path class="cls-16" d="M459.19,315.47c3-1.06,4.1.4,4.1.4,1.85,2.78,8.86,6.35,12.29,6.21a22.62,22.62,0,0,1,7.53,1.45,73.42,73.42,0,0,0,28.31,2.82c-.2,0-18.27-2.17-19.45-4s4.35-5.95,4.35-5.95c9.9-11.9,29.22-25.25,29.22-25.25-4.49,1.19-8.86,5.68-8.86,5.68s-1.56-1.93-4.23-5.55-2-12.82-2.51-18.9a24.23,24.23,0,0,1,1.19-10.31c-1.59,1.85-2.9.76-2.9.76v0a61.41,61.41,0,0,1,1,6.31v.18q.07.72.12,1.43a71,71,0,0,1-.71,18c-.08.51-.14.78-.14.78l-.09.33c7.38,3.93,5.89,9,5.89,9-5-.09-9.33,7-9.33,7a61.18,61.18,0,0,1-16,10.12c-12.09,3.65-10,1.64-20.78.06s-16.41-6.57-16.41-6.57S456.15,316.52,459.19,315.47Z" transform="translate(-416.26 -151.95)"/><path class="cls-15" d="M479.68,258.17s4.76,12.07,4.49,23.38A28.39,28.39,0,0,0,479.68,258.17Z" transform="translate(-416.26 -151.95)"/><path class="cls-3" d="M479.95,307.67c-5.55-7.14-11.68-4-11.68-4-7.32-7.14-5.77-4.63-15.82-13.35s-11.1-15.07-11.1-15.07c-.5-12.56-6.86-23.29-10-27.81h0a1.9,1.9,0,0,1,.07-2.27l-1.75,0a11.56,11.56,0,0,0-1.67,2.38s-4.94,1.41-7.4,9.17,1.59,16.22,1.59,16.22-.18,8.09,2.55,13.82,3.86,7.53,4.14,10.72c0,0,4.94,1.54,6.83-3,0,0,11.14,17.13,32.47,21.5,0,0,8.9,4.34,20.78-.06C489,315.93,485.47,314.77,479.95,307.67Z" transform="translate(-416.26 -151.95)"/><path class="cls-3" d="M454.83,270.25a13,13,0,0,0-3.88-.83s2.64-.79,3.88-.44A2.61,2.61,0,0,1,454.83,270.25Z" transform="translate(-416.26 -151.95)"/><path class="cls-3" d="M527.14,274s-.93-.48-2.6-1.54a10.18,10.18,0,0,1,2.6.77Z" transform="translate(-416.26 -151.95)"/><path class="cls-5" d="M478.8,472.46a156.13,156.13,0,0,1,5.82-29.08c4.76-15.86,14.45-46,12.34-62,0,0,2.36,14.1.3,27.32S506.65,427,510.7,428c0,0-7.4,3.53-13.75,2.12a11.47,11.47,0,0,0,4.58,2.64s-6.15,1.54-9.87.53c0,0-1.76,6.7-1.76,9.34a17.31,17.31,0,0,0,12,6s-8.46,0-12.87-2.64a12.26,12.26,0,0,0,8.64,5.41q.43,0,.87.06c6.35.18-7.4,1.23-12-.53,0,0-2.73,11.27-3.88,17.27,0,0-2.3,6.71,18.5,11.28C501.18,479.52,492.55,481.1,478.8,472.46Z" transform="translate(-416.26 -151.95)"/><path class="cls-17" d="M425.58,591.91v-7.78l4.5-1.88L438.7,591a8.93,8.93,0,0,0-5.62,9.39S425.58,595.57,425.58,591.91Z" transform="translate(-416.26 -151.95)"/><path class="cls-18" d="M416.49,595c1.85,5.29,14,5.43,14,5.43,8.84,14.29,35.78,3.61,38.15,2.64l-.48-2.57-.78.39a2.82,2.82,0,0,0-3.12-2.87c-3.13.16-3.09,4.75-3.09,4.75-14.4,5.56-28.1-2.42-28.1-2.42s-7-7.64-11.25-9.39-4-6.53-4-6.53C415.44,589.23,416.49,595,416.49,595Z" transform="translate(-416.26 -151.95)"/><path class="cls-17" d="M496.1,577.42v-6.25l5.23-3.67,10.17,6.41s-1.77,6.09-3.88,8.59H499Z" transform="translate(-416.26 -151.95)"/><path class="cls-18" d="M476.18,581.49c3.11,3.89,13.55,5.36,13.55,5.36,8.46-.79,22.47,4.49,33,5s16.39-5,16.39-5a5,5,0,0,0-1.38-4.55h0a3.23,3.23,0,0,0-2.45,3.7c-3.91.71-19.75,2-27.72-3.5a34,34,0,0,0-16.24-5.83c-9.7-.08-14.08-4.09-14.08-4.09A15.19,15.19,0,0,0,476.18,581.49Z" transform="translate(-416.26 -151.95)"/><path class="cls-15" d="M420,567.28a103.52,103.52,0,0,0-2.15,17.18c-2.38,4.76-1.32,10.58-1.32,10.58,1.85,5.29,14,5.43,14,5.43,5.44,8.79,17.72,8.13,26.93,6.09.6-10.17-3.85-10.25-3.85-10.25-10-.68-11-5-11-5-13.77-12.89-11.88-21.9-11.88-21.9-4.17,1.92-1.58,4.34-5.08,4.37S422,569.4,422,569.4l-.25-8.6-1.63.57C417.36,563.07,420,567.28,420,567.28Z" transform="translate(-416.26 -151.95)"/><path class="cls-15" d="M481.53,553.28c-3.7,8.72-4.23,19.3-4.23,19.3a15.19,15.19,0,0,0-1.12,8.91c2.31,2.89,8.66,4.45,11.78,5.05a18.43,18.43,0,0,1-4.62-2.54,18.93,18.93,0,0,1,1.7-8c.2-10.27,2.92-15.18,2.92-15.18-3.39-.94-4.35-2.77-4.35-2.77a73.91,73.91,0,0,0,.15-10.83C476.18,548.79,481.53,553.28,481.53,553.28Z" transform="translate(-416.26 -151.95)"/><path class="cls-14" d="M492.49,236.83l-1.57-.87h-.31l.31.15a53,53,0,0,1-4.36,7.27,99.2,99.2,0,0,0-7.27,9.52,179.38,179.38,0,0,0-22.69-8.9,30.33,30.33,0,0,1-4.14-1.41c-2.73-2.47-11.9-6.74-11.9-6.74l.24-.15h-.24s-.49.33-1.28.89c0,0,8.44,4,12.54,7.26,0,0,15.55,4.46,27.87,11.21,0,0,10.38-13.62,12.81-18.23Z" transform="translate(-416.26 -151.95)"/><path class="cls-15" d="M429.71,245.19s.66,0,1.75,0c3.32-4.13,10.46-8.66,10.46-8.66l-1.37-.66S432.71,241.13,429.71,245.19Z" transform="translate(-416.26 -151.95)"/><path class="cls-14" d="M509,260.95q-.13-.89-.27-1.79A55,55,0,0,0,501,241.66l-2.07-1.11h0s5.44,12.52,9.48,23.17Z" transform="translate(-416.26 -151.95)"/></svg>