<svg id="Danser" xmlns="http://www.w3.org/2000/svg" viewBox="0 0 641.94 556.2"><defs><style>.cls-1{fill:#efc2af;}.cls-2{fill:#d1a698;}.cls-3{fill:#2c2b35;}.cls-4{fill:#d3a078;}.cls-5{fill:#b51918;}.cls-6{fill:#8c1816;}.cls-7{fill:#a98277;}.cls-8{fill:#fff;}.cls-9{fill:#61463c;}.cls-10{fill:#cf8d7a;}.cls-11{fill:#dda095;}.cls-12{fill:#edd9b0;}.cls-13{fill:#cebb9c;}.cls-14{fill:#efefef;}.cls-15{fill:#1e1e23;}.cls-16{fill:#c7c6c6;}.cls-17{fill:#3d3d3d;}.cls-18{fill:none;stroke:#3d3d3d;stroke-miterlimit:10;}</style></defs><title>danser</title><path class="cls-1" d="M235.6,277.73a43.73,43.73,0,0,1,.58-8c.74-4.85,1.4-12.49.33-16.93S234.78,234,234.78,234s-.74-6.66-3-10.68S227.87,205.46,227,198s-4.11-36.73-4.11-36.73a22.91,22.91,0,0,0-.9-4.44,11.81,11.81,0,0,1-.58-3.86,14.41,14.41,0,0,1,.49-3.29c.49-1.89-1.07-24.49-1.48-31.63a27.44,27.44,0,0,1,.41-5.18,51.29,51.29,0,0,0,1.07-7.23c0-1.73-.08-4.11-.08-4.11s.33-.74.82-.74a2,2,0,0,1,2.14.74,7,7,0,0,1,.82,4.77c-.25,1.64,1,10.35,1,10.35s.88,4.27,2.17,6.08a18.51,18.51,0,0,1,2.76,7.72s0-5.51,2.14-8.55,2.76-1.64,3.44-1.07.1,5.18.34,5.83-1.89,4.77-1.23,7.48,1.48,12.74-1.64,14.05-.74,14.79-.74,14.79a213,213,0,0,0,6.49,20.79c3.37,8.55,6.33,20.62,8.79,24.73s4,13.23,4.44,18,4.36,31.59,4.61,50.3Z"/><path class="cls-1" d="M398.23,434.69s-2.55,6-5.67,11.62l2,10.85,9.7,8.55,12.33-28.27Z"/><path class="cls-1" d="M443.69,440.54a172.88,172.88,0,0,1-9,18.43l3,10.6,5.05,8,6.66-1.54s10.78-19.17,13.68-23.42l2.4-1.29-7-10.11-14.85-2.59Z"/><path class="cls-2" d="M458.48,441.22l-14.85-2.59.06,1.91a172.88,172.88,0,0,1-9,18.43l3,10.6,5.05,8,6.66-1.54s10.78-19.17,13.68-23.42l2.4-1.29Zm-4.13,19.47c-2.47,4.31-6.24,3.73-6.24,3.73L447.2,467l-7.44-10.09s3.74-8.27,5.13-11.72,8.09-1.45,8.09-1.45,4.57-.15,5.77,3.09S456.82,456.38,454.35,460.7Z"/><path class="cls-1" d="M257.74,382.35a90.24,90.24,0,0,0,2.51,14.56,12.76,12.76,0,0,1,0,5.51c-.66,3.12-1,15.12-1.11,21.36s-7.77,15.53-12.45,44.45A288.71,288.71,0,0,1,236,502.66a12.71,12.71,0,0,1-2.69,1,3,3,0,0,0-3.2-1.42c-2.34.31-1.91,1.42-1.91,1.42s-1.29-2.1-2.53-2.22-3.08.18-3.82,1.6c0,0-1.6-.68-3.82.92s-4.07,1.36-3.08,3.51a2.5,2.5,0,0,0-1.42,1.48c-.37,1.11-5.05,1.36-4.5,3.82s9.61,1.17,9.61,1.17,2-.43,7.52.8,11.15.74,16.15,0,4.56.31,6.22-3.39,10-26,14.17-34.39,14.54-29.09,15.53-39.69,2.47-34,2.47-34a137.45,137.45,0,0,0,.82-15.37c0-8.79-1.05-10.85.53-13s1.36-5.75,1.36-5.75l-13.72-1.89Z"/><path class="cls-3" d="M354.76,339.66s-.25,1.73,1.85,4.44,7,12.94,20.71,19.23,24.16,5.3,32,4.68c0,0,3.94-.74,6.41,1.73s4.81,2.22,8.5,4.81a6.45,6.45,0,0,0,2,.45c1.19.08,1.85,1.23.29,2.92s-.58,2.22-1.81,2.83-.62,1.19-1.81,2.1-8.05,6.12-19.88,40.63c0,0-.25.62-1.73,1.11s-.74,2.4-2.4,6.59-2.28,2.71,3.88,5.55,10.6,3.39,16.45,3.82,4.87,0,5.3-2.65,2-5.42.92-6.47c0,0,4.93-5.07,7.31-9.51s14.21-23,18.24-29.17a62.74,62.74,0,0,0,5.59-10.14s.9,1.68,4.19.94c0,0,.58-.41,1,.58s3.45,3.2,6.08,2.71.9.9,0,2.05S454.68,409,447.45,429.39a96.06,96.06,0,0,0-6.16,8.63,1.56,1.56,0,0,0,.12,2.67l1.85,1.27.43-1.42s12.08,2.53,20.21,10.23l-.86,1.85a12.43,12.43,0,0,0,2.83.62c1.48.12,1.17-.43,1.79-1.6s3.45-5.73,3.45-5.73a1.72,1.72,0,0,0,.86-1.73c-.18-1.17,3.45-3.94,8-12.57s7.52-13.56,10.35-19.84,5.67-7.64,6.16-10.23,2.22-2.1,4.19-6.41,2.22-7.52,3.57-7.89,1.85-2.47,1.48-4.31,2.1-8.63-5.05-16.39-50.16-43.38-68.4-51.15c0,0-12.82-7.27-16.64-10.6s-11.44-13.94-23.22-11.16l-24.6,25.83Z"/><path class="cls-4" d="M209.1,376.95s2.71,3.7,3.94,4.56c0,0-1.36,1.73-3.94,4.68s-1.36,4.93,2,5.67a15.36,15.36,0,0,1,5.92,3,45,45,0,0,1-7.64,9.37c-4.44,3.94-3.08,7.89-3.08,7.89a12.38,12.38,0,0,1,3.88-7.15c3.52-3.33,7.34-8,7.83-9.37,0,0,1.85,1.6,0,4.93s-5.79,7.4-3,11.59,6.66,7.76,0,9.24c0,0,5.92.25,5.3-3.33s-6.41-7.27-3.82-11.83,6.29-6.16,8.13-7.89,5.79-5.55,5.79-5.55l7.76-11.59L236.46,372l-10.11-4.19Z"/><path class="cls-2" d="M278.24,437.34c1-10.6,2.47-34,2.47-34a137.45,137.45,0,0,0,.82-15.37c0-8.79-1.05-10.85.53-13a7.58,7.58,0,0,0,1.24-3.41l-2.16-.27s-3.37,1.81-2.14,10.35-1.15,20.46-.9,37.3S274,446.56,274,446.56s-10.68,25.14-13.06,30.9-11.34,27.77-12.49,31.8S247,514,238.58,514.1s-12.24-3.86-12.33-6.16,7.4-2.55,9.37-3.78,2.88-4.93,2.88-4.93c4.77-11,8.05-26.62,8.05-26.62,4.11-20.3,11.26-39.19,13.15-44.21s1.07-15.78,2.38-23.34.49-9,.49-9c-1.48-6.41-2.47-13.51-2.47-13.51l-1.38-1.49-1,1.24a90.24,90.24,0,0,0,2.51,14.56,12.77,12.77,0,0,1,0,5.51c-.66,3.12-1,15.12-1.11,21.36s-7.77,15.53-12.45,44.45A288.71,288.71,0,0,1,236,502.66a12.71,12.71,0,0,1-2.69,1,3,3,0,0,0-3.2-1.42c-2.34.31-1.91,1.42-1.91,1.42s-1.29-2.1-2.53-2.22-3.08.18-3.82,1.6c0,0-1.6-.68-3.82.92s-4.07,1.36-3.08,3.51a2.5,2.5,0,0,0-1.42,1.48c-.37,1.11-5.05,1.36-4.5,3.82s9.61,1.17,9.61,1.17,2-.43,7.52.8,11.15.74,16.15,0,4.56.31,6.22-3.39,10-26,14.17-34.39S277.26,447.94,278.24,437.34Z"/><path class="cls-2" d="M249.07,208.5c-2.47-4.11-5.42-16.19-8.79-24.73A213,213,0,0,1,233.79,163s-2.38-13.48.74-14.79,2.3-11.34,1.64-14.05,1.48-6.82,1.23-7.48.33-5.26-.34-5.83-1.3-2-3.44,1.07-2.14,8.55-2.14,8.55a18.51,18.51,0,0,0-2.76-7.72c-1.28-1.81-2.17-6.08-2.17-6.08s-1.23-8.71-1-10.35a7,7,0,0,0-.82-4.77,2,2,0,0,0-2.14-.74c-.49,0-.82.74-.82.74s.08,2.38.08,4.11a51.29,51.29,0,0,1-1.07,7.23,27.44,27.44,0,0,0-.41,5.18c.41,7.15,2,29.74,1.48,31.63a14.41,14.41,0,0,0-.49,3.29,11.81,11.81,0,0,0,.58,3.86,22.91,22.91,0,0,1,.9,4.44s3.2,29.25,4.11,36.73,2.63,21.28,4.85,25.31,3,10.68,3,10.68.66,14.38,1.73,18.82.41,12.08-.33,16.93a43.73,43.73,0,0,0-.58,8l3.47-.14-1.31-1s.49-6.79,1.5-12.34-.75-13.93-.75-13.93-1.45-16.15-3.54-23.91-4.44-6-7.64-35.87-3.78-32.95-4.52-34.59,0-5.26,0-5.26,1.81-3.62,1.4-6.57,1.07-18.32-.33-24.24-1.58-18.79-.25-18.41,1.31,3,1.31,3a38,38,0,0,0,.49,11.91c1.31,6.41,3.86,9,4.52,13.23s-.66,8.05,1.07,4.85.08-10.68,4.85-13.89c0,0,1.15.66,1,3s.16,3.2-.58,4.93-1,6.66-.58,8.55.62,6.68-.92,9.45-2.47,3-2.65,6,1.66,17.26,5.3,25.94,8.05,27.07,10.85,32.09,6.62,43.31,7.58,65.41l.68,1,1.58-.07c-.24-18.72-4.2-45.54-4.61-50.3S251.54,212.61,249.07,208.5Z"/><path class="cls-5" d="M239.23,323.54s-3.14-8.18-3.64-11.16-1-4.34,0-5.69.62-3.33,0-3.57-.65-2.47-.57-4.93a99.35,99.35,0,0,0-.5-10.48A22.62,22.62,0,0,1,233.3,282c-.33-3.45,3.7-6.78,13.8-7s13,2.3,13.56,5.51,5.67,3.94,5.67,3.94a16.69,16.69,0,0,1,10.93-4s2.71-3.33,10.85-3.2,13.93,0,13.93,0a36.93,36.93,0,0,1,6.78-.74c4.19-.12,3.82-2.21,20.71-1.54s6.66,6.34,40.06,9.92c0,0,2.1-.37,7.89,1.11a38.82,38.82,0,0,1,9,3.33,18.65,18.65,0,0,1,7.52,6.16c3.33,4.56,2.1,11.83,2.1,11.83s-3,5.55-2.59,10a12.66,12.66,0,0,1-2.71,9.61c-2,2.71-6.16,13.8-18.86,17.5a14.89,14.89,0,0,1-12-2.22,7.4,7.4,0,0,0-4.44-1.6c-2.34.12-4.31-.25-8.63,3.7s-20,14.05-28.72,16.76-16,8-32.42,8.87c0,0-2.47,3.45-3.7,5.05,0,0,3-4.93-2.22-1.85S261.23,385,257,382c0,0-1.11-8.5-1.23-15.41a18.83,18.83,0,0,1-6.15-1.73Z"/><path class="cls-6" d="M266.15,344.62s-3.25,0,.53-4.22,5.59-21.93-4.68-26.86c0,0-4.11-3-6.08-2.59s-3.54,1.66-6.26,4.56-9.52,9.12-7.06,1.6,2-9.24,10.17-16.15,5.49-9.24,15.47-14.79c0,0-5.42,1.23-8.75,4.56s-2.71,4.19-7.15,8.5-10.27,10.35-10.27,10.35a8.42,8.42,0,0,1-2.82,3.45c-1.82,1.11-3.06-3-3.06-3s-.79-2.47,3.06-3.82-1.58-.86-1.58-.86a1,1,0,0,1-.62-1.6c.74-1.23,7.15.25,10-2.47,0,0-11.84,2.59-10.91-.86,0,0-.3-10.48-1.17-14.3s-2-7,3.45-9,15.86-2.09,19.7.56a6.74,6.74,0,0,1,1.87,3.72c.37,2.37,5.13,3.93,6.34,3,0,0-5.09-.74-5.67-3.94s-3.45-5.75-13.56-5.51-14.13,3.57-13.8,7a22.62,22.62,0,0,0,1.23,5.71,99.35,99.35,0,0,1,.5,10.48c-.08,2.47,0,4.68.57,4.93s1,2.22,0,3.57-.49,2.71,0,5.69,3.64,11.16,3.64,11.16l10.43,41.33a18.83,18.83,0,0,0,6.15,1.73C255.93,373.5,257,382,257,382c2,1.38,5.91.21,10.11-1.74,0,0-8.76,2.41-8.4-1.41s1.35-17.13,5-21.88,2-6.18-.85-3.62-7.27,4.58-4.19,0,15.52-10.5,20-19.86A65.2,65.2,0,0,1,266.15,344.62Z"/><path class="cls-4" d="M250.55,362.76a33.58,33.58,0,0,1,2.55,5.15c1,2.63,2.63,4.11,3.62,4.27a4.93,4.93,0,0,1-4.27,0s1,2.3,2,4.27a4,4,0,0,0,2.3-.82,7.39,7.39,0,0,1-3.08,3s7.43,4.44,0,20.71a11.2,11.2,0,0,0,.11,4.93c.67,2.63,0,12.82,0,12.82s1.17,2.47,2.48,1,2.14-3,2-6.41c0,0,2.73,6.41-3.81,8.55,0,0,1,2.63-1.12,7.07s-2,16.76-.33,20c0,0-3.45-1.48-4.27-3.62a6.24,6.24,0,0,1-1,6.74c-2.79,3.29,1.64,9.37,3.12,10.68L248,464.87h-3.12s3,4.11-3.78,7.23-7.89,6.9-5.59,7.4,6.74.66,6.74,5.09-1.18,9.37-7.82,10.19c0,0,5.19-3.12,4.53-5.75s-7.23-6.24-9.2-8.22a5.55,5.55,0,0,0-5.26,4.6s-.82-3,2.79-4.93l1.81-1s-2.3-1.64-.66-5.92,3.12-13.15-1.15-23.34-2.87-10.52-2.87-10.52-3.48-4-.22-11,9.67-10.24,7.2-20.1-5.09-7.89-3.62-14.13,6.08-7.42,5.09-17-12-5.16-12-5.16l6.41-8.87Z"/><path class="cls-1" d="M227,371s18.12-2.1,24.16-8.87,4.56-7.64,7.89-11.83,3.57-6,3.45-7.64c0,0,6.9-5.05,6.41-15.41s-9.49-15-12.08-15.53-3.45,1.73-6.53,4.07-6.91,5.94-11.53,6.53L228,320.25,208.24,340l-9,14.3-.37,11.22,3.45,8.38H215Z"/><path class="cls-7" d="M233.46,325.8a2.32,2.32,0,0,0-.46-1.26,4,4,0,0,0-.92-.85c-.35-.26-.75-.49-1.15-.73a11,11,0,0,1-1.26-.82,4.32,4.32,0,0,1,3,.74,2.8,2.8,0,0,1,1,1.32A1.6,1.6,0,0,1,233.46,325.8Z"/><path class="cls-4" d="M213.41,340a71.71,71.71,0,0,0,13.93-8,25.64,25.64,0,0,1,18.24-5.05s-12.33-2.59-21.2,1.6c0,0,2.83-2.47,4.44-4.19s6-2,13.93,0c0,0-3.57-1.85-5.67-2.71,0,0,0-5.16-6.66-8.07s-9.24.18-12.69,3.63c0,0-6.53-1.23-9.74,2.83a10.31,10.31,0,0,1,6.53-1.48,10.18,10.18,0,0,0-2.47,2.1S198,319.51,197.51,334.3a15,15,0,0,1,12.63-11.83s-10.41,4.44-10.9,10c0,0,4.19-5.05,7.64-6.66,0,0-2.1,3.33-1.85,5.55Z"/><path class="cls-4" d="M215,371.65s-5.42-.62-8.13-7.4a32,32,0,0,1-2.34-12.6l-7,8.16,2.22,10.11,4.68,3.94Z"/><path class="cls-5" d="M192.46,340.34s-4.81,5.42-1.36,17,5.67,12.33,7.4,13.31,7.4,14.17,31.92,1.11c0,0-6.66-1.73-12.08-12.33S215,333.93,216,329.13a8,8,0,0,0-1.23-3.33S194.31,328.39,192.46,340.34Zm25.27,29.46c-2.1,1.36-7.52,1.48-11.46,2s-4.81,0-5.3-6,9.17-10.85,9.17-10.85C212.41,365.24,217.73,369.8,217.73,369.8Z"/><path d="M233,357s-3.08,8.13,2.59,8.5C235.6,365.48,232.52,365,233,357Z"/><path d="M229.68,347.74s-7.52-3.82-3.57-8.87C226.11,338.86,224.38,343.05,229.68,347.74Z"/><circle cx="233.88" cy="360.32" r="1.32"/><circle cx="227.32" cy="343.3" r="1.32"/><path class="cls-4" d="M224.09,351.31l-4-7.64A7.69,7.69,0,0,1,219,340a16.13,16.13,0,0,1,1.48-4.68s-.66,4.86,1.07,7.48S227,349.5,224.09,351.31Z"/><path class="cls-4" d="M227.32,361.23s1.78-.72,2.36,1.91-.39,6,3.58,6.82,0,.33,0,.33S227.1,371,227.32,361.23Z"/><path class="cls-8" d="M250.51,354A82.17,82.17,0,0,1,246.44,340S257.62,344.66,250.51,354Z"/><path class="cls-9" d="M249.92,351.65a17.8,17.8,0,0,0,2.86-2.23v1.89L250.51,354Z"/><path class="cls-10" d="M250.51,354s-.49-1-2-4.07-2.1-10-2.1-10,2,6.1,3,9.68C249.95,351.76,250.51,354,250.51,354Z"/><path class="cls-2" d="M230.42,357s.88-2.9,5.18-4.19,4.93.58,7,1.23,2.63-.66,2.63-.66l-.37,1.3-1.45.65-1.35-.19s-6-4.15-11.65,2"/><path class="cls-11" d="M250.51,354a8.09,8.09,0,0,0,4.48-7c.16-5.14-6.16-7.19-8.55-7C246.44,340,255.24,345.39,250.51,354Z"/><path class="cls-7" d="M241.6,354.68a1.72,1.72,0,0,0,1.19.24,4.85,4.85,0,0,0,1.11-.3,1.78,1.78,0,0,0,.79-.64,4.4,4.4,0,0,0,.53-1.19,1.87,1.87,0,0,1,.19,1.5,2,2,0,0,1-1.11,1.24,2.8,2.8,0,0,1-1.57.16A1.34,1.34,0,0,1,241.6,354.68Z"/><path class="cls-7" d="M243.9,353.36a.74.74,0,0,1-.42-.68,1.23,1.23,0,0,1,.23-.74,6.07,6.07,0,0,1,.8-.83.91.91,0,0,1,.26.73,1.34,1.34,0,0,1-.24.69c-.11.14-.18.22-.29.34A2,2,0,0,0,243.9,353.36Z"/><path class="cls-2" d="M392.87,445.84l6.84,9.51,7.87,2.76,9-20.57-12.73-1.91a6.66,6.66,0,0,0,2.62,2.67c8.18,5.43,1.81,13.13.58,12.55s-4.85-4.11-7.23-5.83,3-8.2,3-8.2l-.54-1.42-4.06-.61S395.85,440.42,392.87,445.84Z"/><path class="cls-7" d="M243.42,349.38a1.94,1.94,0,0,1-1-1.22,1.87,1.87,0,0,1,.18-1.57,2.94,2.94,0,0,1,.77,1.29A2.84,2.84,0,0,1,243.42,349.38Z"/><path class="cls-12" d="M409.47,453.78a30.81,30.81,0,0,1-6.55-4.84,31.21,31.21,0,0,0-8.39-6.25c-.6,1.19-1.25,2.41-1.92,3.62l2,10.85,9.7,8.55Z"/><path class="cls-12" d="M453,469.65h0c-12.86-14.29-16.23-14.39-16.24-14.39-.66,1.24-1.35,2.48-2.06,3.71l3,10.6,5.05,8,6.66-1.54S450.91,473.29,453,469.65Z"/><path class="cls-13" d="M448.13,464.45a4.61,4.61,0,0,1,.43,5.25c-1.59,3.14-5.26,2.81-5.26,2.81L442,471.3l-4.36-9.78,2.16-4.63h0c-2.23-1.6-3-1.63-3-1.63-.66,1.24-1.35,2.48-2.06,3.71l3,10.6,5.05,8,6.66-1.54s1.55-2.75,3.63-6.39C451.18,467.64,449.58,465.93,448.13,464.45Z"/><path class="cls-13" d="M405.95,451.51l0,0s1.56,1.07,0,5.09-4.2,3.47-4.2,3.47l-4.92-2.6-1.85-6a27.63,27.63,0,0,1,2.28-5.07c1-1.42,3,.08,3.43.46a28.21,28.21,0,0,0-6.2-4.22c-.6,1.19-1.25,2.41-1.92,3.62l2,10.85,9.7,8.55,5.2-11.92A35.85,35.85,0,0,1,405.95,451.51Z"/><path class="cls-7" d="M239.23,345.58a1.39,1.39,0,0,1,.17-1,1.59,1.59,0,0,1,.83-.71,1.48,1.48,0,0,1,1.11,0,1.39,1.39,0,0,1,.73.71c-.36,0-.64,0-.88.06a2.14,2.14,0,0,0-.61.14A6.76,6.76,0,0,0,239.23,345.58Z"/><path class="cls-14" d="M392.56,446.32a30,30,0,0,1-9.53,2.3c-5.75.49-11.32,1.58-11.32,1.58s-1.91-.13-1.17,3.06,4.93,25.43,6.57,34,10.68,10.35,15.45,10.52a24.05,24.05,0,0,0,7.72-.82s1.81-2.3,0-7.72a10.65,10.65,0,0,0-6.08-2.14s-4.77-.49,8.71-18.08c0,0,2-2.33,1.64-4S392.56,446.32,392.56,446.32Z"/><path class="cls-14" d="M434.69,459s-14.19,4.11-23.89,6.74c0,0-4.11.16-2.63,5.26s7.89,34.84,12.16,39.11,5.09,8.71,15.45,7.89,9.37-3.29,9.2-6.57-.66-5.75-4.44-5.59-5.09-1.48-3.12-5.75,8.2-15.12,12.64-19.06-.71-5-.71-5l-4.87-.31S439.52,460.94,434.69,459Z"/><path class="cls-2" d="M262.47,342.68a8,8,0,0,0-3.71-6.31c-3.74-2.47-10.28-7.66-10.28-7.66s5.71,3.23,7.69,3.72a11.53,11.53,0,0,1,8.3,8.29Z"/><path class="cls-2" d="M257.31,323.23a32.22,32.22,0,0,0,8.38-5l1,1.51S264.13,321.83,257.31,323.23Z"/><path class="cls-6" d="M387.48,304.17l-.71.71Z"/><path class="cls-6" d="M384.06,307.52q1.4-1.32,2.72-2.65C386.19,305.46,385.25,306.37,384.06,307.52Z"/><path class="cls-6" d="M346.89,344.29c4.31-3.94,6.29-3.57,8.63-3.7a7.4,7.4,0,0,1,4.44,1.6,14.89,14.89,0,0,0,12,2.22c8.58-2.5,13.27-8.37,16-12.76-5.93,6.76-13.94,7.51-7,.78s8.71-16.27,8.71-16.27C386.48,325,371.2,336,365,337s-3.12,1.47,1.64-3,16.43-8.22,16.76-11.93,6.24-13.54,6.24-13.54-4.27,6.9-6.9,8.55c-2.44,1.52-5.72,5.45-6.18,6a29.61,29.61,0,0,0,2.24-4c1.81-3.62,8.73-12.33,8.73-12.33a97.64,97.64,0,0,0-10.37,13.15c-4.11,6.57-6.9,7.07-11.5,12.49a19.33,19.33,0,0,1-10.33,6.43c-6.38,0-21.41,14.46-30.43,18.3s-28.51,10.17-28.51,10.17c-9.61-.68,2.47-6.1,2.47-6.1,34.51-9,47.94-25.27,60.52-33.28,9-5.71,19.44-15.36,24.73-20.43-25.38,23.86-70.94,44.07-83,49.64-12.65,5.83-15.27,12.76-15.27,12.76,16.39-.86,23.66-6.16,32.42-8.87S342.58,348.23,346.89,344.29Z"/><path class="cls-15" d="M451.07,392.74a62.74,62.74,0,0,0,5.59-10.14c-3.25-.08-4-1-4-1-4.68-2.83-2.34-2.22-11.09-3.2s-6.41-4.93-10.72-5.92-3.82-1.85-8.26-1.85a19.11,19.11,0,0,1-7.66-1.57h0a5.54,5.54,0,0,1,.88.71c2.47,2.47,4.81,2.22,8.5,4.81a6.45,6.45,0,0,0,2,.45c1.19.08,1.85,1.23.29,2.92s-.58,2.22-1.81,2.83-.62,1.19-1.81,2.1-8.05,6.12-19.88,40.63c0,0-.25.62-1.73,1.11s-.74,2.4-2.4,6.59-2.28,2.71,3.88,5.55,10.6,3.39,16.45,3.82,4.87,0,5.3-2.65,2-5.42.92-6.47c0,0,4.93-5.07,7.31-9.51S447,398.91,451.07,392.74Z"/><path class="cls-16" d="M437.6,461.52a7.85,7.85,0,0,0-2.9-2.54s-14.19,4.11-23.89,6.74c0,0-4.11.16-2.63,5.26.1.36.23.84.38,1.42a2.31,2.31,0,0,0,.91-2.18c0-4.2,14.81-5.65,19.65-7.79A12.55,12.55,0,0,1,437.6,461.52Z"/><path class="cls-17" d="M422.29,512.27a46.06,46.06,0,0,1-2.91-7c-3.45-14.63-2.47-8.05-6.9-23.66-2.82-9.92-4-13-4.44-13.93a5.37,5.37,0,0,0,.12,3.25c1.48,5.09,7.89,34.84,12.16,39.11C421.07,510.81,421.7,511.55,422.29,512.27Z"/><path class="cls-16" d="M392.56,446.32a30,30,0,0,1-9.53,2.3c-5.75.49-11.32,1.58-11.32,1.58s-1.91-.13-1.17,3.06c.29,1.25,1.11,5.45,2.1,10.59h0s-.75-8-.75-10.59,13.56-2.79,17.5-3.83,5.29,0,5.29,0h0Z"/><path class="cls-17" d="M428.81,515.15c-3.54-1.18-3.83-2.22-7.46-14.93l-.13-.44c-3.65-12.78-10.81-33.7-10.88-33.91l.93-.32c.07.21,7.24,21.15,10.9,34l.13.44c3.57,12.5,3.78,13.25,6.83,14.26Z"/><path class="cls-17" d="M436.09,511.39c-.45,0-.92,0-1.42,0-5.8-.26-7.6-8.42-7.67-8.77-7.17-24.9-12.65-37.63-12.7-37.76l.91-.39c.05.13,5.56,12.9,12.75,37.91,0,.11,1.72,7.8,6.76,8,4.78.21,8.1-.69,9.37-2.55l.81.56C443.93,509.78,441.62,511.39,436.09,511.39Z"/><path class="cls-18" d="M372.65,450s4.67,18.68,6.28,28.42a32.13,32.13,0,0,1,.62,7.76,6.58,6.58,0,0,0,4.07,6.66"/><path class="cls-18" d="M376.31,449.43s5.08,20.14,6.31,28.16c0,0,.62,3.57,0,5.67s1.23,1,1,4.31,14.8,3.9,16.85,2.18"/><path class="cls-16" d="M440.55,505.81c-3.14.14-4.57-1-3.84-3.81h0s-3.35,7.7,1.78,7.67c3.51,0,5-1.51,5.57-2.45C443.43,506.27,442.38,505.73,440.55,505.81Z"/><path class="cls-16" d="M387.48,487.91c-.06,1.14,4.59,1.75,10.34,1.51a7.27,7.27,0,0,0,2.2-.4,10.59,10.59,0,0,0-5.82-1.94.93.93,0,0,1-.7-.67h0S387.54,486.77,387.48,487.91Z"/></svg>