<svg id="Fiets" xmlns="http://www.w3.org/2000/svg" viewBox="0 0 641.94 556.2"><defs><style>.cls-1{fill:#010101;}.cls-2{fill:#545456;}.cls-3{fill:#e62a3f;}.cls-4{fill:#c1bc02;}.cls-5{fill:#a8aaad;}.cls-6{fill:#1d1d1d;}.cls-7{fill:#343434;}.cls-8{fill:#9f572f;}</style></defs><title>fiets (1)</title><g id="achterwiel"><path class="cls-1" d="M117.3,457.92l-3.58-.21a87.15,87.15,0,0,1,155.54-49l-2.82,2.21a83.6,83.6,0,0,0-149.14,47Z"/><path class="cls-2" d="M200.72,544.95a83.51,83.51,0,0,1-9.84-.58A82.12,82.12,0,0,1,149.74,398.3h0a82.12,82.12,0,1,1,51,146.65ZM154.14,403.88a75,75,0,1,0,105.35,12.51,75.1,75.1,0,0,0-105.35-12.51Z"/><path class="cls-2" d="M200.63,534.64a71.84,71.84,0,0,1-44.55-128.28l.67.85-.67-.85a71.86,71.86,0,1,1,44.55,128.28Zm-.21-141.56a69.18,69.18,0,0,0-43,15h0a69.71,69.71,0,1,0,51.36-14.46A70.91,70.91,0,0,0,200.42,393.09Z"/><polygon class="cls-2" points="131.23 480.31 130.91 479.29 191.94 460.23 129.08 466.67 128.97 465.6 202.46 458.06 131.23 480.31"/><polygon class="cls-2" points="198.13 467.03 129.13 456.84 129.29 455.78 192.49 465.11 131.29 444.16 131.64 443.14 198.38 465.99 198.13 467.03"/><rect class="cls-2" x="164.83" y="412.26" width="1.08" height="64.11" transform="translate(-308.53 430.83) rotate(-67.95)"/><rect class="cls-2" x="169.39" y="406.42" width="1.08" height="66.83" transform="translate(-287.23 324.34) rotate(-54.7)"/><polygon class="cls-2" points="197.87 470.12 150.1 414.85 150.91 414.14 192.23 461.94 160.58 403.42 161.53 402.91 197.87 470.12"/><polygon class="cls-2" points="202.71 463.66 169.68 399.72 170.64 399.22 201.09 458.18 182.59 395.18 183.62 394.87 203.71 463.26 202.71 463.66"/><polygon class="cls-2" points="193.57 462.39 192.5 462.3 192.18 391.98 193.25 391.97 193.55 455.85 204.02 391.71 205.08 391.88 193.57 462.39"/><polygon class="cls-2" points="199.79 460.43 215.86 393.5 216.91 393.75 203.08 451.33 229.35 398.12 230.32 398.6 199.79 460.43"/><polygon class="cls-2" points="198.22 459.33 239.23 403.63 240.09 404.27 204.64 452.43 250.61 413.12 251.31 413.94 198.22 459.33"/><polygon class="cls-2" points="198.08 460.97 259.13 422.25 259.71 423.16 207.08 456.53 265.01 435.37 265.38 436.38 198.08 460.97"/><polygon class="cls-2" points="198.36 467.22 269.55 444.93 269.87 445.96 208.88 465.05 271.74 458.57 271.85 459.64 198.36 467.22"/><polygon class="cls-2" points="269.18 482.1 202.41 459.26 202.66 458.22 271.69 468.44 271.53 469.5 208.31 460.14 269.53 481.08 269.18 482.1"/><rect class="cls-2" x="234.91" y="448.88" width="1.08" height="64.11" transform="translate(-298.69 518.65) rotate(-67.95)"/><rect class="cls-2" x="230.35" y="452.02" width="1.08" height="66.81" transform="translate(-298.75 393.58) rotate(-54.72)"/><polygon class="cls-2" points="239.29 522.37 202.95 455.13 250.72 510.4 249.9 511.1 208.59 463.3 240.24 521.86 239.29 522.37"/><polygon class="cls-2" points="216.73 529.8 197.11 461.98 198.11 461.59 231.14 525.56 230.18 526.06 199.68 466.97 217.76 529.5 216.73 529.8"/><polygon class="cls-2" points="196.8 533.53 195.74 533.36 207.25 462.86 208.32 462.94 208.64 533.27 207.56 533.27 207.27 469.4 196.8 533.53"/><polygon class="cls-2" points="184.96 531.75 183.91 531.49 197.71 473.92 171.47 527.16 170.5 526.68 201 464.81 184.96 531.75"/><polygon class="cls-2" points="161.56 521.61 160.69 520.97 196.14 472.82 150.21 512.13 149.51 511.31 202.57 465.91 161.56 521.61"/><polygon class="cls-2" points="143.44 504.04 142.8 503.18 197.38 462 136.95 492.76 136.46 491.8 202.34 458.27 202.9 459.18 143.44 504.04"/><circle class="cls-2" cx="201.93" cy="461.78" r="8.86" transform="translate(-242.46 224) rotate(-38.23)"/><path class="cls-3" d="M124.87,419.45h-1.79a1.08,1.08,0,0,1-1.08-1.08v-8.21a1.08,1.08,0,0,1,1.08-1.08h1.79a1.08,1.08,0,0,1,1.08,1.08v8.21A1.08,1.08,0,0,1,124.87,419.45Z"/><path class="cls-1" d="M135.63,408.19h-7.78a3.65,3.65,0,0,0-3.66,3.66v9.4Z"/><path class="cls-4" d="M424.34,323.66l-1.51-.25a1.18,1.18,0,0,1-1-1.36l1.61-9.29a1.18,1.18,0,0,1,1.36-1l1.51.25a1.18,1.18,0,0,1,1,1.36l-1.61,9.29A1.15,1.15,0,0,1,424.34,323.66Z"/></g><g id="ketting_kast" data-name="ketting kast"><path class="cls-1" d="M187.3,459s2.62-8.46,20.84-8.07,120,8.07,120,8.07,30.73,3.19,25.6,27.54-25.6,21.12-25.6,21.12L205.23,479.37S186.69,478.65,187.3,459Z"/><path class="cls-5" d="M405.27,335.67s.86-13.84,8.5-13.48c0,0-6.81-.54-6.81-5.67,0-8.25,17.5-6.53,17.5-6.53l-2.22,14.7s-11.55-2.76-14.42,12.23C405.27,339.33,405.27,335.67,405.27,335.67Z"/><path class="cls-6" d="M305.79,465.42a62.29,62.29,0,0,1,6.85-.61c2.3-.11,4.59-.14,6.92-.07a61.26,61.26,0,0,1,13.7,1.94,36.12,36.12,0,0,1,6.56,2.44,23.7,23.7,0,0,1,5.81,4,18.35,18.35,0,0,1,4.09,5.81,18.92,18.92,0,0,1,1.11,3.41,19.26,19.26,0,0,1,.47,3.51,17.64,17.64,0,0,1-.93,7.06,12.93,12.93,0,0,1-1.69,3.19,13.35,13.35,0,0,1-2.47,2.65l-.72.57c-.25.18-.5.32-.75.5l-.36.25-.39.22c-.25.14-.5.29-.79.43a15.87,15.87,0,0,1-1.61.72l-.82.32-.82.25a28.64,28.64,0,0,1-6.89,1.22,59.11,59.11,0,0,1-13.81-.82c-1.15-.22-2.26-.39-3.41-.65s-2.26-.47-3.37-.72-2.22-.54-3.34-.82-2.22-.61-3.3-.93c2.26.5,4.48,1,6.74,1.4,1.11.22,2.26.39,3.37.57s2.26.32,3.41.47a66.65,66.65,0,0,0,13.63.39,29.11,29.11,0,0,0,6.6-1.33l.79-.25.79-.32c.54-.18,1-.47,1.51-.68a7.11,7.11,0,0,1,.72-.39l.36-.22a3.15,3.15,0,0,1,.36-.22l.68-.47.65-.5a12.63,12.63,0,0,0,2.19-2.4,14.6,14.6,0,0,0,1.51-2.87,14.16,14.16,0,0,0,.72-3.19,19.62,19.62,0,0,0-1.36-9.75,17.61,17.61,0,0,0-3.73-5.42,22.75,22.75,0,0,0-5.45-3.87,36.38,36.38,0,0,0-6.28-2.51,62.81,62.81,0,0,0-13.45-2.3A88.27,88.27,0,0,0,305.79,465.42Z"/></g><g id="trapper"><path class="cls-2" d="M357.86,505.76,330.21,484a3.19,3.19,0,0,1-.54-4.48h0a3.19,3.19,0,0,1,4.48-.54l27.65,21.77a3.19,3.19,0,0,1,.54,4.48h0A3.19,3.19,0,0,1,357.86,505.76Z"/><path class="cls-5" d="M372.7,511.32H343.87a3.52,3.52,0,0,1-3.51-3.51v-3a3.52,3.52,0,0,1,3.51-3.51H372.7a3.52,3.52,0,0,1,3.51,3.51v3A3.52,3.52,0,0,1,372.7,511.32Z"/><circle class="cls-1" cx="358.29" cy="506.3" r="4.48"/></g><g id="voorwiel"><path class="cls-1" d="M413.69,529.63a87.18,87.18,0,0,1,57.74-152.5,89.55,89.55,0,0,1,15.41,1.35l-.62,3.53a85.94,85.94,0,0,0-14.79-1.3,83.6,83.6,0,0,0-55.36,146.23Z"/><path class="cls-2" d="M471.43,546.65A82.13,82.13,0,1,1,529.5,522.6,81.59,81.59,0,0,1,471.43,546.65Zm0-157.14a75,75,0,1,0,75,75A75.1,75.1,0,0,0,471.43,389.51Z"/><path class="cls-2" d="M471.43,536.39a71.87,71.87,0,1,1,71.87-71.87A71.95,71.95,0,0,1,471.43,536.39Zm0-141.58a69.71,69.71,0,1,0,69.71,69.71A69.79,69.79,0,0,0,471.43,394.81Z"/><polygon class="cls-2" points="442.24 529.88 441.23 529.49 464 469.76 430.21 523.12 429.31 522.55 465.95 464.67 466.91 465.14 442.24 529.88"/><polygon class="cls-2" points="422.49 516.99 421.75 516.2 468.23 472.32 413.91 507.44 413.33 506.53 472.57 468.23 473.23 469.07 422.49 516.99"/><rect class="cls-2" x="403.05" y="480.25" width="64.11" height="1.08" transform="translate(-181.18 279.12) rotate(-29.74)"/><rect class="cls-2" x="400.99" y="473.88" width="66.79" height="1.08" transform="translate(-116.58 142.45) rotate(-16.45)"/><polygon class="cls-2" points="402.49 474.53 402.44 473.45 465.57 470.59 399.98 459.24 400.16 458.18 475.5 471.22 402.49 474.53"/><polygon class="cls-2" points="473.41 463.4 402.73 449.77 402.93 448.72 468.1 461.28 407.15 436.84 407.55 435.84 473.71 462.37 473.41 463.4"/><polygon class="cls-2" points="466.01 470.61 410.56 427.33 411.23 426.48 461.59 465.8 417.71 417.87 418.5 417.15 466.74 469.83 466.01 470.61"/><polygon class="cls-2" points="469.04 463.69 426.43 409.67 427.28 409 463.92 455.46 438.38 401.93 439.35 401.46 469.04 463.69"/><polygon class="cls-2" points="467.21 464.24 448.86 397.57 449.89 397.28 465.75 454.91 463.33 394.54 464.4 394.5 467.21 464.24"/><polygon class="cls-2" points="468.41 465.39 475.81 393.46 476.88 393.57 470.5 455.55 489.71 396.94 490.73 397.27 468.41 465.39"/><polygon class="cls-2" points="473.47 469.04 500.05 399.32 501.05 399.7 478.28 459.43 512.11 406.03 513.02 406.61 473.47 469.04"/><polygon class="cls-2" points="469.75 460.92 469.09 460.08 519.83 412.17 520.57 412.95 474.1 456.83 528.41 421.72 528.99 422.62 469.75 460.92"/><rect class="cls-2" x="475.18" y="447.85" width="64.09" height="1.08" transform="translate(-155.61 310.62) rotate(-29.74)"/><rect class="cls-2" x="474.5" y="454.21" width="66.83" height="1.08" transform="translate(-108.18 162.86) rotate(-16.49)"/><polygon class="cls-2" points="542.16 471.01 466.83 457.97 539.79 454.63 539.84 455.7 476.74 458.6 542.35 469.95 542.16 471.01"/><polygon class="cls-2" points="534.06 493.32 468.61 466.78 468.91 465.75 539.6 479.38 539.39 480.44 474.12 467.85 534.46 492.32 534.06 493.32"/><polygon class="cls-2" points="523.82 512.04 475.55 459.36 476.28 458.58 531.76 501.82 531.1 502.67 480.69 463.38 524.61 511.32 523.82 512.04"/><polygon class="cls-2" points="502.97 527.73 473.25 465.47 515.89 519.49 515.04 520.15 478.36 473.69 503.94 527.26 502.97 527.73"/><polygon class="cls-2" points="477.92 534.69 475.08 464.92 493.47 531.58 492.43 531.87 476.53 474.24 479 534.65 477.92 534.69"/><polygon class="cls-2" points="468.45 534.93 467.38 534.91 468.79 466.57 455.57 533.09 454.51 532.88 468.93 460.37 470 460.48 468.45 534.93"/><circle class="cls-2" cx="471.43" cy="462.87" r="8.86"/></g><g id="frame_grijs" data-name="frame grijs"><polygon class="cls-2" points="269.93 376.88 258.42 355.25 252 355.25 252 348.23 244.14 348.23 244.14 360.17 255.26 361.17 265.01 382.15 269.93 376.88"/><polygon class="cls-2" points="416.99 384.48 445.86 443.65 468.56 466.68 470.35 462.19 450.52 440.43 422.34 382.15 416.99 384.48"/><polygon class="cls-2" points="399.28 339.08 406.95 336.68 392.89 307.88 399.92 302.11 399.92 287.08 392.89 289.95 392.89 298.92 385.18 305.3 399.28 339.08"/></g><g id="frame_zwart" data-name="frame zwart"><path class="cls-1" d="M176.44,380.25l37.15,63.4-14.74,19.87h0a4,4,0,0,0,3.91,3.19h.57l17.29-20.48,64,5.77s-2.55-31.38-21.77-50.6l7-7.67-2.4-4.52L259.1,398C259.1,397.93,230.23,366.8,176.44,380.25Z"/><path class="cls-1" d="M191.78,455.16h3.84L160.41,382.8V370.64l70.11,4.55s25.28,14,33.64,10.79c9.4,11.26,33.32,72.37,33.32,72.37h10.26L277,388.57l124.22-39.05,10.26,27.36-73,86,7.67,7,68.53-84.52,10.9-2.55L407,336.68l-10.26,3.19v3.84L273.91,382.8l-4-5.92-8.32,3.37a74.21,74.21,0,0,1-31.06-9.68c-13.13-.65-91.91-6.31-91.91-6.31V370l16.64,1.29.65,12.16Z"/><path class="cls-1" d="M392.89,290s-29-1.94-46.87,3.19v-8.32s20.62-3.19,23.81-5.13,9.61-7,15.38-7H391s5.13,10.26,12.16,14.09C403.11,290,392.89,290,392.89,290Z"/></g><g id="zadel"><path class="cls-7" d="M427.12,391.66l-2.11-.44c.89-4.24,2.44-9.64,4.24-15.9,6.06-21.06,14.36-49.9,8-70.31-5.23-16.94-33.9-17.17-34.19-17.17v-2.15A66.06,66.06,0,0,1,418.94,288c11,3,18,8.71,20.42,16.4,6.5,21-1.9,50.22-8,71.54C429.54,382.13,428,387.5,427.12,391.66Z"/><path class="cls-7" d="M420.64,370.8l-.69-2c.13,0,13.17-4.89,23.44-32.46,3.33-8.93,2.95-16.71-1.15-23.1-10.52-16.43-42.08-19-42.39-19l.16-2.15c1.34.1,33,2.65,44,20,4.48,7,4.93,15.41,1.35,25C434.73,365.71,421.21,370.6,420.64,370.8Z"/><path class="cls-7" d="M238.58,355.83l-.07-1.07c18.07-1.24,22.26-4.46,23.15-6.27a1.74,1.74,0,0,0,0-1.64l.89-.6a2.79,2.79,0,0,1,0,2.72C260.89,352.49,252.58,354.86,238.58,355.83Z"/><path class="cls-7" d="M232.09,349.89c-4,0-6.94-1.44-6.94-3.35s3-3.35,6.94-3.35,6.94,1.44,6.94,3.35S236,349.89,232.09,349.89Zm0-5.74c-3.52,0-6,1.26-6,2.39s2.45,2.39,6,2.39,6-1.26,6-2.39S235.61,344.15,232.09,344.15Z"/><path class="cls-7" d="M232.09,354.2c-4,0-6.94-1.44-6.94-3.35s3-3.35,6.94-3.35,6.94,1.44,6.94,3.35S236,354.2,232.09,354.2Zm0-5.74c-3.52,0-6,1.26-6,2.39s2.45,2.39,6,2.39,6-1.26,6-2.39S235.61,348.46,232.09,348.46Z"/><path class="cls-7" d="M232.09,358.61c-4,0-6.94-1.44-6.94-3.35s3-3.35,6.94-3.35,6.94,1.44,6.94,3.35S236,358.61,232.09,358.61Zm0-5.74c-3.52,0-6,1.26-6,2.39s2.45,2.39,6,2.39,6-1.26,6-2.39S235.61,352.87,232.09,352.87Z"/><path class="cls-8" d="M225.1,345.64l20.48,2.55H252s26.25-3.51,32.67-9.11-6.42-7.53-6.42-7.53H225.1S220.62,335.42,225.1,345.64Z"/></g><g id="schaduw"><circle class="cls-6" cx="201.93" cy="464.52" r="3.84"/><circle class="cls-6" cx="471.43" cy="462.95" r="3.84"/><path class="cls-6" d="M184.79,386.42c2.55-.39,5.09-.65,7.64-.86s5.13-.36,7.67-.43a122.31,122.31,0,0,1,15.38.47c2.55.25,5.13.57,7.67,1a60.36,60.36,0,0,1,7.53,1.76,43.06,43.06,0,0,1,14,6.63,60.75,60.75,0,0,1,11,10.87,77.18,77.18,0,0,1,4.52,6.28c1.4,2.15,2.69,4.38,3.91,6.67s2.33,4.59,3.37,6.92,2,4.73,2.87,7.14,1.65,4.84,2.37,7.32c.36,1.22.72,2.47,1,3.69l.47,1.86.22.93.11.47.07.22s0,.07,0,.11v-.11s0,.07,0,.11a.13.13,0,0,1,0-.11l-.07-.22-.14-.47-.25-.93-.54-1.83c-.36-1.22-.75-2.44-1.15-3.66-.79-2.44-1.69-4.84-2.65-7.21a115.74,115.74,0,0,0-6.56-13.81,85.68,85.68,0,0,0-8.53-12.62,69.14,69.14,0,0,0-5.13-5.63,58,58,0,0,0-5.74-4.95,44.34,44.34,0,0,0-13.59-6.46,87.15,87.15,0,0,0-14.92-2.94c-2.55-.29-5.06-.5-7.6-.65s-5.09-.22-7.64-.25C195,385.81,189.88,386,184.79,386.42Z"/></g></svg>