<svg xmlns="http://www.w3.org/2000/svg" viewBox="0 0 641.94 556.2"><defs><style>.cls-1{fill:#010101;}.cls-2{fill:#545456;}.cls-3{fill:#e62a3f;}.cls-4{fill:#c1bc02;}.cls-5{fill:#a8aaad;}.cls-6{fill:#1d1d1d;}.cls-7{fill:#343434;}.cls-8{fill:#9f572f;}.cls-9{fill:#75292e;}.cls-10{fill:#5d2425;}.cls-11{fill:#e2e2e1;}.cls-12{fill:#a87e73;}.cls-13{fill:#916a63;}.cls-14{fill:#d8d8d8;}.cls-15{opacity:0.25;}.cls-16{fill:#765551;}.cls-17{fill:#2c120d;}.cls-18{fill:#0e0e0e;}.cls-19{fill:none;stroke:#a9a9a9;stroke-miterlimit:10;}.cls-20{fill:#a9a9a9;}.cls-21{fill:#bc8279;}.cls-22{fill:#916054;}.cls-23{fill:#89635f;}.cls-24{fill:#9e756d;}.cls-25{fill:#141416;}.cls-26{fill:#3d3d3d;}.cls-27{fill:#555454;}.cls-28{fill:#7f7f80;}</style></defs><title>fietser-01</title><g id="Fiets"><g id="achterwiel"><path class="cls-1" d="M117.3,438.92l-3.58-.21a87.15,87.15,0,0,1,155.54-49l-2.82,2.21a83.6,83.6,0,0,0-149.14,47Z"/><path class="cls-2" d="M200.72,525.95a83.51,83.51,0,0,1-9.84-.58A82.12,82.12,0,0,1,149.74,379.3h0a82.12,82.12,0,1,1,51,146.65ZM154.14,384.88a75,75,0,1,0,105.35,12.51,75.1,75.1,0,0,0-105.35-12.51Z"/><path class="cls-2" d="M200.63,515.64a71.84,71.84,0,0,1-44.55-128.28l.67.85-.67-.85a71.86,71.86,0,1,1,44.55,128.28Zm-.21-141.56a69.18,69.18,0,0,0-43,15h0a69.71,69.71,0,1,0,51.36-14.46A70.91,70.91,0,0,0,200.42,374.09Z"/><polygon class="cls-2" points="131.23 461.31 130.91 460.29 191.94 441.23 129.08 447.67 128.97 446.6 202.46 439.06 131.23 461.31"/><polygon class="cls-2" points="198.13 448.03 129.13 437.84 129.29 436.78 192.49 446.11 131.29 425.16 131.64 424.14 198.38 446.99 198.13 448.03"/><rect class="cls-2" x="164.83" y="393.26" width="1.08" height="64.11" transform="translate(-290.92 418.96) rotate(-67.95)"/><rect class="cls-2" x="169.39" y="387.42" width="1.08" height="66.83" transform="translate(-271.72 316.32) rotate(-54.7)"/><polygon class="cls-2" points="197.87 451.12 150.1 395.85 150.91 395.14 192.23 442.94 160.58 384.42 161.53 383.91 197.87 451.12"/><polygon class="cls-2" points="202.71 444.66 169.68 380.72 170.64 380.22 201.09 439.18 182.59 376.18 183.62 375.87 203.71 444.26 202.71 444.66"/><polygon class="cls-2" points="193.57 443.39 192.5 443.3 192.18 372.98 193.25 372.97 193.55 436.85 204.02 372.71 205.08 372.88 193.57 443.39"/><polygon class="cls-2" points="199.79 441.43 215.86 374.5 216.91 374.75 203.08 432.33 229.35 379.12 230.32 379.6 199.79 441.43"/><polygon class="cls-2" points="198.22 440.33 239.23 384.63 240.09 385.27 204.64 433.43 250.61 394.12 251.31 394.94 198.22 440.33"/><polygon class="cls-2" points="198.08 441.97 259.13 403.25 259.71 404.16 207.08 437.53 265.01 416.37 265.38 417.38 198.08 441.97"/><polygon class="cls-2" points="198.36 448.22 269.55 425.93 269.87 426.96 208.88 446.05 271.74 439.57 271.85 440.64 198.36 448.22"/><polygon class="cls-2" points="269.18 463.1 202.41 440.26 202.66 439.22 271.69 449.44 271.53 450.5 208.31 441.14 269.53 462.08 269.18 463.1"/><rect class="cls-2" x="234.91" y="429.88" width="1.08" height="64.11" transform="translate(-281.08 506.78) rotate(-67.95)"/><rect class="cls-2" x="230.35" y="433.02" width="1.08" height="66.81" transform="translate(-283.24 385.55) rotate(-54.72)"/><polygon class="cls-2" points="239.29 503.37 202.95 436.13 250.72 491.4 249.9 492.1 208.59 444.3 240.24 502.86 239.29 503.37"/><polygon class="cls-2" points="216.73 510.8 197.11 442.98 198.11 442.59 231.14 506.56 230.18 507.06 199.68 447.97 217.76 510.5 216.73 510.8"/><polygon class="cls-2" points="196.8 514.53 195.74 514.36 207.25 443.86 208.32 443.94 208.64 514.27 207.56 514.27 207.27 450.4 196.8 514.53"/><polygon class="cls-2" points="184.96 512.75 183.91 512.49 197.71 454.92 171.47 508.16 170.5 507.68 201 445.81 184.96 512.75"/><polygon class="cls-2" points="161.56 502.61 160.69 501.97 196.14 453.82 150.21 493.13 149.51 492.31 202.57 446.91 161.56 502.61"/><polygon class="cls-2" points="143.44 485.04 142.8 484.18 197.38 443 136.95 473.76 136.46 472.8 202.34 439.27 202.9 440.18 143.44 485.04"/><circle class="cls-2" cx="201.93" cy="442.78" r="8.86" transform="translate(-230.7 219.92) rotate(-38.23)"/><path class="cls-3" d="M124.87,400.45h-1.79a1.08,1.08,0,0,1-1.08-1.08v-8.21a1.08,1.08,0,0,1,1.08-1.08h1.79a1.08,1.08,0,0,1,1.08,1.08v8.21A1.08,1.08,0,0,1,124.87,400.45Z"/><path class="cls-1" d="M135.63,389.19h-7.78a3.65,3.65,0,0,0-3.66,3.66v9.4Z"/><path class="cls-4" d="M424.34,304.66l-1.51-.25a1.18,1.18,0,0,1-1-1.36l1.61-9.29a1.18,1.18,0,0,1,1.36-1l1.51.25a1.18,1.18,0,0,1,1,1.36l-1.61,9.29A1.15,1.15,0,0,1,424.34,304.66Z"/></g><g id="ketting_kast" data-name="ketting kast"><path class="cls-1" d="M187.3,440s2.62-8.46,20.84-8.07,120,8.07,120,8.07,30.73,3.19,25.6,27.54-25.6,21.12-25.6,21.12L205.23,460.37S186.69,459.65,187.3,440Z"/><path class="cls-5" d="M405.27,316.67s.86-13.84,8.5-13.48c0,0-6.81-.54-6.81-5.67,0-8.25,17.5-6.53,17.5-6.53l-2.22,14.7s-11.55-2.76-14.42,12.23C405.27,320.33,405.27,316.67,405.27,316.67Z"/><path class="cls-6" d="M305.79,446.42a62.29,62.29,0,0,1,6.85-.61c2.3-.11,4.59-.14,6.92-.07a61.26,61.26,0,0,1,13.7,1.94,36.12,36.12,0,0,1,6.56,2.44,23.7,23.7,0,0,1,5.81,4,18.35,18.35,0,0,1,4.09,5.81,18.92,18.92,0,0,1,1.11,3.41,19.26,19.26,0,0,1,.47,3.51,17.64,17.64,0,0,1-.93,7.06,12.93,12.93,0,0,1-1.69,3.19,13.35,13.35,0,0,1-2.47,2.65l-.72.57c-.25.18-.5.32-.75.5l-.36.25-.39.22c-.25.14-.5.29-.79.43a15.87,15.87,0,0,1-1.61.72l-.82.32-.82.25a28.64,28.64,0,0,1-6.89,1.22,59.11,59.11,0,0,1-13.81-.82c-1.15-.22-2.26-.39-3.41-.65s-2.26-.47-3.37-.72-2.22-.54-3.34-.82-2.22-.61-3.3-.93c2.26.5,4.48,1,6.74,1.4,1.11.22,2.26.39,3.37.57s2.26.32,3.41.47a66.65,66.65,0,0,0,13.63.39,29.11,29.11,0,0,0,6.6-1.33l.79-.25.79-.32c.54-.18,1-.47,1.51-.68a7.11,7.11,0,0,1,.72-.39l.36-.22a3.15,3.15,0,0,1,.36-.22l.68-.47.65-.5a12.63,12.63,0,0,0,2.19-2.4,14.6,14.6,0,0,0,1.51-2.87,14.16,14.16,0,0,0,.72-3.19,19.62,19.62,0,0,0-1.36-9.75,17.61,17.61,0,0,0-3.73-5.42,22.75,22.75,0,0,0-5.45-3.87,36.38,36.38,0,0,0-6.28-2.51,62.81,62.81,0,0,0-13.45-2.3A88.27,88.27,0,0,0,305.79,446.42Z"/></g><g id="trapper"><path class="cls-2" d="M357.86,486.76,330.21,465a3.19,3.19,0,0,1-.54-4.48h0a3.19,3.19,0,0,1,4.48-.54l27.65,21.77a3.19,3.19,0,0,1,.54,4.48h0A3.19,3.19,0,0,1,357.86,486.76Z"/><path class="cls-5" d="M372.7,492.32H343.87a3.52,3.52,0,0,1-3.51-3.51v-3a3.52,3.52,0,0,1,3.51-3.51H372.7a3.52,3.52,0,0,1,3.51,3.51v3A3.52,3.52,0,0,1,372.7,492.32Z"/><circle class="cls-1" cx="358.29" cy="487.3" r="4.48"/></g><g id="voorwiel"><path class="cls-1" d="M413.69,510.63a87.18,87.18,0,0,1,57.74-152.5,89.55,89.55,0,0,1,15.41,1.35l-.62,3.53a85.94,85.94,0,0,0-14.79-1.3,83.6,83.6,0,0,0-55.36,146.23Z"/><path class="cls-2" d="M471.43,527.65A82.13,82.13,0,1,1,529.5,503.6,81.59,81.59,0,0,1,471.43,527.65Zm0-157.14a75,75,0,1,0,75,75A75.1,75.1,0,0,0,471.43,370.51Z"/><path class="cls-2" d="M471.43,517.39a71.87,71.87,0,1,1,71.87-71.87A71.95,71.95,0,0,1,471.43,517.39Zm0-141.58a69.71,69.71,0,1,0,69.71,69.71A69.79,69.79,0,0,0,471.43,375.81Z"/><polygon class="cls-2" points="442.24 510.88 441.23 510.49 464 450.76 430.21 504.12 429.31 503.55 465.95 445.67 466.91 446.14 442.24 510.88"/><polygon class="cls-2" points="422.49 497.99 421.75 497.2 468.23 453.32 413.91 488.44 413.33 487.53 472.57 449.23 473.23 450.07 422.49 497.99"/><rect class="cls-2" x="403.05" y="461.25" width="64.11" height="1.08" transform="translate(-171.75 276.62) rotate(-29.74)"/><rect class="cls-2" x="400.99" y="454.88" width="66.79" height="1.08" transform="translate(-111.2 141.68) rotate(-16.45)"/><polygon class="cls-2" points="402.49 455.53 402.44 454.45 465.57 451.59 399.98 440.24 400.16 439.18 475.5 452.22 402.49 455.53"/><polygon class="cls-2" points="473.41 444.4 402.73 430.77 402.93 429.72 468.1 442.28 407.15 417.84 407.55 416.84 473.71 443.37 473.41 444.4"/><polygon class="cls-2" points="466.01 451.61 410.56 408.33 411.23 407.48 461.59 446.8 417.71 398.87 418.5 398.15 466.74 450.83 466.01 451.61"/><polygon class="cls-2" points="469.04 444.69 426.43 390.67 427.28 390 463.92 436.46 438.38 382.93 439.35 382.46 469.04 444.69"/><polygon class="cls-2" points="467.21 445.24 448.86 378.57 449.89 378.28 465.75 435.91 463.33 375.54 464.4 375.5 467.21 445.24"/><polygon class="cls-2" points="468.41 446.39 475.81 374.46 476.88 374.57 470.5 436.55 489.71 377.94 490.73 378.27 468.41 446.39"/><polygon class="cls-2" points="473.47 450.04 500.05 380.32 501.05 380.7 478.28 440.43 512.11 387.03 513.02 387.61 473.47 450.04"/><polygon class="cls-2" points="469.75 441.92 469.09 441.08 519.83 393.17 520.57 393.95 474.1 437.83 528.41 402.72 528.99 403.62 469.75 441.92"/><rect class="cls-2" x="475.18" y="428.85" width="64.09" height="1.08" transform="translate(-146.19 308.12) rotate(-29.74)"/><rect class="cls-2" x="474.5" y="435.21" width="66.83" height="1.08" transform="translate(-102.79 162.08) rotate(-16.49)"/><polygon class="cls-2" points="542.16 452.01 466.83 438.97 539.79 435.63 539.84 436.7 476.74 439.6 542.35 450.95 542.16 452.01"/><polygon class="cls-2" points="534.06 474.32 468.61 447.78 468.91 446.75 539.6 460.38 539.39 461.44 474.12 448.85 534.46 473.32 534.06 474.32"/><polygon class="cls-2" points="523.82 493.04 475.55 440.36 476.28 439.58 531.76 482.82 531.1 483.67 480.69 444.38 524.61 492.32 523.82 493.04"/><polygon class="cls-2" points="502.97 508.73 473.25 446.47 515.89 500.49 515.04 501.15 478.36 454.69 503.94 508.26 502.97 508.73"/><polygon class="cls-2" points="477.92 515.69 475.08 445.92 493.47 512.58 492.43 512.87 476.53 455.24 479 515.65 477.92 515.69"/><polygon class="cls-2" points="468.45 515.93 467.38 515.91 468.79 447.57 455.57 514.09 454.51 513.88 468.93 441.37 470 441.48 468.45 515.93"/><circle class="cls-2" cx="471.43" cy="443.87" r="8.86"/></g><g id="frame_grijs" data-name="frame grijs"><polygon class="cls-2" points="269.93 357.88 258.42 336.25 252 336.25 252 329.23 244.14 329.23 244.14 341.17 255.26 342.17 265.01 363.15 269.93 357.88"/><polygon class="cls-2" points="416.99 365.48 445.86 424.65 468.56 447.68 470.35 443.19 450.52 421.43 422.34 363.15 416.99 365.48"/><polygon class="cls-2" points="399.28 320.08 406.95 317.68 392.89 288.88 399.92 283.11 399.92 268.08 392.89 270.95 392.89 279.92 385.18 286.3 399.28 320.08"/></g><g id="frame_zwart" data-name="frame zwart"><path class="cls-1" d="M176.44,361.25l37.15,63.4-14.74,19.87h0a4,4,0,0,0,3.91,3.19h.57l17.29-20.48,64,5.77s-2.55-31.38-21.77-50.6l7-7.67-2.4-4.52L259.1,379C259.1,378.93,230.23,347.8,176.44,361.25Z"/><path class="cls-1" d="M191.78,436.16h3.84L160.41,363.8V351.64l70.11,4.55s25.28,14,33.64,10.79c9.4,11.26,33.32,72.37,33.32,72.37h10.26L277,369.57l124.22-39.05,10.26,27.36-73,86,7.67,7,68.53-84.52,10.9-2.55L407,317.68l-10.26,3.19v3.84L273.91,363.8l-4-5.92-8.32,3.37a74.21,74.21,0,0,1-31.06-9.68c-13.13-.65-91.91-6.31-91.91-6.31V351l16.64,1.29.65,12.16Z"/><path class="cls-1" d="M392.89,271s-29-1.94-46.87,3.19v-8.32s20.62-3.19,23.81-5.13,9.61-7,15.38-7H391s5.13,10.26,12.16,14.09C403.11,271,392.89,271,392.89,271Z"/></g><g id="zadel"><path class="cls-7" d="M427.12,372.66l-2.11-.44c.89-4.24,2.44-9.64,4.24-15.9,6.06-21.06,14.36-49.9,8-70.31-5.23-16.94-33.9-17.17-34.19-17.17v-2.15A66.06,66.06,0,0,1,418.94,269c11,3,18,8.71,20.42,16.4,6.5,21-1.9,50.22-8,71.54C429.54,363.13,428,368.5,427.12,372.66Z"/><path class="cls-7" d="M420.64,351.8l-.69-2c.13,0,13.17-4.89,23.44-32.46,3.33-8.93,2.95-16.71-1.15-23.1-10.52-16.43-42.08-19-42.39-19l.16-2.15c1.34.1,33,2.65,44,20,4.48,7,4.93,15.41,1.35,25C434.73,346.71,421.21,351.6,420.64,351.8Z"/><path class="cls-7" d="M238.58,336.83l-.07-1.07c18.07-1.24,22.26-4.46,23.15-6.27a1.74,1.74,0,0,0,0-1.64l.89-.6a2.79,2.79,0,0,1,0,2.72C260.89,333.49,252.58,335.86,238.58,336.83Z"/><path class="cls-7" d="M232.09,330.89c-4,0-6.94-1.44-6.94-3.35s3-3.35,6.94-3.35,6.94,1.44,6.94,3.35S236,330.89,232.09,330.89Zm0-5.74c-3.52,0-6,1.26-6,2.39s2.45,2.39,6,2.39,6-1.26,6-2.39S235.61,325.15,232.09,325.15Z"/><path class="cls-7" d="M232.09,335.2c-4,0-6.94-1.44-6.94-3.35s3-3.35,6.94-3.35,6.94,1.44,6.94,3.35S236,335.2,232.09,335.2Zm0-5.74c-3.52,0-6,1.26-6,2.39s2.45,2.39,6,2.39,6-1.26,6-2.39S235.61,329.46,232.09,329.46Z"/><path class="cls-7" d="M232.09,339.61c-4,0-6.94-1.44-6.94-3.35s3-3.35,6.94-3.35,6.94,1.44,6.94,3.35S236,339.61,232.09,339.61Zm0-5.74c-3.52,0-6,1.26-6,2.39s2.45,2.39,6,2.39,6-1.26,6-2.39S235.61,333.87,232.09,333.87Z"/><path class="cls-8" d="M225.1,326.64l20.48,2.55H252s26.25-3.51,32.67-9.11-6.42-7.53-6.42-7.53H225.1S220.62,316.42,225.1,326.64Z"/></g><g id="schaduw"><circle class="cls-6" cx="201.93" cy="445.52" r="3.84"/><circle class="cls-6" cx="471.43" cy="443.95" r="3.84"/><path class="cls-6" d="M184.79,367.42c2.55-.39,5.09-.65,7.64-.86s5.13-.36,7.67-.43a122.31,122.31,0,0,1,15.38.47c2.55.25,5.13.57,7.67,1a60.36,60.36,0,0,1,7.53,1.76,43.06,43.06,0,0,1,14,6.63,60.75,60.75,0,0,1,11,10.87,77.18,77.18,0,0,1,4.52,6.28c1.4,2.15,2.69,4.38,3.91,6.67s2.33,4.59,3.37,6.92,2,4.73,2.87,7.14,1.65,4.84,2.37,7.32c.36,1.22.72,2.47,1,3.69l.47,1.86.22.93.11.47.07.22s0,.07,0,.11v-.11s0,.07,0,.11a.13.13,0,0,1,0-.11l-.07-.22-.14-.47-.25-.93-.54-1.83c-.36-1.22-.75-2.44-1.15-3.66-.79-2.44-1.69-4.84-2.65-7.21a115.74,115.74,0,0,0-6.56-13.81,85.68,85.68,0,0,0-8.53-12.62,69.14,69.14,0,0,0-5.13-5.63,58,58,0,0,0-5.74-4.95,44.34,44.34,0,0,0-13.59-6.46,87.15,87.15,0,0,0-14.92-2.94c-2.55-.29-5.06-.5-7.6-.65s-5.09-.22-7.64-.25C195,366.81,189.88,367,184.79,367.42Z"/></g></g><g id="Wielrenner"><path class="cls-9" d="M386.28,514.45a26,26,0,0,0-2.86,13s.64,1.64,5.75,4.84,8.72,10.51,8.72,10.51,9,10.18,25.33,4.69c0,0,7.6-4.09-1.45-12.57s-13-14.06-15.92-23.21"/><path class="cls-10" d="M384.87,517.71s-.05,1.19,1.54,3.74,2.76,3,3.51,7.47a21.36,21.36,0,0,0,3,4.62s4.75,6.4,6,8.78,12.85,9,26.46,3a7.32,7.32,0,0,1-2.17,2.1s-14.13,5.92-25.33-4.69c0,0-3.87-7.78-8.72-10.51,0,0-4.47-2.59-5.75-4.84A28.56,28.56,0,0,1,384.87,517.71Z"/><path class="cls-11" d="M393,533.53s1.18-5.06,5.78-7l1.66,2.44s-3.69,2-5.32,7.53Z"/><path class="cls-11" d="M396.09,537.88s1.81-5.77,5-7.52l1.7,2.34a17.84,17.84,0,0,0-5,7.81Z"/><path class="cls-11" d="M398.92,542.31s1.88-5.73,4.77-8.78l2.22,2.93a19.76,19.76,0,0,0-4.73,7.88Z"/><path d="M304,121.8s-1.43-5.35-3.78-8.41S316,101.76,316,101.76L332.89,103l11.85,8.78-.62,4.56-3.7,6.71Z"/><path class="cls-12" d="M392.13,397.59s1.77,12,2.66,21.91c0,0,2.94,10.57,2.94,19.44,0,0,3.34,37.27,8.11,72.73l-10.39,6.8-9.17-4s-16.51-45.51-12.41-72.11c0,0-9.89-13.72-16-42Z"/><path class="cls-13" d="M392.13,397.59s1.77,12,2.66,21.91c0,0,2.94,10.57,2.94,19.44,0,0,4.24,39.89,9,75.36l-6.56,1.36h0l-8.74-71.71-4.83.28-6.27-2c3.62,1.19,10.14-4.13,10.14-4.13-3.15-5.29-8-31.29-7.21-36.58,0,0-9.83.93-25.44-1.09Z"/><path class="cls-12" d="M351.7,152s-5.8,19.78-22.85,20.12-10.23-15.34-10.23-15.34a58.32,58.32,0,0,0-1.35-7.33s-5.73-3.84-8.16-9c0,0-3.71-6.39-4-12.4s-7.67-22.76,5.63-23.78c0,0,8.44-7,15.73-7.29,0,0,4.35,15.73,14.19,21.61,0,0,1.66-7.42,6.52-6.27s2.81,19.69-3.32,16.37C343.9,128.77,344.41,147.82,351.7,152Z"/><path class="cls-13" d="M317.28,149.48s6.55,4.35,18.82.9a12.07,12.07,0,0,1-5.11,5.37,9.91,9.91,0,0,0,6.78,1.92s2.12,2.53,3.17,10.28c0,0,8.46-6.19,10.77-15.91,0,0-6.9-3.32-7.8-23.27,0,0,5.39,3.43,6-11,0,0,0-4.62-2.65-5.38s-5.24,1-6.52,6.27c0,0-.26,17.13-6.9,24.81A23.12,23.12,0,0,1,317.28,149.48Z"/><path class="cls-14" d="M390.1,367.8c-.33-22.67-10.18-56.56-10.18-56.56l-40.6-8.19L291.93,314.3s-6.83,36.33-3.83,55.83l-1.88,28.05c10,2.18,33.76,2.22,33.76,2.22.76-6,1-6.77,1-6.77,7.37-19,8.13-28.5,9.95-34.5s7.94-7.5,7.94-7.5a11.75,11.75,0,0,1,7.83,7.5c1.86,6,2.64,15.5,10.18,34.5,0,0,.23.81,1,6.77,0,0,24.3,0,34.54-2.22C392.4,398.18,390.41,388.92,390.1,367.8Z"/><path class="cls-9" d="M295.44,506.79s2.81,12.1-1.53,20a27.09,27.09,0,0,1-7.93,4.35,15,15,0,0,0-6.65,5.88s-7.67,10.74-26.08,9-7.67-14.58-3.32-15.34c0,0,11.76-10.06,17.13-13l5.88-9.55Z"/><path class="cls-15" d="M395.45,518.46a7.78,7.78,0,0,1,9.34,3c3.68,5.37,11.1,11.76,14.42,16.11s3.58,7.69,0,11c0,0,12.28-1.11,4.35-11.81,0,0-13.68-11.72-16.82-22.46C406.75,514.29,399.82,514.44,395.45,518.46Z"/><path class="cls-16" d="M343.64,123.78a3.54,3.54,0,0,0,0-4.86s.26-5.24,2.94-4.35c0,0,1.79.15,1.79,4.55,0,0-.57-2.77-2.37-2.89,0,0-.8-.5-1.09,2.3C344.92,118.54,348.12,122.12,343.64,123.78Z"/><path class="cls-11" d="M279.84,534.36s-5.63-4.66-8.18-6.29l-2.93,2.2s7.15,4,9.06,7.29Z"/><path class="cls-11" d="M283.61,531.05s-3.64-3.27-7.93-6.41l-2.43,1.85s5.56,4.61,8,7C281.24,533.53,282.14,532.47,283.61,531.05Z"/><path class="cls-11" d="M287.47,528.07s-5.52-5.47-7.12-6.62l-2.69,2.11s5.25,4.09,7.1,6.59Z"/><path class="cls-12" d="M286.23,398.18v21s-3.81,12.17-3.41,21.48c0,0-4.77,45.69-9.89,67.51l16,8.57,6.53-9.93s16.71-39.21,10.57-63.08c0,0,11.59-20.8,14-43.3Z"/><path class="cls-10" d="M296.16,511.66a14.06,14.06,0,0,1-3.15,6.59,14.72,14.72,0,0,0-3.26,6.39,27.28,27.28,0,0,1-5.5,6c-2.81,2-4,3-4.9,4.47a22,22,0,0,1-8,7.19c-4.8,2.68-27.2,5.86-28.17-4.75,0,0-3,7.22,10.08,8.44,0,0,15.86,2.11,25.67-8.44,0,0,2.75-4.31,5.61-5.64a50.36,50.36,0,0,0,9.38-5.1S297.07,522,296.16,511.66Z"/><path class="cls-15" d="M295.43,506.79s2.81,12.1-1.53,20a27.08,27.08,0,0,1-7.93,4.35,15,15,0,0,0-6.65,5.88s-7.67,10.74-26.08,9,30.36-14.95,31.52-29.54c0,0,0-1.53-3.69-4.5l7.84,4.75Z"/><path class="cls-17" d="M321,119.13s2.69-8.13,10-2.76C331,116.36,325.61,113.58,321,119.13Z"/><path class="cls-17" d="M313.08,121.86s-5.3-5.71-7.29,1.92C305.79,123.78,307.84,118.67,313.08,121.86Z"/><circle class="cls-17" cx="326" cy="116.83" r="1.28"/><circle class="cls-17" cx="310.08" cy="121.8" r="1.28"/><path class="cls-16" d="M320.76,126.93s2.26-.34,2.94,2.6C323.7,129.53,324.68,125.05,320.76,126.93Z"/><path class="cls-16" d="M322.29,130.37s-.9-2.92-3.32-1.3c0,0-.91,1.88,2.55,1.3Z"/><path class="cls-18" d="M331,111a7.39,7.39,0,0,0-8.69-.77c-5.2,2.73-2.81,4.3-2.81,4.3S324.42,108.53,331,111Z"/><path class="cls-18" d="M303.65,117.79s-.75-4.41,7.71-2.24c0,0,.58.19.77,1.58C312.12,117.13,307,114.48,303.65,117.79Z"/><path class="cls-16" d="M315.39,125.06s-1.89,6.49,1.79,6.77C317.18,131.83,314.62,130.18,315.39,125.06Z"/><path class="cls-14" d="M383.92,164.44A142.78,142.78,0,0,0,351.7,152a11.35,11.35,0,0,1-1.89-1.68h0c-13.14,8.09-19.26,9.09-19.26,9.09-5.33,2-8.1-1.52-12.3-5.33h0L316.91,157c-7.71,4.24-16.5,9.4-28.12,15.18-12.45,6.19-11.42,28.08-11.42,28.08a19.82,19.82,0,0,1-.85,11.59,32.79,32.79,0,0,0-1.88,12.62l18.58,10.4a115.21,115.21,0,0,1,1.45,27.53c-.43,6.08-2.73,51.92-2.73,51.92s64.2-.34,66.07-3.06,4.6-4.78,7.33-1.71a8.3,8.3,0,0,0,6.48,2.73l8.1-1-4.15-57.8-12-33.08s-1.53-9.21,13.3-9.55,16.2,9.55,16.2,9.55c2-9.72,0-25.4,0-25.4C399.61,167.17,383.92,164.44,383.92,164.44Z"/><path class="cls-19" d="M329.5,310.47s3.61-66-2.22-92,0-54.94,0-54.94V160"/><path class="cls-20" d="M383.92,164.44S363.29,154.13,351.7,152l-1.89-1.68s-2.7,1.39-13.95,7.33l.5,2.69s-8,11.3,4.58,7.57a37.56,37.56,0,0,0,5.26-1.94c5.94-1.87,15.74-4,23.07-.6,11.25,5.18,15,6.76,15,6.76s-1,13.42,2.22,23.31a107.72,107.72,0,0,1-.86,16.54,12.39,12.39,0,0,1,7.68,8.35s2-7.16,0-25.4C393.3,195,400.46,169.39,383.92,164.44Z"/><path class="cls-16" d="M314.54,132.13a4.21,4.21,0,0,1,.08-2.85S312.77,130.18,314.54,132.13Z"/><path class="cls-16" d="M315.17,130.48s-1,1.75,1.49,1.74Z"/><path class="cls-21" d="M328.85,132.94s-.46,5.38-7.66,7a8,8,0,0,1-6.62-1.58l3.37-.72,3.54-1.28,4-1.11,2.22-.68Z"/><path class="cls-22" d="M314.57,138.4a7.82,7.82,0,0,0,3-1.36,20.79,20.79,0,0,1,8.48-2.43,3.66,3.66,0,0,0,2.77-1.67,3.4,3.4,0,0,1-2.64,2.73,36.19,36.19,0,0,0-8.06,2.39A4.3,4.3,0,0,1,314.57,138.4Z"/><path class="cls-20" d="M367.89,192.54s-10.13,29-40.61,45.09l24.42,6.71,20.63-10.3L364,213.88Z"/><path class="cls-20" d="M368.67,400.2c7.82-.25,18-.79,23.73-2,0,0-2-9.26-2.3-30.39-.33-22.67-10.18-56.56-10.18-56.56l-4.15-57.8-.23-.64-15.91-2.29-21.23.31L314.55,256l-13.32,3.66s56.6,21.46,69.62,56.41C381,343.26,392.57,394.66,368.67,400.2Z"/><path class="cls-13" d="M291.23,398.51s9.62,1.82,18.88,3.12c0,0-3,29.46-10,41.05,0,0-2.84,41.76-13.87,71.77l2.68,2.27s24.7-37.34,17.1-73c0,0,13.3-28.3,14-43.3Z"/><path class="cls-23" d="M274.64,224.46s1.53-7.16,14.32-6c0,0,9,.17,12.28,4.26v.85s.51,7-3.58,16.71L349.48,243l34.8-3.77s.75,2.86-1.73,3.77c0,0,3.58.68,3.75,3.41,0,0,.34,1.7-1,1.88,0,0,2.22,1,2.22,2.73,0,0-.48,2.92-7.84,2a74.83,74.83,0,0,0-17,1.63,73.68,73.68,0,0,1-19,1.1l-4.78,1.34a68.48,68.48,0,0,0-12.44,2.5c-5.29,1.78-21.14,4-37,2.29,0,0-7.16.85-8.35-5.63s-6.52-17.53-6.52-17.53A89.91,89.91,0,0,1,274.64,224.46Z"/><path class="cls-24" d="M274.64,224.46s1.53-7.16,14.32-6c0,0,9,.17,12.28,4.26a42.64,42.64,0,0,1-3.58,17.56l-23.06-1.51A89.91,89.91,0,0,1,274.64,224.46Z"/><path class="cls-23" d="M295.89,219.59a37.37,37.37,0,0,1-1.65,16.25l4.6.46a37.53,37.53,0,0,0,2.39-13.55A8,8,0,0,0,295.89,219.59Z"/><path class="cls-12" d="M393.3,220.36s-.72-8.55-13.32-9.48-16.69-.07-17.88,8.45a26.4,26.4,0,0,0,0,9s-9.21.17-25.06,7c0,0-6.48,3.41-21.65,2.39,0,0-9.46-.34-16.54-1.45a25.83,25.83,0,0,0-8.52-5.71,31.13,31.13,0,0,1-5.29-3.41c-1.79-1.62-2.73-.17-6.39-1.88a1.31,1.31,0,0,0-2,.26c-.79,1.28-.62,3.83,4.32,5.71a5.88,5.88,0,0,1,2.56,2.78l.43,1.06a37.24,37.24,0,0,1-7.08,2s-4.6,3.32-6,4.43a2.9,2.9,0,0,0-1.28,2.73,2.55,2.55,0,0,0,2.47,2.47s-1,.51-.51,2.81,2,2,2,2-.94,1.19-.68,2.13a2.85,2.85,0,0,0,2.39,2.47,1.82,1.82,0,0,0-.73,2.3c.56,1.62,4.22,1.19,6.35.51,0,0,9,.51,14.66-3.32s12.53-1.45,17-.77,40.8,5.38,52.21-1.28c0,0,11.51.38,14.19-8.82C379.06,244.87,390.27,235.49,393.3,220.36Z"/><path class="cls-20" d="M378.46,171.43S366,177.62,366.16,198.9a35.31,35.31,0,0,0-3.64,18.24l1.46-3.26s2.73-21,19.78-25.91a25.76,25.76,0,0,0-13.47,7.16s3.92-11.42,15.86-13.64c0,0-7.31-.85-13.64,7.5,0,0,3.58-10.91,13.64-14.15,0,0-1.87-.88-9.89,4.6,0,0,6-9.36,9.89-11.5a31,31,0,0,0-13.81,14.57S372,178.42,378.46,171.43Z"/><path class="cls-20" d="M372.33,201.34a58.74,58.74,0,0,0,17-10.2A24,24,0,0,1,372.33,201.34Z"/><path class="cls-20" d="M378.29,203s9.89-2.56,13.47-5.46C391.76,197.52,391.59,204.53,378.29,203Z"/><path class="cls-20" d="M301.23,222.75a21,21,0,0,0-1.53-7.67c-1.7-4.6-7-25.91,0-41.09,0,0-4.76,22,1.54,40.75C301.24,214.74,302.26,217.64,301.23,222.75Z"/><path class="cls-20" d="M296.36,197.52s-4.51-1.7-8.26-7.84c0,0,2.25,4.48,8.37,9.23,0,0,1.4,11.91-.58,20.69a9.68,9.68,0,0,1,5.34,3.16v-4l-1.58-7.54-1.81-8-.45-5.46Z"/><path class="cls-20" d="M297.44,206s-9.84-5.56-16.15-7.12c0,0,7.73,3.86,16.56,9.25"/><path class="cls-25" d="M385.28,248.32s0-.05,0-.14h0c.09-.61.2-2.92-2.76-5.12l.09-.13-.09,0,.14-.06a4.56,4.56,0,0,0,.65-3.6l-10,1.08L368.85,249l-3.08,1.55.63,3.37a74.21,74.21,0,0,1,13.25-.93,13.79,13.79,0,0,0,5.57-.22C385.79,252.17,386.93,250.63,385.28,248.32Z"/><path class="cls-20" d="M294.24,210.59s-9.21-1.05-15.69-7.06C278.56,203.53,282.82,211.22,294.24,210.59Z"/><path class="cls-20" d="M318.62,225.25s11.37-2.9,22.31,0A25.93,25.93,0,0,0,318.62,225.25Z"/><path class="cls-13" d="M279.45,258.68c1.53-.38,2.69-.64,2.69-.64a23.39,23.39,0,0,0,11-3.2c6.14-5.11,8.55-4.48,8.55-4.48,9.07,1.92,21.49,0,21.49,0,19.56-3.25,31.33-1.79,35-1.15a10.76,10.76,0,0,0,6.9-1.41c3.07-4,8.18-7.93,10.23-9.59a10.64,10.64,0,0,0,2.94-4.17c2-8.64,7.32-22,7.32-22,7.19,2.57,7.68,8.35,7.68,8.35-3,15.13-14.24,24.51-14.24,24.51-2.69,9.21-14.19,8.82-14.19,8.82-11.41,6.66-47.69,2-52.21,1.28s-11.34-3.07-17,.77-14.66,3.32-14.66,3.32c-2.13.68-5.8,1.11-6.35-.51C276,259.45,277.92,259.06,279.45,258.68Z"/><path class="cls-13" d="M283.93,235.11a2.16,2.16,0,0,0,.51-3.41s-1.28-1.28-2.17-2.3c0,0-4.16.11-6-2.82,0,0-.88,2.87,4.66,4.7C280.94,231.27,283.54,232.77,283.93,235.11Z"/><path class="cls-13" d="M277.15,241.93s-1.67,0-2.82,2.43a10.27,10.27,0,0,1-2.26,2.43l-1.36-.45a17.14,17.14,0,0,0,2.22-2S275,241.67,277.15,241.93Z"/><path class="cls-13" d="M273.61,251.65s.92-1.09,2.32-2.43a5.8,5.8,0,0,1,3-1.53,4.73,4.73,0,0,0-3.39.83,30.94,30.94,0,0,0-2.92,2.89Z"/><path class="cls-13" d="M275.32,256.25a27.24,27.24,0,0,0,4.33-2.81s-2.31,0-5.05,2.61Z"/><path class="cls-25" d="M290.32,230.59A37.3,37.3,0,0,1,286,228c-.92.13-3.26.8-3.72,4.35h0a7.39,7.39,0,0,1,1.2,1.72l.43,1.06a37.24,37.24,0,0,1-7.08,2s-4.6,3.32-6,4.43c0,0-1.64,3.66,1.75,4.72,0,0-1.29,3.45,1.3,5a3.87,3.87,0,0,0,1.85,4.72,2.47,2.47,0,0,0,.89,3.65,12.26,12.26,0,0,0,4.27-.58s9,.51,14.66-3.32a12,12,0,0,1,3.31-1.55S296.77,252,296.6,246a17.85,17.85,0,0,1,2.24-9.66A25.83,25.83,0,0,0,290.32,230.59Z"/><path class="cls-25" d="M299.71,118.54A20.56,20.56,0,0,1,310,116.45a18.1,18.1,0,0,0,10.42-2.8s7.42-4,14.2-3.74,10.16,1.9,10.16,1.9l-2.4,1.71a10.05,10.05,0,0,0-5.86,1.2s-.7.3-.72,2.44-1.1,4.35-4.76,5.86-10.39,5.17-13.32-.18c0,0-.62-2.31-2.15-1.55s-1,1.12-1.19,3.14-.1,3.24-4.24,3.92a8.44,8.44,0,0,1-9.43-5.08C299,119.46,299.71,118.54,299.71,118.54Z"/><path class="cls-20" d="M344,354.52c-3.61-8.09-20.43-9.84-21.18-2.77s-6.5,35.68-7.75,41.68-22.76,5-22.76,5h0c11.24,1.17,27.65,1.82,27.65,1.82.76-6,1-6.77,1-6.77,7.37-19,8.13-28.5,9.95-34.5s7.94-7.5,7.94-7.5A12.37,12.37,0,0,1,344,354.52Z"/><path class="cls-26" d="M301,116.83a13.72,13.72,0,0,1-5.62-5,5.82,5.82,0,0,1,.88-2.67c.94-1.8,1-1.74-.12-2.93s-1.56-1.94-.75-3.69-.75-2.75,1.31-6.81a38.62,38.62,0,0,0,2.63-2.87,4.92,4.92,0,0,1-.31-1.25,22.11,22.11,0,0,1,3.44-1.56,2.59,2.59,0,0,1,1.21.69,11.51,11.51,0,0,0,2-.69,2,2,0,0,0,.5-1.56c-.19-.81-.45-2.05.81-2.62s3.38-.06,3.69,0c0,0,3.28-4.81,6.67-4.37s3.64.19,5.33,3.31h1.13s1.06-2.25,5.44-2.87c0,0,3.06-.87,4.56,3.06,0,0,3.75-1,5.38.75s4.44,3.63,2.19,7a7.73,7.73,0,0,1,6.06,5.88c1.06,5.06-.94,11.7-1.87,13.6,0,0-2.12,2.78-4,.34s-10.06-5.5-18-3.94S302.23,111.65,301,116.83Z"/><path class="cls-18" d="M336.54,109.66s2.23,14.16,3.73,21.69-5.25,17.31-14.75,19c0,0-6.24.87-8.86-1.31l1,2.16s2.82,1.4,7.84.85,18.33-6,16.67-20.7-2.42-21.46-2.42-21.46Z"/><path class="cls-27" d="M295.35,102.57a3,3,0,0,0-.36,2,14.81,14.81,0,0,0,2.94,2c1.08.5,2.75,2.5.83,3.34a19.22,19.22,0,0,0-3.42,2,13.72,13.72,0,0,0,5.63,5c1.25-5.18,14.56-6.63,22.5-8.2s16.13,1.5,18,3.94,4-.34,4-.34c.94-1.9,2.94-8.54,1.88-13.6a7.73,7.73,0,0,0-6.06-5.87c1.81-2.71.35-4.42-1.13-5.92h0C338.37,91.54,326.69,103,325,105a12.49,12.49,0,0,1-6.85,3.75c-2,.17.42-3.17.82-4.5s5.09-9.33,8.35-13.33a16.56,16.56,0,0,1,9.07-5.33c1.25-.33,3.34.82,3.34.82h0c-.21-.21-.41-.41-.59-.62-1.63-1.79-5.37-.75-5.37-.75l0,0A23.68,23.68,0,0,0,330,86c-3.17,1.17-6.08,4.58-7.08,5.75s-2.17,1.58-2,.42.05-6.42,0-8.42c0-.91,0-1.21.12-1.26-.79-.75-1.68-.75-3.82-1-2.69-.35-5.31,2.6-6.27,3.84a4.44,4.44,0,0,1-.4.53,15.79,15.79,0,0,0-3.25,7.92c.08,1-.42,1.83-1.56.5a18.46,18.46,0,0,1-2.16-3.54,2.59,2.59,0,0,0-1.21-.69A22.11,22.11,0,0,0,299,91.63a4.92,4.92,0,0,0,.31,1.25l-.09.11,1.32.72c1.54,2.08,8.17,10.75,9.56,12.33s1.61,3.33,0,3.84-3.89,0-4.28-.7-5.36-4.3-7.77-7.05a7.27,7.27,0,0,1-1.35-6.38C294.6,99.82,296.17,100.82,295.35,102.57Z"/><path class="cls-26" d="M310.44,97.06s-1.33-11.59,5.08-14.59c0,0,2.09-1.25,1.75,1.83s.58,21.17-2.67,21S310.51,101.05,310.44,97.06Z"/><path class="cls-26" d="M333.35,101.47s5.42-5.07,9.33-4.41,2.5,5.16.58,5.58S330.19,105.47,333.35,101.47Z"/><path class="cls-28" d="M327.31,160a32.85,32.85,0,0,0-2,5.31l2.29.34A38.31,38.31,0,0,0,327.31,160Z"/></g></svg>