<?xml version="1.0" encoding="utf-8"?>
<!-- Generator: Adobe Illustrator 21.1.0, SVG Export Plug-In . SVG Version: 6.00 Build 0)  -->
<svg version="1.1" id="Layer_1" xmlns="http://www.w3.org/2000/svg" xmlns:xlink="http://www.w3.org/1999/xlink" x="0px" y="0px"
	 viewBox="0 0 1920 1080" style="enable-background:new 0 0 1920 1080;" xml:space="preserve">
<style type="text/css">
	.st0{fill:none;stroke:#000000;stroke-width:10;stroke-miterlimit:10;}
	.st1{fill:none;stroke:#535355;stroke-width:19.8279;stroke-miterlimit:10;}
	.st2{fill:none;stroke:#535355;stroke-width:6;stroke-miterlimit:10;}
	.st3{fill:none;stroke:#535355;stroke-width:3;stroke-miterlimit:10;}
	.st4{fill:#535355;}
	.st5{fill:#F41C3B;}
	.st6{fill:#C1BC00;}
	.st7{fill:#A7A9AD;}
	.st8{fill:#1C1C1C;}
	.st9{fill:none;stroke:#333333;stroke-width:6;stroke-miterlimit:10;}
	.st10{fill:none;stroke:#333333;stroke-width:3;stroke-miterlimit:10;}
	.st11{fill:none;stroke:#333333;stroke-width:2.694;stroke-miterlimit:10;}
	.st12{fill:#9E562E;}
</style>
<g id="achterwiel">
	<path class="st0" d="M791.7,575.1c-11.3-14.4-24-27.1-37.6-38.1c-84.5-68.2-207.8-71.6-296.8-1.6c-55.8,43.9-86.6,107.8-90.4,173.5
		"/>
	
		<ellipse transform="matrix(0.7855 -0.6188 0.6188 0.7855 -317.7264 528.8794)" class="st1" cx="604.1" cy="722.8" rx="219.1" ry="219.1"/>
	
		<ellipse transform="matrix(0.7855 -0.6188 0.6188 0.7855 -317.7264 528.8794)" class="st2" cx="604.1" cy="722.8" rx="197.4" ry="197.4"/>
	<g>
		<path class="st3" d="M439,833.6"/>
		<path class="st3" d="M597.5,733.1"/>
		<path class="st3" d="M423,796.9"/>
		<polyline class="st3" points="404.6,732.1 594.7,712.6 410.3,770.2 		"/>
		<polyline class="st3" points="405.1,704.7 597.5,733.1 411.4,669.4 		"/>
		<line class="st3" x1="423.1" y1="637.7" x2="588.8" y2="704.8"/>
		<line class="st3" x1="442.6" y1="604.9" x2="594.7" y2="712.6"/>
		<polyline class="st3" points="464.5,588.1 588.7,731.8 493.9,556.5 		"/>
		<polyline class="st3" points="519.3,546.2 611.4,724.5 555.4,533.8 		"/>
		<polyline class="st3" points="582.2,525.3 583.1,721.4 615.2,524.8 		"/>
		<polyline class="st3" points="648.2,529.9 606.5,703.5 685.7,543.1 		"/>
		<polyline class="st3" points="713.1,558.7 606.5,703.5 744.6,585.4 		"/>
		<path class="st3" d="M781.3,639.6"/>
		<path class="st3" d="M597.5,733.1"/>
		<path class="st3" d="M763.3,608"/>
	</g>
	<g>
		<polyline class="st3" points="784.3,647.7 609.7,711.5 768.2,611 		"/>
		<polyline class="st3" points="802.7,712.5 612.6,732.1 796.9,674.4 		"/>
		<polyline class="st3" points="802.2,740 609.7,711.5 795.9,775.2 		"/>
		<line class="st3" x1="784.2" y1="806.9" x2="618.5" y2="739.8"/>
		<line class="st3" x1="764.7" y1="839.7" x2="612.6" y2="732.1"/>
		<polyline class="st3" points="742.8,856.5 618.6,712.8 713.4,888.2 		"/>
		<polyline class="st3" points="688,898.5 595.9,720.1 650.6,909.2 		"/>
		<polyline class="st3" points="625.1,919.3 624.2,723.2 592.1,919.8 		"/>
		<polyline class="st3" points="559.1,914.7 600.7,741.1 521.6,901.6 		"/>
		<polyline class="st3" points="494.1,885.9 600.7,741.1 462.7,859.2 		"/>
		<polyline class="st3" points="443.9,836.6 609.7,711.5 426,805 		"/>
	</g>
	
		<ellipse transform="matrix(0.7855 -0.6188 0.6188 0.7855 -315.1611 530.5708)" class="st4" cx="607.9" cy="720" rx="24.7" ry="24.7"/>
	<path class="st5" d="M393,601.9h-5c-1.6,0-3-1.3-3-3V576c0-1.7,1.4-3,3-3h5c1.6,0,3,1.3,3,3v22.9C396,600.6,394.6,601.9,393,601.9z
		"/>
	<path d="M423,570.5h-21.7c-5.7,0-10.2,4.6-10.2,10.2v26.2L423,570.5z"/>
	<path class="st6" d="M1228.1,334.8l-4.2-0.7c-1.8-0.3-3-2-2.7-3.8l4.5-25.9c0.3-1.8,2-3,3.8-2.7l4.2,0.7c1.8,0.3,3,2,2.7,3.8
		l-4.5,25.9C1231.6,333.9,1229.9,335.2,1228.1,334.8z"/>
</g>
<g id="ketting_kast">
	<path d="M567.1,712.2c0,0,7.3-23.6,58.1-22.5s334.7,22.5,334.7,22.5s85.7,8.9,71.4,76.8c-14.3,67.9-71.4,58.9-71.4,58.9L617.1,769
		C617.1,769,565.4,767,567.1,712.2z"/>
	<path class="st7" d="M1174.9,368.3c0,0,2.4-38.6,23.7-37.6c0,0-19-1.5-19-15.8c0-23,48.8-18.2,48.8-18.2l-6.2,41
		c0,0-32.2-7.7-40.2,34.1C1174.9,378.5,1174.9,368.3,1174.9,368.3z"/>
	<g>
		<path class="st8" d="M897.5,730.1c6.3-0.9,12.7-1.5,19.1-1.7c6.4-0.3,12.8-0.4,19.3-0.2c12.8,0.5,25.7,2,38.2,5.4
			c6.3,1.7,12.4,3.9,18.3,6.8c5.8,2.9,11.4,6.6,16.2,11.2c4.8,4.6,8.7,10.1,11.4,16.2c1.3,3.1,2.4,6.2,3.1,9.5
			c0.7,3.2,1.2,6.5,1.3,9.8c0.4,6.5-0.3,13.4-2.6,19.7c-1.2,3.2-2.7,6.2-4.7,8.9c-1.9,2.8-4.3,5.2-6.9,7.4l-2,1.6
			c-0.7,0.5-1.4,0.9-2.1,1.4c-0.3,0.2-0.7,0.5-1,0.7l-1.1,0.6c-0.7,0.4-1.4,0.8-2.2,1.2c-1.5,0.7-3,1.5-4.5,2l-2.3,0.9l-2.3,0.7
			c-6.3,2-12.8,3-19.2,3.4c-13,0.9-25.9-0.2-38.5-2.3c-3.2-0.6-6.3-1.1-9.5-1.8c-3.2-0.6-6.3-1.3-9.4-2c-3.1-0.7-6.2-1.5-9.3-2.3
			s-6.2-1.7-9.2-2.6c6.3,1.4,12.5,2.7,18.8,3.9c3.1,0.6,6.3,1.1,9.4,1.6c3.2,0.5,6.3,0.9,9.5,1.3c12.6,1.5,25.4,2.2,38,1.1
			c6.3-0.6,12.5-1.7,18.4-3.7l2.2-0.7l2.2-0.9c1.5-0.5,2.8-1.3,4.2-1.9c0.7-0.4,1.3-0.8,2-1.1l1-0.6c0.3-0.2,0.6-0.4,1-0.6l1.9-1.3
			l1.8-1.4c2.3-2,4.4-4.2,6.1-6.7c1.7-2.5,3.1-5.2,4.2-8c1-2.9,1.7-5.9,2-8.9c0.4-3,0.3-6.1,0.2-9.2c-0.1-3.1-0.6-6.2-1.2-9.2
			c-0.7-3-1.6-5.9-2.8-8.8c-2.4-5.7-6.1-10.7-10.4-15.1c-4.4-4.3-9.6-7.9-15.2-10.8c-5.6-2.9-11.5-5.2-17.5-7
			c-12.1-3.6-24.8-5.5-37.5-6.4C923.1,729.1,910.3,729.2,897.5,730.1z"/>
	</g>
</g>
<g id="trapper">
	<path class="st4" d="M1042.7,842.6l-77.1-60.7c-3.9-3-4.5-8.7-1.5-12.5l0,0c3-3.9,8.7-4.5,12.5-1.5l77.1,60.7
		c3.9,3,4.5,8.7,1.5,12.5l0,0C1052.2,845,1046.5,845.6,1042.7,842.6z"/>
	<path class="st7" d="M1084.1,858.1h-80.4c-5.4,0-9.8-4.4-9.8-9.8v-8.4c0-5.4,4.4-9.8,9.8-9.8h80.4c5.4,0,9.8,4.4,9.8,9.8v8.4
		C1093.9,853.7,1089.5,858.1,1084.1,858.1z"/>
	<circle cx="1043.9" cy="844.1" r="12.5"/>
</g>
<g id="voorwiel">
	<path class="st0" d="M1401.5,492.6c-13.7-2.4-27.7-3.7-42.1-3.7c-131.5,0-238.1,106.6-238.1,238.1c0,71,31.1,134.7,80.4,178.4"/>
	<circle class="st1" cx="1359.4" cy="727.6" r="219.1"/>
	<circle class="st2" cx="1359.4" cy="727.6" r="197.4"/>
	<g>
		<path class="st3" d="M1344.2,925.9"/>
		<path class="st3" d="M1363.4,739.2"/>
		<path class="st3" d="M1305.5,915.9"/>
		<polyline class="st3" points="1243.2,890.2 1345.4,728.8 1276.6,909.3 		"/>
		<polyline class="st3" points="1221.9,872.8 1363.4,739.2 1198.2,846 		"/>
		<line class="st3" x1="1180.5" y1="817.3" x2="1335.7" y2="728.6"/>
		<line class="st3" x1="1166.8" y1="781.6" x2="1345.4" y2="728.8"/>
		<polyline class="st3" points="1167.1,754 1356.9,745.4 1160.4,711.4 		"/>
		<polyline class="st3" points="1168.1,685 1365.2,723 1180.7,649 		"/>
		<polyline class="st3" points="1190.6,622.7 1345.2,743.4 1210.7,596.5 		"/>
		<polyline class="st3" points="1235.1,573.7 1345.6,713.8 1268.6,552.4 		"/>
		<polyline class="st3" points="1297.9,540.5 1345.6,713.8 1338.3,532.4 		"/>
		<path class="st3" d="M1403.6,537"/>
		<path class="st3" d="M1363.4,739.2"/>
		<path class="st3" d="M1367.7,531.6"/>
	</g>
	<g>
		<polyline class="st3" points="1411.8,539.6 1353.9,716.3 1373.1,529.6 		"/>
		<polyline class="st3" points="1474.1,565.3 1371.8,726.8 1440.6,546.3 		"/>
		<polyline class="st3" points="1495.4,582.7 1353.9,716.3 1519.1,609.5 		"/>
		<line class="st3" x1="1536.8" y1="638.3" x2="1381.6" y2="726.9"/>
		<line class="st3" x1="1550.5" y1="673.9" x2="1371.8" y2="726.8"/>
		<polyline class="st3" points="1550.1,701.5 1360.4,710.2 1556.9,744.2 		"/>
		<polyline class="st3" points="1549.2,770.5 1352.1,732.5 1534.6,806.5 		"/>
		<polyline class="st3" points="1526.7,832.8 1372,712.2 1506.6,859.1 		"/>
		<polyline class="st3" points="1482.2,881.8 1371.6,741.7 1448.7,903.2 		"/>
		<polyline class="st3" points="1419.4,915 1371.6,741.7 1379,923.2 		"/>
		<polyline class="st3" points="1349.6,923.9 1353.9,716.3 1313.7,918.5 		"/>
	</g>
	<circle class="st4" cx="1359.4" cy="723" r="24.7"/>
</g>
<g id="frame_grijs">
	<polygon class="st4" points="797.5,483.2 765.4,422.9 747.5,422.9 747.5,403.3 725.6,403.3 725.6,436.6 756.6,439.4 783.8,497.9 	
		"/>
	<polygon class="st4" points="1207.6,504.4 1288.1,669.4 1351.4,733.6 1356.4,721.1 1301.1,660.4 1222.5,497.9 	"/>
	<polygon class="st4" points="1158.2,377.8 1179.6,371.1 1140.4,290.8 1160,274.7 1160,232.8 1140.4,240.8 1140.4,265.8 
		1118.9,283.6 	"/>
</g>
<g id="frame_zwart">
	<path d="M536.8,492.6l103.6,176.8l-41.1,55.4l0,0c1,5.2,5.6,8.9,10.9,8.9h1.6l48.2-57.1l178.6,16.1c0,0-7.1-87.5-60.7-141.1
		l19.6-21.4l-6.7-12.6l-23.5,24.5C767.3,541.9,686.8,455.1,536.8,492.6z"/>
	<path d="M579.6,701.5h10.7l-98.2-201.8v-33.9l195.5,12.7c0,0,70.5,39.1,93.8,30.1c26.2,31.4,92.9,201.8,92.9,201.8h28.6
		l-85.7-194.6l346.4-108.9l28.6,76.3L988.6,722.9l21.4,19.6l191.1-235.7l30.4-7.1l-51.8-128.6l-28.6,8.9v10.7l-342.5,109l-11.1-16.5
		l-23.2,9.4c0,0-44.6-2-86.6-27c-36.6-1.8-256.3-17.6-256.3-17.6v16l46.4,3.6l1.8,33.9L579.6,701.5z"/>
	<path d="M1140.4,240.8c0,0-81-5.4-130.7,8.9v-23.2c0,0,57.5-8.9,66.4-14.3c8.9-5.4,26.8-19.6,42.9-19.6s16.1,0,16.1,0
		s14.3,28.6,33.9,39.3C1168.9,240.8,1140.4,240.8,1140.4,240.8z"/>
</g>
<g id="zadel">
	<path class="st9" d="M1168.9,231.9c0,0,82.8,0.1,98.2,50c23.2,75-23.5,190.9-34.2,241.9"/>
	<path class="st9" d="M1160,249.7c0,0,164.7,12.3,124,121.4c-29.6,79.5-67.2,92.3-67.2,92.3"/>
	<path class="st10" d="M775.8,398.6c0,0,12.7,19-65.8,24.4"/>
	<ellipse class="st11" cx="692" cy="398.6" rx="18" ry="8"/>
	<ellipse class="st11" cx="692" cy="410.6" rx="18" ry="8"/>
	<ellipse class="st11" cx="692" cy="422.9" rx="18" ry="8"/>
	<path class="st12" d="M672.5,396.1l57.1,7.1h17.9c0,0,73.2-9.8,91.1-25.4c17.9-15.6-17.9-21-17.9-21H672.5
		C672.5,356.9,660,367.6,672.5,396.1z"/>
</g>
<g id="schaduw">
	<circle class="st8" cx="607.9" cy="727.6" r="10.7"/>
	<circle class="st8" cx="1359.4" cy="723.2" r="10.7"/>
	<g>
		<path class="st8" d="M560.1,509.8c7.1-1.1,14.2-1.8,21.3-2.4s14.3-1,21.4-1.2c14.3-0.4,28.7-0.1,42.9,1.3
			c7.1,0.7,14.3,1.6,21.4,2.9c7.1,1.2,14.1,2.8,21,4.9c13.8,4,27.4,9.7,39.1,18.5c11.6,8.7,21.8,19.1,30.7,30.3
			c4.5,5.6,8.7,11.5,12.6,17.5c3.9,6,7.5,12.2,10.9,18.6c3.4,6.3,6.5,12.8,9.4,19.3c2.9,6.6,5.6,13.2,8,19.9s4.6,13.5,6.6,20.4
			c1,3.4,2,6.9,2.8,10.3l1.3,5.2l0.6,2.6l0.3,1.3l0.2,0.6c0,0.1,0.1,0.2,0.1,0.3c0,0,0-0.2,0-0.3c0,0.1,0.1,0.2,0,0.3
			c-0.1-0.1-0.1-0.2-0.1-0.3l-0.2-0.6l-0.4-1.3l-0.7-2.6l-1.5-5.1c-1-3.4-2.1-6.8-3.2-10.2c-2.2-6.8-4.7-13.5-7.4-20.1
			c-5.3-13.2-11.3-26.1-18.3-38.5c-6.9-12.4-14.8-24.2-23.8-35.2c-4.5-5.5-9.2-10.7-14.3-15.7c-5-4.9-10.4-9.6-16-13.8
			c-11.2-8.3-24.4-13.9-37.9-18c-13.5-4-27.5-6.6-41.6-8.2c-7.1-0.8-14.1-1.4-21.2-1.8c-7.1-0.4-14.2-0.6-21.3-0.7
			C588.6,508.1,574.3,508.6,560.1,509.8z"/>
	</g>
</g>
</svg>
