<svg id="Wielrenner" xmlns="http://www.w3.org/2000/svg" viewBox="0 0 641.94 556.2"><defs><style>.cls-1{fill:#75292e;}.cls-2{fill:#5d2425;}.cls-3{fill:#e2e2e1;}.cls-4{fill:#a87e73;}.cls-5{fill:#916a63;}.cls-6{fill:#d8d8d8;}.cls-7{opacity:0.25;}.cls-8{fill:#765551;}.cls-9{fill:#2c120d;}.cls-10{fill:#0e0e0e;}.cls-11{fill:none;stroke:#a9a9a9;stroke-miterlimit:10;}.cls-12{fill:#a9a9a9;}.cls-13{fill:#bc8279;}.cls-14{fill:#916054;}.cls-15{fill:#89635f;}.cls-16{fill:#9e756d;}.cls-17{fill:#141416;}.cls-18{fill:#3d3d3d;}.cls-19{fill:#555454;}.cls-20{fill:#7f7f80;}</style></defs><title>fietser</title><path class="cls-1" d="M386.28,514.45a26,26,0,0,0-2.86,13s.64,1.64,5.75,4.84,8.72,10.51,8.72,10.51,9,10.18,25.33,4.69c0,0,7.6-4.09-1.45-12.57s-13-14.06-15.92-23.21"/><path class="cls-2" d="M384.87,517.71s-.05,1.19,1.54,3.74,2.76,3,3.51,7.47a21.36,21.36,0,0,0,3,4.62s4.75,6.4,6,8.78,12.85,9,26.46,3a7.32,7.32,0,0,1-2.17,2.1s-14.13,5.92-25.33-4.69c0,0-3.87-7.78-8.72-10.51,0,0-4.47-2.59-5.75-4.84A28.56,28.56,0,0,1,384.87,517.71Z"/><path class="cls-3" d="M393,533.53s1.18-5.06,5.78-7l1.66,2.44s-3.69,2-5.32,7.53Z"/><path class="cls-3" d="M396.09,537.88s1.81-5.77,5-7.52l1.7,2.34a17.84,17.84,0,0,0-5,7.81Z"/><path class="cls-3" d="M398.92,542.31s1.88-5.73,4.77-8.78l2.22,2.93a19.76,19.76,0,0,0-4.73,7.88Z"/><path d="M304,121.8s-1.43-5.35-3.78-8.41S316,101.76,316,101.76L332.89,103l11.85,8.78-.62,4.56-3.7,6.71Z"/><path class="cls-4" d="M392.13,397.59s1.77,12,2.66,21.91c0,0,2.94,10.57,2.94,19.44,0,0,3.34,37.27,8.11,72.73l-10.39,6.8-9.17-4s-16.51-45.51-12.41-72.11c0,0-9.89-13.72-16-42Z"/><path class="cls-5" d="M392.13,397.59s1.77,12,2.66,21.91c0,0,2.94,10.57,2.94,19.44,0,0,4.24,39.89,9,75.36l-6.56,1.36h0l-8.74-71.71-4.83.28-6.27-2c3.62,1.19,10.14-4.13,10.14-4.13-3.15-5.29-8-31.29-7.21-36.58,0,0-9.83.93-25.44-1.09Z"/><path class="cls-4" d="M351.7,152s-5.8,19.78-22.85,20.12-10.23-15.34-10.23-15.34a58.32,58.32,0,0,0-1.35-7.33s-5.73-3.84-8.16-9c0,0-3.71-6.39-4-12.4s-7.67-22.76,5.63-23.78c0,0,8.44-7,15.73-7.29,0,0,4.35,15.73,14.19,21.61,0,0,1.66-7.42,6.52-6.27s2.81,19.69-3.32,16.37C343.9,128.77,344.41,147.82,351.7,152Z"/><path class="cls-5" d="M317.28,149.48s6.55,4.35,18.82.9a12.07,12.07,0,0,1-5.11,5.37,9.91,9.91,0,0,0,6.78,1.92s2.12,2.53,3.17,10.28c0,0,8.46-6.19,10.77-15.91,0,0-6.9-3.32-7.8-23.27,0,0,5.39,3.43,6-11,0,0,0-4.62-2.65-5.38s-5.24,1-6.52,6.27c0,0-.26,17.13-6.9,24.81A23.12,23.12,0,0,1,317.28,149.48Z"/><path class="cls-6" d="M390.1,367.8c-.33-22.67-10.18-56.56-10.18-56.56l-40.6-8.19L291.93,314.3s-6.83,36.33-3.83,55.83l-1.88,28.05c10,2.18,33.76,2.22,33.76,2.22.76-6,1-6.77,1-6.77,7.37-19,8.13-28.5,9.95-34.5s7.94-7.5,7.94-7.5a11.75,11.75,0,0,1,7.83,7.5c1.86,6,2.64,15.5,10.18,34.5,0,0,.23.81,1,6.77,0,0,24.3,0,34.54-2.22C392.4,398.18,390.41,388.92,390.1,367.8Z"/><path class="cls-1" d="M295.44,506.79s2.81,12.1-1.53,20a27.09,27.09,0,0,1-7.93,4.35,15,15,0,0,0-6.65,5.88s-7.67,10.74-26.08,9-7.67-14.58-3.32-15.34c0,0,11.76-10.06,17.13-13l5.88-9.55Z"/><path class="cls-7" d="M395.45,518.46a7.78,7.78,0,0,1,9.34,3c3.68,5.37,11.1,11.76,14.42,16.11s3.58,7.69,0,11c0,0,12.28-1.11,4.35-11.81,0,0-13.68-11.72-16.82-22.46C406.75,514.29,399.82,514.44,395.45,518.46Z"/><path class="cls-8" d="M343.64,123.78a3.54,3.54,0,0,0,0-4.86s.26-5.24,2.94-4.35c0,0,1.79.15,1.79,4.55,0,0-.57-2.77-2.37-2.89,0,0-.8-.5-1.09,2.3C344.92,118.54,348.12,122.12,343.64,123.78Z"/><path class="cls-3" d="M279.84,534.36s-5.63-4.66-8.18-6.29l-2.93,2.2s7.15,4,9.06,7.29Z"/><path class="cls-3" d="M283.61,531.05s-3.64-3.27-7.93-6.41l-2.43,1.85s5.56,4.61,8,7C281.24,533.53,282.14,532.47,283.61,531.05Z"/><path class="cls-3" d="M287.47,528.07s-5.52-5.47-7.12-6.62l-2.69,2.11s5.25,4.09,7.1,6.59Z"/><path class="cls-4" d="M286.23,398.18v21s-3.81,12.17-3.41,21.48c0,0-4.77,45.69-9.89,67.51l16,8.57,6.53-9.93s16.71-39.21,10.57-63.08c0,0,11.59-20.8,14-43.3Z"/><path class="cls-2" d="M296.16,511.66a14.06,14.06,0,0,1-3.15,6.59,14.72,14.72,0,0,0-3.26,6.39,27.28,27.28,0,0,1-5.5,6c-2.81,2-4,3-4.9,4.47a22,22,0,0,1-8,7.19c-4.8,2.68-27.2,5.86-28.17-4.75,0,0-3,7.22,10.08,8.44,0,0,15.86,2.11,25.67-8.44,0,0,2.75-4.31,5.61-5.64a50.36,50.36,0,0,0,9.38-5.1S297.07,522,296.16,511.66Z"/><path class="cls-7" d="M295.43,506.79s2.81,12.1-1.53,20a27.08,27.08,0,0,1-7.93,4.35,15,15,0,0,0-6.65,5.88s-7.67,10.74-26.08,9,30.36-14.95,31.52-29.54c0,0,0-1.53-3.69-4.5l7.84,4.75Z"/><path class="cls-9" d="M321,119.13s2.69-8.13,10-2.76C331,116.36,325.61,113.58,321,119.13Z"/><path class="cls-9" d="M313.08,121.86s-5.3-5.71-7.29,1.92C305.79,123.78,307.84,118.67,313.08,121.86Z"/><circle class="cls-9" cx="326" cy="116.83" r="1.28"/><circle class="cls-9" cx="310.08" cy="121.8" r="1.28"/><path class="cls-8" d="M320.76,126.93s2.26-.34,2.94,2.6C323.7,129.53,324.68,125.05,320.76,126.93Z"/><path class="cls-8" d="M322.29,130.37s-.9-2.92-3.32-1.3c0,0-.91,1.88,2.55,1.3Z"/><path class="cls-10" d="M331,111a7.39,7.39,0,0,0-8.69-.77c-5.2,2.73-2.81,4.3-2.81,4.3S324.42,108.53,331,111Z"/><path class="cls-10" d="M303.65,117.79s-.75-4.41,7.71-2.24c0,0,.58.19.77,1.58C312.12,117.13,307,114.48,303.65,117.79Z"/><path class="cls-8" d="M315.39,125.06s-1.89,6.49,1.79,6.77C317.18,131.83,314.62,130.18,315.39,125.06Z"/><path class="cls-6" d="M383.92,164.44A142.78,142.78,0,0,0,351.7,152a11.35,11.35,0,0,1-1.89-1.68h0c-13.14,8.09-19.26,9.09-19.26,9.09-5.33,2-8.1-1.52-12.3-5.33h0L316.91,157c-7.71,4.24-16.5,9.4-28.12,15.18-12.45,6.19-11.42,28.08-11.42,28.08a19.82,19.82,0,0,1-.85,11.59,32.79,32.79,0,0,0-1.88,12.62l18.58,10.4a115.21,115.21,0,0,1,1.45,27.53c-.43,6.08-2.73,51.92-2.73,51.92s64.2-.34,66.07-3.06,4.6-4.78,7.33-1.71a8.3,8.3,0,0,0,6.48,2.73l8.1-1-4.15-57.8-12-33.08s-1.53-9.21,13.3-9.55,16.2,9.55,16.2,9.55c2-9.72,0-25.4,0-25.4C399.61,167.17,383.92,164.44,383.92,164.44Z"/><path class="cls-11" d="M329.5,310.47s3.61-66-2.22-92,0-54.94,0-54.94V160"/><path class="cls-12" d="M383.92,164.44S363.29,154.13,351.7,152l-1.89-1.68s-2.7,1.39-13.95,7.33l.5,2.69s-8,11.3,4.58,7.57a37.56,37.56,0,0,0,5.26-1.94c5.94-1.87,15.74-4,23.07-.6,11.25,5.18,15,6.76,15,6.76s-1,13.42,2.22,23.31a107.72,107.72,0,0,1-.86,16.54,12.39,12.39,0,0,1,7.68,8.35s2-7.16,0-25.4C393.3,195,400.46,169.39,383.92,164.44Z"/><path class="cls-8" d="M314.54,132.13a4.21,4.21,0,0,1,.08-2.85S312.77,130.18,314.54,132.13Z"/><path class="cls-8" d="M315.17,130.48s-1,1.75,1.49,1.74Z"/><path class="cls-13" d="M328.85,132.94s-.46,5.38-7.66,7a8,8,0,0,1-6.62-1.58l3.37-.72,3.54-1.28,4-1.11,2.22-.68Z"/><path class="cls-14" d="M314.57,138.4a7.82,7.82,0,0,0,3-1.36,20.79,20.79,0,0,1,8.48-2.43,3.66,3.66,0,0,0,2.77-1.67,3.4,3.4,0,0,1-2.64,2.73,36.19,36.19,0,0,0-8.06,2.39A4.3,4.3,0,0,1,314.57,138.4Z"/><path class="cls-12" d="M367.89,192.54s-10.13,29-40.61,45.09l24.42,6.71,20.63-10.3L364,213.88Z"/><path class="cls-12" d="M368.67,400.2c7.82-.25,18-.79,23.73-2,0,0-2-9.26-2.3-30.39-.33-22.67-10.18-56.56-10.18-56.56l-4.15-57.8-.23-.64-15.91-2.29-21.23.31L314.55,256l-13.32,3.66s56.6,21.46,69.62,56.41C381,343.26,392.57,394.66,368.67,400.2Z"/><path class="cls-5" d="M291.23,398.51s9.62,1.82,18.88,3.12c0,0-3,29.46-10,41.05,0,0-2.84,41.76-13.87,71.77l2.68,2.27s24.7-37.34,17.1-73c0,0,13.3-28.3,14-43.3Z"/><path class="cls-15" d="M274.64,224.46s1.53-7.16,14.32-6c0,0,9,.17,12.28,4.26v.85s.51,7-3.58,16.71L349.48,243l34.8-3.77s.75,2.86-1.73,3.77c0,0,3.58.68,3.75,3.41,0,0,.34,1.7-1,1.88,0,0,2.22,1,2.22,2.73,0,0-.48,2.92-7.84,2a74.83,74.83,0,0,0-17,1.63,73.68,73.68,0,0,1-19,1.1l-4.78,1.34a68.48,68.48,0,0,0-12.44,2.5c-5.29,1.78-21.14,4-37,2.29,0,0-7.16.85-8.35-5.63s-6.52-17.53-6.52-17.53A89.91,89.91,0,0,1,274.64,224.46Z"/><path class="cls-16" d="M274.64,224.46s1.53-7.16,14.32-6c0,0,9,.17,12.28,4.26a42.64,42.64,0,0,1-3.58,17.56l-23.06-1.51A89.91,89.91,0,0,1,274.64,224.46Z"/><path class="cls-15" d="M295.89,219.59a37.37,37.37,0,0,1-1.65,16.25l4.6.46a37.53,37.53,0,0,0,2.39-13.55A8,8,0,0,0,295.89,219.59Z"/><path class="cls-4" d="M393.3,220.36s-.72-8.55-13.32-9.48-16.69-.07-17.88,8.45a26.4,26.4,0,0,0,0,9s-9.21.17-25.06,7c0,0-6.48,3.41-21.65,2.39,0,0-9.46-.34-16.54-1.45a25.83,25.83,0,0,0-8.52-5.71,31.13,31.13,0,0,1-5.29-3.41c-1.79-1.62-2.73-.17-6.39-1.88a1.31,1.31,0,0,0-2,.26c-.79,1.28-.62,3.83,4.32,5.71a5.88,5.88,0,0,1,2.56,2.78l.43,1.06a37.24,37.24,0,0,1-7.08,2s-4.6,3.32-6,4.43a2.9,2.9,0,0,0-1.28,2.73,2.55,2.55,0,0,0,2.47,2.47s-1,.51-.51,2.81,2,2,2,2-.94,1.19-.68,2.13a2.85,2.85,0,0,0,2.39,2.47,1.82,1.82,0,0,0-.73,2.3c.56,1.62,4.22,1.19,6.35.51,0,0,9,.51,14.66-3.32s12.53-1.45,17-.77,40.8,5.38,52.21-1.28c0,0,11.51.38,14.19-8.82C379.06,244.87,390.27,235.49,393.3,220.36Z"/><path class="cls-12" d="M378.46,171.43S366,177.62,366.16,198.9a35.31,35.31,0,0,0-3.64,18.24l1.46-3.26s2.73-21,19.78-25.91a25.76,25.76,0,0,0-13.47,7.16s3.92-11.42,15.86-13.64c0,0-7.31-.85-13.64,7.5,0,0,3.58-10.91,13.64-14.15,0,0-1.87-.88-9.89,4.6,0,0,6-9.36,9.89-11.5a31,31,0,0,0-13.81,14.57S372,178.42,378.46,171.43Z"/><path class="cls-12" d="M372.33,201.34a58.74,58.74,0,0,0,17-10.2A24,24,0,0,1,372.33,201.34Z"/><path class="cls-12" d="M378.29,203s9.89-2.56,13.47-5.46C391.76,197.52,391.59,204.53,378.29,203Z"/><path class="cls-12" d="M301.23,222.75a21,21,0,0,0-1.53-7.67c-1.7-4.6-7-25.91,0-41.09,0,0-4.76,22,1.54,40.75C301.24,214.74,302.26,217.64,301.23,222.75Z"/><path class="cls-12" d="M296.36,197.52s-4.51-1.7-8.26-7.84c0,0,2.25,4.48,8.37,9.23,0,0,1.4,11.91-.58,20.69a9.68,9.68,0,0,1,5.34,3.16v-4l-1.58-7.54-1.81-8-.45-5.46Z"/><path class="cls-12" d="M297.44,206s-9.84-5.56-16.15-7.12c0,0,7.73,3.86,16.56,9.25"/><path class="cls-17" d="M385.28,248.32s0-.05,0-.14h0c.09-.61.2-2.92-2.76-5.12l.09-.13-.09,0,.14-.06a4.56,4.56,0,0,0,.65-3.6l-10,1.08L368.85,249l-3.08,1.55.63,3.37a74.21,74.21,0,0,1,13.25-.93,13.79,13.79,0,0,0,5.57-.22C385.79,252.17,386.93,250.63,385.28,248.32Z"/><path class="cls-12" d="M294.24,210.59s-9.21-1.05-15.69-7.06C278.56,203.53,282.82,211.22,294.24,210.59Z"/><path class="cls-12" d="M318.62,225.25s11.37-2.9,22.31,0A25.93,25.93,0,0,0,318.62,225.25Z"/><path class="cls-5" d="M279.45,258.68c1.53-.38,2.69-.64,2.69-.64a23.39,23.39,0,0,0,11-3.2c6.14-5.11,8.55-4.48,8.55-4.48,9.07,1.92,21.49,0,21.49,0,19.56-3.25,31.33-1.79,35-1.15a10.76,10.76,0,0,0,6.9-1.41c3.07-4,8.18-7.93,10.23-9.59a10.64,10.64,0,0,0,2.94-4.17c2-8.64,7.32-22,7.32-22,7.19,2.57,7.68,8.35,7.68,8.35-3,15.13-14.24,24.51-14.24,24.51-2.69,9.21-14.19,8.82-14.19,8.82-11.41,6.66-47.69,2-52.21,1.28s-11.34-3.07-17,.77-14.66,3.32-14.66,3.32c-2.13.68-5.8,1.11-6.35-.51C276,259.45,277.92,259.06,279.45,258.68Z"/><path class="cls-5" d="M283.93,235.11a2.16,2.16,0,0,0,.51-3.41s-1.28-1.28-2.17-2.3c0,0-4.16.11-6-2.82,0,0-.88,2.87,4.66,4.7C280.94,231.27,283.54,232.77,283.93,235.11Z"/><path class="cls-5" d="M277.15,241.93s-1.67,0-2.82,2.43a10.27,10.27,0,0,1-2.26,2.43l-1.36-.45a17.14,17.14,0,0,0,2.22-2S275,241.67,277.15,241.93Z"/><path class="cls-5" d="M273.61,251.65s.92-1.09,2.32-2.43a5.8,5.8,0,0,1,3-1.53,4.73,4.73,0,0,0-3.39.83,30.94,30.94,0,0,0-2.92,2.89Z"/><path class="cls-5" d="M275.32,256.25a27.24,27.24,0,0,0,4.33-2.81s-2.31,0-5.05,2.61Z"/><path class="cls-17" d="M290.32,230.59A37.3,37.3,0,0,1,286,228c-.92.13-3.26.8-3.72,4.35h0a7.39,7.39,0,0,1,1.2,1.72l.43,1.06a37.24,37.24,0,0,1-7.08,2s-4.6,3.32-6,4.43c0,0-1.64,3.66,1.75,4.72,0,0-1.29,3.45,1.3,5a3.87,3.87,0,0,0,1.85,4.72,2.47,2.47,0,0,0,.89,3.65,12.26,12.26,0,0,0,4.27-.58s9,.51,14.66-3.32a12,12,0,0,1,3.31-1.55S296.77,252,296.6,246a17.85,17.85,0,0,1,2.24-9.66A25.83,25.83,0,0,0,290.32,230.59Z"/><path class="cls-17" d="M299.71,118.54A20.56,20.56,0,0,1,310,116.45a18.1,18.1,0,0,0,10.42-2.8s7.42-4,14.2-3.74,10.16,1.9,10.16,1.9l-2.4,1.71a10.05,10.05,0,0,0-5.86,1.2s-.7.3-.72,2.44-1.1,4.35-4.76,5.86-10.39,5.17-13.32-.18c0,0-.62-2.31-2.15-1.55s-1,1.12-1.19,3.14-.1,3.24-4.24,3.92a8.44,8.44,0,0,1-9.43-5.08C299,119.46,299.71,118.54,299.71,118.54Z"/><path class="cls-12" d="M344,354.52c-3.61-8.09-20.43-9.84-21.18-2.77s-6.5,35.68-7.75,41.68-22.76,5-22.76,5h0c11.24,1.17,27.65,1.82,27.65,1.82.76-6,1-6.77,1-6.77,7.37-19,8.13-28.5,9.95-34.5s7.94-7.5,7.94-7.5A12.37,12.37,0,0,1,344,354.52Z"/><path class="cls-18" d="M301,116.83a13.72,13.72,0,0,1-5.62-5,5.82,5.82,0,0,1,.88-2.67c.94-1.8,1-1.74-.12-2.93s-1.56-1.94-.75-3.69-.75-2.75,1.31-6.81a38.62,38.62,0,0,0,2.63-2.87,4.92,4.92,0,0,1-.31-1.25,22.11,22.11,0,0,1,3.44-1.56,2.59,2.59,0,0,1,1.21.69,11.51,11.51,0,0,0,2-.69,2,2,0,0,0,.5-1.56c-.19-.81-.45-2.05.81-2.62s3.38-.06,3.69,0c0,0,3.28-4.81,6.67-4.37s3.64.19,5.33,3.31h1.13s1.06-2.25,5.44-2.87c0,0,3.06-.87,4.56,3.06,0,0,3.75-1,5.38.75s4.44,3.63,2.19,7a7.73,7.73,0,0,1,6.06,5.88c1.06,5.06-.94,11.7-1.87,13.6,0,0-2.12,2.78-4,.34s-10.06-5.5-18-3.94S302.23,111.65,301,116.83Z"/><path class="cls-10" d="M336.54,109.66s2.23,14.16,3.73,21.69-5.25,17.31-14.75,19c0,0-6.24.87-8.86-1.31l1,2.16s2.82,1.4,7.84.85,18.33-6,16.67-20.7-2.42-21.46-2.42-21.46Z"/><path class="cls-19" d="M295.35,102.57a3,3,0,0,0-.36,2,14.81,14.81,0,0,0,2.94,2c1.08.5,2.75,2.5.83,3.34a19.22,19.22,0,0,0-3.42,2,13.72,13.72,0,0,0,5.63,5c1.25-5.18,14.56-6.63,22.5-8.2s16.13,1.5,18,3.94,4-.34,4-.34c.94-1.9,2.94-8.54,1.88-13.6a7.73,7.73,0,0,0-6.06-5.87c1.81-2.71.35-4.42-1.13-5.92h0C338.37,91.54,326.69,103,325,105a12.49,12.49,0,0,1-6.85,3.75c-2,.17.42-3.17.82-4.5s5.09-9.33,8.35-13.33a16.56,16.56,0,0,1,9.07-5.33c1.25-.33,3.34.82,3.34.82h0c-.21-.21-.41-.41-.59-.62-1.63-1.79-5.37-.75-5.37-.75l0,0A23.68,23.68,0,0,0,330,86c-3.17,1.17-6.08,4.58-7.08,5.75s-2.17,1.58-2,.42.05-6.42,0-8.42c0-.91,0-1.21.12-1.26-.79-.75-1.68-.75-3.82-1-2.69-.35-5.31,2.6-6.27,3.84a4.44,4.44,0,0,1-.4.53,15.79,15.79,0,0,0-3.25,7.92c.08,1-.42,1.83-1.56.5a18.46,18.46,0,0,1-2.16-3.54,2.59,2.59,0,0,0-1.21-.69A22.11,22.11,0,0,0,299,91.63a4.92,4.92,0,0,0,.31,1.25l-.09.11,1.32.72c1.54,2.08,8.17,10.75,9.56,12.33s1.61,3.33,0,3.84-3.89,0-4.28-.7-5.36-4.3-7.77-7.05a7.27,7.27,0,0,1-1.35-6.38C294.6,99.82,296.17,100.82,295.35,102.57Z"/><path class="cls-18" d="M310.44,97.06s-1.33-11.59,5.08-14.59c0,0,2.09-1.25,1.75,1.83s.58,21.17-2.67,21S310.51,101.05,310.44,97.06Z"/><path class="cls-18" d="M333.35,101.47s5.42-5.07,9.33-4.41,2.5,5.16.58,5.58S330.19,105.47,333.35,101.47Z"/><path class="cls-20" d="M327.31,160a32.85,32.85,0,0,0-2,5.31l2.29.34A38.31,38.31,0,0,0,327.31,160Z"/></svg>