<svg id="Fitness" xmlns="http://www.w3.org/2000/svg" viewBox="0 0 641.94 556.2"><defs><style>.cls-1{fill:#efc2af;}.cls-2{fill:#e72175;}.cls-3{fill:#cc2072;}.cls-4{fill:#d1a698;}.cls-5{fill:#cfcece;}.cls-6{fill:#3d3d3d;}.cls-7{fill:#e2e2e1;}.cls-8{fill:#111110;}.cls-9{fill:#282828;}.cls-10{fill:#a48c74;}.cls-11{fill:#dda095;}.cls-12{fill:#cf8d7a;}.cls-13{fill:#b79d86;}.cls-14{fill:#bfbebe;}</style></defs><title>fitnesser</title><path class="cls-1" d="M395.08,247.16c-6.5-14.28-19.25-35.47-19.25-35.47a34,34,0,0,0-22.12-21.35s-10-2.86-11.54,4.62,4,18.11,11.35,25.67,9.28,10.8,12,18.72l1.1,4.59c6.5,15.25,19,21.75,24.25,27s10.25,0,10.25,0C403.71,262.64,395.08,247.16,395.08,247.16Z"/><path class="cls-2" d="M457.44,199.7a12.12,12.12,0,0,0-11.78,0h0l-.12.09a8.74,8.74,0,0,0-1,.72l0,0-.06.05-.09.08L441.67,203l.65.64c-1.9,4.66.78,10.49,6.28,13.31a13,13,0,0,0,8.44,1.3l.91.9,2.8-2.43a8.5,8.5,0,0,0,1.44-1.25l0,0h0a8.1,8.1,0,0,0,1.21-1.74C465.88,208.91,463.2,202.66,457.44,199.7Z"/><ellipse class="cls-3" cx="449.97" cy="210.93" rx="9.68" ry="11.71" transform="translate(56.77 514.83) rotate(-62.82)"/><path class="cls-1" d="M399.28,248c-3.48.81-6.92,3-9.74,4.52-2.29,1.26-5.13,3.83-5.93,6-1.34,3.67,3.52,10.32,3.52,10.32,3.13,6.73,9.63,3.52,9.63,3.52,18.38-9.52,37.05-26.39,43.23-29.46s8.59-6,8.59-6c7.6-12.78,10-22.31,10-22.31a43.68,43.68,0,0,0-9.29-8.83,22.54,22.54,0,0,0-11.75,5.93l4.41,20-11,5.25c-13.25,5-31.72,11.07-31.72,11.07h0"/><path class="cls-4" d="M394.87,249.63s6.58-1.29,8.22-1.87c0,0,12.58-3.47,23.24-5.69s6,3.45,1,6.93-14.92,11.16-31.23,21.7a22.09,22.09,0,0,0-3.23,2.45,8.71,8.71,0,0,0,3.86-.76c18.38-9.52,37.05-26.39,43.23-29.46a37.44,37.44,0,0,0,5.4-3.24s6.19-10.49,6.25-17.12-5.51-2.68-5.51-2.68l-5.37,6.36,1.2,5.43-11,5.25c-13.25,5-31.72,11.07-31.72,11.07Z"/><path class="cls-2" d="M442.84,213.74c-5.11-2.63-10.91-1.84-14,1.6h0l-5.29,5.59,3.59,2.79a13,13,0,0,0,6.63,7.64,14,14,0,0,0,5.13,1.5l3.31,2.57,4.73-4.88a8.48,8.48,0,0,0,1.08-1.12l.08-.08h0A8.26,8.26,0,0,0,449,228C451.47,223.16,448.73,216.76,442.84,213.74Z"/><ellipse class="cls-3" cx="433.61" cy="227.41" rx="9.91" ry="11.98" transform="translate(33.23 509.24) rotate(-62.82)"/><path class="cls-4" d="M395.54,270.88c8.4-1.88,16.47-7.77,16.71-7.93a150.22,150.22,0,0,1-15.48,9.44s-6.5,3.22-9.63-3.52C387.14,268.87,389.51,272.23,395.54,270.88Z"/><path class="cls-4" d="M393.39,270.43c-3.19-3.3,0-3-8.48-11.49s-13.72-21.38-13.72-21.38a158.84,158.84,0,0,0-10-15.22c-6.57-9-12.57-15.93-14.92-20-3.54-6.07-.16-12-.16-12l-.36.07A5.87,5.87,0,0,0,342,195c-1.58,7.48,4,18.11,11.35,25.67s9.46,10.8,12.15,18.72l1.1,4.59c6.5,15.25,18.92,21.83,24.25,27C395.2,275.19,393.39,270.43,393.39,270.43Z"/><path class="cls-5" d="M294.58,521.44s-5.5-2.25-6.25,7.75-.5,12-1.75,15.25-.75,6.75,11,6.25,19-3.5,31-3,27.25-1,28.75-7-32.75-27.79-32.75-27.79-2.2-4.79-6.25-1.88-1.5,4.17-1.5,4.17l-5.25-.25Z"/><path class="cls-6" d="M297.58,550.69c11.75-.5,19-3.5,31-3,11.33.47,25.56-.84,28.37-6l-1.82-.71-2.73,2.33c-6.68,3.33-16.94,3.17-23.32,3.17s-8.25-2.12-10-3.12-5.62-2.12-6.25,1.13-3.12,3.25-3.12,3.25a76.43,76.43,0,0,1-15.46,1.25c-7-.37-7.67-4.5-7.67-4.5C285.33,547.69,285.83,551.19,297.58,550.69Z"/><path class="cls-7" d="M346.75,500.77s-7.93,1.44-17.68,9.31c0,0-9.75-1.64-3.25,7.86s21.5,20.1,34.75,32.8,28.5-.3,25.75-3.55-6.5-7.5-10.5-8.75-2.75-15.5-.5-20.25,4.94-11.26-6.4-11.75Z"/><path class="cls-4" d="M351.58,425.44s-7.67,15.33-3.67,33,1,36-1.16,42.33a21.83,21.83,0,0,1,10.16,7.83s3.33,3.83,12,1.83c0,0-.33-25.33,4-36.67s9-50.33,9-50.33Z"/><path class="cls-4" d="M321.41,447.69a352,352,0,0,0-7.22,49.64s.28,9.45,0,21.11c0,0-3.61.33-8.28,5.33s-11.33-2.33-11.33-2.33,1.67-29.67-4-50,12.33-45.67,12.33-45.67Z"/><path class="cls-8" d="M303.58,362.44s-4.33,12.67-2.67,32.5-2,32.59-2,32.59-3.33-.5-.75,2.41c0,0-3.5.25-1.92,3.33,0,0-2.08,1.08-1.33,2.17,0,0-4.5-.83.67,2.58s17.58,6.33,25.83,9.67c0,0,3.33.42.83-3.17a2,2,0,0,0,.93-3.25,70.32,70.32,0,0,1,6.07-9.17c3.67-4.67,4.67-9,4.33-15s11.67-18.78,16.67-33.06Z"/><path class="cls-9" d="M303.58,362.44s-4.33,12.67-2.67,32.5-2,32.59-2,32.59-3.33-.5-.75,2.41c0,0-3.5.25-1.92,3.33,0,0-2.08,1.08-1.33,2.17,0,0-4.5-.83.67,2.58a23.68,23.68,0,0,0,3.44,1.8s-.92-2,.81-1.93a9.83,9.83,0,0,1,3.25,1s-2.25-2.3-4.31-2.67c0,0,.38-.25,2.16,0,0,0-1.51-2.08-3.09-2.5a71.53,71.53,0,0,1,8.88,3.07s-3.18-3.91-6.12-5.32c0,0-.12-2,2.25-1.5a3.53,3.53,0,0,0-1.87-1.87,109.73,109.73,0,0,0,4.49-30c-.1-13.76-.5-21.72,2-33.82Z"/><path class="cls-1" d="M290.58,471.44c5.67,20.33,4,50,4,50s.18.2.5.5l.78.25c2-31-.53-37.5-2.77-53S299,439.83,299,439.83l-3-1.93C291.65,447.09,287.4,460,290.58,471.44Z"/><circle class="cls-2" cx="259.89" cy="339.79" r="12.35"/><path class="cls-8" d="M292.58,301.19s-25.33,34.92,2.33,58.92,57.67,49.33,57.67,49.33,5,4.33,1.67,11.67a11.77,11.77,0,0,0-2.67,4.33,64.09,64.09,0,0,0,21.67,2.09s3.67-3.09,7.33,4.58a124.12,124.12,0,0,1,6.33-14c3.33-6,7-15-1.67-26s-20.67-38-33-49.33c0,0-.67-6,.67-17.31s1.67-14.77,1.67-14.77l-45.67-13.58Z"/><path class="cls-9" d="M328.08,312.44s2.49.43,5.82.74A18.76,18.76,0,0,0,328.08,312.44Z"/><path class="cls-9" d="M385.24,392.11c-8.29-10.52-19.63-35.67-31.39-47.75h0c-.54-.55-1.07-1.08-1.61-1.58l-.06-.08.05.07c0-.15-.65-6.08.67-17.3s1.67-14.77,1.67-14.77l-2.24-.67-2.1.86c-2.12,3-10.52,2.84-16.35,2.29a9,9,0,0,1,3.51,1.93c3.17,3,12.83,2.3,12.83,2.3s-8,2-14,.61a27.06,27.06,0,0,0-11.72.09,23.84,23.84,0,0,1,10.87,1.67,74.13,74.13,0,0,1,11.11,5.69,16,16,0,0,1-8.65-1.53c4.33,3.49,6.94,9.92,6.94,9.92h0c-4.78-5-11.14-10.17-16.78-9.91,0,0,26.44,21.75,43.22,49.25a164,164,0,0,0,13.53,23c7.5,10.25,1.35,23.28,1.35,23.29.24-.47.49-.93.74-1.37C390.24,412.11,393.91,403.11,385.24,392.11Z"/><path class="cls-4" d="M304.58,181.74a27,27,0,0,0-10.33,1.7c-4.83,2-9.83,4.67-13.67,17.33s-9.33,44.67-9.33,44.67a28.1,28.1,0,0,1-3.17,7.67c-2.5,4.33-9.67,14.33-16.5,53.17,0,0,.33,3-3.17,10a21.49,21.49,0,0,0-.83,18c1.83,4.33-3.33,12.83,5.33,15l10.5-6.17,1.83-10.5a20.35,20.35,0,0,0-5-6.33c-3.5-3,26.67-49,27.17-70,0,0,9.33-21,11.67-32.83,0,0,20.67-6.83,13.67-30Z"/><path class="cls-2" d="M347.26,186s8.32-1,16.82,27,11.75,27-3,46c0,0-3.26,7-3.13,20.75s-3.37,31-3.37,31-19,1.75-35.5-5.25-26.5-4.25-26.5-4.25,6.25-14.25,8.25-22,1-29.5-6-40.5a102.65,102.65,0,0,1,4.25-15.25s22.25-8,12.5-31.5l-4.5-8.5"/><path class="cls-3" d="M315,206s-4.53,19.4,0,31.67c0,0,.68-17,4.48-25.73,0,0,3.8,10.75,8.55,17.25a75.68,75.68,0,0,0-1.23-9.36,38.34,38.34,0,0,0,7,7.36s-1.57-3.19-2.07-11a39.81,39.81,0,0,0,6,9.67s-3.75-11-3.75-11.87v.83Z"/><path class="cls-10" d="M357.95,116.47c-15.63-.75-20.37,8-20.37,8-14.75-2.25-23,5.25-22.5,25.5s-7,21.75-10,30-1.5,20-1.5,20a19.2,19.2,0,0,1,2.5-8.75c-.25,9.75,3.5,23.5,3.5,23.5s2.5-22.25,5.05-20.5.7,9.25.7,9.25c-2.75,21.75,3.5,35,3.5,35-1-13.5,1.75-28,1.75-28a46.52,46.52,0,0,0,8.88,17c-2.62-5.25-3.63-13-3.63-13a20.52,20.52,0,0,0,7.75,8.75,11.4,11.4,0,0,1-1.75-7c4.25,5.5,7.75,7,7.75,7a99.65,99.65,0,0,1-7.75-13.75c3.5,6.25,10.49,10.58,10.49,10.58L342.08,182l19.75-19,19.25-9.25,5.36-8C388.05,120.47,357.95,116.47,357.95,116.47Zm-27.37,35s1,6.5-.89,9c0,0-1.86-13.86-1.86-17.68s-1.25-15.32,6.5-11.32C334.33,131.47,329.83,138.47,330.58,151.47Z"/><path class="cls-1" d="M386.44,143.19s.25,12.75-5,19c0,0-3,4.25-2.75,11.75,0,0,.5,5.25-5.75,0,0,0-1.75-.33-1.25,2.33,0,0,.25,2.42-3.25,1.67,0,0,1.39,3.78-3,3.71,0,0-3.51-.46-3.26,2.29s0,4.75-6.75,1.25-8.5-3.75-9.25-.25c0,0,7.25,5.25,15.75,32,0,0,5.75,10.5-6.5,8.75s-18-9-21.75-17.5-4.75-21-4-47.5c0,0,6.5.25,12.75-7.25,0,0,3-5.75,7-7.75,0,0,6.5-6.5,9.75.75a23.24,23.24,0,0,1-1.24,12.25s6.24,1.25,9.49-5.5,12.75-3.5,12.75-3.5S380.94,143.44,386.44,143.19Z"/><path class="cls-4" d="M353.7,160.25s-9.9-2.81-4.26-14.56c0,0-.39,0-1.67,1.08C346.25,148,344.83,160.57,353.7,160.25Z"/><path class="cls-4" d="M344.85,216.11a44.55,44.55,0,0,1,1.69,6.87c.39.2.78.39,1.19.57A13.65,13.65,0,0,0,344.85,216.11Z"/><path class="cls-11" d="M366.86,181.5s-2.77-2.2-.78-6.47l1.15-.91,1.2,3.82S369.65,180.65,366.86,181.5Z"/><path class="cls-12" d="M371.69,176.27a2.27,2.27,0,0,0-1.74-.58c-1.25,0-2.19-2-2.19-2l-.52,1a5.77,5.77,0,0,0,1.2,3.29S371.68,178.76,371.69,176.27Z"/><path class="cls-13" d="M317.68,133.49c-1.87,4.09-2.77,9.61-2.6,16.7.5,20.25-7,21.75-10,30a27.25,27.25,0,0,0-1.13,4.26s2.14-6.51,7.63-10,6-22.25,6-22.25.25,16.45-1,25.48,2.25,14.77,2.25,14.77-.25-13.75,1.25-20.12,1.25-19.87,0-26.12,4.26-17,9.38-18C329.46,128.19,324.27,126.79,317.68,133.49Z"/><path class="cls-4" d="M366.58,174.69a29.77,29.77,0,0,1,5.75-4c3-1.5,2.5-5.5,1.5-7,0,0,4.94,6-2.53,9.25S366.58,174.69,366.58,174.69Z"/><path class="cls-1" d="M292.35,184.28c-4.22,2-8.44,5.48-11.77,16.5-3.83,12.67-9.33,44.67-9.33,44.67a28.1,28.1,0,0,1-3.17,7.67c-2.5,4.33-9.67,14.33-16.5,53.17,0,0,.33,3-3.17,10a21.49,21.49,0,0,0-.83,18c1.6,3.78-2.13,10.74,2.66,13.89-2.09-5,.34-11,.34-11s-4.49-12.77-1.25-18.25,4.5-14.5,4.5-14.5c4.75-27,12.25-42,14.5-46.75s3.75-8.75,3.75-8.75,4.5-14.5,8-32.83a94.35,94.35,0,0,1,12.48-31.66Z"/><path class="cls-1" d="M347.72,458.38c4,17.64,1,35.94-1.14,42.3l.81,0c3.25-10.5,6-27.5,3-42.75s3.55-32.67,3.55-32.67l-.14-.09-2.41.16S343.72,440.71,347.72,458.38Z"/><circle class="cls-2" cx="265.45" cy="346.32" r="13.13"/><path class="cls-9" d="M331.08,388.94c-28.33-24.17-38-35.83-38-35.83-14.65-19.5,2.32-48.33,2.32-48.33a59.44,59.44,0,0,0,9.83,0,38.16,38.16,0,0,0-9.33-1.5,119.6,119.6,0,0,1,13.17.67,65.73,65.73,0,0,0-14-3l-2.52.63s-25.33,34.92,2.33,58.92,57.67,49.33,57.67,49.33,5,4.33,1.67,11.67a12.25,12.25,0,0,0-2.54,4l2,.51,2.39-5.38C358.24,410.61,359.41,413.11,331.08,388.94Z"/><path class="cls-4" d="M355.08,154.57s-1.62-3.25,1.75-2.75c0,0,1.84-5.75-2.14-5.5s-3.73,1.87-4,4.12c0,0-1.75-4.17,3-4.75s5.24,3.5,4.25,6.75C357.95,152.44,354.58,152.07,355.08,154.57Z"/><path class="cls-4" d="M356.45,181.72c-6.5-5.09-8.73-4.27-8.73-4.27-5.6,1.88-1.53,7.49-1.53,7.49.75-3.5,2.5-3.25,9.25.25s7,1.5,6.75-1.25C359.05,184.32,356.45,181.72,356.45,181.72Z"/><path class="cls-4" d="M329.51,180.68c.36-2.61,2.78-18.11,9.73-24h0c-5.08,4.19-9.53,4-9.53,4C329.47,168.48,329.4,175.06,329.51,180.68Z"/><path class="cls-4" d="M378.74,160.45a9.25,9.25,0,0,0-2.37,3.43l.71.39A9.37,9.37,0,0,1,378.74,160.45Z"/><path d="M373.74,160.26a6.43,6.43,0,0,0,4.33,4.18S373.24,166.33,373.74,160.26Z"/><path class="cls-10" d="M375.43,156.66a5.4,5.4,0,0,1,6.32,0s1.75,1.54.67,2.12S380.94,155.54,375.43,156.66Z"/><path class="cls-3" d="M323.41,251.77s14.83,5.33,27.5,25.67c0,0,3.5,5.17,4.33,10.17C355.24,287.61,341.58,266.27,323.41,251.77Z"/><path class="cls-3" d="M301.54,264s3.87,4.15,11.87,4.82,17.83,9.33,20.67,13.17c0,0-13.67-12.67-22.67-12.25,0,0-6.65-.69-9.74-3.47Z"/><path class="cls-3" d="M359.85,262.64a25.68,25.68,0,0,1,1.23-3.7,111.58,111.58,0,0,0,7-9.73c-.07,0-6.71,3.88-16.16,1.23C351.91,250.44,361.09,256.54,359.85,262.64Z"/><path class="cls-3" d="M359.67,263.3h0l0-.09Z"/><path class="cls-3" d="M357.95,225.88h0c11.75,1.95,3.63-15.61,3.63-15.61-7-20.66-14.32-24.32-14.32-24.32h0c2.31,2.51,8.12,10.34,14.68,31C361.94,216.94,366.83,225.88,357.95,225.88Z"/><path class="cls-3" d="M299.08,223.44s2,19.79,14,25.77c0,0-6.33,3-9.13,6.71,0,0-4.12-12.48-9.12-17.23A124.1,124.1,0,0,1,299.08,223.44Z"/><path class="cls-3" d="M301.2,260.18s1.62,1.26,4.37-1.74,14.25-6.67,14.25-6.67-11,6.42-13.25,8.67a19.39,19.39,0,0,1-5,3.51Z"/><path class="cls-3" d="M307.91,273.27a9.73,9.73,0,0,1,5.12,3.33,9.43,9.43,0,0,0,4.78,3.33s-4.4-1-5.86-2.75A14.23,14.23,0,0,0,307.91,273.27Z"/><path class="cls-3" d="M348.67,501.59a8.53,8.53,0,0,1,2.24,7c-.5,4.5,3.83,4.67,9.33,5s9.17,2.33,9,6.33c0,0-4.17-4.67-9.33-4.5s-11.24.18-11.24-6.83C348.67,508.61,349.73,506.24,348.67,501.59Z"/><path class="cls-3" d="M291.58,521.65s2.67-.42,5.5,4.08,7.83,5,13.67,0,7.33-5.83,11-4.83c0,0-3.16-3.17-8.5.75S303.62,530.22,299,525,291.58,521.65,291.58,521.65Z"/><path class="cls-6" d="M385,551.24h0c-14.68,8.42-24.94-3.42-24.94-3.42s-7.62-6-9-11.37-2.75-8.62-6-6.6-4.87,0-4.87,0-5-4.52-10.87-10.77-4-8.75-4-8.75h0c-1.82.68-3,2.58.5,7.62,6.5,9.5,21.5,20.1,34.75,32.8C370.26,560,381,555.57,385,551.24Z"/><path class="cls-5" d="M345.58,517.27s-9.17,2.59-12.17-4.37a18.26,18.26,0,0,1,6.08-7A22.84,22.84,0,0,1,345.58,517.27Z"/><path class="cls-14" d="M289.47,532.44s5.1-1.34,14.44,1.58a19.16,19.16,0,0,1-13.67,5.92A20.6,20.6,0,0,1,289.47,532.44Z"/></svg>