<svg id="Laag_8" data-name="Laag 8" xmlns="http://www.w3.org/2000/svg" viewBox="0 0 197.63 439.77"><defs><style>.cls-1{fill:#cfcece;}.cls-2{fill:#3d3d3d;}.cls-3{fill:#e2e2e1;}.cls-4{fill:#d1a698;}.cls-5{fill:#e72175;}.cls-6{fill:#cc2072;}.cls-7{fill:#efc2af;}.cls-8{fill:#111110;}.cls-9{fill:#282828;}.cls-10{fill:#a48c74;}.cls-11{fill:#dda095;}.cls-12{fill:#cf8d7a;}.cls-13{fill:#b79d86;}.cls-14{fill:#bfbebe;}</style></defs><title>fitnesser</title><path class="cls-1" d="M492.33,550s-5.5-2.25-6.25,7.75-.5,12-1.75,15.25-.75,6.75,11,6.25,19-3.5,31-3,27.25-1,28.75-7-32.75-27.79-32.75-27.79-2.2-4.79-6.25-1.88-1.5,4.17-1.5,4.17l-5.25-.25Z" transform="translate(-443.75 -144.99)"/><path class="cls-2" d="M495.33,579.25c11.75-.5,19-3.5,31-3,11.33.47,25.56-.84,28.37-6l-1.82-.71-2.73,2.33c-6.68,3.33-16.94,3.17-23.32,3.17s-8.25-2.12-10-3.12-5.63-2.12-6.25,1.13-3.12,3.25-3.12,3.25A76.43,76.43,0,0,1,492,577.5c-7-.37-7.67-4.5-7.67-4.5C483.08,576.25,483.58,579.75,495.33,579.25Z" transform="translate(-443.75 -144.99)"/><path class="cls-3" d="M544.51,529.33s-7.93,1.44-17.68,9.31c0,0-9.75-1.64-3.25,7.86s21.5,20.1,34.75,32.8,28.5-.3,25.75-3.55-6.5-7.5-10.5-8.75-2.75-15.5-.5-20.25,4.94-11.26-6.4-11.75Z" transform="translate(-443.75 -144.99)"/><path class="cls-4" d="M549.33,454s-7.67,15.33-3.67,33,1,36-1.16,42.33a21.83,21.83,0,0,1,10.16,7.83s3.33,3.83,12,1.83c0,0-.33-25.33,4-36.67s9-50.33,9-50.33Z" transform="translate(-443.75 -144.99)"/><path class="cls-5" d="M630.9,210.41a12.12,12.12,0,0,0-11.06,4h0l-.08.12a8.74,8.74,0,0,0-.67,1l0,0,0,.07-.06.11-1.74,3.09.83.38c-.18,5,4.33,9.59,10.46,10.35a13,13,0,0,0,8.37-1.68l1.16.53,1.8-3.25a8.5,8.5,0,0,0,.92-1.67l0,0h0a8.1,8.1,0,0,0,.54-2C642,216.16,637.31,211.21,630.9,210.41Z" transform="translate(-443.75 -144.99)"/><path class="cls-4" d="M519.17,476.25a352,352,0,0,0-7.22,49.64s.28,9.45,0,21.11c0,0-3.61.33-8.28,5.33S492.33,550,492.33,550s1.67-29.67-4-50,12.33-45.67,12.33-45.67Z" transform="translate(-443.75 -144.99)"/><ellipse class="cls-6" cx="627.73" cy="223.52" rx="9.68" ry="11.71" transform="translate(-115.64 673.71) rotate(-82.88)"/><path class="cls-7" d="M551.46,218.9a34,34,0,0,1,22.12,21.35s12.75,21.19,19.25,35.47c0,0,15.25-12.08,26-21.28l8.5-8.7-11-17.25a22.54,22.54,0,0,1,9-9.6,43.68,43.68,0,0,1,11.75,5.1s1,9.77-1.75,24.39c0,0-1.25,3.61-6,8.61s-16.5,27.25-30.5,42.5c0,0-5,5.25-10.25,0s-17.75-11.75-24.25-27Z" transform="translate(-443.75 -144.99)"/><path class="cls-8" d="M501.33,391s-4.33,12.67-2.67,32.5-2,32.59-2,32.59-3.33-.5-.75,2.41c0,0-3.5.25-1.92,3.33,0,0-2.08,1.08-1.33,2.17,0,0-4.5-.83.67,2.58s17.58,6.33,25.83,9.67c0,0,3.33.42.83-3.17a2,2,0,0,0,.93-3.25,70.32,70.32,0,0,1,6.07-9.17c3.67-4.67,4.67-9,4.33-15S543,426.89,548,412.61Z" transform="translate(-443.75 -144.99)"/><path class="cls-9" d="M501.33,391s-4.33,12.67-2.67,32.5-2,32.59-2,32.59-3.33-.5-.75,2.41c0,0-3.5.25-1.92,3.33,0,0-2.08,1.08-1.33,2.17,0,0-4.5-.83.67,2.58a23.68,23.68,0,0,0,3.44,1.8s-.92-2,.81-1.93a9.83,9.83,0,0,1,3.25,1s-2.25-2.3-4.31-2.67c0,0,.38-.25,2.16,0,0,0-1.51-2.08-3.09-2.5a71.53,71.53,0,0,1,8.88,3.07s-3.18-3.91-6.12-5.32c0,0-.12-2,2.25-1.5a3.53,3.53,0,0,0-1.87-1.87,109.73,109.73,0,0,0,4.49-30c-.1-13.76-.5-21.72,2-33.82Z" transform="translate(-443.75 -144.99)"/><path class="cls-7" d="M488.33,500c5.67,20.33,4,50,4,50s.18.2.5.5l.78.25c2-31-.53-37.5-2.77-53s5.92-29.38,5.92-29.38l-3-1.93C489.41,475.65,485.16,488.61,488.33,500Z" transform="translate(-443.75 -144.99)"/><circle class="cls-5" cx="13.9" cy="223.37" r="12.35"/><path class="cls-8" d="M490.33,329.75s-25.33,34.92,2.33,58.92S550.33,438,550.33,438s5,4.33,1.67,11.67a11.77,11.77,0,0,0-2.67,4.33A64.09,64.09,0,0,0,571,456.09s3.67-3.09,7.33,4.58a124.12,124.12,0,0,1,6.33-14c3.33-6,7-15-1.67-26s-20.67-38-33-49.33c0,0-.67-6,.67-17.31s1.67-14.77,1.67-14.77l-45.67-13.58Z" transform="translate(-443.75 -144.99)"/><path class="cls-9" d="M525.83,341s2.49.43,5.82.74A18.76,18.76,0,0,0,525.83,341Z" transform="translate(-443.75 -144.99)"/><path class="cls-9" d="M583,420.67c-8.29-10.52-19.63-35.67-31.39-47.75h0c-.54-.55-1.07-1.08-1.61-1.58l-.06-.08.05.07c0-.15-.65-6.08.67-17.3s1.67-14.77,1.67-14.77l-2.24-.67-2.1.86c-2.12,3-10.52,2.84-16.35,2.29a9,9,0,0,1,3.51,1.93c3.17,3,12.83,2.3,12.83,2.3s-8,2-14,.61a27.06,27.06,0,0,0-11.72.09,23.84,23.84,0,0,1,10.87,1.67A74.13,74.13,0,0,1,544.32,354a16,16,0,0,1-8.65-1.53c4.33,3.49,6.94,9.92,6.94,9.92h0c-4.78-5-11.14-10.17-16.78-9.91,0,0,26.44,21.75,43.22,49.25a164,164,0,0,0,13.53,23c7.5,10.25,1.35,23.28,1.35,23.29.24-.47.49-.93.74-1.37C588,440.67,591.67,431.67,583,420.67Z" transform="translate(-443.75 -144.99)"/><path class="cls-4" d="M597.17,298.5c-7,5.24-6-2.5-14.5-11s-13.72-21.38-13.72-21.38l-5.72,1.79,1.1,4.59c6.5,15.25,19,21.75,24.25,27s10.25,0,10.25,0a150.23,150.23,0,0,0,11.31-14.18A76.7,76.7,0,0,1,597.17,298.5Z" transform="translate(-443.75 -144.99)"/><path class="cls-4" d="M502.33,210.3A27,27,0,0,0,492,212c-4.83,2-9.83,4.67-13.67,17.33S469,274,469,274a28.1,28.1,0,0,1-3.17,7.67c-2.5,4.33-9.67,14.33-16.5,53.17,0,0,.33,3-3.17,10a21.49,21.49,0,0,0-.83,18c1.83,4.33-3.33,12.83,5.33,15l10.5-6.17,1.83-10.5a20.35,20.35,0,0,0-5-6.33c-3.5-3,26.67-49,27.17-70,0,0,9.33-21,11.67-32.83,0,0,20.67-6.83,13.67-30Z" transform="translate(-443.75 -144.99)"/><path class="cls-5" d="M545,214.52s8.32-1,16.82,27,11.75,27-3,46c0,0-3.26,7-3.13,20.75s-3.37,31-3.37,31-19,1.75-35.5-5.25-26.5-4.25-26.5-4.25,6.25-14.25,8.25-22,1-29.5-6-40.5A102.65,102.65,0,0,1,496.83,252s22.25-8,12.5-31.5l-4.5-8.5" transform="translate(-443.75 -144.99)"/><path class="cls-6" d="M512.8,234.56s-4.53,19.4,0,31.67c0,0,.68-17,4.48-25.73,0,0,3.8,10.75,8.55,17.25a75.68,75.68,0,0,0-1.23-9.36,38.34,38.34,0,0,0,7,7.36s-1.57-3.19-2.07-11a39.81,39.81,0,0,0,6,9.67s-3.75-11-3.75-11.87v.83Z" transform="translate(-443.75 -144.99)"/><path class="cls-10" d="M555.71,145c-15.63-.75-20.37,8-20.37,8-14.75-2.25-23,5.25-22.5,25.5s-7,21.75-10,30-1.5,20-1.5,20a19.2,19.2,0,0,1,2.5-8.75c-.25,9.75,3.5,23.5,3.5,23.5s2.5-22.25,5.05-20.5.7,9.25.7,9.25c-2.75,21.75,3.5,35,3.5,35-1-13.5,1.75-28,1.75-28a46.52,46.52,0,0,0,8.88,17c-2.62-5.25-3.63-13-3.63-13a20.52,20.52,0,0,0,7.75,8.75,11.4,11.4,0,0,1-1.75-7c4.25,5.5,7.75,7,7.75,7A99.65,99.65,0,0,1,529.58,238c3.5,6.25,10.49,10.58,10.49,10.58l-.24-38.08,19.75-19,19.25-9.25,5.36-8C585.81,149,555.71,145,555.71,145Zm-27.37,35s1,6.5-.89,9c0,0-1.86-13.86-1.86-17.68S524.33,156,532.08,160C532.08,160,527.58,167,528.33,180Z" transform="translate(-443.75 -144.99)"/><path class="cls-7" d="M584.2,171.75s.25,12.75-5,19c0,0-3,4.25-2.75,11.75,0,0,.5,5.25-5.75,0,0,0-1.75-.33-1.25,2.33,0,0,.25,2.42-3.25,1.67,0,0,1.39,3.78-3,3.71,0,0-3.51-.46-3.26,2.29s0,4.75-6.75,1.25-8.5-3.75-9.25-.25c0,0,7.25,5.25,15.75,32,0,0,5.75,10.5-6.5,8.75s-18-9-21.75-17.5-4.75-21-4-47.5c0,0,6.5.25,12.75-7.25,0,0,3-5.75,7-7.75,0,0,6.5-6.5,9.75.75a23.24,23.24,0,0,1-1.24,12.25s6.24,1.25,9.49-5.5,12.75-3.5,12.75-3.5S578.7,172,584.2,171.75Z" transform="translate(-443.75 -144.99)"/><path class="cls-4" d="M551.46,188.81s-9.9-2.81-4.26-14.56c0,0-.39,0-1.67,1.08C544,176.61,542.59,189.13,551.46,188.81Z" transform="translate(-443.75 -144.99)"/><path class="cls-4" d="M542.61,244.67a44.55,44.55,0,0,1,1.69,6.87c.39.2.78.39,1.19.57A13.65,13.65,0,0,0,542.61,244.67Z" transform="translate(-443.75 -144.99)"/><path class="cls-11" d="M564.62,210.06s-2.77-2.2-.78-6.47l1.15-.91,1.2,3.82S567.4,209.21,564.62,210.06Z" transform="translate(-443.75 -144.99)"/><path class="cls-12" d="M569.45,204.83a2.27,2.27,0,0,0-1.74-.58c-1.25,0-2.19-2-2.19-2l-.52,1a5.77,5.77,0,0,0,1.2,3.29S569.43,207.32,569.45,204.83Z" transform="translate(-443.75 -144.99)"/><path class="cls-13" d="M515.43,162c-1.87,4.09-2.77,9.61-2.6,16.7.5,20.25-7,21.75-10,30A27.25,27.25,0,0,0,501.7,213s2.14-6.51,7.63-10,6-22.25,6-22.25.25,16.45-1,25.48S516.58,221,516.58,221s-.25-13.75,1.25-20.12,1.25-19.87,0-26.12,4.26-17,9.38-18C527.21,156.75,522,155.34,515.43,162Z" transform="translate(-443.75 -144.99)"/><path class="cls-4" d="M564.33,203.25a29.77,29.77,0,0,1,5.75-4c3-1.5,2.5-5.5,1.5-7,0,0,4.94,6-2.53,9.25S564.33,203.25,564.33,203.25Z" transform="translate(-443.75 -144.99)"/><path class="cls-7" d="M490.11,212.84c-4.22,2-8.44,5.48-11.77,16.5C474.5,242,469,274,469,274a28.1,28.1,0,0,1-3.17,7.67c-2.5,4.33-9.67,14.33-16.5,53.17,0,0,.33,3-3.17,10a21.49,21.49,0,0,0-.83,18c1.6,3.78-2.13,10.74,2.66,13.89-2.09-5,.34-11,.34-11s-4.49-12.77-1.25-18.25,4.5-14.5,4.5-14.5c4.75-27,12.25-42,14.5-46.75s3.75-8.75,3.75-8.75,4.5-14.5,8-32.83A94.35,94.35,0,0,1,490.33,213Z" transform="translate(-443.75 -144.99)"/><path class="cls-4" d="M592.21,280.63a9.18,9.18,0,0,1,2.15-3.5s12.6-10.5,21.85-16.25,6.79,1.19,3.33,6.16-10.19,15.6-21.89,31.1a22.09,22.09,0,0,0-2.19,3.41,8.71,8.71,0,0,0,3.37-2c14-15.25,25.75-37.5,30.5-42.5a37.44,37.44,0,0,0,4-4.89s2.22-12,0-18.23-6.09-.62-6.09-.62l-2.86,7.81,3,4.69-8.5,8.7c-10.75,9.2-26,21.28-26,21.28S591.71,276.75,592.21,280.63Z" transform="translate(-443.75 -144.99)"/><path class="cls-7" d="M545.47,486.94c4,17.64,1,35.94-1.14,42.3l.81,0c3.25-10.5,6-27.5,3-42.75s3.55-32.67,3.55-32.67l-.14-.09-2.41.16S541.47,469.27,545.47,486.94Z" transform="translate(-443.75 -144.99)"/><path class="cls-5" d="M622,228.6c-5.7-.71-10.88,2-12.58,6.3h0l-3,7.07,4.33,1.39a13,13,0,0,0,8.85,4.9,14,14,0,0,0,5.33-.35l4,1.28,2.77-6.21a8.48,8.48,0,0,0,.63-1.42l0-.11h0a8.26,8.26,0,0,0,.36-1.53C633.33,234.49,628.56,229.42,622,228.6Z" transform="translate(-443.75 -144.99)"/><circle class="cls-5" cx="19.46" cy="229.89" r="13.13"/><ellipse class="cls-6" cx="618.02" cy="244.61" rx="9.91" ry="11.98" transform="translate(-145.07 682.55) rotate(-82.88)"/><path class="cls-9" d="M528.83,417.5c-28.33-24.17-38-35.83-38-35.83-14.65-19.5,2.32-48.33,2.32-48.33a59.44,59.44,0,0,0,9.83,0,38.16,38.16,0,0,0-9.33-1.5,119.6,119.6,0,0,1,13.17.67,65.73,65.73,0,0,0-14-3l-2.52.63S465,365,492.67,389s57.67,49.33,57.67,49.33,5,4.33,1.67,11.67a12.25,12.25,0,0,0-2.54,4l2,.51,2.39-5.38C556,439.17,557.17,441.67,528.83,417.5Z" transform="translate(-443.75 -144.99)"/><path class="cls-4" d="M552.83,183.13s-1.62-3.25,1.75-2.75c0,0,1.84-5.75-2.14-5.5s-3.73,1.87-4,4.12c0,0-1.75-4.17,3-4.75s5.24,3.5,4.25,6.75C555.71,181,552.33,180.63,552.83,183.13Z" transform="translate(-443.75 -144.99)"/><path class="cls-4" d="M554.21,210.28c-6.5-5.09-8.73-4.27-8.73-4.27-5.6,1.88-1.53,7.49-1.53,7.49.75-3.5,2.5-3.25,9.25.25s7,1.5,6.75-1.25C556.81,212.88,554.21,210.28,554.21,210.28Z" transform="translate(-443.75 -144.99)"/><path class="cls-4" d="M527.26,209.24c.36-2.61,2.78-18.11,9.73-24h0c-5.08,4.19-9.53,4-9.53,4C527.22,197,527.16,203.62,527.26,209.24Z" transform="translate(-443.75 -144.99)"/><path class="cls-4" d="M576.5,189a9.25,9.25,0,0,0-2.37,3.43l.71.39A9.37,9.37,0,0,1,576.5,189Z" transform="translate(-443.75 -144.99)"/><path d="M571.5,188.82a6.43,6.43,0,0,0,4.33,4.18S571,194.89,571.5,188.82Z" transform="translate(-443.75 -144.99)"/><path class="cls-10" d="M573.18,185.21a5.4,5.4,0,0,1,6.32,0s1.75,1.54.67,2.12S578.7,184.1,573.18,185.21Z" transform="translate(-443.75 -144.99)"/><path class="cls-6" d="M521.17,280.33S536,285.67,548.67,306c0,0,3.5,5.17,4.33,10.17C553,316.17,539.33,294.83,521.17,280.33Z" transform="translate(-443.75 -144.99)"/><path class="cls-6" d="M499.3,292.51s3.87,4.15,11.87,4.82,17.83,9.33,20.67,13.17c0,0-13.67-12.67-22.67-12.25,0,0-6.65-.69-9.74-3.47Z" transform="translate(-443.75 -144.99)"/><path class="cls-6" d="M557.6,291.2a25.68,25.68,0,0,1,1.23-3.7,111.58,111.58,0,0,0,7-9.73c-.07,0-6.71,3.88-16.16,1.23C549.67,279,558.85,285.1,557.6,291.2Z" transform="translate(-443.75 -144.99)"/><path class="cls-6" d="M557.43,291.86h0l0-.09Z" transform="translate(-443.75 -144.99)"/><path class="cls-6" d="M555.7,254.44h0c11.75,1.95,3.63-15.61,3.63-15.61-7-20.66-14.32-24.32-14.32-24.32h0c2.31,2.51,8.12,10.34,14.68,31C559.7,245.5,564.58,254.44,555.7,254.44Z" transform="translate(-443.75 -144.99)"/><path class="cls-6" d="M496.83,252s2,19.79,14,25.77c0,0-6.33,3-9.13,6.71,0,0-4.12-12.48-9.12-17.23A124.1,124.1,0,0,1,496.83,252Z" transform="translate(-443.75 -144.99)"/><path class="cls-6" d="M499,288.74s1.62,1.26,4.37-1.74,14.25-6.67,14.25-6.67-11,6.42-13.25,8.67a19.39,19.39,0,0,1-5,3.51Z" transform="translate(-443.75 -144.99)"/><path class="cls-6" d="M505.67,301.83a9.73,9.73,0,0,1,5.12,3.33,9.43,9.43,0,0,0,4.78,3.33s-4.4-1-5.86-2.75A14.23,14.23,0,0,0,505.67,301.83Z" transform="translate(-443.75 -144.99)"/><path class="cls-6" d="M546.42,530.15a8.53,8.53,0,0,1,2.24,7c-.5,4.5,3.83,4.67,9.33,5s9.17,2.33,9,6.33c0,0-4.17-4.67-9.33-4.5s-11.24.18-11.24-6.83C546.42,537.17,547.49,534.8,546.42,530.15Z" transform="translate(-443.75 -144.99)"/><path class="cls-6" d="M489.33,550.21s2.67-.42,5.5,4.08,7.83,5,13.67,0,7.33-5.83,11-4.83c0,0-3.16-3.17-8.5.75s-9.62,8.57-14.23,3.33S489.33,550.21,489.33,550.21Z" transform="translate(-443.75 -144.99)"/><path class="cls-2" d="M582.78,579.8h0c-14.68,8.42-24.94-3.42-24.94-3.42s-7.62-6-9-11.37-2.75-8.62-6-6.6-4.87,0-4.87,0-5-4.52-10.87-10.77-4-8.75-4-8.75h0c-1.82.68-3,2.58.5,7.62,6.5,9.5,21.5,20.1,34.75,32.8C568,588.58,578.76,584.13,582.78,579.8Z" transform="translate(-443.75 -144.99)"/><path class="cls-1" d="M543.33,545.83s-9.17,2.59-12.17-4.37a18.26,18.26,0,0,1,6.08-7A22.84,22.84,0,0,1,543.33,545.83Z" transform="translate(-443.75 -144.99)"/><path class="cls-14" d="M487.23,561s5.1-1.34,14.44,1.58A19.16,19.16,0,0,1,488,568.5,20.6,20.6,0,0,1,487.23,561Z" transform="translate(-443.75 -144.99)"/></svg>