<svg xmlns="http://www.w3.org/2000/svg" viewBox="0 0 272.13 246.61"><defs><style>.cls-1{fill:#dfc2a4;}.cls-2{fill:#ffd;}.cls-3{fill:#d5a982;}.cls-4{fill:#a37659;}.cls-5{fill:none;stroke:#6b523c;stroke-miterlimit:10;stroke-width:2.04px;}.cls-6{fill:#d4aa82;}.cls-7{fill:#d4ba92;}.cls-8{fill:#af8058;}.cls-9{fill:#ffd693;}</style></defs><title>generic invuldeur</title><g id="Laag_13" data-name="Laag 13"><rect class="cls-1" y="158" width="272" height="89"/><rect class="cls-2" width="272" height="158"/></g><g id="Laag_14" data-name="Laag 14"><rect x="55" y="121" width="41" height="37"/></g><g id="Laag_12" data-name="Laag 12"><polygon class="cls-3" points="56.72 158.09 56.02 158.79 55.87 121.63 96.08 121.63 96.05 158.79 95.15 157.95 95.17 122.9 56.72 122.9 56.72 158.09"/><polygon class="cls-4" points="56.72 122.9 55.99 121.63 96.08 121.63 95.17 122.9 56.72 122.9"/><polyline class="cls-5" points="54.98 158.79 54.98 120.64 97.08 120.64 97.08 158.79"/><polyline class="cls-6" points="55 121.63 45.74 116 45.74 163.86 55.03 158.79"/><polyline class="cls-4" points="46.55 118.81 46.58 135.66 49.68 137.2 49.68 120.79"/><polyline class="cls-4" points="46.58 160.9 46.58 143.25 54.19 145.06 54.19 157.38"/><polyline class="cls-7" points="46.55 118.81 46.5 136.07 49.68 137.2 49.26 136.03 47.01 120.08"/><polyline class="cls-7" points="46.58 160.9 46.58 143.25 47.26 144.49 53.69 156.73 54.19 157.38"/><polyline class="cls-6" points="47.01 120.08 47.01 135.28 49.26 136.03 49.26 121.49"/><polyline class="cls-6" points="47.29 159.64 47.29 144.49 53.68 146.01 53.69 156.73"/><polyline class="cls-4" points="50.95 121.35 50.95 137.65 54.04 138.89 54.04 123.32"/><polyline class="cls-7" points="50.95 121.35 50.88 137.63 54.07 138.89 53.76 138 53.6 137.73 51.51 122.47"/><polyline class="cls-6" points="51.51 122.47 51.51 136.86 53.62 137.74 53.62 123.88"/><polyline class="cls-6" points="97.07 121.77 106.27 116.14 106.27 164 97.12 158.93"/><polyline class="cls-4" points="105.42 118.96 105.42 135.8 102.33 137.34 102.33 120.93"/><polyline class="cls-4" points="105.42 161.04 105.42 143.39 97.96 145.2 97.96 157.53"/><ellipse class="cls-8" cx="104.89" cy="139.33" rx="0.52" ry="0.69"/><polyline class="cls-7" points="105.42 118.96 105.56 136.21 102.32 137.34 102.75 136.18 102.89 135.89 105 120.22"/><polyline class="cls-7" points="105.42 161.04 105.42 143.39 104.72 144.6 98.33 156.79 97.96 157.53"/><polyline class="cls-6" points="105 120.22 105 135.43 102.75 136.18 102.75 121.63"/><polyline class="cls-6" points="104.72 159.78 104.72 144.63 98.35 146.15 98.33 156.79"/><polyline class="cls-4" points="101.06 121.49 101.06 137.79 98.1 139.03 98.1 123.46"/><polyline class="cls-7" points="101.06 121.49 101.17 137.78 98.1 139.03 98.38 137.88 100.64 122.62"/><polyline class="cls-6" points="100.64 122.62 100.64 137 98.38 137.88 98.38 124.02"/><rect class="cls-8" x="104.99" y="139.23" width="0.58" height="0.23"/><ellipse class="cls-9" cx="104.78" cy="139.32" rx="0.41" ry="0.66"/><ellipse class="cls-8" cx="47.34" cy="139.33" rx="0.52" ry="0.69"/><rect class="cls-8" x="46.66" y="139.23" width="0.58" height="0.23" transform="translate(93.89 278.69) rotate(-180)"/><ellipse class="cls-9" cx="47.44" cy="139.32" rx="0.41" ry="0.66"/><rect x="176" y="121" width="41" height="37"/><polygon class="cls-3" points="177.72 158.09 177.02 158.79 176.87 121.63 217.08 121.63 217.05 158.79 216.15 157.95 216.17 122.9 177.72 122.9 177.72 158.09"/><polygon class="cls-4" points="177.72 122.9 176.99 121.63 217.08 121.63 216.17 122.9 177.72 122.9"/><polyline class="cls-5" points="175.98 158.79 175.98 120.64 218.08 120.64 218.08 158.79"/><polyline class="cls-6" points="176 121.63 166.74 116 166.74 163.86 176.03 158.79"/><polyline class="cls-4" points="167.55 118.81 167.58 135.66 170.68 137.2 170.68 120.79"/><polyline class="cls-4" points="167.58 160.9 167.58 143.25 175.19 145.06 175.19 157.38"/><polyline class="cls-7" points="167.55 118.81 167.5 136.07 170.68 137.2 170.26 136.03 168.01 120.08"/><polyline class="cls-7" points="167.58 160.9 167.58 143.25 168.26 144.49 174.69 156.73 175.19 157.38"/><polyline class="cls-6" points="168.01 120.08 168.01 135.28 170.26 136.03 170.26 121.49"/><polyline class="cls-6" points="168.29 159.64 168.29 144.49 174.68 146.01 174.69 156.73"/><polyline class="cls-4" points="171.95 121.35 171.95 137.65 175.04 138.89 175.04 123.32"/><polyline class="cls-7" points="171.95 121.35 171.88 137.63 175.07 138.89 174.76 138 174.6 137.73 172.51 122.47"/><polyline class="cls-6" points="172.51 122.47 172.51 136.86 174.62 137.74 174.62 123.88"/><polyline class="cls-6" points="218.07 121.77 227.27 116.14 227.27 164 218.12 158.93"/><polyline class="cls-4" points="226.42 118.96 226.42 135.8 223.33 137.34 223.33 120.93"/><polyline class="cls-4" points="226.42 161.04 226.42 143.39 218.96 145.2 218.96 157.53"/><ellipse class="cls-8" cx="225.89" cy="139.33" rx="0.52" ry="0.69"/><polyline class="cls-7" points="226.42 118.96 226.56 136.21 223.32 137.34 223.75 136.18 223.89 135.89 226 120.22"/><polyline class="cls-7" points="226.42 161.04 226.42 143.39 225.72 144.6 219.33 156.79 218.96 157.53"/><polyline class="cls-6" points="226 120.22 226 135.43 223.75 136.18 223.75 121.63"/><polyline class="cls-6" points="225.72 159.78 225.72 144.63 219.35 146.15 219.33 156.79"/><polyline class="cls-4" points="222.06 121.49 222.06 137.79 219.1 139.03 219.1 123.46"/><polyline class="cls-7" points="222.06 121.49 222.18 137.78 219.1 139.03 219.38 137.88 221.64 122.62"/><polyline class="cls-6" points="221.64 122.62 221.64 137 219.38 137.88 219.38 124.02"/><rect class="cls-8" x="225.99" y="139.23" width="0.58" height="0.23"/><ellipse class="cls-9" cx="225.78" cy="139.32" rx="0.41" ry="0.66"/><ellipse class="cls-8" cx="168.34" cy="139.33" rx="0.52" ry="0.69"/><rect class="cls-8" x="167.66" y="139.23" width="0.58" height="0.23" transform="translate(335.89 278.69) rotate(-180)"/><ellipse class="cls-9" cx="168.44" cy="139.32" rx="0.41" ry="0.66"/></g></svg>