<svg id="gewicht" xmlns="http://www.w3.org/2000/svg" viewBox="0 0 641.94 556.2"><defs><style>.cls-1{fill:#3f3f44;}.cls-11,.cls-2{fill:none;stroke:#37373a;stroke-miterlimit:10;}.cls-2{stroke-width:0.5px;}.cls-3{fill:#010101;}.cls-4{fill:#504f55;}.cls-5{fill:#6b6974;}.cls-6{fill:#e8e9eb;}.cls-7{fill:#676570;}.cls-8{fill:#5f5e67;}.cls-9{fill:#e0e0e0;}.cls-10{fill:#f4f3f4;}.cls-11{stroke-width:0.25px;}.cls-12{fill:#0b0a0b;}.cls-13{fill:#f3f3f9;}</style></defs><title>Gewicht</title><path class="cls-1" d="M338.14,502.19a52.42,52.42,0,0,1,3-7.28c1.19-2,3.42-5.14,6-6.42a23,23,0,0,1,8.13-2.14c1.71,0,5.94-.3,6.85,0,1.28.43,4.71.86,7.28,2.57,2.08,1.38,6.12,6.27,8.56,11.56,2.57,5.56,3.85,11.13,3.85,14.55a99.14,99.14,0,0,1-1.28,12.84s-1.28,3.42-1.71,4.71-5.14,8.13-6.42,9a26.39,26.39,0,0,1-8.56,3,20.43,20.43,0,0,1-10.7-.86c-1.71-.86-2.89-.86-7.28-4.71-3.42-3-5.14-8.13-6.42-11.13a56.12,56.12,0,0,1-3-16.26A28.25,28.25,0,0,1,338.14,502.19Z"/><path class="cls-2" d="M368.74,493.42s-5.26-7-13.7-6.85"/><path class="cls-3" d="M366.38,491.06s7.28,9,8.56,14.55,2.57,13.27,1.28,18.4-3,12-6.85,15.84-4.28,3.85-4.28,3.85H366s5.14-3.85,7.28-8.13,4.71-12.84,4.71-15.84-.43-11.56-2.14-15.84-6.42-11.13-7.7-12S366.38,491.06,366.38,491.06Z"/><path class="cls-3" d="M358.68,495.34a16.58,16.58,0,0,0-4.71-1.28,11.05,11.05,0,0,0-9,5.14c-2.57,4.28-4.28,9-4.28,12.41s1.71,14.55,3.42,17.12,3.85,5.14,7.7,6.42,6.23,1.81,9,.43c.86-.43,4.71-3,4.71-3s-3.42,4.71-6.42,5.56-7.7-.43-9.42-1.71a44,44,0,0,1-6.42-6c-.86-1.28-3-6.42-3-9s-1.71-9-.43-14.12,3-9.42,4.71-10.7,4.28-3.85,7.28-3.85a17.21,17.21,0,0,1,6.42,1.71S358.68,494.49,358.68,495.34Z"/><path class="cls-3" d="M357,508.18a9.84,9.84,0,0,1,1.71,2.38,10,10,0,0,1,1.28,4.77c0,1.59-1.71,5.56-1.71,5.56s-1.71,2.38-2.57,2.38-.43,1.59-.43,1.59,2.14,0,3.85-2.78a10.09,10.09,0,0,0,1.71-4.77s.43-4-.86-6c-.7-1.08-1.71-2.38-1.71-2.38Z"/><path class="cls-4" d="M352.26,506.9s2.31-.4,3.08,0a4.6,4.6,0,0,1,1.93,1.2,9.52,9.52,0,0,1,2.7,7.19,20.39,20.39,0,0,1-1.93,6.8s-1.16,2.8-2.7,2.8-3.47,0-5-1.6a7.93,7.93,0,0,1-1.93-3.6v-8.41a11.59,11.59,0,0,1,1.54-3.2A5.75,5.75,0,0,1,352.26,506.9Z"/><path class="cls-5" d="M355.68,488.07a30.82,30.82,0,0,0,4.28,2.57c3.27,1.63,5.77,3.32,7.7,6.42,2.14,3.42,6.42,13.27,6.85,18.83a38.17,38.17,0,0,1-1.28,11.56L369.81,536c-.86,2.14-3.42,6-4.71,6.85a3.59,3.59,0,0,0-1.28,1.28l1.28-.43a5.17,5.17,0,0,0,2.57-1.71l3.42-3.85c1.28-1.28,3.85-9,3.85-9s2.14-6.85,1.71-11.56c-.27-3-1.71-12.41-3.42-15s-5.32-10.47-11.13-12.41Z"/><path class="cls-2" d="M365.53,532.58s4.71-8.56,3.85-15.84-.86-6.85-.86-6.85-2.14-11.56-9.84-15"/><path class="cls-6" d="M329.58,512l19.26-.86s1.28-1.71,2.14-1.71,2.14-.43,3.42.86a8.37,8.37,0,0,1,2.14,3.85l.43,1.71a39.38,39.38,0,0,1-1.28,3.85c-.43.86-1.28,2.57-3.42,2.14a2.86,2.86,0,0,1-2.14-1.28l-20.54,1.71Z"/><path class="cls-7" d="M351.83,509.47h0c-.2-.18,1.71,0,2,.1a7.17,7.17,0,0,1,2.76,2,9.87,9.87,0,0,1,1,3,7.87,7.87,0,0,1,.12,2.57,8.57,8.57,0,0,1-.74,3c-.86,1.28-2.14,2.57-3.85,2.57a2.14,2.14,0,0,1-2.14-1.28l1.71.43c1.31.33,2.57-1.28,3-2.14a13.33,13.33,0,0,0,.86-4.28,7.18,7.18,0,0,0-2.14-4.28C353.12,509.9,353.54,510.32,351.83,509.47Z"/><path class="cls-8" d="M349.26,510.75H351l.86-1.28,1.28.43-.43,1.28a10.23,10.23,0,0,1,1.28,3c0,.38.16.34.35.18a2.74,2.74,0,0,1,1.79-.61h1.28a9.33,9.33,0,0,1,.43,2.57c0,1.35-.43,1.71-.86,1.71a17.84,17.84,0,0,1-2.57-.86l-.86,2.14a4.38,4.38,0,0,1-1.71.86c-.86,0-.56-.2-.27-.33a.86.86,0,0,0,.43-.4l.7-1.41.31-.93a1.74,1.74,0,0,0,.11-.57,1.06,1.06,0,0,0-.05-.38l-.29-.86a3.69,3.69,0,0,0-.2-.48,11.09,11.09,0,0,0-2-3.19c-.81-.82-1.28-.43-1.28-.43Z"/><path class="cls-9" d="M330.86,518.88,353,517.24l-.27.79-.75,1.5a3.42,3.42,0,0,1-.63.47l-1.19.6-18.54,1.55-.72-3.26"/><polygon class="cls-10" points="328.29 512.89 350.55 511.61 351.06 512.18 328.72 513.75 328.29 512.89"/><path class="cls-1" d="M288.06,510.75s1.71-8.56,3-10.7c1.19-2,3.85-7.7,6.42-9s4.28-2.57,6-2.57,8.56-.43,9.42,0,6.85,2.57,8.13,4.71,5.56,6,7.28,11.56,3.42,12.41,3.42,17.55a42.3,42.3,0,0,1-1.28,9.84,34.86,34.86,0,0,1-.86,3.85c-.43,1.28-4.28,9-5.56,9.84s-3.85,3.42-8.13,4.28-8.13.86-9.84.43a17.87,17.87,0,0,1-9-6,43.09,43.09,0,0,1-6.42-12.41c-.86-3-2.57-11.13-2.57-16.26Z"/><path class="cls-2" d="M318.23,495.56s-4.28-7.28-15-7.05"/><path class="cls-2" d="M319.95,544.78a13.12,13.12,0,0,1-10.7,6"/><path class="cls-11" d="M303.25,496s7.7.43,9.84,5.14c1.28,2.81,5.14,11.13,5.56,13.7a56,56,0,0,1,0,12c-.43,3-1.28,9.84-3.85,12.41a42.1,42.1,0,0,1-4.74,4.12"/><path class="cls-12" d="M317.16,494.06s4.65,9,5.56,12c1.38,4.51,3.06,8.13,3.42,15.84.55,11.56-7.7,24.82-7.28,24.4,3-3,7.7-9.42,8.56-15.84,1-7.28.86-9,.43-12.41s-3-11.13-3-11.13S321.44,497.91,317.16,494.06Z"/><path class="cls-3" d="M307.17,496.63h0a25.5,25.5,0,0,0-4.56-.86,11.39,11.39,0,0,0-6,2.57c-1.71,1.28-5.56,9-5.56,12.41s3,23.11,4.71,25.25c1.36,1.71,3.53,4.49,4.37,5.56a2.42,2.42,0,0,0,.86.69c1,.49,3.22,1.56,4.2,1.89,1.22.41,4.47-.19,5.56-1.28.86-.86-2.14,1.71-4.71.86a15.53,15.53,0,0,1-5.56-3c-.86-.86-4.71-5.14-5.14-10.27s-2.57-19.32-2.14-21.4,2.22-7.36,3.85-9C298.33,498.77,300.44,495.81,307.17,496.63Z"/><path class="cls-3" d="M305.18,503a24.47,24.47,0,0,1,3.42,3.42,55.91,55.91,0,0,1,3.42,9,27,27,0,0,1,.43,5.56c0,2.14,0,6.42-1.28,9.42a24.53,24.53,0,0,1-3.85,6.42c-.86.86-3.85,1.28-3.85,1.28s3.42,0,4.28-.43,0,1.71,0,1.71,6-5.14,5.56-6,1.28,0,1.28,0a21.1,21.1,0,0,0,1.71-5.14,33.73,33.73,0,0,0,0-6.85l2.57-2.14s-.43-2.14-1.28-1.71L315,518.88l-2.14-8.56s-3.42-5.56-4.71-6A28.5,28.5,0,0,1,305.18,503Z"/><path class="cls-4" d="M295.33,504.76a10.21,10.21,0,0,1,6-2.14c5.14,0,4.93,1.4,6.85,3,2.57,2.14,4.37,9.31,4.71,12.41a33.49,33.49,0,0,1-2.14,14.12c-1.63,4.09-2.57,4.71-5.14,5.56s-6.09-.48-8.13-1.71c-4.28-2.57-4.95-26.6-3.78-28.87A10.32,10.32,0,0,1,295.33,504.76Z"/><path class="cls-3" d="M294.91,509l1.28.86a4.23,4.23,0,0,1,.86-2.57c1.28-1.28,5.16-1.49,6-1.28,1.71.43-.54-.51-3.85-.43a5.36,5.36,0,0,0-3,.86,4.61,4.61,0,0,0-1.71,2.14Z"/><path class="cls-3" d="M297.11,532.36s2.46,2.1,3.71,2.38c1.8.41,4.37-.88,4.37-.88s-3,.86-4.34.45a17,17,0,0,1-3.28-2.35Z"/><path class="cls-5" d="M303.89,505.62s3.85,4.71,4.28,5.56a34.34,34.34,0,0,1,1.71,7.7c0,1.71-.43,9-1.28,10.27s-.86,3-3,4.71-1.71,1.71-1.71,1.71,3.85-1.71,4.28-2.57,2.57-5.56,2.57-7.28,0-10.27-.86-12.41a38.87,38.87,0,0,0-3-6,8.51,8.51,0,0,0-3.85-2.57C302.61,504.76,303.89,505.62,303.89,505.62Z"/><path class="cls-5" d="M303.47,491.06s6.85,1.71,9.42,5.14c3.65,4.87,6,12,6.42,13.7s1.71,7.28,1.71,7.28-.43-9.84-1.71-12.41c-1-2.06-.43-3.42-4.71-9S303.47,491.06,303.47,491.06Z"/><path class="cls-3" d="M299.19,512.46a1.91,1.91,0,0,1,1.71-1.28c1.28,0,1.28,1.36,1.28,2.57s1.71,2.57,1.71,2.57,2.57,0,2.57,1.71a3.27,3.27,0,0,1-.86,2.14v1.71c0,4.41,2.57,4.28-3.42,7.7S299.19,512.46,299.19,512.46Z"/><path class="cls-7" d="M296.34,509s1.78,1.28,2,1.84.25,1.52,1,1.87,2.91.86,3.33,2,1.62,2.62.93,4.16-1.93,4.28-1.33,5,1.46,3,1.28,3.4-1.4,3.12-2.36,3.18a4.28,4.28,0,0,1-1.74-.31,12.08,12.08,0,0,1-1.8,2.94c-.74.6-3.14.11-3.14.11L295.8,529l1.06-2.34,2.14.49-.68-2.65.45-3.08-.93-4.18-.08-1.91-2.41-3,.69-2.76Z"/><path class="cls-13" d="M288.57,515.86s-.33-3.42.43-4,2.34,1.06,2.91.86,1.53-4.49,2.49-4.52a3.43,3.43,0,0,1,2,.88,34.13,34.13,0,0,0,.93,4.18c.43,1.13,2.73,1.23,2.73,1.23s1.35.14,1.42,2.05-1.55,4.47-1.51,5.42.89,3.22,1.15,4.74-.45,3.08-1.62,2.57-2.34-1.06-2.52-.67l-2.11,4.67A2.23,2.23,0,0,1,293,532c-.43-1.15,0-4.22-1.15-4.74l-3.12-1.4Z"/><path class="cls-6" d="M294.88,515.42l-11.65.86s-2.76,3-1.08,6.56c1.56,3.33,2.24,3.35,2.24,3.35l11.65-.86s2.14-3.72.48-7.3C295.09,515,294.88,515.42,294.88,515.42Z"/><path class="cls-13" d="M285.85,519.8a11.71,11.71,0,0,0-1.25-2.44,4.28,4.28,0,0,0-1.39-1.1s-2.93,3.37-.82,7.1c1.52,2.68,2,2.82,2,2.82S286.75,523,285.85,519.8Z"/><path class="cls-9" d="M284.41,526.16,296,525.3a2.88,2.88,0,0,0,.4-.77c.22-.55.51-1.6.51-1.6l.14-.63.06-.43-11.18.86h0l-.43,1.28-.52,1.25"/></svg>