<svg id="Laag_1" data-name="Laag 1" xmlns="http://www.w3.org/2000/svg" viewBox="0 0 272.15 246.62"><defs><style>.cls-1{fill:#008a9e;}.cls-2{fill:#ddd;}.cls-3{fill:#9b9b9b;}.cls-4{fill:#111;}.cls-5{fill:#e5e5e5;}.cls-6{fill:#212121;}.cls-7{fill:#fff;}.cls-8{fill:#bcbbbb;opacity:0.47;}.cls-9{fill:#777;opacity:0.36;}.cls-10{fill:#695e5a;}.cls-11{fill:#494240;}.cls-12{fill:#cca69a;}.cls-13{fill:#8e6830;}.cls-14{fill:#2f5220;}.cls-15{fill:#006c78;}.cls-16{fill:#004649;}.cls-17{fill:#feffff;}.cls-18{fill:none;}.cls-19{fill:#929eae;}.cls-20{fill:#64777e;}.cls-21{fill:#242d28;}.cls-22{fill:#505b5f;}.cls-23{fill:#a2aab5;}.cls-24{fill:#6b9ae2;}.cls-25{fill:#a0c4d7;}.cls-26{fill:#6b80d3;}.cls-27{fill:#afb9da;}.cls-28{fill:#e6e6e6;}.cls-29{fill:#afccec;}</style></defs><title>zaal met tennis tafeltennis en badminton deur</title><polygon class="cls-1" points="0 167.47 264.47 164.92 272.15 165.87 272.14 246.62 0 246.62 0 167.47"/><polygon class="cls-2" points="0 208.88 32.88 209.05 42.54 202.61 39.96 202.61 0 202.22 0 202.87 39.64 203.25 30.62 208.4 0 208.17 0 208.88"/><polyline class="cls-2" points="0 176.45 8.72 174.58 9.04 174.91 0 176.89"/><polyline class="cls-2" points="88.28 174.26 42.54 202.61 40.61 202.61 84.09 176.19 2.15 176.42 2.92 176.19 84.42 175.87 86.67 174.58 9.04 174.91 8.72 174.58"/><polyline class="cls-2" points="0 192.3 48.02 192.3 29.66 202.51 27.97 202.51 46.41 192.62 0 192.62"/><polygon class="cls-2" points="30.62 201.96 18.88 208.31 16.96 208.3 28.37 202.28 30.62 201.96"/><polygon class="cls-2" points="48.02 192.3 81.19 174.58 80.55 174.58 46.41 192.62 48.02 192.3"/><polyline class="cls-2" points="0 178.59 14.88 174.88 14.15 174.88 0 178.41"/><polyline class="cls-2" points="0 180.46 77.11 180.46 76.69 180.7"/><line class="cls-2" x1="76.67" y1="180.7" y2="180.7"/><polygon class="cls-2" points="48.02 192.3 57.58 192.3 57.05 192.62 47.44 192.62 48.02 192.3"/><path class="cls-2" d="M-2.88,192.62" transform="translate(0 0)"/><polygon class="cls-2" points="31.51 180.46 43.55 176.3 43.05 176.3 30.8 180.46 31.51 180.46"/><polygon class="cls-3" points="0 167.47 264.47 164.92 272.15 165.87 272.14 111.49 266.73 113.38 0 116.83 0 167.47"/><polygon class="cls-2" points="131.44 166.21 131.44 151.71 140.14 151.71 140.14 166.12 140.85 166.11 140.9 150.75 130.8 150.75 130.8 166.21 131.44 166.21"/><polygon class="cls-4" points="131.44 166.21 140.14 166.12 140.14 151.71 131.44 151.71 131.44 166.21"/><polygon class="cls-4" points="64.44 151.07 65.41 166.85 75.4 166.85 74.43 150.75 64.44 151.07"/><polygon class="cls-5" points="64.44 150.75 64.44 149.78 74.43 149.46 74.43 150.75 64.44 151.07 64.44 150.75"/><polyline class="cls-4" points="193.31 165.61 194.25 149.46 204.24 149.78 203.28 165.51"/><polygon class="cls-5" points="204.24 149.46 204.24 148.49 194.25 148.17 194.25 149.46 204.24 149.78 204.24 149.46"/><polygon class="cls-6" points="66.73 186.74 68.19 186.74 67.99 162.34 66.7 162.34 66.73 186.74"/><polyline class="cls-7" points="0 161.72 66.7 162.34 66.7 163.66 0 162.93"/><polygon class="cls-8" points="0 171.77 66.7 172.65 66.7 163.63 0 162.91 0 171.77"/><polyline class="cls-7" points="265.91 211.7 210.18 177.21 210.69 177.24 267.96 211.8 265.91 211.7"/><polyline class="cls-7" points="272.14 197.38 221.45 177.22 220.43 177.17 272.13 198.33"/><polyline class="cls-7" points="272.14 211.73 266.81 211.74 265.94 211.17 272.13 211.12"/><polyline class="cls-7" points="272.13 192.05 258.13 192.24 258.16 191.71 272.13 191.52"/><polyline class="cls-7" points="272.13 182.03 259.77 179.59 260.3 179.09 260.3 179.09 260.64 179.48 272.13 181.68"/><polyline class="cls-7" points="272.13 178.96 260.3 179.09 226.82 179.34 227.74 179.71 259.77 179.59 272.13 179.26"/><polyline class="cls-7" points="272.13 177.16 210.95 177.4 210.69 177.24 272.13 177.16"/><polygon class="cls-9" points="212.71 172.56 212.71 173.62 212.91 173.63 212.92 175.68 212.91 182.9 224.4 183.06 238.58 183.35 250.82 183.1 261.15 182.84 265.43 182.7 267.82 182.63 269.61 182.54 271.21 182.44 272.13 182.36 272.14 173.94 212.71 172.56"/><polygon class="cls-10" points="212.94 183.71 212.91 173.63 211.38 173.56 210.9 183.61 212.94 183.71"/><path class="cls-7" d="M272.14,173l-21.28-.16L212,171.47l-.05,1.06,38.88,1.34s13.75.07,21.33.13" transform="translate(0 0)"/><polygon class="cls-10" points="211.65 173.57 211.75 171.45 212.71 171.5 212.72 173.62 211.65 173.57"/><polygon class="cls-11" points="211.81 175.17 211.92 183.66 210.9 183.61 211.3 175.15 211.81 175.17"/><path class="cls-12" d="M272.13,183l-3.83.16-9.23.09-9.25.62-11.78,0-12.78-.61-12.32-.08s-.31-.27,0-.26c3.29,0,22.79.31,25.13.43,2.56.12,29.75-.69,29.75-.69l4.31-.23" transform="translate(0 0)"/><polygon class="cls-13" points="266.73 113.38 272.14 111.49 272.13 0 0.01 0 0 116.83 266.73 113.38"/><polygon class="cls-14" points="0 62.96 85.38 59.91 88.28 65.71 0 68.81 0 62.96"/><polygon class="cls-14" points="0 80.18 93.43 76.98 95.37 80.85 0 84.08 0 80.18"/><polygon class="cls-14" points="98.59 88.9 99.88 91.8 0 94.6 0 91.93 98.59 88.9"/><polygon class="cls-14" points="103.1 97.28 52.2 98.24 0 99.78 0 102.12 19.67 101.46 66.38 100.18 104.06 99.53 103.1 97.28"/><polygon class="cls-14" points="106.32 103.72 106.96 105.33 73.79 105.97 53.81 106.62 37.06 106.94 0 107.57 0 106.07 106.32 103.72"/><polygon class="cls-14" points="108.25 108.55 108.9 110.16 67.99 110.81 11.62 112.09 0 112.32 0 111.18 108.25 108.55"/><polygon class="cls-14" points="272.14 57.28 146.58 58.3 144.97 64.42 272.14 63.19 272.14 57.28"/><polygon class="cls-14" points="272.14 75.4 143.04 76.02 142.07 79.56 272.14 79.15 272.14 75.4"/><polygon class="cls-14" points="140.14 87.94 139.82 90.83 272.14 89.96 272.14 87.1 140.14 87.94"/><polygon class="cls-14" points="138.53 96.31 193.93 95.67 249.01 95.67 272.14 95.67 272.14 97.36 227.75 97.6 180.08 98.24 138.21 98.56 138.53 96.31"/><polygon class="cls-14" points="137.24 103.08 137.24 104.69 173 104.36 194.25 104.04 211 104.04 249.66 103.72 272.14 103.56 272.14 102.01 137.24 103.08"/><polygon class="cls-14" points="136.28 108.23 136.28 109.52 177.83 109.19 234.52 108.55 272.14 107.06 136.28 108.23"/><polygon class="cls-14" points="0 44.53 78.62 42.2 74.11 30.92 0 32.76 0 44.53"/><polygon class="cls-14" points="149.8 42.2 272.14 42.8 272.14 29.63 152.7 29.63 149.8 42.2"/><polygon class="cls-15" points="122.1 115.31 98.27 0 122.1 0 125 115.31 122.1 115.31"/><polygon class="cls-16" points="124.76 115.31 114.37 0 122.1 0 124.76 115.31"/><polygon class="cls-17" points="0 88.7 3.57 90.83 23.54 90.19 19.03 87.29 0 87.89 0 88.7"/><polygon class="cls-17" points="78.62 88.9 76.04 85.68 95.69 85.36 98.27 88.58 78.62 88.9"/><polygon class="cls-17" points="158.18 83.75 156.57 87.29 175.89 86.97 178.15 83.75 158.18 83.75"/><polygon class="cls-17" points="236.45 83.43 232.59 86.33 252.56 86.33 258.03 83.43 236.45 83.43"/><polygon class="cls-17" points="253.2 105.33 257.71 103.72 272.14 103.72 272.14 104.38 268.34 105.33 253.2 105.33"/><polygon class="cls-17" points="200.05 105.97 214.87 105.97 217.77 104.04 202.63 104.04 200.05 105.97"/><polygon class="cls-17" points="160.43 106.62 162.37 104.69 147.23 104.69 146.26 106.62 160.43 106.62"/><polygon class="cls-17" points="92.15 105.65 106.32 105.65 107.28 107.26 93.43 107.58 92.15 105.65"/><polygon class="cls-17" points="38.68 106.94 52.85 106.94 55.1 108.23 40.93 108.55 38.68 106.94"/><polygon class="cls-17" points="0 108.24 3.57 109.52 0 109.68 0 108.24"/><polygon class="cls-17" points="59.61 54.11 82.81 53.15 78.62 42.2 51.56 42.84 59.61 54.11"/><polygon class="cls-17" points="198.44 54.11 173.96 54.11 180.08 42.2 205.85 42.2 198.44 54.11"/><path class="cls-18" d="M146.26,106.62" transform="translate(0 0)"/><polygon class="cls-19" points="128.54 194.23 130.12 194.23 130.72 207.51 129.22 207.51 128.54 194.23"/><polygon class="cls-19" points="132.36 194.23 132.67 199.58 133.5 199.58 133.46 194.23 132.36 194.23"/><polygon class="cls-19" points="164.63 199.38 164.79 194.03 165.81 194.03 165.59 199.38 164.63 199.38"/><polygon class="cls-19" points="171.63 194.03 170.58 206.72 171.67 206.72 172.67 194.03 171.63 194.03"/><polyline class="cls-20" points="128.54 194.34 128.64 196.07 130.22 196.18 130.13 194.33 128.54 194.34"/><path class="cls-20" d="M133.5,194.27s-.44.7-.57,1-.44,1.17-.44,1.17l-.13-2.2Z" transform="translate(0 0)"/><path class="cls-20" d="M164.82,194.14l-.05,1.58s.95.7.94.81l.1-2.39h-1" transform="translate(0 0)"/><path class="cls-20" d="M171.35,194h1.4l-.22,1.83s-.34-.83-.48-1.1-.49-.74-.49-.74" transform="translate(0 0)"/><polygon class="cls-20" points="170.58 206.72 170.19 206.09 171.19 194.03 171.63 194.03 170.58 206.72"/><polygon class="cls-20" points="130.72 207.51 130.83 206.88 130.29 194.23 130.13 194.23 130.72 207.51"/><polygon class="cls-20" points="133.5 199.58 133.8 199.06 133.67 194.23 133.46 194.23 133.5 199.58"/><polygon class="cls-20" points="164.65 199.38 164.39 198.82 164.55 194.03 164.82 194.03 164.65 199.38"/><polyline class="cls-21" points="130.56 204.07 130.72 203.74 170.44 203.16 170.54 203.49 130.56 204.07"/><polygon class="cls-21" points="170.42 203.65 170.46 202.8 165.06 197.21 165.09 198.13 170.42 203.65"/><polygon class="cls-21" points="133.68 197.04 164.51 196.84 164.5 197.07 133.68 197.3 133.68 197.04"/><polygon class="cls-22" points="130.46 201.81 132.55 197.63 133.21 197.64 130.51 203.04 130.46 201.81"/><polygon class="cls-22" points="130.56 204.07 170.54 203.49 170.45 204.66 130.62 205.38 130.56 204.07"/><polygon class="cls-22" points="165.68 197.21 170.52 202.13 170.46 202.8 165.06 197.21 165.68 197.21"/><polygon class="cls-22" points="133.68 197.3 164.5 197.07 164.48 197.97 133.69 198.13 133.68 197.3"/><polygon class="cls-21" points="133.21 197.64 133.18 198.39 130.56 204.07 130.5 203 133.21 197.64"/><polyline class="cls-23" points="118.24 192.05 118.24 194.4 182.66 194.04 182.66 191.92 118.24 192.18"/><polygon class="cls-24" points="118.24 192.18 126.76 186.3 170.57 186.3 182.66 191.92 118.24 192.18"/><polygon class="cls-25" points="118.25 192.18 126.76 186.3 127.36 186.3 118.95 192.17 118.25 192.18"/><polygon class="cls-26" points="148.96 186.5 149.75 186.5 152.23 191.46 151.55 191.7 148.96 186.5"/><polygon class="cls-26" points="118.24 192.18 119.7 191.65 182.04 191.63 182.66 191.92 118.24 192.18"/><rect class="cls-27" x="148.96" y="183.92" width="0.59" height="2.38"/><polygon class="cls-28" points="149.2 186.16 151.86 191.93 151.86 188.48 149.2 183.97 149.2 186.16"/><rect class="cls-29" x="151.54" y="188.48" width="0.79" height="3.56"/></svg>