<svg id="Laag_7" data-name="Laag 7" xmlns="http://www.w3.org/2000/svg" viewBox="0 0 208.09 231.69"><defs><style>.cls-1{fill:#282828;}.cls-2{fill:#111110;}.cls-3{fill:#efc2af;}.cls-4{fill:#be978c;}.cls-5{fill:#e9b01f;}.cls-6{fill:#cd971e;}.cls-7{fill:#e2b7a8;}.cls-8{fill:#d1a698;}.cls-9{opacity:0.3;}.cls-10{fill:#a98277;}.cls-11{fill:#dda095;}.cls-12{fill:#cf8d7a;}</style></defs><title>renner</title><path class="cls-1" d="M445.09,537.59s4.32-2.68,7.82,5.35S456,561.47,456,561.47s.41,2.06,3.09,5.76-1.44,13-1.44,13-1,2.88-8,3.4-17.9-1.09-17.9-1.09-2.86-4,4-8.48.72-12.36,1.74-24.29S445.09,537.59,445.09,537.59Z" transform="translate(-251.9 -373.08)"/><path class="cls-2" d="M312.95,493.14s3.81-16.69,11.48-22.75L364.61,474l50-7s5.15,3.5,6,8.85-1.85,8.64,3.91,17.29c0,0,4.53,4.94.21,12.35s-15.58,17.88-15.58,17.88-10.77,3.32-21.88,1.47c0,0-3.7.41-9.88-8.64S361.11,492.52,357,504.46s-5.15,16.88-5.15,16.88-3.7,2.47-14.2.41Z" transform="translate(-251.9 -373.08)"/><path class="cls-3" d="M414.52,583.59a8.14,8.14,0,0,1-6.19,7.66c-6.25,1.75-.31,5.5,3.09,4.75s6.53-3.81,8.34-6.15c0,0-.19,6.4,4.81,14.15,0,0,4.25,2.5,5.25-1.5a80.53,80.53,0,0,1-3.26-9.5s5,7.25,10.76,10.75c0,0,4.5,2,3.75-4.25a103.76,103.76,0,0,1-8.25-7.5s7.89,7,11.94,8.5c0,0,5.81,0,2.81-4.25,0,0-4.59-2.5-8.67-5,0,0,6.64,2.75,9.53,2,0,0,3.58-2.25-2.89-5s-5.32.21-6.64-6.2Z" transform="translate(-251.9 -373.08)"/><path class="cls-2" d="M445.55,541.67c-3.22,1.67-5.53,12.22-5.53,12.22s.31,7.45,3,13.11,1.13,10.83-4.77,11.75c-3.63.57-4.77,2.53-5.11,4,3.17.41,11,1.3,16.5.9,7-.51,8-3.4,8-3.4s4.12-9.26,1.44-13-3.09-5.76-3.09-5.76A55.32,55.32,0,0,0,454.81,549h0S448.77,540,445.55,541.67Z" transform="translate(-251.9 -373.08)"/><path class="cls-1" d="M332.07,471.07l-7.64-.69c-7.66,6.06-11.48,22.75-11.48,22.75l2.64,3.06h5.58v-3.67A6.53,6.53,0,0,1,328,491s-6.89-5-10.44-3.32c0,0,7.44-6,13.44-5,0,0-3.88-1.22-10.77-.11,0,0,6.39-4.71,11.84-4.63Z" transform="translate(-251.9 -373.08)"/><path class="cls-4" d="M426.56,497.77s.62,4.63,5.25,10.81c0,0,10.5,4.63,14.51,27.79,0,0,.62,3.7,4.32,9.57s-3.4,10.81-5.87,10.5-4.21-.38-8.64-9.26-16.36-13.58-16.36-13.58l4.94-28.09S426.56,504.25,426.56,497.77Z" transform="translate(-251.9 -373.08)"/><path class="cls-5" d="M333.12,398.38s15-1.57,23.67-1.57,15.44.41,26.76,14a113.48,113.48,0,0,1,18.94,31.7s4.12,7.62,8.44,12.14,3.7,12.35,3.7,12.35,8,9.63,2.79,16.44-59,15-81.82-2c0,0-8.76-6-13.13-14.2,0,0-11.16-6.17-20.42-8.23s-11.53-28.61-11.53-28.61L297.1,417" transform="translate(-251.9 -373.08)"/><path class="cls-6" d="M415,467s.62-7.82-3.7-12.35-8.44-12.14-8.44-12.14a113.48,113.48,0,0,0-18.94-31.7c-9.07-10.88-15.23-13.31-21.77-13.84a68.06,68.06,0,0,0-10.32,3c4.85,7.67-2.85,11.79-2.85,11.79,2-3.54,0-8.46,0-8.46-5.67,2.33-9.14,8.46-9.14,8.46l-16.53-8.16L297.49,417l-6.59,13.38s2.26,26.55,11.53,28.61A65.29,65.29,0,0,1,313,462.52c5.54,2.22,14.22,6.37,21.28,12.82a51.66,51.66,0,0,0,24.33,12.33c-13.25,0-24.33-7.76-29-11.64A50.75,50.75,0,0,0,336,481.4c22.85,17.08,76.57,8.85,81.82,2S415,467,415,467Z" transform="translate(-251.9 -373.08)"/><path class="cls-7" d="M268.49,583.59a139,139,0,0,1,4.32-14.51c2.78-7.72-3.4-47.24,4.94-72.24,0,0,1.44-16.05,2.26-27.17s-8.75-34,13.17-54.34L298,427.71S300,445.9,304,457.94c0,0-.62,24.39-3.7,41.52,0,0-9.57,37.82-15.75,59.43,0,0-2.47,7.72-1.23,24.7Z" transform="translate(-251.9 -373.08)"/><path class="cls-8" d="M300.51,499.46c3.09-17.13,3.7-41.52,3.7-41.52-4-12-5.95-30.23-5.95-30.23l-1-2.46-.19.09s-16.76,15-6.6,41.66A82.92,82.92,0,0,1,289,499.46s-2.89-1.82-2.8-8.48c0,0-.58,8-3.58,12.68s-3.33,20.33-2.33,31.67c1,11-4.65,46.17-5,48.26h8.18c-1.23-17,1.23-24.7,1.23-24.7C290.94,537.28,300.51,499.46,300.51,499.46Z" transform="translate(-251.9 -373.08)"/><path class="cls-3" d="M339,401.7a4.64,4.64,0,0,1,2.62.36c4.67,1.75,0,15.13,0,15.13s3.7,15.75,4,25.32-4,13.58-11.73,13.58-11.11-1.54-18.52-9.88c0,0-4,1.23-8.64-7.41s-14.51-13.58-13.58-23.46a17.29,17.29,0,0,0-2.47-9c-2.78-4.94-5.25-30.56,20.07-33s29,12.66,28.09,25.62" transform="translate(-251.9 -373.08)"/><path class="cls-8" d="M344.19,451l-.12-.13s-6.34,1.83-7.34-2.42,8.66-2,8.66-2l.17-7.22a193.07,193.07,0,0,0-3.81-22.14s4.67-13.38,0-15.13a4.64,4.64,0,0,0-2.62-.36L339,399c.93-13-2.78-28.09-28.09-25.62a31.63,31.63,0,0,0-5.91,1.13c4.55-.7,12.48,1.77,3,11-10.73,10.5-1.19,14.17-1.19,14.17A84.32,84.32,0,0,1,308,412.61c1.77,4.11,1,17.1,1,17.1a4.33,4.33,0,0,0,3.82-1.22,4.22,4.22,0,0,1,1.24,4.71l-3.62,7.31c3.8,1.7,9.66,0,9.66,0-.79,3.44-7.19,4.48-8.23,4.63,2.16,1.52,3.61,1.08,3.61,1.08,7.41,8.34,10.81,9.88,18.52,9.88C338.83,456.09,342.32,454.53,344.19,451Z" transform="translate(-251.9 -373.08)"/><path class="cls-3" d="M355.24,398.66s14.2-3.09,25,11.11S396,431.39,397.54,442.5c0,0,19.76,27.79,20.69,46.93,0,0,11.42,19.45,13.89,53.72,0,0,3.7,17.29,4.63,28.4l2.16,10.5-24.39,1.54s.31-6.48,5.56-9,3.09-14.51,3.09-14.51S421,545,413.59,532.65a59,59,0,0,1-8-24.7,16.68,16.68,0,0,0-6.48-12.66c-6.79-5.56-17-23.46-19.45-36.12a8.51,8.51,0,0,0-9.26-6.48s-9.28-16.09-10.81-35.2S355.24,398.66,355.24,398.66Z" transform="translate(-251.9 -373.08)"/><path class="cls-1" d="M339.86,533.66s5.19-8.41,9.52-9.85,9.06,2.47,10.7,10.91a81.82,81.82,0,0,0,7.62,21.73c2.88,5.44,8,13.88,4.94,23.35s-13.3,1.85-15.91-3.91a101.57,101.57,0,0,0-12.49-19.44C340.38,552,339.86,545,339.86,545Z" transform="translate(-251.9 -373.08)"/><path class="cls-3" d="M312.95,493.14s9.57-5.56,38.9,17c0,0-15.13,17.6-21.3,22.54,0,0,7.1.62,13.28,1.54s11.73,13.89.31,18.22c0,0-10.5-2.47-24.39,4.32s-25-1.85-26.24-6.48,0-17.91,6.48-32.42A211.52,211.52,0,0,1,312.95,493.14Z" transform="translate(-251.9 -373.08)"/><path class="cls-9" d="M338.88,399c.93-13-2.78-28.09-28.09-25.62s-22.85,28.09-20.07,33c.22.39.42.78.6,1.16-.39-2.57-.88-5.45-1.49-8.16-1.67-7.45,4.5-2.38,4.5-2.38,12,8.67,25-4,25-4,4.72-3.53,13.17-3.5,13,6.38S335,414,335,414l3.17-1.33a23.85,23.85,0,0,1,0-6.33c.1-.56.54-2.29,1.18-4.68a2.23,2.23,0,0,0-.3,0Z" transform="translate(-251.9 -373.08)"/><path d="M311.83,414s2.42-5.08,11.08-1.5C322.92,412.5,315.5,411.5,311.83,414Z" transform="translate(-251.9 -373.08)"/><path d="M317.56,412.9a1.68,1.68,0,0,0-.13-.65c-.26-.6-2.84-.6-3.1,0a1.68,1.68,0,1,0,3.23.66Z" transform="translate(-251.9 -373.08)"/><path d="M304,414s-4.74-3.58-7.74.58C296.25,414.58,298.66,412.67,304,414Z" transform="translate(-251.9 -373.08)"/><circle cx="48.42" cy="40.92" r="1.39"/><path class="cls-10" d="M314.19,425.33s2.86,1,0,3.17-5.86,2.83-7.19.67-1.83-2.17-.67-3.58a2.1,2.1,0,0,0,.42,2c.83,1.13,1.42,2.17,2.38,2.08a7.48,7.48,0,0,0,5.33-2.46S315.43,426.54,314.19,425.33Z" transform="translate(-251.9 -373.08)"/><path class="cls-10" d="M306.92,423.5a22.21,22.21,0,0,0,0-9.5S309.58,417.67,306.92,423.5Z" transform="translate(-251.9 -373.08)"/><path class="cls-11" d="M305.68,431.58s7.7,11.69,15.49-1.92C321.17,429.67,314.19,438.63,305.68,431.58Z" transform="translate(-251.9 -373.08)"/><path class="cls-12" d="M305.68,431.58s8.15,5,15.49-1.92C321.17,429.67,314.53,439.33,305.68,431.58Z" transform="translate(-251.9 -373.08)"/><path class="cls-4" d="M322.92,430.5s.48-4.87-5.55-3.75C317.37,426.75,324.25,422.37,322.92,430.5Z" transform="translate(-251.9 -373.08)"/><path class="cls-8" d="M304.46,427.91s-3.67.2-1.5,4.21C303,432.13,298.46,427.33,304.46,427.91Z" transform="translate(-251.9 -373.08)"/><path class="cls-9" d="M311.21,410.63s2.88-7.75,11.88-2.25C323.09,408.38,315.5,407.25,311.21,410.63Z" transform="translate(-251.9 -373.08)"/><path class="cls-3" d="M431.12,533.55h-6.54v2.6c3.83,2.23,9,6,11.55,11.17,4.34,8.69,6.1,8.95,8.49,9.24l.16-.13C441,545.85,431.12,533.55,431.12,533.55Z" transform="translate(-251.9 -373.08)"/><path class="cls-2" d="M360.08,534.71c-1.65-8.44-6.38-12.35-10.7-10.91a8.83,8.83,0,0,0-2.66,1.59c.09,0,7.62,3,1.63,11.77s-6.68,15-6.68,15h0s13,6.46,16.66,16.8c1.47,4.16,1.6,8.12,2.72,12.33,4.06,3.42,9.47,4.91,11.58-1.54,3.09-9.47-2.06-17.91-4.94-23.35A81.82,81.82,0,0,1,360.08,534.71Z" transform="translate(-251.9 -373.08)"/><path class="cls-9" d="M303.46,410.63s-5.12-6.12-9.12,0C294.33,410.63,297,408.88,303.46,410.63Z" transform="translate(-251.9 -373.08)"/><path class="cls-8" d="M344.13,552.54c11.42-4.32,5.87-17.29-.31-18.22s-13.28-1.54-13.28-1.54c6.17-4.94,21.3-22.54,21.3-22.54a152.12,152.12,0,0,0-12.8-8.91l-11-5.58s-11.84-3.33-19.9,5.72c-2.33,4.25-5.27,9.93-8.2,16.5a86.37,86.37,0,0,0-5.13,15c2.67-7.76,9.09-23.18,17.63-22.18,0,0-7.59,16.33-7.27,29.67a20.31,20.31,0,0,0,2.42,10.67s-5.76-1-6.76-5a65.75,65.75,0,0,0,.73,11.66c4.7,2,11.05,2.53,18.13-.93C333.63,550.07,344.13,552.54,344.13,552.54Z" transform="translate(-251.9 -373.08)"/><path class="cls-8" d="M436.75,571.55c-.93-11.11-4.63-28.4-4.63-28.4-2.47-34.27-13.89-53.72-13.89-53.72-.93-19.14-20.69-46.93-20.69-46.93-1.54-11.11-6.48-18.52-17.29-32.73s-25-11.11-25-11.11,2.8-.27,4.32,18.83,10.81,35.2,10.81,35.2a8.75,8.75,0,0,1,5.53,1.21l.13,0s4.39-3.07,8.72,3.26c0,0,1.67,2.33,8,3.67s1.49,20.65,17.33,35c0,0,3.33,1.52,2.67,8.1s4.67,22.64,11.67,38.28-1.33,40.32-1.33,40.32l.9.52,14.92-.94Z" transform="translate(-251.9 -373.08)"/><path class="cls-10" d="M340,412.61s2.17-3-.33-3.35c0,0,.08-5.76,1.83-4.51a1.72,1.72,0,0,1,.83,1.65s.75-2.32-1.33-2.74-2.25,6.42-2.25,6.42S340.92,409.72,340,412.61Z" transform="translate(-251.9 -373.08)"/><path class="cls-8" d="M445.55,588.25c-6.47-2.75-5.32.21-6.64-6.2l-15.82.42c-1.83,2.64-9.91,13.6-16.83,12.09a6.52,6.52,0,0,0,5.17,1.44c3.41-.75,6.53-3.81,8.34-6.15a38.58,38.58,0,0,0,.59,4.42c.53-2.82,3.47-6.43,3.47-6.43s-1.17,4.5,2,13.33c0,0,.55,3.76,3,3.06a3.12,3.12,0,0,0,1-1.73,80.52,80.52,0,0,1-3.26-9.5s-.74-.83-.24-3.33a63.24,63.24,0,0,0,9.4,10.33c5.44,4.67,1.6,3.75,1.6,3.75l.07,0c.56.22,4.37,1.52,3.68-4.28a103.76,103.76,0,0,1-8.25-7.5s7.89,7,11.94,8.5c0,0,5.81,0,2.81-4.25,0,0-4.59-2.5-8.67-5,0,0,6.64,2.75,9.53,2C448.44,593.25,452,591,445.55,588.25Z" transform="translate(-251.9 -373.08)"/><path class="cls-8" d="M283.53,583.59s2.3,7-3.45,9.82c0,0-1.47,7.09-4.73,8.84,0,0-5.52.61-4.27-3.32a35.72,35.72,0,0,0,3-5.52c.5-1.66-.94-4.41-5.59,2.59,0,0-4.16,4.25-9.66,4.5,0,0-8.25-.25-3-3.75,0,0-5.5-.43-3.5-3.34s14-1.93,16.16-9.82" transform="translate(-251.9 -373.08)"/><path class="cls-7" d="M268.49,583.59c-2.14,7.89-14.16,6.91-16.16,9.82s3.5,3.34,3.5,3.34a7.19,7.19,0,0,0-1.18.94c2.68,2.68,11.68-1.69,13.29-3.9a39.8,39.8,0,0,1,5.06-5.13,14.18,14.18,0,0,0,.67,2.5l-.17.34c.65.22.81,1.17.59,1.9a35.72,35.72,0,0,1-3,5.52c-.65,2.06.54,2.86,1.83,3.17-.36-.33-.86-1.12.25-2.6a14.44,14.44,0,0,0,2.18-9.83,15.87,15.87,0,0,1,0-6.07Z" transform="translate(-251.9 -373.08)"/></svg>