<svg id="Tjeerd_het_Peerd" data-name="Tjeerd het Peerd" xmlns="http://www.w3.org/2000/svg" viewBox="0 0 641.94 556.2"><defs><style>.cls-1{fill:#331f12;}.cls-2{fill:#b2884c;}.cls-3{fill:#a57e4a;}.cls-4{fill:#523315;}.cls-5{fill:#4e4d4d;}.cls-6{fill:#402514;}.cls-7{fill:#1f120e;}.cls-8{fill:#b8935e;}.cls-9{fill:#4a3b33;}.cls-10{fill:#f2f2f2;}.cls-11{fill:#2c261b;}.cls-12{fill:#05050b;}.cls-13{fill:#fff;}.cls-14{fill:#010101;}</style></defs><title>TjeerdHetPeerd</title><path class="cls-1" d="M391.7,314.94s13.46,28.26,17.5,36.34,8.75,18.84,13.46,25.57,17.5,25.57,18.84,30.28,24.23,102.42,24.9,104.3c1.35,4,1.35,1.35,3.36,6.06s-.67,7.4-4.31,11.44,1.08,12.65,6.46,12.79c4.17.13,8.48-.54,9.69-1.21,5-2.42,3.1-7.27,2.42-10.5-1.21-6.06,1.62-5.79,2.69-7.81s3.63-6.73,1.62-8.34-8.08-21.8-8.34-24.9-2.42-18.84-2.42-21.8-3.63-54.78-3.63-54.78a16.77,16.77,0,0,1,.94-8.08c1.62-4,5.11-6.33,4.31-10.5s-4-14.4-3.63-15.75,3-52.22,4.71-52.22-36.47-56.12-36.47-56.12Z"/><path class="cls-2" d="M480.79,149.8s22.61,3.36,30.69,11,38,61.24,39,83c1.08,21,15.48,102.42,19.51,110.9s.67,68.1,7.4,87.75S564,425.43,561.95,422.07s-.67,23.42,1.35,26.24a94.67,94.67,0,0,1-10.09-17.63c-3.36-8.48-7.4-17.63-11.44-32.7s-1.35,21.67-4,20.73-10.09-27.32-12.11-36.61-2.69-40.64-4.58-54c-1.08-7.94-4.17-78.46-8.88-94.48S500,185.74,494,175.91C488.73,167.16,480.79,149.8,480.79,149.8Z"/><path class="cls-3" d="M511.48,160.84c8.08,7.67,38,61.24,39,83,1.08,21,15.48,102.42,19.51,110.9s.67,68.1,7.4,87.75S564,425.43,561.95,422.07s-.67,23.42,1.35,26.24a94.67,94.67,0,0,1-10.09-17.63c-3.36-8.48-7.4-17.63-11.44-32.7s-4-56.53-5.92-69.85c-.4-2.56,8.08-38.49,3.77-63.66C530.45,213.06,506.09,155.72,511.48,160.84Z"/><path class="cls-4" d="M150.52,27.6c.94,2.29,13.05,13.46,15.75,14.4s9.82,3.1,15.75,6.73,9,8.48,11.17,11.17,15.75,13.46,17.09,16.55S222,96.24,222.79,100.68s14.8,20.19,17.9,21.94,34.05,16.15,34.05,16.15,18.84,9.42,21.13,10.77,25.17,1.35,30,0,46.7-13.46,46.7-13.46,40.78-6.33,52.89-5.79c4,.13,36.34-3.1,57.87,22.48s23.42,30,28.26,40.38c2.15,4.44,13.05,17.09,8.08,46.16s-10.63,32-15.61,46.7c-4.17,12.38-20.59,48.45-21.94,49.8s-5.79,45.36-7.13,47.11-1.75,21.53-1.75,21.53l-4,23.82s-3.63,17.09-3.63,24.63-2.69,20.19-2.69,27.86-1.75,29.21,0,31.36c1.08,1.21-8.08,6.59-6.86,14.8.54,4.17,1.08,6.33.13,8.21-.81,1.62-5.79,2.15-8.48,2.15s-13.59-5.11-13.59-7.81,7.81-8.34,7.81-8.34,3.63-5.38,3.63-9,.94-21.53.94-21.53,1.08-22.88-1.75-34.59c-.4-1.75,1.35-28.67,1.35-28.67s0-84.79-2.29-84.39S439.07,288,431.67,288s-25.17,27.19-46.43,36.34c-20.73,9-33.92,12.52-49.26,13.19s-51.68,3.36-51.68,3.36-1.35,19.25-2,26.92-1.35,25.3-1.08,26.65-.4,21.94-.4,22.61-1.35,11.17-2,12.11-.4,13.46.67,18.57,7.27,44,7.13,43.07c.4,2.42,2.69,20.05,2.69,20.86.4,5-1.35,10.5-2,10.09s-4.44,3.1-5.79,7.13,1.62,6.86,1.62,8.48c0,2-2,6.19-3.63,6.73-6.46,2.29-24.63,2.56-25.3.81s4.71-10.5,6.06-11.84,4.71-4.71,5.38-7.4a41.37,41.37,0,0,0,2-11.17c.27-6.06.4-18.84,0-21.53s-2.69-40.78-4.71-41.45-10.09-22.88-10.5-25.3-.67-22.88-1.35-24-6.46-56.26-8.75-58.95-5.11-8.75-11.17-8.75-11.84,5.11-11.84,8.08,3.36,54.51,3.36,54.51,3.36,31.36,2,33.65,2,54.91,3.1,57.6,1.48,25.44-1.08,26.92c-5.79,3.63-3.1,16.82-3.1,16.82s1.35,5.11-1.62,7.4c-2.56,2.15-16.28,4-22.34,3s-5.38-1.35-4.71-4,1.35-6.59,6.73-11.84c6.73-6.46,5.79-9.82,6.06-12.79s-1.35-20.86-1.35-25.3.4-39-2-40.78-6.73-29.74-6.06-32c2.42-8.08-7.4-42.13-8.75-42.8s-15.21-40.51-13.46-44.14c1.62-3.36-11.17-19.51-11.17-19.51s-14.13-26.92-17.5-34.32.67-68.64-2.42-70.39-12.52-49.39-12.92-48.45S150.52,27.6,150.52,27.6Z"/><path class="cls-5" d="M458.85,541.72s5.52-13.73,6.86-12.79a26.4,26.4,0,0,0,6.86,3c.81,0,5.65,2.42,6.86,3.36a54,54,0,0,0,5,3.36s-.94,2.15-8.75,4.44a23.36,23.36,0,0,1-9.56.4C464.37,543.2,458.85,541.72,458.85,541.72Z"/><path class="cls-5" d="M428.71,539.16s6.59-14.8,7.94-13.73,5.92,3.23,6.86,3.23,6.06,2.56,7.4,3.63,5.25,2.83,5.25,2.83-.81,3-9.29,5.52a24.32,24.32,0,0,1-10.23.4C434.63,540.64,428.71,539.16,428.71,539.16Z"/><path class="cls-5" d="M252.8,546.16s6.59-14.94,8.08-13.86a26.87,26.87,0,0,0,7.13,3,26.22,26.22,0,0,1,7.54,3.77c1.21,1.21,5.52,3.23,5.52,3.23s-.94,2.83-9.69,5.52a26,26,0,0,1-10.63.4C259,547.77,252.8,546.16,252.8,546.16Z"/><path class="cls-5" d="M191.84,543.87s6.86-16.28,8.34-15.07,6.86,3.5,7.81,3.5,6.73,2.83,8.08,4,6.33,3.23,6.33,3.23-1.48,3.23-10.63,5.92a27,27,0,0,1-11.31.4C198.3,545.49,191.84,543.87,191.84,543.87Z"/><path class="cls-6" d="M150.52,228.27c-4.71,5.38,11.44,29.21,13.05,36.2a32.13,32.13,0,0,1,0,10.77c-1.08,4.17-8.34,15.21-8.34,15.21l9.69,18.84s6.06-14.67,11.44-18.84c4.31-3.36,14.8-.81,20.19,0,6.73,1.08,13.59,13.32,20.19,15.07,8.08,2.15,34.32-1.75,37-9.69,5-14.8-36.61-34.72-50.2-42.13-5.38-3-7.27-6.86-10.36-12.11-1.75-3,7.27-37.41,4.31-38.76-4.71-2.15-26,35-31.22,35.4C162.76,238.49,152.81,225.57,150.52,228.27Z"/><path class="cls-1" d="M133.16,160c1.48,11.57,11.57,43.88,11.57,43.88s2.42,28.26,7.94,33.65,13.59,5.38,20.32,0,25.57-26.92,25.57-33.65,2.69-41.72,0-43.07-1.35-16.15-6.73-29.61S168,99.87,163.17,96,131.14,143.48,133.16,160Z"/><path class="cls-6" d="M431.4,288s10.23-14.54,12.38-18.44c3.1-5.79,3.77-25.3,3.77-25.3l-4-36.34s11.57,49.53,12.11,57.87A75.8,75.8,0,0,0,459.39,283c2.15,5.52,3,14.67,6.46,19.51,2.29,3.1,7.4,9.15,8.48,12.79,1.21,4.31-1.21,13.46,0,17.77.81,2.83,5.38,12.92-9,12.52s-17.9-5-18.84-13.05-4-20.46-6.06-21S431.4,288,431.4,288Z"/><path class="cls-6" d="M471.37,414.53s-7.13,2.69-10.23,3.36-10.63,0-10.63,0,1.21,13.86,0,12.79,14.94,20.32,15.34,17.5S471.37,414.53,471.37,414.53Z"/><path class="cls-6" d="M199.1,423.82S201.26,428,208,428s17-5,17-5,.13,6.86,0,7.54a5.62,5.62,0,0,0-.4,2.29c0,1.48-.13,13.05-2.15,14.4s-12.25,1.08-12.92.81-7.13-6.33-7.4-7.94S199.1,423.82,199.1,423.82Z"/><path class="cls-6" d="M252.67,427.18c5.11,2.83,10.36,3.5,12.38,3.23s14.13-2.83,14.27-3.23-.67,2.29-.67,2.56-.13,7.4-.13,7.81-1.48,11.71-4.58,11.17c-1.75-.27-5.11.67-8.88-.81-3-1.21-6.73-5.11-6.86-5.65C257.51,440.91,252.67,427.18,252.67,427.18Z"/><path class="cls-6" d="M283.49,340.24s9.29-13.73,11.57-17.5c4.44-7.4,5.52-12.92,7.54-19.65,1.35-4.31,3.77-20.19,3.77-20.19s3.36,22.61,7.4,26.38c6.46,6.06,12.11,4.44,19.78,5.65,4.58.81,1.75-.27,6.46.27,9.69,1.35,20.19,2.42,31,0s33.38-12.65,39-16.15c6.86-4.31,21.53-11.17,21.53-11.17l-16.15,12.79S402.46,314.27,400.31,316c-2.56,2-35.93,17.63-48.32,19.38s-33.11,2-33.11,2Z"/><path class="cls-6" d="M220.5,340.24s-20.59-13.32-26.92-18.44c-3-2.42-8.61-8.08-10-11.71-1.21-3.1,3.36-.81,6.73-.81,6.59,0,8.34-.13,14.13-1.88,3.23-.94,6.06-7.4,7-11.17.94-3.5,5.79-3,9-5,2.42-1.48,8.88-.81,11.71,0,4.17,1.21,11.84,2.83,16.15,3.63s12.79,1.21,17.09,1.75c5.38.81,15.07,4.71,18.44,9,2.69,3.5,6.46,13.19,4.44,17.09-1.75,3.36-5.65,9.29-9.42,8.48-5.38-1.08-14.27-11.71-19.78-12.79-3-.54-8.88,2.83-10.77,5.11-3.23,4.17-8.48,16.55-8.48,16.55s-6.46-4.85-9.42-5C227.37,335.26,220.5,340.24,220.5,340.24Z"/><path class="cls-7" d="M97.63,171.87a11.43,11.43,0,0,0,7.67,5.38c2.42.4,8.88.13,11,0,1.35-.13,5.38-1.08,7-2.69,1.35-1.35,4.44-8.75,2.83-8.34s-4.85-1.08-4.85-1.08l-23.69,3.1Z"/><path class="cls-8" d="M221,74.84s9.82,10.5,10.36,11.57,4.31,9.42,4.44,10.77S240,110.64,240,110.64s4.58,18.57,5,19.92,3,14.8,3.23,16.82,2.83,13.05,4.44,16,4.71,10.36,4.71,10.36-10.09-3-12.52-4.31-5.38-5.38-8.48-7.67-10.5-22.21-11.44-24.49S215.25,72,215.25,72Z"/><path class="cls-2" d="M190.89,50.07s14.94,6.59,19.25,10.5c2.56,2.29,7.54,7.27,9.15,10.36,1.88,3.5,3.63,11.17,4.44,15.07.94,4.31,2.42,12.79,3.1,17.09.54,3.5,1.35,10.63,1.75,14.13.67,5.52,3.1,21.26,3.1,21.94s2.69,10.9,3.63,14.54c.67,2.83,1.88,8.61,2.69,11.44.94,3.63,4.31,14.54,4.31,14.54s-11-5.11-14.13-7.13a46.29,46.29,0,0,1-9-8.75c-1.08-1.48-6.19-6.86-7-8.48-5.11-10.23-10.36-39.7-10.36-39.7l-5.38-35.93Z"/><path class="cls-3" d="M156.57,30S169.9,35.81,174.2,38c4,2,12.79,5.11,15.61,8.48,4,4.58,7.67,16.82,9.29,22.75,1.35,5,4.31,15.07,5,20.19.67,5.38.67,16.15,1.35,21.53.27,2.56.94,7.4,1.35,9.82.67,5.11,1.62,15.61,2.69,20.59a159.25,159.25,0,0,0,5,15.48c1.21,3.1,5.11,12.38,5.11,12.38S204.76,159,203.68,158s-15.21-12.79-19.38-17.9a61.3,61.3,0,0,1-8.08-13.73c-3.1-8.88-9.56-25-11.44-34.32-2.15-10.5-6.33-43.74-6.33-44.41S156.57,30,156.57,30Z"/><path class="cls-4" d="M117.14,21.54c-4.44,2.29-11.71,9.29-14.8,13.19A121.83,121.83,0,0,0,92.24,50.61c-1.62,3.1-5.25,9.15-6.06,12.65a22.77,22.77,0,0,0,0,7.4c.67,2.56,3.5,7.27,4.44,9.82a52.63,52.63,0,0,1,2,11.17c.13,3-.4,9-.4,12.11A179.18,179.18,0,0,0,94,124.63c.27,1.62,1.35,5.38.67,6.73a28.48,28.48,0,0,1-3.1,4.71,29.2,29.2,0,0,0-2,4.71c-.94,2-2.15,6.46-2,8.75a15.8,15.8,0,0,0,1.75,5.38c.94,1.48,2.83,3.5,3.77,5.11.94,1.88.27,6.46,1.08,8.48.54,1.35,2.69,2.29,4,3.1,2.29,1.08,7.27.81,9.82,1.08,1.88.13,5.65.4,7.4,0s5.25.81,6.73-.4a32.76,32.76,0,0,0,4.44-5.11c.94-1.35,2.56-4.31,3.5-5.79.81-1.21,3.1-3.36,3.5-4.71.67-1.88.13-5.79,0-7.81a15.83,15.83,0,0,1,1.35-4c1.08-2.29,4.71-4.85,6.46-6.73,1.88-2.15,3.77-7.81,5.38-10.09,2-2.69,7.94-6.46,10.09-9.15,2.83-3.5,6.59-11.84,7.81-16.15a85.52,85.52,0,0,0,2-15.48c0-4.44-.67-13.46-1.75-17.9a140.67,140.67,0,0,0-4.71-14.54c-1.48-3.63-4.85-10.77-6.06-14.54-1.35-3-1.75-10-3.63-12.65-1.62-2.29-6.46-5.25-9.15-6.06a63.7,63.7,0,0,0-15.21-2C123.87,19.66,119.16,20.47,117.14,21.54Z"/><path class="cls-6" d="M134.1,141.46s2.69-12,4.44-14.94c.94-1.62.67-10.77,2.29-11.71s8.48-4,10.09-7,5-6.19,5.52-8.88,2.83-6.59,4.17-12.52,5.11-7.4,5.11-7.4.81,16.42.4,18.84-6.19,15.88-9.82,20.86c-2,2.83-10.09,9.15-10.09,9.15s-3,6.46-4.17,8.21a92.91,92.91,0,0,1-6.33,7.27l-1.62-1.88"/><path class="cls-6" d="M90.63,53.57s14.67-3,16.42-3.77c5.25-2.42,25-10.9,25-13.19s-4.17-9-4.17-9L106.78,37,94.13,47.11Z"/><path class="cls-9" d="M91.57,135.94a29.2,29.2,0,0,0-2,4.71c-.94,2-2.15,6.46-2,8.75a15.8,15.8,0,0,0,1.75,5.38c.94,1.48,2.83,3.5,3.77,5.11.94,1.88.27,6.46,1.08,8.48.54,1.35,2.69,2.29,4,3.1a40.38,40.38,0,0,0,9.82,2.42c1.88.13,5.65.4,7.4,0s5.25-.54,6.73-1.75,4.71-3.63,5.79-5.11,2.56-4.31,3.5-5.79a21.21,21.21,0,0,0,2.15-4.71,25.7,25.7,0,0,0,1.35-7.81,26.27,26.27,0,0,1,1.35-5.38c.27-.67-4.31-3.5-9.42-3.77-5.38-.4-15.61,6.19-19.11,1.35C104,135.94,91.84,135.54,91.57,135.94Z"/><path class="cls-6" d="M90.76,70.53s3.9.27,5.11,3.5,1.88,6.59,1.48,12.25-5,13.59-5,13.59a113.87,113.87,0,0,0-.13-11.44c-.4-3-3.1-10.9-3.1-10.9Z"/><path class="cls-6" d="M151.33,69.86A12.16,12.16,0,0,0,141,73.22c-1.35,1.35-.94,6.19,0,8.08s4.17,7.4,3.5,8.08,5.65-3.36,6.59-5.11,1.62-3.63,0-4.58c-1.35-.81-3.9-1.21-5.92-2.15S151.33,69.86,151.33,69.86Z"/><path class="cls-10" d="M116.47,54.92A93,93,0,0,1,111.76,68c-2.69,5.65,0,12.38,2.42,24.49s7.4-1.08,11.31-6.59S119.43,47.52,119.43,45,116.47,54.92,116.47,54.92Z"/><path class="cls-11" d="M101.66,171.34c1.08-.54,2.42-3,3.1-4,.81-1.48.27-3.77,1.35-5.11.94-1.08.94-4.31,1.75-5.52.81-1.48-.13-9.82,3-10.77s3.63,1.48,6.33,5a6.69,6.69,0,0,1,1.48,5.92s-1.75,1.21-1.88,5.38c-.13,3.1-1.08,2.15-.13,4.58.67,1.48,1.62,3.77,2,4.71s3.63.13,3.1.81c-.94,1.21-8.48,1.75-11.17,1.75s-8.75-.27-10.9-2C99.11,171.47,101.12,171.47,101.66,171.34Z"/><path class="cls-7" d="M94.93,140.38S91.7,144,92.51,146s1.21,5.65,2.42,7.13,6.06-2,4.17-3.36-.67-6.59-.94-7.54a29.45,29.45,0,0,0-2.15-3.9Z"/><path class="cls-7" d="M125.89,143.21s3.23,3.77,2.56,5.79-.54,5-2.56,7.27c-1.21,1.48-6.33-2-4.31-3.5s.81-6.86.94-7.81a33.11,33.11,0,0,1,2.15-4Z"/><path class="cls-1" d="M149.31,39.58s-4.85-3.9-6.59-8.21,2-15.75,2-15.75,4.71-8.08,5.79-10.5c.27-.67.67-5.38,2-5.38S156,2.3,156,2.3a103.89,103.89,0,0,1,6.06,9.82c.67,1.21,1.88,11.44.4,14.27s-3.77,9.29-5.52,11.17S149.31,39.58,149.31,39.58Z"/><path class="cls-1" d="M113.24,25.44c-7.13-7.27-8.34-12.25-10.77-16-2-3.1-3.1-9.15-4.71-9.42s-7.13,6.19-7.4,7.67c-.81,3.36-.13,11.44,0,13.86a33.22,33.22,0,0,0,1.35,6.59c.4.94,7.94,11.57,8.75,10.5"/><path class="cls-12" d="M92.24,72.68c0,2.56-.13,4.71-1.88,4.71S87,75,85.78,72.68c-.81-1.62,0-4.71,0-4.71S92.24,70.13,92.24,72.68Z"/><ellipse class="cls-13" cx="87.67" cy="70.53" rx="1.75" ry="0.67"/><path class="cls-14" d="M143.92,77.4s-.67-4.17,2.15-5.92,6.59-.81,6.59-.81,1.21,3.1,0,4.71S143.92,77.4,143.92,77.4Z"/><ellipse class="cls-13" cx="150.92" cy="71.88" rx="1.75" ry="0.67"/><path class="cls-8" d="M126,19.25s-8.21.13-11.44,2.15S95.74,41.19,93.86,43.08s-9.42,9.29-9.42,9.29,19-6.33,21-7.13,15.21-6.19,19.25-9.69S135.58,23.43,134.77,21C133.69,18.58,126,19.25,126,19.25Z"/><path class="cls-2" d="M142.71,21.54,136,20.33a8.89,8.89,0,0,0-3.36.27S127.1,26.79,128,31c1.35,5.65,21.4,20.05,25.57,23s9.82,7.4,9.82,7.4l-3-8.48s-2.83-8.75-7.94-12c-2-1.35-10.09-13.32-10.23-13.32S142.71,21.54,142.71,21.54Z"/></svg>