<?xml version="1.0" encoding="utf-8"?>
<!-- Generator: Adobe Illustrator 18.0.0, SVG Export Plug-In . SVG Version: 6.00 Build 0)  -->
<!DOCTYPE svg PUBLIC "-//W3C//DTD SVG 1.1//EN" "http://www.w3.org/Graphics/SVG/1.1/DTD/svg11.dtd">
<svg version="1.1" id="Layer_1" xmlns="http://www.w3.org/2000/svg" xmlns:xlink="http://www.w3.org/1999/xlink" x="0px" y="0px"
	 viewBox="0 0 402.3 467" enable-background="new 0 0 402.3 467" xml:space="preserve">
<path fill="#341E0E" d="M245.5,291.5c0,0,10,21,13,27s6.5,14,10,19s13,19,14,22.5s18,76.1,18.5,77.5c1,3,1,1,2.5,4.5
	s-0.5,5.5-3.2,8.5c-2.7,3,0.8,9.4,4.8,9.5c3.1,0.1,6.3-0.4,7.2-0.9c3.7-1.8,2.3-5.4,1.8-7.8c-0.9-4.5,1.2-4.3,2-5.8
	c0.8-1.5,2.7-5,1.2-6.2c-1.5-1.2-6-16.2-6.2-18.5c-0.2-2.3-1.8-14-1.8-16.2c0-2.2-2.7-40.7-2.7-40.7s-0.5-3,0.7-6
	c1.2-3,3.8-4.7,3.2-7.8c-0.7-3.2-3-10.7-2.7-11.7c0.3-1,2.2-38.8,3.5-38.8c1.3,0-27.1-41.7-27.1-41.7L245.5,291.5z"/>
<path fill="#B1874D" d="M311.7,168.8c0,0,16.8,2.5,22.8,8.2s28.2,45.5,29,61.7c0.8,15.6,11.5,76.1,14.5,82.4s0.5,50.6,5.5,65.2
	c5,14.6-10-12.7-11.5-15.2s-0.5,17.4,1,19.5s-4.6-5.9-7.5-13.1c-2.5-6.3-5.5-13.1-8.5-24.3s-1,16.1-3,15.4c-2-0.6-7.5-20.3-9-27.2
	s-2-30.2-3.4-40.1c-0.8-5.9-3.1-58.3-6.6-70.2s-9-35.6-13.5-42.9C317.6,181.7,311.7,168.8,311.7,168.8z"/>
<path fill="#A57D49" d="M334.5,177c6,5.7,28.2,45.5,29,61.7c0.8,15.6,11.5,76.1,14.5,82.4s0.5,50.6,5.5,65.2
	c5,14.6-10-12.7-11.5-15.2s-0.5,17.4,1,19.5s-4.6-5.9-7.5-13.1c-2.5-6.3-5.5-13.1-8.5-24.3s-3-42-4.4-51.9c-0.3-1.9,6-28.6,2.8-47.3
	C348.6,215.8,330.5,173.2,334.5,177z"/>
<path fill="#523212" d="M66.3,78C67,79.7,76,88,78,88.7c2,0.7,7.3,2.3,11.7,5c4.3,2.7,6.7,6.3,8.3,8.3s11.7,10,12.7,12.3
	c1,2.3,8.7,14.7,9.3,18c0.7,3.3,11,15,13.3,16.3c2.3,1.3,25.3,12,25.3,12s14,7,15.7,8c1.7,1,18.7,1,22.3,0c3.7-1,34.7-10,34.7-10
	s30.3-4.7,39.3-4.3c3,0.1,27-2.3,43,16.7s17.4,22.3,21,30c1.6,3.3,9.7,12.7,6,34.3C337,257,332.7,259.1,329,270
	c-3.1,9.2-15.3,36-16.3,37s-4.3,33.7-5.3,35s-1.3,16-1.3,16l-3,17.7c0,0-2.7,12.7-2.7,18.3s-2,15-2,20.7c0,5.7-1.3,21.7,0,23.3
	c0.8,0.9-6,4.9-5.1,11c0.4,3.1,0.8,4.7,0.1,6.1c-0.6,1.2-4.3,1.6-6.3,1.6s-10.1-3.8-10.1-5.8s5.8-6.2,5.8-6.2s2.7-4,2.7-6.7
	s0.7-16,0.7-16s0.8-17-1.3-25.7c-0.3-1.3,1-21.3,1-21.3s0-63-1.7-62.7c-1.7,0.3-3.5-40.8-9-40.8s-18.7,20.2-34.5,27
	c-15.4,6.7-25.2,9.3-36.6,9.8s-38.4,2.5-38.4,2.5s-1,14.3-1.5,20s-1,18.8-0.8,19.8s-0.3,16.3-0.3,16.8s-1,8.3-1.5,9
	s-0.3,10,0.5,13.8s5.4,32.7,5.3,32c0.3,1.8,2,14.9,2,15.5c0.3,3.7-1,7.8-1.5,7.5s-3.3,2.3-4.3,5.3s1.2,5.1,1.2,6.3
	c0,1.5-1.5,4.6-2.7,5c-4.8,1.7-18.3,1.9-18.8,0.6s3.5-7.8,4.5-8.8s3.5-3.5,4-5.5s1.3-3.8,1.5-8.3s0.3-14,0-16s-2-30.3-3.5-30.8
	s-7.5-17-7.8-18.8s-0.5-17-1-17.8s-4.8-41.8-6.5-43.8s-3.8-6.5-8.3-6.5s-8.8,3.8-8.8,6s2.5,40.5,2.5,40.5s2.5,23.3,1.5,25
	s1.5,40.8,2.3,42.8s1.1,18.9-0.8,20c-4.3,2.7-2.3,12.5-2.3,12.5s1,3.8-1.2,5.5c-1.9,1.6-12.1,3-16.6,2.2s-4-1-3.5-3s1-4.9,5-8.8
	c5-4.8,4.3-7.3,4.5-9.5s-1-15.5-1-18.8s0.3-29-1.5-30.3s-5-22.1-4.5-23.8c1.8-6-5.5-31.3-6.5-31.8S84,304.5,85.3,301.8
	c1.2-2.5-8.3-14.5-8.3-14.5s-10.5-20-13-25.5s0.5-51-1.8-52.3s-9.3-36.7-9.6-36S66.3,78,66.3,78z"/>
<path fill="#4D4D4D" d="M295.4,460c0,0,4.1-10.2,5.1-9.5c0.9,0.7,4.5,2.2,5.1,2.2c0.6,0,4.2,1.8,5.1,2.5c0.9,0.8,3.7,2.5,3.7,2.5
	s-0.7,1.6-6.5,3.3c-0.6,0.2-3.9,0.9-7.1,0.3C299.5,461.1,295.4,460,295.4,460z"/>
<path fill="#4D4D4D" d="M273,458.1c0,0,4.9-11,5.9-10.2s4.4,2.4,5.1,2.4c0.6,0,4.5,1.9,5.5,2.7c0.9,0.9,3.9,2.1,3.9,2.1
	s-0.6,2.2-6.9,4.1c-0.7,0.2-4.2,1-7.6,0.3C277.4,459.2,273,458.1,273,458.1z"/>
<path fill="#4D4D4D" d="M142.3,463.3c0,0,4.9-11.1,6-10.3s4.7,2.2,5.3,2.2s4.7,1.9,5.6,2.8s4.1,2.4,4.1,2.4s-0.7,2.1-7.2,4.1
	c-0.7,0.2-4.3,1-7.9,0.3C146.9,464.5,142.3,463.3,142.3,463.3z"/>
<path fill="#4D4D4D" d="M97,461.6c0,0,5.1-12.1,6.2-11.2c1.1,0.9,5.1,2.6,5.8,2.6c0.7,0,5,2.1,6,3c1,0.9,4.7,2.4,4.7,2.4
	s-1.1,2.4-7.9,4.4c-0.8,0.2-4.6,1.1-8.4,0.3C101.8,462.8,97,461.6,97,461.6z"/>
<path fill="#40230E" d="M66.3,227.1c-3.5,4,8.5,21.7,9.7,26.9c0.4,1.9,0.5,6.1,0,8c-0.8,3.1-6.2,11.3-6.2,11.3l7.2,14
	c0,0,4.5-10.9,8.5-14c3.2-2.5,11-0.6,15,0c5,0.8,10.1,9.9,15,11.2c6,1.6,25.5-1.3,27.5-7.2c3.7-11-27.2-25.8-37.3-31.3
	c-4-2.2-5.4-5.1-7.7-9c-1.3-2.2,5.4-27.8,3.2-28.8c-3.5-1.6-19.3,26-23.2,26.3C75.4,234.7,68,225.1,66.3,227.1z"/>
<path fill="#341E0E" d="M53.4,176.4C54.5,185,62,209,62,209s1.8,21,5.9,25s10.1,4,15.1,0s19-20,19-25s2-31,0-32s-1-12-5-22
	s-17.7-23.3-21.3-26.2C72,126,51.9,164.1,53.4,176.4z"/>
<path fill="#40230E" d="M275,271.5c0,0,7.6-10.8,9.2-13.7c2.3-4.3,2.8-18.8,2.8-18.8l-3-27c0,0,8.6,36.8,9,43
	c0.2,3.2,1.6,9.8,2.8,12.8c1.6,4.1,2.2,10.9,4.8,14.5c1.7,2.3,5.5,6.8,6.3,9.5c0.9,3.2-0.9,10,0,13.2c0.6,2.1,4,9.6-6.7,9.3
	c-10.7-0.3-13.3-3.7-14-9.7c-0.7-6-3-15.2-4.5-15.6C280.3,288.7,275,271.5,275,271.5z"/>
<path fill="#40230E" d="M304.7,365.5c0,0-5.3,2-7.6,2.5s-7.9,0-7.9,0s0.9,10.3,0,9.5s11.1,15.1,11.4,13
	C300.8,388.4,304.7,365.5,304.7,365.5z"/>
<path fill="#40230E" d="M102.4,372.4c0,0,1.6,3.1,6.6,3.1s12.6-3.7,12.6-3.7s0.1,5.1,0,5.6c-0.1,0.4-0.3,0.6-0.3,1.7
	s-0.1,9.7-1.6,10.7s-9.1,0.8-9.6,0.6c-0.6-0.3-5.3-4.7-5.5-5.9C104.3,383.4,102.4,372.4,102.4,372.4z"/>
<path fill="#40230E" d="M142.2,374.9c3.8,2.1,7.7,2.6,9.2,2.4c1.5-0.2,10.5-2.1,10.6-2.4s-0.5,1.7-0.5,1.9c0,0.2-0.1,5.5-0.1,5.8
	c0,0.3-1.1,8.7-3.4,8.3c-1.3-0.2-3.8,0.5-6.6-0.6c-2.2-0.9-5-3.8-5.1-4.2C145.8,385.1,142.2,374.9,142.2,374.9z"/>
<path fill="#331608" d="M190.3,392.2"/>
<path fill="#40230E" d="M165.1,310.3c0,0,6.9-10.2,8.6-13c3.3-5.5,4.1-9.6,5.6-14.6c1-3.2,2.8-15,2.8-15s2.5,16.8,5.5,19.6
	c4.8,4.5,9,3.3,14.7,4.2c3.4,0.6,1.3-0.2,4.8,0.2c7.2,1,15,1.8,23,0s24.8-9.4,29-12c5.1-3.2,16-8.3,16-8.3l-12,9.5
	c0,0-9.6,10.1-11.2,11.4c-1.9,1.5-26.7,13.1-35.9,14.4c-9.2,1.3-24.6,1.5-24.6,1.5L165.1,310.3z"/>
<path fill="#40230E" d="M118.3,310.3c0,0-15.3-9.9-20-13.7c-2.2-1.8-6.4-6-7.4-8.7c-0.9-2.3,2.5-0.6,5-0.6c4.9,0,6.2-0.1,10.5-1.4
	c2.4-0.7,4.5-5.5,5.2-8.3c0.7-2.6,4.3-2.2,6.7-3.7c1.8-1.1,6.6-0.6,8.7,0c3.1,0.9,8.8,2.1,12,2.7c3.1,0.6,9.5,0.9,12.7,1.3
	c4,0.6,11.2,3.5,13.7,6.7c2,2.6,4.8,9.8,3.3,12.7c-1.3,2.5-4.2,6.9-7,6.3c-4-0.8-10.6-8.7-14.7-9.5c-2.2-0.4-6.6,2.1-8,3.8
	c-2.4,3.1-6.3,12.3-6.3,12.3s-4.8-3.6-7-3.7C123.4,306.6,118.3,310.3,118.3,310.3z"/>
<path fill="#1F120D" d="M27,185.2c1.3,2.3,3.8,3.7,5.7,4c1.8,0.3,6.6,0.1,8.2,0c1-0.1,4-0.8,5.2-2c1-1,3.3-6.5,2.1-6.2
	c-1.1,0.3-3.6-0.8-3.6-0.8L27,182.5V185.2z"/>
<path fill="#B7925E" d="M118.7,113.1c0,0,7.3,7.8,7.7,8.6c0.3,0.8,3.2,7,3.3,8c0.2,1,3.1,10,3.1,10s3.4,13.8,3.7,14.8
	s2.2,11,2.4,12.5c0.2,1.4,2.1,9.7,3.3,11.9c1.2,2.2,3.5,7.7,3.5,7.7s-7.5-2.2-9.3-3.2c-1.8-1-4-4-6.3-5.7
	c-2.3-1.7-7.8-16.5-8.5-18.2s-7.2-48.5-7.2-48.5L118.7,113.1z"/>
<path fill="#B1874D" d="M96.3,94.7c0,0,11.1,4.9,14.3,7.8c1.9,1.7,5.6,5.4,6.8,7.7c1.4,2.6,2.7,8.3,3.3,11.2
	c0.7,3.2,1.8,9.5,2.3,12.7c0.4,2.6,1,7.9,1.3,10.5c0.5,4.1,2.3,15.8,2.3,16.3s2,8.1,2.7,10.8c0.5,2.1,1.4,6.4,2,8.5
	c0.7,2.7,3.2,10.8,3.2,10.8s-8.2-3.8-10.5-5.3c-2.1-1.4-5.2-4.5-6.7-6.5c-0.8-1.1-4.6-5.1-5.2-6.3c-3.8-7.6-7.7-29.5-7.7-29.5
	l-4-26.7L96.3,94.7z"/>
<path fill="#A57D49" d="M70.8,79.8c0,0,9.9,4.3,13.1,5.9c3,1.5,9.5,3.8,11.6,6.3c3,3.4,5.7,12.5,6.9,16.9c1,3.7,3.2,11.2,3.7,15
	c0.5,4,0.5,12,1,16c0.2,1.9,0.7,5.5,1,7.3c0.5,3.8,1.2,11.6,2,15.3c0.7,2.9,2.6,8.7,3.7,11.5c0.9,2.3,3.8,9.2,3.8,9.2
	s-11-7.6-11.8-8.3c-0.8-0.7-11.3-9.5-14.4-13.3c-1.9-2.3-5-7.4-6-10.2c-2.3-6.6-7.1-18.6-8.5-25.5c-1.6-7.8-4.7-32.5-4.7-33
	S70.8,79.8,70.8,79.8z"/>
<path fill="#523212" d="M41.5,73.5c-3.3,1.7-8.7,6.9-11,9.8C28.3,86,24.6,92,23,95.1c-1.2,2.3-3.9,6.8-4.5,9.4
	c-0.3,1.3-0.3,4.2,0,5.5c0.5,1.9,2.6,5.4,3.3,7.3c0.7,2,1.4,6.2,1.5,8.3c0.1,2.2-0.3,6.7-0.3,9c0.1,3.9,0.6,11.7,1.3,15.5
	c0.2,1.2,1,4,0.5,5s-1.6,2.7-2.3,3.5c-0.6,0.9-1.1,2.5-1.5,3.5c-0.7,1.5-1.6,4.8-1.5,6.5c0.1,1,0.7,3.1,1.3,4
	c0.7,1.1,2.1,2.6,2.8,3.8c0.7,1.4,0.2,4.8,0.8,6.3c0.4,1,2,1.7,3,2.3c1.7,0.8,5.4,0.6,7.3,0.8c1.4,0.1,4.2,0.3,5.5,0
	c1.3-0.3,3.9,0.6,5-0.3c1-0.8,2.5-2.7,3.3-3.8c0.7-1,1.9-3.2,2.6-4.3c0.6-0.9,2.3-2.5,2.6-3.5c0.5-1.4,0.1-4.3,0-5.8
	c0-0.7,0.7-2.3,1-3c0.8-1.7,3.5-3.6,4.8-5c1.4-1.6,2.8-5.8,4-7.5c1.5-2,5.9-4.8,7.5-6.8c2.1-2.6,4.9-8.8,5.8-12
	c0.7-2.8,1.5-8.6,1.5-11.5c0-3.3-0.5-10-1.3-13.3c-0.6-2.8-2.5-8.1-3.5-10.8c-1.1-2.7-3.6-8-4.5-10.8C68,85.2,67.7,80,66.3,78
	c-1.2-1.7-4.8-3.9-6.8-4.5c-2.7-0.8-8.4-1.6-11.3-1.5C46.5,72.1,43,72.7,41.5,73.5z"/>
<path fill="#40230E" d="M54.1,162.6c0,0,2-8.9,3.3-11.1c0.7-1.2,0.5-8,1.7-8.7c1.1-0.6,6.3-3,7.5-5.2s3.7-4.6,4.1-6.6
	s2.1-4.9,3.1-9.3s3.8-5.5,3.8-5.5s0.6,12.2,0.3,14s-4.6,11.8-7.3,15.5c-1.5,2.1-7.5,6.8-7.5,6.8s-2.2,4.8-3.1,6.1
	c-0.9,1.4-4.7,5.4-4.7,5.4L54.1,162.6"/>
<path fill="#40230E" d="M21.8,97.3c0,0,10.9-2.2,12.2-2.8c3.9-1.8,18.6-8.1,18.6-9.8c0-1.7-3.1-6.7-3.1-6.7l-15.7,7l-9.4,7.5
	L21.8,97.3z"/>
<path fill="#493B32" d="M22.5,158.5c-0.6,0.9-1.1,2.5-1.5,3.5c-0.7,1.5-1.6,4.8-1.5,6.5c0.1,1,0.7,3.1,1.3,4
	c0.7,1.1,2.1,2.6,2.8,3.8c0.7,1.4,0.2,4.8,0.8,6.3c0.4,1,2,1.7,3,2.3c1.7,0.8,5.4,1.6,7.3,1.8c1.4,0.1,4.2,0.3,5.5,0
	c1.3-0.3,3.9-0.4,5-1.3c1-0.8,3.5-2.7,4.3-3.8c0.7-1,1.9-3.2,2.6-4.3c0.6-0.9,1.3-2.5,1.6-3.5c0.5-1.4,1.1-4.3,1-5.8
	c0-0.7,0.7-3.3,1-4c0.2-0.5-3.2-2.6-7-2.8c-4-0.3-11.6,4.6-14.2,1C31.7,158.5,22.7,158.2,22.5,158.5z"/>
<path fill="#40230E" d="M21.9,109.9c0,0,2.9,0.2,3.8,2.6c0.9,2.4,1.4,4.9,1.1,9.1c-0.3,4.2-3.7,10.1-3.7,10.1s0.2-6.3-0.1-8.5
	s-2.3-8.1-2.3-8.1L21.9,109.9z"/>
<path fill="#40230E" d="M66.9,109.4c-4.2-0.5-6.7,1.5-7.7,2.5s-0.7,4.6,0,6c0.7,1.3,3.1,5.5,2.6,6c-0.6,0.5,4.2-2.5,4.9-3.8
	s1.2-2.7,0-3.4c-1-0.6-2.9-0.9-4.4-1.6S66.9,109.4,66.9,109.4z"/>
<path fill="#F2F2F2" d="M41,98.3c0,0-1.5,5.5-3.5,9.7s0,9.2,1.8,18.2s5.5-0.8,8.4-4.9c2.9-4.1-4.5-28.5-4.5-30.4
	C43.1,89.1,41,98.3,41,98.3z"/>
<path fill="#2C261B" d="M30,184.8c0.8-0.4,1.8-2.2,2.3-3c0.6-1.1,0.2-2.8,1-3.8c0.7-0.8,0.7-3.2,1.3-4.1c0.6-1.1-0.1-7.3,2.2-8
	c2.2-0.8,2.7,1.1,4.7,3.7c1.8,2.3,1.1,4.4,1.1,4.4s-1.3,0.9-1.4,4c-0.1,2.3-0.8,1.6-0.1,3.4c0.5,1.1,1.2,2.8,1.5,3.5
	c0.3,0.7,2.7,0.1,2.3,0.6c-0.7,0.9-6.3,1.3-8.3,1.3c-1.9,0-6.5-0.2-8.1-1.5C28.1,184.9,29.6,184.9,30,184.8z"/>
<path fill="#1F120D" d="M25,161.8c0,0-2.4,2.7-1.8,4.2c0.5,1.5,0.9,4.2,1.8,5.3c0.9,1.1,4.5-1.5,3.1-2.5s-0.5-4.9-0.7-5.6
	s-1.6-2.9-1.6-2.9L25,161.8z"/>
<path fill="#1F120D" d="M48,163.9c0,0,2.4,2.8,1.9,4.3c-0.6,1.6-0.4,3.7-1.9,5.4c-0.9,1.1-4.7-1.5-3.2-2.6c1.5-1.1,0.6-5.1,0.7-5.8
	c0.2-0.7,1.6-3,1.6-3L48,163.9z"/>
<path fill="#341E0E" d="M65.4,86.9c0,0-3.6-2.9-4.9-6.1S62,69.1,62,69.1s3.5-6,4.3-7.8c0.2-0.5,0.5-4,1.5-4c1,0,2.6,1.9,2.6,1.9
	s2.8,4,4.5,7.3c0.5,0.9,1.4,8.5,0.3,10.6s-2.8,6.9-4.1,8.3S65.4,86.9,65.4,86.9z"/>
<path fill="#341E0E" d="M38.6,76.4c-5.3-5.4-6.2-9.1-8-11.9c-1.5-2.3-2.3-6.8-3.5-7s-5.3,4.6-5.5,5.7c-0.6,2.5-0.1,8.5,0,10.3
	c0.2,2.2,0.8,4.3,1,4.9c0.3,0.7,5.9,8.6,6.5,7.8"/>
<path fill="#00000F" d="M23,111.5c0,1.9-0.1,3.5-1.4,3.5c-1.3,0-2.5-1.8-3.4-3.5c-0.6-1.2,0-3.5,0-3.5S23,109.6,23,111.5z"/>
<ellipse fill="#FFFFFF" cx="19.6" cy="109.9" rx="1.3" ry="0.5"/>
<path d="M61.4,115c0,0-0.5-3.1,1.6-4.4c2.1-1.2,4.9-0.6,4.9-0.6s0.9,2.3,0,3.5C66.9,114.8,61.4,115,61.4,115z"/>
<ellipse fill="#FFFFFF" cx="66.6" cy="110.9" rx="1.3" ry="0.5"/>
<path fill="#B7925E" d="M48.1,71.8c0,0-6.1,0.1-8.5,1.6c-2.4,1.5-14,14.7-15.4,16.1c-1.4,1.4-7,6.9-7,6.9s14.1-4.7,15.6-5.3
	c1.5-0.6,11.3-4.6,14.3-7.2c3-2.6,8.1-9,7.5-10.8C53.8,71.3,48.1,71.8,48.1,71.8z"/>
<path fill="#B1874D" d="M60.5,73.5c0,0-3.9-0.7-5-0.9S53,72.8,53,72.8s-4.1,4.6-3.4,7.7c1,4.2,15.9,14.9,19,17.1
	c3.1,2.2,7.3,5.5,7.3,5.5l-2.2-6.3c0,0-2.1-6.5-5.9-8.9c-1.5-1-7.5-9.9-7.6-9.9C60,78,60.5,73.5,60.5,73.5z"/>
</svg>
