<svg id="Laag_22" data-name="Laag 22" xmlns="http://www.w3.org/2000/svg" viewBox="0 0 641.94 556.2"><defs><style>.cls-1{fill:#939fae;}.cls-2{fill:#65787f;}.cls-3{fill:#242e29;}.cls-4{fill:#515c60;}.cls-5{fill:#a2aab5;}.cls-6{fill:#6f99d0;}.cls-7{fill:#a0c4d7;}.cls-8{fill:#6d7ebd;}.cls-9{fill:#afb9da;}.cls-10{fill:#e7e6e6;}.cls-11{fill:#afccec;}</style></defs><title>Pingpongtafel</title><polygon class="cls-1" points="178.48 339.57 187.98 339.57 191.58 418.97 182.58 418.97 178.48 339.57"/><polygon class="cls-1" points="201.38 339.57 203.28 371.77 208.28 371.77 207.98 339.57 201.38 339.57"/><polygon class="cls-1" points="395.28 370.57 396.28 338.37 402.38 338.37 400.98 370.57 395.28 370.57"/><polygon class="cls-1" points="437.28 338.37 431.08 414.57 437.58 414.57 443.58 338.37 437.28 338.37"/><polyline class="cls-2" points="178.48 340.27 179.08 350.67 188.58 351.27 188.08 340.17 178.48 340.27"/><path class="cls-2" d="M208.28,339.87s-2.6,4.2-3.4,5.9-2.7,7-2.7,7l-.8-13.2Z"/><path class="cls-2" d="M396.38,339.07l-.3,9.5s5.7,4.2,5.7,4.9.6-14.4.6-14.4h-6"/><path class="cls-2" d="M435.68,338.37h8.4l-1.3,11s-2-5-2.9-6.6c-.6-1.1-2.9-4.4-2.9-4.4"/><polygon class="cls-2" points="431.08 414.57 428.68 410.87 434.68 338.37 437.28 338.37 431.08 414.57"/><polygon class="cls-2" points="191.58 418.67 192.18 415.57 188.98 339.57 187.98 339.57 191.58 418.67"/><polygon class="cls-2" points="208.28 371.77 210.08 368.57 209.28 339.57 207.98 339.57 208.28 371.77"/><polygon class="cls-2" points="395.38 370.57 393.78 367.17 394.78 338.37 396.38 338.37 395.38 370.57"/><polyline class="cls-3" points="190.68 398.67 191.58 396.67 430.18 393.27 430.78 395.17 190.68 398.67"/><polygon class="cls-3" points="430.08 396.17 430.28 391.07 397.88 357.47 397.98 363.07 430.08 396.17"/><polygon class="cls-3" points="209.38 356.47 394.58 355.27 394.48 356.67 209.38 358.07 209.38 356.47"/><polygon class="cls-4" points="189.98 385.17 202.58 359.97 206.58 360.07 190.28 392.47 189.98 385.17"/><polygon class="cls-4" points="190.68 398.67 430.78 395.17 430.28 402.17 190.98 406.57 190.68 398.67"/><polygon class="cls-4" points="401.58 357.47 430.68 387.07 430.28 391.07 397.88 357.47 401.58 357.47"/><polygon class="cls-4" points="209.38 358.07 394.48 356.67 394.38 362.07 209.38 363.07 209.38 358.07"/><polygon class="cls-3" points="206.58 360.07 206.38 364.57 190.68 398.67 190.28 392.27 206.58 360.07"/><polyline class="cls-5" points="116.58 326.47 116.58 340.57 503.58 338.47 503.58 325.67 116.58 327.27"/><polygon class="cls-6" points="116.58 327.27 167.78 291.97 430.98 291.97 503.58 325.67 116.58 327.27"/><polygon class="cls-7" points="116.68 327.27 167.78 291.97 171.38 291.97 120.88 327.17 116.68 327.27"/><polygon class="cls-8" points="301.18 293.17 305.88 293.17 320.78 322.87 316.68 324.37 301.18 293.17"/><polygon class="cls-8" points="116.58 327.27 125.38 324.07 499.88 323.97 503.58 325.67 116.58 327.27"/><rect class="cls-9" x="301.18" y="277.67" width="3.6" height="14.3"/><polygon class="cls-10" points="302.58 291.07 318.58 325.77 318.58 305.07 302.58 277.97 302.58 291.07"/><rect class="cls-11" x="316.58" y="305.07" width="4.8" height="21.4"/></svg>