<?xml version="1.0" encoding="utf-8"?>
<!-- Generator: Adobe Illustrator 18.0.0, SVG Export Plug-In . SVG Version: 6.00 Build 0)  -->
<!DOCTYPE svg PUBLIC "-//W3C//DTD SVG 1.1//EN" "http://www.w3.org/Graphics/SVG/1.1/DTD/svg11.dtd">
<svg version="1.1" id="Laag_1" xmlns="http://www.w3.org/2000/svg" xmlns:xlink="http://www.w3.org/1999/xlink" x="0px" y="0px"
	 viewBox="0 0 402.3 467" enable-background="new 0 0 402.3 467" xml:space="preserve">
<title>volleybalster met bal</title>
<polygon fill="#929EAE" points="69.9,386.9 79.4,386.9 83,466.7 74,466.7 "/>
<polygon fill="#929EAE" points="92.8,386.9 94.7,419.1 99.7,419.1 99.4,386.9 "/>
<polygon fill="#929EAE" points="286.7,417.9 287.7,385.7 293.8,385.7 292.4,417.9 "/>
<polygon fill="#929EAE" points="328.7,385.7 322.5,461.9 329,461.9 335,385.7 "/>
<polyline fill="#64777E" points="69.9,387.6 70.5,398 80,398.6 79.5,387.5 69.9,387.6 "/>
<path fill="#64777E" d="M99.7,387.2c0,0-2.6,4.2-3.4,5.9c-0.7,1.6-2.7,7-2.7,7l-0.8-13.2L99.7,387.2z"/>
<path fill="#64777E" d="M287.8,386.4l-0.3,9.5c0,0,5.7,4.2,5.7,4.9s0.6-14.4,0.6-14.4L287.8,386.4"/>
<path fill="#64777E" d="M327.1,385.7l8.4,0l-1.3,11c0,0-2-5-2.9-6.6c-0.6-1.1-2.9-4.4-2.9-4.4"/>
<polygon fill="#64777E" points="322.5,461.9 320.1,458.2 326.1,385.7 328.7,385.7 "/>
<polygon fill="#64777E" points="83,466.7 83.6,462.9 80.4,386.9 79.4,386.9 "/>
<polygon fill="#64777E" points="99.7,419.1 101.5,415.9 100.7,386.9 99.4,386.9 "/>
<polygon fill="#64777E" points="286.8,417.9 285.2,414.5 286.2,385.7 287.8,385.7 "/>
<polyline fill="#242D28" points="82.1,446 83,444 321.6,440.6 322.2,442.5 82.1,446 "/>
<polygon fill="#242D28" points="321.5,443.5 321.7,438.4 289.3,404.8 289.4,410.4 "/>
<polygon fill="#242D28" points="100.8,403.8 286,402.6 285.9,404 100.8,405.4 "/>
<polygon fill="#505B5F" points="81.4,432.5 94,407.3 98,407.4 81.7,439.8 "/>
<polygon fill="#505B5F" points="82.1,446 322.2,442.5 321.7,449.5 82.4,453.9 "/>
<polygon fill="#505B5F" points="293,404.8 322.1,434.4 321.7,438.4 289.3,404.8 "/>
<polygon fill="#505B5F" points="100.8,405.4 285.9,404 285.8,409.4 100.8,410.4 "/>
<polygon fill="#242D28" points="98,407.4 97.8,411.9 82.1,446 81.7,439.6 "/>
<polyline fill="#A2AAB5" points="8,373.8 8,387.9 395,385.8 395,373 8,374.6 "/>
<polygon fill="#6B9AE2" points="8,374.6 59.2,339.3 322.4,339.3 395,373 "/>
<polygon fill="#A0C4D7" points="8.1,374.6 59.2,339.3 62.8,339.3 12.3,374.5 "/>
<polygon fill="#6B80D3" points="192.6,340.5 197.3,340.5 212.2,370.2 208.1,371.7 "/>
<polygon fill="#6B80D3" points="8,374.6 16.8,371.4 391.3,371.3 395,373 "/>
<rect x="192.6" y="325" fill="#AFB9DA" width="3.6" height="14.3"/>
<polygon fill="#E6E6E6" points="194,338.4 210,373.1 210,352.4 194,325.3 "/>
<rect x="208" y="352.4" fill="#AFCCEC" width="4.8" height="21.4"/>
</svg>
