<svg id="Renner" xmlns="http://www.w3.org/2000/svg" viewBox="0 0 641.94 556.2"><defs><style>.cls-1{fill:#282828;}.cls-2{fill:#111110;}.cls-3{fill:#efc2af;}.cls-4{fill:#be978c;}.cls-5{fill:#e9b01f;}.cls-6{fill:#cd971e;}.cls-7{fill:#e2b7a8;}.cls-8{fill:#d1a698;}.cls-9{opacity:0.3;}.cls-10{fill:#a98277;}.cls-11{fill:#dda095;}.cls-12{fill:#cf8d7a;}</style></defs><title>renner</title><path class="cls-1" d="M435.11,469.06s4.65-2.88,8.41,5.75,3.32,19.91,3.32,19.91.44,2.21,3.32,6.2-1.55,13.94-1.55,13.94-1.11,3.1-8.63,3.65-19.25-1.17-19.25-1.17-3.08-4.25,4.32-9.12.77-13.28,1.88-26.11S435.11,469.06,435.11,469.06Z"/><path class="cls-2" d="M293.07,421.27s4.1-17.94,12.34-24.46l43.2,3.88,53.76-7.52s5.53,3.76,6.42,9.51-2,9.29,4.2,18.59c0,0,4.87,5.31.22,13.28s-16.74,19.22-16.74,19.22-11.58,3.57-23.53,1.58c0,0-4,.44-10.62-9.29s-17.48-25.44-21.9-12.61-5.53,18.14-5.53,18.14-4,2.66-15.27.44Z"/><path class="cls-3" d="M402.25,518.51a8.75,8.75,0,0,1-6.65,8.23c-6.72,1.88-.34,5.91,3.33,5.11s7-4.09,9-6.61c0,0-.2,6.88,5.17,15.21,0,0,4.57,2.69,5.64-1.61a86.56,86.56,0,0,1-3.5-10.21s5.38,7.79,11.56,11.56c0,0,4.84,2.15,4-4.57a111.54,111.54,0,0,1-8.87-8.06s8.48,7.52,12.84,9.14c0,0,6.24,0,3-4.57,0,0-4.94-2.69-9.32-5.37,0,0,7.14,3,10.25,2.15,0,0,3.85-2.42-3.11-5.37s-5.72.22-7.14-6.66Z"/><path class="cls-2" d="M435.61,473.44c-3.46,1.79-5.94,13.14-5.94,13.14s.33,8,3.2,14.1,1.21,11.64-5.13,12.63c-3.91.61-5.13,2.72-5.5,4.25,3.41.44,11.85,1.4,17.73,1,7.52-.55,8.63-3.65,8.63-3.65s4.43-10,1.55-13.94-3.32-6.2-3.32-6.2a59.46,59.46,0,0,0-1.27-13.43h0S439.07,471.65,435.61,473.44Z"/><path class="cls-1" d="M313.62,397.55l-8.22-.74c-8.24,6.52-12.34,24.46-12.34,24.46l2.84,3.29h6v-3.94a7,7,0,0,1,7.35-1.66s-7.4-5.33-11.23-3.57c0,0,8-6.45,14.45-5.37,0,0-4.17-1.32-11.58-.12,0,0,6.87-5.06,12.73-5Z"/><path class="cls-4" d="M415.2,426.25s.66,5,5.64,11.62c0,0,11.28,5,15.6,29.87,0,0,.66,4,4.65,10.29s-3.65,11.62-6.31,11.28-4.52-.41-9.29-10-17.59-14.6-17.59-14.6l5.31-30.2S415.2,433.22,415.2,426.25Z"/><path class="cls-5" d="M314.75,319.41s16.15-1.69,25.44-1.69,16.59.44,28.76,15a122,122,0,0,1,20.36,34.07s4.43,8.19,9.07,13.05,4,13.28,4,13.28,8.65,10.35,3,17.67-63.4,16.18-88-2.19c0,0-9.42-6.42-14.11-15.27,0,0-12-6.64-22-8.85s-12.39-30.75-12.39-30.75L276,339.41"/><path class="cls-6" d="M402.78,393.17s.66-8.41-4-13.28-9.07-13.05-9.07-13.05a122,122,0,0,0-20.36-34.07c-9.75-11.7-16.37-14.31-23.4-14.88a73.16,73.16,0,0,0-11.09,3.27c5.21,8.24-3.06,12.68-3.06,12.68,2.15-3.8,0-9.1,0-9.1-6.09,2.51-9.82,9.1-9.82,9.1l-17.76-8.77-27.78,14.35-7.08,14.38s2.43,28.54,12.39,30.75a70.18,70.18,0,0,1,11.42,3.81c6,2.38,15.28,6.85,22.88,13.78a55.54,55.54,0,0,0,26.16,13.26c-14.25,0-26.15-8.35-31.21-12.52a54.56,54.56,0,0,0,6.82,5.78c24.56,18.36,82.31,9.51,88,2.19S402.78,393.17,402.78,393.17Z"/><path class="cls-7" d="M245.28,518.51a149.44,149.44,0,0,1,4.65-15.6c3-8.3-3.65-50.78,5.31-77.66,0,0,1.55-17.26,2.43-29.21s-9.4-36.51,14.16-58.41l5.22,13.3s2.08,19.56,6.39,32.5c0,0-.66,26.22-4,44.64,0,0-10.29,40.66-16.93,63.89,0,0-2.66,8.3-1.33,26.55Z"/><path class="cls-8" d="M279.7,428.08c3.32-18.42,4-44.64,4-44.64-4.31-12.94-6.39-32.5-6.39-32.5l-1-2.65-.2.09s-18,16.12-7.1,44.79a89.14,89.14,0,0,1-1.58,34.9s-3.11-2-3-9.11c0,0-.62,8.61-3.84,13.63s-3.58,21.86-2.51,34c1,11.82-5,49.63-5.36,51.88h8.8c-1.33-18.25,1.33-26.55,1.33-26.55C269.41,468.73,279.7,428.08,279.7,428.08Z"/><path class="cls-3" d="M321.12,323a5,5,0,0,1,2.81.39c5,1.88,0,16.26,0,16.26s4,16.93,4.31,27.21-4.31,14.6-12.61,14.6-11.95-1.66-19.91-10.62c0,0-4.31,1.33-9.29-8s-15.6-14.6-14.6-25.22a18.58,18.58,0,0,0-2.66-9.62c-3-5.31-5.64-32.86,21.57-35.51s31.2,13.61,30.2,27.55"/><path class="cls-8" d="M326.65,376l-.13-.14s-6.82,2-7.89-2.6,9.3-2.1,9.3-2.1l.19-7.76a207.54,207.54,0,0,0-4.1-23.8s5-14.38,0-16.26a5,5,0,0,0-2.81-.39L321,320c1-13.94-3-30.2-30.2-27.55a34,34,0,0,0-6.35,1.22c4.89-.75,13.42,1.91,3.26,11.85-11.54,11.29-1.27,15.23-1.27,15.23a90.64,90.64,0,0,1,1.27,13.91c1.9,4.42,1.1,18.38,1.1,18.38a4.66,4.66,0,0,0,4.11-1.31,4.54,4.54,0,0,1,1.34,5.06l-3.89,7.85c4.08,1.83,10.38,0,10.38,0-.85,3.7-7.73,4.82-8.85,5,2.33,1.64,3.89,1.16,3.89,1.16,8,9,11.62,10.62,19.91,10.62C320.89,381.45,324.64,379.77,326.65,376Z"/><path class="cls-3" d="M338.53,319.72s15.27-3.32,26.88,11.95S382.34,354.9,384,366.84c0,0,21.24,29.87,22.24,50.45,0,0,12.28,20.91,14.93,57.75,0,0,4,18.59,5,30.53l2.32,11.28-26.22,1.66s.33-7,6-9.62,3.32-15.6,3.32-15.6-2.32-16.26-10.29-29.54a63.44,63.44,0,0,1-8.63-26.55s.33-7.63-7-13.61-18.25-25.22-20.91-38.83a9.15,9.15,0,0,0-10-7s-10-17.3-11.62-37.83S338.53,319.72,338.53,319.72Z"/><path class="cls-1" d="M322,464.83s5.58-9,10.23-10.59S342,456.89,343.73,466a88,88,0,0,0,8.19,23.36c3.1,5.85,8.63,14.92,5.31,25.1s-14.29,2-17.1-4.2a109.19,109.19,0,0,0-13.43-20.89C322.55,484.55,322,477,322,477Z"/><path class="cls-3" d="M293.07,421.27s10.29-6,41.82,18.25c0,0-16.26,18.92-22.9,24.23,0,0,7.63.66,14.27,1.66s12.61,14.93.33,19.58c0,0-11.28-2.66-26.22,4.65s-26.88-2-28.21-7,0-19.25,7-34.85A227.38,227.38,0,0,1,293.07,421.27Z"/><path class="cls-9" d="M320.94,320c1-13.94-3-30.2-30.2-27.55S266.18,322.7,269.17,328c.24.42.45.84.65,1.25-.41-2.76-.95-5.86-1.6-8.77-1.79-8,4.84-2.56,4.84-2.56,12.9,9.32,26.87-4.3,26.87-4.3,5.07-3.8,14.15-3.76,14,6.86s2.87,15.72,2.87,15.72l3.4-1.43a25.64,25.64,0,0,1,0-6.81c.11-.61.58-2.46,1.26-5a2.4,2.4,0,0,0-.32,0Z"/><path d="M291.87,336.2s2.6-5.46,11.91-1.61C303.78,334.59,295.81,333.52,291.87,336.2Z"/><path d="M298,335a1.8,1.8,0,0,0-.14-.7c-.27-.65-3.05-.65-3.33,0A1.81,1.81,0,1,0,298,335Z"/><path d="M283.44,336.2s-5.1-3.85-8.32.63C275.12,336.83,277.7,334.77,283.44,336.2Z"/><circle cx="279.48" cy="336.2" r="1.5"/><path class="cls-10" d="M294.4,348.39s3.07,1.07,0,3.4-6.3,3-7.73.72-2-2.33-.72-3.85a2.26,2.26,0,0,0,.45,2.19c.9,1.21,1.52,2.33,2.55,2.24a8,8,0,0,0,5.73-2.64S295.73,349.69,294.4,348.39Z"/><path class="cls-10" d="M286.58,346.42a23.88,23.88,0,0,0,0-10.21S289.45,340.15,286.58,346.42Z"/><path class="cls-11" d="M285.25,355.11s8.27,12.56,16.65-2.06C301.9,353,294.4,362.67,285.25,355.11Z"/><path class="cls-12" d="M285.25,355.11S294,360.48,301.9,353C301.9,353,294.76,363.44,285.25,355.11Z"/><path class="cls-4" d="M303.78,353.94s.52-5.24-6-4C297.82,349.91,305.22,345.2,303.78,353.94Z"/><path class="cls-8" d="M283.94,351.16s-3.94.21-1.61,4.53C282.33,355.69,277.49,350.53,283.94,351.16Z"/><path class="cls-9" d="M291.2,332.58s3.1-8.33,12.77-2.42C304,330.16,295.81,328.95,291.2,332.58Z"/><path class="cls-3" d="M420.1,464.72h-7v2.79c4.12,2.4,9.63,6.44,12.41,12,4.67,9.34,6.56,9.62,9.12,9.94l.17-.14C430.69,477.94,420.1,464.72,420.1,464.72Z"/><path class="cls-2" d="M343.73,466c-1.77-9.07-6.86-13.28-11.51-11.73a9.49,9.49,0,0,0-2.86,1.71c.09,0,8.19,3.21,1.75,12.65s-7.18,16.16-7.18,16.16h0s14,6.95,17.91,18.06c1.59,4.47,1.72,8.73,2.93,13.25,4.37,3.68,10.18,5.28,12.45-1.66,3.32-10.18-2.21-19.25-5.31-25.1A88,88,0,0,1,343.73,466Z"/><path class="cls-9" d="M282.87,332.58s-5.51-6.58-9.81,0C273.06,332.58,275.88,330.69,282.87,332.58Z"/><path class="cls-8" d="M326.59,485.13c12.28-4.65,6.31-18.59-.33-19.58S312,463.89,312,463.89c6.64-5.31,22.9-24.23,22.9-24.23a163.52,163.52,0,0,0-13.76-9.58l-11.79-6s-12.72-3.58-21.4,6.15c-2.51,4.57-5.66,10.67-8.81,17.73a92.85,92.85,0,0,0-5.51,16.14c2.87-8.34,9.77-24.92,19-23.84,0,0-8.16,17.56-7.81,31.89a21.83,21.83,0,0,0,2.6,11.47s-6.19-1.07-7.27-5.37a70.68,70.68,0,0,0,.78,12.54c5,2.13,11.88,2.72,19.49-1C315.3,482.47,326.59,485.13,326.59,485.13Z"/><path class="cls-8" d="M426.15,505.57c-1-11.95-5-30.53-5-30.53-2.66-36.84-14.93-57.75-14.93-57.75-1-20.58-22.24-50.45-22.24-50.45-1.66-11.95-7-19.91-18.59-35.18s-26.88-11.95-26.88-11.95,3-.29,4.65,20.24S354.8,377.8,354.8,377.8a9.41,9.41,0,0,1,5.94,1.3l.14,0s4.72-3.3,9.38,3.5c0,0,1.79,2.51,8.6,3.94s1.6,22.2,18.63,37.61c0,0,3.58,1.63,2.87,8.71s5,24.34,12.54,41.15-1.43,43.34-1.43,43.34l1,.56,16-1Z"/><path class="cls-10" d="M322.15,334.71s2.33-3.22-.36-3.6c0,0,.09-6.2,2-4.85a1.85,1.85,0,0,1,.9,1.78s.81-2.49-1.43-2.94-2.42,6.9-2.42,6.9S323.13,331.6,322.15,334.71Z"/><path class="cls-8" d="M435.61,523.52c-7-3-5.72.22-7.14-6.66l-17,.46c-2,2.84-10.65,14.62-18.1,13a7,7,0,0,0,5.56,1.55c3.66-.81,7-4.09,9-6.62a41.47,41.47,0,0,0,.63,4.75c.57-3,3.73-6.91,3.73-6.91s-1.25,4.84,2.15,14.33c0,0,.59,4,3.23,3.29a3.35,3.35,0,0,0,1.07-1.86,86.56,86.56,0,0,1-3.5-10.21s-.8-.9-.26-3.58a68,68,0,0,0,10.1,11.11c5.84,5,1.72,4,1.72,4l.08,0c.6.23,4.7,1.63,4-4.6a111.54,111.54,0,0,1-8.87-8.06s8.48,7.52,12.84,9.14c0,0,6.24,0,3-4.57,0,0-4.94-2.69-9.32-5.37,0,0,7.14,3,10.25,2.15C438.72,528.89,442.57,526.47,435.61,523.52Z"/><path class="cls-8" d="M261.45,518.51s2.47,7.5-3.71,10.55c0,0-1.58,7.62-5.09,9.5,0,0-5.93.66-4.59-3.57a38.4,38.4,0,0,0,3.22-5.93c.54-1.79-1-4.74-6,2.78,0,0-4.47,4.57-10.38,4.84,0,0-8.87-.27-3.22-4,0,0-5.91-.46-3.76-3.59S243,527,245.28,518.51"/><path class="cls-7" d="M245.28,518.51c-2.3,8.48-15.22,7.42-17.37,10.55s3.76,3.59,3.76,3.59a7.73,7.73,0,0,0-1.27,1c2.88,2.88,12.55-1.82,14.28-4.19a42.79,42.79,0,0,1,5.44-5.52,15.24,15.24,0,0,0,.72,2.69l-.18.37c.7.24.87,1.26.63,2a38.4,38.4,0,0,1-3.22,5.93c-.7,2.21.58,3.08,2,3.41-.39-.35-.93-1.21.27-2.8A15.52,15.52,0,0,0,252.65,525a17.06,17.06,0,0,1,0-6.53Z"/></svg>