<svg id="Teamsporters" xmlns="http://www.w3.org/2000/svg" viewBox="0 0 641.94 556.2"><defs><style>.cls-1{fill:#575656;}.cls-2{fill:#efc2af;}.cls-3{fill:#d1a698;}.cls-4{fill:#1e1e1e;}.cls-5{fill:#111110;}.cls-6{fill:#ab9172;}.cls-7{fill:#a98277;}.cls-8{fill:#634139;}.cls-9{fill:#fff;}.cls-10{fill:#cf8d7a;}.cls-11{fill:#dda095;}.cls-12{fill:#2c120d;}.cls-13{fill:#cb171a;}.cls-14{fill:#eaeaea;}.cls-15{opacity:0.25;}.cls-16{fill:#be988e;}.cls-17{fill:#6e6e6d;}.cls-18{fill:#3f3f3f;}.cls-19{fill:#97c234;}.cls-20{fill:#7c992a;}.cls-21{fill:#e2e2e1;}.cls-22{fill:#af451e;}.cls-23{fill:#843118;}.cls-24{fill:#afafaf;}.cls-25{fill:#676766;}.cls-26{fill:#cfcece;}.cls-27{fill:#147eb3;}.cls-28{fill:#126c8f;}.cls-29{fill:#bfbebe;}.cls-30{fill:#ddb0a4;}.cls-31{fill:#c59e96;}</style></defs><title>samensporten</title><g id="Laag_5" data-name="Laag 5"><path class="cls-1" d="M390.77,514.12s-1-5.66,1.29-10.3a100.78,100.78,0,0,1,2.09-16.73s-3.35-5.42,1.78-6.31,18.21,0,18.21,0,3.57-.38,1.94,5.28a135.58,135.58,0,0,1,10,16.47,57.12,57.12,0,0,0,8.24,9c4.12,3.35,5.66-.9,7.46,10.36,0,0-28.31,12.06-37.32-2.5C404.41,519.41,392.57,519.27,390.77,514.12Z"/><path class="cls-1" d="M510.2,506.14s-5.66,5.41-16,4.89-23.94-5.66-32.17-4.89c0,0-10.16-1.43-13.19-5.22a14.79,14.79,0,0,1,1.09-8.68s.51-10.3,4.12-18.79c0,0-5.21-4.37,2.16-5.92s14.06,3.86,14.06,3.86l6.69,2.83S490.12,485.9,497.58,496C497.58,496,511.74,499.45,510.2,506.14Z"/><path class="cls-2" d="M404.34,400.27c-13.46,19.73-9.71,42.81-9.71,42.81.77,22.65,1.54,46.07,1.54,46.07.24,7.34,5.39,3.26,5.39,3.26,4.62-7.55,14.51-5.32,14.51-5.32l-1.54-3.43c-1.72-6.52-.51-16.13-.51-16.13,9.27-34.83,8.24-43.5,8.24-43.5a21.32,21.32,0,0,1,.17-6.86c1.37-3,3.17-7.21,3.17-7.21a61.38,61.38,0,0,0,5-6.13Z"/><path class="cls-3" d="M394.63,443.08c.77,22.65,1.54,46.07,1.54,46.07.24,7.34,5.39,3.26,5.39,3.26a11.09,11.09,0,0,1,3-3.25h0c-6.18,2.26-5.19-3.65-5.19-3.65s1.3-37.64,2.92-62,26.31-17,26.31-17h0c1.15-1.46,2-2.67,2-2.67l-26.29-3.56C390.88,420,394.63,443.08,394.63,443.08Z"/><path class="cls-2" d="M454.08,396.5s-10.81,24.2-1.28,45.3c0,0,4.89,19.81,3.09,36.29,0,0,10.81,10.55,21.11-3.86,0,0-3.6-12.35,0-33.46s1.54-31.92,1.29-34.75L482.4,395l-18.79-6.18Z"/><path class="cls-3" d="M458.7,392.93l-4.41,3.58s-10.81,24.2-1.28,45.3c0,0,4.89,19.81,3.09,36.29,0,0,5.18,5.05,11.78,3.38l0-.05s-5.94-1.9-7.64-5.06c0,0,.24-27.35-2.68-41.06s1.95-31.16,1.95-31.16,6.14-3.08,18.77-2.67Z"/><path class="cls-4" d="M411.13,279.14a9,9,0,0,0,0,3.41s-6.21,27.8-11.35,79.45l-2.23,36.21a22.56,22.56,0,0,1,6.79,2.06c3.5,1.72,33.7,5.49,47.09,3.09a30.49,30.49,0,0,0,0-8.58s17.16,13.73,42.9,2.4a40.63,40.63,0,0,0,0-7.26s2.75-58.71-9.61-100.54c0,0,1.72-1.68.69-6.48Z"/><path class="cls-5" d="M426.59,403.37c.62.11,1.29.18,2,.24Z"/><path class="cls-5" d="M403.89,388.77c1-10.86,1.72-45.7,1.72-45.7A235.8,235.8,0,0,1,406,370.5c-.77,12.87,0,29.77,0,29.77,6.6,1.33,15.53,2.49,20.64,3.1-7.72-1.31-7.77-6.36-7.77-6.36s7.46-31.92,7.21-50.19-5.41-42-6.18-47.62a74.62,74.62,0,0,1-.51-11.58c-2.06,6.95-2.83,28.06-3.86,19.56s.77-21.11.77-21.11c-4.63,11.07-8.75,39.38-8.75,39.38,0-12.87,6.18-43.24,6.18-43.24,6.69,2.06,25.61,4.4,25.61,4.4l-1.15-6.11-27-1.37a9,9,0,0,0,0,3.41s-6.21,27.8-11.35,79.45l-2.23,36.21a21.53,21.53,0,0,1,4.24,1S402.9,399.59,403.89,388.77Z"/><path class="cls-5" d="M430.63,403.83s9,.3-1.35-.18l-.67,0,2,.23Z"/><path class="cls-2" d="M418.18,124.18s-2.06-1.42-2.83-.64-.51,5.53,2.83,10.94c0,0,3.47,2.7,4.63,1,0,0,2.19,10.3,3,16.22a14,14,0,0,1-1.8,6.69s-7.72,4.76-9.78,6c0,0,8.93,4.16,11.58,6.56a29.52,29.52,0,0,0,4,1.37,174.63,174.63,0,0,1,22.09,8.67,96.59,96.59,0,0,1,7.08-9.27,51.56,51.56,0,0,0,4.25-7.08s-8.11-3.86-9-6.56c0,0,0-14.41-.26-27.15,0,0,1.16.9,2.83-1.42s2.57-2.32,2.19-7.34-2.83-6.69-4.25-3.6l-.51-8.62-5.92-9.52-9.59-3.86-12.42,4.25-7.46,8.37-2.45,6.95Z"/><path class="cls-3" d="M454,131.15s1.16.9,2.83-1.42,2.57-2.32,2.19-7.34-2.83-6.69-4.25-3.6c0,0-2.25.84-1.76,4.36C453.76,128.87,454,131.15,454,131.15Z"/><path class="cls-6" d="M415,106.16s-3.6,2.83-2.83,9.14a6.29,6.29,0,0,0,1.36-1.67,44.24,44.24,0,0,1,.7,7.34,1.41,1.41,0,0,0,1.16-.58,25.49,25.49,0,0,0,.86,2.94,10.8,10.8,0,0,1,4.16,4.72,49.36,49.36,0,0,0-1.48-9.65s2.19-.45,1.48-4.5l2.7-2.83a3.22,3.22,0,0,1-.84,1.93s3-.9,3.41-3.67a47.45,47.45,0,0,1,4.89-3.67c1.87-1.09,8.37-3.6,16.39-3.56a27.81,27.81,0,0,0,4.76,10.25A70.93,70.93,0,0,0,453,123.15s1.21-4.07,2.88-5.9a18.42,18.42,0,0,0,0-3,5,5,0,0,1,.9,1.37,12.91,12.91,0,0,0-1-5.92,2.65,2.65,0,0,1,1.05.69s-.62-4.89-2.85-7.21c0,0,.17-.26,1.2,0,0,0-1.46-2.66-3.26-3.52a6.55,6.55,0,0,0,0-3,4.3,4.3,0,0,1-.94,1,31,31,0,0,0-3.6-6.95,5.54,5.54,0,0,1,0,1.8A27.93,27.93,0,0,1,442,87a3.84,3.84,0,0,0,.26,1.63,13.12,13.12,0,0,0-6.52-2.06,2,2,0,0,1,.6,1.46,16.9,16.9,0,0,1-3.6-3.69,5.09,5.09,0,0,0-.6,2.32s-1.37-1.29,1-3.95A8.07,8.07,0,0,0,429,85.48a5.61,5.61,0,0,1,0-1.89s-2.57,1.63-3.35,3.69a3.4,3.4,0,0,0-1.89-.86,1.74,1.74,0,0,1,0,2.32,3.65,3.65,0,0,1-.86-2.83A6,6,0,0,0,420.71,91a5.8,5.8,0,0,1-.94-1.8,8,8,0,0,0-1.63,4.2,5.21,5.21,0,0,1-1-1.54s-4.63,5.75-2.4,11.15a6.18,6.18,0,0,0-2.68.34S414.45,104.7,415,106.16Z"/><path class="cls-3" d="M418.18,124.18s-2.06-1.42-2.83-.64-.51,5.53,2.83,10.94c0,0,3.47,2.7,4.63,1,0,0-1.18-3.86-2.45-7.46A32.42,32.42,0,0,0,418.18,124.18Z"/><path class="cls-3" d="M424.31,140.31a9.35,9.35,0,0,0,4.63,7l2.83,1.89s1.72,2.23,5.83,1.89l5.15-.43a5.68,5.68,0,0,0,5.06-2.32,35.4,35.4,0,0,1,3.09-3.86s-3.17,5.56-5.66,6.64c0,0,1.54.56-.17,1.77s-3.35,1.29-1.12,3,2.92,3.17,1.89,4.29-9-2.93-12.48-7.59S426.2,149.87,424.31,140.31Z"/><path class="cls-6" d="M421.65,122.89s-.34-2.66,2-3.26a64.23,64.23,0,0,1,7.46-1,2.16,2.16,0,0,1,.43,2.14C431.09,122,423.88,120.4,421.65,122.89Z"/><path class="cls-6" d="M438.71,119.89s-.66-.51-.66-2.4c0,0,3.69-.86,6.86-1.63a4.47,4.47,0,0,1,4.8,2A20.47,20.47,0,0,0,438.71,119.89Z"/><path class="cls-7" d="M433.15,131.47s-1.29,2.75,1.24,2.4c0,0,.82-.77,1.33.43s3.43,1.12,3.95-.51,1-1.12,1-1.12,2.23.26,1.8-1.2-.77-1.2-.77-1.2.51,1.2,0,1.54-2-.24-2.49,1.37a1.77,1.77,0,0,1-3.26.09c-.34-1.29-1.59-.09-1.59-.09S432.89,134,433.15,131.47Z"/><path class="cls-8" d="M429.72,137.3s6.26,2.06,17.59-2.19C447.31,135.12,440.27,146.83,429.72,137.3Z"/><polygon class="cls-9" points="433.13 137.95 434.01 140.31 439.48 140.71 443.88 138.53 443.88 136.27 440.19 137.43 434.39 137.69 433.13 137.95"/><path class="cls-10" d="M429.72,137.3a23.88,23.88,0,0,0,17.59-2.19A52.25,52.25,0,0,1,429.72,137.3Z"/><path class="cls-11" d="M447.31,135.12s-3.71,7.27-7.83,7.72-7.68-3.28-9.76-5.53C429.72,137.3,438.08,144.64,447.31,135.12Z"/><path class="cls-3" d="M429.38,138.49s-3-2.82,3.45-7.71C432.82,130.78,424.83,135.05,429.38,138.49Z"/><path class="cls-3" d="M448,136.27s2.57-3.3-4.8-6C443.19,130.25,451.77,131.64,448,136.27Z"/><path class="cls-7" d="M421.14,132.68s-1.54-.79-.77-3a21.13,21.13,0,0,0-3.95-5.15s-1.29-1-.77,1.63c0,0,.26-3.4,3.86,3.69C419.51,129.84,418.74,133,421.14,132.68Z"/><path class="cls-12" d="M432.51,123.79a5.34,5.34,0,0,0-7.89.94A6.61,6.61,0,0,1,432.51,123.79Z"/><path class="cls-12" d="M439.71,122.72s1.63-4.8,7.85-2C447.56,120.75,442.07,118.69,439.71,122.72Z"/><path class="cls-13" d="M484.37,278.1a560.87,560.87,0,0,0-2.75-62.72s1.67-11.15-1-28.27a53.55,53.55,0,0,0-7.55-17s-4.91-2.62-9.82-5.36h-.31l.31.15a51.56,51.56,0,0,1-4.25,7.08,96.58,96.58,0,0,0-7.08,9.27,174.64,174.64,0,0,0-22.09-8.67,29.52,29.52,0,0,1-4-1.37c-2.66-2.4-11.58-6.56-11.58-6.56l.24-.15h-.24s-7.64,5.1-10.55,9.05c0,0,23.07-1,24.34,20l-14.69,12.22-1.8,8.27-1.67,6.57s-.64,4.63-6.95,3.86c0,0,.64,9.27,2.19,14.8,0,0,4.16,19,5.71,34.06v.86s-2.06,2.9-.69,4.46,62.8,20.42,75.33,4.29C485.4,282.9,487.29,279.47,484.37,278.1Z"/><path class="cls-12" d="M430.06,123.58a1.49,1.49,0,0,0-.27-.86c-.27-.39-2.31-.31-2.56.17a1.5,1.5,0,1,0,2.83.69Z"/><path class="cls-14" d="M403,226.16a7,7,0,0,0,7.56-3.18l-1.05-1.46s-2.19,4.2-6.65,2.91Z"/><path class="cls-12" d="M445.14,121.29a1.5,1.5,0,0,0-.75-1.3,2.92,2.92,0,0,0-1.81.24,1.5,1.5,0,1,0,2.56,1.06Z"/><path class="cls-15" d="M475.7,252.84,459,232.29,415.22,214l-3.84.43-1.56,6.14s-.64,4.63-6.95,3.86c0,0,.64,9.27,2.19,14.8,0,0,4.16,19,5.71,34.06v.86s-2.06,2.9-.69,4.46c.51.57,9.19,3.5,20.58,6.16-25.72-6.7-16.46-10.8-16.46-10.8.51-8-3.35-26.67-3.35-26.67s-1.54-17.34,1.29-10.09,6.69,15.91,10,15.62,10.55,1.58,10.55,1.58,12.61,8.75,19.56,3.86,9.08-4.38,9.08-4.38C467.1,258,475.7,252.84,475.7,252.84Z"/><path class="cls-7" d="M454.73,127.46a2.24,2.24,0,0,0,0-3.21s1.92-8.52,3.09-3.5c0,0-.26-4.09-1.83-1.58a18.36,18.36,0,0,0-2.15,5.57S455.05,124.82,454.73,127.46Z"/><path class="cls-3" d="M415.53,165.1s10.8-9.65,12.65,1.68c0,0,2.28-2.17-.2-7.34a8.79,8.79,0,0,1-2.65-4.43,12.73,12.73,0,0,1-1.35,3.4l-9.78,6Z"/><path class="cls-3" d="M426.64,171.37s10.7-.22,15.92.55c0,0-8.33-.09-12.75.47Z"/><path class="cls-3" d="M450.14,176.6a5.67,5.67,0,0,1-3.35-7S442.16,175.4,450.14,176.6Z"/><path class="cls-14" d="M443.67,200.77l2.76-5.54,16.79-2.92,4,5.22a32.92,32.92,0,0,1,1.29,10.34l-3.06,3.6L468.5,214v10.18l-.64,4.32L464,217.14l-4.38-5.68,5.18-5.52-1.53-7.14L461,196.59l-10.91,2.05-2.34,4.71Z"/><path class="cls-14" d="M428,193.57l-6.37,5.3,7.28,2.32a25.59,25.59,0,0,0-3.79-20.2c-6-8.88-20.38-8.59-20.38-8.59h-.09c-.36.4-.7.8-1,1.18C403.7,173.58,426.77,172.55,428,193.57Z"/><path class="cls-15" d="M480.26,191.55s.46,18.2-2.24,22.71a12,12,0,0,0-7.21.77c-3.47,1.67-21.35-.48-21.35-.48l2.82,5.12,14.41,4.5,13.64-7.46A73.16,73.16,0,0,0,480.26,191.55Z"/><path class="cls-15" d="M426.64,186.29l.22.4a29.32,29.32,0,0,1,3.41,10.84,37.8,37.8,0,0,1,8.88,10.34l-6.26-.55L422.17,200"/><path class="cls-2" d="M473,170.08a68.25,68.25,0,0,1,7.68,4.16s16.47.77,17.76,27.28c0,0,6.31,4.76,9.39,11.45s1.8,7.85,3.6,16.34a28.33,28.33,0,0,1,0,8.75c-.77,4.5.26,5.79-1.42,7.46s-4,.26-10.17,3.22-25.61,6.95-44.27,1a22,22,0,0,0-7.34-1.42c-3.35.13-10.17-3.35-12-6,0,0-1-1.42-4-.39s-7.18-5.88-7.18-5.88l5.51-9.82,26.77,6.82,21.36-10.55,1.54-5.79s3.23-16.51-1.67-31.4Z"/><path class="cls-2" d="M403.64,173.51a11.26,11.26,0,0,0-1.63,2.32s-4.8,1.37-7.21,8.92,1.54,15.79,1.54,15.79-.17,7.87,2.49,13.46,3.76,7.33,4,10.43c0,0,4.8,1.5,6.65-2.91,0,0,10.85,16.68,31.61,20.93,0,0,11.15,5.45,25.05-2.27,0,0,10.3-6,15.61-10.74s6.52-5.65,6.52-5.65-6.69-9.83-14.76-7-20-2.87-31-2.77c0,0-.91-8.76-14.47-16.09C428.09,197.91,431.86,173.77,403.64,173.51Z"/><path class="cls-16" d="M409.52,221.52a72.21,72.21,0,0,1-6.65-12.61s-.51-2.37-3.6-4.77c0,0,1.72,2.28,3.6,8.69C402.86,212.83,404.85,218.48,409.52,221.52Z"/><path class="cls-16" d="M432.34,241.93c3-1,4,.39,4,.39,1.8,2.7,8.62,6.18,12,6a22,22,0,0,1,7.34,1.42,71.48,71.48,0,0,0,27.56,2.75c-.19,0-17.78-2.12-18.94-3.91s4.24-5.79,4.24-5.79c9.64-11.58,28.45-24.58,28.45-24.58-4.38,1.16-8.62,5.53-8.62,5.53s-1.51-1.88-4.12-5.41-1.93-12.48-2.45-18.4a23.59,23.59,0,0,1,1.16-10c-1.54,1.8-2.82.74-2.82.74v0a59.79,59.79,0,0,1,.93,6.14V197q.07.7.12,1.39a69.1,69.1,0,0,1-.7,17.54c-.08.49-.13.76-.13.76l-.08.32c7.19,3.82,5.74,8.73,5.74,8.73-4.9-.09-9.08,6.78-9.08,6.78a59.56,59.56,0,0,1-15.54,9.85c-11.77,3.55-9.72,1.6-20.23.05s-16-6.39-16-6.39S429.38,243,432.34,241.93Z"/><path class="cls-15" d="M452.28,186.15s4.63,11.75,4.38,22.77A27.64,27.64,0,0,0,452.28,186.15Z"/><path class="cls-3" d="M452.54,234.34c-5.41-6.95-11.37-3.86-11.37-3.86-7.12-6.95-5.62-4.5-15.4-13S415,202.81,415,202.81c-.49-12.23-6.68-22.67-9.69-27.07h0a1.85,1.85,0,0,1,.07-2.21l-1.7,0a11.26,11.26,0,0,0-1.63,2.32s-4.8,1.37-7.21,8.92,1.54,15.79,1.54,15.79-.17,7.87,2.49,13.46,3.76,7.33,4,10.44c0,0,4.8,1.5,6.65-2.91,0,0,10.85,16.68,31.61,20.93,0,0,8.66,4.23,20.23-.05C461.33,242.38,457.92,241.25,452.54,234.34Z"/><path class="cls-3" d="M428.09,197.91a12.67,12.67,0,0,0-3.78-.81s2.57-.77,3.78-.43A2.54,2.54,0,0,1,428.09,197.91Z"/><path class="cls-3" d="M498.48,201.52s-.9-.47-2.53-1.5a9.91,9.91,0,0,1,2.53.75Z"/><path class="cls-5" d="M451.43,394.78a152,152,0,0,1,5.66-28.31c4.63-15.44,14.07-44.79,12-60.4,0,0,2.3,13.73.29,26.6s9.15,17.85,13.09,18.88c0,0-7.21,3.43-13.38,2.06a11.16,11.16,0,0,0,4.46,2.57s-6,1.5-9.61.51c0,0-1.72,6.52-1.72,9.09a16.85,16.85,0,0,0,11.67,5.83s-8.24,0-12.53-2.57a11.93,11.93,0,0,0,8.41,5.26q.42,0,.85.06c6.18.17-7.21,1.2-11.67-.51,0,0-2.65,11-3.78,16.82,0,0-2.24,6.53,18,11C473.21,401.65,464.81,403.19,451.43,394.78Z"/><path class="cls-17" d="M399.62,511.07v-7.58l4.38-1.83,8.39,8.53a8.69,8.69,0,0,0-5.47,9.14S399.62,514.63,399.62,511.07Z"/><path class="cls-18" d="M390.77,514.12c1.8,5.15,13.64,5.29,13.64,5.29,8.61,13.91,34.84,3.52,37.14,2.57l-.47-2.51-.76.38a2.75,2.75,0,0,0-3-2.8c-3,.16-3,4.62-3,4.62-14,5.42-27.36-2.36-27.36-2.36s-6.81-7.44-11-9.14-3.91-6.36-3.91-6.36C389.74,508.46,390.77,514.12,390.77,514.12Z"/><path class="cls-17" d="M468.27,497v-6.09l5.09-3.57,9.9,6.24s-1.72,5.93-3.78,8.36h-8.39Z"/><path class="cls-18" d="M448.87,500.92c3,3.79,13.19,5.22,13.19,5.22,8.24-.77,21.88,4.38,32.17,4.89s16-4.89,16-4.89a4.85,4.85,0,0,0-1.35-4.43h0a3.15,3.15,0,0,0-2.39,3.6c-3.81.69-19.23,1.95-27-3.41a33.11,33.11,0,0,0-15.81-5.68c-9.45-.08-13.71-4-13.71-4A14.79,14.79,0,0,0,448.87,500.92Z"/><path class="cls-15" d="M394.15,487.09a100.78,100.78,0,0,0-2.09,16.73c-2.32,4.63-1.29,10.3-1.29,10.3,1.8,5.15,13.64,5.29,13.64,5.29,5.29,8.55,17.25,7.91,26.22,5.93.58-9.91-3.75-10-3.75-10-9.74-.66-10.74-4.87-10.74-4.87-13.41-12.55-11.57-21.33-11.57-21.33-4.06,1.87-1.54,4.22-4.95,4.25s-3.44-4.26-3.44-4.26l-.24-8.37-1.59.56C391.61,483,394.15,487.09,394.15,487.09Z"/><path class="cls-15" d="M454.09,473.45c-3.6,8.49-4.12,18.79-4.12,18.79a14.79,14.79,0,0,0-1.09,8.68c2.25,2.81,8.43,4.33,11.47,4.92a17.94,17.94,0,0,1-4.5-2.48,18.43,18.43,0,0,1,1.65-7.81c.19-10,2.84-14.78,2.84-14.78-3.3-.92-4.23-2.69-4.23-2.69a72,72,0,0,0,.14-10.55C448.87,469.09,454.09,473.45,454.09,473.45Z"/><path class="cls-14" d="M464.75,165.37l-1.53-.85h-.31l.31.15a51.56,51.56,0,0,1-4.25,7.08A96.58,96.58,0,0,0,451.9,181a174.64,174.64,0,0,0-22.09-8.67,29.52,29.52,0,0,1-4-1.37c-2.66-2.4-11.58-6.56-11.58-6.56l.24-.15h-.24s-.48.32-1.25.87c0,0,8.22,3.86,12.21,7.07,0,0,15.14,4.34,27.13,10.91,0,0,10.1-13.26,12.47-17.74Z"/><path class="cls-15" d="M403.64,173.51s.64,0,1.7,0c3.23-4,10.19-8.43,10.19-8.43l-1.34-.64S406.55,169.56,403.64,173.51Z"/><path class="cls-14" d="M480.86,188.85q-.12-.86-.26-1.74a53.55,53.55,0,0,0-7.55-17L471,169h0s5.3,12.19,9.23,22.56Z"/></g><g id="Laag_4" data-name="Laag 4"><path class="cls-2" d="M164.3,320.91a334.86,334.86,0,0,0-22.19,49.46s-4.76,13.54-7.29,21.2v15.9L132,418.89l-.83-.67a212,212,0,0,1,.59,24.49l9.16,9.39L156.81,445s6.18-15.46,4.76-31.51L158,408.7l5.23-6.9,3.09-.36a13.07,13.07,0,0,0,6.54-6.06c2.62-4.76,12.6-18.43,16.88-22,0,0,17.36-21.16,21.64-27.82l-1.9-9.27-29-11.1Z"/><path class="cls-3" d="M249.48,259.81s-2.9-6-4.48-7.7l-1.81,5.71,4.34,3.49Z"/><path class="cls-2" d="M208.06,329.16s-3.29,15.22,7.08,40.9c0,0,4.34,13.24,4.66,22.79a33.11,33.11,0,0,0,0,7.17l7.93,22.19-.79,8.88s1.11,16.17.79,27.58l12,8.24,10.94-5.39s8.09-25.21,4.28-40.9l-6-15.69,3.33-4.44s.77-15.85,3.71-26.63,7.86-39.63,7.86-39.63l-19.82-9Z"/><path class="cls-4" d="M172.15,305.14s-4,7.85-7.85,15.77A200.56,200.56,0,0,1,183,330.74c8.88,5.39,25,10.15,25,10.15s-1.27-6.66,0-11.73c0,0,16.17,12.68,41.54,7.13,0,0,9.51-2.38,14.27-2.06a8.26,8.26,0,0,0,1.59-7s1.9-7-1.59-16.8c0,0-2.38-4.76-1.35-14.11l-41.46-3Z"/><path class="cls-19" d="M235.4,169.36a155.61,155.61,0,0,1,21.88,8s58,41,61.11,69.74c0,0-21.88,20.93-49.46,28.77,0,0-3.57-8.69-8.32-13.38,0,0,7.85-5.17,14-7.31a38.26,38.26,0,0,0,8.09-5,65.67,65.67,0,0,1,7.37-8.25s-15.22-12.43-25.68-22.65c0,0-3.8-4-6.9,2.18,0,0-3.8,4.24-5,9a11.69,11.69,0,0,1-2.62,5.51,27.24,27.24,0,0,1-2.62,14.22l-2.14,6.9,12.13,21.16s5,8.8,5.23,18.07c0,0-42.8,27.82-90.36,8.8a38.24,38.24,0,0,1,3.09-8.8,4.63,4.63,0,0,1,1-6.66S177.75,268,177.62,255l-1-17.31-.24,18.26s1.9,3.27-.71,3.89c0,0,1.43,3.24-1.19,3.72,0,0,2,1.78-.36,2.38a6.1,6.1,0,0,1-1,4.4s-1,6.54-5.59,23.82c0,0-1.74,10.15-2.38,14.74,0,0,.32,2.68-1.74,2.93H150.83s-1.43-.39,0-3.88a128.33,128.33,0,0,0,.16-15.54s-1.27-19.5,1.43-30.91a1.94,1.94,0,0,1-.48-3s-1.9-1.27,1.27-3.17c0,0,4.91-51.84,16.8-74.35a56.18,56.18,0,0,1,15.69-9.35Z"/><path class="cls-20" d="M165.25,308.87c.63-4.6,2.38-14.74,2.38-14.74,4.6-17.28,5.59-23.82,5.59-23.82a6.1,6.1,0,0,0,1-4.4c2.38-.59.36-2.38.36-2.38,2.62-.48,1.19-3.72,1.19-3.72,2.62-.62.71-3.89.71-3.89l.17-13.18h0l-2.55-5.13V220l12.13-32.34L184.28,173a5.54,5.54,0,0,0-2.37.27,59,59,0,0,0-9.91,6c2.94,9,.48,15,.48,15s-1.75,12.1-3.66,28.9-2.93,33-2.93,33a24,24,0,0,1,5.23,3.73,28,28,0,0,0-5.79-2.22c-9-2.3-12.44-.08-12.44-.08,3.57-1,9.27.63,9.27.63-2.85-.71-6.9.48-6.9.48a16,16,0,0,1,7.85,1s3.09,8.71,1.19,21.42a210.13,210.13,0,0,0-2.14,23.67c-.24,2.85-5.07,2.62-5.07,2.62,5.55.71,6.66,2.62,6.66,2.62-.48,1.43-.24,1.66-.24,1.66C165.57,311.55,165.25,308.87,165.25,308.87Z"/><path class="cls-21" d="M200.84,199.36l3.79-4.72,10-.22,3.72,4.71a90,90,0,0,0-1,9.86l-12.6,9.38s7.1,0,9.49.42l.16-2.28,2.87.36a40.86,40.86,0,0,0-.48,5.81,141.45,141.45,0,0,0-16.77-.82,29,29,0,0,1,.53-6.6l13.63-9.82.43-4.93-2.12-2.93-6,.49-3.1,4.43Z"/><path class="cls-20" d="M252,203.31C245.63,204.91,238,202,238,202l1.07,4.36a99,99,0,0,1-16.24-18.71s11.89,20.45,1.9,40.9-10.92,35-10.92,35C210,294,238.73,289,239,296.82S219.22,311,218.8,311.09a111.78,111.78,0,0,0,43.72-14.74c-.24-9.27-5.23-18.07-5.23-18.07l-12.13-21.16,2.14-6.9A27.24,27.24,0,0,0,249.91,236a11.66,11.66,0,0,0,2.61-5.46h0v0c1.19-4.76,5-9,5-9q.14-.29.29-.54l.09-.15.2-.33.12-.18.17-.25.14-.18.16-.2.15-.17.15-.16.16-.16.14-.13.17-.14.13-.1.18-.13.12-.08.19-.11.1-.06.2-.09.09,0,.21-.07.07,0,.22-.06H261l.23,0h0l.24,0h.28l.25,0a4.57,4.57,0,0,1,2.37,1.22c10.46,10.23,25.68,22.65,25.68,22.65l1.52-1.37C275.78,228.8,258.47,201.7,252,203.31Z"/><path class="cls-22" d="M225.89,105.27s-3.57-5-13.55-3.33-20,10.46-22.12,28.65-5.83,25.21-8.44,40.31c0,0-.71,4.28-4.64,5.35a2.93,2.93,0,0,0,4,0s-7.25,8.92-12.37,31a15.58,15.58,0,0,1-2.73,7.37,20.88,20.88,0,0,0-3.92,11.18s2.14-6.9,4.87-10.46c0,0-3.69,14.15-1,25.09,0,0,.48,2.38,3.8,3.09a3.29,3.29,0,0,1-.48-2.38,15.36,15.36,0,0,0,5.11,2.38,2.07,2.07,0,0,1-.36-2.14s2.5.71,3,2.14-.12.59-.12.59a17.43,17.43,0,0,0,.24-8.44,2,2,0,0,1,1,1.78,13.69,13.69,0,0,0-1.43-6.9s-1-2-.12-6.42c0,0,2.38,5.23,2.5,9.63,0,0,1.07-3.69-.59-9.63,0,0-1-8.32,2.38-13.32a25,25,0,0,1,.12,6.66s-.71,4.64-.12,6.66c0,0,.59-6.3,1.19-9.16,0,0,.71-3.57,0-5.23,0,0,1.19-6.3,4.52-10s13.91-11.41,16.41-21.88l3.69-.83,14.51-.59a37.21,37.21,0,0,0-3.92,20.69c1.31,11.53,3.21,10.46,3,18.31,0,0,.66-5.92-1.19-15.58a26.35,26.35,0,0,1,.59-10.7s-.59,6.78.36,10.94a38,38,0,0,1,.83,5.71s-.24-2.73-.48-8.56a61.32,61.32,0,0,1,1-10s-.59,4.16,2.26,10.34c0,0,1.55,9.16-1.07,17.36a62.09,62.09,0,0,0-1.78,24.14s0-13.08,2.14-21.16c0,0,2.5-6.18,3-9.39a40.32,40.32,0,0,1,1.55,13.79c-.48,7.73-4.64,18.07-5.94,20,0,0,5.35-7,6.78-15.46a40.83,40.83,0,0,1-3,13.91s4.52-8.8,5.23-16.17a25.14,25.14,0,0,0,1.19,7c1.07,2.62-.24,7.13-2.62,10.46a11.23,11.23,0,0,0,4.4-7.73s2.14,3.8.71,7.25a13.34,13.34,0,0,0,4.16-9s.83,6.06-1.43,10.23a16.38,16.38,0,0,0,3.8-7.73A82.86,82.86,0,0,0,242.06,206c-2.14-16.17-4.87-13.67-4.16-37.81s.59-38.76.59-38.76S237.66,103.61,225.89,105.27Z"/><path class="cls-2" d="M195.69,140.35s-.94,8.09,3.46,12.13a28.12,28.12,0,0,1,3.08,3,23.59,23.59,0,0,1,1.78,2.5,122.14,122.14,0,0,0,1,14.51,13.36,13.36,0,0,1-1.9,5.47s7.85,3.92,18.19-1.43a145.6,145.6,0,0,1,7-14.15s-.12-6.18,0-11.53a80.14,80.14,0,0,0,1.55-8.2s1,1.55,2.14-.48a80.57,80.57,0,0,1-.83-14.62s-.71-9-5.83-10.34c0,0-4.16-2.38-3.69-5.71,0,0-7.85-3-13,0C208.65,111.45,199.85,122.51,195.69,140.35Z"/><path class="cls-3" d="M204,157.94s5.94,2.22,11-.79c0,0,6-1.74,9.35-4.91,0,0,2.54-2.85,3.17-9.51,0,0,1.9-9.19-.63-10.46,0,0,2.93-10.07-1.62-15.1,0,0,4.72.67,5.83,10.34a89.6,89.6,0,0,0,.83,14.62s-.91,2-2.14.48a63.41,63.41,0,0,1-1.55,8.2v11.53a139.16,139.16,0,0,0-7,14.15s4.7-13.41,5.43-23C226.68,153.51,216,165.32,204,157.94Z"/><polygon class="cls-9" points="202.46 144.75 204.53 144.75 209.36 144.42 213.78 144.72 216.58 144.75 217.77 144.6 216.63 146.34 213.13 148.59 207.26 149.07 204.01 147.72 203.34 146.21 202.61 145.41 202.15 144.82 202.46 144.75"/><path class="cls-10" d="M201.87,144.72a8.12,8.12,0,0,0,3.27-.39c2.08-.59,9.39.07,10.64.21a5.31,5.31,0,0,0,2.2-.12s-.71.92-3.57.62-8-.42-9.93.06A7.17,7.17,0,0,1,201.87,144.72Z"/><path class="cls-11" d="M202.15,144.82a7.06,7.06,0,0,1,1.57,3c.36,1.72,5.23,4.58,10.82.71a20.68,20.68,0,0,0,3.45-4.13,11.62,11.62,0,0,1-8.06,3.66c-5,.06-5.92-1.25-5.92-1.25A3.7,3.7,0,0,0,202.15,144.82Z"/><path class="cls-3" d="M218.19,145.82s.42-1.43-1.61-3.21a7.23,7.23,0,0,1-1.27-1.59,5.1,5.1,0,0,0,1.07,2.4C217.22,144.27,217.66,144.23,218.19,145.82Z"/><path class="cls-3" d="M202.36,146.17a4.55,4.55,0,0,1,0-3.33,10.82,10.82,0,0,0,.85-2.32,10.17,10.17,0,0,1-1.55,2.26C201.13,143.14,201.15,145.62,202.36,146.17Z"/><path class="cls-7" d="M212.22,137.43s1.76.3,1.56,1.72-1,1.88-1.92,1.86c0,0,.78-.29,1-1.79S212.22,137.43,212.22,137.43Z"/><path class="cls-7" d="M210.91,141a.6.6,0,0,0,0-1.09s-2-.73-1.25,1.09A1.06,1.06,0,0,0,210.91,141Z"/><path class="cls-7" d="M206.21,139.23c.09-.84.84-2.09.6-3.76a8.61,8.61,0,0,1-.59,2,2.49,2.49,0,0,0-.48,2.35v0c-.16.07-.7.32-.55.72s1.21.49,1.29.5.71,0,.71,0A1.81,1.81,0,0,1,206.21,139.23Z"/><path class="cls-7" d="M204.67,140.53a1.81,1.81,0,0,1,.45-2.18S203.12,138.62,204.67,140.53Z"/><path class="cls-22" d="M223.51,127.19a7,7,0,0,0-2.62-3.25s-5.55-.24-8.56,1c0,0-.79.32-.48,1s1.59.32,1.59.32a25.32,25.32,0,0,1,6.74-1S221.69,125.13,223.51,127.19Z"/><path class="cls-22" d="M204,125s1.18.16,1.1,1.19-1.91,0-1.91,0-2.92-.65-3.72-.37l.63-1.22S201.87,124.65,204,125Z"/><path class="cls-12" d="M213.11,130.18s1-2,4.54-1.72,3.6,1,3.84,2.14C221.49,130.6,218.34,127.33,213.11,130.18Z"/><path class="cls-12" d="M205.17,130.12s-1.61-2.54-5.75-1.68l-.27.7S201.28,127.74,205.17,130.12Z"/><circle class="cls-12" cx="217.17" cy="130.17" r="1.32"/><path class="cls-21" d="M190.71,194.87l7.39.05s-4.3,12.09-4.35,23.65l2.8.29a14.14,14.14,0,0,0-.29,3.36s-8.33-.39-9.67-.29a18.27,18.27,0,0,1,.22-3.75s1.23,0,2.41.07a73.78,73.78,0,0,1,3.17-19.6l-2.81.07A21.43,21.43,0,0,1,190.71,194.87Z"/><circle class="cls-12" cx="202.27" cy="130.12" r="1.28"/><path class="cls-23" d="M198.28,131.49s-7.82,7-7.35,23.36,11.41,19-9,41.24c0,0-7.85,6.33-9.75,19.4a22.9,22.9,0,0,1,4.76-8.2,37.34,37.34,0,0,0-3.33,16s3.33-12.5,5.47-16c0,0,4.47-8.23,3.09,2.49,0,0,1.62-7.16,4.52-10,0,0,15-12.19,16.41-21.88a7.7,7.7,0,0,0,1.9-5.47s-1-9-1-14.51c0,0-2.84-4.28-4.87-5.47,0,0-4.15-5.53-3.46-12.13C195.69,140.35,197.67,133.16,198.28,131.49Z"/><path class="cls-23" d="M228.27,162.34s4.16-5.94,4.4-16.53c0,0,3.33-22.21-4.4-26.56,0,0,2.62,4.8,2.85,8.25,0,0,.28,8.11.83,14.62,0,0-1.07,2.14-2.14.48,0,0-.71,5-1.55,8.2Z"/><path class="cls-23" d="M208.65,111.45s4.16-9,13.83-4.72a6.28,6.28,0,0,0-.87,4.72A14.22,14.22,0,0,0,208.65,111.45Z"/><path class="cls-5" d="M265.44,327.26s1.9-7-1.59-16.8c0,0-2.38-4.76-1.35-14.11,0,0-7.45,8.25-43.72,14.74,0,0,24-2.54,23,6.66s-2.19,9.55-3,19.91a59.94,59.94,0,0,0,10.76-1.36s1.19-.3,2.94-.67a28.73,28.73,0,0,1,11.33-1.39A8.26,8.26,0,0,0,265.44,327.26Z"/><path class="cls-3" d="M204.08,118.58s5.44-7,17.63-5.62l-.1-1.5a14.58,14.58,0,0,0-13,0A59.87,59.87,0,0,0,204.08,118.58Z"/><path class="cls-2" d="M260.61,262.51a16.85,16.85,0,0,0-3.73,2.13s-4-.32-5.07-2.85c0,0-4.6-4.28-8.24-5.55a52.42,52.42,0,0,0-5.07-7,39.71,39.71,0,0,0-7-2.22,39.4,39.4,0,0,0-4.76,1.43,1.61,1.61,0,0,0-1.11,2.54c1.11,2.06,4.76,1,4.76,1a23.44,23.44,0,0,0,3.88,1.27s2.44,2.38,1.42,4.44l-5.22-.4s-2.38.32-6.5,1.27c0,0-5.87,1.19-5.15,3.88.43,1.63,6.1.57,7.53.09l5,.07,4.35.63-4.83.32-6.18,1.11s-5.55.48-5.55,2.38,3,1.74,5.71,1.74h10.85L231.2,270l-4.76,1s-3.8.16-3,1.9,3.8,1.9,6.5,1.59a93.73,93.73,0,0,1,10.15.13s6.66,4,11.41,5.42l7-1.74a89.54,89.54,0,0,0,10.46-2.38S265.44,267,260.61,262.51Z"/><path class="cls-2" d="M150.75,310.13s1-3.09,6.34-2.62,6.66,2.62,6.66,2.62a16.6,16.6,0,0,0-.55,7.61c.75,3.8,3.8,5.15,3.65,13.32s.55,10.15.55,10.15.32,2.85-1.9,2.54-3.09-1.59-3.73-5.39.24-4.52-.87-8.88c0,0-.08,4-.55,7.53,0,0,.48,2.22.79,4.28s3.17,5.07,3.17,5.07,3.09,1.51,1.82,4.36c0,0-2.14,1.51-4.52-.79a6.67,6.67,0,0,1-7.21-2.77,11,11,0,0,1-5-8.09c-.63-5.63,1.66-18.15,1.66-18.15A58.82,58.82,0,0,0,150.75,310.13Z"/><path class="cls-3" d="M151.58,423.84c.43,13.67-3.61,22.88-3.61,22.88l3,.88,5.89-2.64s6.18-15.46,4.76-31.51l-8-.59Z"/><path class="cls-3" d="M255,420.63l-1.22-3.17h-1.64l-6.66,10.46s.16,19.34-3.17,36.3l8.4-2.7S258.79,436.33,255,420.63Z"/><path class="cls-4" d="M166.32,401.45a72.24,72.24,0,0,0-12.72-5.39c-7.13-2.22-14.73-5.69-16.76-10.49a1.29,1.29,0,0,0-1.95.51c-.87,1.35-2.7,3.73-1.9,5.71,0,0-2.22-.24-2.7,4.44s-1.27,5.79,0,12-2.3,5.39,1.66,10.62,13.4,8.64,22.51,3.65,7.45-12,7.45-12,2.54-2.38,1.66-5c0,0-.32-1.35.87-1.43S166.2,402.72,166.32,401.45Z"/><path class="cls-4" d="M253.48,401s-5.43-4.75-19-1.35c0,0-9,2-14.66.4,0,0-1.11-.24-.4,1.59s.08,2.54.08,2.54a1.71,1.71,0,0,0,0,1.74c.55.87-.32,2.85-.32,2.85s-1,2.3.71,3.25c0,0,1,.08.79,4.6a10.66,10.66,0,0,0,2.77,7.53,1.34,1.34,0,0,0,1.27.4c1-.08.4,1.59.4,1.59a6.81,6.81,0,0,0,.63,2.7c.63,1.27,4.76,6.18,13.87,3.25S257,424,256.09,416.67a3.32,3.32,0,0,0-2-2.38,7.8,7.8,0,0,0-1.35-6.26s1.35-.48.87-3.17A10.13,10.13,0,0,1,253.48,401Z"/><path class="cls-4" d="M227.73,458s8.46,5.87,23,3.57c0,0,1.35,0,.55,2.06s-8.24,21.64-8.64,28.69a7.08,7.08,0,0,0,0,1.72l-9.51,4.1-8.8-5.71.71-6.18s2.87-7.73,1.68-24.77c0,0-.91-5,.08-4.68l1,.31Z"/><path class="cls-4" d="M157.09,444.22s1.11-.13.63,1-7,20.85-5.47,30.2l.75,7.25-12.17,1.7-5.07-1.9-6-8.16s3-18.47,1-33.69c0,0-.29-1.27,1.16-1.27l-.13,1.74s3.92,5.07,12.07,5.55S156.06,445.78,157.09,444.22Z"/><path class="cls-5" d="M154.45,445.83a15.22,15.22,0,0,1-6.49.88,1.13,1.13,0,0,1,.64,1.46c-.36,1.07-4.44,20-4.12,28.58a11.6,11.6,0,0,1,0,5.08l2.28,1.7,6.26-.88-.75-7.25c-1.51-9.35,5-29.09,5.47-30.2.22-.52.09-.77-.1-.88l-.53-.1A4.89,4.89,0,0,1,154.45,445.83Z"/><path class="cls-5" d="M250.7,461.53a41.56,41.56,0,0,1-8,.5h0a2.25,2.25,0,0,1,.66,2.19c-.36,1.31-6.06,20.57-8.44,33.05H235L242.6,494a7.08,7.08,0,0,1,0-1.72c.4-7.05,7.85-26.63,8.64-28.69S250.7,461.53,250.7,461.53Z"/><path class="cls-24" d="M143.79,500.49s3.51,1.9,9.33-3.21,6.46-4.64,4.72-9.75a26.86,26.86,0,0,0-4-7.85,9.25,9.25,0,0,1-.59-3.21c0-1.78-1.07-1.68-1.07-1.68s1.78,7.51-5.71,7.15-9.63-1-10.7.52c0,0,0-9.43-4.76-8.6s-4-.05-4-.05-2.85-.19-1,3.14.83,5.35.83,5.35A78.33,78.33,0,0,0,121.26,497s-4.16,5-7.73,8.68-5.35,5.59,1.43,9.27,20.81-1.07,23.07-5.71A49.18,49.18,0,0,1,143.79,500.49Z"/><path class="cls-24" d="M205,515.35s-3.33,1-1.31,5c0,0,6.66,7.61,23.9,5a11.8,11.8,0,0,0,7.25-4c2.85-3.57,11.18-2.56,9.51-9.78a79.1,79.1,0,0,1-1.19-10.67c0-4,1.45-6.3-.58-7.49a8.42,8.42,0,0,1-6.31,2.5s5.23-4.28.24-5.35A61,61,0,0,1,225,486.22s-2.79-1.9-3.39.83,2.14,4.93-2.38,12.69c0,0-6.06,7-8.92,10.73A17.07,17.07,0,0,1,205,515.35Z"/><path class="cls-20" d="M264.57,267.58c-.17-.29-.31-.53-.39-.68l.23.43Z"/><path class="cls-20" d="M264.18,266.9l-.1-.19Z"/><path class="cls-20" d="M307.44,223.95c3,5.6,1.92,6.44,1.92,6.44a7,7,0,0,0-3.65,1.59c4.44-.48,6,1.9,6,1.9a21.54,21.54,0,0,0-17,4.76A24.86,24.86,0,0,1,309.52,236c-5.55-.28-7.77,1.67-7.77,1.67a9,9,0,0,1,7.77.83c-6.5,4.28-8.88,11.41-13.16,15.22s-11.89,6.82-11.89,6.82c-2.06-1.27-8.56-3-8.56-3a30.73,30.73,0,0,1,7.13,3.8c1.27.79-1.27,2.22-1.27,2.22-6.34,4.12-10.3,5.23-10.94,3.31s-3.65-4.33-3.65-4.33c2.2,2.67,4.12,8.15,1.74,8.63-1.57.31-3.18-1.72-4.09-3.13a59.82,59.82,0,0,1,4.09,7.89c27.58-7.85,49.46-28.77,49.46-28.77C317.62,239.88,313.37,231.88,307.44,223.95Z"/><path class="cls-20" d="M191.65,226.64s7.61-2.17,14.74,0Z"/><path class="cls-3" d="M268.93,275.89a55.83,55.83,0,0,0-3.47-7s1.31,5-5.56,7c0,0-1.55.24-1.66-2.62s.36-3.69-1-7.37c0,0,.59,7.49-.83,10.7,0,0-3.21,2.14-4.76,2,0,0-9.16-3.21-11.41-4.76,0,0-6.38-.85-10.23-.12,0,0-5.21.72-6.71-1.48h0a1,1,0,0,0,.09.61c.79,1.74,3.8,1.9,6.5,1.59a93.72,93.72,0,0,1,10.15.13s6.66,4,11.41,5.42l7-1.74A89.55,89.55,0,0,0,268.93,275.89Z"/><path class="cls-3" d="M230.71,268.22c-5.46.24-11.1.72-11.5-1.51h0v.67c.39,1.49,3.16,1.36,5.65,1.36h10.85l-2.11.59h0a37.69,37.69,0,0,1,5-.59S236.18,268,230.71,268.22Z"/><path class="cls-3" d="M231.72,261.92a31.85,31.85,0,0,0-8.39.64c-3.3.58-4.33-1.12-4.4-1.25a1.64,1.64,0,0,0-.09,1.1c.43,1.63,6.1.57,7.53.09l5,.07,4.35.63h2A14.78,14.78,0,0,0,231.72,261.92Z"/><path class="cls-3" d="M258.65,331.85l-19.82,5.8s-3.84,22.89-3.12,39.22-.09,22.47-.09,22.47,10.64-2.82,16.67,1.15c0,0,.77-15.85,3.71-26.63s7.86-39.63,7.86-39.63Z"/><path class="cls-3" d="M237.72,257.88a7.59,7.59,0,0,0-2.79-5.11s-3.51-1.19-4.34-1.55c0,0-3.82,1.5-5.24-1.3a2.19,2.19,0,0,0,.31,1.08c1.11,2.06,4.76,1,4.76,1a23.43,23.43,0,0,0,3.88,1.27s2.44,2.38,1.42,4.44Z"/><path class="cls-5" d="M208.06,329.16s1.9-8.27,6.06-12.16c0,0-10.21,5.47-15,20.94l8.91,2.95S207,332.79,208.06,329.16Z"/><path class="cls-3" d="M172.86,395.38c2.62-4.76,12.6-18.43,16.88-22,0,0,12.82-15.63,19.14-24.25h0l-.83-8.25-8.91-2.95a330.08,330.08,0,0,1-26.6,42.27s-9.22,15-13.17,17.95l6.95,3.3A13.07,13.07,0,0,0,172.86,395.38Z"/><path class="cls-3" d="M168.26,345.49c1.27-.63,1.11-3.33,1.27-12.37,0-2.51-.17-6.09-.51-10-.06-.74-4.65-1.49-4.72-2.25l-10.94,25.5,10.94-25.5c.75,3.8,2.7,2,2.54,10.15s.55,10.15.55,10.15.32,2.85-1.9,2.54-3.09-1.59-3.73-5.39.24-4.52-.87-8.88c0,0-.08,4-.55,7.53,0,0,.48,2.22.79,4.28s3.17,5.07,3.17,5.07,3.09,1.51,1.82,4.36c0,0-2.14,1.51-4.52-.79a6.67,6.67,0,0,1-7.21-2.77,7.84,7.84,0,0,1-1-.74c3.72,6,14.43,5.74,16.17,4.79S168.26,345.49,168.26,345.49Z"/><path class="cls-3" d="M161.61,349.93a46.55,46.55,0,0,1-5.23-6.34,26.31,26.31,0,0,1-3-7.27,21.39,21.39,0,0,0,2.38,7.83,25,25,0,0,0,5,5.79Z"/><path class="cls-3" d="M154.39,347.15a27.46,27.46,0,0,1-3.88-8.4,54,54,0,0,0,2.85,7.66Z"/><path class="cls-5" d="M159.38,398.15c2,.78,2.43,4.84,1.12,5.79s-7,0-7,0c4.16,1.31,5.89,1.19,5.89,1.19,1.49,3.93-2.56,5.47-2.56,5.47-1.19,1.9-7.61,1.43-7.61,1.43a11.75,11.75,0,0,0,7.61,0s-2,6.78-8.84,8-13.75-2.14-13.75-2.14c3.57,3.33,10.58,3.8,12.72,3.8a3.19,3.19,0,0,1,2.85,1.2c-8.06,2.67-17-3-17.11-3.1,4.3,4.72,13.18,7.5,21.79,2.78,9.12-5,7.45-12,7.45-12s2.54-2.38,1.66-5c0,0-.32-1.35.87-1.43s1.74-1.43,1.86-2.7A68.58,68.58,0,0,0,159.38,398.15Z"/><path class="cls-5" d="M254.11,414.29a7.8,7.8,0,0,0-1.35-6.26s1.35-.48.87-3.17a10.13,10.13,0,0,1-.16-3.88s-5.13-4.44-17.85-1.61c.1.16,3.35,5.46,3.94,8.74,0,0-3.92-.24-6.3,1,0,0,3.57.36,6.3,1,0,0,3.45,5.94,3.57,10.46,0,0-2,1.78-6.66,2.62,0,0,4.52.83,7.73-.83a20.4,20.4,0,0,1,1.26,7.51h0c6.49-3,11.37-7.42,10.63-13.1A3.32,3.32,0,0,0,254.11,414.29Z"/><path class="cls-25" d="M236.71,512.86s-1.9-4.4-8.09-2.73a26.48,26.48,0,0,0,5.71-6.66,4,4,0,0,1,.59,3.21,17,17,0,0,0,8.22-6.65,22.8,22.8,0,0,1,.06,3s-6.28,2.62-5.32,7.26Z"/><path class="cls-26" d="M234.81,521.3c2.85-3.57,11.18-2.56,9.51-9.78,0,0-.2-1.13-.44-2.73-1.74,1.58-6.42,5.91-7.45,7.52-1.27,2-7.77,4.51-7.77,4.51-12.68,2.54-14.58-2.06-14.58-2.06a9.4,9.4,0,0,0-7.56-4.43,10,10,0,0,1-1.56,1s-3.33,1-1.31,5c0,0,6.66,7.61,23.9,5A11.8,11.8,0,0,0,234.81,521.3Z"/><path class="cls-15" d="M233.5,496.57a24.2,24.2,0,0,1-5.94,11.35,118.67,118.67,0,0,0-9,10.53s-5.23,1.68-5.94,2.51-2.77,2.91,0,4a37.83,37.83,0,0,0,15,.39,11.8,11.8,0,0,0,7.25-4c2.85-3.57,11.18-2.56,9.51-9.78a79.1,79.1,0,0,1-1.19-10.67c0-4,1.45-6.3-.58-7.49a8.42,8.42,0,0,1-6.31,2.5s5.23-4.28.24-5.35C236.47,490.5,238.49,493.71,233.5,496.57Z"/><path class="cls-26" d="M153.13,497.28c5.83-5.11,6.46-4.64,4.72-9.75a30.81,30.81,0,0,0-3-6.35c-2.14,6.17-11.95,14.53-11.95,14.53a52.5,52.5,0,0,1-8.4,12.43c-8.32,6.46-15.41,3.65-15.41,3.65-4.1-4.42-7.81-3.59-7.81-3.59-1.7,2.27-1.44,4,3.65,6.8,6.78,3.69,20.81-1.07,23.07-5.71a49.18,49.18,0,0,1,5.77-8.8S147.3,502.39,153.13,497.28Z"/><path class="cls-25" d="M141.59,496.09s-2.73-3.5-9.51-1.39c0,0,5-4.32,6.3-7.64a7,7,0,0,1,.12,3.45,36.18,36.18,0,0,0,11.3-8.2,4.79,4.79,0,0,1,0,2.73s-7.13,2.62-6,7.85Z"/><path class="cls-15" d="M153.13,497.28c5.83-5.11,6.46-4.64,4.72-9.75a26.86,26.86,0,0,0-4-7.85,9.25,9.25,0,0,1-.59-3.21c0-1.78-1.07-1.68-1.07-1.68s1.78,7.51-5.71,7.15l-2-.11h0s2.24.13,1.76,3.74-1.07,6.34-2.44,8.54-8.18,17.05-14,20.21l.48.27c3.75-1.36,6.84-3.35,7.8-5.32a49.18,49.18,0,0,1,5.77-8.8S147.3,502.39,153.13,497.28Z"/></g><g id="Laag_2" data-name="Laag 2"><path class="cls-2" d="M382.24,398.22v21s3.81,12.17,3.41,21.48c0,0,4.77,45.69,9.89,67.51l-6.65,6.14L373,506.82s-16.71-39.21-10.57-63.08c0,0-11.59-20.8-14-43.3Z"/><path class="cls-21" d="M318.67,401.29a85.39,85.39,0,0,1-45-3.58s2.18-11,3.71-27.88c0,0-1.53-10.23,1-12.53,0,0,1-2.3.26-9.72s3.58-19.44,3.58-19.44,1.28-9,2.3-12.05v-4.82l10-9.3,19.69,1.11,54.22,4.35,9.29,7.48s1.45,7.35,3.5,13.74c0,0,3.07,21.48,2,40.92,0,0,0,18.16-1,28.64a155.48,155.48,0,0,1-44.69,2.3s-1.64-16.62-3-22.25c0,0-2.15-10.23-4.2-23.78,0,0-3.32,15.6-6.65,25.32A138.69,138.69,0,0,0,318.67,401.29Z"/><path class="cls-27" d="M316.78,152.07a142.77,142.77,0,0,0-32.22,12.4s-15.69,2.73-9.38,30.52c0,0-2,15.69,0,25.4,0,0,1.36-9.89,16.2-9.55s13.3,9.55,13.3,9.55l-14.83,31.71s.68,9.72,2.73,14c0,0,2.22,0-.85,3.75s1.36,7.67-3.58,16.88c0,0-2.39,3.92-1.36,11.93,0,0,1.36,1.88-.51,5.8a15.31,15.31,0,0,0-1.7,6.82l12.1,1a8.3,8.3,0,0,0,6.48-2.73c2.73-3.07,5.46-1,7.33,1.71s13.47,6,54,4.43a10.19,10.19,0,0,0,4.77-1.36c2.22-1.36,3.58.85,7,.68s4.26-.68,4.26-.68A15.6,15.6,0,0,0,378,308c-2-2.73-.34-15.17-.34-15.17s-1.19-16.54-6.82-30.52,4.43-27.45,4.43-27.45l18.58-10.4A32.79,32.79,0,0,0,392,211.87a19.82,19.82,0,0,1-.85-11.59s1-21.9-11.42-28.08S358,160.53,349.94,156.13"/><path class="cls-12" d="M341.19,88.91s.64-10,23.15-2.43c0,0-4.35-.13-7,1.15,0,0,11.12,2.56,15.6,17.39a4.82,4.82,0,0,0-3.32-1.53s5.24,8.18,1.53,19.56a12.11,12.11,0,0,0-2.17-5.5S364.58,127,359,132.94L324.16,134s-1.66-11.05-3.42-14.81l-2.14-1.39s-1.44-6.79,1.63-11.65a6.61,6.61,0,0,0-3.45,2.94s1.92-13.3,7.16-16a4.81,4.81,0,0,0-4.22-.77s10.23-9.59,19.56-3.45c0,0,1.41-3.6-1.79-5.25C337.49,83.66,342.21,82.64,341.19,88.91Z"/><path class="cls-28" d="M327.54,168s-17.07-7.72-28.33-2.54-15,6.76-15,6.76,1,13.42-2.22,23.31a107.72,107.72,0,0,0,.86,16.54,12.39,12.39,0,0,0-7.68,8.35s-2-7.16,0-25.4c0,0-7.16-25.57,9.38-30.52,0,0,20.63-10.31,32.22-12.4C316.78,152.07,318.19,159.89,327.54,168Z"/><path class="cls-29" d="M318.29,156.44S297.6,163.55,291.2,168h-4.86l2.43-4.14s8.19-5.43,28.2-11Z"/><circle class="cls-18" cx="377.12" cy="528.1" r="1.18"/><circle class="cls-18" cx="382.36" cy="531.09" r="1.35"/><circle class="cls-18" cx="394.51" cy="541" r="1.35"/><circle class="cls-18" cx="399.75" cy="544.06" r="1.35"/><circle class="cls-18" cx="406.33" cy="545.73" r="1.35"/><circle class="cls-18" cx="413.05" cy="545.73" r="1.35"/><path class="cls-2" d="M316.78,152.07s5.8,19.78,22.85,20.12,10.23-15.34,10.23-15.34a58.32,58.32,0,0,1,1.35-7.33s5.73-3.84,8.16-9c0,0,3.71-6.39,4-12.4s7.67-22.76-5.63-23.78c0,0-8.44-7-15.73-7.29,0,0-4.35,15.73-14.19,21.61,0,0-1.66-7.42-6.52-6.27s-2.81,19.69,3.32,16.37C324.58,128.8,324.06,147.85,316.78,152.07Z"/><path class="cls-3" d="M351.2,149.52s-6.55,4.35-18.82.9a12.07,12.07,0,0,0,5.11,5.37,9.91,9.91,0,0,1-6.78,1.92s-2.12,2.53-3.17,10.28c0,0-8.46-6.19-10.77-15.91,0,0,6.9-3.32,7.8-23.27,0,0-5.39,3.43-6-11,0,0,0-4.62,2.65-5.38s5.24,1,6.52,6.27c0,0,.26,17.13,6.9,24.81A23.12,23.12,0,0,0,351.2,149.52Z"/><path class="cls-28" d="M300.59,192.58s10.13,29,40.61,45.09l-24.42,6.71-20.63-10.3,8.35-20.17Z"/><path class="cls-7" d="M324.83,123.81a3.54,3.54,0,0,1,0-4.86s-.26-5.24-2.94-4.35c0,0-1.79.15-1.79,4.55,0,0,.57-2.77,2.37-2.89,0,0,.8-.5,1.09,2.3C323.55,118.57,320.36,122.15,324.83,123.81Z"/><path class="cls-21" d="M349.85,156.85s14.32,8.06,26.08,14.36l2.13,2.47-3.67.34L350.9,160.4Z"/><path class="cls-12" d="M347.46,119.16s-2.69-8.13-10-2.76C337.49,116.4,342.86,113.61,347.46,119.16Z"/><path class="cls-12" d="M355.39,121.9s5.3-5.71,7.29,1.92C362.68,123.81,360.63,118.7,355.39,121.9Z"/><circle class="cls-12" cx="342.48" cy="116.86" r="1.28"/><circle class="cls-12" cx="358.4" cy="121.83" r="1.28"/><path class="cls-7" d="M347.71,127s-2.26-.34-2.94,2.6C344.77,129.56,343.79,125.08,347.71,127Z"/><path class="cls-7" d="M346.19,130.4s.9-2.92,3.32-1.3c0,0,.91,1.88-2.55,1.3Z"/><path class="cls-12" d="M337.49,111a7.39,7.39,0,0,1,8.69-.77c5.2,2.73,2.81,4.3,2.81,4.3S344.05,108.56,337.49,111Z"/><path class="cls-12" d="M364.83,117.82s.75-4.41-7.71-2.24c0,0-.58.19-.77,1.58C356.35,117.17,361.51,114.51,364.83,117.82Z"/><path class="cls-7" d="M353.09,125.09s2,6.86-1.89,7.16C351.2,132.25,353.9,130.51,353.09,125.09Z"/><path class="cls-2" d="M276.34,398.62s-1.77,11-2.66,20.91c0,0-2.94,10.57-2.94,19.44,0,0-2,31-6.82,66.49l4.77,8.87,17-6.82s13-38.53,8.87-65.13c0,0,9.89-12.72,16-41Z"/><path class="cls-3" d="M276.34,398.62s-1.77,11-2.66,20.91c0,0-2.94,10.57-2.94,19.44,0,0-2,31-6.82,66.49l4.77,8.87,2.3-7.67L277,444l4.83.28,6.27-2c-3.62,1.19-10.14-4.13-10.14-4.13,3.15-5.29,7.38-24.85,6.56-30.14,0,0,10.4-2.73,26.08-6.53Z"/><path class="cls-7" d="M354,132.57a4.46,4.46,0,0,0-.09-3S355.86,130.51,354,132.57Z"/><path class="cls-29" d="M292.45,332.1,295,322s11.51,4.86,28.9,1.28c0,0-19.44-1-28.13-7.17,0,0,20.51.48,41.3-.06l-20.33-4.78-13.55-8.19-8.44,5.63-10.23,2.56v4.82c-1,3-2.3,12.05-2.3,12.05s-4.35,12-3.58,19.44-.26,9.72-.26,9.72c-2.56,2.3-1,12.53-1,12.53-1.53,16.88-3.71,27.88-3.71,27.88a85.39,85.39,0,0,0,45,3.58s-19.28-.77-29.77-8.69c0,0-3.32-11.76,3.07-19.44,0,0-7.42-2.81-7.42-6.39a31.8,31.8,0,0,0,15.34,5.11s-14.58-7.67-9.72-30.94Z"/><path class="cls-7" d="M353.3,130.51s1,1.75-1.49,1.74Z"/><path class="cls-11" d="M339.62,133s.46,5.38,7.66,7a8,8,0,0,0,6.62-1.58l-3.37-.72L347,136.43l-4-1.11-2.22-.68Z"/><path class="cls-28" d="M345.16,316.1c-25.83-2.33-34-13-34-13-7.16-8.69-15-9.21-15-9.21,7.5-3.58,16,1.53,16,1.53,12.28,7.93,19.44,7.67,19.44,7.67a25.73,25.73,0,0,1-13.32-10c28.36,10.67,49-30.5,49-30.5l-13.32-7.73-23.85-5.2-21.23-.31-19,2.73s.9,10.55,2.73,14c0,0,2.22.11-.85,3.75,0,0-1.66.9-1.09,6.4s-2.49,10.48-2.49,10.48-2.41,4-1.36,11.93c0,0,1.13,2.24-.51,5.8s-1.47,3.84-1.68,6l0,.82,12.1,1s4.35.3,6.48-2.73c0,0,3.07-3.72,7.33,1.71S345.16,316.1,345.16,316.1Z"/><path class="cls-10" d="M353.9,138.43a7.82,7.82,0,0,1-3-1.36,20.79,20.79,0,0,0-8.48-2.43,3.66,3.66,0,0,1-2.77-1.67,3.4,3.4,0,0,0,2.64,2.73,36.19,36.19,0,0,1,8.06,2.39A4.3,4.3,0,0,0,353.9,138.43Z"/><path class="cls-16" d="M393.84,224.49s-1.53-7.16-14.32-6c0,0-9,.17-12.28,4.26v.85s-.51,7,3.58,16.71L319,243.07l-34.8-3.77s-.75,2.86,1.73,3.77c0,0-3.58.68-3.75,3.41,0,0-.34,1.7,1,1.88,0,0-2.22,1-2.22,2.73,0,0,.48,2.92,7.84,2a74.83,74.83,0,0,1,17,1.63,73.68,73.68,0,0,0,19,1.1l4.78,1.34a68.48,68.48,0,0,1,12.44,2.5c5.29,1.78,21.14,4,37,2.29,0,0,7.16.85,8.35-5.63s6.52-17.53,6.52-17.53A89.91,89.91,0,0,0,393.84,224.49Z"/><path class="cls-30" d="M393.84,224.49s-1.53-7.16-14.32-6c0,0-9,.17-12.28,4.26a42.64,42.64,0,0,0,3.58,17.56l23.06-1.51A89.91,89.91,0,0,0,393.84,224.49Z"/><path class="cls-31" d="M372.58,219.63a37.37,37.37,0,0,0,1.65,16.25l-4.6.46a37.53,37.53,0,0,1-2.39-13.55A8,8,0,0,1,372.58,219.63Z"/><path class="cls-2" d="M275.18,220.4s.72-8.55,13.32-9.48,16.69-.07,17.88,8.45a26.4,26.4,0,0,1,0,9s9.21.17,25.06,7c0,0,6.48,3.41,21.65,2.39,0,0,9.46-.34,16.54-1.45a25.83,25.83,0,0,1,8.52-5.71,31.13,31.13,0,0,0,5.29-3.41c1.79-1.62,2.73-.17,6.39-1.88a1.31,1.31,0,0,1,2,.26c.79,1.28.62,3.83-4.32,5.71a5.88,5.88,0,0,0-2.56,2.78l-.43,1.06a37.24,37.24,0,0,0,7.08,2s4.6,3.32,6,4.43a2.9,2.9,0,0,1,1.28,2.73,2.55,2.55,0,0,1-2.47,2.47s1,.51.51,2.81-2,2-2,2,.94,1.19.68,2.13a2.85,2.85,0,0,1-2.39,2.47,1.82,1.82,0,0,1,.73,2.3c-.56,1.62-4.22,1.19-6.35.51,0,0-9,.51-14.66-3.32s-12.53-1.45-17-.77-40.8,5.38-52.21-1.28c0,0-11.51.38-14.19-8.82C289.41,244.9,278.2,235.53,275.18,220.4Z"/><ellipse class="cls-21" cx="353.92" cy="191.18" rx="6.92" ry="7.76"/><path class="cls-28" d="M290,171.47s12.51,6.18,12.31,27.47A35.31,35.31,0,0,1,306,217.18l-1.46-3.26s-2.73-21-19.78-25.91a25.76,25.76,0,0,1,13.47,7.16s-3.92-11.42-15.86-13.64c0,0,7.31-.85,13.64,7.5,0,0-3.58-10.91-13.64-14.15,0,0,1.87-.88,9.89,4.6,0,0-6-9.36-9.89-11.5a31,31,0,0,1,13.81,14.57S296.49,178.46,290,171.47Z"/><path class="cls-28" d="M296.15,201.38a58.74,58.74,0,0,1-17-10.2A24,24,0,0,0,296.15,201.38Z"/><path class="cls-28" d="M290.18,203s-9.89-2.56-13.47-5.46C276.71,197.55,276.88,204.56,290.18,203Z"/><path class="cls-28" d="M367.24,222.78a21,21,0,0,1,1.53-7.67c1.7-4.6,7-25.91,0-41.09,0,0,4.76,22-1.54,40.75C367.24,214.77,366.22,217.67,367.24,222.78Z"/><path class="cls-28" d="M372.11,197.55s4.51-1.7,8.26-7.84c0,0-2.25,4.48-8.37,9.23,0,0-1.4,11.91.58,20.69a9.68,9.68,0,0,0-5.34,3.16v-4l1.58-7.54,1.81-8,.45-5.46Z"/><path class="cls-28" d="M371,206.05s9.84-5.56,16.15-7.12c0,0-7.73,3.86-16.56,9.25"/><path class="cls-28" d="M374.23,210.63s9.21-1.05,15.69-7.06C389.92,203.56,385.65,211.26,374.23,210.63Z"/><path class="cls-28" d="M349.85,225.28s-11.37-2.9-22.31,0A25.93,25.93,0,0,1,349.85,225.28Z"/><path class="cls-3" d="M389,258.71c-1.53-.38-2.69-.64-2.69-.64a23.39,23.39,0,0,1-11-3.2c-6.14-5.11-8.55-4.48-8.55-4.48-9.07,1.92-21.49,0-21.49,0-19.56-3.25-31.33-1.79-35-1.15a10.76,10.76,0,0,1-6.9-1.41c-3.07-4-8.18-7.93-10.23-9.59a10.64,10.64,0,0,1-2.94-4.17c-2-8.64-7.32-22-7.32-22-7.19,2.57-7.68,8.35-7.68,8.35,3,15.13,14.24,24.51,14.24,24.51,2.69,9.21,14.19,8.82,14.19,8.82,11.41,6.66,47.69,2,52.21,1.28s11.34-3.07,17,.77,14.66,3.32,14.66,3.32c2.13.68,5.8,1.11,6.35-.51C392.48,259.48,390.56,259.1,389,258.71Z"/><circle class="cls-18" cx="282.95" cy="529.28" r="1.18"/><circle class="cls-18" cx="277.38" cy="533.43" r="1.35"/><circle class="cls-18" cx="266.05" cy="546.2" r="1.35"/><circle class="cls-18" cx="260.66" cy="548.34" r="1.35"/><circle class="cls-18" cx="255.18" cy="549.12" r="1.35" transform="translate(-289.89 285.41) rotate(-39.26)"/><circle class="cls-18" cx="249.01" cy="548.34" r="1.35"/><path class="cls-3" d="M384.55,235.14a2.16,2.16,0,0,1-.51-3.41s1.28-1.28,2.17-2.3c0,0,4.16.11,6-2.82,0,0,.88,2.87-4.66,4.7C387.53,231.31,384.93,232.8,384.55,235.14Z"/><path class="cls-3" d="M391.32,242s1.67,0,2.82,2.43a10.27,10.27,0,0,0,2.26,2.43l1.36-.45a17.14,17.14,0,0,1-2.22-2S393.5,241.71,391.32,242Z"/><path class="cls-3" d="M394.86,251.68s-.92-1.09-2.32-2.43a5.8,5.8,0,0,0-3-1.53,4.73,4.73,0,0,1,3.39.83,30.94,30.94,0,0,1,2.92,2.89Z"/><path class="cls-3" d="M377.7,399.08s-9.39,7.21-18.64,8.51c0,0,2.27,23.53,9.32,35.12,0,0-1.7,32.39,9.32,62.4l-4.66,1.7s-14.66-31-10.57-63.08c0,0-13.3-28.3-14-43.3Z"/><path class="cls-1" d="M373,506.82s-2.81,12.1,1.53,20a27.09,27.09,0,0,0,7.93,4.35,15,15,0,0,1,6.65,5.88s7.67,10.74,26.08,9,7.67-14.58,3.32-15.34c0,0-11.76-10.06-17.13-13l-5.88-9.55Z"/><path class="cls-3" d="M393.16,256.29a27.24,27.24,0,0,1-4.33-2.81s2.31,0,5.05,2.61Z"/><path class="cls-28" d="M351.2,305.13s11.61-.77,17.24-6.9C368.43,298.23,365.93,308.2,351.2,305.13Z"/><path class="cls-29" d="M377.7,399.08s-20.26-7.77-27.42-16.46c0,0,8.75.51,13.71-1.79,0,0-9.87-1-15.5-4.6a31.31,31.31,0,0,1,3.32-11.76s-7.16-6.27-9.72-12.08a47.36,47.36,0,0,1-5-10.42,31.39,31.39,0,0,1-6.78,12.53s2.9,16.28,4.2,23.78c0,0,2.07,15.09,3,22.25C337.56,400.52,358.58,403.27,377.7,399.08Z"/><path class="cls-27" d="M387.43,456.27c-7.43,9.8-26.32,0-26.32,0,.35,21.06,11.92,50.55,11.92,50.55s2.3,11.25,7.25,10.91a24.18,24.18,0,0,1,4.58-4,39.82,39.82,0,0,1,10.68-5.54C391.11,488.07,387.43,456.27,387.43,456.27Z"/><path class="cls-28" d="M273.68,466s8.83,2.56,16.75-1.79c0,0-4.36,5.37-16.75,4.35"/><path class="cls-28" d="M367.92,464.2a29.43,29.43,0,0,0,16.88,0s-2.3,3.45-16.88,2.24"/><path class="cls-21" d="M388.64,534.4s5.63-4.66,8.18-6.29l2.93,2.2s-7.15,4-9.06,7.29Z"/><path class="cls-21" d="M384.87,531.09s3.64-3.27,7.93-6.41l2.43,1.85s-5.56,4.61-8,7C387.23,533.57,386.34,532.51,384.87,531.09Z"/><path class="cls-21" d="M381,528.1s5.52-5.47,7.12-6.62l2.69,2.11s-5.25,4.09-7.1,6.59Z"/><path class="cls-1" d="M282.2,514.48a26,26,0,0,1,2.86,13s-.64,1.64-5.75,4.84-8.72,10.51-8.72,10.51-9,10.18-25.33,4.69c0,0-7.6-4.09,1.45-12.57s13-14.06,15.92-23.21"/><path class="cls-27" d="M269.36,456.27c-1.23,15.2-5.44,49.19-5.44,49.19l2.6,5.87-3.89-.59-.9,3.58a17,17,0,0,1,6.81,1.56l2.63,1.37a20.19,20.19,0,0,1,4.33,3.37,13.84,13.84,0,0,0,1.89,1.88,12.78,12.78,0,0,0,4.62-8.09l.36-.09,3.38-6.82c7.84-22.16,9.62-51,9.62-51C276.69,465.79,269.36,456.27,269.36,456.27Z"/><path class="cls-18" d="M372.32,511.69a14.06,14.06,0,0,0,3.15,6.59,14.72,14.72,0,0,1,3.26,6.39,27.28,27.28,0,0,0,5.5,6c2.81,2,4,3,4.9,4.47a22,22,0,0,0,8,7.19c4.8,2.68,27.2,5.86,28.17-4.75,0,0,3,7.22-10.08,8.44,0,0-15.86,2.11-25.67-8.44,0,0-2.75-4.31-5.61-5.64a50.36,50.36,0,0,1-9.38-5.1S371.4,522,372.32,511.69Z"/><path class="cls-15" d="M373,506.82s-2.81,12.1,1.53,20a27.09,27.09,0,0,0,7.93,4.35,15,15,0,0,1,6.65,5.88s7.67,10.74,26.08,9-30.37-14.95-31.53-29.54c0,0,0-1.53,3.69-4.5l-7.84,4.75Z"/><path class="cls-28" d="M378.33,510.61a2.44,2.44,0,0,0,1.87-1.41c-2.3-.51-2.5-4.09-2.5-4.09-6.06-16.51-8.28-33.74-9-45.9l-6.9-2.64C360.51,476.47,373,506.82,373,506.82c3.45,13.09,7.25,10.91,7.25,10.91a29.38,29.38,0,0,1,7.66-6C380.34,515.2,378.33,510.61,378.33,510.61Z"/><path class="cls-28" d="M269.2,512.79c3.45-17.44,6.3-52.89,6.3-52.89s-3.48-1.84-6.14-3.63c0,0-3.05,37.42-7.63,58.05l6.81,1.56a22.76,22.76,0,0,1,4.48,2.61A17,17,0,0,0,269.2,512.79Z"/><path class="cls-18" d="M283.6,517.74s.05,1.19-1.54,3.74-2.76,3-3.51,7.47a21.36,21.36,0,0,1-3,4.62s-4.75,6.4-6,8.78-12.85,9-26.46,3a7.32,7.32,0,0,0,2.17,2.1s14.13,5.92,25.33-4.69c0,0,3.87-7.78,8.72-10.51,0,0,4.47-2.59,5.75-4.84A28.56,28.56,0,0,0,283.6,517.74Z"/><path class="cls-15" d="M273,518.49a7.78,7.78,0,0,0-9.34,3c-3.68,5.37-11.1,11.76-14.42,16.11s-3.58,7.69,0,11c0,0-12.28-1.11-4.35-11.81,0,0,13.68-11.72,16.82-22.46C261.73,514.32,268.65,514.47,273,518.49Z"/><path class="cls-21" d="M275.5,533.57s-1.18-5.06-5.78-7L268.06,529s3.69,2,5.32,7.53Z"/><path class="cls-21" d="M272.38,537.92s-1.81-5.77-5-7.52l-1.7,2.34a17.84,17.84,0,0,1,5,7.81Z"/><path class="cls-21" d="M269.55,542.35s-1.88-5.73-4.77-8.78l-2.22,2.93a19.76,19.76,0,0,1,4.73,7.88Z"/><path class="cls-21" d="M313,180s9.63,1.07,13.17,1.56l-.55,4.41-7.5,12.56-5.11-.62,8.78-13.53-9.21-.7Z"/></g></svg>