<svg xmlns="http://www.w3.org/2000/svg" viewBox="0 0 641.94 556.2"><defs><style>.cls-1{fill:#e5af97;}.cls-2{fill:#b1816a;}.cls-3{fill:#b0816b;}.cls-4{fill:#c3977e;}.cls-5{fill:#7f5e4f;}.cls-6{fill:#7f5c4a;}.cls-7{fill:#c5887a;}.cls-8{fill:#6c3834;}.cls-9{fill:#966c5c;}.cls-10{fill:#956b59;}.cls-11{fill:#492813;}.cls-12{fill:#2c130f;}.cls-13{fill:#575656;}.cls-14{fill:#cb9982;}.cls-15{fill:#1e1e1e;}.cls-16{fill:#111110;}.cls-17{fill:#3f3f3f;}.cls-18{opacity:0.25;}.cls-19{fill:#f4bc76;}.cls-20{fill:#e4af79;}.cls-21{fill:#e8b076;}.cls-22{fill:#edb275;}.cls-23{fill:#dba266;}.cls-24{fill:#4c2b12;}.cls-25{fill:#edc6b7;}.cls-26{fill:#7d170f;}.cls-27{fill:#c4b6ae;}.cls-28{fill:#977460;}.cls-29{fill:#e19341;}.cls-30{fill:#e39244;}.cls-31{fill:#9b6936;}</style></defs><title>pingpong master</title><g id="Laag_26" data-name="Laag 26"><path class="cls-1" d="M233.21,97.8,236,91.17l2-7.11a8.66,8.66,0,0,1-1.36-1.44,6.21,6.21,0,0,1-.82-2.18,18.34,18.34,0,0,1,.08-2.28,23.4,23.4,0,0,1-.56-2.95c0-.64.13-2.51.9-3.11s1-1.4,2.64-1.84,7.06,1.59,7.06,1.59l3.91.3.32-1s2.62-3.72,2.73-3.75.49-2.07.57-2.14,3.11-2.87,3.12-3-.2-1-.11-1.14,1.68-.73,1.76-.85A16.8,16.8,0,0,1,259.32,58a10.25,10.25,0,0,0,1.87-1.22c.18-.3.57-.85.53-1.2s.2-1.22.09-1.23-.45.58-.45.58-.26.22-.35.11a2.86,2.86,0,0,1-.07-.81s-.22-.23-.22-.29.15-1.62.15-1.62L259.61,50s-.12-.52,0-.52.57-.22.77.05.23.64.31.63.12-.55.12-.55.56-.06.6,0,.43.56.43.56l3.21,2s5.37,2,6.28,2.53,6.61,3.18,7.9,4.81,3.59,3.82,3.87,5.69.12-1.73.12-1.73-1.7-3.69-1.89-3.89,2.88,3.19,3.33,4.65,1.65,2.7,2.12,4.94a30.7,30.7,0,0,1,.42,5.51L286.67,79s-1.7,2.31-1.76,3.29-.59,7.59-.59,7.59-.56,2.44-.76,2.88-1.17,2.8-1.17,2.8l-1.2,1.87L278.58,101l-1.08,1.57s-1.24,1.87-1.27,2a29.21,29.21,0,0,1-1.42,2.56A21.1,21.1,0,0,1,273,109a5.85,5.85,0,0,1-4,1.46c-2.31-.11-4.53-.66-5.37.43s-3.52,6-4.53,6.42-2.08,2.71-4,7.52-4.14,9.11-4.14,9.11l-.28,3.35s-.94,1.59-.8,2.23-3.31-2.83-3.31-2.83l-5.23-14.48-3.38-10.7s-2.09-8.36-2.46-9S234,99,233.21,97.8Z"/></g><g id="Laag_28" data-name="Laag 28"><path class="cls-2" d="M234.44,94.85s2.58-7.06,3.09-9.19c.24-1,.45-1.47.45-1.61s4.82,2.75,5.35,2.81.81,2.75.67,3-.84-2.31-1.36-2.1-1.55-.26-1.55-.26-1.5-.54-2-.67a1.81,1.81,0,0,1-.78-.43S235.72,93.15,234.44,94.85Z"/><path class="cls-3" d="M267.71,110.37l-2.13-.52-3-1.09-2.77-1.6-2.57-1.37s-3.69-2.79-3.78-2.92-2.91-3-2.91-3l-1.15-1.21-2-2.51s-2.73-4.82-2.84-4.82a6.08,6.08,0,0,0,.39,1.31s1.93,3.74,2,3.88,2.75,3.73,2.82,3.78,3.62,3.39,3.67,3.39,4.35,3.44,4.55,3.72,1.14,1.58.87,2.36a7.65,7.65,0,0,1-1.52,2s-1.51.8-1.42.89a1,1,0,0,0,.58.15c.19,0,2.88-1.13,3.22-1s2.72.49,2.83.53.56-1.12,1-1.31,1.08-.79,1.8-.72S267.71,110.37,267.71,110.37Z"/><path class="cls-4" d="M260.58,115.53l-.91,1.21a3.58,3.58,0,0,1-.86.72,2,2,0,0,0-.5.45c-1.19,1.61-.86,1.76-1.17,2s-1.87,4.16-1.87,4.16a10.34,10.34,0,0,1-.73,1.77,2.22,2.22,0,0,0-.88.26c0,.09-.17,1-.17,1l-1.06,0a13.36,13.36,0,0,0-2.24-1.77c-.34,0-4.53-.28-4.6-.36s-1.62-.51-1.78-1,3.23-1.63,3.23-1.63,4.25-1.7,4.3-1.8,1.41-3.84,2.94-4.12S256.14,115.52,260.58,115.53Z"/><path class="cls-5" d="M240.92,75.69s1.13,0,1.2-.57.46.83.34.93a15.62,15.62,0,0,1-2.71,1.3,1.72,1.72,0,0,0-.87,2.32c.43.61.84,1.47,1.56,1.72s-.5.2-.84-.06a5.07,5.07,0,0,1-1.38-1.57,2.76,2.76,0,0,1,.09-2.45A4.41,4.41,0,0,1,240.92,75.69Z"/><path class="cls-5" d="M237.38,79.58a3.8,3.8,0,0,0-.06-1.35,2.71,2.71,0,0,1,.1-1.42s0-.55-.66-.63.23-.58.23-.58-.2-1.57.36-2.21.55-1.12,1.22-1.37.56.23.56.23l-.72,1.48s-.18.57-.07.66.08-.36.25-.54A12.7,12.7,0,0,1,239.3,72c.44-.62,2.35.86,2.38,1s.3.66.21.78-.55.41-.51.57-.19.36-.19.36.47.1.66-.1a2.52,2.52,0,0,1,.49-.43s0-.61-.06-.63a2.48,2.48,0,0,1-.28-.92c0-.08-.87-1.81-2.11-1.66a3,3,0,0,0-2,1,12.44,12.44,0,0,0-1,1.35,6.19,6.19,0,0,0-.63,1.45,10.26,10.26,0,0,0,.25,2.12c.13.34.44,1.82.44,1.82A1.23,1.23,0,0,0,237.38,79.58Z"/><path class="cls-6" d="M278,92.33s2.09-1.39,2.28-1.63a2.78,2.78,0,0,0,.85-1.5,6.6,6.6,0,0,0-.48-2.07s0,.36.05.44.18.78.18.85,0,.83,0,.83l-.49,1-.53.46a7,7,0,0,0-2,.14c-.31.21-.51.67-.74.54s.16.4.37.38S278,92.13,278,92.33Z"/><path class="cls-6" d="M272.88,89.46s.53.26.7.13.87-.61,1.39-.41a5,5,0,0,1,1.43.86c.13.18.44-.23.44-.23a2.64,2.64,0,0,0-1.9-1.4C273.46,88.06,273,88.66,272.88,89.46Z"/><path class="cls-2" d="M257.92,59.19s-.52-2.42,6.51-1.71,10,3.92,10,3.92.8.71,1.21.65-1.63-.86-1.92-1.67,4.3,2.52,4.3,2.52,2.29,1.76,3,2.46,4.2,4,4.35,4.12S287,71.64,287,71.64s-.59-4.24-.84-5.38-4.1-8-4.1-8l-15-7.62-9.57-3Z"/><path class="cls-2" d="M249.69,73.38S253,69.44,252.58,68s-3.49,3.63-3.49,3.63Z"/><path class="cls-7" d="M267.28,96.71s-.27.47.32,1,2.22,2,2.42,2.17,1.83,1.15,1.83,1.15a20.83,20.83,0,0,1,3.33.51c.24.22,1.46-.9,1.46-.9s.21-.27.26-.36a3.32,3.32,0,0,0,.13-.54l.72-.06a4.28,4.28,0,0,0-.72-3.1c-1.08-1.8-1.06.32-2.74-.88s-1.82,1-6.55.56C267.63,96.26,267.28,96.71,267.28,96.71Z"/><path class="cls-8" d="M267.78,97.65c0-.15.47-.91.66-.89s3.73.62,4.05.75a9.33,9.33,0,0,0,2.66.63c.84.09,1.25,1.27,1.25,1.27l.33,1.12a1,1,0,0,0,.28-.65c0-.22.77-.18.77-.18l0-.5-.78-.29a5.09,5.09,0,0,0-1.47-.89l-2-.49-3.79-1.16a7.45,7.45,0,0,0-2.09-.21c-.32.17-.47.16-.51.34a1.41,1.41,0,0,0,.09.8c.1.09.51.52.51.52Z"/><path class="cls-9" d="M271.23,100.64s0,1.31-.15,1.39-.54.37-.68.29.21.25.57.16a3.61,3.61,0,0,1,1.58-.14c.82.09,1.65.37,2.19.43s.37-.71.43-.78.26-.35.26-.35,0,0-.24-.11a5.07,5.07,0,0,0-1.32-.29c-.46,0-2-.21-2-.21A3.71,3.71,0,0,1,271.23,100.64Z"/><path class="cls-10" d="M249.74,146.44s.6-5.1.52-5.2a11.44,11.44,0,0,1-.29-1.48l-.2-.57s0-.14.07-.28.08-.24.1-.31c.08-.24.14-.32.18-.46a7.31,7.31,0,0,1,.45-.85l.11-1.51.17-1.84,1.21-2.48,1-2.1.6-1.34.55-1.25.28-.69.09-.18s.07,0,.2-.34.23-.66.23-.66l.12-.25s.33.24.34.5a2.73,2.73,0,0,1-.05.56c0,.14-.34,3.54-.34,3.54l0,0,.07.08,0,0,0,.06.06.1.05.12,0,.1v.12l-.17,2.11-.15,2-.1,1.26-.06.29,0,.17-.11.4-.07.22-.1.23-.27.72-.12.31L254,138l-.26.55-.77,1.62a18.48,18.48,0,0,0-1,1.94c-.08.35-1.22,3.17-1.22,3.17l-.79.4S249.69,146.81,249.74,146.44Z"/><path class="cls-11" d="M262.31,71.27a7,7,0,0,1,3.21-2.67s5.49.86,8.19,2.67c0,0,.71.47.27,1.08s-1.62,0-1.62,0A25.32,25.32,0,0,0,266,70S264.5,69.61,262.31,71.27Z"/><path class="cls-11" d="M282.13,72.87s-1.38-.11-1.49.91,2.18.44,2.18.44,3.51,0,4.36.42l0-1.21S284.63,73.05,282.13,72.87Z"/><path class="cls-12" d="M272.92,76.28s-.58-2.16-4.11-2.58-3.73.27-4.19,1.34C264.61,75.08,268.35,72.5,272.92,76.28Z"/><path class="cls-12" d="M279.71,77.78s2.27-2.1,6.16-.44l-.06.67S284,76.21,279.71,77.78Z"/><ellipse class="cls-12" cx="268" cy="75.03" rx="1.06" ry="1.32" transform="translate(141.43 322.88) rotate(-78.59)"/><ellipse class="cls-12" cx="282.78" cy="77.68" rx="0.93" ry="1.21" transform="translate(150.69 339.5) rotate(-78.59)"/></g><g id="Laag_27" data-name="Laag 27"><path d="M229.17,95.31a2.36,2.36,0,0,1,1.8-.08,6,6,0,0,1,1.7,2l1,.07S238.2,85,238,84.23s-1.53-1.15-2.06-3.13a4.15,4.15,0,0,1,0-2.88,10.77,10.77,0,0,1-.61-2.69c.05-.79.1-2.71,1-3.48a16.76,16.76,0,0,1,2.54-1.64l.81-.19s0,.65.1.65.33-.31.5-.32a4.68,4.68,0,0,1,1.92,0,18.28,18.28,0,0,1,2.14.8,8.2,8.2,0,0,0-.69,1.23c0,.23,0,1.21.18.74s.41-.43.41-.43-.49,1-.41,1.14.54-1.19.9-1.25a2.44,2.44,0,0,0,1-.45c.07-.12.13.51.13.51s-.2,3.52-.25,3.64.38.86.37,1,.15,1.2.15,1.2-.45,3.75-.48,3.85.22.18.19.2.8-1.91.84-2.16a13.6,13.6,0,0,1,.39-2c.14-.22.81-1.68.81-1.68l.13-.66s.35-.54.36-.39a11.44,11.44,0,0,1,0,1.46c-.05.14-.16,2.37-.16,2.37l0,.39s.28.06.3-.27a5.07,5.07,0,0,1,.29-1.4c.11-.1.15-1.33.27-1.42a14,14,0,0,0,.26-2,15.14,15.14,0,0,1,.32,2.36c-.08.31.4-.08.35-.29s0-1.92-.08-2.49a14.87,14.87,0,0,1,.24-3.22c.09-.12,2.84-4,2.87-4s0-.18.09-.38a5.13,5.13,0,0,1,1-2.07,15.13,15.13,0,0,1,2.77-2.74c.56-.21-.33-.49-.33-.49a1.33,1.33,0,0,1,.95-.89c.7-.1,1.15-1.1,1.18-1.17s.79-2,1.8-2.1,1.67-2.65,1.4-3.24-.2.62-.64.62-.1-.71-.1-.71-.26,0-.29-.23.1-1.61.1-1.61a1.92,1.92,0,0,1-.12-.27,4.08,4.08,0,0,0-.18-.39s-.91-1.49-.95-1.65-.08-.56,0-.52.06,0,.13,0a3.28,3.28,0,0,1,.53.08,5.71,5.71,0,0,0,.3.65c.05.05,0-.35.14-.55s.48.06.57.13A9.47,9.47,0,0,0,265,52.1l4.12,1.82c.52.22,9,3.72,10.65,6.05s3.27,3.48,3.38,5.46.47-2-.48-3.35a9.25,9.25,0,0,1-1.27-2.47.22.22,0,0,1,.22,0c.09.08,1.12,1.28,1.12,1.28s1.8,2.9,2,3.35,1.77,4.3,1.64,4.83.35-.09.3-.75-.87-3.66-.72-3.67a38.51,38.51,0,0,1,1.62,5.52c0,.34.49-5.73,0-7.05a15,15,0,0,1-.74-3.36s1.4,1.27,1.31,1.85.18.15.29-.37a28.15,28.15,0,0,0-2-6.55c-.58-.89-2.31-4.8-2.48-4.92s-1.61-1.66-1.78-1.61.62,0,.62,0l-.48-.69a4.24,4.24,0,0,0,1,.07c.13-.07-.14-.29-.36-.42s1.07.17,1.17.08.35.15-.33-.62-3-3.55-4.21-3.94-4.84-4.54-13.3-5.34-18.93,2.8-18.93,2.8-9.71,5-12.57,10.1-4.75,13.12-4.07,16.51.11,4.34.63,5.4.57,4.89.57,4.89l.3,3.61-.4,7.48S229.65,95,229.17,95.31Z"/></g><g id="Laag_35" data-name="Laag 35"><path class="cls-13" d="M149,520.62s-1.13-6.23,1.42-11.33a110.94,110.94,0,0,1,2.31-18.42s-3.69-6,2-6.95,20,0,20,0,3.93-.42,2.13,5.82a149.26,149.26,0,0,1,11,18.13,62.88,62.88,0,0,0,9.07,9.92c4.53,3.68,6.23-1,8.22,11.41,0,0-31.17,13.28-41.09-2.75C164,526.45,151,526.29,149,520.62Z"/><path class="cls-13" d="M280.5,511.84s-6.23,6-17.57,5.38-26.35-6.23-35.42-5.38c0,0-11.19-1.58-14.52-5.75a16.28,16.28,0,0,1,1.2-9.55s.57-11.33,4.53-20.68c0,0-5.74-4.81,2.37-6.51s15.48,4.25,15.48,4.25l7.37,3.12s14.45,12.85,22.67,24C266.62,500.7,282.2,504.48,280.5,511.84Z"/><path class="cls-1" d="M164,395.29c-14.81,21.72-10.69,47.13-10.69,47.13.85,24.94,1.7,50.72,1.7,50.72.27,8.08,5.93,3.59,5.93,3.59,5.09-8.31,16-5.86,16-5.86l-1.7-3.78c-1.89-7.18-.57-17.76-.57-17.76,10.2-38.35,9.07-47.89,9.07-47.89-.47-5.19.19-7.56.19-7.56,1.51-3.31,3.49-7.93,3.49-7.93a67.57,67.57,0,0,0,5.53-6.75Z"/><path class="cls-14" d="M153.28,442.42c.85,24.94,1.7,50.72,1.7,50.72.27,8.08,5.93,3.59,5.93,3.59a12.21,12.21,0,0,1,3.3-3.58h0c-6.8,2.49-5.72-4-5.72-4s1.43-41.44,3.22-68.24,29-18.75,29-18.75h0c1.27-1.6,2.22-2.94,2.22-2.94L164,395.29C149.15,417,153.28,442.42,153.28,442.42Z"/><path class="cls-1" d="M218.73,391.14s-11.9,26.64-1.41,49.87c0,0,5.38,21.81,3.4,39.95,0,0,11.9,11.62,23.24-4.25,0,0-4-13.6,0-36.84s1.7-35.14,1.42-38.25l4.53-12.18-20.68-6.8Z"/><path class="cls-14" d="M223.81,387.21,219,391.14s-11.9,26.64-1.41,49.87c0,0,5.38,21.81,3.4,39.95,0,0,5.7,5.56,13,3.72l0-.06s-6.54-2.09-8.41-5.58c0,0,.27-30.11-2.95-45.2s2.14-34.3,2.14-34.3,6.76-3.39,20.66-2.94Z"/><path class="cls-15" d="M171.44,261.94a9.93,9.93,0,0,0,0,3.76s-6.83,30.6-12.5,87.46L156.49,393a24.83,24.83,0,0,1,7.48,2.27c3.86,1.89,37.1,6,51.84,3.4a33.56,33.56,0,0,0,0-9.45s18.89,15.11,47.23,2.64a44.73,44.73,0,0,0,0-8s3-64.63-10.58-110.68c0,0,1.89-1.85.76-7.14Z"/><path class="cls-16" d="M188.47,398.71c.68.12,1.42.2,2.21.26Z"/><path class="cls-16" d="M163.48,382.63c1.09-12,1.89-50.31,1.89-50.31a259.59,259.59,0,0,1,.38,30.2c-.85,14.17,0,32.77,0,32.77,7.27,1.47,17.1,2.74,22.72,3.41-8.5-1.45-8.55-7-8.55-7s8.22-35.14,7.93-55.25-6-46.19-6.8-52.42a82.14,82.14,0,0,1-.57-12.75c-2.27,7.65-3.12,30.89-4.25,21.53s.85-23.24.85-23.24c-5.1,12.18-9.63,43.35-9.63,43.35,0-14.17,6.8-47.6,6.8-47.6,7.37,2.27,28.19,4.85,28.19,4.85l-1.27-6.72-29.72-1.5a9.93,9.93,0,0,0,0,3.76s-6.83,30.6-12.5,87.46L156.49,393a23.7,23.7,0,0,1,4.67,1.11S162.39,394.54,163.48,382.63Z"/><path class="cls-16" d="M192.91,399.21s10,.33-1.48-.2l-.74,0,2.22.25Z"/><path class="cls-16" d="M215.81,389.25A167.34,167.34,0,0,1,222,358.08c5.1-17,15.49-49.3,13.22-66.49,0,0,2.53,15.11.32,29.28s10.07,19.65,14.42,20.78c0,0-7.93,3.78-14.73,2.27a12.29,12.29,0,0,0,4.91,2.83s-6.59,1.65-10.58.57c0,0-1.89,7.18-1.89,10a18.55,18.55,0,0,0,12.85,6.42s-9.07,0-13.79-2.83A13.14,13.14,0,0,0,236,366.7q.46,0,.94.06c6.8.19-7.93,1.32-12.85-.57,0,0-2.92,12.08-4.16,18.51,0,0-2.46,7.19,19.83,12.09C239.79,396.81,230.54,398.5,215.81,389.25Z"/><path class="cls-17" d="M149,520.62c2,5.67,15,5.82,15,5.82,9.48,15.32,38.35,3.87,40.89,2.83l-.52-2.76-.83.42a3,3,0,0,0-3.35-3.08c-3.35.18-3.31,5.09-3.31,5.09-15.43,6-30.12-2.6-30.12-2.6s-7.5-8.19-12.06-10.06-4.31-7-4.31-7C147.89,514.39,149,520.62,149,520.62Z"/><path class="cls-17" d="M213,506.1c3.33,4.17,14.52,5.75,14.52,5.75,9.07-.85,24.09,4.82,35.42,5.38s17.57-5.38,17.57-5.38A5.34,5.34,0,0,0,279,507h0a3.47,3.47,0,0,0-2.63,4c-4.19.76-21.17,2.14-29.71-3.75a36.45,36.45,0,0,0-17.4-6.25c-10.4-.09-15.09-4.39-15.09-4.39A16.28,16.28,0,0,0,213,506.1Z"/><path class="cls-18" d="M152.75,490.87a111,111,0,0,0-2.31,18.42c-2.55,5.1-1.42,11.33-1.42,11.33,2,5.67,15,5.82,15,5.82,5.83,9.42,19,8.71,28.86,6.53.64-10.9-4.13-11-4.13-11-10.72-.73-11.82-5.36-11.82-5.36-14.76-13.82-12.74-23.48-12.74-23.48-4.46,2.05-1.7,4.65-5.45,4.68s-3.79-4.69-3.79-4.69l-.27-9.22-1.75.61C150,486.36,152.75,490.87,152.75,490.87Z"/></g><g id="Laag_30" data-name="Laag 30"><path class="cls-19" d="M224.75,102.2a20.13,20.13,0,0,1-2.51.93c-.66.12-4,0-4,0s-5.38,1.32-5.94,1.59-3.1,1-3.51,1.18-3,1.54-3.23,1.74-3.79,2.58-4.15,2.95-4.61,4.51-5.15,5.49-3.43,5-3.43,5-1.53,1.77-2,2.4a37.86,37.86,0,0,0-4,8.27,47,47,0,0,1-1.58,4.65l-.78,3.11-.62,3.56-.87,3.89-.77,4.27-.63,2.81-1.09,3.46-.6,2.78-.93,4.38-.66,3.62s-1.24,7.46-1.6,9-.79,5.92-.79,5.92l-.91,9.5-.44,2.16-.7,5.24-1.48,8.08-.76,5L170.16,221l-.81,4.41-.79,4.71-1.51,8.14L166,246.56,165.26,257,164,268.16l-1.46,14.78s2.5,2,2.66,2.56,3.82.31,4.59,1,1.47.81,1.69.64a3,3,0,0,0,.46-1.47c0-.48.38-8.12.38-8.12l.6-5.37a18.82,18.82,0,0,1,.83-3.22c.3-.38.94-2.15,1-2.12s.54-.32.43.68a2.3,2.3,0,0,1-.45,1.33,6.83,6.83,0,0,0-1.22,2.88,46.32,46.32,0,0,0-.71,4.84s4.92,1.05,6,1.38,17.24,6.6,20.83,7.28,10.9,2.73,12.23,2.95,5.8,1.22,7.71,1.35l8.2.57c1.81.13,7.18.1,8.18,0s10.46-1.49,11.63-2,9.86-3,10.23-3.86a3.83,3.83,0,0,0,.52-1.59c0-.62,0-1-.73-2.18s-.81-5-.81-5l.07-6-.08-5.68-.58-4.74-1.92-7.93-.54-1.73a10,10,0,0,0,.29-2.77c-.16-.86-2.45-5.81-2.32-5.86s-1.11-1.14-1-2.48,0-7.71,0-7.71.17-7.41.83-8.37a4.72,4.72,0,0,0,.78-1.83s5.55-12.47,5.54-12.64a9.74,9.74,0,0,1,.29-1.17s5.53.7,7,.32,4.86-1.08,6.1-1.5,9.75-3.5,9.83-3.77.38-.12.27-.82-1.58-7.57-1.58-7.57l-1.46-9.58s-.59-6.24-.59-6.49-1.63-23.77-1.63-23.77l0-6.89a8.43,8.43,0,0,0-.86-4.53c-1.14-2-1.2-2.59-2.6-3.5s-2.93-3.84-2.93-3.84L265,128.82l-4.71-4.92.83,5.82,2.8,7.84,2.13,4.87a14.53,14.53,0,0,1-1.3,1.91l-4.76.59-1.42,1.66-3.93,2.61L250,150l2.15-3.24-2-6.91-4-2.9-9.65-3.55-6-15.7L226.64,103Z"/></g><g id="Laag_31" data-name="Laag 31"><path class="cls-20" d="M272.31,154.67s-3.71-5.74-4.9-9.77a6.15,6.15,0,0,0-5.31-4.28l-2.34-13.23.24-3.49s4,3.88,5.32,5.54l7.08,9a1.27,1.27,0,0,1,1,.54,29.15,29.15,0,0,1,1.94,3.52,35.18,35.18,0,0,1,.55,3.93c0,.47-.15,2-.15,2.09s-.2,1.91-.15,2.21,0,2.88,0,2.88Z"/><path class="cls-20" d="M266.68,181.53l10.74-4.63a7.58,7.58,0,0,1,.05,1.49s.46,5.37.69,6.14,1.5,10.11,1.5,10.11l-15.72,5.66a23.67,23.67,0,0,1-.17-3.11l.82-4.85s.83-6.15.86-7.19S266.48,182.58,266.68,181.53Z"/><path class="cls-21" d="M205.2,107.78s-6.61,4.05-9,8a29.63,29.63,0,0,1-3.14,4.6,40.89,40.89,0,0,0-3.82,5.38c-.88,1.82-2.73,6-2.73,6s6,15.89,7.25,18.36S200,164.3,200,164.3l6.28,12.78.21-.67-8.89-22.7-2.63-8.14-1.77-4.76-.49-3.29s-.89-4.73-.08-4.67a6.73,6.73,0,0,1,3.76,2.23c.89,1.22,6.35,7.8,6.35,7.8l4.82,7.23s.74.52.57.26-1.44-2.7-1.44-2.7-6.93-12.48-7.23-14.07-1.67-6.6-1.67-6.6a73.32,73.32,0,0,1-.76-7.51c.16-1,1.57-5,1.57-5S202.62,109.39,205.2,107.78Z"/><path class="cls-22" d="M200.88,167.73s-2.27,26.74-3.63,29.49-5.43,15-7.93,17.66-11,25.49-11.49,26.58-4.62,15.09-4.62,15.09l-.3,1.64a12,12,0,0,0-.11,1.53c.06.15,0,.75.21.95s1.15-1.43,1.15-1.43.34-.29.33,0a7.75,7.75,0,0,1-.59,1.48l-.68,2.14-.85,2.53-.27,2-.65,3.78-1,7.75-.31,6.1s-6.76-.27-7.56-2.08,2.66-30.23,2.66-30.23l3-23.11,3-15.89,3.35-20.32L176,179.87l1.77-10.15,2.31-11.56,1.83-6.51,1.64-8.34s2.16-10.31,2.9-11.14S200.88,167.73,200.88,167.73Z"/><path class="cls-23" d="M237.23,178.92s.2,13.3.34,14,1.35,18.45,1.35,18.45l1.29,13.87L242.57,241l1.95,17.05,4.12,23.65s4.51-1.52,6.66-3.28,1.53-1.31,1.53-1.31l-.05-6.16-.37-7.33-.53-5.39-.89-3.62s-1.17-5.17-1.26-5.28a4.86,4.86,0,0,0,.3-2.67c-.34-1.65-1.78-5.57-2.74-6.58a2.1,2.1,0,0,1-.64-2v-3l0-4.47a56.55,56.55,0,0,1,.4-6.36l.47-1.92s3.81-8.65,4.32-9.82c2.54-5.84,2.27-6,2.27-6l2.11-7.07,2.61-6.93,1.61-4.33,1-2.37.06-.82.06-.3s.23-.74.35-1l.51-1.19s.38-.89.3-.94a17.34,17.34,0,0,0-1.83.35l-7.87,2.2-8.07,3Z"/><path class="cls-23" d="M223.83,168.43l-10,6-3.25,2.91-1.9,3.29.12,1.5.86,1.28,1.46.56a8.85,8.85,0,0,0,4.92-1.49c2-1.56,3.7-2.65,4.73-3.56s3.9-3.52,4.13-3.71,2.7-2.61,3.25-3S223.83,168.43,223.83,168.43Z"/></g><g id="Laag_34" data-name="Laag 34"><path class="cls-24" d="M310.35,254.35l1.17,4.84a1.2,1.2,0,0,0,1.19.94,52.15,52.15,0,0,0,5.37-1l5.76-1,8.48-1.34,2.64-.67-.31-1.28-1.78-1.8-3.19-2.63-16.81,0a3.36,3.36,0,0,0-1.65.77A4.11,4.11,0,0,0,310.35,254.35Z"/><path class="cls-25" d="M360,231l-5.38-.12s-5.58.41-7.13,1-3.62,1-4.27,1.37-3.43,1.85-3.78,2.16a20.44,20.44,0,0,0-2.79,2.63c-.55.82,6.14-3,6.14-3l13.47-1.84,12.77,4.6,6.6,10.48,1.18,7.1,2.5-.07s.77-6.11.36-8a32.92,32.92,0,0,0-2.33-6.34,34.28,34.28,0,0,0-3.34-3.9c-.85-.58-4.47-3.68-7.34-4.52A57.66,57.66,0,0,0,360,231Z"/><path class="cls-26" d="M334.33,243.7l.06.27.63,1.63L336.4,249l3.11,4,2.33,2.48,1.2,1-.57.69-5,.05,1.52,5.53.41,1a14.8,14.8,0,0,0,2,2.19c.66.42,4.08,2.66,5.21,2.93s4.54,1.07,4.71,1.08,5.35.51,5.75.4,5-.42,5.4-.64,6.2-1.39,9.05-3.6,4.15-2.91,5.23-4.9,2.39-4.69,2.47-5.75.07-5.95-.48-7.49a37,37,0,0,0-2.12-5.5c-.73-1.15-3.6-5-5-5.86s-4.28-3.84-10.36-4.17-10.74-.66-15.37.77a29.32,29.32,0,0,0-6.53,2.66l-2.74,2.13-2.14,3.19Z"/><circle class="cls-27" cx="327.72" cy="52.91" r="6.42" transform="translate(252.24 376.17) rotate(-86.03)"/></g><g id="Laag_32" data-name="Laag 32"><path class="cls-1" d="M223.6,168.22S236,180.06,236.9,180.67s6.1,4.77,6.63,5,4.5,2.53,5.13,2.57,2.68.56,4.24-.25,3.86-2.66,4.75-2.84,9-3.63,9-3.63L279.58,176l4.57-2.65,7.42-4.66s11.09-8.18,12.32-9.22,6.31-4.29,6.31-4.29l7.35-4.35s1.84-1.63,2.13-1.83,4-2.23,4-2.23a9.62,9.62,0,0,1,1.64-1.08c.68-.3,5-2.47,5.92-3.1s9.75-7.28,9.75-7.28l2.27-2.54,3.06-3,4.69-5.69,4.18-5.63,5-7.18,2.38-3.59s.36-1,.09-1.33a1.49,1.49,0,0,0-1.76-.58,11.65,11.65,0,0,0-2.86,1.73,4.07,4.07,0,0,0-1.32-.09,2.34,2.34,0,0,0-1.07.72,6.33,6.33,0,0,1-.71.94l-1.69,1.31L347.3,114l-4.23,2.34-4.32,2.33-3.66,1.54L332,121l-3.14-.22,4-3.27s1.21-1.23,1.4-1.45,1.58-2.06,1.62-2.21a5.94,5.94,0,0,0,.58-1.22,10.56,10.56,0,0,0,.1-1.61,4.33,4.33,0,0,0-.55-1.41c-.15-.23-.76-1.66-1.8-1.39a2.73,2.73,0,0,0-1.53,1l-1.55,1.44s-5.2,3.74-5.43,4.86-6.3,3.73-7.83,6.69-4.07,2.55-5.25,10.44-49.46,24.51-49.46,24.51l-12.84,3.56-2.82-3.64-2.63-2.69-9.12,1.47Z"/><path class="cls-1" d="M251.56,222.13s2.06,2.3,3.16,2.67,2.33.75,2.33.75l6.79,4.52L269.6,233l6.31,2.4,13.57,3.68L301,242s6.64,1.68,7.94,2.78,1.91,1.34,2.42,2.76a11.3,11.3,0,0,0,1.45,2.92l9.18.37,7.9.33,3.18,2.49,1.61,1.84.23.66-2.64.67-12.5,2a21.18,21.18,0,0,0,2.6,2.62,5.46,5.46,0,0,0,1.92.61,7.58,7.58,0,0,0,1.55-.41L327.7,263a2.84,2.84,0,0,0,1.08.33,2.1,2.1,0,0,0,1.11-.36,4.25,4.25,0,0,1,.59-.42s1.64.72,2,.85a11.32,11.32,0,0,0,2.46.65,10,10,0,0,0,1.68-.11c.15-.09,1-.43,1.12-.74a2.54,2.54,0,0,0,.06-.91l1.14.18-1-4.85.86.21a9.77,9.77,0,0,0,1.38.35,4.73,4.73,0,0,0,1.78-.36l1.19-.86,0-.56-1-1-2-1.81L338,250.78l-1.65-1.87-1-2.49a26.86,26.86,0,0,1-1-2.72c0-.25,0-1.44,0-1.44l-6.88-2.88-21.69-11.62a24,24,0,0,0-4-1,7.57,7.57,0,0,1-2.82-1.3l-10.81-5.31-8.55-6.39-4.52-3.92-4.69-4.28-11.21.45-1.16.53-.31,1.08-.1.33-.09.28L255.11,214l-.33.76-.91,2-.25.63-.6,1.32-.28.62Z"/></g><g id="Laag_33" data-name="Laag 33"><path class="cls-14" d="M223.72,168.53s9.29,8.62,9.41,8.67,6.16,5.73,6.4,5.83,3.58,2.52,4.18,2.85a38.72,38.72,0,0,0,5,2.46c.62,0,3.07.36,4-.21s4.49-2.88,4.74-2.86S268.1,181,268.1,181s11.07-4.71,11.6-5,9.09-5.3,9.67-5.77c.21-.17,6.95-4.64,8.13-5.64.62-.53,6.66-5.33,7.27-5.72s9.41-6.11,9.75-6.17-2.84.55-3.55.84-8.07,2.47-8.42,2.76-6,2.46-6,2.46l-4.64,2.2s-17.2,9.5-17.74,10-9,5.55-9,5.55l-6.38,4.07a28.24,28.24,0,0,1-4.65,1,17.06,17.06,0,0,1-4.88-1.06,46.69,46.69,0,0,1-4.72-2.4c-.35-.4-5.71-4.29-6.91-5.63s-8.46-8.59-8.46-8.59Z"/><path class="cls-14" d="M248.2,165.27s17.24-6.86,18.79-7.57,15.51-6.46,16.43-7,6.71-3.93,6.71-3.93l-13.6,5.52-8.81,3.28-8.29,2.58s-8.76,2.62-9,2.6a.4.4,0,0,1-.36-.24s-3.59,1.63-4.28,2.15-3.61,2.41-3.93,3-.53.84.36.71S247.69,165.45,248.2,165.27Z"/><path class="cls-3" d="M341.23,125.35s12.91-9.09,13.55-10.46,0,1.51-.42,1.77-2.41,1.09-2.43,1.38a12.39,12.39,0,0,1-.15,2.16c-.13,0-1.3.71-1.3.71l-.49-.12a5,5,0,0,0,1.13-.64c.05-.16.43-1.38.26-1.4a8,8,0,0,0-1.28,1s-1.68,1.35-2.35,1.93A47.35,47.35,0,0,1,341.23,125.35Z"/><path class="cls-3" d="M351.54,121.14s-3.11,2.42-3.22,2.6-2,2.11-2.3,2.5-1.57,2.8-1.57,2.8,0,.25.31,0,.41-1,.71-1.27.23-1.08.76-1.42,1.63-1.86,2.06-2.08a8.16,8.16,0,0,0,1.52-.65c.43-.35,1.35-.91,1.44-1.37S351.54,121.14,351.54,121.14Z"/><path class="cls-3" d="M325,124.22l10.37-4.08a28.67,28.67,0,0,1-4,.89c-.45-.09-2.6-.22-2.6-.22l3.21-2.55c.18-.13,1.87-1.67,1.87-1.67s1.46-1.79,1.57-2,.85-1.61.85-1.61a4.38,4.38,0,0,0,.16-.59v-.14a6.37,6.37,0,0,0,0-1.22c-.08-.16-.37.89-.37.89a6.19,6.19,0,0,1-.65,1.28,19.27,19.27,0,0,0-1.12,1.8s-.68.8-.89,1-2.47,2.58-2.57,2.64-2,1.39-2.29,1.49a7.19,7.19,0,0,1-1.88.87c-.69.09.85.15.85.15a.79.79,0,0,1,0,.47,3.38,3.38,0,0,0-.24.65l-1.67,1.24C325.47,123.64,324.9,124.27,325,124.22Z"/><path class="cls-3" d="M343.15,132.88a25.32,25.32,0,0,1-2.13,2.38l-4.58,3.47L332,142.1a44.68,44.68,0,0,1-4.89,2.7c-1,.3-14.51,3.55-14.51,3.55s9.27-4.05,10.66-4.24-1.27-.18-1.81-.09-1.78.38-1.78.38l.76-.64s3.78-2.06,4-2.32,3.12-2.51,3.5-3.08,1.51-1.84,1.51-1.84,1.43-4.32,2.31-4.91,2.11-1.92,3.48-1.86S338.88,128.95,343.15,132.88Z"/><path class="cls-28" d="M325.39,261.73a3.31,3.31,0,0,1-1.76.13,15.11,15.11,0,0,1-3-2,12.69,12.69,0,0,1-.73-1.18,9.7,9.7,0,0,1-.25-2.34c.19,0,.82-1.48,2-.36a4.83,4.83,0,0,1,1.45,2.11l.84,1.88Z"/><path class="cls-28" d="M327.53,262.94a22.31,22.31,0,0,1-1.94-1.76c-.29-.4-1.34-1.5-1.32-1.75s-.68-1-.68-1a13.58,13.58,0,0,1-1.27-3.41c0-1-.21-2.9-.21-2.9s-.15-1.51.48-1.44,2.32-.09,3.15,1.5,1.78,3.66,1.78,3.66a3.2,3.2,0,0,1,.34,2.28c-.18,1.65,1.35,3.6,1.35,3.6l1,.85a1.27,1.27,0,0,1-1.27.66C328.12,263,327.53,262.94,327.53,262.94Z"/><path class="cls-28" d="M337.81,262.38a1.39,1.39,0,0,1-1,1.4,10.56,10.56,0,0,1-3.55,0,22.09,22.09,0,0,1-2.63-1.23,20.93,20.93,0,0,1-2.1-3.74,7.33,7.33,0,0,1-.22-1.67l-.39-2.83a2.73,2.73,0,0,1,1.82-.29c.86.25,1.75.33,2.23,1.64a5.34,5.34,0,0,1,.43,1.89l.77,1.24,1.08,2.18a10.86,10.86,0,0,0,1.61,1.2A13.39,13.39,0,0,0,337.81,262.38Z"/><path class="cls-28" d="M251.56,222.13a14.75,14.75,0,0,0,1.9,2.08,7,7,0,0,0,3.17,1.2c.8-.11-1.36-3.27-1-6.56s.73-6.67,4.59-8.64,8-4.24,10.41-4.35-10.57-5-11.12-2-1,1.91-1,1.91l-.4.73-.28,1.07-1,2.59-.78,1.9-.92,2-.78,1.83-.63,1.41-.82,1.86-.25.55-.39.89-.34.77Z"/><path class="cls-3" d="M271.39,206.26l13.87,11.8s-5.82-3.76-10.12-3.62-10.89-.1-8.52,6.83S294.2,240,294.2,240s-17.05-3.88-22.94-6.17a37.7,37.7,0,0,1-8.65-4.42l-5.83-4.07s0,0,0-.16a2.59,2.59,0,0,0-.1-.54,24.91,24.91,0,0,1-1.1-4.34,19.71,19.71,0,0,1,.32-3.83c.17-.36.35-2.9,1.71-4.21s1.09-1.28,2.56-2l3.83-2,1.34-.65,1.54-.69.72-.31.91-.33.79-.23s.94-.2,1-.2a4.58,4.58,0,0,0,.47,0,.09.09,0,0,0,0,0,.11.11,0,0,0,0-.08Z"/></g><g id="Laag_29" data-name="Laag 29"><path class="cls-29" d="M234.27,100s2,4.06,2.13,4.76S239.84,117,239.84,117s2.55,8.82,2.73,8.93,2.77,7.64,2.86,7.71,1,3,1.26,3.18l3.13,2.47.15.53s-2.31-1.62-3.64-2.32a32.85,32.85,0,0,0-5.92-2c-.87-.12-3.74-.28-4.46-.69a6.92,6.92,0,0,1-2.59-2.46,12.68,12.68,0,0,1-1.07-4.65,3.63,3.63,0,0,0-.12-1.49c-.19-.31-1.67-3-1.7-3.17s-1.16-5.61-1.2-5.83-1.42-5.89-1.42-5.89A50.25,50.25,0,0,0,226,105.5c-.43-.56-.55-2.49-1.44-3.15s2.77-.88,3.48-2.6.43-3.64,1.93-4.13,1.9,0,1.9,0S234.12,99,234.27,100Z"/><path class="cls-29" d="M264.89,144.66a2,2,0,0,0,1.18-2.63c-1.44-3.76-4.76-12.54-4.89-13.47-.17-1.19-1-4-1-4.4a28.27,28.27,0,0,0-.15-3.68c-.16-.47-.61-2.77-.68-2.84s-.3-.31-.38-.26a2.92,2.92,0,0,0-.51.36c-.15.15-.57.8-.57.8l-.22.29-.1.2-.05.1-.05.13-.08.17,0,.1,0,.13,0,.05,0,0,0,.06,0,.07-.06.07-.07.06,0,.09-.06.1-1.21,2.65-.52,1.28-.19.53s.38.33.33.63-.39,4-.39,4,.37.35.33.62-.42,5.44-.42,5.44a5.87,5.87,0,0,1-.31,1.12,13.38,13.38,0,0,1-1.28,2.82,12.25,12.25,0,0,0-1.5,2.87,4.75,4.75,0,0,1-.63,1.13,2.07,2.07,0,0,0-.25.48,8.11,8.11,0,0,1-.58,1.39,2.76,2.76,0,0,0-.4.6s1,.28.91,1-.52,1.19-.73,1.22-.74.17-.74.17l-.18,1-.23.18-.14.84s-.28.17-.24.23,0,.22.21.18a29.5,29.5,0,0,1,3.36-.17,17.66,17.66,0,0,0,4.28-1.41,28.43,28.43,0,0,1,3.11-2.6c.4-.15.18-1.39,1.14-1.18s1,.48,1.46.38C262.47,145.51,263.76,145.09,264.89,144.66Z"/><path class="cls-30" d="M209,182.45l-2.35-4.63s-1.73-1,2.54-5.84,23.13-19.07,23.13-19.07l3.23-1.45,2.6-.74a26.17,26.17,0,0,1,2.9-.26,4.62,4.62,0,0,1,2.83,1.32c.77.89,3.68,5.35,3.68,5.35a5.43,5.43,0,0,0-3.29-1.27,12.2,12.2,0,0,0-4.08.47,33.62,33.62,0,0,0-4.2,1.55c-.57.42-4.16,3.43-4.16,3.43L227.92,165l-4.84,4.09-9.28,6.67s-3.2,2.12-3.34,2.63A8.48,8.48,0,0,0,209,182.45Z"/><path class="cls-30" d="M257.84,206.33l1.91-5.92,3.84,0c.15,0,16.06-5.78,16.06-5.78s1.35,5.52,1.26,5.87.43.74-.63,1.21-9.9,3.68-9.9,3.68-4.33,1.27-5.57,1.41a24.17,24.17,0,0,1-4,.33C259.92,207,258.16,206.85,257.84,206.33Z"/><path class="cls-31" d="M196.36,155.82l3.31,8.71,1.46,3.81s6.58,13.57,7,14.06a18.55,18.55,0,0,0,1.57,1.51,11.1,11.1,0,0,0,1.83.46,13.27,13.27,0,0,0,1.54-.27l3.24-1.29,4.73-3.51s2.58-2.58,2.8-2.77a27.8,27.8,0,0,1,3.87-3s-2.69,1.62-3.16,2l-2.7,2.32L220.66,179l-2.28,1.69L216,182.46l-1.84.72a7.41,7.41,0,0,1-1.48.49c-.28,0-1.53.43-2.19-.06s-.81-.25-1.54-1.16a47.73,47.73,0,0,1-2.7-5.59l-1.74-3.35-2.94-6-.75-1.46S197.63,159.09,196.36,155.82Z"/></g></svg>