<svg xmlns="http://www.w3.org/2000/svg" viewBox="0 0 641.94 556.2"><defs><style>.cls-1{fill:#e5af97;}.cls-2{fill:#b1816a;}.cls-3{fill:#b0816b;}.cls-4{fill:#c3977e;}.cls-5{fill:#7f5e4f;}.cls-6{fill:#7f5c4a;}.cls-7{fill:#c5887a;}.cls-8{fill:#6c3834;}.cls-9{fill:#966c5c;}.cls-10{fill:#956b59;}.cls-11{fill:#492813;}.cls-12{fill:#2c130f;}.cls-13{fill:#575656;}.cls-14{fill:#cb9982;}.cls-15{fill:#1e1e1e;}.cls-16{fill:#111110;}.cls-17{fill:#3f3f3f;}.cls-18{opacity:0.25;}.cls-19{fill:#f4bc76;}.cls-20{fill:#e4af79;}.cls-21{fill:#e8b076;}.cls-22{fill:#edb275;}.cls-23{fill:#dba266;}.cls-24{fill:#4c2b12;}.cls-25{fill:#edc6b7;}.cls-26{fill:#7d170f;}.cls-27{fill:#c4b6ae;}.cls-28{fill:#977460;}.cls-29{fill:#e19341;}.cls-30{fill:#e39244;}.cls-31{fill:#9b6936;}.cls-32{fill:#939fae;}.cls-33{fill:#65787f;}.cls-34{fill:#242e29;}.cls-35{fill:#515c60;}.cls-36{fill:#a2aab5;}.cls-37{fill:#6f99d0;}.cls-38{fill:#a0c4d7;}.cls-39{fill:#6d7ebd;}.cls-40{fill:#afb9da;}.cls-41{fill:#e7e6e6;}.cls-42{fill:#afccec;}</style></defs><title>pingpong master</title><g id="Laag_26" data-name="Laag 26"><path class="cls-1" d="M96.71,187.46l2.21-5.3,1.61-5.68a6.91,6.91,0,0,1-1.08-1.15,5,5,0,0,1-.66-1.74,14.65,14.65,0,0,1,.06-1.82,18.69,18.69,0,0,1-.45-2.35c0-.51.1-2,.72-2.48s.77-1.12,2.11-1.47,5.64,1.27,5.64,1.27L110,167l.26-.82s2.09-3,2.18-3,.39-1.65.46-1.71,2.49-2.3,2.49-2.43-.16-.83-.09-.91,1.34-.59,1.4-.67a13.42,13.42,0,0,1,.87-1.79,8.18,8.18,0,0,0,1.49-1c.14-.24.45-.68.42-1s.16-1,.07-1-.36.46-.36.46-.21.17-.28.08a2.28,2.28,0,0,1-.06-.64s-.18-.18-.17-.23.12-1.29.12-1.29l-1-1.87s-.09-.41,0-.42.45-.18.62,0,.18.51.25.51.1-.44.1-.44.45,0,.48,0,.35.45.35.45l2.57,1.58s4.29,1.62,5,2,5.28,2.54,6.31,3.84,2.87,3.05,3.09,4.54.1-1.38.1-1.38-1.36-2.95-1.51-3.11,2.3,2.55,2.66,3.71,1.31,2.16,1.69,3.95a24.52,24.52,0,0,1,.33,4.4l-.41,3.5A9,9,0,0,0,138,175.1c-.05.78-.47,6.06-.47,6.06s-.45,1.95-.61,2.3-.93,2.24-.93,2.24l-1,1.5L132.94,190l-.86,1.25s-1,1.49-1,1.59a23.33,23.33,0,0,1-1.13,2,16.85,16.85,0,0,1-1.49,1.47,4.67,4.67,0,0,1-3.21,1.17c-1.85-.09-3.62-.53-4.29.34s-2.81,4.77-3.62,5.13-1.66,2.16-3.23,6-3.31,7.28-3.31,7.28l-.22,2.67s-.75,1.27-.64,1.78-2.65-2.26-2.65-2.26L103.11,207l-2.7-8.54s-1.67-6.68-2-7.15S97.36,188.44,96.71,187.46Z"/></g><g id="Laag_28" data-name="Laag 28"><path class="cls-2" d="M97.69,185.11s2.06-5.64,2.47-7.34c.19-.8.36-1.17.36-1.28s3.85,2.19,4.27,2.25.65,2.2.54,2.36-.67-1.85-1.08-1.68-1.24-.21-1.24-.21-1.2-.43-1.59-.54a1.45,1.45,0,0,1-.63-.34S98.71,183.75,97.69,185.11Z"/><path class="cls-3" d="M124.26,197.5l-1.7-.42-2.39-.87L118,194.94l-2.05-1.09s-2.95-2.23-3-2.34-2.32-2.41-2.32-2.41l-.92-1-1.62-2s-2.18-3.85-2.27-3.85a4.85,4.85,0,0,0,.31,1s1.54,3,1.62,3.1,2.19,3,2.25,3,2.89,2.71,2.93,2.71,3.48,2.75,3.64,3,.91,1.26.69,1.89a6.11,6.11,0,0,1-1.21,1.58s-1.21.64-1.14.71a.79.79,0,0,0,.47.12,16.12,16.12,0,0,1,2.57-.8c.27.11,2.17.39,2.26.42s.45-.89.8-1,.86-.63,1.44-.58S124.26,197.5,124.26,197.5Z"/><path class="cls-4" d="M118.57,201.63l-.73,1a2.86,2.86,0,0,1-.68.57,1.62,1.62,0,0,0-.4.36c-.95,1.28-.69,1.4-.93,1.63s-1.49,3.32-1.49,3.32a8.26,8.26,0,0,1-.58,1.41,1.77,1.77,0,0,0-.7.2c0,.07-.13.82-.13.82l-.85,0a10.67,10.67,0,0,0-1.79-1.41c-.27,0-3.62-.22-3.67-.29s-1.3-.4-1.42-.77,2.58-1.3,2.58-1.3,3.39-1.36,3.43-1.44,1.13-3.07,2.35-3.29S115,201.62,118.57,201.63Z"/><path class="cls-5" d="M102.86,169.81s.9,0,1-.46.37.66.27.74a12.48,12.48,0,0,1-2.16,1,1.38,1.38,0,0,0-.69,1.85c.34.49.67,1.17,1.24,1.37s-.4.16-.67,0a4,4,0,0,1-1.1-1.25,2.2,2.2,0,0,1,.07-2A3.52,3.52,0,0,1,102.86,169.81Z"/><path class="cls-5" d="M100,172.91a3,3,0,0,0-.05-1.08,2.17,2.17,0,0,1,.08-1.13s0-.44-.53-.5.18-.46.18-.46-.16-1.26.29-1.76.44-.89,1-1.09.45.18.45.18l-.57,1.18s-.14.45-.06.52.07-.29.2-.43a10.15,10.15,0,0,1,.57-1.5c.35-.49,1.87.69,1.9.8s.24.53.16.62-.44.33-.41.45-.15.29-.15.29.38.08.53-.08a2,2,0,0,1,.39-.34s0-.49,0-.5a2,2,0,0,1-.22-.73c0-.06-.69-1.44-1.69-1.32a2.38,2.38,0,0,0-1.62.82,9.93,9.93,0,0,0-.84,1.08,4.94,4.94,0,0,0-.5,1.16,8.2,8.2,0,0,0,.2,1.69c.1.27.35,1.46.35,1.46A1,1,0,0,0,100,172.91Z"/><path class="cls-6" d="M132.45,183.09s1.67-1.11,1.82-1.31a2.22,2.22,0,0,0,.68-1.2,5.27,5.27,0,0,0-.38-1.66s0,.28,0,.35.15.62.14.68,0,.67,0,.67l-.39.78-.42.37a5.61,5.61,0,0,0-1.61.11c-.25.17-.4.54-.59.43s.13.32.3.3S132.52,182.94,132.45,183.09Z"/><path class="cls-6" d="M128.39,180.8s.43.21.56.1.69-.49,1.11-.32a4,4,0,0,1,1.15.69c.1.15.35-.18.35-.18A2.11,2.11,0,0,0,130,180C128.85,179.69,128.49,180.16,128.39,180.8Z"/><path class="cls-2" d="M116.44,156.63s-.42-1.93,5.2-1.37,8,3.13,8,3.13.64.57,1,.52-1.3-.69-1.53-1.33,3.44,2,3.44,2,1.83,1.4,2.39,2,3.35,3.21,3.47,3.29,1.28,1.72,1.28,1.72-.47-3.38-.67-4.29a70.65,70.65,0,0,0-3.27-6.36l-12-6.09-7.64-2.36Z"/><path class="cls-2" d="M109.87,168s2.61-3.15,2.3-4.32-2.79,2.9-2.79,2.9Z"/><path class="cls-7" d="M123.91,186.59s-.21.37.26.81,1.78,1.62,1.93,1.73,1.46.92,1.46.92a16.63,16.63,0,0,1,2.66.41c.19.18,1.16-.72,1.16-.72s.16-.21.21-.29a2.65,2.65,0,0,0,.1-.43l.58,0a3.42,3.42,0,0,0-.58-2.48c-.86-1.44-.84.25-2.19-.7s-1.46.81-5.24.45C124.2,186.23,123.91,186.59,123.91,186.59Z"/><path class="cls-8" d="M124.31,187.35c0-.12.38-.72.52-.71s3,.5,3.23.6a7.45,7.45,0,0,0,2.12.5c.67.07,1,1,1,1l.26.89a.81.81,0,0,0,.22-.52c0-.17.61-.15.61-.15l0-.4-.63-.23a4.06,4.06,0,0,0-1.18-.71l-1.63-.39-3-.93a6,6,0,0,0-1.67-.16c-.26.13-.37.12-.41.27a1.12,1.12,0,0,0,.07.64c.08.07.41.42.41.42Z"/><path class="cls-9" d="M127.07,189.73s0,1-.12,1.11-.44.3-.54.24.17.2.45.13a2.88,2.88,0,0,1,1.26-.11c.65.07,1.32.3,1.75.34s.29-.57.34-.62.21-.28.21-.28,0,0-.19-.09a4.05,4.05,0,0,0-1.05-.23c-.37,0-1.63-.17-1.63-.17A3,3,0,0,1,127.07,189.73Z"/><path class="cls-10" d="M109.91,226.31s.48-4.07.41-4.15a9.14,9.14,0,0,1-.23-1.18l-.16-.46s0-.11.05-.23.06-.19.08-.25.11-.26.14-.36a5.84,5.84,0,0,1,.36-.68l.09-1.21.13-1.47,1-2,.78-1.68.48-1.07.44-1,.23-.55.07-.15s.06,0,.16-.27.19-.53.19-.53l.1-.2s.26.19.27.4a2.18,2.18,0,0,1,0,.45l-.27,2.82,0,0,.06.06,0,0,0,0,0,.08,0,.09,0,.08v.1l-.14,1.69-.12,1.61-.08,1,0,.23,0,.14-.09.32-.05.18-.08.19-.22.57-.09.25-.12.31-.21.44-.61,1.3a14.76,14.76,0,0,0-.76,1.55c-.06.28-1,2.53-1,2.53l-.63.32S109.87,226.61,109.91,226.31Z"/><path class="cls-11" d="M119.95,166.28a5.59,5.59,0,0,1,2.56-2.13s4.38.69,6.54,2.14c0,0,.57.38.22.86s-1.3,0-1.3,0a20.22,20.22,0,0,0-5.12-1.85S121.7,165,119.95,166.28Z"/><path class="cls-11" d="M135.78,167.56s-1.1-.09-1.19.73,1.74.35,1.74.35a13.38,13.38,0,0,1,3.49.33l0-1S137.78,167.7,135.78,167.56Z"/><path class="cls-12" d="M128.42,170.28s-.47-1.72-3.28-2.06-3,.21-3.34,1.07C121.79,169.32,124.77,167.26,128.42,170.28Z"/><path class="cls-12" d="M133.84,171.48s1.81-1.68,4.92-.35l-.05.54S137.26,170.22,133.84,171.48Z"/><ellipse class="cls-12" cx="124.49" cy="169.28" rx="0.85" ry="1.05" transform="translate(-66.07 257.82) rotate(-78.59)"/><ellipse class="cls-12" cx="136.29" cy="171.4" rx="0.74" ry="0.97" transform="translate(-58.68 271.09) rotate(-78.59)"/></g><g id="Laag_27" data-name="Laag 27"><path d="M93.48,185.47a1.89,1.89,0,0,1,1.44-.07A4.83,4.83,0,0,1,96.27,187l.76.05s3.65-9.85,3.53-10.46-1.22-.92-1.64-2.5a3.31,3.31,0,0,1,0-2.3,8.6,8.6,0,0,1-.48-2.15c0-.63.08-2.16.79-2.78a13.38,13.38,0,0,1,2-1.31l.64-.16s0,.52.08.52.27-.25.4-.26a3.74,3.74,0,0,1,1.53,0,14.6,14.6,0,0,1,1.71.64,6.55,6.55,0,0,0-.55,1c0,.18,0,1,.14.59s.32-.34.32-.34-.39.82-.33.91.43-1,.72-1a2,2,0,0,0,.83-.36c.06-.1.11.41.11.41s-.16,2.81-.2,2.9.3.69.29.8.12,1,.12,1-.36,3-.38,3.08.17.15.16.16.64-1.52.67-1.72a10.87,10.87,0,0,1,.31-1.63c.11-.18.64-1.34.64-1.34l.1-.53s.28-.43.29-.31a9.14,9.14,0,0,1,0,1.17c0,.11-.12,1.89-.12,1.89l0,.32s.22,0,.24-.22a4,4,0,0,1,.23-1.12c.09-.08.12-1.06.21-1.14a11.19,11.19,0,0,0,.21-1.6,12.09,12.09,0,0,1,.25,1.89c-.07.25.32-.06.28-.23s0-1.53-.06-2a11.88,11.88,0,0,1,.2-2.57c.07-.09,2.27-3.16,2.29-3.21s0-.14.07-.3a4.1,4.1,0,0,1,.79-1.65,12.08,12.08,0,0,1,2.21-2.19c.45-.17-.26-.4-.26-.4a1.07,1.07,0,0,1,.76-.71c.56-.08.92-.88.94-.93s.63-1.59,1.44-1.68,1.33-2.12,1.12-2.58-.16.49-.51.49-.08-.57-.08-.57-.2,0-.23-.19.08-1.28.08-1.28a1.54,1.54,0,0,1-.1-.21,3.26,3.26,0,0,0-.14-.31s-.73-1.19-.76-1.32-.06-.44,0-.42,0,0,.1,0a2.62,2.62,0,0,1,.42.07,4.56,4.56,0,0,0,.24.52s0-.28.11-.44.38,0,.46.11a7.57,7.57,0,0,0,2.84,1.83l3.29,1.45c.41.18,7.17,3,8.5,4.84s2.61,2.78,2.7,4.36.38-1.58-.39-2.67a7.38,7.38,0,0,1-1-2,.17.17,0,0,1,.17,0c.07.07.89,1,.89,1s1.44,2.31,1.57,2.67a23.45,23.45,0,0,1,1.31,3.86c-.1.42.28-.07.24-.6s-.7-2.93-.57-2.93a30.76,30.76,0,0,1,1.3,4.41c0,.27.39-4.58,0-5.63a12,12,0,0,1-.59-2.68s1.12,1,1,1.47.14.12.23-.3a22.48,22.48,0,0,0-1.63-5.23c-.46-.71-1.85-3.83-2-3.93s-1.28-1.33-1.42-1.29.5,0,.5,0l-.39-.55a3.39,3.39,0,0,0,.8.06c.1-.06-.11-.23-.29-.33s.85.13.93.06.28.12-.27-.49-2.41-2.83-3.36-3.15-3.86-3.63-10.62-4.26-15.12,2.24-15.12,2.24-7.76,4-10,8.07S94,160,94.59,162.7s.08,3.47.51,4.31a15.65,15.65,0,0,1,.45,3.9l.24,2.88-.32,6S93.86,185.27,93.48,185.47Z"/></g><g id="Laag_35" data-name="Laag 35"><path class="cls-13" d="M29.47,525.16s-.91-5,1.13-9.05a88.61,88.61,0,0,1,1.84-14.71s-2.95-4.76,1.57-5.55,16,0,16,0,3.14-.33,1.7,4.64A119.21,119.21,0,0,1,60.48,515a50.22,50.22,0,0,0,7.24,7.92c3.62,2.94,5-.79,6.56,9.11,0,0-24.89,10.6-32.81-2.19C41.47,529.81,31.06,529.69,29.47,525.16Z"/><path class="cls-13" d="M134.48,518.15s-5,4.75-14,4.3-21-5-28.29-4.3c0,0-8.94-1.26-11.6-4.59a13,13,0,0,1,1-7.63s.45-9.05,3.62-16.52c0,0-4.58-3.84,1.89-5.2S99.4,487.6,99.4,487.6l5.88,2.49s11.54,10.26,18.1,19.16C123.39,509.25,135.84,512.26,134.48,518.15Z"/><path class="cls-1" d="M41.4,425.06c-11.83,17.35-8.54,37.64-8.54,37.64.68,19.91,1.36,40.51,1.36,40.51.21,6.46,4.74,2.87,4.74,2.87,4.07-6.63,12.76-4.68,12.76-4.68l-1.36-3c-1.51-5.73-.45-14.18-.45-14.18C58.06,453.57,57.16,446,57.16,446a18.74,18.74,0,0,1,.15-6c1.21-2.64,2.79-6.34,2.79-6.34a54,54,0,0,0,4.42-5.39Z"/><path class="cls-14" d="M32.87,462.7c.68,19.91,1.36,40.51,1.36,40.51.21,6.46,4.74,2.87,4.74,2.87a9.75,9.75,0,0,1,2.64-2.86h0C36.17,505.2,37,500,37,500s1.14-33.1,2.57-54.5,23.13-15,23.13-15h0c1-1.28,1.78-2.35,1.78-2.35L41.4,425.06C29.57,442.41,32.87,462.7,32.87,462.7Z"/><path class="cls-1" d="M85.14,421.75S75.64,443,84,461.58c0,0,4.3,17.42,2.72,31.9,0,0,9.5,9.28,18.56-3.39,0,0-3.17-10.86,0-29.42s1.36-28.06,1.13-30.55l3.62-9.73L93.52,415Z"/><path class="cls-14" d="M89.2,418.6l-3.88,3.14S75.83,443,84.2,461.58c0,0,4.3,17.42,2.72,31.9,0,0,4.56,4.44,10.36,3l0,0S92,494.74,90.54,492c0,0,.21-24-2.35-36.1s1.71-27.39,1.71-27.39,5.4-2.71,16.5-2.35Z"/><path class="cls-15" d="M47.38,318.56a7.93,7.93,0,0,0,0,3s-5.46,24.44-10,69.85l-2,31.83a19.83,19.83,0,0,1,6,1.81c3.08,1.51,29.63,4.83,41.4,2.72a26.8,26.8,0,0,0,0-7.54s15.09,12.07,37.72,2.11a35.72,35.72,0,0,0,0-6.38s2.41-51.62-8.45-88.4c0,0,1.51-1.47.6-5.7Z"/><path class="cls-16" d="M61,427.79c.54.09,1.13.16,1.77.21Z"/><path class="cls-16" d="M41,415c.87-9.55,1.51-40.18,1.51-40.18a207.32,207.32,0,0,1,.3,24.12c-.68,11.32,0,26.18,0,26.18,5.81,1.17,13.66,2.19,18.15,2.73-6.79-1.16-6.83-5.59-6.83-5.59s6.56-28.06,6.34-44.13S55.72,341.18,55,336.2A65.61,65.61,0,0,1,54.59,326c-1.81,6.11-2.49,24.67-3.39,17.2s.68-18.56.68-18.56c-4.07,9.73-7.69,34.62-7.69,34.62,0-11.32,5.43-38,5.43-38,5.88,1.81,22.52,3.87,22.52,3.87l-1-5.37-23.74-1.2a7.93,7.93,0,0,0,0,3s-5.46,24.44-10,69.85l-2,31.83a18.93,18.93,0,0,1,3.73.89S40.15,424.46,41,415Z"/><path class="cls-16" d="M64.52,428.19s7.95.26-1.18-.16l-.59,0,1.78.2Z"/><path class="cls-16" d="M82.81,420.23a133.65,133.65,0,0,1,5-24.89c4.07-13.58,12.37-39.38,10.56-53.11,0,0,2,12.07.25,23.38s8,15.69,11.51,16.6c0,0-6.34,3-11.77,1.81a9.81,9.81,0,0,0,3.92,2.26s-5.26,1.32-8.45.45c0,0-1.51,5.73-1.51,8a14.82,14.82,0,0,0,10.26,5.13s-7.24,0-11-2.26a10.49,10.49,0,0,0,7.4,4.63l.75,0c5.43.15-6.34,1.06-10.26-.45,0,0-2.33,9.65-3.32,14.79,0,0-2,5.74,15.84,9.66C102,426.27,94.57,427.63,82.81,420.23Z"/><path class="cls-17" d="M29.47,525.16c1.58,4.53,12,4.65,12,4.65C49,542,72.1,532.9,74.12,532.07l-.41-2.2-.66.34a2.42,2.42,0,0,0-2.67-2.46c-2.68.14-2.64,4.07-2.64,4.07-12.33,4.76-24.05-2.08-24.05-2.08s-6-6.54-9.63-8-3.44-5.59-3.44-5.59C28.57,520.18,29.47,525.16,29.47,525.16Z"/><path class="cls-17" d="M80.56,513.56c2.66,3.33,11.6,4.59,11.6,4.59,7.24-.68,19.24,3.85,28.29,4.3s14-4.3,14-4.3a4.26,4.26,0,0,0-1.18-3.9h0a2.77,2.77,0,0,0-2.1,3.17c-3.35.61-16.91,1.71-23.73-3a29.11,29.11,0,0,0-13.9-5c-8.31-.07-12.05-3.5-12.05-3.5A13,13,0,0,0,80.56,513.56Z"/><path class="cls-18" d="M32.45,501.4a88.61,88.61,0,0,0-1.84,14.71c-2,4.07-1.13,9.05-1.13,9.05,1.58,4.53,12,4.65,12,4.65,4.65,7.52,15.17,7,23,5.22.51-8.71-3.3-8.78-3.3-8.78-8.56-.58-9.44-4.28-9.44-4.28C40,510.93,41.6,503.22,41.6,503.22c-3.57,1.64-1.35,3.71-4.35,3.74s-3-3.75-3-3.75L34,495.85l-1.4.49C30.22,497.79,32.45,501.4,32.45,501.4Z"/></g><g id="Laag_30" data-name="Laag 30"><path class="cls-19" d="M89.95,191a16.08,16.08,0,0,1-2,.74c-.52.1-3.22,0-3.22,0S80.43,192.78,80,193s-2.47.8-2.8.94-2.42,1.23-2.58,1.39-3,2.06-3.32,2.36a52.48,52.48,0,0,0-4.11,4.38c-.43.78-2.74,4-2.74,4s-1.22,1.42-1.63,1.91a30.24,30.24,0,0,0-3.21,6.61,37.54,37.54,0,0,1-1.26,3.72l-.62,2.48-.5,2.84-.69,3.1-.61,3.41-.51,2.24-.87,2.77-.48,2.22-.74,3.5-.53,2.89s-1,6-1.28,7.21-.63,4.73-.63,4.73l-.73,7.59L49.8,265l-.56,4.19-1.18,6.46-.61,4-1.1,6.26-.65,3.52-.63,3.76-1.2,6.5L43,306.27l-.58,8.32-1,8.94-1.17,11.8s2,1.57,2.13,2,3.05.25,3.66.79,1.17.65,1.35.51a2.35,2.35,0,0,0,.37-1.18c0-.38.3-6.48.3-6.48l.48-4.29a15,15,0,0,1,.66-2.57c.24-.3.75-1.72.8-1.7s.43-.25.35.54a1.83,1.83,0,0,1-.36,1.06,5.46,5.46,0,0,0-1,2.3,37,37,0,0,0-.57,3.86s3.93.84,4.79,1.1,13.77,5.27,16.63,5.82,8.71,2.18,9.77,2.35,4.64,1,6.15,1.08l6.55.45c1.44.1,5.73.08,6.54,0a85.28,85.28,0,0,0,9.29-1.62c.93-.44,7.87-2.41,8.17-3.09a3.05,3.05,0,0,0,.41-1.27c0-.5,0-.78-.58-1.74s-.65-4-.65-4l.06-4.77-.06-4.53-.46-3.78-1.54-6.34-.43-1.38a8,8,0,0,0,.23-2.21c-.13-.68-2-4.64-1.85-4.68s-.89-.91-.84-2,0-6.16,0-6.16.14-5.92.66-6.68a3.77,3.77,0,0,0,.63-1.46s4.44-10,4.43-10.09a7.78,7.78,0,0,1,.23-.93s4.41.56,5.55.25,3.88-.86,4.87-1.2,7.78-2.8,7.85-3,.31-.1.21-.65-1.27-6-1.27-6L132.6,256s-.47-5-.47-5.19-1.3-19-1.3-19l0-5.5a6.73,6.73,0,0,0-.68-3.62c-.91-1.56-1-2.07-2.07-2.8a10.53,10.53,0,0,1-2.34-3.06l-3.63-4.59-3.76-3.93L119,213l2.23,6.26,1.7,3.89a11.61,11.61,0,0,1-1,1.53l-3.8.47L117,226.43l-3.14,2.08-3.71.61,1.71-2.59L110.22,221l-3.16-2.32-7.71-2.84-4.81-12.54L91.46,191.6Z"/></g><g id="Laag_31" data-name="Laag 31"><path class="cls-20" d="M127.93,232.88a39.63,39.63,0,0,1-3.91-7.8,4.91,4.91,0,0,0-4.24-3.42l-1.87-10.56.19-2.79s3.21,3.1,4.25,4.42L128,220a1,1,0,0,1,.8.43,23.28,23.28,0,0,1,1.55,2.81,28.1,28.1,0,0,1,.44,3.14c0,.37-.12,1.6-.12,1.67s-.16,1.52-.12,1.76,0,2.3,0,2.3Z"/><path class="cls-20" d="M123.44,254.34l8.58-3.7a6.06,6.06,0,0,1,0,1.19s.37,4.29.55,4.9,1.2,8.08,1.2,8.08l-12.55,4.52a18.9,18.9,0,0,1-.14-2.49l.65-3.87s.66-4.91.69-5.74S123.28,255.17,123.44,254.34Z"/><path class="cls-21" d="M74.34,195.44s-5.28,3.24-7.2,6.36a23.67,23.67,0,0,1-2.51,3.68,32.66,32.66,0,0,0-3.05,4.3c-.7,1.45-2.18,4.75-2.18,4.75s4.77,12.69,5.79,14.66,5,11.4,5,11.4l5,10.21.16-.54-7.1-18.13-2.1-6.5-1.41-3.8-.39-2.63s-.71-3.78-.07-3.73a5.37,5.37,0,0,1,3,1.78c.71,1,5.07,6.23,5.07,6.23l3.85,5.77s.59.42.46.21-1.15-2.16-1.15-2.16-5.54-10-5.77-11.23-1.34-5.27-1.34-5.27a58.56,58.56,0,0,1-.61-6c.13-.77,1.25-4,1.25-4S72.27,196.72,74.34,195.44Z"/><path class="cls-22" d="M70.88,243.31s-1.82,21.36-2.9,23.55-4.34,12-6.33,14.1-8.77,20.36-9.18,21.23-3.69,12.05-3.69,12.05l-.24,1.31a9.56,9.56,0,0,0-.08,1.22c0,.12,0,.6.17.76s.92-1.14.92-1.14.27-.24.26,0a6.19,6.19,0,0,1-.47,1.18l-.54,1.71-.68,2-.21,1.62-.52,3-.78,6.19L46.35,337s-5.4-.21-6-1.66,2.13-24.15,2.13-24.15l2.43-18.46,2.43-12.69L50,263.84,51,253l1.41-8.11,1.84-9.23,1.46-5.2,1.31-6.66s1.72-8.24,2.32-8.9S70.88,243.31,70.88,243.31Z"/><path class="cls-23" d="M99.92,252.25s.16,10.62.27,11.18,1.08,14.74,1.08,14.74l1,11.08,1.88,12.59,1.56,13.62L109,334.34a21.87,21.87,0,0,0,5.32-2.62c1.71-1.4,1.22-1,1.22-1l0-4.92-.29-5.85-.43-4.31-.71-2.89s-.93-4.13-1-4.22a3.88,3.88,0,0,0,.24-2.13,16.76,16.76,0,0,0-2.19-5.25,1.68,1.68,0,0,1-.51-1.59v-2.42l0-3.57a45.16,45.16,0,0,1,.32-5.08l.37-1.53s3-6.91,3.45-7.84c2-4.66,1.81-4.79,1.81-4.79l1.69-5.65,2.08-5.53,1.29-3.46.81-1.9,0-.65,0-.24s.19-.59.28-.82l.41-.95s.3-.71.24-.75a13.85,13.85,0,0,0-1.46.28l-6.28,1.75-6.44,2.41Z"/><path class="cls-23" d="M89.21,243.88l-8,4.83L78.65,251l-1.52,2.63.09,1.2.69,1,1.17.45A7.07,7.07,0,0,0,83,255.13c1.64-1.24,3-2.12,3.78-2.85s3.12-2.81,3.3-3,2.16-2.09,2.6-2.43S89.21,243.88,89.21,243.88Z"/></g><g id="Laag_34" data-name="Laag 34"><path class="cls-24" d="M158.31,312.5l.93,3.87a1,1,0,0,0,.95.75,41.65,41.65,0,0,0,4.29-.79l4.6-.78,6.77-1.07,2.11-.54-.25-1-1.42-1.44-2.55-2.1-13.43,0A2.68,2.68,0,0,0,159,310,3.28,3.28,0,0,0,158.31,312.5Z"/><path class="cls-25" d="M198,293.87l-4.3-.1a35.32,35.32,0,0,0-5.69.81c-1.23.48-2.89.8-3.41,1.1s-2.74,1.48-3,1.72a16.32,16.32,0,0,0-2.23,2.1c-.44.65,4.9-2.36,4.9-2.36L195,295.66l10.2,3.68,5.27,8.37.94,5.67,2-.06s.62-4.88.29-6.37a26.29,26.29,0,0,0-1.86-5.06,27.38,27.38,0,0,0-2.67-3.12c-.68-.46-3.57-2.94-5.86-3.61A46.05,46.05,0,0,0,198,293.87Z"/><path class="cls-26" d="M177.47,304l.05.21.5,1.3,1.1,2.76,2.48,3.2,1.86,2,1,.82-.46.55-4,0,1.21,4.42.33.79a11.82,11.82,0,0,0,1.63,1.75,26,26,0,0,0,4.16,2.34c.9.21,3.63.85,3.76.86s4.27.4,4.59.32,4-.33,4.31-.51,5-1.11,7.23-2.88,3.31-2.32,4.17-3.91a18.42,18.42,0,0,0,2-4.59,25.34,25.34,0,0,0-.39-6,29.54,29.54,0,0,0-1.7-4.4c-.59-.92-2.87-4-4-4.68s-3.41-3.06-8.28-3.33-8.58-.53-12.28.62a23.42,23.42,0,0,0-5.22,2.12l-2.19,1.7L177.6,302Z"/><circle class="cls-27" cx="172.19" cy="151.61" r="5.12" transform="matrix(0.07, -1, 1, 0.07, 9.01, 312.88)"/></g><g id="Laag_32" data-name="Laag 32"><path class="cls-1" d="M89,243.71s9.88,9.46,10.62,9.94,4.87,3.81,5.29,4a39,39,0,0,0,4.09,2.05,6,6,0,0,0,3.38-.2c1.25-.65,3.08-2.12,3.79-2.27s7.22-2.9,7.22-2.9l10.3-4.42,3.65-2.12,5.93-3.72s8.86-6.53,9.84-7.36,5-3.43,5-3.43l5.87-3.47s1.47-1.3,1.7-1.46,3.18-1.78,3.18-1.78a7.68,7.68,0,0,1,1.31-.86c.54-.24,4-2,4.73-2.47s7.78-5.81,7.78-5.81l1.82-2L187,213l3.74-4.54,3.34-4.5,4-5.74,1.9-2.87s.29-.78.07-1.06a1.19,1.19,0,0,0-1.4-.46,9.31,9.31,0,0,0-2.28,1.38,3.25,3.25,0,0,0-1.06-.07,1.87,1.87,0,0,0-.85.58,5.06,5.06,0,0,1-.56.75l-1.35,1-4.74,2.89-3.38,1.87L181,204.14l-2.92,1.23-2.46.65-2.51-.17,3.2-2.61s1-1,1.11-1.16,1.27-1.65,1.29-1.76a4.74,4.74,0,0,0,.47-1,8.43,8.43,0,0,0,.08-1.28,3.46,3.46,0,0,0-.44-1.12c-.12-.19-.61-1.32-1.44-1.11a2.18,2.18,0,0,0-1.22.82l-1.24,1.15s-4.15,3-4.34,3.88-5,3-6.25,5.35-3.25,2-4.19,8.34-39.5,19.57-39.5,19.57l-10.25,2.84-2.25-2.91-2.1-2.15-7.29,1.17Z"/><path class="cls-1" d="M111.36,286.76a10.25,10.25,0,0,0,2.52,2.13c.88.29,1.86.6,1.86.6l5.42,3.61,4.61,2.32,5,1.92,10.84,2.94,9.23,2.37s5.3,1.34,6.34,2.22,1.53,1.07,1.93,2.2a9,9,0,0,0,1.16,2.33l7.34.29L174,310l2.54,2,1.28,1.47.18.53-2.11.54-10,1.58a16.92,16.92,0,0,0,2.07,2.1,4.36,4.36,0,0,0,1.53.49,6.05,6.05,0,0,0,1.24-.33l1.46,1.1a2.27,2.27,0,0,0,.87.26,1.68,1.68,0,0,0,.89-.29,3.4,3.4,0,0,1,.47-.33s1.31.57,1.6.68a9,9,0,0,0,2,.52,8,8,0,0,0,1.34-.09c.12-.07.79-.35.89-.59a2,2,0,0,0,.05-.73l.91.15-.77-3.87.69.16a7.8,7.8,0,0,0,1.1.28,3.78,3.78,0,0,0,1.42-.28l.95-.68,0-.45-.81-.79-1.6-1.45-1.74-2.26-1.31-1.49-.81-2a21.46,21.46,0,0,1-.83-2.18c0-.2,0-1.15,0-1.15l-5.49-2.3-17.33-9.28a19.21,19.21,0,0,0-3.17-.82,6,6,0,0,1-2.25-1l-8.64-4.24-6.83-5.1-3.61-3.13-3.74-3.42-9,.36-.93.42-.25.87-.08.26-.08.22-2,4.67-.27.61-.73,1.63-.2.5-.48,1.06-.22.5Z"/></g><g id="Laag_33" data-name="Laag 33"><path class="cls-14" d="M89.13,244s7.42,6.88,7.52,6.92,4.92,4.58,5.11,4.66,2.86,2,3.34,2.28a30.92,30.92,0,0,0,4,2c.5,0,2.45.29,3.22-.17s3.58-2.3,3.78-2.29,8.45-3.43,8.45-3.43,8.84-3.76,9.26-4,7.26-4.23,7.72-4.61c.17-.13,5.55-3.7,6.5-4.5.5-.42,5.32-4.26,5.8-4.57s7.51-4.88,7.78-4.93-2.27.44-2.83.67-6.44,2-6.72,2.2-4.82,2-4.82,2l-3.71,1.76s-13.74,7.59-14.17,8-7.21,4.44-7.21,4.44l-5.1,3.25a22.55,22.55,0,0,1-3.71.78,13.63,13.63,0,0,1-3.89-.85,37.29,37.29,0,0,1-3.77-1.91c-.28-.32-4.56-3.43-5.52-4.49s-6.76-6.86-6.76-6.86Z"/><path class="cls-14" d="M108.68,241.35s13.77-5.48,15-6,12.39-5.16,13.12-5.56,5.36-3.14,5.36-3.14L131.31,231l-7,2.62-6.62,2.06s-7,2.09-7.22,2.08a.32.32,0,0,1-.29-.2s-2.87,1.3-3.42,1.71a24,24,0,0,0-3.14,2.38c-.26.46-.42.67.29.57S108.27,241.49,108.68,241.35Z"/><path class="cls-3" d="M183,209.47s10.31-7.26,10.82-8.36,0,1.2-.33,1.41-1.93.87-1.94,1.1a9.89,9.89,0,0,1-.12,1.72c-.1,0-1,.57-1,.57l-.39-.09a4,4,0,0,0,.9-.51c0-.13.34-1.11.21-1.12a6.39,6.39,0,0,0-1,.83s-1.34,1.07-1.87,1.54A37.81,37.81,0,0,1,183,209.47Z"/><path class="cls-3" d="M191.21,206.1s-2.49,1.93-2.57,2.07-1.62,1.69-1.84,2-1.26,2.24-1.26,2.24,0,.2.25,0,.33-.8.57-1,.19-.86.6-1.13,1.3-1.49,1.64-1.66a6.52,6.52,0,0,0,1.21-.52c.34-.28,1.08-.73,1.15-1.1S191.21,206.1,191.21,206.1Z"/><path class="cls-3" d="M170,208.57l8.28-3.26a22.9,22.9,0,0,1-3.17.71c-.36-.08-2.07-.18-2.07-.18l2.56-2c.14-.11,1.49-1.33,1.49-1.33s1.17-1.43,1.26-1.59.68-1.28.68-1.28a3.49,3.49,0,0,0,.13-.47V199a5.09,5.09,0,0,0,0-1c-.06-.13-.29.71-.29.71a4.94,4.94,0,0,1-.52,1,15.39,15.39,0,0,0-.89,1.44s-.54.64-.71.78-2,2.06-2.06,2.11-1.63,1.11-1.83,1.19a5.74,5.74,0,0,1-1.5.7c-.55.07.68.12.68.12a.63.63,0,0,1,0,.38,2.7,2.7,0,0,0-.19.52l-1.33,1C170.39,208.1,169.94,208.61,170,208.57Z"/><path class="cls-3" d="M184.52,215.48a20.22,20.22,0,0,1-1.7,1.9l-3.66,2.77-3.53,2.69a35.69,35.69,0,0,1-3.9,2.16c-.82.24-11.59,2.84-11.59,2.84s7.41-3.24,8.52-3.39-1-.15-1.45-.08-1.42.3-1.42.3l.61-.51s3-1.64,3.23-1.85,2.49-2,2.8-2.46,1.2-1.47,1.2-1.47,1.14-3.45,1.85-3.92,1.68-1.53,2.78-1.48S181.11,212.34,184.52,215.48Z"/><path class="cls-28" d="M170.33,318.39a2.64,2.64,0,0,1-1.41.1,12.07,12.07,0,0,1-2.42-1.59,10.13,10.13,0,0,1-.59-.94,7.75,7.75,0,0,1-.2-1.86c.15,0,.66-1.18,1.62-.29a3.86,3.86,0,0,1,1.16,1.68l.67,1.5Z"/><path class="cls-28" d="M172,319.36a17.82,17.82,0,0,1-1.55-1.41c-.23-.32-1.07-1.2-1.05-1.4s-.54-.81-.54-.81a10.85,10.85,0,0,1-1-2.72c0-.78-.16-2.31-.16-2.31s-.12-1.21.38-1.15a2.66,2.66,0,0,1,2.52,1.2c.66,1.27,1.42,2.93,1.42,2.93a2.56,2.56,0,0,1,.27,1.82,5,5,0,0,0,1.08,2.88l.78.68a1,1,0,0,1-1,.53C172.51,319.44,172,319.36,172,319.36Z"/><path class="cls-28" d="M180.25,318.91a1.11,1.11,0,0,1-.83,1.12,8.43,8.43,0,0,1-2.83,0,17.64,17.64,0,0,1-2.1-1,16.71,16.71,0,0,1-1.68-3,5.85,5.85,0,0,1-.17-1.33l-.31-2.26a2.18,2.18,0,0,1,1.45-.23c.69.2,1.4.26,1.78,1.31a4.26,4.26,0,0,1,.35,1.51l.61,1,.86,1.74a8.67,8.67,0,0,0,1.28,1A10.69,10.69,0,0,0,180.25,318.91Z"/><path class="cls-28" d="M111.36,286.76a11.78,11.78,0,0,0,1.52,1.66,5.55,5.55,0,0,0,2.54,1c.64-.09-1.09-2.61-.8-5.24s.59-5.33,3.66-6.9,6.42-3.39,8.31-3.48-8.44-4-8.88-1.58-.82,1.52-.82,1.52l-.32.58-.22.85-.82,2.07-.63,1.51-.73,1.61-.63,1.46-.5,1.13-.65,1.49-.2.44-.31.71-.27.61Z"/><path class="cls-3" d="M127.2,274.09l11.08,9.43s-4.65-3-8.08-2.89-8.7-.08-6.81,5.46,22,14.94,22,14.94-13.62-3.1-18.32-4.92a30.11,30.11,0,0,1-6.91-3.53l-4.65-3.25s0,0,0-.13a2.07,2.07,0,0,0-.08-.43,19.9,19.9,0,0,1-.88-3.46,15.74,15.74,0,0,1,.26-3.06c.13-.29.28-2.32,1.37-3.36s.87-1,2-1.62l3.06-1.56,1.07-.52,1.23-.55.58-.25.72-.26.63-.18s.75-.16.83-.16a3.66,3.66,0,0,0,.38,0l0,0a.09.09,0,0,0,0-.06Z"/></g><g id="Laag_29" data-name="Laag 29"><path class="cls-29" d="M97.55,189.18s1.56,3.24,1.7,3.8,2.75,9.77,2.75,9.77,2,7,2.18,7.13,2.21,6.1,2.28,6.15.8,2.37,1,2.54l2.5,2,.12.43s-1.84-1.3-2.91-1.85a26.23,26.23,0,0,0-4.72-1.61A18.07,18.07,0,0,1,98.9,217a5.53,5.53,0,0,1-2.07-2A10.13,10.13,0,0,1,96,211.3a2.9,2.9,0,0,0-.09-1.19c-.15-.24-1.33-2.41-1.36-2.53s-.92-4.48-1-4.65-1.13-4.71-1.13-4.71a40.13,40.13,0,0,0-1.46-4.6c-.34-.45-.44-2-1.15-2.51s2.22-.7,2.78-2.08.34-2.91,1.54-3.3,1.52,0,1.52,0A19.34,19.34,0,0,1,97.55,189.18Z"/><path class="cls-29" d="M122,224.89a1.63,1.63,0,0,0,.94-2.1c-1.15-3-3.8-10-3.91-10.76-.13-.95-.82-3.18-.81-3.52a22.58,22.58,0,0,0-.12-2.94c-.12-.38-.49-2.21-.54-2.27s-.24-.25-.3-.21a2.34,2.34,0,0,0-.41.29c-.12.12-.45.64-.45.64l-.17.23-.08.16,0,.08,0,.11-.06.13v.08l0,.1V205l0,.05,0,.06,0,.05-.05,0,0,.07-.05.08-1,2.12-.41,1-.15.42s.3.26.26.51-.32,3.18-.32,3.18.29.28.27.49-.34,4.34-.34,4.34a4.69,4.69,0,0,1-.25.9,10.68,10.68,0,0,1-1,2.26,9.78,9.78,0,0,0-1.2,2.29,3.79,3.79,0,0,1-.5.9,1.65,1.65,0,0,0-.2.39,6.47,6.47,0,0,1-.47,1.11,2.2,2.2,0,0,0-.32.48s.82.22.73.83-.42.95-.58,1-.59.13-.59.13l-.15.76-.18.15-.11.67s-.23.14-.19.18,0,.17.17.14a23.56,23.56,0,0,1,2.68-.13,14.11,14.11,0,0,0,3.42-1.13,22.71,22.71,0,0,1,2.48-2.08c.32-.12.14-1.11.91-.94s.77.38,1.17.31C120.07,225.57,121.1,225.24,122,224.89Z"/><path class="cls-30" d="M77.34,255.07l-1.88-3.7s-1.38-.76,2-4.66S96,231.48,96,231.48l2.58-1.16,2.08-.59a20.9,20.9,0,0,1,2.32-.21,3.69,3.69,0,0,1,2.26,1.06c.62.71,2.94,4.27,2.94,4.27a4.33,4.33,0,0,0-2.63-1,9.74,9.74,0,0,0-3.26.37,26.85,26.85,0,0,0-3.35,1.23c-.46.34-3.33,2.74-3.33,2.74l-3.07,2.92-3.86,3.27-7.41,5.32s-2.55,1.69-2.66,2.1A6.77,6.77,0,0,0,77.34,255.07Z"/><path class="cls-30" d="M116.38,274.14l1.53-4.73H121c.12,0,12.83-4.61,12.83-4.61s1.08,4.41,1,4.69.34.59-.5,1-7.91,2.94-7.91,2.94-3.46,1-4.45,1.13a19.3,19.3,0,0,1-3.19.26C118,274.71,116.63,274.56,116.38,274.14Z"/><path class="cls-31" d="M67.27,233.8l2.64,7,1.17,3s5.25,10.84,5.62,11.23a14.82,14.82,0,0,0,1.25,1.2,8.87,8.87,0,0,0,1.46.36,10.6,10.6,0,0,0,1.23-.21l2.59-1L87,252.54s2.06-2.06,2.24-2.21a22.21,22.21,0,0,1,3.09-2.42s-2.15,1.29-2.52,1.62l-2.16,1.85-1,.91-1.82,1.35L83,255.08l-1.47.57a5.92,5.92,0,0,1-1.18.39c-.22,0-1.22.34-1.75,0s-.64-.2-1.23-.93a38.12,38.12,0,0,1-2.15-4.46l-1.39-2.67-2.35-4.79-.6-1.16S68.29,236.41,67.27,233.8Z"/></g><g id="Laag_22" data-name="Laag 22"><polygon class="cls-32" points="158.04 432.56 171.99 432.56 177.27 549.13 164.06 549.13 158.04 432.56"/><polygon class="cls-32" points="191.66 432.56 194.45 479.83 201.79 479.83 201.35 432.56 191.66 432.56"/><polygon class="cls-32" points="476.34 478.07 477.81 430.8 486.76 430.8 484.71 478.07 476.34 478.07"/><polygon class="cls-32" points="538 430.8 528.9 542.67 538.44 542.67 547.25 430.8 538 430.8"/><polyline class="cls-33" points="158.04 433.59 158.92 448.86 172.87 449.74 172.13 433.44 158.04 433.59"/><path class="cls-33" d="M201.79,433s-3.82,6.17-5,8.66-4,10.28-4,10.28l-1.17-19.38Z"/><path class="cls-33" d="M478,431.83l-.44,13.95s8.37,6.17,8.37,7.19.88-21.14.88-21.14H478"/><path class="cls-33" d="M535.65,430.8H548l-1.91,16.15s-2.94-7.34-4.26-9.69c-.88-1.61-4.26-6.46-4.26-6.46"/><polygon class="cls-33" points="528.9 542.67 525.37 537.24 534.18 430.8 538 430.8 528.9 542.67"/><polygon class="cls-33" points="177.27 548.69 178.16 544.14 173.46 432.56 171.99 432.56 177.27 548.69"/><polygon class="cls-33" points="201.79 479.83 204.44 475.14 203.26 432.56 201.35 432.56 201.79 479.83"/><polygon class="cls-33" points="476.48 478.07 474.13 473.08 475.6 430.8 477.95 430.8 476.48 478.07"/><polyline class="cls-34" points="175.95 519.33 177.27 516.39 527.58 511.4 528.46 514.19 175.95 519.33"/><polygon class="cls-34" points="527.43 515.66 527.72 508.17 480.15 458.84 480.3 467.06 527.43 515.66"/><polygon class="cls-34" points="203.41 457.37 475.31 455.61 475.16 457.67 203.41 459.72 203.41 457.37"/><polygon class="cls-35" points="174.93 499.51 193.42 462.51 199.3 462.66 175.37 510.23 174.93 499.51"/><polygon class="cls-35" points="175.95 519.33 528.46 514.19 527.72 524.47 176.39 530.93 175.95 519.33"/><polygon class="cls-35" points="485.59 458.84 528.31 502.3 527.72 508.17 480.15 458.84 485.59 458.84"/><polygon class="cls-35" points="203.41 459.72 475.16 457.67 475.02 465.59 203.41 467.06 203.41 459.72"/><polygon class="cls-34" points="199.3 462.66 199 469.26 175.95 519.33 175.37 509.93 199.3 462.66"/><polyline class="cls-36" points="67.16 413.33 67.16 434.03 635.34 430.94 635.34 412.15 67.16 414.5"/><polygon class="cls-37" points="67.16 414.5 142.33 362.68 528.75 362.68 635.34 412.15 67.16 414.5"/><polygon class="cls-38" points="67.31 414.5 142.33 362.68 147.62 362.68 73.47 414.36 67.31 414.5"/><polygon class="cls-39" points="338.18 364.44 345.08 364.44 366.96 408.04 360.94 410.24 338.18 364.44"/><polygon class="cls-39" points="67.16 414.5 80.08 409.8 629.91 409.66 635.34 412.15 67.16 414.5"/><rect class="cls-40" x="338.18" y="341.68" width="5.29" height="20.99"/><polygon class="cls-41" points="340.24 361.36 363.73 412.3 363.73 381.91 340.24 342.12 340.24 361.36"/><rect class="cls-42" x="360.79" y="381.91" width="7.05" height="31.42"/></g></svg>