<svg xmlns="http://www.w3.org/2000/svg" viewBox="0 0 641.94 556.2"><defs><style>.cls-1{fill:#e5af97;}.cls-2{fill:#b1816a;}.cls-3{fill:#b0816b;}.cls-4{fill:#c3977e;}.cls-5{fill:#7f5e4f;}.cls-6{fill:#7f5c4a;}.cls-7{fill:#c5887a;}.cls-8{fill:#6c3834;}.cls-9{fill:#966c5c;}.cls-10{fill:#956b59;}.cls-11{fill:#492813;}.cls-12{fill:#2c130f;}.cls-13{fill:#575656;}.cls-14{fill:#cb9982;}.cls-15{fill:#1e1e1e;}.cls-16{fill:#111110;}.cls-17{fill:#3f3f3f;}.cls-18{opacity:0.25;}.cls-19{fill:#f4bc76;}.cls-20{fill:#e4af79;}.cls-21{fill:#e8b076;}.cls-22{fill:#edb275;}.cls-23{fill:#dba266;}.cls-24{fill:#4c2b12;}.cls-25{fill:#edc6b7;}.cls-26{fill:#7d170f;}.cls-27{fill:#c4b6ae;}.cls-28{fill:#977460;}.cls-29{fill:#e19341;}.cls-30{fill:#e39244;}.cls-31{fill:#9b6936;}</style></defs><title>pingpong master alleen</title><g id="Laag_26" data-name="Laag 26"><path class="cls-1" d="M317.7,177.36l2.29-5.5,1.67-5.9a7.18,7.18,0,0,1-1.13-1.2,5.15,5.15,0,0,1-.68-1.81,15.22,15.22,0,0,1,.07-1.89,19.41,19.41,0,0,1-.46-2.45c0-.53.11-2.08.75-2.58s.8-1.16,2.19-1.52,5.86,1.32,5.86,1.32l3.24.25.27-.86s2.17-3.09,2.26-3.11.4-1.71.48-1.78,2.58-2.38,2.59-2.52-.17-.86-.09-.95,1.39-.61,1.46-.7a13.94,13.94,0,0,1,.9-1.86,8.5,8.5,0,0,0,1.55-1c.15-.25.47-.7.44-1s.17-1,.08-1-.37.48-.37.48-.22.18-.29.09a2.37,2.37,0,0,1-.06-.67s-.18-.19-.18-.24.12-1.34.12-1.34l-1-1.94s-.1-.43,0-.43.47-.18.64,0,.19.53.26.53.1-.45.1-.45.46,0,.5,0,.36.47.36.47l2.67,1.64s4.46,1.69,5.21,2.1,5.48,2.64,6.56,4,3,3.17,3.21,4.72.1-1.43.1-1.43-1.41-3.06-1.57-3.23,2.39,2.65,2.76,3.86,1.37,2.24,1.76,4.1a25.47,25.47,0,0,1,.35,4.57l-.42,3.64a9.31,9.31,0,0,0-1.46,2.73c-.06.81-.49,6.3-.49,6.3s-.47,2-.63,2.39-1,2.32-1,2.32l-1,1.56-2.17,3-.9,1.3s-1,1.55-1.05,1.66a24.24,24.24,0,0,1-1.17,2.13,17.5,17.5,0,0,1-1.55,1.53,4.85,4.85,0,0,1-3.33,1.21c-1.92-.09-3.76-.55-4.46.35s-2.92,5-3.76,5.33-1.73,2.25-3.36,6.24-3.44,7.56-3.44,7.56l-.23,2.78s-.78,1.32-.66,1.85-2.75-2.35-2.75-2.35l-4.34-12-2.8-8.88s-1.73-6.94-2-7.43S318.38,178.38,317.7,177.36Z"/></g><g id="Laag_28" data-name="Laag 28"><path class="cls-2" d="M318.72,174.91s2.14-5.86,2.57-7.62c.2-.83.37-1.22.38-1.33s4,2.28,4.44,2.34.67,2.28.56,2.46-.7-1.92-1.13-1.74-1.28-.22-1.28-.22-1.24-.45-1.65-.56a1.5,1.5,0,0,1-.65-.36S319.78,173.5,318.72,174.91Z"/><path class="cls-3" d="M346.32,187.79l-1.76-.43-2.48-.9-2.3-1.33L337.65,184s-3.06-2.32-3.13-2.43-2.41-2.5-2.41-2.5l-1-1L329.46,176s-2.27-4-2.35-4a5,5,0,0,0,.33,1.09s1.6,3.11,1.68,3.22,2.28,3.09,2.34,3.14,3,2.81,3,2.81,3.61,2.85,3.78,3.09.95,1.31.72,2a6.35,6.35,0,0,1-1.26,1.64s-1.25.67-1.18.74a.82.82,0,0,0,.49.12,16.75,16.75,0,0,1,2.67-.83c.28.11,2.26.4,2.35.44s.47-.93.83-1.09.89-.66,1.5-.6S346.32,187.79,346.32,187.79Z"/><path class="cls-4" d="M340.41,192.07l-.75,1a3,3,0,0,1-.71.59,1.68,1.68,0,0,0-.42.38c-1,1.33-.72,1.46-1,1.7S336,199.2,336,199.2a8.58,8.58,0,0,1-.61,1.47,1.84,1.84,0,0,0-.73.21c0,.08-.14.85-.14.85l-.88,0a11.08,11.08,0,0,0-1.86-1.47c-.28,0-3.76-.23-3.82-.3s-1.35-.42-1.48-.8,2.68-1.35,2.68-1.35,3.52-1.41,3.57-1.49,1.17-3.19,2.44-3.42S336.73,192.07,340.41,192.07Z"/><path class="cls-5" d="M324.1,159s.93,0,1-.48.38.69.28.77a13,13,0,0,1-2.25,1.08,1.43,1.43,0,0,0-.72,1.93c.35.51.7,1.22,1.29,1.43s-.41.17-.7,0a4.21,4.21,0,0,1-1.14-1.3,2.29,2.29,0,0,1,.08-2A3.66,3.66,0,0,1,324.1,159Z"/><path class="cls-5" d="M321.16,162.24a3.15,3.15,0,0,0-.05-1.12,2.25,2.25,0,0,1,.08-1.18s0-.45-.55-.52.19-.48.19-.48-.17-1.31.3-1.83.46-.93,1-1.13.47.19.47.19L322,157.4s-.15.47-.06.54.07-.3.21-.45a10.54,10.54,0,0,1,.6-1.55c.37-.51,1.95.71,2,.83s.25.55.17.65-.45.34-.42.47-.16.3-.16.3.39.09.55-.08a2.09,2.09,0,0,1,.4-.35s0-.51-.05-.52a2.06,2.06,0,0,1-.23-.76c0-.07-.72-1.5-1.75-1.37a2.47,2.47,0,0,0-1.68.85,10.32,10.32,0,0,0-.87,1.12,5.13,5.13,0,0,0-.52,1.21,8.51,8.51,0,0,0,.21,1.76c.11.28.36,1.51.36,1.51A1,1,0,0,0,321.16,162.24Z"/><path class="cls-6" d="M354.83,172.82s1.73-1.15,1.89-1.36a2.31,2.31,0,0,0,.7-1.24,5.48,5.48,0,0,0-.4-1.72s0,.3,0,.37.15.65.15.7,0,.69,0,.69l-.41.81-.44.38a5.83,5.83,0,0,0-1.67.12c-.26.18-.42.56-.62.45s.13.33.31.32S354.9,172.66,354.83,172.82Z"/><path class="cls-6" d="M350.62,170.44s.44.21.58.11.72-.5,1.15-.34a4.11,4.11,0,0,1,1.19.72c.11.15.37-.19.37-.19a2.19,2.19,0,0,0-1.57-1.16C351.1,169.28,350.72,169.78,350.62,170.44Z"/><path class="cls-2" d="M338.2,145.32s-.43-2,5.4-1.42,8.33,3.26,8.33,3.26.66.59,1,.54-1.35-.72-1.59-1.38,3.57,2.09,3.57,2.09,1.9,1.46,2.48,2,3.49,3.34,3.61,3.42,1.33,1.78,1.33,1.78-.49-3.51-.69-4.46a73.4,73.4,0,0,0-3.4-6.61l-12.48-6.32-7.94-2.45Z"/><path class="cls-2" d="M331.38,157.1s2.71-3.27,2.39-4.49-2.9,3-2.9,3Z"/><path class="cls-7" d="M346,176.45s-.22.39.27.84,1.85,1.68,2,1.8,1.52,1,1.52,1a17.28,17.28,0,0,1,2.76.43c.2.18,1.21-.75,1.21-.75s.17-.22.22-.3a2.76,2.76,0,0,0,.11-.45l.6,0a3.55,3.55,0,0,0-.6-2.58c-.9-1.49-.88.26-2.28-.73s-1.51.84-5.44.47C346.26,176.08,346,176.45,346,176.45Z"/><path class="cls-8" d="M346.38,177.24c0-.13.39-.75.55-.74s3.09.52,3.36.62a7.74,7.74,0,0,0,2.21.52c.7.07,1,1.05,1,1.05l.27.93a.84.84,0,0,0,.23-.54c0-.18.64-.15.64-.15l0-.42-.65-.24a4.22,4.22,0,0,0-1.22-.73l-1.69-.4-3.14-1a6.18,6.18,0,0,0-1.74-.17c-.27.14-.39.13-.42.28a1.17,1.17,0,0,0,.07.67c.09.07.42.43.42.43Z"/><path class="cls-9" d="M349.24,179.71s0,1.08-.13,1.15-.45.31-.56.24.17.21.47.13a3,3,0,0,1,1.31-.11c.68.08,1.37.31,1.82.35s.31-.59.36-.64.22-.29.22-.29,0,0-.2-.09a4.21,4.21,0,0,0-1.09-.24c-.38,0-1.7-.18-1.7-.18A3.08,3.08,0,0,1,349.24,179.71Z"/><path class="cls-10" d="M331.42,217.72s.5-4.23.43-4.31a9.49,9.49,0,0,1-.24-1.23l-.16-.47s0-.12.05-.24.07-.2.09-.26.12-.27.15-.38a6.06,6.06,0,0,1,.37-.71l.09-1.25.14-1.52,1-2.06.81-1.74.5-1.11.45-1,.23-.57.07-.15s.06,0,.16-.28.19-.55.19-.55l.1-.21s.27.2.28.42a2.27,2.27,0,0,1,0,.47l-.28,2.93,0,0,.06.07,0,0,0,.05.05.08,0,.1,0,.09v.1l-.14,1.75-.13,1.67-.08,1,0,.24,0,.14-.09.33-.06.18-.08.19-.23.6-.1.26-.12.32-.22.46-.64,1.35a15.33,15.33,0,0,0-.79,1.61c-.07.29-1,2.63-1,2.63l-.65.34S331.38,218,331.42,217.72Z"/><path class="cls-11" d="M341.85,155.35a5.81,5.81,0,0,1,2.66-2.21s4.55.72,6.8,2.22c0,0,.59.39.23.89s-1.35,0-1.35,0a21,21,0,0,0-5.32-1.92S343.66,154,341.85,155.35Z"/><path class="cls-11" d="M358.29,156.68s-1.14-.1-1.24.76,1.81.36,1.81.36a13.9,13.9,0,0,1,3.62.35l0-1S360.37,156.83,358.29,156.68Z"/><path class="cls-12" d="M350.65,159.5s-.49-1.79-3.41-2.14-3.09.22-3.47,1.11C343.76,158.51,346.86,156.37,350.65,159.5Z"/><path class="cls-12" d="M356.28,160.75s1.88-1.74,5.11-.37l-.05.56S359.84,159.44,356.28,160.75Z"/><ellipse class="cls-12" cx="346.56" cy="158.47" rx="0.88" ry="1.1" transform="translate(122.67 466.83) rotate(-78.59)"/><ellipse class="cls-12" cx="358.83" cy="160.67" rx="0.77" ry="1" transform="translate(130.35 480.62) rotate(-78.59)"/></g><g id="Laag_27" data-name="Laag 27"><path d="M314.35,175.29a2,2,0,0,1,1.5-.07,5,5,0,0,1,1.41,1.69l.79.06s3.8-10.24,3.67-10.87-1.27-1-1.71-2.6a3.44,3.44,0,0,1,0-2.39,8.94,8.94,0,0,1-.5-2.24c0-.66.09-2.25.82-2.89a13.9,13.9,0,0,1,2.1-1.36l.67-.16s0,.54.08.54.28-.26.42-.27a3.89,3.89,0,0,1,1.59,0,15.17,15.17,0,0,1,1.77.66,6.8,6.8,0,0,0-.57,1c0,.19,0,1,.15.62s.34-.36.34-.36-.41.86-.34.95.45-1,.75-1a2,2,0,0,0,.86-.37c.06-.1.11.42.11.42s-.17,2.92-.21,3,.31.71.31.84.12,1,.12,1-.37,3.11-.4,3.2.18.15.16.17.66-1.58.7-1.79a11.29,11.29,0,0,1,.33-1.69c.12-.18.67-1.39.67-1.39l.11-.55s.29-.45.3-.33a9.49,9.49,0,0,1,0,1.21c0,.12-.13,2-.13,2l0,.33s.23.05.25-.23a4.2,4.2,0,0,1,.24-1.16c.09-.08.13-1.1.22-1.18a11.62,11.62,0,0,0,.22-1.67,12.56,12.56,0,0,1,.26,2c-.07.26.33-.06.29-.24s0-1.59-.06-2.07a12.34,12.34,0,0,1,.2-2.67c.08-.1,2.36-3.28,2.38-3.33s0-.15.07-.32A4.26,4.26,0,0,1,335,150a12.55,12.55,0,0,1,2.3-2.28c.46-.18-.27-.41-.27-.41a1.11,1.11,0,0,1,.79-.74c.58-.09,1-.91,1-1s.66-1.65,1.49-1.75,1.39-2.2,1.16-2.68-.17.51-.53.51-.08-.59-.08-.59-.21,0-.24-.19.08-1.33.08-1.33a1.59,1.59,0,0,1-.1-.22,3.39,3.39,0,0,0-.15-.32s-.76-1.24-.79-1.37-.07-.46,0-.43.05,0,.11,0a2.72,2.72,0,0,1,.44.07,4.74,4.74,0,0,0,.25.54s0-.29.12-.46.4,0,.47.11a7.86,7.86,0,0,0,3,1.91l3.42,1.51c.43.19,7.44,3.09,8.84,5s2.71,2.89,2.8,4.53.39-1.64-.4-2.78a7.67,7.67,0,0,1-1.05-2,.18.18,0,0,1,.18,0c.07.07.93,1.07.93,1.07s1.5,2.4,1.63,2.78,1.47,3.57,1.36,4,.29-.07.25-.62-.72-3-.59-3a32,32,0,0,1,1.35,4.58c0,.28.41-4.75,0-5.85a12.45,12.45,0,0,1-.61-2.78s1.16,1.06,1.09,1.53.15.13.24-.31a23.36,23.36,0,0,0-1.69-5.43c-.48-.74-1.92-4-2.06-4.08s-1.33-1.38-1.48-1.34.52,0,.52,0l-.4-.57a3.52,3.52,0,0,0,.83.06c.11-.06-.11-.24-.3-.35s.89.14,1,.07.29.12-.28-.51-2.5-2.94-3.49-3.27-4-3.77-11-4.43-15.7,2.33-15.7,2.33-8.06,4.11-10.43,8.38-3.94,10.89-3.38,13.7.09,3.6.53,4.48a16.26,16.26,0,0,1,.47,4.05l.25,3-.33,6.21S314.74,175.08,314.35,175.29Z"/></g><g id="Laag_35" data-name="Laag 35"><path class="cls-13" d="M247.85,528.2s-.94-5.17,1.18-9.4a92.05,92.05,0,0,1,1.91-15.28s-3.06-4.95,1.63-5.77,16.64,0,16.64,0,3.26-.35,1.77,4.83a123.85,123.85,0,0,1,9.09,15,52.18,52.18,0,0,0,7.52,8.23c3.76,3.06,5.17-.82,6.82,9.46,0,0-25.86,11-34.09-2.28C260.31,533,249.5,532.9,247.85,528.2Z"/><path class="cls-13" d="M356.94,520.91s-5.17,4.94-14.58,4.47-21.87-5.17-29.39-4.47c0,0-9.28-1.31-12-4.77a13.51,13.51,0,0,1,1-7.93s.47-9.4,3.76-17.16c0,0-4.76-4,2-5.4s12.84,3.52,12.84,3.52l6.11,2.59s12,10.66,18.81,19.91C345.42,511.66,358.35,514.8,356.94,520.91Z"/><path class="cls-1" d="M260.25,424.2c-12.29,18-8.87,39.11-8.87,39.11.71,20.69,1.41,42.09,1.41,42.09.22,6.71,4.92,3,4.92,3,4.22-6.89,13.26-4.86,13.26-4.86l-1.41-3.13c-1.57-6-.47-14.73-.47-14.73,8.46-31.82,7.52-39.73,7.52-39.73a19.47,19.47,0,0,1,.16-6.27c1.25-2.74,2.9-6.58,2.9-6.58a56.07,56.07,0,0,0,4.59-5.6Z"/><path class="cls-14" d="M251.38,463.31c.71,20.69,1.41,42.09,1.41,42.09.22,6.71,4.92,3,4.92,3a10.13,10.13,0,0,1,2.74-3h0c-5.64,2.06-4.74-3.33-4.74-3.33s1.19-34.39,2.67-56.62,24-15.56,24-15.56h0c1.05-1.33,1.85-2.44,1.85-2.44l-24-3.26C248,442.23,251.38,463.31,251.38,463.31Z"/><path class="cls-1" d="M305.68,420.76s-9.87,22.1-1.17,41.38c0,0,4.47,18.1,2.82,33.15,0,0,9.87,9.64,19.28-3.53,0,0-3.29-11.29,0-30.56S328,432,327.79,429.45l3.76-10.11-17.16-5.64Z"/><path class="cls-14" d="M309.9,417.5l-4,3.27s-9.87,22.1-1.17,41.38c0,0,4.47,18.1,2.82,33.15,0,0,4.73,4.61,10.76,3.09l0,0s-5.43-1.74-7-4.63c0,0,.22-25-2.45-37.5s1.78-28.46,1.78-28.46,5.61-2.81,17.14-2.44Z"/><path class="cls-15" d="M266.45,313.56a8.24,8.24,0,0,0,0,3.12s-5.67,25.39-10.37,72.57l-2,33.07a20.6,20.6,0,0,1,6.2,1.88c3.2,1.57,30.79,5,43,2.82a27.85,27.85,0,0,0,0-7.84s15.67,12.54,39.19,2.19a37.12,37.12,0,0,0,0-6.63s2.51-53.63-8.78-91.84c0,0,1.57-1.53.63-5.92Z"/><path class="cls-16" d="M280.58,427c.56.1,1.18.17,1.84.22Z"/><path class="cls-16" d="M259.84,413.7c.91-9.92,1.57-41.75,1.57-41.75a215.39,215.39,0,0,1,.31,25.05c-.71,11.76,0,27.19,0,27.19,6,1.22,14.19,2.27,18.85,2.83-7.05-1.2-7.1-5.81-7.1-5.81s6.82-29.15,6.58-45.85-4.94-38.32-5.64-43.5a68.16,68.16,0,0,1-.47-10.58c-1.88,6.35-2.59,25.63-3.53,17.87s.71-19.28.71-19.28c-4.23,10.11-8,36-8,36,0-11.76,5.64-39.5,5.64-39.5,6.11,1.88,23.39,4,23.39,4l-1.05-5.58-24.66-1.25a8.24,8.24,0,0,0,0,3.12s-5.67,25.39-10.37,72.57l-2,33.07a19.66,19.66,0,0,1,3.87.92S258.94,423.58,259.84,413.7Z"/><path class="cls-16" d="M284.26,427.46s8.26.27-1.23-.17l-.62,0,1.85.21Z"/><path class="cls-16" d="M303.26,419.19a138.85,138.85,0,0,1,5.17-25.86c4.23-14.11,12.85-40.91,11-55.17,0,0,2.1,12.54.26,24.3s8.36,16.3,12,17.24c0,0-6.58,3.13-12.23,1.88a10.2,10.2,0,0,0,4.08,2.35s-5.47,1.37-8.78.47c0,0-1.57,6-1.57,8.31A15.39,15.39,0,0,0,323.79,398s-7.52,0-11.44-2.35a10.9,10.9,0,0,0,7.69,4.81q.38,0,.78.05c5.64.16-6.58,1.1-10.66-.47,0,0-2.43,10-3.45,15.36,0,0-2,6,16.46,10C323.16,425.46,315.49,426.87,303.26,419.19Z"/><path class="cls-17" d="M247.85,528.2c1.65,4.7,12.46,4.83,12.46,4.83,7.87,12.71,31.82,3.21,33.93,2.35l-.43-2.29-.69.35a2.51,2.51,0,0,0-2.78-2.56c-2.78.15-2.75,4.22-2.75,4.22-12.81,4.95-25-2.16-25-2.16s-6.23-6.79-10-8.35-3.57-5.81-3.57-5.81C246.91,523,247.85,528.2,247.85,528.2Z"/><path class="cls-17" d="M300.93,516.14c2.76,3.46,12,4.77,12,4.77,7.52-.71,20,4,29.39,4.47s14.58-4.47,14.58-4.47a4.43,4.43,0,0,0-1.23-4h0a2.88,2.88,0,0,0-2.18,3.29c-3.48.63-17.56,1.78-24.65-3.11a30.24,30.24,0,0,0-14.44-5.19c-8.63-.07-12.52-3.64-12.52-3.64A13.51,13.51,0,0,0,300.93,516.14Z"/><path class="cls-18" d="M250.94,503.51A92.06,92.06,0,0,0,249,518.79c-2.12,4.23-1.18,9.4-1.18,9.4,1.65,4.7,12.46,4.83,12.46,4.83,4.84,7.81,15.76,7.23,23.95,5.42.53-9-3.42-9.12-3.42-9.12-8.89-.61-9.81-4.45-9.81-4.45-12.25-11.47-10.57-19.48-10.57-19.48-3.7,1.7-1.41,3.86-4.52,3.89s-3.15-3.89-3.15-3.89l-.22-7.65-1.45.51C248.62,499.76,250.94,503.51,250.94,503.51Z"/></g><g id="Laag_30" data-name="Laag 30"><path class="cls-19" d="M310.68,181a16.7,16.7,0,0,1-2.08.77c-.54.1-3.35,0-3.35,0s-4.46,1.09-4.93,1.32-2.57.83-2.91,1-2.51,1.28-2.68,1.44-3.15,2.14-3.44,2.45a54.52,54.52,0,0,0-4.27,4.56c-.45.81-2.85,4.12-2.85,4.12s-1.27,1.47-1.7,2a31.41,31.41,0,0,0-3.34,6.86,39,39,0,0,1-1.31,3.86l-.65,2.58-.52,3-.72,3.23-.64,3.54-.53,2.33-.9,2.87-.5,2.3-.77,3.64-.55,3s-1,6.19-1.33,7.49-.65,4.91-.65,4.91l-.76,7.88-.37,1.79-.58,4.35-1.23,6.71-.63,4.11-1.14,6.51-.67,3.66-.65,3.91-1.25,6.76-.9,6.9-.6,8.64-1.06,9.28L259,331s2.07,1.63,2.21,2.12,3.17.25,3.81.82,1.22.67,1.4.53a2.45,2.45,0,0,0,.38-1.22c0-.4.31-6.74.31-6.74l.5-4.45a15.62,15.62,0,0,1,.69-2.67c.25-.31.78-1.78.83-1.76s.45-.26.36.56a1.91,1.91,0,0,1-.37,1.1,5.67,5.67,0,0,0-1,2.39,38.43,38.43,0,0,0-.59,4s4.08.87,5,1.14,14.31,5.47,17.28,6,9,2.27,10.15,2.45,4.82,1,6.39,1.12l6.8.47c1.5.1,6,.08,6.79,0s8.68-1.23,9.65-1.69,8.18-2.5,8.49-3.21a3.17,3.17,0,0,0,.43-1.32c0-.52,0-.81-.6-1.81s-.67-4.18-.67-4.18l.06-5-.06-4.71-.48-3.93-1.6-6.58-.45-1.43a8.27,8.27,0,0,0,.24-2.3c-.13-.71-2-4.82-1.92-4.86s-.92-.95-.87-2.06,0-6.4,0-6.4.14-6.15.69-6.94a3.92,3.92,0,0,0,.65-1.51s4.61-10.35,4.6-10.48a8.08,8.08,0,0,1,.24-1s4.59.58,5.77.26,4-.9,5.06-1.24,8.09-2.9,8.15-3.12.32-.1.22-.68-1.31-6.28-1.31-6.28l-1.22-8s-.49-5.18-.49-5.39-1.35-19.73-1.35-19.73l0-5.72a7,7,0,0,0-.71-3.76c-.94-1.63-1-2.15-2.15-2.9a10.94,10.94,0,0,1-2.43-3.18l-3.78-4.77L340.21,199l.68,4.83,2.32,6.5,1.76,4A12.06,12.06,0,0,1,343.9,216l-4,.49-1.18,1.37L335.51,220l-3.86.63,1.78-2.69-1.69-5.73-3.28-2.41-8-2.95-5-13-3.21-12.18Z"/></g><g id="Laag_31" data-name="Laag 31"><path class="cls-20" d="M350.14,224.54a41.17,41.17,0,0,1-4.06-8.11,5.1,5.1,0,0,0-4.41-3.55l-1.94-11,.2-2.9s3.34,3.22,4.41,4.6l5.87,7.5a1.06,1.06,0,0,1,.83.45,24.19,24.19,0,0,1,1.61,2.92,29.19,29.19,0,0,1,.46,3.26c0,.39-.13,1.66-.12,1.73s-.17,1.58-.13,1.83,0,2.39,0,2.39Z"/><path class="cls-20" d="M345.47,246.83l8.91-3.84a6.29,6.29,0,0,1,0,1.24s.38,4.46.57,5.09,1.25,8.39,1.25,8.39l-13,4.7a19.64,19.64,0,0,1-.14-2.58l.68-4s.69-5.1.72-6S345.31,247.71,345.47,246.83Z"/><path class="cls-21" d="M294.46,185.64S289,189,287,192.24a24.59,24.59,0,0,1-2.6,3.82,33.93,33.93,0,0,0-3.17,4.46c-.73,1.51-2.27,4.94-2.27,4.94s5,13.18,6,15.23,5.16,11.85,5.16,11.85l5.21,10.6.17-.56-7.37-18.84L285.94,217,284.48,213l-.41-2.73s-.74-3.92-.07-3.88a5.58,5.58,0,0,1,3.12,1.85c.74,1,5.27,6.47,5.27,6.47l4,6s.62.43.48.22-1.19-2.24-1.19-2.24-5.75-10.35-6-11.67-1.39-5.48-1.39-5.48a60.84,60.84,0,0,1-.63-6.23c.13-.8,1.3-4.12,1.3-4.12S292.32,187,294.46,185.64Z"/><path class="cls-22" d="M290.87,235.38s-1.89,22.19-3,24.47-4.5,12.46-6.58,14.65-9.11,21.15-9.54,22.05-3.83,12.52-3.83,12.52l-.25,1.36a9.93,9.93,0,0,0-.09,1.27c0,.12,0,.62.18.79s1-1.19,1-1.19.28-.24.27,0a6.43,6.43,0,0,1-.49,1.23l-.56,1.77-.7,2.1-.22,1.69-.54,3.13-.81,6.43-.26,5.06s-5.61-.22-6.27-1.72,2.21-25.08,2.21-25.08l2.53-19.18,2.53-13.18,2.78-16.86,1.09-11.26,1.47-8.42,1.91-9.59,1.52-5.4,1.36-6.92s1.79-8.56,2.41-9.24S290.87,235.38,290.87,235.38Z"/><path class="cls-23" d="M321,244.67s.17,11,.29,11.61,1.12,15.31,1.12,15.31l1.07,11.51,2,13.08,1.62,14.15L330.5,330a22.72,22.72,0,0,0,5.53-2.72c1.78-1.45,1.27-1.09,1.27-1.09l0-5.11L337,315l-.44-4.47-.74-3s-1-4.29-1-4.38a4,4,0,0,0,.25-2.22c-.29-1.37-1.48-4.62-2.27-5.46a1.74,1.74,0,0,1-.53-1.65v-2.51l0-3.7a46.92,46.92,0,0,1,.33-5.28l.39-1.59s3.16-7.18,3.58-8.15c2.1-4.84,1.88-5,1.88-5l1.75-5.87,2.16-5.75,1.34-3.6.84-2,0-.68.05-.25s.19-.61.29-.85l.42-1s.31-.73.25-.78a14.38,14.38,0,0,0-1.52.29l-6.53,1.82-6.69,2.51Z"/><path class="cls-23" d="M309.92,236l-8.27,5-2.7,2.41-1.58,2.73.1,1.25.71,1.06,1.22.47a7.34,7.34,0,0,0,4.09-1.24c1.7-1.29,3.07-2.2,3.92-3s3.24-2.92,3.42-3.08,2.24-2.17,2.7-2.52S309.92,236,309.92,236Z"/></g><g id="Laag_34" data-name="Laag 34"><path class="cls-24" d="M381.7,307.26l1,4a1,1,0,0,0,1,.78,43.27,43.27,0,0,0,4.46-.82l4.78-.81,7-1.11,2.19-.56-.26-1.07-1.48-1.49L397.73,304l-14,0a2.78,2.78,0,0,0-1.37.64A3.41,3.41,0,0,0,381.7,307.26Z"/><path class="cls-25" d="M422.9,287.91l-4.46-.1a36.7,36.7,0,0,0-5.91.84c-1.28.5-3,.83-3.54,1.14s-2.84,1.54-3.14,1.79a17,17,0,0,0-2.32,2.18c-.46.68,5.09-2.45,5.09-2.45l11.18-1.53,10.6,3.82,5.48,8.7,1,5.89,2.07-.06s.64-5.07.3-6.61a27.31,27.31,0,0,0-1.93-5.26,28.45,28.45,0,0,0-2.77-3.24c-.7-.48-3.71-3.05-6.09-3.75A47.85,47.85,0,0,0,422.9,287.91Z"/><path class="cls-26" d="M401.6,298.42l.05.22.52,1.35,1.14,2.87,2.58,3.33,1.94,2.06,1,.85-.47.57-4.11,0,1.26,4.59.34.82a12.28,12.28,0,0,0,1.69,1.82,27,27,0,0,0,4.32,2.43c.94.22,3.77.89,3.91.9s4.44.42,4.77.33,4.14-.34,4.48-.53,5.15-1.15,7.51-3,3.44-2.41,4.34-4.07a19.14,19.14,0,0,0,2-4.77,26.33,26.33,0,0,0-.4-6.21,30.69,30.69,0,0,0-1.76-4.57c-.61-1-3-4.16-4.18-4.87s-3.55-3.18-8.6-3.46-8.91-.55-12.75.64a24.33,24.33,0,0,0-5.42,2.21l-2.27,1.77-1.78,2.65Z"/><circle class="cls-27" cx="396.12" cy="140.11" r="5.32" transform="translate(228.91 525.57) rotate(-86.03)"/></g><g id="Laag_32" data-name="Laag 32"><path class="cls-1" d="M309.73,235.79s10.27,9.83,11,10.33,5.06,4,5.5,4.16a40.57,40.57,0,0,0,4.25,2.13,6.19,6.19,0,0,0,3.51-.21c1.29-.67,3.2-2.2,3.94-2.36s7.5-3,7.5-3l10.7-4.59L360,240l6.16-3.87s9.2-6.79,10.23-7.65,5.24-3.56,5.24-3.56l6.1-3.61s1.52-1.35,1.77-1.51,3.3-1.85,3.3-1.85a8,8,0,0,1,1.36-.89c.56-.25,4.17-2,4.91-2.57s8.09-6,8.09-6l1.89-2.1,2.54-2.48,3.89-4.72,3.47-4.67,4.15-6,2-3s.3-.81.08-1.1a1.24,1.24,0,0,0-1.46-.48,9.67,9.67,0,0,0-2.37,1.44,3.37,3.37,0,0,0-1.1-.08,1.94,1.94,0,0,0-.89.6,5.25,5.25,0,0,1-.59.78l-1.4,1.09-4.93,3-3.51,1.94-3.58,1.93-3,1.28-2.56.67-2.6-.18,3.32-2.71s1-1,1.16-1.2,1.31-1.71,1.34-1.83a4.93,4.93,0,0,0,.48-1,8.76,8.76,0,0,0,.08-1.33,3.6,3.6,0,0,0-.46-1.17c-.12-.19-.63-1.37-1.5-1.15a2.26,2.26,0,0,0-1.27.85L399,188.09s-4.31,3.11-4.5,4-5.23,3.09-6.49,5.55-3.38,2.11-4.35,8.67-41,20.34-41,20.34l-10.65,3-2.34-3-2.18-2.23-7.57,1.22Z"/><path class="cls-1" d="M332.93,280.52a10.65,10.65,0,0,0,2.62,2.22c.91.31,1.93.62,1.93.62l5.63,3.75,4.79,2.41,5.23,2,11.26,3.05L374,297s5.51,1.4,6.59,2.3,1.59,1.12,2,2.29a9.38,9.38,0,0,0,1.2,2.42l7.62.3,6.55.27,2.64,2.06,1.33,1.53.19.55-2.19.56L389.56,311a17.57,17.57,0,0,0,2.15,2.18,4.53,4.53,0,0,0,1.59.51,6.29,6.29,0,0,0,1.29-.34l1.51,1.14a2.36,2.36,0,0,0,.9.27,1.74,1.74,0,0,0,.92-.3,3.53,3.53,0,0,1,.49-.35s1.36.6,1.67.7a9.4,9.4,0,0,0,2,.54,8.27,8.27,0,0,0,1.39-.09c.13-.08.82-.36.93-.61a2.1,2.1,0,0,0,.05-.76l.94.15-.79-4,.72.17a8.1,8.1,0,0,0,1.14.29,3.93,3.93,0,0,0,1.48-.3l1-.71,0-.47-.84-.82-1.66-1.5-1.81-2.34-1.37-1.55-.84-2.07a22.29,22.29,0,0,1-.87-2.26c0-.21,0-1.19,0-1.19l-5.71-2.39-18-9.65a20,20,0,0,0-3.29-.85,6.28,6.28,0,0,1-2.34-1.08l-9-4.41-7.09-5.3-3.75-3.25-3.89-3.55-9.3.37-1,.44-.26.9-.08.27-.08.23-2,4.85-.28.63-.75,1.69-.21.52-.49,1.1-.23.52Z"/></g><g id="Laag_33" data-name="Laag 33"><path class="cls-14" d="M309.82,236s7.71,7.15,7.81,7.19,5.11,4.76,5.31,4.84,3,2.09,3.47,2.36a32.12,32.12,0,0,0,4.17,2c.52,0,2.55.3,3.35-.17s3.72-2.39,3.93-2.38,8.78-3.57,8.78-3.57,9.19-3.91,9.62-4.19,7.54-4.4,8-4.79c.17-.14,5.77-3.85,6.75-4.68.52-.44,5.52-4.42,6-4.75s7.81-5.07,8.09-5.12-2.35.46-2.94.7-6.69,2-7,2.29-5,2-5,2l-3.85,1.83s-14.27,7.88-14.72,8.34-7.49,4.61-7.49,4.61L338.86,246a23.43,23.43,0,0,1-3.86.81,14.16,14.16,0,0,1-4-.88,38.74,38.74,0,0,1-3.92-2c-.29-.33-4.73-3.56-5.73-4.67s-7-7.13-7-7.13Z"/><path class="cls-14" d="M330.14,233.34s14.3-5.7,15.59-6.28,12.87-5.36,13.63-5.78,5.57-3.26,5.57-3.26l-11.28,4.58-7.31,2.72-6.88,2.14s-7.27,2.17-7.51,2.16a.33.33,0,0,1-.3-.2s-3,1.35-3.55,1.78a25,25,0,0,0-3.27,2.48c-.27.48-.44.7.3.59S329.72,233.49,330.14,233.34Z"/><path class="cls-3" d="M407.33,200.22s10.71-7.54,11.24-8.68,0,1.25-.34,1.47-2,.9-2,1.14a10.28,10.28,0,0,1-.12,1.79c-.11,0-1.08.59-1.08.59l-.41-.1a4.17,4.17,0,0,0,.94-.53c0-.13.36-1.15.22-1.16a6.64,6.64,0,0,0-1.06.86s-1.39,1.12-1.95,1.6A39.29,39.29,0,0,1,407.33,200.22Z"/><path class="cls-3" d="M415.88,196.72s-2.58,2-2.67,2.15-1.68,1.75-1.91,2.08-1.31,2.33-1.31,2.33,0,.21.26,0,.34-.83.59-1.05.19-.9.63-1.18,1.35-1.54,1.71-1.73a6.77,6.77,0,0,0,1.26-.54c.36-.29,1.12-.75,1.2-1.14S415.88,196.72,415.88,196.72Z"/><path class="cls-3" d="M393.88,199.28l8.6-3.39a23.79,23.79,0,0,1-3.29.74c-.38-.08-2.15-.18-2.15-.18l2.66-2.12c.15-.11,1.55-1.38,1.55-1.38s1.21-1.49,1.31-1.65.71-1.33.71-1.33a3.63,3.63,0,0,0,.13-.49v-.12a5.28,5.28,0,0,0,0-1c-.06-.13-.31.74-.31.74a5.14,5.14,0,0,1-.54,1.06,16,16,0,0,0-.93,1.49s-.56.67-.74.81-2.05,2.14-2.14,2.19-1.69,1.15-1.9,1.24a6,6,0,0,1-1.56.72c-.57.08.71.13.71.13a.65.65,0,0,1,0,.39,2.8,2.8,0,0,0-.2.54l-1.38,1C394.25,198.8,393.78,199.32,393.88,199.28Z"/><path class="cls-3" d="M408.93,206.46a21,21,0,0,1-1.77,2l-3.8,2.88-3.67,2.8a37.07,37.07,0,0,1-4.05,2.24c-.85.25-12,2.95-12,2.95s7.69-3.36,8.85-3.52-1.06-.15-1.5-.08-1.48.31-1.48.31l.63-.53s3.13-1.71,3.36-1.92,2.59-2.08,2.91-2.55,1.25-1.52,1.25-1.52,1.18-3.58,1.92-4.08,1.75-1.59,2.89-1.54S405.38,203.2,408.93,206.46Z"/><path class="cls-28" d="M394.19,313.38a2.74,2.74,0,0,1-1.46.11,12.54,12.54,0,0,1-2.51-1.66,10.53,10.53,0,0,1-.61-1,8.05,8.05,0,0,1-.2-1.94c.16,0,.68-1.23,1.68-.3a4,4,0,0,1,1.2,1.75l.7,1.56Z"/><path class="cls-28" d="M396,314.38a18.52,18.52,0,0,1-1.61-1.46c-.24-.33-1.11-1.25-1.09-1.45s-.57-.84-.57-.84a11.27,11.27,0,0,1-1.05-2.83c0-.81-.17-2.4-.17-2.4s-.12-1.26.39-1.19a2.76,2.76,0,0,1,2.62,1.25c.69,1.32,1.48,3,1.48,3a2.66,2.66,0,0,1,.28,1.89,5.18,5.18,0,0,0,1.12,3l.81.71a1.05,1.05,0,0,1-1.05.55C396.45,314.47,396,314.38,396,314.38Z"/><path class="cls-28" d="M404.5,313.92a1.15,1.15,0,0,1-.86,1.16,8.76,8.76,0,0,1-2.94,0,18.33,18.33,0,0,1-2.18-1,17.37,17.37,0,0,1-1.74-3.1,6.08,6.08,0,0,1-.18-1.38l-.32-2.34a2.26,2.26,0,0,1,1.51-.24c.71.21,1.45.27,1.85,1.36a4.43,4.43,0,0,1,.36,1.57l.64,1,.9,1.81a9,9,0,0,0,1.33,1A11.11,11.11,0,0,0,404.5,313.92Z"/><path class="cls-28" d="M332.93,280.52a12.24,12.24,0,0,0,1.58,1.73,5.77,5.77,0,0,0,2.63,1c.66-.09-1.13-2.71-.83-5.45s.61-5.54,3.81-7.17,6.67-3.52,8.64-3.61-8.77-4.12-9.23-1.65-.85,1.58-.85,1.58l-.33.6-.23.89-.85,2.15-.65,1.57-.76,1.67-.65,1.51-.52,1.17-.68,1.54-.21.46-.33.74-.28.64Z"/><path class="cls-3" d="M349.38,267.35l11.51,9.79s-4.83-3.12-8.4-3-9-.08-7.07,5.67,22.89,15.52,22.89,15.52-14.15-3.22-19-5.12a31.28,31.28,0,0,1-7.18-3.67l-4.83-3.38s0,0,0-.14a2.15,2.15,0,0,0-.08-.45,20.67,20.67,0,0,1-.91-3.6,16.36,16.36,0,0,1,.27-3.18c.14-.3.29-2.41,1.42-3.49s.91-1.06,2.13-1.69l3.18-1.62,1.11-.54,1.27-.57.6-.26.75-.27.66-.19s.78-.17.86-.16a3.8,3.8,0,0,0,.39,0l0,0a.09.09,0,0,0,0-.07Z"/></g><g id="Laag_29" data-name="Laag 29"><path class="cls-29" d="M318.58,179.15s1.62,3.37,1.77,4,2.86,10.15,2.86,10.15,2.12,7.32,2.27,7.41,2.3,6.34,2.37,6.39.83,2.47,1,2.64l2.6,2.05.13.44s-1.92-1.35-3-1.93a27.26,27.26,0,0,0-4.91-1.68A18.78,18.78,0,0,1,320,208a5.74,5.74,0,0,1-2.15-2,10.52,10.52,0,0,1-.88-3.86,3,3,0,0,0-.1-1.24c-.16-.25-1.39-2.5-1.41-2.63s-1-4.66-1-4.83-1.18-4.89-1.18-4.89a41.69,41.69,0,0,0-1.51-4.78c-.36-.47-.46-2.06-1.19-2.61s2.3-.73,2.89-2.16.36-3,1.6-3.43,1.58,0,1.58,0A20.09,20.09,0,0,1,318.58,179.15Z"/><path class="cls-29" d="M344,216.24a1.7,1.7,0,0,0,1-2.19c-1.19-3.12-3.95-10.41-4.06-11.18-.14-1-.85-3.3-.85-3.65a23.46,23.46,0,0,0-.12-3.05c-.13-.39-.51-2.3-.56-2.36s-.25-.26-.31-.22a2.43,2.43,0,0,0-.42.3c-.12.13-.47.66-.47.66l-.18.24-.09.16,0,.08,0,.11-.06.14v.08l0,.11,0,0v0l0,.05,0,.06,0,.06-.05,0,0,.07-.05.08-1,2.2L336,199.2l-.15.44s.31.28.27.53-.33,3.3-.33,3.3.31.29.28.51-.35,4.51-.35,4.51a4.87,4.87,0,0,1-.26.93,11.1,11.1,0,0,1-1.06,2.34,10.16,10.16,0,0,0-1.24,2.38,3.94,3.94,0,0,1-.52.93,1.72,1.72,0,0,0-.21.4,6.73,6.73,0,0,1-.48,1.15,2.29,2.29,0,0,0-.33.5s.85.23.76.86-.43,1-.6,1-.62.14-.62.14l-.15.79-.19.15-.12.7s-.23.14-.2.19,0,.18.18.15a24.48,24.48,0,0,1,2.79-.14,14.66,14.66,0,0,0,3.56-1.17,23.59,23.59,0,0,1,2.58-2.16c.33-.12.15-1.15.95-1s.8.4,1.21.32C342,216.95,343,216.6,344,216.24Z"/><path class="cls-30" d="M297.58,247.6l-2-3.84s-1.44-.79,2.1-4.84,19.19-15.82,19.19-15.82l2.68-1.2,2.16-.61a21.71,21.71,0,0,1,2.41-.21,3.84,3.84,0,0,1,2.35,1.1c.64.74,3.05,4.44,3.05,4.44a4.5,4.5,0,0,0-2.73-1.06,10.12,10.12,0,0,0-3.39.39,27.9,27.9,0,0,0-3.49,1.28c-.47.35-3.46,2.84-3.46,2.84l-3.19,3-4,3.39L301.6,242s-2.65,1.76-2.77,2.18A7,7,0,0,0,297.58,247.6Z"/><path class="cls-30" d="M338.14,267.41l1.59-4.91h3.19c.12,0,13.33-4.79,13.33-4.79s1.12,4.58,1,4.87.36.61-.52,1-8.22,3.05-8.22,3.05-3.59,1.05-4.62,1.17a20.05,20.05,0,0,1-3.31.27C339.86,268,338.4,267.85,338.14,267.41Z"/><path class="cls-31" d="M287.12,225.5l2.75,7.22,1.21,3.16s5.46,11.26,5.84,11.67a15.39,15.39,0,0,0,1.3,1.25,9.21,9.21,0,0,0,1.52.38A11,11,0,0,0,301,249l2.69-1.07,3.93-2.92s2.14-2.14,2.33-2.3a23.07,23.07,0,0,1,3.21-2.52s-2.23,1.34-2.62,1.68l-2.24,1.92-1,.94-1.89,1.4-2,1.5-1.52.6a6.15,6.15,0,0,1-1.22.41c-.23,0-1.27.35-1.82,0s-.67-.21-1.28-1a39.6,39.6,0,0,1-2.24-4.63l-1.44-2.78-2.44-5-.62-1.21S288.18,228.21,287.12,225.5Z"/></g></svg>