<svg xmlns="http://www.w3.org/2000/svg" viewBox="0 0 272.13 246.61"><defs><style>.cls-1{fill:#ca8161;}.cls-2{fill:#4e2d24;}.cls-3{fill:#32341e;}.cls-4{fill:#202521;}.cls-5{fill:#fff;}.cls-6{fill:#777;opacity:0.36;}.cls-7{fill:#695e5a;}.cls-8{fill:#494240;}.cls-9{fill:#cca69a;}.cls-10{fill:#9bcbe0;}.cls-11{fill:#008a9e;}.cls-12{fill:#dbb675;}.cls-13{fill:#ddd;}.cls-14{fill:#6bdb71;}.cls-15{fill:#e2de49;}.cls-16{fill:#9b9b9b;}.cls-17{fill:#111;}.cls-18{fill:#e5e5e5;}.cls-19{fill:#212121;}.cls-20{fill:#bcbbbb;opacity:0.47;}.cls-21{fill:#97a0a0;}.cls-22{fill:#becaca;}.cls-23{fill:#cc9211;}.cls-24{fill:#f6b304;}.cls-25{fill:#d69f11;}.cls-26{fill:#232323;}.cls-27{fill:#aaa;}.cls-28{fill:#434949;}.cls-29{fill:#506578;}.cls-30{fill:#c2c4c6;}.cls-31{fill:#851f10;}.cls-32{fill:#b7b6b6;}.cls-33{fill:#8e6830;}.cls-34{fill:#2f5220;}.cls-35{fill:#006c78;}.cls-36{fill:#004649;}.cls-37{fill:#feffff;}</style></defs><title>zaal korfbal basketbal volleybal deur-01</title><g id="Laag_2" data-name="Laag 2"><polygon class="cls-1" points="0 146 162 138 272 144 272 247 0 247 0 146"/></g><g id="Laag_3" data-name="Laag 3"><polygon class="cls-2" points="137 139 272 148 272 144 162 138 137 139"/></g><g id="Laag_4" data-name="Laag 4"><polygon class="cls-3" points="0 110 0 146 162 138 272 143 272 94 161 108 0 110"/></g><g id="Laag_5" data-name="Laag 5"><polygon class="cls-4" points="161 108 139 139 162 138 272 144 272 94 161 108"/></g><g id="Laag_10" data-name="Laag 10"><polyline class="cls-5" points="130 208 18 148 19 148 134 208 130 208"/><polygon class="cls-5" points="199.23 199.42 40 147 38 147 196 200 199.23 199.42"/><polygon class="cls-5" points="272.13 191.46 131.75 208 130 207 272.13 190.1 272.13 191.46"/><polygon class="cls-5" points="113 171 215 162 272 157 272 158 217 163 113 172 113 171"/><polygon class="cls-5" points="272 153 145 142 147 142 272 152 272 153"/><polygon class="cls-5" points="214.49 162.04 115 148 116 147 116 147 116.7 147.71 218.13 161.72 214.49 162.04"/><polygon class="cls-5" points="52.5 151.12 115 148 169.21 144.1 169 144 116 147 50.68 150.52 52.5 151.12"/><polygon class="cls-5" points="19 148 145 142 19.53 148.28 19 148"/><polygon class="cls-5" points="272 149 178 142 272 150 272 149"/></g><g id="Laag_9" data-name="Laag 9"><polygon class="cls-6" points="22.52 139 22.6 141 23 141 23.2 144.85 23.87 158.47 46.31 157.74 74 157 97.87 155.43 118 154 126.35 153.35 131 153 134.5 152.67 137.61 152.33 139.92 152.04 141.49 151.81 143.22 151.5 144.11 151.3 145 151 145.75 150.64 146.94 150.15 148.75 149.53 148.97 149.51 148.21 136.11 148 136 22.52 139"/><polygon class="cls-6" points="246 129 247 144 206 148 184 150 166 150 155 150 150 150 149.51 135.96 246 129"/></g><g id="Laag_6" data-name="Laag 6"><polygon class="cls-7" points="24 160 23 141 20 141 20 160 24 160"/><path class="cls-5" d="M21,137v2l76-1s48-2,51-2,98-7,98-7v-2l-98,7-51,2Z"/><polygon class="cls-7" points="20.53 141 20.53 136.99 22.41 136.99 22.63 141 20.53 141"/><polyline class="cls-7" points="246 129 247 145 250 145 248 127 246 127"/><polygon class="cls-5" points="148.21 136 149.54 135.92 150 151 149 150 148.21 136"/></g><g id="Laag_7" data-name="Laag 7"><polyline class="cls-8" points="246 129 247 129 248 145 247 145 246 129"/><polygon class="cls-8" points="21 144 22 160 20 160 20 144 21 144"/></g><g id="Laag_8" data-name="Laag 8"><path class="cls-9" d="M23.92,158.47C30.35,158.26,68.42,157,73,157c5,0,58-4,58-4s12-1,14-2a23.3,23.3,0,0,1,3.84-1.5l6.16.5h27c3,0,65-6,65-6v.62L182,151s-30,1-32,0-5,2-6,2-12,1-12,1l-18,1-18,2-23,1H48l-24.05,1S23.32,158.49,23.92,158.47Z"/></g><g id="Laag_11" data-name="Laag 11"><polygon class="cls-10" points="0 0 0 110 161 108 272 94 272 0 0 0"/><polygon class="cls-11" points="-96 180.42 -4.01 167.23 262.96 164.66 343.38 174.63 343.38 247 -96 247 -96 180.42"/><polygon class="cls-12" points="30.73 208.72 85.73 174.31 7.57 174.63 -96 196.82 -96 207.44 30.73 208.72"/><polygon class="cls-12" points="183.52 169.48 268.92 239.12 343.49 238.64 343.49 181.62 273.26 169.48 183.52 169.48"/><polyline class="cls-13" points="39.42 202.29 41.35 202.29 31.38 208.72 -96 208.08 -96 207.12 29.45 208.08 38.45 202.93"/><polyline class="cls-13" points="-96 196.5 7.57 174.31 7.89 174.63 -96 197.47"/><polyline class="cls-13" points="86.7 173.99 41.35 202.29 39.42 202.29 82.84 175.91 82.84 175.91 85.41 174.31 85.41 174.31 85.41 174.31 7.89 174.63 7.57 174.31"/><polyline class="cls-13" points="-55.15 191.35 48.42 191.35 48.1 191.68 46.81 191.68 -56.76 191.68 -55.15 191.35"/><polyline class="cls-13" points="73.82 181.38 -22.98 181.38 -21.65 181.12 74.25 181.14 75.44 180.42"/><polygon class="cls-13" points="48.42 191.35 57.97 191.35 57.44 191.68 47.84 191.68 48.42 191.35"/><polyline class="cls-13" points="-26.34 184.92 68.36 184.92 68.07 185.24 66.89 185.24 -27.81 185.24 -26.34 184.92"/><polygon class="cls-14" points="47.14 228.67 110.18 171.47 173.22 170.45 227.58 228.67 47.14 228.67"/><polygon class="cls-5" points="44.24 229.63 109.86 171.09 173.54 170.13 229.83 229.63 227.91 229.63 172.9 170.77 110.18 171.73 47.14 229.63 44.24 229.63"/><polygon class="cls-5" points="46.17 229.63 47.52 228.02 227.48 228.02 229.19 229.63 46.17 229.63"/><polygon class="cls-5" points="88.31 190.71 192.2 190.39 191.56 189.42 89.59 189.75 88.31 190.71"/><path class="cls-15" d="M157.46,217.41c-.32,1-.28,2.45-3.22,3.54s-8.35,1.61-12.54,1.61c-5.49,0-10.08-.44-12.87-1.93-1.58-.85-2.76-2.64-2.76-3.38s-1.12-2.2.5-3.06c2.8-1.48,9.67-2.25,15.12-2.25,3.95,0,11.09,0,13.83,1C158.76,214,157.81,216.36,157.46,217.41Z"/><ellipse class="cls-5" cx="141.86" cy="214.03" rx="16.24" ry="4.02"/><ellipse class="cls-15" cx="141.85" cy="214.03" rx="15.59" ry="3.7"/><path class="cls-5" d="M125.51,216.06c.43,2,1.07,4.57,3.64,5.21,5.48,1.37,5.07.72,12.32,1.58a.2.2,0,0,0,.22-.2v-.2a.25.25,0,0,0-.22-.24,93.78,93.78,0,0,1-11-1.27,5.62,5.62,0,0,1-3.22-1.93,6.85,6.85,0,0,1-.64-1c-1.29-2.25-.32-3.54-.32-3.54l-.63-.65S125.47,215.85,125.51,216.06Z"/><path class="cls-5" d="M158.1,216.06c-.43,2-1,4.57-3.53,5.21-5.47,1.37-5.39.72-12.62,1.58a.22.22,0,0,1-.25-.22v-.17a.25.25,0,0,1,.23-.25,100.18,100.18,0,0,0,11.67-1.27,4.62,4.62,0,0,0,2.78-1.93,6.85,6.85,0,0,0,.64-1c1.29-2.25.32-3.54.32-3.54l.76-.64S158.14,215.85,158.1,216.06Z"/><polygon class="cls-5" points="142 222.21 141.94 222.85 141.49 222.85 141.41 222.21 142 222.21"/><path class="cls-15" d="M133.86,174c.16-.34.13-.86,1.55-1.24a29,29,0,0,1,6.05-.56,19.35,19.35,0,0,1,6.21.68c.76.3,1.33.92,1.33,1.18s.54.77-.24,1.07a27.2,27.2,0,0,1-7.3.79,41.36,41.36,0,0,1-6.67-.34C133.24,175.15,133.7,174.33,133.86,174Z"/><ellipse class="cls-5" cx="141.39" cy="175.15" rx="7.84" ry="1.41"/><ellipse class="cls-15" cx="141.4" cy="175.15" rx="7.52" ry="1.3"/><path class="cls-5" d="M149.28,174.88c-.21-.83-.52-1.9-1.76-2.16-2.64-.57-2.45-.3-5.95-.66a.09.09,0,0,0-.11.08v.08a.11.11,0,0,0,.11.1,52.32,52.32,0,0,1,5.33.53,2.82,2.82,0,0,1,1.55.8,2.86,2.86,0,0,1,.31.4c.35.52.31.84.21,1a.73.73,0,0,0-.08.32l.1.1a.3.3,0,0,0,.19-.2A1.71,1.71,0,0,0,149.28,174.88Z"/><path class="cls-5" d="M133.56,174.44a2.11,2.11,0,0,1,1.7-1.83,48.56,48.56,0,0,1,6.09-.55c.06,0,.12,0,.12.08v.06s0,.08-.11.09c-.61,0-3.69.14-5.63.44a2.36,2.36,0,0,0-1.34.68,2.52,2.52,0,0,0-.31.34c-.62.79-.16,1.24-.16,1.24l-.37.23S133.54,174.51,133.56,174.44Z"/><polygon class="cls-5" points="141.33 172.32 141.35 172.06 141.57 172.06 141.61 172.32 141.33 172.32"/><polygon class="cls-16" points="-96 180.42 -4.01 167.23 262.96 164.66 343.38 174.63 343.38 85.85 265.22 113.19 -8.51 116.73 -96 89.39 -96 180.42"/><polygon class="cls-17" points="63.22 150.83 64.18 166.59 74.15 166.59 73.19 150.5 63.22 150.83"/><polygon class="cls-18" points="63.22 150.5 63.22 149.54 73.19 149.22 73.19 150.5 63.22 150.83 63.22 150.5"/><polyline class="cls-17" points="191.9 165.34 192.84 149.22 202.82 149.54 201.85 165.25"/><polygon class="cls-18" points="202.82 149.22 202.82 148.25 192.84 147.93 192.84 149.22 202.82 149.54 202.82 149.22"/><polygon class="cls-19" points="67.43 185.24 68.69 185.24 68.51 162.08 67.4 162.08 67.43 185.24"/><polyline class="cls-5" points="-38.42 161.12 67.4 162.08 67.4 163.4 -38.42 162.26 -38.42 161.12"/><polygon class="cls-20" points="-38.42 162.24 -38.42 171.01 67.4 172.38 67.4 163.37 -38.42 162.24"/><ellipse class="cls-21" cx="141.34" cy="174.46" rx="2.54" ry="0.17"/><rect class="cls-22" x="141.02" y="151.26" width="0.65" height="23.13"/><polygon class="cls-23" points="140.63 150.11 140.63 150.62 141.02 151.5 141.67 151.5 142.06 150.62 142.06 150.11 140.63 150.11"/><path class="cls-24" d="M138.94,147.59v2.32s.33-.31,1.82-.31h1.49s1.16,0,1.49.31.17-2.32.17-2.32,0-.46-2.16-.46C138.94,147.12,138.94,147.59,138.94,147.59Z"/><path class="cls-25" d="M139,149.8a.1.1,0,0,0,0,.16,5.92,5.92,0,0,0,1.93.27h1.35a6.67,6.67,0,0,0,1.5-.3c.17-.15-.22-.27-.22-.27a2.22,2.22,0,0,0-.43-.1,12.25,12.25,0,0,0-1.38-.07H140.4a3.58,3.58,0,0,0-1.31.21Z"/><path class="cls-24" d="M139.22,149.85s0,.09,0,.1a7.6,7.6,0,0,0,1.75.17h1.22a8.5,8.5,0,0,0,1.35-.18c.15-.09-.2-.17-.2-.17a2.76,2.76,0,0,0-.39-.07c-.32,0-1.25,0-1.25,0h-1.23a4.6,4.6,0,0,0-1.19.13Z"/><ellipse class="cls-21" cx="142.02" cy="215.86" rx="3.86" ry="0.26"/><rect class="cls-22" x="141.52" y="180.6" width="0.99" height="35.17"/><polygon class="cls-24" points="140.93 178.85 140.93 179.62 141.52 180.96 142.51 180.96 143.11 179.62 143.11 178.85 140.93 178.85"/><path class="cls-24" d="M146,178.32v-3.53s-.5.47-2.77.47h-2.27s-1.76,0-2.27-.47-.25,3.53-.25,3.53,0,.71,3.28.71C146,179,146,178.32,146,178.32Z"/><path class="cls-25" d="M145.95,175a.15.15,0,0,0-.07-.25,9,9,0,0,0-2.93-.4h-2a10.14,10.14,0,0,0-2.28.45c-.25.22.34.41.34.41a3.37,3.37,0,0,0,.65.16,18.62,18.62,0,0,0,2.1.1h2.06a5.44,5.44,0,0,0,2-.32A.89.89,0,0,0,145.95,175Z"/><path class="cls-24" d="M145.55,174.89c.07-.05,0-.13-.07-.16a11.55,11.55,0,0,0-2.65-.25H141a12.92,12.92,0,0,0-2.06.28c-.23.14.31.26.31.26a4.19,4.19,0,0,0,.59.1c.48.06,1.9.06,1.9.06h1.86a7,7,0,0,0,1.8-.2Z"/><ellipse class="cls-5" cx="243.99" cy="174.39" rx="2.01" ry="11.41" transform="translate(55.03 407.28) rotate(-86.5)"/><ellipse class="cls-12" cx="243.99" cy="174.39" rx="1.88" ry="11.11" transform="translate(55.03 407.28) rotate(-86.5)"/><ellipse class="cls-5" cx="283.87" cy="190.39" rx="4.82" ry="24.45" transform="translate(76.5 462.1) rotate(-86.5)"/><ellipse class="cls-12" cx="283.87" cy="190.39" rx="4.51" ry="23.8" transform="translate(76.5 462.1) rotate(-86.5)"/><polygon class="cls-5" points="267.79 240.25 182.87 169.16 273.26 169.16 343.38 181.06 343.38 182.03 273.26 169.48 183.84 169.48 272.29 240.25 267.79 240.25"/><rect class="cls-26" x="236.03" y="142.09" width="1.82" height="27.97"/><polygon class="cls-26" points="238.6 170.13 235.22 170.13 235.22 169.5 236.03 168.12 237.85 168.12 238.6 169.5 238.6 170.13"/><rect class="cls-26" x="235.72" y="146.29" width="2.45" height="2.88"/><circle class="cls-27" cx="235.88" cy="146.58" r="0.09"/><circle class="cls-27" cx="235.88" cy="148.83" r="0.09"/><circle class="cls-27" cx="235.88" cy="147.77" r="0.09"/><circle class="cls-27" cx="238.01" cy="146.58" r="0.09"/><circle class="cls-27" cx="238.01" cy="148.83" r="0.09"/><circle class="cls-27" cx="238.01" cy="147.77" r="0.09"/><rect class="cls-28" x="226.94" y="130.74" width="19.94" height="11.73"/><rect class="cls-5" x="227.82" y="131.68" width="18.06" height="9.59"/><rect class="cls-29" x="235.97" y="131.68" width="1.88" height="9.59"/><rect class="cls-30" x="233.65" y="135.57" width="6.52" height="0.5"/><rect class="cls-30" x="233.65" y="139.96" width="6.52" height="0.5"/><rect class="cls-30" x="231.45" y="137.77" width="4.89" height="0.5" transform="translate(371.92 -95.88) rotate(90)"/><rect class="cls-30" x="237.48" y="137.77" width="4.89" height="0.5" transform="translate(377.94 -101.9) rotate(90)"/><rect class="cls-31" x="237" y="139.71" width="1.88" height="2.26"/><path class="cls-31" d="M236,140.57a3.75,3.75,0,0,1,2.16-.33,3.1,3.1,0,0,1,1.79.3c1.61,1.08,3.11-1.52,1.51-2.59a5.83,5.83,0,0,0-3.3-.71,6.38,6.38,0,0,0-3.67.74c-1.62,1-.11,3.64,1.51,2.59Z"/><path class="cls-31" d="M234.19,140.35c1,1,2.38,1,3.72,1s3,.11,3.95-.94c1.3-1.43-.82-3.55-2.12-2.12q.51-.17-.15,0a4.75,4.75,0,0,1-.68.05c-.3,0-.6,0-.91,0s-1.41.18-1.69-.08c-1.42-1.31-3.55.81-2.12,2.12Z"/><path class="cls-31" d="M235.42,139.88l0,.3h3v0l-.2.76,0,0h-2.59l-.11-.25,1.45-1.9c.78.1-.58-.13-.58-.14l.24.14q-.23-.24,0,0c.25.37,0,0-.1-.26a1.51,1.51,0,0,0-2.05-.54,1.53,1.53,0,0,0-.54,2.05c-.21-.44.06.17.09.23a2,2,0,0,0,.29.42,2.81,2.81,0,0,0,.72.59,5.27,5.27,0,0,0,1.9.46c1,.13,1.64-1.06,1.45-1.9a1.84,1.84,0,0,0-.2-.47,1.52,1.52,0,0,0-2.59,0,1.44,1.44,0,0,0-.23.8,1.51,1.51,0,0,0,1.5,1.5,1.54,1.54,0,0,0,1.5-1.5l0-.3a1.51,1.51,0,0,0-1.5-1.5,1.54,1.54,0,0,0-1.5,1.5Z"/><path class="cls-31" d="M237.45,139.88l0,.3a1.5,1.5,0,0,0,3,0,1.44,1.44,0,0,0-.23-.8,1.52,1.52,0,0,0-2.59,0,1.84,1.84,0,0,0-.2.47c-.19.84.42,2,1.45,1.9.37,0,.75-.1,1.12-.18s.75-.32,1.12-.4c-.47.09.1-.06.22-.13a1.65,1.65,0,0,0,.57-.59,2.57,2.57,0,0,0,.36-1.14,1.5,1.5,0,0,0-1.5-1.5,1.55,1.55,0,0,0-1.5,1.5c0-.13.22-.64,0-.32l.54-.54q.44-.17.05,0t0,0l-.4.14a3.94,3.94,0,0,1-.51.11c-.14,0-.67.1-.07,0l1.45,1.9-.11.25h-2.59l0,0-.2-.76v0h3l0-.3a1.5,1.5,0,1,0-3,0Z"/><path class="cls-31" d="M238.2,139.71a1.89,1.89,0,0,0-.19-.5v1.51l0,0-.9.69,0,0-1.69-2.2-.06.1.54-.54.21-.08,1.16.15a2.64,2.64,0,0,0-1.23-.29l.76.2c-.19-.09-.37-.2-.55-.3l-1.16,2.74a5.76,5.76,0,0,1,.85.26,1.86,1.86,0,0,0,1.4-.16,1.49,1.49,0,0,0,.72-1.49,1.55,1.55,0,0,0-1.07-1.25,2.91,2.91,0,0,0-.8-.15,1.5,1.5,0,0,0-1.5,1.5,1.54,1.54,0,0,0,1.5,1.5q-.26,0,0,0l-.36-2.74-.08,0,.76-.2q.63.18.18,0l-.33-.13a3.14,3.14,0,0,0-.47-.11,1.52,1.52,0,0,0-1.77.87,1.5,1.5,0,0,0,.61,1.87c.18.1.36.21.55.3a2.61,2.61,0,0,0,1,.21l-.76-.2a1.86,1.86,0,0,0,1.36.23,1.93,1.93,0,0,0,1.09-.85,1.51,1.51,0,0,0-1.69-2.2,1.67,1.67,0,0,0-1,.74,1.65,1.65,0,0,0-.2.76,1.13,1.13,0,0,0,.13.58q.17.38,0,0a1.51,1.51,0,0,0,1.85,1,1.53,1.53,0,0,0,1-1.85Z"/><path class="cls-31" d="M239,141.42a3.44,3.44,0,0,0,.67-.09c-.55.1.85-.09.15-.08q-.51,0,.19.06l.45-.06a.35.35,0,0,0,.16-.05q.76-.29-.08,0l-.76-2.8c.15-.07,0,0,0,0l-.14,0q.25,0-.1,0a5.83,5.83,0,0,0-.84.25l.8,2.89a3.38,3.38,0,0,1,.72-.19,1.51,1.51,0,0,0,1-1.85,1.54,1.54,0,0,0-1.85-1,3.38,3.38,0,0,0-.72.19,1.54,1.54,0,0,0-1,1.85,1.52,1.52,0,0,0,1.85,1l.49-.17h-.11a2.36,2.36,0,0,0,.48-.07,5.21,5.21,0,0,0,1-.37c1.36-.65.67-2.83-.76-2.8a2.34,2.34,0,0,0-.61.09l-.36.15q.28-.09,0,0h.8a2.64,2.64,0,0,0-1.13,0c-.2,0,.52,0-.1,0,0,0-.5,0-.17,0a1.5,1.5,0,0,0,0,3Z"/><path class="cls-32" d="M237.86,138.57a1.74,1.74,0,0,0-.44,1.76c.06.4.38,1.41.94,1.35a.4.4,0,0,0,.36-.28,9.25,9.25,0,0,0,.08-1.16,2.65,2.65,0,0,0-.12-1.15c-.07-.3-.21-.58-.55-.63a.52.52,0,0,0-.58.43c-.09.47.63.67.72.2l-.1.11-.29,0c.21.1.17.85.15,1a3,3,0,0,0-.06.4,2.4,2.4,0,0,1,0,.63l.36-.28h-.06l.27.11a1.41,1.41,0,0,1-.42-.94c0-.19-.09-.76.09-.89.38-.28,0-.94-.38-.65Z"/><path class="cls-32" d="M238.84,139.12a.69.69,0,0,0,1,.11c.33-.35-.2-.88-.53-.53l0-.11c-.3-.38-.83.16-.53.53Z"/><path class="cls-32" d="M239.19,138.63a2.08,2.08,0,0,0-1,1.61c-.09.57-.19,1.23.55,1.41.59.14.8-.65.92-1.08.2-.72.44-1.26-.08-1.9-.31-.37-.83.16-.53.53s0,.75-.09,1.1a3.17,3.17,0,0,1-.13.43c0,.06-.2.29-.12.25l.29,0c-.25-.07,0-.75,0-.91a1.19,1.19,0,0,1,.55-.75.38.38,0,0,0-.38-.65Z"/><path class="cls-32" d="M239.85,139.29a.64.64,0,0,0,.52.21c.48,0,.48-.77,0-.75h0c-.34-.35-.87.18-.53.53Z"/><path class="cls-32" d="M239.9,138.87a3.91,3.91,0,0,0-.61,1c-.09.24-.17.94-.41,1.07l.55.22h0l-.26.46h0c.47-.08.27-.81-.2-.72h0a.38.38,0,0,0-.26.46h0a.38.38,0,0,0,.55.22,1.59,1.59,0,0,0,.57-.89,3.66,3.66,0,0,1,.61-1.32c.3-.37-.23-.91-.53-.53Z"/><path class="cls-32" d="M240,139.13c0,.55-.44,1-.68,1.43,0,.07-.05.14-.09.2a.54.54,0,0,0,0,.15l0,0a1.47,1.47,0,0,0-.36.38c-.22.43.43.81.65.38.09-.18.31-.21.41-.4a6,6,0,0,1,.27-.56,2.79,2.79,0,0,0,.61-1.54.38.38,0,0,0-.75,0Z"/><path class="cls-32" d="M240.35,139.24a5.89,5.89,0,0,0-.57,1,2.13,2.13,0,0,1-.2.64,3.62,3.62,0,0,1-.45.45.38.38,0,0,0,.53.53,2.41,2.41,0,0,0,.72-.91,3,3,0,0,1,.2-.66c.13-.22.29-.4.41-.62.22-.43-.43-.81-.65-.38Z"/><path class="cls-32" d="M239.68,141.86c.46-.24.6-.66.89-1.06.15-.21.15-.47.29-.68s.3-.34.29-.66a.38.38,0,0,0-.75,0c0,.12-.23.33-.29.46a3.93,3.93,0,0,1-.16.44c-.17.29-.35.7-.65.85s-.05.87.38.65Z"/><path class="cls-32" d="M239.64,140.13a2.32,2.32,0,0,1-.57,1.14c-.29.38.36.76.65.38a2.73,2.73,0,0,0,.65-1.32c.08-.47-.65-.68-.72-.2Z"/><path class="cls-32" d="M236.53,139.15c.11.1.26.16.36.26a2.19,2.19,0,0,1,.26.52c.13.26.41.88.28,1.18L238,141l0,0c-.33-.36-.86.18-.53.53l0,0a.38.38,0,0,0,.59-.08,2.15,2.15,0,0,0-.1-1.56,5,5,0,0,0-.44-.89c-.13-.19-.31-.26-.48-.41-.35-.33-.88.2-.53.53Z"/><path class="cls-32" d="M236.38,138.81a1.13,1.13,0,0,0-.15.51,1.86,1.86,0,0,0,.22.53c.14.36.16.75.28,1.11.18.55.68,1,1.22.54.37-.32-.17-.85-.53-.53q.22,0,0-.21t-.09-.32c0-.19-.08-.38-.13-.56s-.12-.31-.17-.47-.07-.16,0-.4c.18-.45-.55-.64-.72-.2Z"/><path class="cls-32" d="M238,141c-.24-.43-1.23-2.27-1.81-1.26a.38.38,0,0,0,0,.38c.25.43.52.86.78,1.3a.38.38,0,0,0,.65-.38c-.25-.44-.52-.86-.78-1.3v.38l0-.09-.22.17.11,0-.29,0c.38.21.67.86.88,1.23s.88,0,.65-.38Z"/><path class="cls-32" d="M237.38,141.12c-.28-.35-.54-.71-.8-1.07s-.54-.5-.3-.86l-.59.08c.13.13.19.44.28.61a2.8,2.8,0,0,0,.44.55c.34.34.87-.19.53-.53a2,2,0,0,1-.48-.73,1.14,1.14,0,0,0-.25-.43.38.38,0,0,0-.59.08,1,1,0,0,0,0,1.31c.42.49.78,1,1.18,1.53s.83-.16.53-.53Z"/><path class="cls-32" d="M235.05,139.7a7.36,7.36,0,0,1,1,1,2.37,2.37,0,0,0,.79.7c.41.25.79-.4.38-.65a3.15,3.15,0,0,1-.75-.73,11,11,0,0,0-.89-.87c-.36-.32-.89.2-.53.53Z"/><path class="cls-32" d="M235.26,139.77c.47.11.42.59.64.94a1.41,1.41,0,0,0,.81.55c.46.16.65-.57.2-.72s-.43-.57-.67-1a1.2,1.2,0,0,0-.78-.52c-.47-.11-.67.62-.2.72Z"/><path class="cls-32" d="M237.78,140.29l.16,0q0-.17,0,0a.91.91,0,0,1,0,.23.38.38,0,0,0,.75,0,.89.89,0,0,0-.93-1,.38.38,0,0,0,0,.75Z"/><path class="cls-32" d="M239,140.85a1.66,1.66,0,0,1,.58-.77l-.27.11h.14l-.27-.11h0c.17.44.9.25.72-.2s-.45-.58-.84-.36a2.06,2.06,0,0,0-.82,1.13c-.18.45.55.64.72.2Z"/><path class="cls-32" d="M238.26,140.76a1.33,1.33,0,0,0,.05.52.38.38,0,0,0,.72-.2.52.52,0,0,1,0-.32c0-.48-.71-.48-.75,0Z"/><path class="cls-32" d="M236.88,141.7c.47.29.75-.07,1.23-.08.24,0,.48,0,.72,0-.16,0,0,0,.13.09a1.72,1.72,0,0,0,.39.09c.47.08.68-.64.2-.72-.23,0-.41-.18-.63-.22s-.32,0-.5,0a2.18,2.18,0,0,0-.65,0,2.67,2.67,0,0,0-.52.16c-.41-.25-.79.39-.38.65Z"/><path class="cls-32" d="M236.66,141.48c.08.3,0,.61.09.91a1.87,1.87,0,0,1,.14.43c0,.14,0,.28,0,.43a1.08,1.08,0,0,0,.9.92.38.38,0,0,0,.46-.26l.07-.13-.29,0,.11,0-.26-.26c0,.08.06.17.1.25a.37.37,0,0,0,.32.19c.38,0,.55-.28.64-.61l-.63.17c.29.22.22.73.73.59s.31-.48.34-.8l-.11.27.07-.07-.27.11c.64,0,.6-.54.54-1.06,0-.32.17-.46.21-.76a.84.84,0,0,0-.26-.71c-.33-.36-.86.18-.53.53.09.1-.21.52-.22.66s.17.55.07.84l.26-.26c-.18,0-.32.06-.44.23a.48.48,0,0,0-.08.23,1.38,1.38,0,0,0,0,.24l.22-.17-.1,0,.29,0a1.46,1.46,0,0,0-.05-.23.55.55,0,0,0-.19-.22.38.38,0,0,0-.63.17l-.08.17.27-.11h-.1l.32.19c-.29-.62-1-.34-1.1.26l.46-.26c-.54-.16-.27-.59-.41-1s-.1-.76-.2-1.16a.38.38,0,0,0-.72.2Z"/><path class="cls-32" d="M236.75,141.68a2.13,2.13,0,0,0,.82,1.11c.45.3.83.66,1.29.94s.79-.39.38-.65a8.06,8.06,0,0,1-1-.72c-.15-.13-.35-.21-.49-.34a1.43,1.43,0,0,1-.31-.55c-.17-.45-.9-.25-.72.2Z"/><path class="cls-32" d="M236.93,141.71a3,3,0,0,0,.42.48,7.12,7.12,0,0,1,.6.4,8.3,8.3,0,0,0,.93,1c.38.29.91-.23.53-.53a5.82,5.82,0,0,1-.89-.92c-.27-.33-.68-.43-.95-.78s-.94,0-.65.38Z"/><path class="cls-32" d="M237.16,141.55a3.07,3.07,0,0,0,.92.88,9.16,9.16,0,0,0,1,.91.38.38,0,0,0,.38-.65,6.14,6.14,0,0,1-.82-.78c-.29-.25-.63-.39-.82-.74a.38.38,0,0,0-.65.38Z"/><path class="cls-32" d="M237.54,141.62a16.6,16.6,0,0,0,1.56,1.31c.43.22.81-.42.38-.65a3.65,3.65,0,0,1-.77-.68,6.71,6.71,0,0,0-.79-.63c-.4-.28-.77.37-.38.65Z"/><path class="cls-32" d="M237.88,141.61c.42.29.69.73,1.1,1s.76-.36.38-.65-.67-.74-1.1-1-.78.38-.38.65Z"/><path class="cls-32" d="M238.3,141.63c.36.12.59.47.85.73l.45-.59,0,0c-.39-.28-.77.37-.38.65l0,0c.35.25.76-.3.45-.59a3.25,3.25,0,0,0-1.18-.92c-.46-.16-.65.57-.2.72Z"/><path class="cls-32" d="M238.71,141.75c.2.15.36.35.57.51.39.29.76-.36.38-.65-.2-.15-.36-.35-.57-.51-.39-.29-.76.36-.38.65Z"/><path class="cls-32" d="M236.8,142.3a2.17,2.17,0,0,0,.65.8c.29.21.61.27.86.56s.84-.16.53-.53a1.59,1.59,0,0,0-.58-.48,1.39,1.39,0,0,1-.81-.72c-.22-.43-.87-.05-.65.38Z"/><path class="cls-32" d="M237,143a2.59,2.59,0,0,0,1.1.62l-.22-.17a.93.93,0,0,0,.22.3c.35.34.88-.19.53-.53-.17-.16-.2-.28-.43-.36a1.5,1.5,0,0,1-.67-.39c-.33-.35-.86.18-.53.53Z"/><path class="cls-32" d="M237,143.28a2.56,2.56,0,0,0,.4.2c.11,0,.34.05.41.14l-.11-.27v.09a.38.38,0,0,0,.75,0c0-.6-.67-.58-1.07-.82a.38.38,0,0,0-.38.65Z"/><path class="cls-32" d="M237.11,143.53a7.16,7.16,0,0,1,.65.37c.41.26.79-.39.38-.65a7.16,7.16,0,0,0-.65-.37c-.43-.21-.81.43-.38.65Z"/><path class="cls-32" d="M237.48,142.08c.09-.24.25-.3.44-.43.41-.26,0-.91-.38-.65a1.64,1.64,0,0,0-.79.88c-.17.45.55.65.72.2Z"/><path class="cls-32" d="M237.54,142.43c0-.1,0-.19.09-.23s.2-.06.25-.09c.22-.13.37-.36.57-.51.39-.28,0-.93-.38-.65-.16.12-.3.27-.46.39a1.75,1.75,0,0,1-.31.18c-.3.16-.36.42-.48.71-.18.45.54.64.72.2Z"/><path class="cls-32" d="M237.56,142.7c.11-.34.42-.38.67-.57s.4-.39.63-.56c.38-.28,0-.94-.38-.65a7.35,7.35,0,0,1-1,.75,1.33,1.33,0,0,0-.68.83c-.15.46.58.66.72.2Z"/><path class="cls-32" d="M237.49,143c.25-.45.64-.46,1.06-.65a1.91,1.91,0,0,0,.81-.7c.28-.4-.37-.77-.65-.38s-.69.42-1.1.61a1.7,1.7,0,0,0-.76.73.38.38,0,0,0,.65.38Z"/><path class="cls-32" d="M237.4,143.25a10.86,10.86,0,0,1,1.19-.73,3.2,3.2,0,0,0,1.07-.72c.35-.34-.18-.87-.53-.53a3.38,3.38,0,0,1-1.12.68c-.37.16-.63.46-1,.66s0,.88.38.65Z"/><path class="cls-32" d="M237.55,143.43a13.92,13.92,0,0,1,1.14-.85,4.92,4.92,0,0,1,.46-.22c.1,0,.26-.22.36-.23.48,0,.48-.78,0-.75a1,1,0,0,0-.52.19c-.2.12-.41.2-.61.31a13.32,13.32,0,0,0-1.36,1c-.38.3.16.83.53.53Z"/><path class="cls-32" d="M239.12,141.9c-.38.24-.81.33-1.2.54a3,3,0,0,0-.82.83c-.3.37.22.9.53.53a2.06,2.06,0,0,1,.83-.77,5.51,5.51,0,0,0,1-.48c.41-.25,0-.9-.38-.65Z"/><path class="cls-32" d="M237.9,143.88a3.28,3.28,0,0,1,.66-.56,4.61,4.61,0,0,1,.76-.5c.45-.16.26-.89-.2-.72a5.17,5.17,0,0,0-.94.57,4,4,0,0,0-.81.68c-.33.35.2.88.53.53Z"/><path class="cls-32" d="M238.29,143.81c.35-.35.81-.53,1.15-.89s-.2-.88-.53-.53-.8.54-1.15.89.19.87.53.53Z"/><path class="cls-32" d="M238.81,143.74c.29-.16.47-.42.75-.6s0-.9-.38-.65-.48.45-.75.6,0,.88.38.65Z"/><polygon class="cls-5" points="270.04 240.25 267.79 237.99 343.38 237.03 343.38 239.6 270.04 240.25"/><polygon class="cls-5" points="207.82 188.86 343.38 188.78 343.38 189.42 208.6 189.75 207.82 188.86"/><polygon class="cls-5" points="225.12 169.48 233.05 174.31 254.6 174.31 246.29 169.48 245.59 169.48 253.31 173.99 233.05 173.99 225.61 169.48 225.12 169.48"/><path class="cls-5" d="M192.84,169.48l9,5.47c2.14,1,5.74,1.35,8.12,1.46,9.72.47,40.77,1.69,48.78,1.43,9.87-.32,27.37-2.25,27.37-2.25l-20.78-6.11h1.85l21.5,6.43s-19.46,2.25-29.33,2.57-51.15-1.29-53-1.61-4.93-1.29-4.93-1.29l-9.87-6.11Z"/><path class="cls-5" d="M293.84,237.67l-34.1-23.8S278.68,201.7,314.11,201c32.81-.64,29.27.32,29.27.32V202H314.11l-5.15.32-9.33,1-15.12,2.89L272,209.69,261,213.87l35.06,23.8Z"/><polygon class="cls-33" points="-96 -0.03 -96 89.39 -8.51 116.73 265.22 113.19 343.38 85.85 343.38 -0.03 -96 -0.03"/><polygon class="cls-34" points="-96 66.23 84.13 59.8 87.02 65.59 -96 72.02 -96 66.23"/><polygon class="cls-34" points="-96 83.28 92.17 76.85 94.1 80.7 -96 87.14 -96 83.28"/><polygon class="cls-34" points="97.31 88.75 98.6 91.64 -73.48 96.47 -80.56 94.22 97.31 88.75"/><polygon class="cls-34" points="101.82 97.11 50.99 98.08 -3.69 99.68 -57.08 101.61 -51.29 103.54 -29.74 102.9 18.51 101.29 65.15 100 102.78 99.36 101.82 97.11"/><polygon class="cls-34" points="105.03 103.54 105.68 105.15 72.55 105.79 52.6 106.44 35.88 106.76 -2.08 107.4 -35.53 108.37 -40.35 106.76 105.03 103.54"/><polygon class="cls-34" points="106.96 108.37 107.61 109.98 66.76 110.62 10.47 111.91 -22.02 112.55 -25.24 111.58 106.96 108.37"/><polygon class="cls-34" points="343.38 56.58 145.24 58.19 143.63 64.3 343.38 62.37 343.38 56.58"/><polygon class="cls-34" points="343.38 74.92 141.7 75.88 140.74 79.42 343.38 78.78 343.38 74.92"/><polygon class="cls-34" points="138.81 87.78 138.49 90.68 333.41 89.39 341.45 86.5 138.81 87.78"/><polygon class="cls-34" points="137.2 96.14 192.52 95.5 247.53 95.5 316.04 95.5 312.18 96.79 285.8 97.11 226.3 97.43 178.69 98.08 136.88 98.4 137.2 96.14"/><polygon class="cls-34" points="135.91 102.9 135.91 104.51 171.62 104.19 192.84 103.86 209.57 103.86 248.17 103.54 293.52 103.22 298.35 101.61 135.91 102.9"/><polygon class="cls-34" points="134.95 108.05 134.95 109.33 176.44 109.01 233.05 108.37 280.98 107.72 283.87 106.76 134.95 108.05"/><polygon class="cls-34" points="-96 47.25 77.37 42.11 72.87 30.85 -96 35.03 -96 47.25"/><polygon class="cls-34" points="148.46 42.11 343.38 43.07 343.38 29.56 151.35 29.56 148.46 42.11"/><polygon class="cls-35" points="120.79 115.12 96.99 -0.03 120.79 -0.03 123.69 115.12 120.79 115.12"/><polygon class="cls-36" points="123.45 115.12 113.07 -0.03 120.79 -0.03 123.45 115.12"/><polygon class="cls-37" points="-2.4 87.78 2.43 90.68 22.37 90.03 17.86 87.14 -2.4 87.78"/><polygon class="cls-37" points="77.37 88.75 74.8 85.53 94.42 85.21 96.99 88.42 77.37 88.75"/><polygon class="cls-37" points="156.82 83.6 155.21 87.14 174.51 86.82 176.76 83.6 156.82 83.6"/><polygon class="cls-37" points="234.98 83.28 231.12 86.17 251.06 86.17 256.53 83.28 234.98 83.28"/><polygon class="cls-37" points="251.71 105.15 256.21 103.54 273.26 103.54 266.82 105.15 251.71 105.15"/><polygon class="cls-37" points="198.63 105.79 213.43 105.79 216.32 103.86 201.21 103.86 198.63 105.79"/><polygon class="cls-37" points="159.07 106.44 161 104.51 145.88 104.51 144.92 106.44 159.07 106.44"/><polygon class="cls-37" points="90.88 105.47 105.03 105.47 106 107.08 92.17 107.4 90.88 105.47"/><polygon class="cls-37" points="37.49 106.76 51.64 106.76 53.89 108.05 39.74 108.37 37.49 106.76"/><polygon class="cls-37" points="-15.59 108.05 -2.08 107.72 2.43 109.33 -11.73 109.98 -15.59 108.05"/><polygon class="cls-37" points="58.39 54.01 81.55 53.04 77.37 42.11 50.35 42.75 58.39 54.01"/><polygon class="cls-37" points="197.03 54.01 172.58 54.01 178.69 42.11 204.42 42.11 197.03 54.01"/></g></svg>