<svg xmlns="http://www.w3.org/2000/svg" viewBox="0 0 401.46 467.73"><defs><style>.cls-1{fill:#575656;}.cls-2{fill:#efc2af;}.cls-3{fill:#d1a698;}.cls-4{fill:#1e1e1e;}.cls-5{fill:#111110;}.cls-6{fill:#ab9172;}.cls-7{fill:#a98277;}.cls-8{fill:#634139;}.cls-9{fill:#fff;}.cls-10{fill:#cf8d7a;}.cls-11{fill:#dda095;}.cls-12{fill:#2c120d;}.cls-13{fill:#cb171a;}.cls-14{fill:#eaeaea;}.cls-15{opacity:0.25;}.cls-16{fill:#be988e;}.cls-17{fill:#6e6e6d;}.cls-18{fill:#3f3f3f;}.cls-19{fill:#97c234;}.cls-20{fill:#7c992a;}.cls-21{fill:#e2e2e1;}.cls-22{fill:#af451e;}.cls-23{fill:#843118;}.cls-24{fill:#afafaf;}.cls-25{fill:#676766;}.cls-26{fill:#cfcece;}.cls-27{fill:#147eb3;}.cls-28{fill:#126c8f;}.cls-29{fill:#bfbebe;}.cls-30{fill:#ddb0a4;}.cls-31{fill:#c59e96;}</style></defs><title>teamsporters</title><g id="Laag_5" data-name="Laag 5"><path class="cls-1" d="M369,583s-1-5.66,1.29-10.3A100.78,100.78,0,0,1,372.38,556s-3.35-5.42,1.78-6.31,18.21,0,18.21,0,3.57-.38,1.94,5.28a135.58,135.58,0,0,1,10,16.47,57.12,57.12,0,0,0,8.24,9c4.12,3.35,5.66-.9,7.46,10.36,0,0-28.31,12.06-37.32-2.5C382.64,588.28,370.8,588.13,369,583Z" transform="translate(-88.59 -151.61)"/><path class="cls-1" d="M488.42,575s-5.66,5.41-16,4.89-23.94-5.66-32.17-4.89c0,0-10.16-1.43-13.19-5.22a14.79,14.79,0,0,1,1.09-8.68s.51-10.3,4.12-18.79c0,0-5.21-4.37,2.16-5.92s14.06,3.86,14.06,3.86l6.69,2.83s13.13,11.67,20.59,21.79C475.81,564.89,490,568.32,488.42,575Z" transform="translate(-88.59 -151.61)"/><path class="cls-2" d="M382.57,469.14c-13.46,19.73-9.71,42.81-9.71,42.81.77,22.65,1.54,46.07,1.54,46.07.24,7.34,5.39,3.26,5.39,3.26,4.62-7.55,14.51-5.32,14.51-5.32l-1.54-3.43c-1.72-6.52-.51-16.13-.51-16.13,9.27-34.83,8.24-43.5,8.24-43.5a21.32,21.32,0,0,1,.17-6.86c1.37-3,3.17-7.21,3.17-7.21a61.38,61.38,0,0,0,5-6.13Z" transform="translate(-88.59 -151.61)"/><path class="cls-3" d="M372.86,512c.77,22.65,1.54,46.07,1.54,46.07.24,7.34,5.39,3.26,5.39,3.26a11.09,11.09,0,0,1,3-3.25h0c-6.18,2.26-5.19-3.65-5.19-3.65s1.3-37.64,2.92-62,26.31-17,26.31-17h0c1.15-1.46,2-2.67,2-2.67l-26.29-3.56C369.11,488.87,372.86,512,372.86,512Z" transform="translate(-88.59 -151.61)"/><path class="cls-2" d="M432.31,465.37s-10.81,24.2-1.28,45.3c0,0,4.89,19.81,3.09,36.29,0,0,10.81,10.55,21.11-3.86,0,0-3.6-12.35,0-33.46s1.54-31.92,1.29-34.75l4.12-11.07-18.79-6.18Z" transform="translate(-88.59 -151.61)"/><path class="cls-3" d="M436.93,461.8l-4.41,3.58s-10.81,24.2-1.28,45.3c0,0,4.89,19.81,3.09,36.29,0,0,5.18,5.05,11.78,3.38l0-.05s-5.94-1.9-7.64-5.06c0,0,.24-27.35-2.68-41.06S437.72,473,437.72,473s6.14-3.08,18.77-2.67Z" transform="translate(-88.59 -151.61)"/><path class="cls-4" d="M389.36,348a9,9,0,0,0,0,3.41s-6.21,27.8-11.35,79.45l-2.23,36.21a22.56,22.56,0,0,1,6.79,2.06c3.5,1.72,33.7,5.49,47.09,3.09a30.49,30.49,0,0,0,0-8.58s17.16,13.73,42.9,2.4a40.63,40.63,0,0,0,0-7.26s2.75-58.71-9.61-100.54c0,0,1.72-1.68.69-6.48Z" transform="translate(-88.59 -151.61)"/><path class="cls-5" d="M404.82,472.24c.62.11,1.29.18,2,.24Z" transform="translate(-88.59 -151.61)"/><path class="cls-5" d="M382.12,457.64c1-10.86,1.72-45.7,1.72-45.7a235.8,235.8,0,0,1,.34,27.43c-.77,12.87,0,29.77,0,29.77,6.6,1.33,15.53,2.49,20.64,3.1-7.72-1.31-7.77-6.36-7.77-6.36s7.46-31.92,7.21-50.19-5.41-42-6.18-47.62a74.62,74.62,0,0,1-.51-11.58c-2.06,6.95-2.83,28.06-3.86,19.56s.77-21.11.77-21.11c-4.63,11.07-8.75,39.38-8.75,39.38,0-12.87,6.18-43.24,6.18-43.24,6.69,2.06,25.61,4.4,25.61,4.4l-1.15-6.11-27-1.37a9,9,0,0,0,0,3.41s-6.21,27.8-11.35,79.45l-2.23,36.21a21.53,21.53,0,0,1,4.24,1S381.13,468.46,382.12,457.64Z" transform="translate(-88.59 -151.61)"/><path class="cls-5" d="M408.85,472.7s9,.3-1.35-.18l-.67,0,2,.23Z" transform="translate(-88.59 -151.61)"/><path class="cls-2" d="M396.41,193s-2.06-1.42-2.83-.64-.51,5.53,2.83,10.94c0,0,3.47,2.7,4.63,1,0,0,2.19,10.3,3,16.22a14,14,0,0,1-1.8,6.69s-7.72,4.76-9.78,6c0,0,8.93,4.16,11.58,6.56a29.52,29.52,0,0,0,4,1.37,174.63,174.63,0,0,1,22.09,8.67,96.59,96.59,0,0,1,7.08-9.27,51.56,51.56,0,0,0,4.25-7.08s-8.11-3.86-9-6.56c0,0,0-14.41-.26-27.15,0,0,1.16.9,2.83-1.42s2.57-2.32,2.19-7.34-2.83-6.69-4.25-3.6l-.51-8.62-5.92-9.52-9.59-3.86-12.42,4.25-7.46,8.37-2.45,6.95Z" transform="translate(-88.59 -151.61)"/><path class="cls-3" d="M432.19,200s1.16.9,2.83-1.42,2.57-2.32,2.19-7.34-2.83-6.69-4.25-3.6c0,0-2.25.84-1.76,4.36C432,197.74,432.19,200,432.19,200Z" transform="translate(-88.59 -151.61)"/><path class="cls-6" d="M393.19,175s-3.6,2.83-2.83,9.14a6.29,6.29,0,0,0,1.36-1.67,44.24,44.24,0,0,1,.7,7.34,1.41,1.41,0,0,0,1.16-.58,25.49,25.49,0,0,0,.86,2.94,10.8,10.8,0,0,1,4.16,4.72,49.36,49.36,0,0,0-1.48-9.65s2.19-.45,1.48-4.5l2.7-2.83a3.22,3.22,0,0,1-.84,1.93s3-.9,3.41-3.67a47.45,47.45,0,0,1,4.89-3.67c1.87-1.09,8.37-3.6,16.39-3.56a27.81,27.81,0,0,0,4.76,10.25A70.93,70.93,0,0,0,431.2,192s1.21-4.07,2.88-5.9a18.42,18.42,0,0,0,0-3,5,5,0,0,1,.9,1.37,12.91,12.91,0,0,0-1-5.92,2.65,2.65,0,0,1,1.05.69s-.62-4.89-2.85-7.21c0,0,.17-.26,1.2,0,0,0-1.46-2.66-3.26-3.52a6.55,6.55,0,0,0,0-3,4.3,4.3,0,0,1-.94,1,31,31,0,0,0-3.6-6.95,5.54,5.54,0,0,1,0,1.8,27.93,27.93,0,0,1-5.32-5.49,3.84,3.84,0,0,0,.26,1.63,13.12,13.12,0,0,0-6.52-2.06,2,2,0,0,1,.6,1.46,16.9,16.9,0,0,1-3.6-3.69,5.09,5.09,0,0,0-.6,2.32s-1.37-1.29,1-3.95a8.07,8.07,0,0,0-4.12,2.75,5.61,5.61,0,0,1,0-1.89s-2.57,1.63-3.35,3.69a3.4,3.4,0,0,0-1.89-.86,1.74,1.74,0,0,1,0,2.32,3.65,3.65,0,0,1-.86-2.83,6,6,0,0,0-2.23,5.06A5.8,5.8,0,0,1,398,158a8,8,0,0,0-1.63,4.2,5.21,5.21,0,0,1-1-1.54s-4.63,5.75-2.4,11.15a6.18,6.18,0,0,0-2.68.34S392.68,173.57,393.19,175Z" transform="translate(-88.59 -151.61)"/><path class="cls-3" d="M396.41,193s-2.06-1.42-2.83-.64-.51,5.53,2.83,10.94c0,0,3.47,2.7,4.63,1,0,0-1.18-3.86-2.45-7.46A32.42,32.42,0,0,0,396.41,193Z" transform="translate(-88.59 -151.61)"/><path class="cls-3" d="M402.54,209.17a9.35,9.35,0,0,0,4.63,7L410,218.1s1.72,2.23,5.83,1.89l5.15-.43a5.68,5.68,0,0,0,5.06-2.32,35.4,35.4,0,0,1,3.09-3.86s-3.17,5.56-5.66,6.64c0,0,1.54.56-.17,1.77s-3.35,1.29-1.12,3,2.92,3.17,1.89,4.29-9-2.93-12.48-7.59S404.43,218.74,402.54,209.17Z" transform="translate(-88.59 -151.61)"/><path class="cls-6" d="M399.88,191.76s-.34-2.66,2-3.26a64.23,64.23,0,0,1,7.46-1,2.16,2.16,0,0,1,.43,2.14C409.32,190.9,402.11,189.27,399.88,191.76Z" transform="translate(-88.59 -151.61)"/><path class="cls-6" d="M416.93,188.76s-.66-.51-.66-2.4c0,0,3.69-.86,6.86-1.63a4.47,4.47,0,0,1,4.8,2A20.47,20.47,0,0,0,416.93,188.76Z" transform="translate(-88.59 -151.61)"/><path class="cls-7" d="M411.38,200.34s-1.29,2.75,1.24,2.4c0,0,.82-.77,1.33.43s3.43,1.12,3.95-.51,1-1.12,1-1.12,2.23.26,1.8-1.2-.77-1.2-.77-1.2.51,1.2,0,1.54-2-.24-2.49,1.37a1.77,1.77,0,0,1-3.26.09c-.34-1.29-1.59-.09-1.59-.09S411.12,202.91,411.38,200.34Z" transform="translate(-88.59 -151.61)"/><path class="cls-8" d="M407.95,206.17s6.26,2.06,17.59-2.19C425.54,204,418.5,215.7,407.95,206.17Z" transform="translate(-88.59 -151.61)"/><polygon class="cls-9" points="322.76 55.21 323.64 57.57 329.11 57.98 333.51 55.79 333.51 53.54 329.82 54.7 324.03 54.95 322.76 55.21"/><path class="cls-10" d="M407.95,206.17A23.88,23.88,0,0,0,425.54,204,52.25,52.25,0,0,1,407.95,206.17Z" transform="translate(-88.59 -151.61)"/><path class="cls-11" d="M425.54,204s-3.71,7.27-7.83,7.72-7.68-3.28-9.76-5.53C407.95,206.17,416.31,213.51,425.54,204Z" transform="translate(-88.59 -151.61)"/><path class="cls-3" d="M407.6,207.36s-3-2.82,3.45-7.71C411.05,199.65,403.06,203.92,407.6,207.36Z" transform="translate(-88.59 -151.61)"/><path class="cls-3" d="M426.22,205.14s2.57-3.3-4.8-6C421.42,199.12,430,200.51,426.22,205.14Z" transform="translate(-88.59 -151.61)"/><path class="cls-7" d="M399.37,201.55s-1.54-.79-.77-3a21.13,21.13,0,0,0-3.95-5.15s-1.29-1-.77,1.63c0,0,.26-3.4,3.86,3.69C397.74,198.71,397,201.91,399.37,201.55Z" transform="translate(-88.59 -151.61)"/><path class="cls-12" d="M410.74,192.66a5.34,5.34,0,0,0-7.89.94A6.61,6.61,0,0,1,410.74,192.66Z" transform="translate(-88.59 -151.61)"/><path class="cls-12" d="M417.94,191.59s1.63-4.8,7.85-2C425.79,189.61,420.3,187.55,417.94,191.59Z" transform="translate(-88.59 -151.61)"/><path class="cls-13" d="M462.6,347a560.87,560.87,0,0,0-2.75-62.72s1.67-11.15-1-28.27a53.55,53.55,0,0,0-7.55-17s-4.91-2.62-9.82-5.36h-.31l.31.15a51.56,51.56,0,0,1-4.25,7.08,96.58,96.58,0,0,0-7.08,9.27A174.64,174.64,0,0,0,408,241.41a29.52,29.52,0,0,1-4-1.37c-2.66-2.4-11.58-6.56-11.58-6.56l.24-.15h-.24s-7.64,5.1-10.55,9.05c0,0,23.07-1,24.34,20l-14.69,12.22-1.8,8.27L388,289.44s-.64,4.63-6.95,3.86c0,0,.64,9.27,2.19,14.8,0,0,4.16,19,5.71,34.06V343s-2.06,2.9-.69,4.46,62.8,20.42,75.33,4.29C463.63,351.77,465.52,348.34,462.6,347Z" transform="translate(-88.59 -151.61)"/><path class="cls-12" d="M408.29,192.45a1.49,1.49,0,0,0-.27-.86c-.27-.39-2.31-.31-2.56.17a1.5,1.5,0,1,0,2.83.69Z" transform="translate(-88.59 -151.61)"/><path class="cls-14" d="M381.24,295a7,7,0,0,0,7.56-3.18l-1.05-1.46s-2.19,4.2-6.65,2.91Z" transform="translate(-88.59 -151.61)"/><path class="cls-12" d="M423.37,190.15a1.5,1.5,0,0,0-.75-1.3,2.92,2.92,0,0,0-1.81.24,1.5,1.5,0,1,0,2.56,1.06Z" transform="translate(-88.59 -151.61)"/><path class="cls-15" d="M453.93,321.7,437.2,301.16l-43.76-18.29-3.84.43L388,289.44s-.64,4.63-6.95,3.86c0,0,.64,9.27,2.19,14.8,0,0,4.16,19,5.71,34.06V343s-2.06,2.9-.69,4.46c.51.57,9.19,3.5,20.58,6.16-25.72-6.7-16.46-10.8-16.46-10.8.51-8-3.35-26.67-3.35-26.67s-1.54-17.34,1.29-10.09,6.69,15.91,10,15.62S411,323.28,411,323.28s12.61,8.75,19.56,3.86,9.08-4.38,9.08-4.38C445.33,326.89,453.93,321.7,453.93,321.7Z" transform="translate(-88.59 -151.61)"/><path class="cls-7" d="M433,196.33a2.24,2.24,0,0,0,0-3.21s1.92-8.52,3.09-3.5c0,0-.26-4.09-1.83-1.58a18.36,18.36,0,0,0-2.15,5.57S433.28,193.69,433,196.33Z" transform="translate(-88.59 -151.61)"/><path class="cls-3" d="M393.76,234s10.8-9.65,12.65,1.68c0,0,2.28-2.17-.2-7.34a8.79,8.79,0,0,1-2.65-4.43,12.73,12.73,0,0,1-1.35,3.4l-9.78,6Z" transform="translate(-88.59 -151.61)"/><path class="cls-3" d="M404.87,240.24s10.7-.22,15.92.55c0,0-8.33-.09-12.75.47Z" transform="translate(-88.59 -151.61)"/><path class="cls-3" d="M428.37,245.47a5.67,5.67,0,0,1-3.35-7S420.39,244.27,428.37,245.47Z" transform="translate(-88.59 -151.61)"/><path class="cls-14" d="M421.9,269.64l2.76-5.54,16.79-2.92,4,5.22a32.92,32.92,0,0,1,1.29,10.34l-3.06,3.6,3.07,2.54V293l-.64,4.32L442.18,286l-4.38-5.68,5.18-5.52-1.53-7.14-2.18-2.22-10.91,2.05L426,272.21Z" transform="translate(-88.59 -151.61)"/><path class="cls-14" d="M406.27,262.44l-6.37,5.3,7.28,2.32a25.59,25.59,0,0,0-3.79-20.2c-6-8.88-20.38-8.59-20.38-8.59h-.09c-.36.4-.7.8-1,1.18C381.93,242.45,405,241.42,406.27,262.44Z" transform="translate(-88.59 -151.61)"/><path class="cls-15" d="M458.49,260.42s.46,18.2-2.24,22.71a12,12,0,0,0-7.21.77c-3.47,1.67-21.35-.48-21.35-.48l2.82,5.12,14.41,4.5,13.64-7.46A73.16,73.16,0,0,0,458.49,260.42Z" transform="translate(-88.59 -151.61)"/><path class="cls-15" d="M404.87,255.16l.22.4a29.32,29.32,0,0,1,3.41,10.84,37.8,37.8,0,0,1,8.88,10.34l-6.26-.55-10.73-7.29" transform="translate(-88.59 -151.61)"/><path class="cls-2" d="M451.28,238.95a68.25,68.25,0,0,1,7.68,4.16s16.47.77,17.76,27.28c0,0,6.31,4.76,9.39,11.45s1.8,7.85,3.6,16.34a28.33,28.33,0,0,1,0,8.75c-.77,4.5.26,5.79-1.42,7.46s-4,.26-10.17,3.22-25.61,6.95-44.27,1a22,22,0,0,0-7.34-1.42c-3.35.13-10.17-3.35-12-6,0,0-1-1.42-4-.39s-7.18-5.88-7.18-5.88l5.51-9.82,26.77,6.82L457,291.37l1.54-5.79s3.23-16.51-1.67-31.4Z" transform="translate(-88.59 -151.61)"/><path class="cls-2" d="M381.87,242.38a11.26,11.26,0,0,0-1.63,2.32s-4.8,1.37-7.21,8.92,1.54,15.79,1.54,15.79-.17,7.87,2.49,13.46,3.76,7.33,4,10.43c0,0,4.8,1.5,6.65-2.91,0,0,10.85,16.68,31.61,20.93,0,0,11.15,5.45,25.05-2.27,0,0,10.3-6,15.61-10.74s6.52-5.65,6.52-5.65-6.69-9.83-14.76-7-20-2.87-31-2.77c0,0-.91-8.76-14.47-16.09C406.32,266.78,410.09,242.64,381.87,242.38Z" transform="translate(-88.59 -151.61)"/><path class="cls-16" d="M387.75,290.39a72.21,72.21,0,0,1-6.65-12.61s-.51-2.37-3.6-4.77c0,0,1.72,2.28,3.6,8.69C381.09,281.7,383.07,287.35,387.75,290.39Z" transform="translate(-88.59 -151.61)"/><path class="cls-16" d="M410.56,310.8c3-1,4,.39,4,.39,1.8,2.7,8.62,6.18,12,6a22,22,0,0,1,7.34,1.42,71.48,71.48,0,0,0,27.56,2.75c-.19,0-17.78-2.12-18.94-3.91s4.24-5.79,4.24-5.79c9.64-11.58,28.45-24.58,28.45-24.58-4.38,1.16-8.62,5.53-8.62,5.53s-1.51-1.88-4.12-5.41-1.93-12.48-2.45-18.4a23.59,23.59,0,0,1,1.16-10c-1.54,1.8-2.82.74-2.82.74v0a59.79,59.79,0,0,1,.93,6.14v.17q.07.7.12,1.39a69.1,69.1,0,0,1-.7,17.54c-.08.49-.13.76-.13.76l-.08.32c7.19,3.82,5.74,8.73,5.74,8.73-4.9-.09-9.08,6.78-9.08,6.78a59.56,59.56,0,0,1-15.54,9.85c-11.77,3.55-9.72,1.6-20.23.05s-16-6.39-16-6.39S407.6,311.83,410.56,310.8Z" transform="translate(-88.59 -151.61)"/><path class="cls-15" d="M430.51,255s4.63,11.75,4.38,22.77A27.64,27.64,0,0,0,430.51,255Z" transform="translate(-88.59 -151.61)"/><path class="cls-3" d="M430.77,303.21c-5.41-6.95-11.37-3.86-11.37-3.86-7.12-6.95-5.62-4.5-15.4-13s-10.81-14.67-10.81-14.67c-.49-12.23-6.68-22.67-9.69-27.07h0a1.85,1.85,0,0,1,.07-2.21l-1.7,0a11.26,11.26,0,0,0-1.63,2.32s-4.8,1.37-7.21,8.92,1.54,15.79,1.54,15.79-.17,7.87,2.49,13.46,3.76,7.33,4,10.44c0,0,4.8,1.5,6.65-2.91,0,0,10.85,16.68,31.61,20.93,0,0,8.66,4.23,20.23-.05C439.56,311.25,436.14,310.12,430.77,303.21Z" transform="translate(-88.59 -151.61)"/><path class="cls-3" d="M406.32,266.78a12.67,12.67,0,0,0-3.78-.81s2.57-.77,3.78-.43A2.54,2.54,0,0,1,406.32,266.78Z" transform="translate(-88.59 -151.61)"/><path class="cls-3" d="M476.71,270.39s-.9-.47-2.53-1.5a9.91,9.91,0,0,1,2.53.75Z" transform="translate(-88.59 -151.61)"/><path class="cls-5" d="M429.65,463.65a152,152,0,0,1,5.66-28.31c4.63-15.44,14.07-44.79,12-60.4,0,0,2.3,13.73.29,26.6s9.15,17.85,13.09,18.88c0,0-7.21,3.43-13.38,2.06a11.16,11.16,0,0,0,4.46,2.57s-6,1.5-9.61.51c0,0-1.72,6.52-1.72,9.09a16.85,16.85,0,0,0,11.67,5.83s-8.24,0-12.53-2.57a11.93,11.93,0,0,0,8.41,5.26q.42,0,.85.06c6.18.17-7.21,1.2-11.67-.51,0,0-2.65,11-3.78,16.82,0,0-2.24,6.53,18,11C451.44,470.51,443,472.06,429.65,463.65Z" transform="translate(-88.59 -151.61)"/><path class="cls-17" d="M377.84,579.94v-7.58l4.38-1.83,8.39,8.53a8.69,8.69,0,0,0-5.47,9.14S377.84,583.5,377.84,579.94Z" transform="translate(-88.59 -151.61)"/><path class="cls-18" d="M369,583c1.8,5.15,13.64,5.29,13.64,5.29,8.61,13.91,34.84,3.52,37.14,2.57l-.47-2.51-.76.38a2.75,2.75,0,0,0-3-2.8c-3,.16-3,4.62-3,4.62-14,5.42-27.36-2.36-27.36-2.36s-6.81-7.44-11-9.14-3.91-6.36-3.91-6.36C368,577.32,369,583,369,583Z" transform="translate(-88.59 -151.61)"/><path class="cls-17" d="M446.5,565.83v-6.09l5.09-3.57,9.9,6.24s-1.72,5.93-3.78,8.36h-8.39Z" transform="translate(-88.59 -151.61)"/><path class="cls-18" d="M427.1,569.79c3,3.79,13.19,5.22,13.19,5.22,8.24-.77,21.88,4.38,32.17,4.89s16-4.89,16-4.89a4.85,4.85,0,0,0-1.35-4.43h0a3.15,3.15,0,0,0-2.39,3.6c-3.81.69-19.23,1.95-27-3.41a33.11,33.11,0,0,0-15.81-5.68c-9.45-.08-13.71-4-13.71-4A14.79,14.79,0,0,0,427.1,569.79Z" transform="translate(-88.59 -151.61)"/><path class="cls-15" d="M372.38,556a100.78,100.78,0,0,0-2.09,16.73C368,577.32,369,583,369,583c1.8,5.15,13.64,5.29,13.64,5.29,5.29,8.55,17.25,7.91,26.22,5.93.58-9.91-3.75-10-3.75-10-9.74-.66-10.74-4.87-10.74-4.87C381,566.81,382.79,558,382.79,558c-4.06,1.87-1.54,4.22-4.95,4.25S374.4,558,374.4,558l-.24-8.37-1.59.56C369.84,551.86,372.38,556,372.38,556Z" transform="translate(-88.59 -151.61)"/><path class="cls-15" d="M432.31,542.32c-3.6,8.49-4.12,18.79-4.12,18.79a14.79,14.79,0,0,0-1.09,8.68c2.25,2.81,8.43,4.33,11.47,4.92a17.94,17.94,0,0,1-4.5-2.48,18.43,18.43,0,0,1,1.65-7.81c.19-10,2.84-14.78,2.84-14.78-3.3-.92-4.23-2.69-4.23-2.69a72,72,0,0,0,.14-10.55C427.1,538,432.31,542.32,432.31,542.32Z" transform="translate(-88.59 -151.61)"/><path class="cls-14" d="M443,234.24l-1.53-.85h-.31l.31.15a51.56,51.56,0,0,1-4.25,7.08,96.58,96.58,0,0,0-7.08,9.27A174.64,174.64,0,0,0,408,241.22a29.52,29.52,0,0,1-4-1.37c-2.66-2.4-11.58-6.56-11.58-6.56l.24-.15h-.24s-.48.32-1.25.87c0,0,8.22,3.86,12.21,7.07,0,0,15.14,4.34,27.13,10.91,0,0,10.1-13.26,12.47-17.74Z" transform="translate(-88.59 -151.61)"/><path class="cls-15" d="M381.87,242.38s.64,0,1.7,0c3.23-4,10.19-8.43,10.19-8.43l-1.34-.64S384.78,238.43,381.87,242.38Z" transform="translate(-88.59 -151.61)"/><path class="cls-14" d="M459.09,257.72q-.12-.86-.26-1.74a53.55,53.55,0,0,0-7.55-17l-2-1.08h0s5.3,12.19,9.23,22.56Z" transform="translate(-88.59 -151.61)"/></g><g id="Laag_4" data-name="Laag 4"><path class="cls-2" d="M142.53,389.78a334.86,334.86,0,0,0-22.19,49.46s-4.76,13.54-7.29,21.2v15.9l-2.85,11.41-.83-.67a212,212,0,0,1,.59,24.49l9.16,9.39L135,513.83s6.18-15.46,4.76-31.51l-3.57-4.76,5.23-6.9,3.09-.36a13.07,13.07,0,0,0,6.54-6.06c2.62-4.76,12.6-18.43,16.88-22,0,0,17.36-21.16,21.64-27.82l-1.9-9.27-29-11.1Z" transform="translate(-88.59 -151.61)"/><path class="cls-3" d="M227.71,328.68s-2.9-6-4.48-7.7l-1.81,5.71,4.34,3.49Z" transform="translate(-88.59 -151.61)"/><path class="cls-2" d="M186.29,398s-3.29,15.22,7.08,40.9c0,0,4.34,13.24,4.66,22.79a33.11,33.11,0,0,0,0,7.17l7.93,22.19-.79,8.88s1.11,16.17.79,27.58l12,8.24,10.94-5.39s8.09-25.21,4.28-40.9l-6-15.69,3.33-4.44s.77-15.85,3.71-26.63,7.86-39.63,7.86-39.63l-19.82-9Z" transform="translate(-88.59 -151.61)"/><path class="cls-4" d="M150.38,374s-4,7.85-7.85,15.77a200.56,200.56,0,0,1,18.71,9.83c8.88,5.39,25,10.15,25,10.15s-1.27-6.66,0-11.73c0,0,16.17,12.68,41.54,7.13,0,0,9.51-2.38,14.27-2.06a8.26,8.26,0,0,0,1.59-7s1.9-7-1.59-16.8c0,0-2.38-4.76-1.35-14.11l-41.46-3Z" transform="translate(-88.59 -151.61)"/><path class="cls-19" d="M213.63,238.23a155.61,155.61,0,0,1,21.88,8s58,41,61.11,69.74c0,0-21.88,20.93-49.46,28.77,0,0-3.57-8.69-8.32-13.38,0,0,7.85-5.17,14-7.31a38.26,38.26,0,0,0,8.09-5,65.67,65.67,0,0,1,7.37-8.25s-15.22-12.43-25.68-22.65c0,0-3.8-4-6.9,2.18,0,0-3.8,4.24-5,9a11.69,11.69,0,0,1-2.62,5.51,27.24,27.24,0,0,1-2.62,14.22l-2.14,6.9,12.13,21.16s5,8.8,5.23,18.07c0,0-42.8,27.82-90.36,8.8a38.24,38.24,0,0,1,3.09-8.8,4.63,4.63,0,0,1,1-6.66s1.56-21.72,1.43-34.72l-1-17.31-.24,18.26s1.9,3.27-.71,3.89c0,0,1.43,3.24-1.19,3.72,0,0,2,1.78-.36,2.38a6.1,6.1,0,0,1-1,4.4s-1,6.54-5.59,23.82c0,0-1.74,10.15-2.38,14.74,0,0,.32,2.68-1.74,2.93H129.06s-1.43-.39,0-3.88a128.33,128.33,0,0,0,.16-15.54s-1.27-19.5,1.43-30.91a1.94,1.94,0,0,1-.48-3s-1.9-1.27,1.27-3.17c0,0,4.91-51.84,16.8-74.35a56.18,56.18,0,0,1,15.69-9.35Z" transform="translate(-88.59 -151.61)"/><path class="cls-20" d="M143.48,377.73c.63-4.6,2.38-14.74,2.38-14.74,4.6-17.28,5.59-23.82,5.59-23.82a6.1,6.1,0,0,0,1-4.4c2.38-.59.36-2.38.36-2.38,2.62-.48,1.19-3.72,1.19-3.72,2.62-.62.71-3.89.71-3.89l.17-13.18h0l-2.55-5.13v-17.6l12.13-32.34-1.9-14.67a5.54,5.54,0,0,0-2.37.27,59,59,0,0,0-9.91,6c2.94,9,.48,15,.48,15s-1.75,12.1-3.66,28.9-2.93,33-2.93,33a24,24,0,0,1,5.23,3.73,28,28,0,0,0-5.79-2.22c-9-2.3-12.44-.08-12.44-.08,3.57-1,9.27.63,9.27.63-2.85-.71-6.9.48-6.9.48a16,16,0,0,1,7.85,1s3.09,8.71,1.19,21.42a210.13,210.13,0,0,0-2.14,23.67c-.24,2.85-5.07,2.62-5.07,2.62,5.55.71,6.66,2.62,6.66,2.62-.48,1.43-.24,1.66-.24,1.66C143.8,380.42,143.48,377.73,143.48,377.73Z" transform="translate(-88.59 -151.61)"/><path class="cls-21" d="M179.07,268.23l3.79-4.72,10-.22,3.72,4.71a90,90,0,0,0-1,9.86L183,287.24s7.1,0,9.49.42l.16-2.28,2.87.36a40.86,40.86,0,0,0-.48,5.81,141.45,141.45,0,0,0-16.77-.82,29,29,0,0,1,.53-6.6l13.63-9.82.43-4.93-2.12-2.93-6,.49-3.1,4.43Z" transform="translate(-88.59 -151.61)"/><path class="cls-20" d="M230.28,272.17c-6.42,1.61-14.07-1.29-14.07-1.29l1.07,4.36A99,99,0,0,1,201,256.54s11.89,20.45,1.9,40.9-10.92,35-10.92,35c-3.79,30.44,25,25.44,25.19,33.29S197.45,379.82,197,380a111.78,111.78,0,0,0,43.72-14.74c-.24-9.27-5.23-18.07-5.23-18.07L223.38,326l2.14-6.9a27.24,27.24,0,0,0,2.62-14.22,11.66,11.66,0,0,0,2.61-5.46h0v0c1.19-4.76,5-9,5-9q.14-.29.29-.54l.09-.15.2-.33.12-.18.17-.25.14-.18.16-.2.15-.17.15-.16.16-.16.14-.13.17-.14.13-.1.18-.13.12-.08.19-.11.1-.06.2-.09.09,0,.21-.07.07,0,.22-.06h.06l.23,0h0l.24,0H240l.25,0a4.57,4.57,0,0,1,2.37,1.22c10.46,10.23,25.68,22.65,25.68,22.65l1.52-1.37C254,297.67,236.7,270.57,230.28,272.17Z" transform="translate(-88.59 -151.61)"/><path class="cls-22" d="M204.12,174.14s-3.57-5-13.55-3.33-20,10.46-22.12,28.65-5.83,25.21-8.44,40.31c0,0-.71,4.28-4.64,5.35a2.93,2.93,0,0,0,4,0s-7.25,8.92-12.37,31a15.58,15.58,0,0,1-2.73,7.37,20.88,20.88,0,0,0-3.92,11.18s2.14-6.9,4.87-10.46c0,0-3.69,14.15-1,25.09,0,0,.48,2.38,3.8,3.09a3.29,3.29,0,0,1-.48-2.38,15.36,15.36,0,0,0,5.11,2.38,2.07,2.07,0,0,1-.36-2.14s2.5.71,3,2.14-.12.59-.12.59a17.43,17.43,0,0,0,.24-8.44,2,2,0,0,1,1,1.78,13.69,13.69,0,0,0-1.43-6.9s-1-2-.12-6.42c0,0,2.38,5.23,2.5,9.63,0,0,1.07-3.69-.59-9.63,0,0-1-8.32,2.38-13.32a25,25,0,0,1,.12,6.66s-.71,4.64-.12,6.66c0,0,.59-6.3,1.19-9.16,0,0,.71-3.57,0-5.23,0,0,1.19-6.3,4.52-10s13.91-11.41,16.41-21.88L185,246l14.51-.59A37.21,37.21,0,0,0,195.56,266c1.31,11.53,3.21,10.46,3,18.31,0,0,.66-5.92-1.19-15.58a26.35,26.35,0,0,1,.59-10.7s-.59,6.78.36,10.94a38,38,0,0,1,.83,5.71s-.24-2.73-.48-8.56a61.32,61.32,0,0,1,1-10s-.59,4.16,2.26,10.34c0,0,1.55,9.16-1.07,17.36A62.09,62.09,0,0,0,199,308s0-13.08,2.14-21.16c0,0,2.5-6.18,3-9.39a40.32,40.32,0,0,1,1.55,13.79c-.48,7.73-4.64,18.07-5.94,20,0,0,5.35-7,6.78-15.46a40.83,40.83,0,0,1-3,13.91s4.52-8.8,5.23-16.17a25.14,25.14,0,0,0,1.19,7c1.07,2.62-.24,7.13-2.62,10.46a11.23,11.23,0,0,0,4.4-7.73s2.14,3.8.71,7.25a13.34,13.34,0,0,0,4.16-9s.83,6.06-1.43,10.23A16.38,16.38,0,0,0,219,304a82.86,82.86,0,0,0,1.31-29.13c-2.14-16.17-4.87-13.67-4.16-37.81s.59-38.76.59-38.76S215.89,172.48,204.12,174.14Z" transform="translate(-88.59 -151.61)"/><path class="cls-2" d="M173.92,209.21s-.94,8.09,3.46,12.13a28.12,28.12,0,0,1,3.08,3,23.59,23.59,0,0,1,1.78,2.5,122.14,122.14,0,0,0,1,14.51,13.36,13.36,0,0,1-1.9,5.47s7.85,3.92,18.19-1.43a145.6,145.6,0,0,1,7-14.15s-.12-6.18,0-11.53a80.14,80.14,0,0,0,1.55-8.2s1,1.55,2.14-.48a80.57,80.57,0,0,1-.83-14.62s-.71-9-5.83-10.34c0,0-4.16-2.38-3.69-5.71,0,0-7.85-3-13,0C186.88,180.32,178.08,191.38,173.92,209.21Z" transform="translate(-88.59 -151.61)"/><path class="cls-3" d="M182.24,226.81s5.94,2.22,11-.79c0,0,6-1.74,9.35-4.91,0,0,2.54-2.85,3.17-9.51,0,0,1.9-9.19-.63-10.46,0,0,2.93-10.07-1.62-15.1,0,0,4.72.67,5.83,10.34a89.6,89.6,0,0,0,.83,14.62s-.91,2-2.14.48a63.41,63.41,0,0,1-1.55,8.2v11.53a139.16,139.16,0,0,0-7,14.15s4.7-13.41,5.43-23C204.91,222.37,194.21,234.18,182.24,226.81Z" transform="translate(-88.59 -151.61)"/><polygon class="cls-9" points="92.1 62.02 94.16 62.02 99 61.68 103.42 61.98 106.21 62.02 107.41 61.86 106.26 63.61 102.76 65.85 96.9 66.33 93.65 64.98 92.97 63.48 92.25 62.67 91.78 62.08 92.1 62.02"/><path class="cls-10" d="M180.1,213.59a8.12,8.12,0,0,0,3.27-.39c2.08-.59,9.39.07,10.64.21a5.31,5.31,0,0,0,2.2-.12s-.71.92-3.57.62-8-.42-9.93.06A7.17,7.17,0,0,1,180.1,213.59Z" transform="translate(-88.59 -151.61)"/><path class="cls-11" d="M180.38,213.69a7.06,7.06,0,0,1,1.57,3c.36,1.72,5.23,4.58,10.82.71a20.68,20.68,0,0,0,3.45-4.13,11.62,11.62,0,0,1-8.06,3.66c-5,.06-5.92-1.25-5.92-1.25A3.7,3.7,0,0,0,180.38,213.69Z" transform="translate(-88.59 -151.61)"/><path class="cls-3" d="M196.42,214.68s.42-1.43-1.61-3.21a7.23,7.23,0,0,1-1.27-1.59,5.1,5.1,0,0,0,1.07,2.4C195.45,213.14,195.89,213.1,196.42,214.68Z" transform="translate(-88.59 -151.61)"/><path class="cls-3" d="M180.59,215a4.55,4.55,0,0,1,0-3.33,10.82,10.82,0,0,0,.85-2.32,10.17,10.17,0,0,1-1.55,2.26C179.36,212,179.38,214.49,180.59,215Z" transform="translate(-88.59 -151.61)"/><path class="cls-7" d="M190.45,206.3s1.76.3,1.56,1.72-1,1.88-1.92,1.86c0,0,.78-.29,1-1.79S190.45,206.3,190.45,206.3Z" transform="translate(-88.59 -151.61)"/><path class="cls-7" d="M189.14,209.89a.6.6,0,0,0,0-1.09s-2-.73-1.25,1.09A1.06,1.06,0,0,0,189.14,209.89Z" transform="translate(-88.59 -151.61)"/><path class="cls-7" d="M184.44,208.1c.09-.84.84-2.09.6-3.76a8.61,8.61,0,0,1-.59,2,2.49,2.49,0,0,0-.48,2.35v0c-.16.07-.7.32-.55.72s1.21.49,1.29.5.71,0,.71,0A1.81,1.81,0,0,1,184.44,208.1Z" transform="translate(-88.59 -151.61)"/><path class="cls-7" d="M182.9,209.39a1.81,1.81,0,0,1,.45-2.18S181.35,207.49,182.9,209.39Z" transform="translate(-88.59 -151.61)"/><path class="cls-22" d="M201.74,196.06a7,7,0,0,0-2.62-3.25s-5.55-.24-8.56,1c0,0-.79.32-.48,1s1.59.32,1.59.32a25.32,25.32,0,0,1,6.74-1S199.92,194,201.74,196.06Z" transform="translate(-88.59 -151.61)"/><path class="cls-22" d="M182.24,193.84s1.18.16,1.1,1.19-1.91,0-1.91,0-2.92-.65-3.72-.37l.63-1.22S180.1,193.52,182.24,193.84Z" transform="translate(-88.59 -151.61)"/><path class="cls-12" d="M191.34,199s1-2,4.54-1.72,3.6,1,3.84,2.14C199.72,199.47,196.57,196.2,191.34,199Z" transform="translate(-88.59 -151.61)"/><path class="cls-12" d="M183.4,199s-1.61-2.54-5.75-1.68l-.27.7S179.51,196.61,183.4,199Z" transform="translate(-88.59 -151.61)"/><circle class="cls-12" cx="106.81" cy="47.43" r="1.32"/><path class="cls-21" d="M168.94,263.74l7.39.05S172,275.88,172,287.45l2.8.29a14.14,14.14,0,0,0-.29,3.36s-8.33-.39-9.67-.29A18.27,18.27,0,0,1,165,287s1.23,0,2.41.07a73.78,73.78,0,0,1,3.17-19.6l-2.81.07A21.43,21.43,0,0,1,168.94,263.74Z" transform="translate(-88.59 -151.61)"/><circle class="cls-12" cx="91.91" cy="47.38" r="1.28"/><path class="cls-23" d="M176.51,200.36s-7.82,7-7.35,23.36,11.41,19-9,41.24c0,0-7.85,6.33-9.75,19.4a22.9,22.9,0,0,1,4.76-8.2,37.34,37.34,0,0,0-3.33,16s3.33-12.5,5.47-16c0,0,4.47-8.23,3.09,2.49,0,0,1.62-7.16,4.52-10,0,0,15-12.19,16.41-21.88a7.7,7.7,0,0,0,1.9-5.47s-1-9-1-14.51c0,0-2.84-4.28-4.87-5.47,0,0-4.15-5.53-3.46-12.13C173.92,209.21,175.9,202,176.51,200.36Z" transform="translate(-88.59 -151.61)"/><path class="cls-23" d="M206.5,231.21s4.16-5.94,4.4-16.53c0,0,3.33-22.21-4.4-26.56,0,0,2.62,4.8,2.85,8.25,0,0,.28,8.11.83,14.62,0,0-1.07,2.14-2.14.48,0,0-.71,5-1.55,8.2Z" transform="translate(-88.59 -151.61)"/><path class="cls-23" d="M186.88,180.32s4.16-9,13.83-4.72a6.28,6.28,0,0,0-.87,4.72A14.22,14.22,0,0,0,186.88,180.32Z" transform="translate(-88.59 -151.61)"/><path class="cls-3" d="M182.31,187.45s5.44-7,17.63-5.62l-.1-1.5a14.58,14.58,0,0,0-13,0A59.87,59.87,0,0,0,182.31,187.45Z" transform="translate(-88.59 -151.61)"/><path class="cls-2" d="M238.84,331.38a16.85,16.85,0,0,0-3.73,2.13s-4-.32-5.07-2.85c0,0-4.6-4.28-8.24-5.55a52.42,52.42,0,0,0-5.07-7,39.71,39.71,0,0,0-7-2.22,39.4,39.4,0,0,0-4.76,1.43,1.61,1.61,0,0,0-1.11,2.54c1.11,2.06,4.76,1,4.76,1a23.44,23.44,0,0,0,3.88,1.27s2.44,2.38,1.42,4.44l-5.22-.4s-2.38.32-6.5,1.27c0,0-5.87,1.19-5.15,3.88.43,1.63,6.1.57,7.53.09l5,.07,4.35.63-4.83.32-6.18,1.11s-5.55.48-5.55,2.38,3,1.74,5.71,1.74h10.85l-4.51,1.27-4.76,1s-3.8.16-3,1.9,3.8,1.9,6.5,1.59a93.73,93.73,0,0,1,10.15.13s6.66,4,11.41,5.42l7-1.74a89.54,89.54,0,0,0,10.46-2.38S243.67,335.91,238.84,331.38Z" transform="translate(-88.59 -151.61)"/><path class="cls-2" d="M129,379s1-3.09,6.34-2.62S142,379,142,379a16.6,16.6,0,0,0-.55,7.61c.75,3.8,3.8,5.15,3.65,13.32s.55,10.15.55,10.15.32,2.85-1.9,2.54-3.09-1.59-3.73-5.39.24-4.52-.87-8.88c0,0-.08,4-.55,7.53,0,0,.48,2.22.79,4.28s3.17,5.07,3.17,5.07,3.09,1.51,1.82,4.36c0,0-2.14,1.51-4.52-.79a6.67,6.67,0,0,1-7.21-2.77,11,11,0,0,1-5-8.09c-.63-5.63,1.66-18.15,1.66-18.15A58.82,58.82,0,0,0,129,379Z" transform="translate(-88.59 -151.61)"/><path class="cls-3" d="M129.8,492.71c.43,13.67-3.61,22.88-3.61,22.88l3,.88,5.89-2.64s6.18-15.46,4.76-31.51l-8-.59Z" transform="translate(-88.59 -151.61)"/><path class="cls-3" d="M233.21,489.5,232,486.33h-1.64l-6.66,10.46s.16,19.34-3.17,36.3l8.4-2.7S237,505.19,233.21,489.5Z" transform="translate(-88.59 -151.61)"/><path class="cls-4" d="M144.55,470.32a72.24,72.24,0,0,0-12.72-5.39c-7.13-2.22-14.73-5.69-16.76-10.49a1.29,1.29,0,0,0-1.95.51c-.87,1.35-2.7,3.73-1.9,5.71,0,0-2.22-.24-2.7,4.44s-1.27,5.79,0,12-2.3,5.39,1.66,10.62,13.4,8.64,22.51,3.65,7.45-12,7.45-12,2.54-2.38,1.66-5c0,0-.32-1.35.87-1.43S144.43,471.58,144.55,470.32Z" transform="translate(-88.59 -151.61)"/><path class="cls-4" d="M231.7,469.84s-5.43-4.75-19-1.35c0,0-9,2-14.66.4,0,0-1.11-.24-.4,1.59s.08,2.54.08,2.54a1.71,1.71,0,0,0,0,1.74c.55.87-.32,2.85-.32,2.85s-1,2.3.71,3.25c0,0,1,.08.79,4.6a10.66,10.66,0,0,0,2.77,7.53,1.34,1.34,0,0,0,1.27.4c1-.08.4,1.59.4,1.59a6.81,6.81,0,0,0,.63,2.7c.63,1.27,4.76,6.18,13.87,3.25s17.44-8.09,16.49-15.38a3.32,3.32,0,0,0-2-2.38A7.8,7.8,0,0,0,231,476.9s1.35-.48.87-3.17A10.13,10.13,0,0,1,231.7,469.84Z" transform="translate(-88.59 -151.61)"/><path class="cls-4" d="M206,526.83s8.46,5.87,23,3.57c0,0,1.35,0,.55,2.06s-8.24,21.64-8.64,28.69a7.08,7.08,0,0,0,0,1.72l-9.51,4.1-8.8-5.71.71-6.18s2.87-7.73,1.68-24.77c0,0-.91-5,.08-4.68l1,.31Z" transform="translate(-88.59 -151.61)"/><path class="cls-4" d="M135.32,513.09s1.11-.13.63,1-7,20.85-5.47,30.2l.75,7.25-12.17,1.7-5.07-1.9-6-8.16s3-18.47,1-33.69c0,0-.29-1.27,1.16-1.27l-.13,1.74S113.88,515,122,515.5,134.29,514.65,135.32,513.09Z" transform="translate(-88.59 -151.61)"/><path class="cls-4" d="M122,515.5" transform="translate(-88.59 -151.61)"/><path class="cls-5" d="M132.68,514.7a15.22,15.22,0,0,1-6.49.88,1.13,1.13,0,0,1,.64,1.46c-.36,1.07-4.44,20-4.12,28.58a11.6,11.6,0,0,1,0,5.08l2.28,1.7,6.26-.88-.75-7.25c-1.51-9.35,5-29.09,5.47-30.2.22-.52.09-.77-.1-.88l-.53-.1A4.89,4.89,0,0,1,132.68,514.7Z" transform="translate(-88.59 -151.61)"/><path class="cls-5" d="M228.93,530.4a41.56,41.56,0,0,1-8,.5h0a2.25,2.25,0,0,1,.66,2.19c-.36,1.31-6.06,20.57-8.44,33.05h.09l7.58-3.27a7.08,7.08,0,0,1,0-1.72c.4-7.05,7.85-26.63,8.64-28.69S228.93,530.4,228.93,530.4Z" transform="translate(-88.59 -151.61)"/><path class="cls-24" d="M122,569.36s3.51,1.9,9.33-3.21,6.46-4.64,4.72-9.75a26.86,26.86,0,0,0-4-7.85,9.25,9.25,0,0,1-.59-3.21c0-1.78-1.07-1.68-1.07-1.68s1.78,7.51-5.71,7.15-9.63-1-10.7.52c0,0,0-9.43-4.76-8.6s-4-.05-4-.05-2.85-.19-1,3.14.83,5.35.83,5.35a78.33,78.33,0,0,0-5.59,14.74s-4.16,5-7.73,8.68-5.35,5.59,1.43,9.27,20.81-1.07,23.07-5.71A49.18,49.18,0,0,1,122,569.36Z" transform="translate(-88.59 -151.61)"/><path class="cls-24" d="M183.19,584.22s-3.33,1-1.31,5c0,0,6.66,7.61,23.9,5a11.8,11.8,0,0,0,7.25-4c2.85-3.57,11.18-2.56,9.51-9.78a79.1,79.1,0,0,1-1.19-10.67c0-4,1.45-6.3-.58-7.49a8.42,8.42,0,0,1-6.31,2.5s5.23-4.28.24-5.35a61,61,0,0,1-11.47-4.28s-2.79-1.9-3.39.83,2.14,4.93-2.38,12.69c0,0-6.06,7-8.92,10.73A17.07,17.07,0,0,1,183.19,584.22Z" transform="translate(-88.59 -151.61)"/><path class="cls-20" d="M242.8,336.45c-.17-.29-.31-.53-.39-.68l.23.43Z" transform="translate(-88.59 -151.61)"/><path class="cls-20" d="M242.41,335.77l-.1-.19Z" transform="translate(-88.59 -151.61)"/><path class="cls-20" d="M285.67,292.82c3,5.6,1.92,6.44,1.92,6.44a7,7,0,0,0-3.65,1.59c4.44-.48,6,1.9,6,1.9a21.54,21.54,0,0,0-17,4.76,24.86,24.86,0,0,1,14.74-2.65c-5.55-.28-7.77,1.67-7.77,1.67a9,9,0,0,1,7.77.83c-6.5,4.28-8.88,11.41-13.16,15.22s-11.89,6.82-11.89,6.82c-2.06-1.27-8.56-3-8.56-3a30.73,30.73,0,0,1,7.13,3.8c1.27.79-1.27,2.22-1.27,2.22-6.34,4.12-10.3,5.23-10.94,3.31s-3.65-4.33-3.65-4.33c2.2,2.67,4.12,8.15,1.74,8.63-1.57.31-3.18-1.72-4.09-3.13a59.82,59.82,0,0,1,4.09,7.89c27.58-7.85,49.46-28.77,49.46-28.77C295.85,308.75,291.6,300.75,285.67,292.82Z" transform="translate(-88.59 -151.61)"/><path class="cls-20" d="M169.88,295.51s7.61-2.17,14.74,0Z" transform="translate(-88.59 -151.61)"/><path class="cls-3" d="M247.16,344.76a55.83,55.83,0,0,0-3.47-7s1.31,5-5.56,7c0,0-1.55.24-1.66-2.62s.36-3.69-1-7.37c0,0,.59,7.49-.83,10.7,0,0-3.21,2.14-4.76,2,0,0-9.16-3.21-11.41-4.76,0,0-6.38-.85-10.23-.12,0,0-5.21.72-6.71-1.48h0a1,1,0,0,0,.09.61c.79,1.74,3.8,1.9,6.5,1.59a93.72,93.72,0,0,1,10.15.13s6.66,4,11.41,5.42l7-1.74A89.55,89.55,0,0,0,247.16,344.76Z" transform="translate(-88.59 -151.61)"/><path class="cls-3" d="M208.94,337.09c-5.46.24-11.1.72-11.5-1.51h0v.67c.39,1.49,3.16,1.36,5.65,1.36h10.85l-2.11.59h0a37.69,37.69,0,0,1,5-.59S214.4,336.85,208.94,337.09Z" transform="translate(-88.59 -151.61)"/><path class="cls-3" d="M209.95,330.79a31.85,31.85,0,0,0-8.39.64c-3.3.58-4.33-1.12-4.4-1.25a1.64,1.64,0,0,0-.09,1.1c.43,1.63,6.1.57,7.53.09l5,.07,4.35.63h2A14.78,14.78,0,0,0,209.95,330.79Z" transform="translate(-88.59 -151.61)"/><path class="cls-3" d="M236.88,400.72l-19.82,5.8s-3.84,22.89-3.12,39.22-.09,22.47-.09,22.47,10.64-2.82,16.67,1.15c0,0,.77-15.85,3.71-26.63s7.86-39.63,7.86-39.63Z" transform="translate(-88.59 -151.61)"/><path class="cls-3" d="M216,326.75a7.59,7.59,0,0,0-2.79-5.11s-3.51-1.19-4.34-1.55c0,0-3.82,1.5-5.24-1.3a2.19,2.19,0,0,0,.31,1.08c1.11,2.06,4.76,1,4.76,1a23.43,23.43,0,0,0,3.88,1.27s2.44,2.38,1.42,4.44Z" transform="translate(-88.59 -151.61)"/><path class="cls-5" d="M243.67,396.12s1.9-7-1.59-16.8c0,0-2.38-4.76-1.35-14.11,0,0-7.45,8.25-43.72,14.74,0,0,24-2.54,23,6.66s-2.19,9.55-3,19.91a59.94,59.94,0,0,0,10.76-1.36s1.19-.3,2.94-.67a28.73,28.73,0,0,1,11.33-1.39A8.26,8.26,0,0,0,243.67,396.12Z" transform="translate(-88.59 -151.61)"/><path class="cls-5" d="M186.29,398s1.9-8.27,6.06-12.16c0,0-10.21,5.47-15,20.94l8.91,2.95S185.18,401.66,186.29,398Z" transform="translate(-88.59 -151.61)"/><path class="cls-3" d="M151.09,464.25c2.62-4.76,12.6-18.43,16.88-22,0,0,12.82-15.63,19.14-24.25h0l-.83-8.25-8.91-2.95a330.08,330.08,0,0,1-26.6,42.27S141.55,464,137.6,467l6.95,3.3A13.07,13.07,0,0,0,151.09,464.25Z" transform="translate(-88.59 -151.61)"/><path class="cls-3" d="M146.49,414.35c1.27-.63,1.11-3.33,1.27-12.37,0-2.51-.17-6.09-.51-10-.06-.74-4.65-1.49-4.72-2.25l-10.94,25.5,10.94-25.5c.75,3.8,2.7,2,2.54,10.15s.55,10.15.55,10.15.32,2.85-1.9,2.54-3.09-1.59-3.73-5.39.24-4.52-.87-8.88c0,0-.08,4-.55,7.53,0,0,.48,2.22.79,4.28s3.17,5.07,3.17,5.07,3.09,1.51,1.82,4.36c0,0-2.14,1.51-4.52-.79a6.67,6.67,0,0,1-7.21-2.77,7.84,7.84,0,0,1-1-.74c3.72,6,14.43,5.74,16.17,4.79S146.49,414.35,146.49,414.35Z" transform="translate(-88.59 -151.61)"/><path class="cls-3" d="M139.84,418.79a46.55,46.55,0,0,1-5.23-6.34,26.31,26.31,0,0,1-3-7.27A21.39,21.39,0,0,0,134,413a25,25,0,0,0,5,5.79Z" transform="translate(-88.59 -151.61)"/><path class="cls-3" d="M132.62,416a27.46,27.46,0,0,1-3.88-8.4,54,54,0,0,0,2.85,7.66Z" transform="translate(-88.59 -151.61)"/><path class="cls-5" d="M137.61,467c2,.78,2.43,4.84,1.12,5.79s-7,0-7,0c4.16,1.31,5.89,1.19,5.89,1.19,1.49,3.93-2.56,5.47-2.56,5.47-1.19,1.9-7.61,1.43-7.61,1.43a11.75,11.75,0,0,0,7.61,0s-2,6.78-8.84,8-13.75-2.14-13.75-2.14c3.57,3.33,10.58,3.8,12.72,3.8a3.19,3.19,0,0,1,2.85,1.2c-8.06,2.67-17-3-17.11-3.1,4.3,4.72,13.18,7.5,21.79,2.78,9.12-5,7.45-12,7.45-12s2.54-2.38,1.66-5c0,0-.32-1.35.87-1.43s1.74-1.43,1.86-2.7A68.58,68.58,0,0,0,137.61,467Z" transform="translate(-88.59 -151.61)"/><path class="cls-5" d="M232.34,483.16A7.8,7.8,0,0,0,231,476.9s1.35-.48.87-3.17a10.13,10.13,0,0,1-.16-3.88s-5.13-4.44-17.85-1.61c.1.16,3.35,5.46,3.94,8.74,0,0-3.92-.24-6.3,1,0,0,3.57.36,6.3,1,0,0,3.45,5.94,3.57,10.46,0,0-2,1.78-6.66,2.62,0,0,4.52.83,7.73-.83a20.4,20.4,0,0,1,1.26,7.51h0c6.49-3,11.37-7.42,10.63-13.1A3.32,3.32,0,0,0,232.34,483.16Z" transform="translate(-88.59 -151.61)"/><path class="cls-25" d="M214.94,581.72s-1.9-4.4-8.09-2.73a26.48,26.48,0,0,0,5.71-6.66,4,4,0,0,1,.59,3.21,17,17,0,0,0,8.22-6.65,22.8,22.8,0,0,1,.06,3s-6.28,2.62-5.32,7.26Z" transform="translate(-88.59 -151.61)"/><path class="cls-26" d="M213,590.17c2.85-3.57,11.18-2.56,9.51-9.78,0,0-.2-1.13-.44-2.73-1.74,1.58-6.42,5.91-7.45,7.52-1.27,2-7.77,4.51-7.77,4.51-12.68,2.54-14.58-2.06-14.58-2.06a9.4,9.4,0,0,0-7.56-4.43,10,10,0,0,1-1.56,1s-3.33,1-1.31,5c0,0,6.66,7.61,23.9,5A11.8,11.8,0,0,0,213,590.17Z" transform="translate(-88.59 -151.61)"/><path class="cls-15" d="M211.73,565.44a24.2,24.2,0,0,1-5.94,11.35,118.67,118.67,0,0,0-9,10.53s-5.23,1.68-5.94,2.51-2.77,2.91,0,4a37.83,37.83,0,0,0,15,.39,11.8,11.8,0,0,0,7.25-4c2.85-3.57,11.18-2.56,9.51-9.78a79.1,79.1,0,0,1-1.19-10.67c0-4,1.45-6.3-.58-7.49a8.42,8.42,0,0,1-6.31,2.5s5.23-4.28.24-5.35C214.7,559.37,216.72,562.58,211.73,565.44Z" transform="translate(-88.59 -151.61)"/><path class="cls-26" d="M131.35,566.15c5.83-5.11,6.46-4.64,4.72-9.75a30.81,30.81,0,0,0-3-6.35c-2.14,6.17-11.95,14.53-11.95,14.53a52.5,52.5,0,0,1-8.4,12.43c-8.32,6.46-15.41,3.65-15.41,3.65-4.1-4.42-7.81-3.59-7.81-3.59-1.7,2.27-1.44,4,3.65,6.8,6.78,3.69,20.81-1.07,23.07-5.71a49.18,49.18,0,0,1,5.77-8.8S125.53,571.26,131.35,566.15Z" transform="translate(-88.59 -151.61)"/><path class="cls-25" d="M119.82,565s-2.73-3.5-9.51-1.39c0,0,5-4.32,6.3-7.64a7,7,0,0,1,.12,3.45,36.18,36.18,0,0,0,11.3-8.2,4.79,4.79,0,0,1,0,2.73s-7.13,2.62-6,7.85Z" transform="translate(-88.59 -151.61)"/><path class="cls-15" d="M131.35,566.15c5.83-5.11,6.46-4.64,4.72-9.75a26.86,26.86,0,0,0-4-7.85,9.25,9.25,0,0,1-.59-3.21c0-1.78-1.07-1.68-1.07-1.68s1.78,7.51-5.71,7.15l-2-.11h0s2.24.13,1.76,3.74-1.07,6.34-2.44,8.54S113.84,580,108,583.2l.48.27c3.75-1.36,6.84-3.35,7.8-5.32a49.18,49.18,0,0,1,5.77-8.8S125.53,571.26,131.35,566.15Z" transform="translate(-88.59 -151.61)"/></g><g id="Laag_2" data-name="Laag 2"><path class="cls-2" d="M360.47,467.09v21s3.81,12.17,3.41,21.48c0,0,4.77,45.69,9.89,67.51l-6.65,6.14-15.86-7.5s-16.71-39.21-10.57-63.08c0,0-11.59-20.8-14-43.3Z" transform="translate(-88.59 -151.61)"/><path class="cls-21" d="M296.9,470.15a85.39,85.39,0,0,1-45-3.58s2.18-11,3.71-27.88c0,0-1.53-10.23,1-12.53,0,0,1-2.3.26-9.72S260.48,397,260.48,397s1.28-9,2.3-12.05v-4.82l10-9.3L292.45,372l54.22,4.35,9.29,7.48s1.45,7.35,3.5,13.74c0,0,3.07,21.48,2,40.92,0,0,0,18.16-1,28.64a155.48,155.48,0,0,1-44.69,2.3s-1.64-16.62-3-22.25c0,0-2.15-10.23-4.2-23.78,0,0-3.32,15.6-6.65,25.32A138.69,138.69,0,0,0,296.9,470.15Z" transform="translate(-88.59 -151.61)"/><path class="cls-27" d="M295,220.94a142.77,142.77,0,0,0-32.22,12.4s-15.69,2.73-9.38,30.52c0,0-2,15.69,0,25.4,0,0,1.36-9.89,16.2-9.55s13.3,9.55,13.3,9.55L268.07,321s.68,9.72,2.73,14c0,0,2.22,0-.85,3.75s1.36,7.67-3.58,16.88c0,0-2.39,3.92-1.36,11.93,0,0,1.36,1.88-.51,5.8a15.31,15.31,0,0,0-1.7,6.82l12.1,1a8.3,8.3,0,0,0,6.48-2.73c2.73-3.07,5.46-1,7.33,1.71s13.47,6,54,4.43a10.19,10.19,0,0,0,4.77-1.36c2.22-1.36,3.58.85,7,.68s4.26-.68,4.26-.68a15.6,15.6,0,0,0-2.56-6.31c-2-2.73-.34-15.17-.34-15.17s-1.19-16.54-6.82-30.52,4.43-27.45,4.43-27.45l18.58-10.4a32.79,32.79,0,0,0-1.88-12.62,19.82,19.82,0,0,1-.85-11.59s1-21.9-11.42-28.08S336.27,229.4,328.17,225" transform="translate(-88.59 -151.61)"/><path class="cls-12" d="M319.42,157.77s.64-10,23.15-2.43c0,0-4.35-.13-7,1.15,0,0,11.12,2.56,15.6,17.39a4.82,4.82,0,0,0-3.32-1.53s5.24,8.18,1.53,19.56a12.11,12.11,0,0,0-2.17-5.5s-4.36,9.45-9.91,15.39l-34.88,1.09s-1.66-11.05-3.42-14.81l-2.14-1.39s-1.44-6.79,1.63-11.65A6.61,6.61,0,0,0,295,178s1.92-13.3,7.16-16a4.81,4.81,0,0,0-4.22-.77s10.23-9.59,19.56-3.45c0,0,1.41-3.6-1.79-5.25C315.72,152.52,320.44,151.51,319.42,157.77Z" transform="translate(-88.59 -151.61)"/><path class="cls-28" d="M305.77,236.85s-17.07-7.72-28.33-2.54-15,6.76-15,6.76,1,13.42-2.22,23.31a107.72,107.72,0,0,0,.86,16.54,12.39,12.39,0,0,0-7.68,8.35s-2-7.16,0-25.4c0,0-7.16-25.57,9.38-30.52,0,0,20.63-10.31,32.22-12.4C295,220.94,296.42,228.76,305.77,236.85Z" transform="translate(-88.59 -151.61)"/><path class="cls-29" d="M296.52,225.31s-20.69,7.12-27.09,11.54h-4.86L267,232.7s8.19-5.43,28.2-11Z" transform="translate(-88.59 -151.61)"/><circle class="cls-18" cx="266.75" cy="445.36" r="1.18"/><circle class="cls-18" cx="271.99" cy="448.35" r="1.35"/><circle class="cls-18" cx="284.14" cy="458.26" r="1.35"/><circle class="cls-18" cx="289.38" cy="461.33" r="1.35"/><circle class="cls-18" cx="295.97" cy="462.99" r="1.35"/><circle class="cls-18" cx="302.68" cy="462.99" r="1.35"/><path class="cls-2" d="M295,220.94s5.8,19.78,22.85,20.12,10.23-15.34,10.23-15.34a58.32,58.32,0,0,1,1.35-7.33s5.73-3.84,8.16-9c0,0,3.71-6.39,4-12.4s7.67-22.76-5.63-23.78c0,0-8.44-7-15.73-7.29,0,0-4.35,15.73-14.19,21.61,0,0-1.66-7.42-6.52-6.27s-2.81,19.69,3.32,16.37C302.8,197.67,302.29,216.72,295,220.94Z" transform="translate(-88.59 -151.61)"/><path class="cls-3" d="M329.43,218.38s-6.55,4.35-18.82.9a12.07,12.07,0,0,0,5.11,5.37,9.91,9.91,0,0,1-6.78,1.92s-2.12,2.53-3.17,10.28c0,0-8.46-6.19-10.77-15.91,0,0,6.9-3.32,7.8-23.27,0,0-5.39,3.43-6-11,0,0,0-4.62,2.65-5.38s5.24,1,6.52,6.27c0,0,.26,17.13,6.9,24.81A23.12,23.12,0,0,0,329.43,218.38Z" transform="translate(-88.59 -151.61)"/><path class="cls-28" d="M278.82,261.45s10.13,29,40.61,45.09L295,313.25,274.38,303l8.35-20.17Z" transform="translate(-88.59 -151.61)"/><path class="cls-7" d="M303.06,192.68a3.54,3.54,0,0,1,0-4.86s-.26-5.24-2.94-4.35c0,0-1.79.15-1.79,4.55,0,0,.57-2.77,2.37-2.89,0,0,.8-.5,1.09,2.3C301.78,187.44,298.58,191,303.06,192.68Z" transform="translate(-88.59 -151.61)"/><path class="cls-21" d="M328.08,225.71s14.32,8.06,26.08,14.36l2.13,2.47-3.67.34-23.5-13.63Z" transform="translate(-88.59 -151.61)"/><path class="cls-12" d="M325.69,188s-2.69-8.13-10-2.76C315.72,185.27,321.09,182.48,325.69,188Z" transform="translate(-88.59 -151.61)"/><path class="cls-12" d="M333.62,190.76s5.3-5.71,7.29,1.92C340.91,192.68,338.86,187.57,333.62,190.76Z" transform="translate(-88.59 -151.61)"/><circle class="cls-12" cx="232.11" cy="34.12" r="1.28"/><circle class="cls-12" cx="248.03" cy="39.09" r="1.28"/><path class="cls-7" d="M325.94,195.83s-2.26-.34-2.94,2.6C323,198.43,322,194,325.94,195.83Z" transform="translate(-88.59 -151.61)"/><path class="cls-7" d="M324.41,199.27s.9-2.92,3.32-1.3c0,0,.91,1.88-2.55,1.3Z" transform="translate(-88.59 -151.61)"/><path class="cls-12" d="M315.72,179.9a7.39,7.39,0,0,1,8.69-.77c5.2,2.73,2.81,4.3,2.81,4.3S322.28,177.43,315.72,179.9Z" transform="translate(-88.59 -151.61)"/><path class="cls-12" d="M343.06,186.69s.75-4.41-7.71-2.24c0,0-.58.19-.77,1.58C334.58,186,339.74,183.38,343.06,186.69Z" transform="translate(-88.59 -151.61)"/><path class="cls-7" d="M331.32,194s2,6.86-1.89,7.16C329.43,201.12,332.13,199.38,331.32,194Z" transform="translate(-88.59 -151.61)"/><path class="cls-2" d="M254.57,467.49s-1.77,11-2.66,20.91c0,0-2.94,10.57-2.94,19.44,0,0-2,31-6.82,66.49l4.77,8.87,17-6.82s13-38.53,8.87-65.13c0,0,9.89-12.72,16-41Z" transform="translate(-88.59 -151.61)"/><path class="cls-3" d="M254.57,467.49s-1.77,11-2.66,20.91c0,0-2.94,10.57-2.94,19.44,0,0-2,31-6.82,66.49l4.77,8.87,2.3-7.67,6-62.68,4.83.28,6.27-2c-3.62,1.19-10.14-4.13-10.14-4.13,3.15-5.29,7.38-24.85,6.56-30.14,0,0,10.4-2.73,26.08-6.53Z" transform="translate(-88.59 -151.61)"/><path class="cls-7" d="M332.21,201.44a4.46,4.46,0,0,0-.09-3S334.09,199.38,332.21,201.44Z" transform="translate(-88.59 -151.61)"/><path class="cls-29" d="M270.68,401l2.59-10.09s11.51,4.86,28.9,1.28c0,0-19.44-1-28.13-7.17,0,0,20.51.48,41.3-.06L295,380.14,281.45,372,273,377.58l-10.23,2.56V385c-1,3-2.3,12.05-2.3,12.05s-4.35,12-3.58,19.44-.26,9.72-.26,9.72c-2.56,2.3-1,12.53-1,12.53-1.53,16.88-3.71,27.88-3.71,27.88a85.39,85.39,0,0,0,45,3.58s-19.28-.77-29.77-8.69c0,0-3.32-11.76,3.07-19.44,0,0-7.42-2.81-7.42-6.39a31.8,31.8,0,0,0,15.34,5.11s-14.58-7.67-9.72-30.94Z" transform="translate(-88.59 -151.61)"/><path class="cls-7" d="M331.53,199.38s1,1.75-1.49,1.74Z" transform="translate(-88.59 -151.61)"/><path class="cls-11" d="M317.85,201.85s.46,5.38,7.66,7a8,8,0,0,0,6.62-1.58l-3.37-.72-3.54-1.28-4-1.11-2.22-.68Z" transform="translate(-88.59 -151.61)"/><path class="cls-28" d="M323.39,385c-25.83-2.33-34-13-34-13-7.16-8.69-15-9.21-15-9.21,7.5-3.58,16,1.53,16,1.53,12.28,7.93,19.44,7.67,19.44,7.67a25.73,25.73,0,0,1-13.32-10c28.36,10.67,49-30.5,49-30.5l-13.32-7.73-23.85-5.2-21.23-.31-19,2.73s.9,10.55,2.73,14c0,0,2.22.11-.85,3.75,0,0-1.66.9-1.09,6.4s-2.49,10.48-2.49,10.48-2.41,4-1.36,11.93c0,0,1.13,2.24-.51,5.8s-1.47,3.84-1.68,6l0,.82,12.1,1s4.35.3,6.48-2.73c0,0,3.07-3.72,7.33,1.71S323.39,385,323.39,385Z" transform="translate(-88.59 -151.61)"/><path class="cls-10" d="M332.13,207.3a7.82,7.82,0,0,1-3-1.36,20.79,20.79,0,0,0-8.48-2.43,3.66,3.66,0,0,1-2.77-1.67,3.4,3.4,0,0,0,2.64,2.73,36.19,36.19,0,0,1,8.06,2.39A4.3,4.3,0,0,0,332.13,207.3Z" transform="translate(-88.59 -151.61)"/><path class="cls-16" d="M372.07,293.36s-1.53-7.16-14.32-6c0,0-9,.17-12.28,4.26v.85s-.51,7,3.58,16.71l-51.83,2.73-34.8-3.77s-.75,2.86,1.73,3.77c0,0-3.58.68-3.75,3.41,0,0-.34,1.7,1,1.88,0,0-2.22,1-2.22,2.73,0,0,.48,2.92,7.84,2a74.83,74.83,0,0,1,17,1.63,73.68,73.68,0,0,0,19,1.1l4.78,1.34a68.48,68.48,0,0,1,12.44,2.5c5.29,1.78,21.14,4,37,2.29,0,0,7.16.85,8.35-5.63s6.52-17.53,6.52-17.53A89.91,89.91,0,0,0,372.07,293.36Z" transform="translate(-88.59 -151.61)"/><path class="cls-30" d="M372.07,293.36s-1.53-7.16-14.32-6c0,0-9,.17-12.28,4.26A42.64,42.64,0,0,0,349,309.21l23.06-1.51A89.91,89.91,0,0,0,372.07,293.36Z" transform="translate(-88.59 -151.61)"/><path class="cls-31" d="M350.81,288.5a37.37,37.37,0,0,0,1.65,16.25l-4.6.46a37.53,37.53,0,0,1-2.39-13.55A8,8,0,0,1,350.81,288.5Z" transform="translate(-88.59 -151.61)"/><path class="cls-2" d="M253.41,289.26s.72-8.55,13.32-9.48,16.69-.07,17.88,8.45a26.4,26.4,0,0,1,0,9s9.21.17,25.06,7c0,0,6.48,3.41,21.65,2.39,0,0,9.46-.34,16.54-1.45a25.83,25.83,0,0,1,8.52-5.71,31.13,31.13,0,0,0,5.29-3.41c1.79-1.62,2.73-.17,6.39-1.88a1.31,1.31,0,0,1,2,.26c.79,1.28.62,3.83-4.32,5.71A5.88,5.88,0,0,0,363.2,303l-.43,1.06a37.24,37.24,0,0,0,7.08,2s4.6,3.32,6,4.43a2.9,2.9,0,0,1,1.28,2.73,2.55,2.55,0,0,1-2.47,2.47s1,.51.51,2.81-2,2-2,2,.94,1.19.68,2.13a2.85,2.85,0,0,1-2.39,2.47,1.82,1.82,0,0,1,.73,2.3c-.56,1.62-4.22,1.19-6.35.51,0,0-9,.51-14.66-3.32s-12.53-1.45-17-.77-40.8,5.38-52.21-1.28c0,0-11.51.38-14.19-8.82C267.64,313.77,256.43,304.4,253.41,289.26Z" transform="translate(-88.59 -151.61)"/><ellipse class="cls-21" cx="243.56" cy="108.44" rx="6.92" ry="7.76"/><path class="cls-28" d="M268.24,240.33s12.51,6.18,12.31,27.47A35.31,35.31,0,0,1,284.19,286l-1.46-3.26s-2.73-21-19.78-25.91A25.76,25.76,0,0,1,276.42,264s-3.92-11.42-15.86-13.64c0,0,7.31-.85,13.64,7.5,0,0-3.58-10.91-13.64-14.15,0,0,1.87-.88,9.89,4.6,0,0-6-9.36-9.89-11.5a31,31,0,0,1,13.81,14.57S274.72,247.32,268.24,240.33Z" transform="translate(-88.59 -151.61)"/><path class="cls-28" d="M274.38,270.24a58.74,58.74,0,0,1-17-10.2A24,24,0,0,0,274.38,270.24Z" transform="translate(-88.59 -151.61)"/><path class="cls-28" d="M268.41,271.87s-9.89-2.56-13.47-5.46C254.94,266.42,255.11,273.43,268.41,271.87Z" transform="translate(-88.59 -151.61)"/><path class="cls-28" d="M345.47,291.65A21,21,0,0,1,347,284c1.7-4.6,7-25.91,0-41.09,0,0,4.76,22-1.54,40.75C345.46,283.64,344.45,286.54,345.47,291.65Z" transform="translate(-88.59 -151.61)"/><path class="cls-28" d="M350.34,266.42s4.51-1.7,8.26-7.84c0,0-2.25,4.48-8.37,9.23,0,0-1.4,11.91.58,20.69a9.68,9.68,0,0,0-5.34,3.16v-4l1.58-7.54,1.81-8,.45-5.46Z" transform="translate(-88.59 -151.61)"/><path class="cls-28" d="M349.27,274.92s9.84-5.56,16.15-7.12c0,0-7.73,3.86-16.56,9.25" transform="translate(-88.59 -151.61)"/><path class="cls-28" d="M352.46,279.5s9.21-1.05,15.69-7.06C368.14,272.43,363.88,280.13,352.46,279.5Z" transform="translate(-88.59 -151.61)"/><path class="cls-28" d="M328.08,294.15s-11.37-2.9-22.31,0A25.93,25.93,0,0,1,328.08,294.15Z" transform="translate(-88.59 -151.61)"/><path class="cls-3" d="M367.25,327.58c-1.53-.38-2.69-.64-2.69-.64a23.39,23.39,0,0,1-11-3.2c-6.14-5.11-8.55-4.48-8.55-4.48-9.07,1.92-21.49,0-21.49,0-19.56-3.25-31.33-1.79-35-1.15a10.76,10.76,0,0,1-6.9-1.41c-3.07-4-8.18-7.93-10.23-9.59a10.64,10.64,0,0,1-2.94-4.17c-2-8.64-7.32-22-7.32-22-7.19,2.57-7.68,8.35-7.68,8.35,3,15.13,14.24,24.51,14.24,24.51,2.69,9.21,14.19,8.82,14.19,8.82,11.41,6.66,47.69,2,52.21,1.28s11.34-3.07,17,.77S365.76,328,365.76,328c2.13.68,5.8,1.11,6.35-.51C370.71,328.35,368.78,328,367.25,327.58Z" transform="translate(-88.59 -151.61)"/><circle class="cls-18" cx="172.58" cy="446.54" r="1.18"/><circle class="cls-18" cx="167.02" cy="450.69" r="1.35"/><circle class="cls-18" cx="155.69" cy="463.47" r="1.35"/><circle class="cls-18" cx="150.29" cy="465.6" r="1.35"/><circle class="cls-18" cx="233.41" cy="617.99" r="1.35" transform="translate(-426.98 135.57) rotate(-39.26)"/><circle class="cls-18" cx="138.64" cy="465.6" r="1.35"/><path class="cls-3" d="M362.77,304a2.16,2.16,0,0,1-.51-3.41s1.28-1.28,2.17-2.3c0,0,4.16.11,6-2.82,0,0,.88,2.87-4.66,4.7C365.76,300.18,363.16,301.67,362.77,304Z" transform="translate(-88.59 -151.61)"/><path class="cls-3" d="M369.55,310.83s1.67,0,2.82,2.43a10.27,10.27,0,0,0,2.26,2.43l1.36-.45a17.14,17.14,0,0,1-2.22-2S371.73,310.58,369.55,310.83Z" transform="translate(-88.59 -151.61)"/><path class="cls-3" d="M373.09,320.55s-.92-1.09-2.32-2.43a5.8,5.8,0,0,0-3-1.53,4.73,4.73,0,0,1,3.39.83,30.94,30.94,0,0,1,2.92,2.89Z" transform="translate(-88.59 -151.61)"/><path class="cls-3" d="M355.93,468s-9.39,7.21-18.64,8.51c0,0,2.27,23.53,9.32,35.12,0,0-1.7,32.39,9.32,62.4l-4.66,1.7s-14.66-31-10.57-63.08c0,0-13.3-28.3-14-43.3Z" transform="translate(-88.59 -151.61)"/><path class="cls-1" d="M351.27,575.69s-2.81,12.1,1.53,20a27.09,27.09,0,0,0,7.93,4.35,15,15,0,0,1,6.65,5.88s7.67,10.74,26.08,9,7.67-14.58,3.32-15.34c0,0-11.76-10.06-17.13-13l-5.88-9.55Z" transform="translate(-88.59 -151.61)"/><path class="cls-3" d="M371.38,325.15a27.24,27.24,0,0,1-4.33-2.81s2.31,0,5.05,2.61Z" transform="translate(-88.59 -151.61)"/><path class="cls-28" d="M329.43,374s11.61-.77,17.24-6.9C346.66,367.09,344.16,377.07,329.43,374Z" transform="translate(-88.59 -151.61)"/><path class="cls-29" d="M355.93,468s-20.26-7.77-27.42-16.46c0,0,8.75.51,13.71-1.79,0,0-9.87-1-15.5-4.6A31.31,31.31,0,0,1,330,433.33s-7.16-6.27-9.72-12.08a47.36,47.36,0,0,1-5-10.42,31.39,31.39,0,0,1-6.78,12.53s2.9,16.28,4.2,23.78c0,0,2.07,15.09,3,22.25C315.78,469.39,336.81,472.14,355.93,468Z" transform="translate(-88.59 -151.61)"/><path class="cls-27" d="M365.66,525.14c-7.43,9.8-26.32,0-26.32,0,.35,21.06,11.92,50.55,11.92,50.55s2.3,11.25,7.25,10.91a24.18,24.18,0,0,1,4.58-4,39.82,39.82,0,0,1,10.68-5.54C369.34,556.93,365.66,525.14,365.66,525.14Z" transform="translate(-88.59 -151.61)"/><path class="cls-28" d="M251.91,534.86s8.83,2.56,16.75-1.79c0,0-4.36,5.37-16.75,4.35" transform="translate(-88.59 -151.61)"/><path class="cls-28" d="M346.15,533.07a29.43,29.43,0,0,0,16.88,0s-2.3,3.45-16.88,2.24" transform="translate(-88.59 -151.61)"/><path class="cls-21" d="M366.87,603.26s5.63-4.66,8.18-6.29l2.93,2.2s-7.15,4-9.06,7.29Z" transform="translate(-88.59 -151.61)"/><path class="cls-21" d="M363.09,600s3.64-3.27,7.93-6.41l2.43,1.85s-5.56,4.61-8,7C365.46,602.43,364.56,601.37,363.09,600Z" transform="translate(-88.59 -151.61)"/><path class="cls-21" d="M359.24,597s5.52-5.47,7.12-6.62l2.69,2.11s-5.25,4.09-7.1,6.59Z" transform="translate(-88.59 -151.61)"/><path class="cls-1" d="M260.43,583.35a26,26,0,0,1,2.86,13s-.64,1.64-5.75,4.84-8.72,10.51-8.72,10.51-9,10.18-25.33,4.69c0,0-7.6-4.09,1.45-12.57s13-14.06,15.92-23.21" transform="translate(-88.59 -151.61)"/><path class="cls-27" d="M247.59,525.14c-1.23,15.2-5.44,49.19-5.44,49.19l2.6,5.87-3.89-.59-.9,3.58a17,17,0,0,1,6.81,1.56l2.63,1.37a20.19,20.19,0,0,1,4.33,3.37,13.84,13.84,0,0,0,1.89,1.88,12.78,12.78,0,0,0,4.62-8.09l.36-.09,3.38-6.82c7.84-22.16,9.62-51,9.62-51C254.92,534.66,247.59,525.14,247.59,525.14Z" transform="translate(-88.59 -151.61)"/><path class="cls-18" d="M350.54,580.56a14.06,14.06,0,0,0,3.15,6.59,14.72,14.72,0,0,1,3.26,6.39,27.28,27.28,0,0,0,5.5,6c2.81,2,4,3,4.9,4.47a22,22,0,0,0,8,7.19c4.8,2.68,27.2,5.86,28.17-4.75,0,0,3,7.22-10.08,8.44,0,0-15.86,2.11-25.67-8.44,0,0-2.75-4.31-5.61-5.64a50.36,50.36,0,0,1-9.38-5.1S349.63,590.91,350.54,580.56Z" transform="translate(-88.59 -151.61)"/><path class="cls-15" d="M351.27,575.69s-2.81,12.1,1.53,20a27.09,27.09,0,0,0,7.93,4.35,15,15,0,0,1,6.65,5.88s7.67,10.74,26.08,9S363.09,600,361.94,585.36c0,0,0-1.53,3.69-4.5l-7.84,4.75Z" transform="translate(-88.59 -151.61)"/><path class="cls-28" d="M356.56,579.48a2.44,2.44,0,0,0,1.87-1.41c-2.3-.51-2.5-4.09-2.5-4.09-6.06-16.51-8.28-33.74-9-45.9l-6.9-2.64c-1.25,19.89,11.28,50.24,11.28,50.24,3.45,13.09,7.25,10.91,7.25,10.91a29.38,29.38,0,0,1,7.66-6C358.57,584.07,356.56,579.48,356.56,579.48Z" transform="translate(-88.59 -151.61)"/><path class="cls-28" d="M247.43,581.66c3.45-17.44,6.3-52.89,6.3-52.89s-3.48-1.84-6.14-3.63c0,0-3.05,37.42-7.63,58.05l6.81,1.56a22.76,22.76,0,0,1,4.48,2.61A17,17,0,0,0,247.43,581.66Z" transform="translate(-88.59 -151.61)"/><path class="cls-18" d="M261.83,586.61s.05,1.19-1.54,3.74-2.76,3-3.51,7.47a21.36,21.36,0,0,1-3,4.62s-4.75,6.4-6,8.78-12.85,9-26.46,3a7.32,7.32,0,0,0,2.17,2.1s14.13,5.92,25.33-4.69c0,0,3.87-7.78,8.72-10.51,0,0,4.47-2.59,5.75-4.84A28.56,28.56,0,0,0,261.83,586.61Z" transform="translate(-88.59 -151.61)"/><path class="cls-15" d="M251.25,587.36a7.78,7.78,0,0,0-9.34,3c-3.68,5.37-11.1,11.76-14.42,16.11s-3.58,7.69,0,11c0,0-12.28-1.11-4.35-11.81,0,0,13.68-11.72,16.82-22.46C240,583.19,246.88,583.34,251.25,587.36Z" transform="translate(-88.59 -151.61)"/><path class="cls-21" d="M253.73,602.43s-1.18-5.06-5.78-7l-1.66,2.44s3.69,2,5.32,7.53Z" transform="translate(-88.59 -151.61)"/><path class="cls-21" d="M250.61,606.79s-1.81-5.77-5-7.52l-1.7,2.34a17.84,17.84,0,0,1,5,7.81Z" transform="translate(-88.59 -151.61)"/><path class="cls-21" d="M247.78,611.21s-1.88-5.73-4.77-8.78l-2.22,2.93a19.76,19.76,0,0,1,4.73,7.88Z" transform="translate(-88.59 -151.61)"/><path class="cls-21" d="M291.25,248.91s9.63,1.07,13.17,1.56l-.55,4.41-7.5,12.56-5.11-.62L300,253.28l-9.21-.7Z" transform="translate(-88.59 -151.61)"/></g></svg>