<svg id="Laag_27" data-name="Laag 27" xmlns="http://www.w3.org/2000/svg" viewBox="0 0 641.94 556.2"><defs><style>.cls-1{fill:#efc2af;}.cls-2{fill:#d1a698;}.cls-3{fill:#ededed;}.cls-4{fill:#d7d7d7;}.cls-5{fill:#a0a09f;}.cls-6{fill:#888989;}.cls-7{fill:#afafaf;}.cls-8{fill:#d3d3d3;}.cls-9{fill:#5d2425;}.cls-10{fill:#7b6445;}.cls-11{fill:#fff;}.cls-12{fill:#72362a;}.cls-13{fill:#cf8d7a;}.cls-14{fill:#dda095;}.cls-15{fill:#bdd145;}.cls-16{fill:#d14f20;}.cls-17{fill:#444;}.cls-18{fill:#d8d6d6;opacity:0.6;}.cls-19{fill:#aa3f1d;}.cls-20{fill:#441b1d;}</style></defs><title>tennisser</title><path class="cls-1" d="M280.78,393.24s4.11,10.36,5,15.17-2.75,34.12,7.56,60l3.43,9.85s14.88,0,22.44-5a55.92,55.92,0,0,1,0-11.68c.69-6.18,2.52-15.76-6.41-38.33a64.94,64.94,0,0,1,0-10.67c.46-6.64,1.37-19.29,1.37-19.29L307.1,385l-21.75,1.83Z"/><path class="cls-2" d="M295.4,454.89c3.3,5.42,7.06,16.4,9.1,22.81,4.79-.6,10.77-1.85,14.74-4.5a55.92,55.92,0,0,1,0-11.68c.69-6.18,2.52-15.76-6.41-38.33a64.94,64.94,0,0,1,0-10.67c.46-6.64,1.37-19.29,1.37-19.29L307.1,385l-18,1.51.69,7.63s2.16,8.49,2.47,13.07-4.27,11.6,0,13.13.33,2.75,0,4.58S290.56,447,295.4,454.89Z"/><path class="cls-3" d="M302.52,506.18v0C302.29,506.2,302.52,506.18,302.52,506.18Z"/><path class="cls-3" d="M326.34,516.72s-6.18-36.29-5.84-40.3-1.36-4.2-1.36-4.2c.09,1.29-.32,1.26-.32,1.26-8,4.39-18.37,4.62-20.5,4.73s-1.87-.95-1.87-.95c-2.25,1.15-.65,3.27,2.4,12a74,74,0,0,1,3.66,16.93c.32,0,1.55-.21,5.61-.67,3.74-.43,5.24,1.48,5.83,3.34l-4.27.4,1.17,9.62L328,522.67Z"/><path class="cls-4" d="M302.52,506.18v0C302.29,506.2,302.52,506.18,302.52,506.18Z"/><path class="cls-4" d="M326.34,516.72s-6.18-36.29-5.84-40.3-1.36-4.2-1.36-4.2c.09,1.29-.32,1.26-.32,1.26a41.26,41.26,0,0,1-14.32,4.24c-.86.11,0,.25,1.53,5,4,12.06,6.72,35.72,6.72,35.72L328,522.67Z"/><path class="cls-5" d="M278.25,544.35s-3.19-7.48,2.53-10.84,15.06-8.7,19.55-15.11c0,0-2.38-10.69,2.2-12.21s12.14-2.67,11.79,5.84a9.31,9.31,0,0,1-.8,3.78s1.57-5.69,6.36-3.53,1.73,4.29,6.47,4.45l-.64-3.81a5.88,5.88,0,0,1,4.46,2.74c1.53,2.6,2.29,20.3,1.83,25.49,0,0,.15,2.75-13.74,3.21S282.22,548.32,278.25,544.35Z"/><path class="cls-6" d="M332,541.14c.46-5.19-.31-22.9-1.83-25.49a5.88,5.88,0,0,0-4.46-2.74l.64,3.81c-3.94-.13-2.5-1.63-4.67-3.38,0,.1.17,1.49-1.8,0s-3,.15-5,2.9-4.43,5.8-5.5,5.8-2.29,2.75-4.65,7.94-8.78,6.72-13.21,6.87-4.58,1.22-5.34,4.73-7.94,2.75-7.94,2.75c4,4,26.1.46,40,0S332,541.14,332,541.14Z"/><path class="cls-7" d="M364,502.86s2-.71,3.37,5.26,4,7.11,5.15,13.64.07,7.33-4.26,9.73-7.65,0-7,2.4,2.63,5.15-3.89,9.27-21.87,4.81-28.28,4.35-4.69-12.48,0-17.29,9.5-18.55,9.5-18.55l.92-2.86.11-4.92.69-10.76,18.77,4.31Z"/><path class="cls-6" d="M361.26,533.89c-.69-2.4,2.63,0,7-2.4s5.4-3.21,4.26-9.73-3.78-7.67-5.15-13.64-3.37-5.26-3.37-5.26l-1.72-1.91-2.35,1.23a36.27,36.27,0,0,0-4.74-2.23c-2.11-.74-2.82,1.08-3.5,1.08s-1.83,5.38-1,7.44.93,7.9,0,11.33,2.53,4.81,5.49,5.38,3.34,6.41.94,4.92-6.76-.8-5.27-.61,4.47,1.53,4.33,3.82-10.86,8.82-14.29,7.79-7,1.49-8.82,3.09a27.08,27.08,0,0,1-5,3.11,4.44,4.44,0,0,0,1.07.21c6.41.46,21.75-.23,28.28-4.35S361.94,536.3,361.26,533.89Z"/><path class="cls-3" d="M337.33,466.34s-1.53,1.37,0,4.58,4.27,16.49,2.29,33c0,0-.15-6,4-5.34a62.7,62.7,0,0,0,8.09.61s5.65-.61,4.58,4.73l.13,2.6s1.7-.61,5.67,1.07,2-.76,2-2.75a332.86,332.86,0,0,0-4.33-37.1s.66-3.51-2.39-3.36S337.33,466.34,337.33,466.34Z"/><path class="cls-4" d="M359.72,467.71s.66-3.51-2.39-3.36c-.45,0-1.21.08-2.17.17L347.63,470a3,3,0,0,1,.69,2.22c-.14,1.2,2.19,10.52,2.79,26.93h.57s5.65-.61,4.58,4.73l.13,2.6s1.7-.61,5.67,1.07,2-.76,2-2.75A332.86,332.86,0,0,0,359.72,467.71Z"/><path class="cls-1" d="M308.32,378.71s-1.68,17.1,3.59,22.14,6,9.62,10.53,18.32-.23,15.57,14.88,47.17c0,0,2.29,4.35,10.3,3.66s10.76-3,11-4.35,5.72-36-10.3-54.73c0,0-7.1-3-6.87-18.55a52.32,52.32,0,0,1,2.06-11.22S325.57,372.15,308.32,378.71Z"/><path class="cls-2" d="M358.62,465.65c.23-1.37,5.72-36-10.3-54.73,0,0-7.1-3-6.87-18.55a52.32,52.32,0,0,1,2.06-11.22,50.26,50.26,0,0,0-9.7-3.35l-15.76,4.95s-2.36,10.47,1.81,13.82,10.55,15.57,12.25,20.76,1.7,14,6,23.2S347.63,470,347.63,470C355.65,469.32,358.4,467,358.62,465.65Z"/><path class="cls-3" d="M364.2,302.69l-7.4-8.78-73.48-1.41-7.8,10.18s.88,11.08,1.6,20.58l-5.85-.51,1.26,21.07,3.12,48.55c19.15,3.66,33.14,1.31,33.14,1.31a106.51,106.51,0,0,1-.46-15c18.62,9.92,30.84,4,35,4.43S355.34,385,355.34,385c.92-11.45,5.34-18.32,5.34-18.32C367.1,348.94,364.2,302.69,364.2,302.69Z"/><path class="cls-1" d="M380.07,207.73s1.68,19.08,2.14,26.41,3.43,10.76,3.89,49.23l-8.93,3.21-9.16-3a38.72,38.72,0,0,0-.61-9.31c-.94-4.21-23-46.33-23-46.33l-1.37-20.23Z"/><path class="cls-1" d="M278.93,215.14s-.91,13.28-5.26,22.44-4.12,22.9-4.12,32.52a165.26,165.26,0,0,1-1.14,18.55l15.52-1.18,1-9.66,6.11-2,14.2-35.8L297,206.89Z"/><path class="cls-8" d="M343.28,383.14c4.12.46,12.06,1.83,12.06,1.83a49.48,49.48,0,0,1,1.3-8c-3.41,0-9.05-.62-19.32-.64-14.2,0-8.7.72-5.86,2.4s0,5.75,0,5.75h0C337.24,384.25,341.25,382.91,343.28,383.14Z"/><path class="cls-8" d="M364.2,302.69l-4.61-5.46-7.61,1a3.38,3.38,0,0,1-1.37,4.43c-2.75,1.91,2.06,7,3.66,4s4.35-.4,2.52,7.61-4.35-3-9.16,0,6.18,3.66,3,8.47-1.6,6.18,2.06,3.89,6,2.29-1.14,5.8-5,4-.46,3.15,2.29,2.5.46,4.79-13.05,2.52-13,6.58,3.13-1.32,11.37-3.51,4.58,2,4.58,2c-4.58,8.93-18.09,8.24-15.95,11.45s2.67,1.6,0,6.64,7.25-5,13.89-7.79-7.79,11-11.68,14,5.27,4.52,10.53,0,4.35-1.43,3.43,2.23c-.39,1.57,1,2.42,2.46,3a35.39,35.39,0,0,1,3.5-8.32C367.1,348.94,364.2,302.69,364.2,302.69Z"/><path class="cls-8" d="M318.3,313c.95-.31,1.57-.47,1.57-.47A2.19,2.19,0,0,0,318.3,313Z"/><path class="cls-8" d="M318.3,313c-2.22.73-6.28,2.34-8.68,4.91-3.43,3.66-8.24-4.58-14.88,1.37s1.14,5,1.6,3.43,2.06.92,0,5.27-6.63,12.35-7.21,7.55-1.19-14.42.95-16.25c0,0-2.9,1.83-2.9,0s-2.84-18.51-3.05-25.19l-1.73-.44-5.71,7.45-.75,6.87c.32,4.09.77,9.92,1.18,15.25l-1.09-.1L274.28,367l4.43,24a72.12,72.12,0,0,1,8.85-.76c3.82,0,8.76.46,8.73,0a3.22,3.22,0,0,0-3.39-2.9c-2.75.15-5.16,1.83-5.4-1.37s1.83-5.76,1.63-9.37a64.47,64.47,0,0,1,0-6.76s-.11-9.45,0-14.94,1.71-13.82,3.77-16.07,6.59-7.29,7.42-12.33,3.11,6.63,1.74,9.15-2.57,10.77-1.74,26.57c0,0-2.39,9.37,4.18,4.58s.08,1.83,1.91,1.83,1.91,10.15,1.91,10.15,2-15.19,3.59-20-.69-12.83,0-23.13,4.32-6.86,5.48-7.78-9.37-2.52-7.54-5C311.35,320.7,315.55,314.79,318.3,313Z"/><path class="cls-2" d="M294.43,225.75l-1.07-10.23-6.09,1.5s2.73,6.89-2.31,21.39a8.78,8.78,0,0,0,0,6.41c1.37,3.36,2.6,12.37-.61,22.9a97.56,97.56,0,0,0-3.82,19.54l.49.41,2.88-.22,1-9.66,3.29-1.07,7.4-23.16Z"/><path class="cls-9" d="M333.54,140s.27-1.47,3.48,1.43,17.86,8.55,20.15,10.84S368.32,153.85,375,172a80,80,0,0,1,3.51,13.74c.92,6.56,3.51,16.64,3.66,21.68a11.09,11.09,0,0,1-1.68,2l-.46-1.68s-7.63,1.68-11.75,3.82-13.43,4-13.43,4,2.9,15.11,8.09,22.44a7.85,7.85,0,0,1,.92,3.36c.15,2.14,1.83,5.8,1.53,9s.15,18.78,2,24c0,0,.15,6.87-1.22,11.6s-.46,15.88-2,16.79c0,0-10.84-4.27-12.21-4.43s-17.71-.61-26.56,2-36.18,3.66-42.13-3.21c0,0-.31-9.46,1.22-10.69s-3.21-4.43.46-8.55-1.37-5.8,2.44-13,2.14-18.17,3.36-31.45c0,0-1.68-11.45-2.14-16.33,0,0-9.31.15-10.69-3.05,0,0,.46-19.24-2-31s5.8-22.9,9.77-24.58,22.76-12.06,22.76-12.06Z"/><path class="cls-10" d="M331.47,104.67s1.28-12.65-4-16.93-19-4.73-25-2.44S292,90.8,290.61,95.07s1,15.24,1,15.24l10.54,12.85h13.19l10.77-2.55Z"/><path class="cls-1" d="M305.42,152.93s-3.05-9.92-3.82-14.5L301.3,137s-4.43-5-5.5-11.14-3.13-11.68-3.05-15.65-3.13-6.41,0-15.11c0,0,.77-1,2.6,0s6.72,4.66,12.21-1.45,10.61,1.14,11,3.51a36.51,36.51,0,0,0,3.66,12.14c2.6,4.73,1.53,7.25,1.53,7.25l1.3.08a74.62,74.62,0,0,0,1.14-7.4c.23-3,2.75-6.26,4.35-5.27s3,3.05,2.44,7.17-.23,7.71-3.43,8.63c0,0,.31,10.46.38,12.67s3.13,7.17,4.5,8.85S326.49,162.7,311.83,163C311.83,163,305.5,164.07,305.42,152.93Z"/><path class="cls-1" d="M295.66,125s-2.8.36-3.92-10.95,3.92,2.43,3.92,2.43Z"/><polygon class="cls-11" points="300.92 127.13 301.73 125.69 305.33 125.04 309.52 124.46 312.37 124.17 314.24 125.04 312.48 128.06 306.76 130.58 302.46 129.38 300.92 127.13"/><path class="cls-12" d="M301.79,126.26l.9,2.21a21.23,21.23,0,0,0,10.84-2.21l-4.31,3.87-6.76-.74-1.55-2.25Z"/><path class="cls-13" d="M300.92,127.13s.11-2.2,3.32-2.09,8.74-2.67,10,0c0,0-2.48-.85-3.89-.31s-7,1-7,1A3,3,0,0,0,300.92,127.13Z"/><path class="cls-14" d="M300.92,127.13s.76,2.36,5.72,1.64,7.1-2.39,7.59-3.73c0,0-1.18,6.79-6.83,6.86S300.92,127.13,300.92,127.13Z"/><path class="cls-2" d="M302.18,120.29a4.45,4.45,0,0,0,1.77,1.33,2.8,2.8,0,0,0,1,.1l.59-.05a4.49,4.49,0,0,1,.66-.07,3.36,3.36,0,0,1-.45.52,3.13,3.13,0,0,1-.6.36,2.18,2.18,0,0,1-1.49.1,2.17,2.17,0,0,1-1.47-2.28Z"/><path class="cls-2" d="M301.84,121.6a1.45,1.45,0,0,1-1.09-.22,1.38,1.38,0,0,1-.64-1.12,1.67,1.67,0,0,1,.48-1.13,1.9,1.9,0,0,1,1-.51,7.42,7.42,0,0,1-.31.94,2.52,2.52,0,0,0-.14.68C301.07,120.56,301.37,121,301.84,121.6Z"/><path class="cls-2" d="M307.58,117.87a2.2,2.2,0,0,1,1.3.19,1.69,1.69,0,0,1,1,1.16,1.62,1.62,0,0,1-.54,1.45,2.46,2.46,0,0,1-1.19.57c.2-.41.41-.74.58-1.06a1.32,1.32,0,0,0,.17-.77,1.48,1.48,0,0,0-.44-.7Z"/><path class="cls-2" d="M308.49,120.29a3.71,3.71,0,0,1-.85.57,1.87,1.87,0,0,1-.43.1,2.26,2.26,0,0,1-.63,0,1.06,1.06,0,0,1,.69-1,1.15,1.15,0,0,1,.65,0A.8.8,0,0,1,308.49,120.29Z"/><path class="cls-2" d="M301.84,117.33a4.16,4.16,0,0,1-.31-1.39,7.24,7.24,0,0,1,0-1.38,6,6,0,0,1,.95-2.62,8,8,0,0,1,0,2.75A9.31,9.31,0,0,1,301.84,117.33Z"/><path class="cls-2" d="M315.12,126.26a3.19,3.19,0,0,0,0-2.57,7.42,7.42,0,0,0-1.46-2.15,24.56,24.56,0,0,0-2-1.84c-.7-.6-1.45-1.16-2.16-1.82a11.87,11.87,0,0,1,4.89,3,6,6,0,0,1,1.47,2.61A2.8,2.8,0,0,1,315.12,126.26Z"/><path class="cls-2" d="M299.55,128.19a2.33,2.33,0,0,1-1.18-1.79,5.35,5.35,0,0,1,.12-2.18,8.14,8.14,0,0,1,.82-2,7.46,7.46,0,0,1,1.29-1.66c-.15.7-.38,1.34-.58,2s-.4,1.26-.57,1.88a9.36,9.36,0,0,0-.31,1.87A3.21,3.21,0,0,0,299.55,128.19Z"/><path d="M295.19,113.64a3.87,3.87,0,0,1,1.15-1.14,4.71,4.71,0,0,1,1.49-.67,3.71,3.71,0,0,1,1.69,0,2.36,2.36,0,0,1,1.39.92,6.33,6.33,0,0,0-1.47-.15,7.71,7.71,0,0,0-1.37.22C297.16,113,296.25,113.37,295.19,113.64Z"/><path d="M309,111.23a3.77,3.77,0,0,1,1.48-1.32,5.26,5.26,0,0,1,1.92-.59,5.47,5.47,0,0,1,2,.17,4.79,4.79,0,0,1,1.76.88c-.67,0-1.28-.09-1.88-.11a12.29,12.29,0,0,0-1.77.05,10.74,10.74,0,0,0-1.74.32A14.43,14.43,0,0,0,309,111.23Z"/><path d="M299.95,112.49c0-.63-2.29-.63-2.29,0a1.14,1.14,0,0,0,2.29,0Z"/><path d="M314.11,110c0-.63-2.29-.63-2.29,0a1.14,1.14,0,0,0,2.29,0Z"/><path class="cls-10" d="M305.27,109.5c1-.17,2-.36,2.91-.61a16.6,16.6,0,0,0,2.72-1,6.31,6.31,0,0,1,3.13-.44,7,7,0,0,1,2.92.94,10.75,10.75,0,0,0-5.65.42,9.94,9.94,0,0,1-3,.81A8.75,8.75,0,0,1,305.27,109.5Z"/><path class="cls-10" d="M302,110a9.21,9.21,0,0,1-4.34.7,6.74,6.74,0,0,0-2,0,2.79,2.79,0,0,0-1.72.95,2.25,2.25,0,0,1,1.5-1.69,4.75,4.75,0,0,1,2.3-.23c.65.08,1.36.09,2.06.13S301.25,109.94,302,110Z"/><circle class="cls-15" cx="377.8" cy="332.46" r="9.69"/><path class="cls-2" d="M301.3,137a4.62,4.62,0,0,0,5.29,2.14c3.8-.84,7.54.23,13.19-3.05s6.34-9.8,6.34-9.8.69,5.53-5,10.49-8.32,8.4-14.88,5C306.19,141.71,302.45,139.42,301.3,137Z"/><path class="cls-16" d="M275.52,359.86c.67-6.87,6.63-32.75,6.63-32.75l-3.66-7.79-5.5,3.43-4.58,12.59,1.83,6.87s-.8,7.67-1.14,12.71-7.44,28.28-7.44,28.28-14.77,38.47-10.42,48.55,15.8.69,20.38-12.82,13.28-35.72,6.18-46.94A22.59,22.59,0,0,1,275.52,359.86Zm.08,25.11c-.24,2.9-1.31,26-14.74,45.19,0,0-6,6.28-7.94-1.68,0,0-1.5-5.2,2.29-16.79,0,0,4.27-16.49,12.37-29.46S275.83,382.07,275.59,385Z"/><path class="cls-1" d="M369.5,309.25S367.21,315.51,366,320s-.81,8.25-1.21,10.54,1.36,3.51,1.66,6.94c0,0-.2,1.72,1.35,1.24a2.12,2.12,0,0,0,1.66-1.62,5.26,5.26,0,0,1-.8-4.2,7.6,7.6,0,0,1,1.76-4,42.3,42.3,0,0,1,.53,6.18c0,3.05-.38,5.88,0,9.31s3.36,3.43,4,.46a40.68,40.68,0,0,0,1.3-9.08c.08-3.59,1.83-2.44,2-1.3s.61,6.34.53,7.79-2.82,3.13-1.6,4.2a3,3,0,0,0,4-.38,11.24,11.24,0,0,0,2.75-5s2.67-.15,4.5-3.89c0,0,.84-.76,0-2.82a8,8,0,0,1-.79-2.9,2.55,2.55,0,0,0,1.63-2.14,38.53,38.53,0,0,0,0-8.4c-.23-2.29-.31-6.95-2.14-9.08s-1.91-10.69-1.91-10.69l-10.15.31-4.89,5.11Z"/><path class="cls-2" d="M327.79,115.6a3.58,3.58,0,0,0,.54-2.06,2,2,0,0,0-1.07-1.53l-.19-.12,0-.26a17.48,17.48,0,0,1,.46-3.09A8.82,8.82,0,0,1,328,107a3.44,3.44,0,0,1,1-1.43,1.42,1.42,0,0,1,1.06-.25,1.73,1.73,0,0,1,.87.44,3.78,3.78,0,0,1,.56.63,2.21,2.21,0,0,1,.41.77,5.48,5.48,0,0,1-.13,3.13,6.76,6.76,0,0,0-.47-2.9,1.81,1.81,0,0,0-.38-.53,3,3,0,0,0-.5-.46c-.38-.27-.62-.28-.86-.09a2.9,2.9,0,0,0-.67,1.07,13.25,13.25,0,0,0-.45,1.38c-.25,1-.45,1.94-.6,2.92l-.18-.37a3.24,3.24,0,0,1,.85,1,2.23,2.23,0,0,1,.28,1.25A3.36,3.36,0,0,1,327.79,115.6Z"/><path class="cls-17" d="M273,322.76l-4.58,12.59,1.83,6.87s-.8,7.67-1.14,12.71c0,.23,0,.5-.09.8,0,0,1.24-2.86,3.07-3.66a10.89,10.89,0,0,1,4.38,1.83h0c1.86-10.13,5.69-26.79,5.69-26.79l-3.66-7.79Z"/><path class="cls-1" d="M282.14,310.86a25.06,25.06,0,0,1,1.68,10.84c-.53,5.65,1.76,11.91,1.76,11.91s2,4.85-1.45,5.14-4-4.37-4-4.37a22.8,22.8,0,0,1-1.22-5c0-1.53-1.3-4.73-3-3.51s-2.14.92-4.2,7.94c0,0-1.3,3.82-1.07,4.35s-.46,4-.46,4-3-1.91-4-2.44-.68-2.21-.68-2.21.84-5.8.31-7.56-1.07-2.44-.76-4.5a30.62,30.62,0,0,1,1.45-7.79,31.72,31.72,0,0,0,1.3-9.24l7.65-4,5,3.36Z"/><path class="cls-2" d="M294,120.11a3.32,3.32,0,0,1-1.05-1.92,10,10,0,0,1-.22-2.13c-.05-1.35-.19-2.68-.33-4.12a5.82,5.82,0,0,1,1,1.94,8.8,8.8,0,0,1,.36,2.14c0,.75,0,1.38,0,2.06A6.61,6.61,0,0,0,294,120.11Z"/><path class="cls-2" d="M329.71,147.7a38.42,38.42,0,0,1-.57-7.66,45.89,45.89,0,0,1,.79-7.64,58.94,58.94,0,0,1,.21,7.66C330.08,142.6,330,145.14,329.71,147.7Z"/><path class="cls-2" d="M343.35,212.65l4.07,21.66c6.05,11.67,19.26,37.36,20,40.59a38.71,38.71,0,0,1,.61,9.31l2.24.73c.28-5.15-.1-6.68-.1-6.68C367.25,265,368,255.52,368,250.17s-2.44-4.58-2-7.18a8,8,0,0,0,0-3.82c-6.56-9.62-9.46-27.25-9.46-27.25l-13.32-.83Z"/><path class="cls-2" d="M389.31,329.19a25.77,25.77,0,0,0,.21-5,.61.61,0,0,1-.39,0c-1.19-.27-3.94,2.59-5.09,2.59s-.92-1.14-1.3.53a3,3,0,0,1-2.21,2.06c-3.28-1-6.79,1.45-6.49,3.21s-1.83,7-2.37,8.55a4.13,4.13,0,0,1-.81,1.54c0,.52.06,1,.12,1.59.38,3.43,3.36,3.43,4,.46a40.68,40.68,0,0,0,1.3-9.08c.08-3.59,1.83-2.44,2-1.3s.61,6.34.53,7.79-2.82,3.13-1.6,4.2a3,3,0,0,0,4-.38,11.79,11.79,0,0,0,2.41-3.85l-.13-.55a8.44,8.44,0,0,1-3.1.74c-1.66,0-.86-.78-1-3.65s0-3.66.8-4,1.6-.52,1.37-1.43-.06-1.72.63-1.89,1,2.75,1.43,5.78,0,4,0,4l.32,0c0-.08,0-.17.06-.25s2.45-.15,4.27-3.45l-.14-.22a8.1,8.1,0,0,1-1.34-3.82c-.06-1.2-.17-2.86-.17-2.86l.72,1,.38-.19s0,0,0,0A2.55,2.55,0,0,0,389.31,329.19Z"/><path class="cls-2" d="M383.58,312.09a9.58,9.58,0,0,0,2.9-1.6l0,0a17.29,17.29,0,0,1-.83-3.64l-4.35-5.74-6.23.19-4.89,5.11-.73,2.75-.28.79c.64.21,2.28.76,3.07,1.12C373.28,311.56,382.06,312.55,383.58,312.09Z"/><path class="cls-2" d="M369.5,337.05a5.26,5.26,0,0,1-.8-4.2,7.6,7.6,0,0,1,1.76-4s.11.66.23,1.65a5.82,5.82,0,0,0-1.22-4.94c-1.76,2-2,8.47-2,10.38a11.51,11.51,0,0,1-.35,2.81,1.25,1.25,0,0,0,.73,0A2.12,2.12,0,0,0,369.5,337.05Z"/><path class="cls-3" d="M267.72,291.62s-1-4.47,1.72-5.15,6.07-3.32,13.4.57c0,0,1.84-.22,1.14,3.09a133.85,133.85,0,0,0-1.49,18.2s.57,1.83-.34,2.52c0,0-1.83-2.18-7.1-1.83s-6.9,1.14-7.52,3.55c0,0-1.87-.92-1.07-4.35S267.72,291.62,267.72,291.62Z"/><path class="cls-3" d="M368.36,290.48s-.34-4.85-.46-5.52-.23-1.7,1.26-1.81,16.26,0,16.26,0,2.18-.61,1.95,1.81-.65,13.76,0,15.82,0,6.3,0,6.3.56,1.26-1.28,1.6-16.6.57-16.6.57-1.14.57-1.14-1.26Z"/><path class="cls-18" d="M255.2,411.69s4.27-16.49,12.37-29.46,8.27-.15,8,2.75-1.31,26-14.74,45.19c0,0-6,6.28-7.94-1.68C252.91,428.48,251.41,423.28,255.2,411.69Z"/><path class="cls-19" d="M262.91,383.79a160.71,160.71,0,0,0,7.56-28.05s-1.49,11.22.8,16A54.59,54.59,0,0,0,262.91,383.79Z"/><path class="cls-20" d="M371.1,180.1c-2.63-3.66-4.58-4.12-6.53-5.61s-1.83-4.47-3.21-5-.11,4.81-.11,8.13-2.52,14.77-3.66,14.31,1.14-7.79,1.14-12.59-2.4-4.69-2.75-6.64-.69-2.63-1.37-1.6-3.09,14-3.09,14-1,.69-.92-2.4.46-9.16.46-9.16c-1.37,2.29-2.29,10.3-2.29,10.3a16.69,16.69,0,0,1-.8-4,26.54,26.54,0,0,0-1,5.15c-.69-1-1.26-8.7-2.18-7.56s-.69,10.76-.69,10.76c-.11-1.6-1.95-1.37-1.95-1.37-.11,1.95-3.89,8-8.13,10.3s-3.66,38.58-9,43.85-22.67,28.17-24.16,28.49-5,4.72-7.44,6,1.83,4.69,4,2.63,5.27-1.72,7.9-1.49,5.84,1.14,1.95,3-2.63,1.72,3.55,1.49,20.49-7.67,22.44-9.27,4.47-1.26,6.76-.92-4.58,3-4.58,3-3.09,2.29-14.77,8.36-18.55,4.24-22.9,5.15,1.14,2.4,1.14,2.4c11.22,1.95,30.91-8.28,32.61-10.72s8.38-4.89,10.75-7.71,5.88-2,4.81-.38,6.11,1.14,6,3.41-2.37.56-7.48,0-12.9,7.25-12.9,7.25c9.92-6.72,19.16-4.73,19.16-4.73a19.47,19.47,0,0,0-4.43,1.22,4.15,4.15,0,0,0-2.9,4.2,14.72,14.72,0,0,1,2.67-2.6c2-1.6,3.43-.31,6.72-1.91s5.34-1.68,8.93-.38-.92,2.67-2.75,2-14.66,4.58-12.82,6.64,9.85,2.67,12.52,3.59,1.07,1.91,1.07,1.91c-7.54,1.82-13.05-.92-15-2.82s-3.28,0-4.73,1a4.35,4.35,0,0,1-5,.37c-1.68-1.07-4.58.23-17.33,3.21s-28.62.84-28.62.84,3.21,2.9,14.5,3.05,45.34-7.1,52.21-3.21-3.05,4.86-3.05,4.86h0c3.46,1.16,10.46,3.92,10.46,3.92,1.53-.92.61-12.06,2-16.79s1.22-11.6,1.22-11.6c-1.83-5.19-2.29-20.76-2-24s-1.37-6.87-1.53-9A7.85,7.85,0,0,0,363,238c-5.19-7.33-8.09-22.44-8.09-22.44s9.31-1.83,13.43-4a49.67,49.67,0,0,1,9.11-3.17c-7.3,1.49-7.36,0-6.78-1s3,.46,4.24.23a1.33,1.33,0,0,0,.11-2.52c-1.14-.46.11-5.15-1-6.87s1.26-1.6,2.86-1.6,2.86,3.55,3.21,1.83S373.74,183.77,371.1,180.1Zm-42.24,91.82c-2,1.49-15.81,5.15-18.1,4s-10.3-5.5-5.5-5.72,4.81,1,10.3,1.26a53.54,53.54,0,0,0,9.73-.46S330.82,270.44,328.86,271.93Zm12.47-4.37c-2.06.36-8.47,1.36-8.47,1.36s-6.64-1.12-4.47-2.15,6.53.69,10.19-.57S343.4,267.2,341.34,267.56Zm9.85-3.76c-2.4,1.14-9.27-2.52-12.82-.57s-24.62-2.47-29.43,4.15c0,0-1.49-.6,2.86-3.8s2.75-1.72,8.93-3.55,12.37-4,16.37-6.53,8.36-3.66,7.1-1.95-11.61,5.61-12.73,8.24,6.09-2.52,8.27-1.72S353.59,262.65,351.18,263.8Zm8.59-50.26s-3.43.92-3.21-1.6,1.95-7,2.4-9.85.92-5,1.6-2.86-1.72,8.13.57,8.13,3,1.72.8,1.83-1.37,3,.11,3a10.74,10.74,0,0,0,3.09-.57A9.08,9.08,0,0,1,359.77,213.53Z"/><path class="cls-20" d="M296.87,254.6s5.5-15.88,13.74-24.58,7.48-2.26,11.91-8.84,7.17-14.52,4-15.43-11.75-5.19-12.67-2.14S294.13,244.52,296.87,254.6Z"/><path class="cls-20" d="M293.52,251.09s-3.66-12.38,2-22.52,7.48-20.83,9.77-20.83,2.14,4.58.92,7S293.67,229,293.52,251.09Z"/><path class="cls-20" d="M300.69,206.89c-3.66,0-11.3,2.06-6.72-6.64s9.92-17.4,7.79-17.25-10.89,19.54-11.09,22.14-3.26,4.27-4.78,0-3.66-19.24-1.37-24.43c0,0-4.43,5.19-2.9,11.3,0,0-2.5-5.21-4-6.56,0,0,3.66,12,5.34,17.08s3.82,9.48,2,10.09.33,1.33-.15,2.75-1.51,1.27-1.51,1.27h0a33.65,33.65,0,0,0,5.33.4c.39,4.16,1.66,13.07,2,15.63,0,0,4.22-13.8,7.58-17.31S304.35,206.89,300.69,206.89Z"/><path class="cls-8" d="M387.49,307.08s.67-4.24,0-6.3-.25-13.4,0-15.82-1.95-1.81-1.95-1.81l-6.75,0h0s3,.27,3.43,5.53,0,18,0,18,0,1.46-3.12,2.37c3.29-.1,6.35-.22,7.12-.36C388,308.34,387.49,307.08,387.49,307.08Z"/><path class="cls-8" d="M282.46,310.86c.92-.69.34-2.52.34-2.52a133.85,133.85,0,0,1,1.49-18.2c.69-3.32-1.14-3.09-1.14-3.09a17.15,17.15,0,0,0-5.5-1.95l-.07,0a4.19,4.19,0,0,1,3.2,4.43c-.24,3.66-1.59,17.12-1.59,17.12s.29,1.73-4.14,2.35l-.22,0,.54,0C280.63,308.68,282.46,310.86,282.46,310.86Z"/><path class="cls-2" d="M282.14,336.58c-.92-1.68,3.05-2.75,1.57-3.43s-2.33,1.14-2.79-.31a22.33,22.33,0,0,1-.92-3.66c0-.46.38-4.5.38-5.5s-2-5-3.66-3.89a8.63,8.63,0,0,0-3.51,5.42c-.23,1.36-.55,4.4-.77,6.56,1.55-4.9,2.08-4.79,3.57-5.87,1.68-1.22,3,2,3,3.51a22.8,22.8,0,0,0,1.22,5s.53,4.66,4,4.37a2.42,2.42,0,0,0,1.07-.32v0A4.07,4.07,0,0,1,282.14,336.58Z"/><path class="cls-2" d="M270.71,339.68l-.11.42s-1.28-1.37-4.3-.33h0c1,.53,4,2.44,4,2.44S270.56,340.84,270.71,339.68Z"/></svg>