<svg id="Laag_2" data-name="Laag 2" xmlns="http://www.w3.org/2000/svg" viewBox="0 0 179.28 456.41"><defs><style>.cls-1{fill:#efc2af;}.cls-2{fill:#e2e2e1;}.cls-3{fill:#147eb3;}.cls-4{fill:#2c120d;}.cls-5{fill:#126c8f;}.cls-6{fill:#bfbebe;}.cls-7{fill:#3f3f3f;}.cls-8{fill:#d1a698;}.cls-9{fill:#a98277;}.cls-10{fill:#dda095;}.cls-11{fill:#cf8d7a;}.cls-12{fill:#be988e;}.cls-13{fill:#ddb0a4;}.cls-14{fill:#c59e96;}.cls-15{fill:#575656;}.cls-16{opacity:0.25;}</style></defs><title>voetballer</title><path class="cls-1" d="M357.33,470.5V491s3.72,11.9,3.33,21c0,0,4.67,44.67,9.67,66l-6.5,6-15.5-7.33S332,538.33,338,515c0,0-11.33-20.33-13.67-42.33Z" transform="translate(-220.47 -162.93)"/><path class="cls-2" d="M295.18,473.5a83.47,83.47,0,0,1-44-3.5s2.13-10.75,3.63-27.25c0,0-1.5-10,1-12.25,0,0,1-2.25.25-9.5s3.5-19,3.5-19,1.25-8.81,2.25-11.78v-4.71l9.75-9.09,19.25,1.09,53,4.25,9.08,7.31s1.42,7.19,3.42,13.44c0,0,3,21,2,40,0,0,0,17.75-1,28a152,152,0,0,1-43.69,2.25s-1.6-16.25-3-21.75c0,0-2.11-10-4.11-23.25,0,0-3.25,15.25-6.5,24.75A135.58,135.58,0,0,0,295.18,473.5Z" transform="translate(-220.47 -162.93)"/><path class="cls-3" d="M293.33,229.88A139.57,139.57,0,0,0,261.83,242s-15.33,2.67-9.17,29.83c0,0-2,15.33,0,24.83,0,0,1.33-9.67,15.83-9.33s13,9.33,13,9.33l-14.5,31s.67,9.5,2.67,13.67c0,0,2.17,0-.83,3.67s1.33,7.5-3.5,16.5c0,0-2.33,3.83-1.33,11.67,0,0,1.33,1.83-.5,5.67a15,15,0,0,0-1.67,6.67l11.83,1a8.12,8.12,0,0,0,6.33-2.67c2.67-3,5.33-1,7.17,1.67s13.17,5.83,52.83,4.33a10,10,0,0,0,4.67-1.33c2.17-1.33,3.5.83,6.83.67s4.17-.67,4.17-.67a15.25,15.25,0,0,0-2.5-6.17c-2-2.67-.33-14.83-.33-14.83s-1.17-16.17-6.67-29.83,4.33-26.83,4.33-26.83l18.17-10.17a32,32,0,0,0-1.83-12.33A19.38,19.38,0,0,1,366,277s1-21.41-11.17-27.45-21.16-11.4-29.08-15.7" transform="translate(-220.47 -162.93)"/><path class="cls-4" d="M317.2,168.13s.63-9.75,22.63-2.37c0,0-4.25-.12-6.87,1.13,0,0,10.88,2.5,15.25,17a4.71,4.71,0,0,0-3.25-1.5s5.13,8,1.5,19.13a11.84,11.84,0,0,0-2.12-5.37s-4.26,9.24-9.69,15l-34.1,1.07s-1.62-10.8-3.34-14.48l-2.09-1.36s-1.41-6.64,1.59-11.39a6.47,6.47,0,0,0-3.37,2.88s1.88-13,7-15.62a4.71,4.71,0,0,0-4.12-.75s10-9.37,19.13-3.37c0,0,1.38-3.52-1.75-5.13C313.58,163,318.2,162,317.2,168.13Z" transform="translate(-220.47 -162.93)"/><path class="cls-5" d="M303.86,245.42s-16.69-7.55-27.69-2.49-14.67,6.61-14.67,6.61,1,13.12-2.17,22.79a105.31,105.31,0,0,0,.84,16.17,12.12,12.12,0,0,0-7.51,8.16s-2-7,0-24.83c0,0-7-25,9.17-29.83,0,0,20.17-10.08,31.5-12.12C293.33,229.88,294.71,237.52,303.86,245.42Z" transform="translate(-220.47 -162.93)"/><path class="cls-6" d="M294.81,234.14s-20.23,7-26.48,11.28h-4.75l2.38-4s8-5.31,27.57-10.75Z" transform="translate(-220.47 -162.93)"/><circle class="cls-7" cx="131.85" cy="434.54" r="1.15"/><circle class="cls-7" cx="136.97" cy="437.46" r="1.32"/><circle class="cls-7" cx="148.85" cy="447.14" r="1.32"/><circle class="cls-7" cx="153.97" cy="450.14" r="1.32"/><circle class="cls-7" cx="160.41" cy="451.77" r="1.32"/><circle class="cls-7" cx="166.97" cy="451.77" r="1.32"/><path class="cls-1" d="M293.33,229.88s5.67,19.33,22.33,19.67,10-15,10-15a57,57,0,0,1,1.32-7.17s5.6-3.75,8-8.75c0,0,3.63-6.25,3.88-12.12s7.5-22.25-5.5-23.25c0,0-8.25-6.87-15.37-7.12,0,0-4.25,15.38-13.87,21.13,0,0-1.62-7.25-6.37-6.12s-2.75,19.25,3.25,16C301,207.13,300.46,225.75,293.33,229.88Z" transform="translate(-220.47 -162.93)"/><path class="cls-8" d="M327,227.38s-6.4,4.25-18.4.88a11.8,11.8,0,0,0,5,5.25,9.68,9.68,0,0,1-6.62,1.88s-2.08,2.47-3.1,10c0,0-8.27-6-10.52-15.55,0,0,6.75-3.25,7.63-22.75,0,0-5.27,3.36-5.84-10.74,0,0,0-4.51,2.59-5.26s5.13,1,6.38,6.13c0,0,.25,16.75,6.75,24.25A22.6,22.6,0,0,0,327,227.38Z" transform="translate(-220.47 -162.93)"/><path class="cls-5" d="M277.51,269.47s9.9,28.3,39.69,44.08l-23.87,6.56L273.17,310l8.17-19.71Z" transform="translate(-220.47 -162.93)"/><path class="cls-9" d="M301.21,202.25a3.46,3.46,0,0,1,0-4.75s-.25-5.12-2.87-4.25c0,0-1.75.15-1.75,4.45,0,0,.56-2.71,2.31-2.82,0,0,.79-.49,1.06,2.25C300,197.13,296.83,200.63,301.21,202.25Z" transform="translate(-220.47 -162.93)"/><path class="cls-2" d="M325.67,234.54s14,7.88,25.5,14l2.08,2.42-3.58.33-23-13.32Z" transform="translate(-220.47 -162.93)"/><path class="cls-4" d="M323.33,197.7s-2.62-7.95-9.75-2.7C313.58,195,318.83,192.27,323.33,197.7Z" transform="translate(-220.47 -162.93)"/><path class="cls-4" d="M331.08,200.38s5.19-5.58,7.13,1.88C338.21,202.25,336.21,197.25,331.08,200.38Z" transform="translate(-220.47 -162.93)"/><circle class="cls-4" cx="97.98" cy="32.52" r="1.25"/><circle class="cls-4" cx="113.55" cy="37.38" r="1.25"/><path class="cls-9" d="M323.57,205.32s-2.21-.33-2.87,2.54C320.7,207.87,319.74,203.49,323.57,205.32Z" transform="translate(-220.47 -162.93)"/><path class="cls-9" d="M322.08,208.69s.88-2.85,3.25-1.27c0,0,.89,1.83-2.49,1.27Z" transform="translate(-220.47 -162.93)"/><path class="cls-4" d="M313.58,189.75a7.22,7.22,0,0,1,8.5-.75c5.08,2.67,2.75,4.21,2.75,4.21S320,187.34,313.58,189.75Z" transform="translate(-220.47 -162.93)"/><path class="cls-4" d="M340.31,196.39s.73-4.32-7.54-2.19c0,0-.56.19-.75,1.55C332,195.75,337.06,193.16,340.31,196.39Z" transform="translate(-220.47 -162.93)"/><path class="cls-9" d="M328.83,203.5s2,6.71-1.85,7C327,210.5,329.63,208.79,328.83,203.5Z" transform="translate(-220.47 -162.93)"/><path class="cls-1" d="M253.81,470.89s-1.73,10.77-2.6,20.44c0,0-2.87,10.33-2.87,19,0,0-2,30.33-6.67,65l4.67,8.67L263,577.33s12.67-37.67,8.67-63.67c0,0,9.67-12.43,15.67-40Z" transform="translate(-220.47 -162.93)"/><path class="cls-8" d="M253.81,470.89s-1.73,10.77-2.6,20.44c0,0-2.87,10.33-2.87,19,0,0-2,30.33-6.67,65l4.67,8.67,2.25-7.5,5.9-61.27,4.72.27,6.13-2c-3.54,1.17-9.92-4-9.92-4,3.08-5.17,7.21-24.29,6.42-29.46,0,0,10.17-2.67,25.5-6.38Z" transform="translate(-220.47 -162.93)"/><path class="cls-9" d="M329.71,210.81a4.36,4.36,0,0,0-.08-2.95S331.54,208.79,329.71,210.81Z" transform="translate(-220.47 -162.93)"/><path class="cls-6" d="M269.55,405.87l2.53-9.87s11.25,4.75,28.25,1.25c0,0-19-1-27.5-7,0,0,20,.47,40.37-.06l-19.87-4.67-13.25-8-8.25,5.5-10,2.51v4.71c-1,3-2.25,11.78-2.25,11.78s-4.25,11.75-3.5,19-.25,9.5-.25,9.5c-2.5,2.25-1,12.25-1,12.25-1.5,16.5-3.63,27.25-3.63,27.25a83.47,83.47,0,0,0,44,3.5s-18.85-.75-29.1-8.5c0,0-3.25-11.5,3-19,0,0-7.25-2.75-7.25-6.25a31.09,31.09,0,0,0,15,5s-14.25-7.5-9.5-30.25Z" transform="translate(-220.47 -162.93)"/><path class="cls-9" d="M329,208.79s1,1.71-1.46,1.71Z" transform="translate(-220.47 -162.93)"/><path class="cls-10" d="M315.67,211.21s.45,5.25,7.49,6.88a7.82,7.82,0,0,0,6.47-1.55l-3.29-.71-3.46-1.25-4-1.08-2.17-.66Z" transform="translate(-220.47 -162.93)"/><path class="cls-5" d="M321.08,390.22c-25.25-2.28-33.25-12.72-33.25-12.72-7-8.5-14.67-9-14.67-9,7.33-3.5,15.67,1.5,15.67,1.5,12,7.75,19,7.5,19,7.5a25.16,25.16,0,0,1-13-9.75c27.72,10.43,47.86-29.82,47.86-29.82l-13-7.56-23.32-5.08-20.75-.3L267,327.67s.88,10.31,2.67,13.67c0,0,2.17.1-.83,3.67,0,0-1.62.88-1.06,6.25a18.37,18.37,0,0,1-2.44,10.25S263,365.4,264,373.17c0,0,1.1,2.19-.5,5.67s-1.44,3.75-1.65,5.87l0,.81,11.83,1s4.25.29,6.33-2.67c0,0,3-3.64,7.17,1.67S321.08,390.22,321.08,390.22Z" transform="translate(-220.47 -162.93)"/><path class="cls-11" d="M329.63,216.54a7.65,7.65,0,0,1-3-1.33,20.33,20.33,0,0,0-8.29-2.37,3.58,3.58,0,0,1-2.71-1.63,3.32,3.32,0,0,0,2.58,2.67,35.38,35.38,0,0,1,7.88,2.33A4.2,4.2,0,0,0,329.63,216.54Z" transform="translate(-220.47 -162.93)"/><path class="cls-12" d="M368.67,300.67s-1.5-7-14-5.83c0,0-8.83.17-12,4.17v.83s-.5,6.83,3.5,16.33l-50.67,2.67-34-3.68s-.73,2.8,1.69,3.68c0,0-3.5.67-3.67,3.33,0,0-.33,1.67,1,1.83,0,0-2.17,1-2.17,2.67,0,0,.47,2.85,7.67,2a73.15,73.15,0,0,1,16.6,1.59,72,72,0,0,0,18.57,1.08l4.67,1.31A66.94,66.94,0,0,1,318,335.09c5.17,1.74,20.67,3.91,36.17,2.24,0,0,7,.83,8.17-5.5s6.38-17.14,6.38-17.14A87.89,87.89,0,0,0,368.67,300.67Z" transform="translate(-220.47 -162.93)"/><path class="cls-13" d="M368.67,300.67s-1.5-7-14-5.83c0,0-8.83.17-12,4.17a41.69,41.69,0,0,0,3.5,17.17l22.55-1.47A87.89,87.89,0,0,0,368.67,300.67Z" transform="translate(-220.47 -162.93)"/><path class="cls-14" d="M347.89,295.92a36.53,36.53,0,0,0,1.61,15.88l-4.5.45A36.69,36.69,0,0,1,342.67,299,7.79,7.79,0,0,1,347.89,295.92Z" transform="translate(-220.47 -162.93)"/><path class="cls-1" d="M252.67,296.67s.71-8.36,13-9.26,16.31-.07,17.48,8.26a25.81,25.81,0,0,1,0,8.83s9,.17,24.5,6.83c0,0,6.33,3.33,21.17,2.33,0,0,9.25-.33,16.17-1.42a25.25,25.25,0,0,1,8.33-5.58,30.43,30.43,0,0,0,5.17-3.33c1.75-1.58,2.67-.17,6.25-1.83a1.28,1.28,0,0,1,2,.25c.77,1.25.61,3.75-4.23,5.58A5.75,5.75,0,0,0,360,310l-.42,1a36.4,36.4,0,0,0,6.92,2s4.5,3.25,5.83,4.33a2.84,2.84,0,0,1,1.25,2.67,2.5,2.5,0,0,1-2.42,2.42s1,.5.5,2.75-2,2-2,2,.92,1.17.67,2.08a2.79,2.79,0,0,1-2.33,2.42,1.78,1.78,0,0,1,.71,2.25c-.55,1.58-4.13,1.17-6.21.5,0,0-8.75.5-14.33-3.25s-12.25-1.42-16.67-.75-39.89,5.26-51-1.25c0,0-11.25.38-13.87-8.62C266.58,320.63,255.63,311.46,252.67,296.67Z" transform="translate(-220.47 -162.93)"/><ellipse class="cls-2" cx="109.17" cy="105.17" rx="6.76" ry="7.58"/><path class="cls-5" d="M267.17,248.83s12.23,6,12,26.86a34.52,34.52,0,0,1,3.56,17.83l-1.43-3.18S278.67,269.83,262,265a25.19,25.19,0,0,1,13.17,7s-3.83-11.17-15.5-13.33c0,0,7.15-.83,13.33,7.33,0,0-3.5-10.67-13.33-13.83,0,0,1.83-.86,9.67,4.5,0,0-5.83-9.15-9.67-11.24a30.29,30.29,0,0,1,13.5,14.24S273.5,255.67,267.17,248.83Z" transform="translate(-220.47 -162.93)"/><path class="cls-5" d="M273.17,278.07a57.43,57.43,0,0,1-16.67-10A23.5,23.5,0,0,0,273.17,278.07Z" transform="translate(-220.47 -162.93)"/><path class="cls-5" d="M267.33,279.67s-9.67-2.5-13.17-5.33C254.17,274.33,254.33,281.19,267.33,279.67Z" transform="translate(-220.47 -162.93)"/><path class="cls-5" d="M342.67,299a20.55,20.55,0,0,1,1.5-7.5c1.67-4.5,6.83-25.33,0-40.17,0,0,4.66,21.5-1.5,39.83C342.66,291.17,341.67,294,342.67,299Z" transform="translate(-220.47 -162.93)"/><path class="cls-5" d="M347.43,274.33s4.41-1.67,8.07-7.67c0,0-2.2,4.38-8.18,9,0,0-1.37,11.64.57,20.23a9.47,9.47,0,0,0-5.22,3.08v-3.94l1.54-7.37,1.77-7.85.44-5.33Z" transform="translate(-220.47 -162.93)"/><path class="cls-5" d="M346.38,282.64s9.62-5.43,15.79-7c0,0-7.55,3.77-16.19,9" transform="translate(-220.47 -162.93)"/><path class="cls-5" d="M349.5,287.12s9-1,15.33-6.91C364.83,280.21,360.67,287.73,349.5,287.12Z" transform="translate(-220.47 -162.93)"/><path class="cls-5" d="M325.67,301.44s-11.12-2.83-21.81,0A25.35,25.35,0,0,1,325.67,301.44Z" transform="translate(-220.47 -162.93)"/><path class="cls-8" d="M364,334.13c-1.5-.37-2.62-.62-2.62-.62a22.86,22.86,0,0,1-10.75-3.12c-6-5-8.36-4.37-8.36-4.37-8.86,1.88-21,0-21,0-19.12-3.18-30.62-1.75-34.25-1.12a10.52,10.52,0,0,1-6.75-1.37c-3-3.87-8-7.75-10-9.37a10.4,10.4,0,0,1-2.87-4.08c-2-8.45-7.15-21.53-7.16-21.54-7,2.51-7.51,8.16-7.51,8.16,3,14.79,13.92,24,13.92,24,2.63,9,13.88,8.63,13.88,8.63,11.16,6.51,46.63,1.92,51,1.25s11.08-3,16.67.75,14.33,3.25,14.33,3.25c2.08.67,5.67,1.08,6.21-.5C367.34,334.88,365.46,334.5,364,334.13Z" transform="translate(-220.47 -162.93)"/><circle class="cls-7" cx="39.79" cy="435.69" r="1.15"/><circle class="cls-7" cx="34.35" cy="439.75" r="1.32"/><circle class="cls-7" cx="23.28" cy="452.24" r="1.32"/><circle class="cls-7" cx="18" cy="454.32" r="1.32"/><circle class="cls-7" cx="233.12" cy="618.02" r="1.32" transform="translate(-558.94 124.06) rotate(-39.26)"/><circle class="cls-7" cx="6.61" cy="454.32" r="1.32"/><path class="cls-8" d="M359.58,311.08a2.11,2.11,0,0,1-.5-3.33s1.25-1.25,2.13-2.25c0,0,4.07.1,5.85-2.76,0,0,.86,2.8-4.55,4.59C362.5,307.33,360,308.79,359.58,311.08Z" transform="translate(-220.47 -162.93)"/><path class="cls-8" d="M366.21,317.75s1.63,0,2.75,2.38a10,10,0,0,0,2.21,2.38l1.33-.44a16.76,16.76,0,0,1-2.17-1.93S368.33,317.5,366.21,317.75Z" transform="translate(-220.47 -162.93)"/><path class="cls-8" d="M369.67,327.25s-.9-1.06-2.27-2.37a5.67,5.67,0,0,0-2.94-1.5,4.62,4.62,0,0,1,3.31.81,30.25,30.25,0,0,1,2.85,2.82Z" transform="translate(-220.47 -162.93)"/><path class="cls-8" d="M352.89,471.35s-9.18,7-18.22,8.32c0,0,2.22,23,9.11,34.33,0,0-1.67,31.67,9.11,61l-4.56,1.67S334,546.33,338,515c0,0-13-27.67-13.67-42.33Z" transform="translate(-220.47 -162.93)"/><path class="cls-15" d="M348.33,576.67s-2.75,11.83,1.5,19.58a26.48,26.48,0,0,0,7.75,4.25,14.71,14.71,0,0,1,6.5,5.75s7.5,10.5,25.5,8.75,7.5-14.25,3.25-15c0,0-11.5-9.83-16.75-12.67L370.33,578Z" transform="translate(-220.47 -162.93)"/><path class="cls-8" d="M368,331.75a26.63,26.63,0,0,1-4.23-2.75s2.26,0,4.94,2.55Z" transform="translate(-220.47 -162.93)"/><path class="cls-5" d="M327,379.5s11.35-.75,16.85-6.75C343.83,372.75,341.38,382.5,327,379.5Z" transform="translate(-220.47 -162.93)"/><path class="cls-6" d="M352.89,471.35s-19.81-7.6-26.81-16.1c0,0,8.56.5,13.4-1.75,0,0-9.65-1-15.15-4.5a30.61,30.61,0,0,1,3.25-11.5s-7-6.13-9.5-11.81a46.3,46.3,0,0,1-4.88-10.19,30.69,30.69,0,0,1-6.62,12.25s2.84,15.91,4.11,23.25c0,0,2,14.75,3,21.75C313.65,472.75,334.2,475.44,352.89,471.35Z" transform="translate(-220.47 -162.93)"/><path class="cls-3" d="M362.41,527.25c-7.26,9.58-25.73,0-25.73,0,.35,20.58,11.65,49.42,11.65,49.42s2.25,11,7.08,10.67a23.64,23.64,0,0,1,4.48-3.92A38.93,38.93,0,0,1,370.33,578C366,558.33,362.41,527.25,362.41,527.25Z" transform="translate(-220.47 -162.93)"/><path class="cls-5" d="M251.2,536.75s8.63,2.5,16.38-1.75c0,0-4.26,5.25-16.38,4.25" transform="translate(-220.47 -162.93)"/><path class="cls-5" d="M343.33,535a28.77,28.77,0,0,0,16.5,0s-2.25,3.38-16.5,2.19" transform="translate(-220.47 -162.93)"/><path class="cls-2" d="M363.58,603.63s5.5-4.56,8-6.15l2.86,2.15s-7,3.88-8.86,7.13Z" transform="translate(-220.47 -162.93)"/><path class="cls-2" d="M359.9,600.39s3.56-3.2,7.75-6.26l2.37,1.81s-5.44,4.51-7.81,6.88C362.21,602.81,361.33,601.78,359.9,600.39Z" transform="translate(-220.47 -162.93)"/><path class="cls-2" d="M356.13,597.47s5.4-5.35,7-6.47l2.63,2.06s-5.14,4-6.94,6.44Z" transform="translate(-220.47 -162.93)"/><path class="cls-15" d="M259.53,584.16a25.43,25.43,0,0,1,2.8,12.66s-.63,1.6-5.62,4.73-8.53,10.28-8.53,10.28-8.84,10-24.76,4.58c0,0-7.43-4,1.41-12.29s12.73-13.74,15.56-22.69" transform="translate(-220.47 -162.93)"/><path class="cls-3" d="M247,527.25c-1.21,14.85-5.32,48.08-5.32,48.08l2.54,5.74-3.81-.58-.88,3.5a16.6,16.6,0,0,1,6.66,1.52l2.58,1.34a19.73,19.73,0,0,1,4.23,3.3,13.53,13.53,0,0,0,1.85,1.83,12.49,12.49,0,0,0,4.51-7.91l.35-.09,3.31-6.67c7.67-21.67,9.41-49.89,9.41-49.89C254.15,536.56,247,527.25,247,527.25Z" transform="translate(-220.47 -162.93)"/><path class="cls-7" d="M347.63,581.43a13.74,13.74,0,0,0,3.08,6.44,14.39,14.39,0,0,1,3.19,6.25,26.67,26.67,0,0,0,5.37,5.88c2.75,1.94,3.9,3,4.79,4.37a21.5,21.5,0,0,0,7.84,7c4.69,2.62,26.59,5.73,27.54-4.65,0,0,2.89,7.06-9.86,8.25,0,0-15.51,2.06-25.1-8.25,0,0-2.69-4.22-5.48-5.51a49.23,49.23,0,0,1-9.17-5S346.74,591.55,347.63,581.43Z" transform="translate(-220.47 -162.93)"/><path class="cls-16" d="M348.33,576.67s-2.75,11.83,1.5,19.58a26.48,26.48,0,0,0,7.75,4.25,14.71,14.71,0,0,1,6.5,5.75s7.5,10.5,25.5,8.75-29.69-14.61-30.82-28.87c0,0,0-1.5,3.61-4.4l-7.67,4.65Z" transform="translate(-220.47 -162.93)"/><path class="cls-5" d="M353.51,580.38a2.38,2.38,0,0,0,1.83-1.37c-2.25-.5-2.44-4-2.44-4-5.93-16.14-8.09-33-8.84-44.87l-6.75-2.58c-1.22,19.45,11,49.11,11,49.11,3.38,12.79,7.08,10.67,7.08,10.67a28.72,28.72,0,0,1,7.49-5.9C355.48,584.86,353.51,580.38,353.51,580.38Z" transform="translate(-220.47 -162.93)"/><path class="cls-5" d="M246.83,582.51c3.37-17,6.16-51.7,6.16-51.7s-3.4-1.8-6-3.55c0,0-3,36.58-7.46,56.75l6.66,1.52a22.25,22.25,0,0,1,4.38,2.55A16.61,16.61,0,0,0,246.83,582.51Z" transform="translate(-220.47 -162.93)"/><path class="cls-7" d="M260.9,587.34s.05,1.16-1.51,3.66-2.7,3-3.43,7.3a20.88,20.88,0,0,1-3,4.51s-4.64,6.26-5.82,8.58-12.56,8.81-25.86,3a7.16,7.16,0,0,0,2.12,2.06s13.82,5.78,24.76-4.58c0,0,3.78-7.61,8.53-10.28,0,0,4.37-2.54,5.62-4.73A27.92,27.92,0,0,0,260.9,587.34Z" transform="translate(-220.47 -162.93)"/><path class="cls-16" d="M250.56,588.07a7.61,7.61,0,0,0-9.13,2.93c-3.6,5.25-10.85,11.5-14.1,15.75s-3.5,7.51,0,10.76c0,0-12-1.09-4.25-11.55,0,0,13.37-11.46,16.44-22C239.52,584,246.29,584.15,250.56,588.07Z" transform="translate(-220.47 -162.93)"/><path class="cls-2" d="M253,602.81s-1.15-4.95-5.65-6.88l-1.62,2.38s3.6,1.93,5.2,7.37Z" transform="translate(-220.47 -162.93)"/><path class="cls-2" d="M249.93,607.07s-1.76-5.64-4.93-7.35L243.33,602a17.44,17.44,0,0,1,4.87,7.63Z" transform="translate(-220.47 -162.93)"/><path class="cls-2" d="M247.17,611.4s-1.83-5.6-4.67-8.58l-2.17,2.87a19.31,19.31,0,0,1,4.63,7.7Z" transform="translate(-220.47 -162.93)"/><path class="cls-2" d="M289.67,257.22s9.42,1,12.88,1.52L302,263l-7.33,12.28-5-.61,8.58-13.23-9-.69Z" transform="translate(-220.47 -162.93)"/></svg>