<svg id="Laag_4" data-name="Laag 4" xmlns="http://www.w3.org/2000/svg" viewBox="0 0 218.7 446.06"><defs><style>.cls-1{fill:#efc2af;}.cls-2{fill:#d1a698;}.cls-3{fill:#1e1e1e;}.cls-4{fill:#97c234;}.cls-5{fill:#7c992a;}.cls-6{fill:#e2e2e1;}.cls-7{fill:#af451e;}.cls-8{fill:#fff;}.cls-9{fill:#cf8d7a;}.cls-10{fill:#dda095;}.cls-11{fill:#a98277;}.cls-12{fill:#2c120d;}.cls-13{fill:#843118;}.cls-14{fill:#111110;}.cls-15{fill:#afafaf;}.cls-16{fill:#676766;}.cls-17{fill:#cfcece;}.cls-18{opacity:0.25;}</style></defs><title>volleyballster</title><path class="cls-1" d="M79.33,399.33a352,352,0,0,0-23.33,52s-5,14.23-7.67,22.28v16.72l-3,12-.87-.71s1.25,14.75.63,25.75l9.63,9.88,16.75-7.5s6.5-16.25,5-33.12l-3.75-5,5.5-7.25,3.25-.37a13.74,13.74,0,0,0,6.88-6.37c2.75-5,13.25-19.37,17.75-23.12,0,0,18.25-22.25,22.75-29.25l-2-9.75-30.5-11.67Z" transform="translate(-22.63 -168.77)"/><path class="cls-2" d="M168.88,335.09s-3-6.26-4.71-8.09l-1.9,6,4.56,3.67Z" transform="translate(-22.63 -168.77)"/><path class="cls-1" d="M125.33,408s-3.46,16,7.44,43c0,0,4.56,13.92,4.89,24a34.81,34.81,0,0,0,0,7.54L146,505.83l-.83,9.33s1.17,17,.83,29l12.67,8.67,11.5-5.67s8.5-26.5,4.5-43l-6.33-16.5,3.5-4.67s.81-16.67,3.9-28S184,413.33,184,413.33l-20.83-9.5Z" transform="translate(-22.63 -168.77)"/><path class="cls-3" d="M87.58,382.75s-4.25,8.25-8.25,16.58A210.85,210.85,0,0,1,99,409.67c9.33,5.67,26.33,10.67,26.33,10.67s-1.33-7,0-12.33c0,0,17,13.33,43.67,7.5,0,0,10-2.5,15-2.17a8.68,8.68,0,0,0,1.67-7.33s2-7.33-1.67-17.67c0,0-2.5-5-1.42-14.83L139,370.33Z" transform="translate(-22.63 -168.77)"/><path class="cls-4" d="M154.08,240a163.6,163.6,0,0,1,23,8.43s61,43.07,64.25,73.32c0,0-23,22-52,30.25,0,0-3.75-9.14-8.75-14.07,0,0,8.25-5.43,14.75-7.68,0,0,5.5-2.51,8.5-5.26a69,69,0,0,1,7.75-8.68s-16-13.07-27-23.82c0,0-4-4.16-7.25,2.29,0,0-4,4.46-5.25,9.46a12.29,12.29,0,0,1-2.75,5.8A28.63,28.63,0,0,1,166.58,325l-2.25,7.26,12.75,22.25s5.25,9.25,5.5,19c0,0-45,29.25-95,9.25a40.2,40.2,0,0,1,3.25-9.25,4.86,4.86,0,0,1,1-7s1.64-22.83,1.5-36.5l-1-18.2L92.08,331s2,3.44-.75,4.09c0,0,1.5,3.41-1.25,3.91,0,0,2.13,1.88-.37,2.5a6.42,6.42,0,0,1-1,4.63s-1,6.88-5.87,25c0,0-1.83,10.67-2.5,15.5,0,0,.33,2.82-1.83,3.08H65.17s-1.5-.41,0-4.08a134.92,134.92,0,0,0,.17-16.33s-1.33-20.5,1.5-32.5a2,2,0,0,1-.5-3.17s-2-1.33,1.33-3.33c0,0,5.17-54.5,17.67-78.17a59.07,59.07,0,0,1,16.5-9.83Z" transform="translate(-22.63 -168.77)"/><path class="cls-5" d="M80.33,386.67c.67-4.83,2.5-15.5,2.5-15.5,4.83-18.17,5.88-25,5.88-25a6.42,6.42,0,0,0,1-4.62c2.5-.62.38-2.5.38-2.5,2.75-.5,1.25-3.91,1.25-3.91,2.75-.66.75-4.09.75-4.09l.18-13.86h0l-2.68-5.39v-18.5l12.75-34-2-15.43a5.82,5.82,0,0,0-2.49.29,62.06,62.06,0,0,0-10.42,6.35c3.09,9.46.5,15.82.5,15.82S86.08,279,84.08,296.67,81,331.33,81,331.33a25.2,25.2,0,0,1,5.5,3.92,29.48,29.48,0,0,0-6.08-2.33c-9.42-2.42-13.08-.08-13.08-.08,3.75-1,9.75.67,9.75.67-3-.75-7.25.5-7.25.5a16.86,16.86,0,0,1,8.25,1.09s3.25,9.16,1.25,22.52a220.91,220.91,0,0,0-2.25,24.88c-.25,3-5.33,2.75-5.33,2.75,5.83.75,7,2.75,7,2.75-.5,1.5-.25,1.74-.25,1.74C80.67,389.49,80.33,386.67,80.33,386.67Z" transform="translate(-22.63 -168.77)"/><path class="cls-6" d="M117.75,271.55l4-5,10.52-.23,3.92,4.95a94.67,94.67,0,0,0-1,10.37l-13.24,9.86s7.47,0,10,.44l.17-2.4,3,.38a43,43,0,0,0-.51,6.1,148.71,148.71,0,0,0-17.63-.86,30.52,30.52,0,0,1,.56-6.94l14.33-10.32.46-5.18L130,269.66l-6.26.51-3.26,4.66Z" transform="translate(-22.63 -168.77)"/><path class="cls-5" d="M171.58,275.69c-6.75,1.69-14.8-1.36-14.8-1.36l1.12,4.58a104.1,104.1,0,0,1-17.08-19.67s12.5,21.5,2,43S131.35,339,131.35,339c-4,32,26.23,26.75,26.48,35s-20.76,14.86-21.21,15a117.52,117.52,0,0,0,46-15.5c-.25-9.75-5.5-19-5.5-19l-12.75-22.25,2.25-7.26A28.63,28.63,0,0,0,169.33,310a12.25,12.25,0,0,0,2.74-5.74h0v-.05c1.25-5,5.25-9.46,5.25-9.46q.15-.3.3-.57l.1-.16.21-.35.13-.19.18-.26.14-.19.17-.22.16-.18.15-.17.17-.16.14-.14.18-.15.13-.11.19-.13.12-.08.2-.12.11-.06.21-.1.09,0,.22-.08.08,0,.23-.06H181l.24,0h0l.25,0h.3l.26,0a4.8,4.8,0,0,1,2.5,1.29c11,10.75,27,23.82,27,23.82l1.6-1.44C196.53,302.49,178.33,274,171.58,275.69Z" transform="translate(-22.63 -168.77)"/><path class="cls-7" d="M144.08,172.63s-3.75-5.25-14.25-3.5-21,11-23.25,30.13-6.12,26.5-8.87,42.38c0,0-.75,4.5-4.87,5.63,0,0,1.75,1.88,4.25,0,0,0-7.62,9.38-13,32.63a16.38,16.38,0,0,1-2.87,7.75,22,22,0,0,0-4.12,11.75s2.25-7.25,5.13-11c0,0-3.87,14.88-1,26.38,0,0,.5,2.5,4,3.25a3.46,3.46,0,0,1-.5-2.5,16.15,16.15,0,0,0,5.38,2.5,2.18,2.18,0,0,1-.37-2.25s2.63.75,3.13,2.25-.12.63-.12.63a18.32,18.32,0,0,0,.25-8.87,2.07,2.07,0,0,1,1,1.88,14.4,14.4,0,0,0-1.5-7.25s-1-2.12-.12-6.75c0,0,2.5,5.5,2.63,10.13,0,0,1.13-3.87-.62-10.12,0,0-1-8.75,2.5-14a26.26,26.26,0,0,1,.13,7s-.75,4.88-.12,7c0,0,.63-6.62,1.25-9.62,0,0,.75-3.75,0-5.5,0,0,1.25-6.62,4.75-10.5s14.63-12,17.25-23l3.88-.87,15.25-.62a39.11,39.11,0,0,0-4.12,21.75c1.38,12.13,3.38,11,3.13,19.25,0,0,.69-6.22-1.25-16.37a27.7,27.7,0,0,1,.63-11.25s-.62,7.13.38,11.5a40,40,0,0,1,.88,6s-.25-2.87-.5-9c0,0,.13-7,1-10.5,0,0-.62,4.38,2.38,10.88,0,0,1.63,9.63-1.12,18.25a65.27,65.27,0,0,0-1.87,25.38s0-13.75,2.25-22.25c0,0,2.63-6.5,3.13-9.87a42.39,42.39,0,0,1,1.63,14.5c-.5,8.13-4.87,19-6.25,21,0,0,5.63-7.37,7.13-16.25a42.92,42.92,0,0,1-3.12,14.63s4.75-9.25,5.5-17a26.43,26.43,0,0,0,1.25,7.38c1.13,2.75-.25,7.5-2.75,11a11.8,11.8,0,0,0,4.63-8.12s2.25,4,.75,7.63a14,14,0,0,0,4.38-9.5s.88,6.38-1.5,10.75a17.23,17.23,0,0,0,4-8.12,87.11,87.11,0,0,0,1.38-30.62c-2.25-17-5.12-14.37-4.37-39.75s.63-40.75.63-40.75S156.46,170.88,144.08,172.63Z" transform="translate(-22.63 -168.77)"/><path class="cls-1" d="M112.33,209.5s-1,8.5,3.63,12.75a29.56,29.56,0,0,1,3.24,3.13,24.8,24.8,0,0,1,1.88,2.63,128.41,128.41,0,0,0,1,15.25,14,14,0,0,1-2,5.75s8.25,4.13,19.12-1.5a153.07,153.07,0,0,1,7.38-14.87s-.12-6.5,0-12.12a84.25,84.25,0,0,0,1.63-8.62s1,1.63,2.25-.5a84.7,84.7,0,0,1-.87-15.37s-.75-9.5-6.12-10.87c0,0-4.37-2.5-3.87-6,0,0-8.25-3.12-13.62,0C126,179.13,116.71,190.75,112.33,209.5Z" transform="translate(-22.63 -168.77)"/><path class="cls-2" d="M121.08,228s6.25,2.33,11.58-.83c0,0,6.33-1.83,9.83-5.17,0,0,2.67-3,3.33-10,0,0,2-9.67-.67-11,0,0,3.08-10.58-1.71-15.87,0,0,5,.71,6.13,10.88a94.19,94.19,0,0,0,.88,15.38s-1,2.13-2.25.5a66.67,66.67,0,0,1-1.62,8.63v12.13a146.3,146.3,0,0,0-7.37,14.88s4.94-14.1,5.71-24.17C144.92,223.33,133.67,235.75,121.08,228Z" transform="translate(-22.63 -168.77)"/><polygon class="cls-8" points="96.82 45.36 99 45.36 104.08 45.01 108.72 45.33 111.66 45.36 112.92 45.2 111.71 47.04 108.04 49.4 101.87 49.9 98.45 48.48 97.75 46.9 96.98 46.05 96.49 45.43 96.82 45.36"/><path class="cls-9" d="M118.83,214.1a8.54,8.54,0,0,0,3.44-.41c2.19-.62,9.87.07,11.19.22a5.59,5.59,0,0,0,2.31-.13s-.75,1-3.75.66-8.37-.44-10.44.06A7.54,7.54,0,0,1,118.83,214.1Z" transform="translate(-22.63 -168.77)"/><path class="cls-10" d="M119.12,214.2a7.42,7.42,0,0,1,1.65,3.17c.38,1.81,5.5,4.81,11.37.75a21.75,21.75,0,0,0,3.63-4.34,12.22,12.22,0,0,1-8.47,3.84c-5.22.06-6.22-1.31-6.22-1.31A3.89,3.89,0,0,0,119.12,214.2Z" transform="translate(-22.63 -168.77)"/><path class="cls-2" d="M136,215.25s.44-1.5-1.69-3.37a7.6,7.6,0,0,1-1.33-1.67,5.36,5.36,0,0,0,1.13,2.52C135,213.63,135.43,213.58,136,215.25Z" transform="translate(-22.63 -168.77)"/><path class="cls-2" d="M119.34,215.63a4.78,4.78,0,0,1,0-3.5,11.38,11.38,0,0,0,.9-2.44,10.69,10.69,0,0,1-1.62,2.38C118.05,212.44,118.07,215,119.34,215.63Z" transform="translate(-22.63 -168.77)"/><path class="cls-11" d="M129.71,206.44s1.85.31,1.64,1.81-1,2-2,2c0,0,.82-.31,1-1.89S129.71,206.44,129.71,206.44Z" transform="translate(-22.63 -168.77)"/><path class="cls-11" d="M128.33,210.21a.63.63,0,0,0,0-1.15s-2.06-.77-1.31,1.15A1.11,1.11,0,0,0,128.33,210.21Z" transform="translate(-22.63 -168.77)"/><path class="cls-11" d="M123.39,208.32c.09-.88.88-2.2.63-3.95a9,9,0,0,1-.62,2.06,2.62,2.62,0,0,0-.5,2.47v0c-.17.07-.73.33-.57.76s1.27.52,1.36.52c.19.15.75,0,.75,0A1.9,1.9,0,0,1,123.39,208.32Z" transform="translate(-22.63 -168.77)"/><path class="cls-11" d="M121.77,209.69a1.91,1.91,0,0,1,.47-2.29S120.15,207.69,121.77,209.69Z" transform="translate(-22.63 -168.77)"/><path class="cls-7" d="M141.58,195.67a7.32,7.32,0,0,0-2.75-3.42s-5.83-.25-9,1.08c0,0-.83.33-.5,1s1.67.33,1.67.33a26.62,26.62,0,0,1,7.08-1.08S139.67,193.5,141.58,195.67Z" transform="translate(-22.63 -168.77)"/><path class="cls-7" d="M121.08,193.33s1.24.17,1.16,1.25-2,0-2,0-3.07-.69-3.91-.38l.67-1.28S118.83,193,121.08,193.33Z" transform="translate(-22.63 -168.77)"/><path class="cls-12" d="M130.65,198.81s1-2.06,4.77-1.81,3.79,1.06,4,2.25C139.46,199.25,136.15,195.81,130.65,198.81Z" transform="translate(-22.63 -168.77)"/><path class="cls-12" d="M122.3,198.75s-1.69-2.67-6-1.77l-.29.74S118.21,196.25,122.3,198.75Z" transform="translate(-22.63 -168.77)"/><circle class="cls-12" cx="112.29" cy="30.03" r="1.39"/><path class="cls-6" d="M107.1,266.82l7.77.05s-4.52,12.71-4.57,24.87l2.94.3a14.86,14.86,0,0,0-.3,3.53s-8.76-.41-10.17-.31a19.2,19.2,0,0,1,.23-3.94s1.29,0,2.53.08a77.57,77.57,0,0,1,3.34-20.61l-3,.08A22.53,22.53,0,0,1,107.1,266.82Z" transform="translate(-22.63 -168.77)"/><circle class="cls-12" cx="96.62" cy="29.98" r="1.34"/><path class="cls-13" d="M115.06,200.19s-8.22,7.31-7.72,24.56,12,20-9.5,43.36c0,0-8.25,6.65-10.25,20.4a24.07,24.07,0,0,1,5-8.62,39.25,39.25,0,0,0-3.5,16.78s3.5-13.14,5.75-16.78c0,0,4.7-8.66,3.25,2.61,0,0,1.71-7.53,4.75-10.5,0,0,15.75-12.81,17.25-23a8.09,8.09,0,0,0,2-5.75s-1-9.5-1-15.25c0,0-3-4.5-5.12-5.75,0,0-4.36-5.81-3.63-12.75C112.33,209.5,114.42,201.95,115.06,200.19Z" transform="translate(-22.63 -168.77)"/><path class="cls-13" d="M146.58,232.63s4.38-6.25,4.63-17.37c0,0,3.5-23.35-4.62-27.92,0,0,2.75,5,3,8.67,0,0,.29,8.53.88,15.38,0,0-1.12,2.25-2.25.5,0,0-.75,5.25-1.62,8.63Z" transform="translate(-22.63 -168.77)"/><path class="cls-13" d="M126,179.13s4.37-9.46,14.54-5a6.6,6.6,0,0,0-.92,5A15,15,0,0,0,126,179.13Z" transform="translate(-22.63 -168.77)"/><path class="cls-2" d="M121.15,186.62s5.72-7.38,18.53-5.91l-.1-1.58a15.33,15.33,0,0,0-13.62,0A62.94,62.94,0,0,0,121.15,186.62Z" transform="translate(-22.63 -168.77)"/><path class="cls-1" d="M180.58,337.93a17.72,17.72,0,0,0-3.92,2.24s-4.17-.33-5.33-3c0,0-4.83-4.5-8.67-5.83a55.11,55.11,0,0,0-5.33-7.33,41.75,41.75,0,0,0-7.33-2.33,41.42,41.42,0,0,0-5,1.5,1.7,1.7,0,0,0-1.17,2.67c1.17,2.17,5,1,5,1a24.64,24.64,0,0,0,4.08,1.33s2.56,2.5,1.49,4.67l-5.49-.42s-2.5.33-6.83,1.33c0,0-6.17,1.25-5.42,4.08.45,1.71,6.42.6,7.92.1l5.25.07,4.57.67-5.07.33-6.5,1.17s-5.83.5-5.83,2.5,3.17,1.83,6,1.83h11.41l-4.74,1.33-5,1s-4,.17-3.17,2,4,2,6.83,1.67a98.54,98.54,0,0,1,10.67.14s7,4.2,12,5.7l7.33-1.83a94.14,94.14,0,0,0,11-2.5S185.67,342.7,180.58,337.93Z" transform="translate(-22.63 -168.77)"/><path class="cls-1" d="M65.08,388s1-3.25,6.67-2.75,7,2.75,7,2.75a17.46,17.46,0,0,0-.58,8c.79,4,4,5.42,3.83,14s.58,10.67.58,10.67.33,3-2,2.67-3.25-1.67-3.92-5.67.25-4.75-.92-9.33c0,0-.08,4.17-.58,7.92,0,0,.5,2.33.83,4.5s3.33,5.33,3.33,5.33,3.25,1.58,1.92,4.58c0,0-2.25,1.58-4.75-.83a7,7,0,0,1-7.58-2.92,11.6,11.6,0,0,1-5.25-8.5c-.67-5.92,1.75-19.08,1.75-19.08A61.84,61.84,0,0,0,65.08,388Z" transform="translate(-22.63 -168.77)"/><path class="cls-2" d="M66,507.54c.45,14.37-3.79,24.05-3.79,24.05l3.11.93,6.19-2.77s6.5-16.25,5-33.12L68,496Z" transform="translate(-22.63 -168.77)"/><path class="cls-2" d="M174.67,504.17l-1.28-3.33h-1.72l-7,11s.17,20.33-3.33,38.17l8.83-2.83S178.67,520.67,174.67,504.17Z" transform="translate(-22.63 -168.77)"/><path class="cls-3" d="M81.46,484a76,76,0,0,0-13.37-5.67c-7.5-2.33-15.49-6-17.62-11a1.35,1.35,0,0,0-2,.53c-.92,1.42-2.83,3.92-2,6,0,0-2.33-.25-2.83,4.67s-1.33,6.08,0,12.67-2.42,5.67,1.75,11.17,14.08,9.08,23.67,3.83,7.83-12.58,7.83-12.58,2.67-2.5,1.75-5.25c0,0-.33-1.42.92-1.5S81.33,485.33,81.46,484Z" transform="translate(-22.63 -168.77)"/><path class="cls-3" d="M173.08,483.5s-5.71-5-20-1.42c0,0-9.42,2.08-15.42.42,0,0-1.17-.25-.42,1.67s.08,2.67.08,2.67a1.79,1.79,0,0,0,0,1.83c.58.92-.33,3-.33,3s-1.08,2.42.75,3.42c0,0,1.08.08.83,4.83a11.21,11.21,0,0,0,2.92,7.92,1.41,1.41,0,0,0,1.33.42c1-.08.42,1.67.42,1.67a7.16,7.16,0,0,0,.67,2.83c.67,1.33,5,6.5,14.58,3.42s18.33-8.5,17.33-16.17a3.49,3.49,0,0,0-2.08-2.5,8.2,8.2,0,0,0-1.42-6.58s1.42-.5.92-3.33A10.65,10.65,0,0,1,173.08,483.5Z" transform="translate(-22.63 -168.77)"/><path class="cls-3" d="M146,543.42s8.9,6.17,24.15,3.75c0,0,1.42,0,.58,2.17s-8.67,22.75-9.08,30.17a7.44,7.44,0,0,0,0,1.81l-10,4.31-9.25-6,.75-6.5s3-8.12,1.77-26c0,0-1-5.25.08-4.92l1,.33Z" transform="translate(-22.63 -168.77)"/><path class="cls-3" d="M71.75,529s1.16-.14.66,1-7.33,21.92-5.75,31.75l.79,7.63-12.79,1.79-5.33-2L43,560.58s3.17-19.42,1-35.42c0,0-.31-1.33,1.22-1.33l-.14,1.83s4.12,5.33,12.69,5.83S70.67,530.61,71.75,529Z" transform="translate(-22.63 -168.77)"/><path class="cls-3" d="M57.77,531.5" transform="translate(-22.63 -168.77)"/><path class="cls-14" d="M69,530.66a16,16,0,0,1-6.82.93,1.19,1.19,0,0,1,.67,1.53c-.37,1.13-4.67,21-4.33,30a12.19,12.19,0,0,1,0,5.35l2.4,1.78,6.58-.92-.79-7.62c-1.58-9.83,5.25-30.58,5.75-31.75.24-.55.1-.81-.11-.93l-.55-.1A5.15,5.15,0,0,1,69,530.66Z" transform="translate(-22.63 -168.77)"/><path class="cls-14" d="M170.17,547.17a43.69,43.69,0,0,1-8.39.53h0a2.36,2.36,0,0,1,.7,2.3c-.37,1.38-6.37,21.63-8.87,34.75h.09l8-3.44a7.44,7.44,0,0,1,0-1.81c.42-7.42,8.25-28,9.08-30.17S170.17,547.17,170.17,547.17Z" transform="translate(-22.63 -168.77)"/><path class="cls-15" d="M57.77,588.13s3.69,2,9.81-3.37,6.79-4.87,5-10.25a28.24,28.24,0,0,0-4.21-8.25,9.72,9.72,0,0,1-.62-3.37c0-1.87-1.13-1.77-1.13-1.77s1.88,7.89-6,7.52-10.12-1-11.25.54c0,0,0-9.92-5-9s-4.25-.05-4.25-.05-3-.2-1,3.3S40,569,40,569a82.35,82.35,0,0,0-5.87,15.5s-4.38,5.25-8.13,9.13-5.62,5.88,1.5,9.75,21.88-1.12,24.25-6A51.7,51.7,0,0,1,57.77,588.13Z" transform="translate(-22.63 -168.77)"/><path class="cls-15" d="M122.08,603.75s-3.5,1-1.37,5.25c0,0,7,8,25.12,5.25a12.41,12.41,0,0,0,7.63-4.25c3-3.75,11.75-2.69,10-10.28a83.16,83.16,0,0,1-1.25-11.22c0-4.25,1.53-6.62-.61-7.87a8.85,8.85,0,0,1-6.64,2.62s5.5-4.5.25-5.62a64.15,64.15,0,0,1-12.06-4.5s-2.94-2-3.56.88,2.25,5.18-2.5,13.34c0,0-6.37,7.41-9.37,11.28A17.94,17.94,0,0,1,122.08,603.75Z" transform="translate(-22.63 -168.77)"/><path class="cls-5" d="M184.75,343.26c-.18-.3-.32-.55-.41-.71l.24.45Z" transform="translate(-22.63 -168.77)"/><path class="cls-5" d="M184.34,342.55l-.11-.2Z" transform="translate(-22.63 -168.77)"/><path class="cls-5" d="M229.82,297.39c3.15,5.88,2,6.77,2,6.77a7.34,7.34,0,0,0-3.83,1.67c4.67-.5,6.33,2,6.33,2a22.65,22.65,0,0,0-17.83,5A26.13,26.13,0,0,1,232,310c-5.84-.29-8.17,1.75-8.17,1.75a9.5,9.5,0,0,1,8.17.87c-6.83,4.5-9.33,12-13.83,16s-12.5,7.17-12.5,7.17c-2.17-1.33-9-3.17-9-3.17a32.3,32.3,0,0,1,7.5,4c1.33.83-1.33,2.33-1.33,2.33-6.67,4.33-10.83,5.5-11.5,3.48s-3.83-4.55-3.83-4.55c2.31,2.81,4.33,8.57,1.83,9.07-1.65.33-3.34-1.8-4.3-3.29a62.89,62.89,0,0,1,4.3,8.29c29-8.25,52-30.25,52-30.25C240.52,314.15,236,305.73,229.82,297.39Z" transform="translate(-22.63 -168.77)"/><path class="cls-5" d="M108.08,300.22s8-2.28,15.5,0Z" transform="translate(-22.63 -168.77)"/><path class="cls-2" d="M189.33,352a58.7,58.7,0,0,0-3.65-7.35s1.38,5.24-5.85,7.35c0,0-1.62.25-1.75-2.75s.38-3.87-1-7.75c0,0,.63,7.88-.87,11.25,0,0-3.37,2.25-5,2.13,0,0-9.62-3.37-12-5,0,0-6.71-.89-10.75-.12,0,0-5.48.76-7.05-1.56h0a1,1,0,0,0,.09.64c.83,1.83,4,2,6.83,1.67a98.53,98.53,0,0,1,10.67.14s7,4.2,12,5.7l7.33-1.83A94.14,94.14,0,0,0,189.33,352Z" transform="translate(-22.63 -168.77)"/><path class="cls-2" d="M149.15,343.94c-5.74.25-11.67.75-12.09-1.59h0v.71c.42,1.57,3.32,1.43,5.94,1.43h11.41l-2.22.62h0a39.63,39.63,0,0,1,5.21-.63S154.9,343.69,149.15,343.94Z" transform="translate(-22.63 -168.77)"/><path class="cls-2" d="M150.21,337.31a33.49,33.49,0,0,0-8.82.68c-3.47.61-4.56-1.18-4.63-1.31a1.72,1.72,0,0,0-.09,1.15c.45,1.71,6.42.6,7.92.1l5.25.07,4.57.67h2.11A15.53,15.53,0,0,0,150.21,337.31Z" transform="translate(-22.63 -168.77)"/><path class="cls-2" d="M178.52,410.84l-20.84,6.1s-4,24.07-3.28,41.23-.1,23.63-.1,23.63,11.19-3,17.52,1.21c0,0,.81-16.67,3.9-28S184,413.33,184,413.33Z" transform="translate(-22.63 -168.77)"/><path class="cls-2" d="M156.52,333.06a8,8,0,0,0-2.94-5.37s-3.69-1.25-4.56-1.62c0,0-4,1.58-5.51-1.37a2.3,2.3,0,0,0,.32,1.14c1.17,2.17,5,1,5,1a24.64,24.64,0,0,0,4.08,1.33s2.56,2.5,1.49,4.67Z" transform="translate(-22.63 -168.77)"/><path class="cls-14" d="M185.67,406s2-7.33-1.67-17.67c0,0-2.5-5-1.42-14.83,0,0-7.83,8.67-46,15.5,0,0,25.21-2.67,24.21,7s-2.3,10-3.15,20.93A63,63,0,0,0,169,415.5s1.25-.31,3.09-.7A30.2,30.2,0,0,1,184,413.33,8.68,8.68,0,0,0,185.67,406Z" transform="translate(-22.63 -168.77)"/><path class="cls-14" d="M125.33,408s2-8.69,6.37-12.78c0,0-10.73,5.75-15.74,22l9.37,3.1S124.17,411.82,125.33,408Z" transform="translate(-22.63 -168.77)"/><path class="cls-2" d="M88.33,477.63c2.75-5,13.25-19.37,17.75-23.12,0,0,13.48-16.44,20.12-25.5h0l-.87-8.67-9.37-3.1a347,347,0,0,1-28,44.43s-9.7,15.74-13.85,18.87L81.46,484A13.74,13.74,0,0,0,88.33,477.63Z" transform="translate(-22.63 -168.77)"/><path class="cls-2" d="M83.5,425.17c1.33-.67,1.17-3.5,1.33-13,0-2.64-.18-6.4-.53-10.47-.07-.78-4.89-1.57-5-2.36l-11.5,26.8,11.5-26.8c.79,4,2.83,2.08,2.67,10.67s.58,10.67.58,10.67.33,3-2,2.67-3.25-1.67-3.92-5.67.25-4.75-.92-9.33c0,0-.08,4.17-.58,7.92,0,0,.5,2.33.83,4.5s3.33,5.33,3.33,5.33,3.25,1.58,1.92,4.58c0,0-2.25,1.58-4.75-.83a7,7,0,0,1-7.58-2.92,8.24,8.24,0,0,1-1.08-.78c3.91,6.28,15.17,6,17,5S83.5,425.17,83.5,425.17Z" transform="translate(-22.63 -168.77)"/><path class="cls-2" d="M76.5,429.83a48.94,48.94,0,0,1-5.5-6.67,27.66,27.66,0,0,1-3.17-7.64,22.49,22.49,0,0,0,2.5,8.23,26.26,26.26,0,0,0,5.25,6.08Z" transform="translate(-22.63 -168.77)"/><path class="cls-2" d="M68.92,426.92a28.86,28.86,0,0,1-4.08-8.83,56.82,56.82,0,0,0,3,8.05Z" transform="translate(-22.63 -168.77)"/><path class="cls-14" d="M74.16,480.54c2.07.83,2.55,5.09,1.18,6.09s-7.37,0-7.37,0c4.38,1.38,6.19,1.25,6.19,1.25,1.57,4.13-2.69,5.75-2.69,5.75-1.25,2-8,1.5-8,1.5a12.35,12.35,0,0,0,8,0s-2.12,7.13-9.3,8.38-14.45-2.25-14.45-2.25c3.75,3.5,11.13,4,13.38,4a3.35,3.35,0,0,1,3,1.26c-8.48,2.81-17.88-3.19-18-3.26,4.52,5,13.86,7.88,22.9,2.93,9.58-5.25,7.83-12.58,7.83-12.58s2.67-2.5,1.75-5.25c0,0-.33-1.42.92-1.5s1.83-1.5,2-2.83A72.09,72.09,0,0,0,74.16,480.54Z" transform="translate(-22.63 -168.77)"/><path class="cls-14" d="M173.75,497.5a8.2,8.2,0,0,0-1.42-6.58s1.42-.5.92-3.33a10.65,10.65,0,0,1-.17-4.08s-5.4-4.67-18.76-1.69c.1.16,3.52,5.74,4.14,9.19,0,0-4.12-.25-6.62,1,0,0,3.75.38,6.63,1,0,0,3.63,6.25,3.75,11,0,0-2.12,1.88-7,2.75,0,0,4.75.88,8.13-.87a21.45,21.45,0,0,1,1.33,7.89h0c6.83-3.2,12-7.8,11.17-13.77A3.49,3.49,0,0,0,173.75,497.5Z" transform="translate(-22.63 -168.77)"/><path class="cls-16" d="M155.46,601.13s-2-4.62-8.5-2.87a27.84,27.84,0,0,0,6-7,4.23,4.23,0,0,1,.63,3.38,17.86,17.86,0,0,0,8.65-7,24,24,0,0,1,.07,3.11s-6.6,2.76-5.59,7.63Z" transform="translate(-22.63 -168.77)"/><path class="cls-17" d="M153.46,610c3-3.75,11.75-2.69,10-10.28,0,0-.21-1.18-.46-2.87-1.83,1.67-6.75,6.21-7.83,7.91-1.33,2.09-8.17,4.74-8.17,4.74-13.33,2.67-15.33-2.17-15.33-2.17a9.88,9.88,0,0,0-7.95-4.65,10.49,10.49,0,0,1-1.64,1.07s-3.5,1-1.37,5.25c0,0,7,8,25.12,5.25A12.41,12.41,0,0,0,153.46,610Z" transform="translate(-22.63 -168.77)"/><path class="cls-18" d="M152.08,584a25.44,25.44,0,0,1-6.25,11.93,124.76,124.76,0,0,0-9.5,11.07s-5.5,1.77-6.25,2.63-2.92,3.06,0,4.21a39.77,39.77,0,0,0,15.72.41,12.41,12.41,0,0,0,7.63-4.25c3-3.75,11.75-2.69,10-10.28a83.16,83.16,0,0,1-1.25-11.22c0-4.25,1.53-6.62-.61-7.87a8.85,8.85,0,0,1-6.64,2.62s5.5-4.5.25-5.62C155.21,577.63,157.33,581,152.08,584Z" transform="translate(-22.63 -168.77)"/><path class="cls-17" d="M67.58,584.75c6.13-5.37,6.79-4.87,5-10.25a32.39,32.39,0,0,0-3.12-6.68c-2.24,6.49-12.56,15.27-12.56,15.27A55.19,55.19,0,0,1,48,596.16c-8.75,6.79-16.2,3.84-16.2,3.84-4.31-4.64-8.21-3.78-8.21-3.78-1.79,2.39-1.51,4.24,3.84,7.15,7.13,3.88,21.88-1.12,24.25-6a51.7,51.7,0,0,1,6.06-9.25S61.46,590.13,67.58,584.75Z" transform="translate(-22.63 -168.77)"/><path class="cls-16" d="M55.46,583.5s-2.87-3.68-10-1.46c0,0,5.25-4.54,6.63-8a7.33,7.33,0,0,1,.13,3.63A38,38,0,0,0,64.08,569a5,5,0,0,1,0,2.88s-7.5,2.75-6.31,8.25Z" transform="translate(-22.63 -168.77)"/><path class="cls-18" d="M67.58,584.75c6.13-5.37,6.79-4.87,5-10.25a28.24,28.24,0,0,0-4.21-8.25,9.72,9.72,0,0,1-.62-3.37c0-1.87-1.13-1.77-1.13-1.77s1.88,7.89-6,7.52l-2.1-.11h0s2.35.13,1.85,3.94-1.13,6.66-2.56,9S49.17,599.36,43,602.68l.51.29c3.95-1.43,7.19-3.52,8.2-5.59a51.7,51.7,0,0,1,6.06-9.25S61.46,590.13,67.58,584.75Z" transform="translate(-22.63 -168.77)"/></svg>