<svg id="Laag_1" data-name="Laag 1" xmlns="http://www.w3.org/2000/svg" viewBox="0 0 452.6 446.35"><defs><style>.cls-1{fill:#efc2af;}.cls-2{fill:#d1a698;}.cls-3{fill:#1e1e1e;}.cls-4{fill:#97c234;}.cls-5{fill:#7c992a;}.cls-6{fill:#e2e2e1;}.cls-7{fill:#af451e;}.cls-8{fill:#fff;}.cls-9{fill:#cf8d7a;}.cls-10{fill:#dda095;}.cls-11{fill:#a98277;}.cls-12{fill:#2c120d;}.cls-13{fill:#843118;}.cls-14{fill:#111110;}.cls-15{fill:#afafaf;}.cls-16{fill:#676766;}.cls-17{fill:#cfcece;}.cls-18{fill:#010202;opacity:0.25;isolation:isolate;}.cls-19{fill:#fbcf26;}.cls-20{fill:#1e4d9d;}</style></defs><title>volleybalster met bal</title><g id="Laag_4" data-name="Laag 4"><path class="cls-1" d="M298.5,219.25a339.06,339.06,0,0,0-22.2,49.5s-4.8,13.5-7.3,21.2v15.9l-2.9,11.4-.8-.7a209.79,209.79,0,0,1,.6,24.5l9.2,9.4,15.9-7.1s6.2-15.5,4.8-31.5l-3.6-4.8,5.2-6.9,3.1-.4a12.94,12.94,0,0,0,6.5-6.1c2.6-4.8,12.6-18.4,16.9-22,0,0,17.4-21.2,21.6-27.8l-1.9-9.3-29-11.1Z"/><path class="cls-2" d="M383.7,158.15s-2.9-6-4.5-7.7l-1.8,5.7,4.3,3.5Z"/><path class="cls-1" d="M342.3,227.55s-3.3,15.2,7.1,40.9c0,0,4.3,13.2,4.7,22.8a31.73,31.73,0,0,0,0,7.2l7.9,22.2-.8,8.9s1.1,16.2.8,27.6l12,8.2,10.9-5.4s8.1-25.2,4.3-40.9l-6-15.7,3.3-4.4s.8-15.9,3.7-26.6,7.9-39.6,7.9-39.6l-19.8-9Z"/><path class="cls-3" d="M306.4,203.55s-4,7.8-7.8,15.8a197.07,197.07,0,0,1,18.7,9.8c8.9,5.4,25,10.1,25,10.1s-1.3-6.7,0-11.7c0,0,16.2,12.7,41.5,7.1,0,0,9.5-2.4,14.3-2.1a8.54,8.54,0,0,0,1.6-7s1.9-7-1.6-16.8c0,0-2.4-4.8-1.3-14.1l-41.5-3Z"/><path class="cls-4" d="M369.6,67.75a167.22,167.22,0,0,1,21.9,8s58,41,61.1,69.7c0,0-21.9,20.9-49.5,28.8,0,0-3.6-8.7-8.3-13.4,0,0,7.8-5.2,14-7.3a40,40,0,0,0,8.1-5,66.35,66.35,0,0,1,7.4-8.3s-15.2-12.4-25.7-22.7c0,0-3.8-4-6.9,2.2a24.53,24.53,0,0,0-5,9,11.88,11.88,0,0,1-2.6,5.5,26.7,26.7,0,0,1-2.6,14.2l-2.1,6.9,12.1,21.2s5,8.8,5.2,18.1c0,0-42.8,27.8-90.4,8.8a38.09,38.09,0,0,1,3.1-8.8,4.61,4.61,0,0,1,1-6.7s1.6-21.7,1.4-34.7l-1-17.3-.2,18.3s1.9,3.3-.7,3.9c0,0,1.4,3.2-1.2,3.7,0,0,2,1.8-.4,2.4a5.86,5.86,0,0,1-1,4.4s-1,6.5-5.6,23.8c0,0-1.7,10.1-2.4,14.7,0,0,.3,2.7-1.7,2.9H284.9s-1.4-.4,0-3.9a142,142,0,0,0,.2-15.5s-1.3-19.5,1.4-30.9a1.94,1.94,0,0,1-.5-3s-1.9-1.3,1.3-3.2c0,0,4.9-51.8,16.8-74.4a57.29,57.29,0,0,1,15.7-9.4Z"/><path class="cls-5" d="M299.5,207.25c.6-4.6,2.4-14.7,2.4-14.7,4.6-17.3,5.6-23.8,5.6-23.8a6.42,6.42,0,0,0,1-4.4c2.4-.6.4-2.4.4-2.4,2.6-.5,1.2-3.7,1.2-3.7,2.6-.6.7-3.9.7-3.9l.2-13.2h0l-2.5-5.1v-17.6l12.1-32.3-1.9-14.7a5.28,5.28,0,0,0-2.4.3,62.53,62.53,0,0,0-9.9,6c2.9,9,.5,15,.5,15s-1.8,12.1-3.7,28.9-2.9,33-2.9,33a22.25,22.25,0,0,1,5.2,3.7,25,25,0,0,0-5.8-2.2c-9-2.3-12.4-.1-12.4-.1,3.6-1,9.3.6,9.3.6-2.9-.7-6.9.5-6.9.5a15.63,15.63,0,0,1,7.8,1s3.1,8.7,1.2,21.4a204.82,204.82,0,0,0-2.1,23.7c-.2,2.9-5.1,2.6-5.1,2.6,5.5.7,6.7,2.6,6.7,2.6-.5,1.4-.2,1.7-.2,1.7C299.8,210,299.5,207.25,299.5,207.25Z"/><path class="cls-6" d="M335.1,97.75l3.8-4.7,10-.2,3.7,4.7s-.9,6-1,9.9l-12.6,9.4s7.1,0,9.5.4l.2-2.3,2.9.4a45.71,45.71,0,0,0-.5,5.8,140.38,140.38,0,0,0-16.8-.8,27.79,27.79,0,0,1,.5-6.6l13.6-9.8.4-4.9-2.1-2.9-6,.5-3.1,4.4Z"/><path class="cls-5" d="M386.3,101.65c-6.4,1.6-14.1-1.3-14.1-1.3l1.1,4.4A100.53,100.53,0,0,1,357,86.05s11.9,20.5,1.9,40.9S348,162,348,162c-3.8,30.4,25,25.4,25.2,33.3s-19.7,14.1-20.2,14.3a111.39,111.39,0,0,0,43.7-14.7c-.2-9.3-5.2-18.1-5.2-18.1l-12.1-21.2,2.1-6.9a26.7,26.7,0,0,0,2.6-14.2,12,12,0,0,0,2.6-5.5h0a24.53,24.53,0,0,1,5-9,2.19,2.19,0,0,1,.3-.5c0-.1.1-.1.1-.2s.1-.2.2-.3.1-.1.1-.2.1-.2.2-.3.1-.1.1-.2l.2-.2c0-.1.1-.1.1-.2s.1-.1.1-.2l.2-.2.1-.1c.1-.1.1-.1.2-.1l.1-.1c.1,0,.1-.1.2-.1l.1-.1c.1,0,.1-.1.2-.1a.1.1,0,0,0,.1-.1c.1,0,.1-.1.2-.1h.1c.1,0,.1-.1.2-.1h.1c.1,0,.1,0,.2-.1h.9a4.72,4.72,0,0,1,2.4,1.2c10.5,10.2,25.7,22.7,25.7,22.7l1.5-1.4C410,127.15,392.7,100.05,386.3,101.65Z"/><path class="cls-7" d="M360.1,3.65s-3.6-5-13.6-3.3-20,10.5-22.1,28.7-5.8,25.2-8.4,40.3c0,0-.7,4.3-4.6,5.4a2.88,2.88,0,0,0,4,0s-7.3,8.9-12.4,31a15.49,15.49,0,0,1-2.7,7.4,20.51,20.51,0,0,0-3.9,11.2s2.1-6.9,4.9-10.5c0,0-3.7,14.1-1,25.1,0,0,.5,2.4,3.8,3.1a3.6,3.6,0,0,1-.5-2.4,15.57,15.57,0,0,0,5.1,2.4,2.14,2.14,0,0,1-.4-2.1s2.5.7,3,2.1-.1.6-.1.6a17.19,17.19,0,0,0,.2-8.4,2,2,0,0,1,1,1.8,13.34,13.34,0,0,0-1.4-6.9s-1-2-.1-6.4c0,0,2.4,5.2,2.5,9.6,0,0,1.1-3.7-.6-9.6,0,0-1-8.3,2.4-13.3a24.52,24.52,0,0,1,.1,6.7s-.7,4.6-.1,6.7c0,0,.6-6.3,1.2-9.2,0,0,.7-3.6,0-5.2,0,0,1.2-6.3,4.5-10s13.9-11.4,16.4-21.9l3.7-.8,14.5-.6a37.55,37.55,0,0,0-3.9,20.7c1.3,11.5,3.2,10.5,3,18.3,0,0,.7-5.9-1.2-15.6a25.32,25.32,0,0,1,.6-10.7s-.6,6.8.4,10.9a39.36,39.36,0,0,1,.8,5.7s-.2-2.7-.5-8.6c0,0,.1-6.7,1-10,0,0-.6,4.2,2.3,10.3,0,0,1.5,9.2-1.1,17.4a61.31,61.31,0,0,0-1.8,24.1s0-13.1,2.1-21.2c0,0,2.5-6.2,3-9.4a40.52,40.52,0,0,1,1.5,13.8c-.5,7.7-4.6,18.1-5.9,20,0,0,5.4-7,6.8-15.5a40.25,40.25,0,0,1-3,13.9s4.5-8.8,5.2-16.2a24,24,0,0,0,1.2,7c1.1,2.6-.2,7.1-2.6,10.5a11.23,11.23,0,0,0,4.4-7.7s2.1,3.8.7,7.3a13.46,13.46,0,0,0,4.2-9s.8,6.1-1.4,10.2a16.12,16.12,0,0,0,3.8-7.7,84.14,84.14,0,0,0,1.3-29.1c-2.1-16.2-4.9-13.7-4.2-37.8s.6-38.8.6-38.8S371.9,2,360.1,3.65Z"/><path class="cls-1" d="M329.9,38.75s-.9,8.1,3.5,12.1a33.51,33.51,0,0,1,3.1,3,19.74,19.74,0,0,1,1.8,2.5,116.43,116.43,0,0,0,1,14.5,14.53,14.53,0,0,1-1.9,5.5s7.8,3.9,18.2-1.4a141.82,141.82,0,0,1,7-14.1s-.1-6.2,0-11.5a75.49,75.49,0,0,0,1.5-8.2s1,1.5,2.1-.5a77.88,77.88,0,0,1-.8-14.6s-.7-9-5.8-10.3c0,0-4.2-2.4-3.7-5.7,0,0-7.8-3-13,0C342.9,9.85,334.1,20.85,329.9,38.75Z"/><path class="cls-2" d="M338.2,56.35s5.9,2.2,11-.8c0,0,6-1.7,9.4-4.9,0,0,2.5-2.9,3.2-9.5,0,0,1.9-9.2-.6-10.5,0,0,2.9-10.1-1.6-15.1,0,0,4.7.7,5.8,10.3a96.71,96.71,0,0,0,.8,14.6s-.9,2-2.1.5a64.34,64.34,0,0,1-1.5,8.2v11.5a131.84,131.84,0,0,0-7,14.1s4.7-13.4,5.4-23C360.9,51.85,350.2,63.65,338.2,56.35Z"/><polygon class="cls-8" points="336.7 43.15 338.8 43.15 343.6 42.75 348 43.05 350.8 43.15 352 42.95 350.9 44.75 347.4 46.95 341.5 47.45 338.2 46.05 337.6 44.55 336.8 43.75 336.4 43.15 336.7 43.15"/><path class="cls-9" d="M336.1,43.05a8.3,8.3,0,0,0,3.3-.4c2.1-.6,9.4.1,10.6.2a5.66,5.66,0,0,0,2.2-.1s-.7.9-3.6.6-8-.4-9.9.1A6.2,6.2,0,0,1,336.1,43.05Z"/><path class="cls-10" d="M336.4,43.15a7.53,7.53,0,0,1,1.6,3c.4,1.7,5.2,4.6,10.8.7a19.25,19.25,0,0,0,3.4-4.1,11.82,11.82,0,0,1-8.1,3.7c-5,.1-5.9-1.2-5.9-1.2A3.88,3.88,0,0,0,336.4,43.15Z"/><path class="cls-2" d="M352.4,44.15s.4-1.4-1.6-3.2a9.21,9.21,0,0,1-1.3-1.6,4.74,4.74,0,0,0,1.1,2.4C351.5,42.65,351.9,42.55,352.4,44.15Z"/><path class="cls-2" d="M336.6,44.55a4.67,4.67,0,0,1,0-3.3,21.26,21.26,0,0,0,.9-2.3,12.24,12.24,0,0,1-1.5,2.3C335.4,41.55,335.4,44,336.6,44.55Z"/><path class="cls-11" d="M346.4,35.85s1.8.3,1.6,1.7-1,1.9-1.9,1.9c0,0,.8-.3,1-1.8S346.4,35.85,346.4,35.85Z"/><path class="cls-11" d="M345.1,39.35a.61.61,0,0,0,0-1.1s-2-.7-1.2,1.1A.91.91,0,0,0,345.1,39.35Z"/><path class="cls-11" d="M340.4,37.55a11.08,11.08,0,0,0,.6-3.8,7.39,7.39,0,0,1-.6,2,2.59,2.59,0,0,0-.5,2.4h0c-.2.1-.7.3-.5.7s1.2.5,1.3.5a1.58,1.58,0,0,0,.7,0A1.84,1.84,0,0,1,340.4,37.55Z"/><path class="cls-11" d="M338.9,38.85a2,2,0,0,1,.4-2.2C339.3,36.75,337.4,37,338.9,38.85Z"/><path class="cls-7" d="M357.7,25.55a6.93,6.93,0,0,0-2.6-3.2s-5.5-.2-8.6,1c0,0-.8.3-.5,1s1.6.3,1.6.3a24.48,24.48,0,0,1,6.7-1C354.4,23.55,355.9,23.45,357.7,25.55Z"/><path class="cls-7" d="M338.2,23.35s1.2.2,1.1,1.2-1.9,0-1.9,0-2.9-.7-3.7-.4l.6-1.2C334.4,23,336.1,23.05,338.2,23.35Z"/><path class="cls-12" d="M347.3,28.55s1-2,4.5-1.7,3.6,1,3.8,2.1C355.7,29,352.6,25.65,347.3,28.55Z"/><path class="cls-12" d="M339.4,28.45s-1.6-2.5-5.8-1.7l-.3.7C333.4,27.55,335.5,26.15,339.4,28.45Z"/><circle class="cls-12" cx="351.4" cy="28.55" r="1.3"/><path class="cls-6" d="M324.9,93.25l7.4.1s-4.3,12.1-4.3,23.7l2.8.3a15.87,15.87,0,0,0-.3,3.4s-8.3-.4-9.7-.3a18.36,18.36,0,0,1,.2-3.7s1.2,0,2.4.1a73.88,73.88,0,0,1,3.2-19.6l-2.8.1A16.23,16.23,0,0,1,324.9,93.25Z"/><circle class="cls-12" cx="336.5" cy="28.45" r="1.3"/><path class="cls-13" d="M332.5,29.85s-7.8,7-7.3,23.4,11.4,19-9,41.2c0,0-7.8,6.3-9.7,19.4a22.49,22.49,0,0,1,4.8-8.2,37.86,37.86,0,0,0-3.3,16s3.3-12.5,5.5-16c0,0,4.5-8.2,3.1,2.5,0,0,1.6-7.2,4.5-10,0,0,15-12.2,16.4-21.9a7.63,7.63,0,0,0,1.9-5.5s-1-9-1-14.5c0,0-2.8-4.3-4.9-5.5,0,0-4.1-5.5-3.5-12.1C329.9,38.75,331.9,31.55,332.5,29.85Z"/><path class="cls-13" d="M362.5,60.75s4.2-5.9,4.4-16.5c0,0,3.3-22.2-4.4-26.6,0,0,2.6,4.8,2.9,8.3,0,0,.3,8.1.8,14.6,0,0-1.1,2.1-2.1.5,0,0-.7,5-1.5,8.2v11.5Z"/><path class="cls-13" d="M342.9,9.85s4.2-9,13.8-4.7a6.14,6.14,0,0,0-.9,4.7A13.85,13.85,0,0,0,342.9,9.85Z"/><path class="cls-14" d="M399.7,225.65s1.9-7-1.6-16.8c0,0-2.4-4.8-1.3-14.1,0,0-7.5,8.2-43.7,14.7,0,0,24-2.5,23,6.7s-2.2,9.6-3,19.9a53.36,53.36,0,0,0,10.8-1.4s1.2-.3,2.9-.7a29.3,29.3,0,0,1,11.3-1.4A8.24,8.24,0,0,0,399.7,225.65Z"/><path class="cls-2" d="M338.3,17s5.4-7,17.6-5.6l-.1-1.5a14.53,14.53,0,0,0-13,0C342.9,9.85,340.2,13.35,338.3,17Z"/><path class="cls-1" d="M394.8,160.85a15.34,15.34,0,0,0-3.7,2.1s-4-.3-5.1-2.9c0,0-4.6-4.3-8.2-5.5a55.6,55.6,0,0,0-5.1-7,41.75,41.75,0,0,0-7-2.2s-3.3.8-4.8,1.4a1.6,1.6,0,0,0-1.1,2.5c1.1,2.1,4.8,1,4.8,1a20.16,20.16,0,0,0,3.9,1.3s2.4,2.4,1.4,4.4l-5.2-.4a64.15,64.15,0,0,0-6.5,1.3s-5.9,1.2-5.2,3.9c.4,1.6,6.1.6,7.5.1l5,.1,4.3.6-4.8.3-6.2,1.1s-5.5.5-5.5,2.4,3,1.7,5.7,1.7h10.9l-4.5,1.3-4.8,1s-3.8.2-3,1.9,3.8,1.9,6.5,1.6a100,100,0,0,1,10.1.1s6.7,4,11.4,5.4c0,0,3.8-1,7-1.7a101.19,101.19,0,0,0,10.5-2.4C403.2,174.25,399.7,165.45,394.8,160.85Z"/><path class="cls-1" d="M285,208.55s1-3.1,6.3-2.6,6.7,2.6,6.7,2.6a17.06,17.06,0,0,0-.6,7.6c.8,3.8,3.8,5.2,3.6,13.3s.6,10.1.6,10.1.3,2.9-1.9,2.5-3.1-1.6-3.7-5.4.2-4.5-.9-8.9c0,0-.1,4-.6,7.5,0,0,.5,2.2.8,4.3s3.2,5.1,3.2,5.1,3.1,1.5,1.8,4.4c0,0-2.1,1.5-4.5-.8a6.73,6.73,0,0,1-7.2-2.8,11.05,11.05,0,0,1-5-8.1c-.6-5.6,1.7-18.2,1.7-18.2A57,57,0,0,0,285,208.55Z"/><path class="cls-2" d="M285.8,322.25c.4,13.7-3.6,22.9-3.6,22.9l3,.9,5.9-2.6s6.2-15.5,4.8-31.5l-8-.6Z"/><path class="cls-2" d="M389.2,319l-1.2-3.2h-1.6l-6.7,10.5s.2,19.3-3.2,36.3l8.4-2.7S393,334.65,389.2,319Z"/><path class="cls-3" d="M300.6,299.85a70.83,70.83,0,0,0-12.7-5.4c-7.1-2.2-14.7-5.7-16.8-10.5a1.27,1.27,0,0,0-1.9.5c-.9,1.3-2.7,3.7-1.9,5.7,0,0-2.2-.2-2.7,4.4s-1.3,5.8,0,12-2.3,5.4,1.7,10.6,13.4,8.6,22.5,3.6,7.5-12,7.5-12,2.5-2.4,1.7-5c0,0-.3-1.3.9-1.4C299.9,302.45,300.4,301.05,300.6,299.85Z"/><path class="cls-3" d="M387.7,299.35s-5.4-4.7-19-1.3c0,0-9,2-14.7.4,0,0-1.1-.2-.4,1.6s.1,2.5.1,2.5a1.55,1.55,0,0,0,0,1.7c.6.9-.3,2.9-.3,2.9s-1,2.3.7,3.2c0,0,1,.1.8,4.6a10.74,10.74,0,0,0,2.8,7.5s.3.5,1.3.4.4,1.6.4,1.6a7.26,7.26,0,0,0,.6,2.7c.6,1.3,4.8,6.2,13.9,3.2s17.4-8.1,16.5-15.4a3.38,3.38,0,0,0-2-2.4,7.85,7.85,0,0,0-1.3-6.3s1.3-.5.9-3.2A17.81,17.81,0,0,1,387.7,299.35Z"/><path class="cls-3" d="M362,356.35s8.5,5.9,23,3.6c0,0,1.3,0,.6,2.1s-8.2,21.6-8.6,28.7a8.74,8.74,0,0,0,0,1.7l-9.5,4.1-8.8-5.7.7-6.2s2.9-7.7,1.7-24.8c0,0-.9-5,.1-4.7l1,.3Z"/><path class="cls-3" d="M291.3,342.55s1.1-.1.6,1-7,20.8-5.5,30.2l.8,7.3-12.2,1.7-5.1-1.9-6-8.2s3-18.5,1-33.7c0,0-.3-1.3,1.2-1.3l-.1,1.7s3.9,5.1,12.1,5.5C286.2,345.45,290.3,344.15,291.3,342.55Z"/><path class="cls-14" d="M288.7,344.15a16,16,0,0,1-6.5.9,1.13,1.13,0,0,1,.6,1.5c-.4,1.1-4.4,20-4.1,28.6a11.8,11.8,0,0,1,0,5.1L281,382l6.3-.9-.8-7.3c-1.5-9.4,5-29.1,5.5-30.2.2-.5.1-.8-.1-.9l-.5-.1A5.19,5.19,0,0,1,288.7,344.15Z"/><path class="cls-14" d="M384.9,359.85a37.74,37.74,0,0,1-8,.5h0a2.42,2.42,0,0,1,.7,2.2c-.4,1.3-6.1,20.6-8.4,33.1h.1l7.6-3.3a8.74,8.74,0,0,1,0-1.7c.4-7.1,7.8-26.6,8.6-28.7S384.9,359.85,384.9,359.85Z"/><path class="cls-15" d="M278,398.85s3.5,1.9,9.3-3.2,6.5-4.6,4.7-9.7a25.18,25.18,0,0,0-4-7.8,9,9,0,0,1-.6-3.2c0-1.8-1.1-1.7-1.1-1.7s1.8,7.5-5.7,7.1-9.6-1-10.7.5c0,0,0-9.4-4.8-8.6s-4-.1-4-.1-2.9-.2-1,3.1.8,5.4.8,5.4a81.54,81.54,0,0,0-5.6,14.7s-4.2,5-7.7,8.7-5.4,5.6,1.4,9.3,20.8-1.1,23.1-5.7A57.22,57.22,0,0,1,278,398.85Z"/><path class="cls-15" d="M339.2,413.75s-3.3,1-1.3,5c0,0,6.7,7.6,23.9,5a12.2,12.2,0,0,0,7.3-4c2.9-3.5,11.2-2.6,9.5-9.8a77.86,77.86,0,0,1-1.2-10.7c0-4,1.5-6.3-.6-7.5a8.55,8.55,0,0,1-6.3,2.5s5.2-4.3.2-5.4a63.19,63.19,0,0,1-11.5-4.3s-2.8-1.9-3.4.8,2.1,4.9-2.4,12.7c0,0-6.1,7-8.9,10.7A16.45,16.45,0,0,1,339.2,413.75Z"/><path class="cls-5" d="M325.9,125.05s7.6-2.2,14.7,0Z"/><path class="cls-2" d="M403.2,174.25a47.9,47.9,0,0,0-3.5-7s1.3,5-5.6,7c0,0-1.5.2-1.7-2.6s.4-3.7-1-7.4c0,0,.6,7.5-.8,10.7,0,0-3.2,2.1-4.8,2,0,0-9.2-3.2-11.4-4.8,0,0-6.4-.8-10.2-.1,0,0-5.2.7-6.7-1.5h0a1.27,1.27,0,0,0,.1.6c.8,1.7,3.8,1.9,6.5,1.6a100,100,0,0,1,10.1.1s6.7,4,11.4,5.4c0,0,3.8-1,7-1.7A68.62,68.62,0,0,0,403.2,174.25Z"/><path class="cls-2" d="M364.9,166.55c-5.5.2-11.1.7-11.5-1.5h0v.7c.4,1.5,3.2,1.4,5.7,1.4H370l-2.1.6h0a36.67,36.67,0,0,1,5-.6A26.79,26.79,0,0,0,364.9,166.55Z"/><path class="cls-2" d="M365.9,160.25a32.63,32.63,0,0,0-8.4.6c-3.3.6-4.3-1.1-4.4-1.2a2,2,0,0,0-.1,1.1c.4,1.6,6.1.6,7.5.1l5,.1,4.3.6h2C372,161.55,369.8,160.45,365.9,160.25Z"/><path class="cls-2" d="M392.9,230.25l-19.8,5.8s-3.8,22.9-3.1,39.2-.1,22.5-.1,22.5,10.6-2.8,16.7,1.1c0,0,.8-15.9,3.7-26.6s7.9-39.6,7.9-39.6Z"/><path class="cls-2" d="M372,156.25a7.48,7.48,0,0,0-2.8-5.1s-3.5-1.2-4.3-1.5c0,0-3.8,1.5-5.2-1.3a2.61,2.61,0,0,0,.3,1.1c1.1,2.1,4.8,1,4.8,1a20.16,20.16,0,0,0,3.9,1.3s2.4,2.4,1.4,4.4Z"/><path class="cls-14" d="M342.3,227.55s1.9-8.3,6.1-12.2c0,0-10.2,5.5-15,20.9l8.9,2.9C342.3,239.25,341.2,231.15,342.3,227.55Z"/><path class="cls-2" d="M307.1,293.75c2.6-4.8,12.6-18.4,16.9-22,0,0,12.8-15.6,19.1-24.3h0l-.8-8.2-8.9-2.9a334,334,0,0,1-26.6,42.3s-9.2,15-13.2,17.9l6.9,3.3A12.55,12.55,0,0,0,307.1,293.75Z"/><path class="cls-2" d="M302.5,243.85c1.3-.6,1.1-3.3,1.3-12.4,0-2.5-.2-6.1-.5-10-.1-.7-4.7-1.5-4.7-2.2l-10.9,25.5,10.9-25.5c.8,3.8,2.7,2,2.5,10.1s.6,10.1.6,10.1.3,2.9-1.9,2.5-3.1-1.6-3.7-5.4.2-4.5-.9-8.9c0,0-.1,4-.6,7.5,0,0,.5,2.2.8,4.3s3.2,5.1,3.2,5.1,3.1,1.5,1.8,4.4c0,0-2.1,1.5-4.5-.8a6.73,6.73,0,0,1-7.2-2.8,5.87,5.87,0,0,1-1-.7c3.7,6,14.4,5.7,16.2,4.8C305.5,248.65,302.5,243.85,302.5,243.85Z"/><path class="cls-2" d="M295.8,248.25a45.88,45.88,0,0,1-5.2-6.3,25.13,25.13,0,0,1-3-7.3,21,21,0,0,0,2.4,7.8,26.46,26.46,0,0,0,5,5.8Z"/><path class="cls-2" d="M288.6,245.55a29.06,29.06,0,0,1-3.9-8.4,54.74,54.74,0,0,0,2.9,7.7Z"/><path class="cls-14" d="M293.6,296.55c2,.8,2.4,4.8,1.1,5.8s-7,0-7,0c4.2,1.3,5.9,1.2,5.9,1.2,1.5,3.9-2.6,5.5-2.6,5.5-1.2,1.9-7.6,1.4-7.6,1.4a12,12,0,0,0,7.6,0s-2,6.8-8.8,8-13.7-2.1-13.7-2.1c3.6,3.3,10.6,3.8,12.7,3.8a3.44,3.44,0,0,1,2.9,1.2c-8.1,2.7-17-3-17.1-3.1,4.3,4.7,13.2,7.5,21.8,2.8,9.1-5,7.5-12,7.5-12s2.5-2.4,1.7-5c0,0-.3-1.3.9-1.4s1.7-1.4,1.9-2.7A67.71,67.71,0,0,0,293.6,296.55Z"/><path class="cls-14" d="M388.3,312.65a7.85,7.85,0,0,0-1.3-6.3s1.3-.5.9-3.2a10.35,10.35,0,0,1-.2-3.9s-5.1-4.4-17.8-1.6c.1.2,3.4,5.5,3.9,8.7,0,0-3.9-.2-6.3,1,0,0,3.6.4,6.3,1,0,0,3.4,5.9,3.6,10.5,0,0-2,1.8-6.7,2.6,0,0,4.5.8,7.7-.8a19.4,19.4,0,0,1,1.3,7.5h0c6.5-3,11.4-7.4,10.6-13.1A3.38,3.38,0,0,0,388.3,312.65Z"/><path class="cls-16" d="M370.9,411.25s-1.9-4.4-8.1-2.7a26.44,26.44,0,0,0,5.7-6.7,3.86,3.86,0,0,1,.6,3.2,16.64,16.64,0,0,0,8.2-6.7s.1,1.6.1,3c0,0-6.3,2.6-5.3,7.3Z"/><path class="cls-17" d="M369,419.65c2.9-3.6,11.2-2.6,9.5-9.8,0,0-.2-1.1-.4-2.7-1.7,1.6-6.4,5.9-7.4,7.5-1.3,2-7.8,4.5-7.8,4.5-12.7,2.5-14.6-2.1-14.6-2.1a9.51,9.51,0,0,0-7.6-4.4,14.29,14.29,0,0,1-1.6,1s-3.3,1-1.3,5c0,0,6.7,7.6,23.9,5A10.68,10.68,0,0,0,369,419.65Z"/><path class="cls-18" d="M367.7,395a24.35,24.35,0,0,1-5.9,11.3,106.08,106.08,0,0,0-9,10.5s-5.2,1.7-5.9,2.5-2.8,2.9,0,4a37.79,37.79,0,0,0,15,.4,12.2,12.2,0,0,0,7.3-4c2.9-3.5,11.2-2.6,9.5-9.8a77.86,77.86,0,0,1-1.2-10.7c0-4,1.5-6.3-.6-7.5a8.55,8.55,0,0,1-6.3,2.5s5.2-4.3.2-5.4C370.7,388.85,372.7,392.05,367.7,395Z"/><path class="cls-17" d="M287.4,395.65c5.8-5.1,6.5-4.6,4.7-9.7a35.79,35.79,0,0,0-3-6.4c-2.1,6.2-11.9,14.5-11.9,14.5a52.52,52.52,0,0,1-8.4,12.4c-8.3,6.5-15.4,3.7-15.4,3.7-4.1-4.4-7.8-3.6-7.8-3.6-1.7,2.3-1.4,4,3.7,6.8,6.8,3.7,20.8-1.1,23.1-5.7a52.74,52.74,0,0,1,5.8-8.8S281.5,400.75,287.4,395.65Z"/><path class="cls-16" d="M275.8,394.45s-2.7-3.5-9.5-1.4c0,0,5-4.3,6.3-7.6a6.59,6.59,0,0,1,.1,3.4,36.51,36.51,0,0,0,11.3-8.2,4.44,4.44,0,0,1,0,2.7s-7.1,2.6-6,7.8Z"/><path class="cls-18" d="M287.4,395.65c5.8-5.1,6.5-4.6,4.7-9.7a25.18,25.18,0,0,0-4-7.8,9,9,0,0,1-.6-3.2c0-1.8-1.1-1.7-1.1-1.7s1.8,7.5-5.7,7.1c-.7,0-1.4-.1-2-.1h0s2.2.1,1.8,3.7-1.1,6.3-2.4,8.5-8.2,17.1-14,20.2l.5.3c3.8-1.4,6.8-3.3,7.8-5.3a52.74,52.74,0,0,1,5.8-8.8S281.5,400.75,287.4,395.65Z"/><circle class="cls-19" cx="202.9" cy="417.15" r="29.2"/><path class="cls-20" d="M173.6,417.45a29.08,29.08,0,0,1,8.2-20.3c5.3-5.5,17.5,5.1,17.5,5.1S180.4,398.65,173.6,417.45Z"/><path class="cls-20" d="M203.8,388.35a29.08,29.08,0,0,1,20.3,8.2c5.5,5.3-5.1,17.5-5.1,17.5S222.5,395.15,203.8,388.35Z"/><path class="cls-20" d="M231.8,418a29.08,29.08,0,0,1-8.2,20.3c-5.3,5.5-17.5-5.1-17.5-5.1S225,436.75,231.8,418Z"/><path class="cls-20" d="M202.9,446.35a29.08,29.08,0,0,1-20.3-8.2c-5.5-5.3,5.1-17.5,5.1-17.5S184.2,439.55,202.9,446.35Z"/></g></svg>