<?xml version="1.0" encoding="utf-8"?>
<!-- Generator: Adobe Illustrator 18.0.0, SVG Export Plug-In . SVG Version: 6.00 Build 0)  -->
<!DOCTYPE svg PUBLIC "-//W3C//DTD SVG 1.1//EN" "http://www.w3.org/Graphics/SVG/1.1/DTD/svg11.dtd">
<svg version="1.1" xmlns="http://www.w3.org/2000/svg" xmlns:xlink="http://www.w3.org/1999/xlink" x="0px" y="0px"
	 viewBox="0 0 272.1 246.6" enable-background="new 0 0 272.1 246.6" xml:space="preserve">
<g id="lucht">
	<rect fill="#AEEBFD" width="272.1" height="96"/>
	<path fill="#8EE6FE" d="M272.1,36.3c0,0-101.2-14.9-136.7-15.2C97,20.8,0,37,0,37L0,0h272.1V36.3z"/>
</g>
<g id="wolken">
	<path fill="#FFFFFF" d="M147.2,23.1c-0.1-0.3-0.2-0.7-0.2-1.1c0-3,4.2-5.5,9.4-5.5c3,0,5.7,0.8,7.5,2.1c0,0,0,0,0,0c0,0,0,0,0,0
		c1.2-0.4,2.6-0.7,4.1-0.7c4.6,0,8.4,2.3,8.4,5.1c0,2.8-3.8,5.1-8.4,5.1c-0.8,0-1.6-0.1-2.3-0.2c-0.5,2.1-3.4,3.7-7,3.7
		c-2.8,0-5.2-1-6.4-2.5c-0.7,0.2-1.6,0.4-2.4,0.4c-3,0-5.4-1.6-5.4-3.6C144.6,24.9,145.7,23.8,147.2,23.1z"/>
	<path fill="#FFFFFF" d="M200.3,52.9c-0.1-0.2-0.1-0.5-0.1-0.7c0-2,2.8-3.6,6.2-3.6c2,0,3.8,0.6,5,1.4c0,0,0,0,0,0c0,0,0,0,0,0
		c0.8-0.3,1.7-0.4,2.7-0.4c3.1,0,5.6,1.5,5.6,3.4c0,1.9-2.5,3.4-5.6,3.4c-0.5,0-1,0-1.5-0.1c-0.3,1.4-2.3,2.5-4.6,2.5
		c-1.9,0-3.5-0.7-4.2-1.6c-0.5,0.2-1,0.3-1.6,0.3c-2,0-3.6-1.1-3.6-2.4C198.6,54.1,199.3,53.4,200.3,52.9z"/>
</g>
<g id="bosjes">
	<path fill="#62881B" d="M-0.1,88.6c3-3.3,3.4-5.2,4.7-4.2c1.3,1,2.7,0.9,4.3-0.2s3.3,0.2,5,0s3.3,2.1,5-0.5s2-5.4,4.3-5.2
		c2.3,0.2,5.3,2.6,5.7,2.6c0.3,0,4.7-2.6,4.7-2.6s2-3.3,4.3-3.2c2.3,0.1,7.8,0,7.8,0l6.2,0c0,0,11.7-7.1,13.7-5.6
		c2,1.4,7.3-1.9,10.3,0c3,1.9,7-0.9,10,0c3,0.9,3-0.9,5,0c2,0.9,4-1.6,5-1.5s2-1.5,3.3,0c1.3,1.5,1.7,1,4,1.5
		c2.3,0.5,3.3-1.9,5.3-2.2s4.7-2.7,7.3-2.7s4.3-2.4,5.7,0c1.3,2.4,1,3.9,3,4.8c2,0.9,3-1.1,5-1.5c2-0.4,3-4.4,3-4.4l3.4,2
		c0,0,0.6,2.3,2.9,2.3s4,1.4,6,0s3.3-1.5,5,0s2.7,4.4,4.3,4.8c1.7,0.5,3.3,1.7,6.7,2.3s3,0.6,6.7,1.3c3.7,0.7,2.3-0.5,6.3-1.3
		s8.3-0.3,11.3,1.3s5.3,3.7,7.3,1.9c2-1.7,2.3-3.8,5.3-2.3s4.5,2.7,6.8,4.2s5.3-1.1,7.8,0s2.5-1.2,4.5-1.9c2-0.7,2.5-0.8,3.8,0
		c1.3,0.8,0.3,2.9,2.8,2.9s2-3,4-2.9c2,0.1,1.8-1.5,3.5,0c1.8,1.5,1-3.6,4-1.9s4.3,2,5.5,3.8s4.5-4.1,7.3-1.9c2.8,2.2,3.5,4,6.3,4
		s5.8,0.4,7.5-1.1s3.7,0,5.2,1.1c1.5,1.1,5.3,0.5,5.3,0.5l0.1,13L0,97.4L-0.1,88.6z"/>
	<path fill="#567434" d="M-0.1,96.6c3-3.3,3.4-5.2,4.7-4.2c1.3,1,2.7,0.9,4.3-0.2s3.3,0.2,5,0s3.3,2.1,5-0.5s2-5.4,4.3-5.2
		c2.3,0.2,5.3,2.6,5.7,2.6c0.3,0,4.7-2.6,4.7-2.6s2-3.3,4.3-3.2c2.3,0.1,7.8,0,7.8,0l6.2,0c0,0,11.7-7.1,13.7-5.6
		c2,1.4,7.3-1.9,10.3,0c3,1.9,7-0.9,10,0c3,0.9,3-0.9,5,0c2,0.9,4-1.6,5-1.5s2-1.5,3.3,0c1.3,1.5,1.7,1,4,1.5
		c2.3,0.5,3.3-1.9,5.3-2.2s4.7-2.7,7.3-2.7s4.3-2.4,5.7,0c1.3,2.4,1,3.9,3,4.8c2,0.9,3-1.1,5-1.5c2-0.4,3-4.4,3-4.4l3.4,2
		c0,0,0.6,2.3,2.9,2.3s4,1.4,6,0s3.3-1.5,5,0s2.7,4.4,4.3,4.8c1.7,0.5,3.3,1.7,6.7,2.3s3,0.6,6.7,1.3c3.7,0.7,2.3-0.5,6.3-1.3
		s8.3-0.3,11.3,1.3s5.3,3.7,7.3,1.9c2-1.7,2.3-3.8,5.3-2.3s4.5,2.7,6.8,4.2s5.3-1.1,7.8,0s2.5-1.2,4.5-1.9c2-0.7,2.5-0.8,3.8,0
		c1.3,0.8,0.3,2.9,2.8,2.9s2-3,4-2.9c2,0.1,1.8-1.5,3.5,0c1.8,1.5,1-3.6,4-1.9s4.3,2,5.5,3.8s4.5-4.1,7.3-1.9c2.8,2.2,3.5,4,6.3,4
		s5.8,0.4,7.5-1.1s3.7,0,5.2,1.1c1.5,1.1,5.3,0.5,5.3,0.5l0.1,13L0,105.4L-0.1,96.6z"/>
</g>
<g id="weiland">
	<path fill="#87B701" d="M0,97.4C68,83.6,64.8,81,138.6,83.9C212.3,86.8,236.4,94.8,241,94s31.1,2,31.1,2L272,247L0,246.6V97.4z"/>
</g>
<g id="schaduw_gras">
	<path fill="#7AA901" d="M-0.1,175.8c19-9,55.7-21.5,78.4-20.5s58.7,3.5,67.7,4.7c26,3.5,13,10,68.2,5.6c11.1-0.9,58-12.6,58-12.6
		l-0.1,94L0,246.6L-0.1,175.8z"/>
</g>
<g id="Layer_6">
</g>
<g id="boomstam">
	<path fill="#AC8647" d="M43,110.7c5.3-18,10.3-24.3,8.3-34.3s2.6-14.9,5-9.7c1.9,4-1,21.5-1,21.5s-1.7,8.5-1,13.1
		c0.7,4.7,4.1,9.3,4.1,9.3s-2,7.3-7.7,7.3S43,110.7,43,110.7z"/>
	<path fill="#917136" d="M51.5,79.3c-2-2-1.7-1.6-2.2-4.3s-0.6-2.8-0.6-2.8l-2-0.3c0,0,0.3,0.9,0.7,2.4s0.7,3.6,1.2,4.4
		s1.4,1.6,1.9,2.1s1.6,1.1,1.6,1.1V80L51.5,79.3z"/>
	<path fill="#AC8647" d="M55,84.2c0,0,1.5-0.4,3.3-1.3c1.8-0.9,2.8-4.2,2.8-4.2s1.3-3,1.6-3.3c0.3-0.3,1.2-3.1,1.2-3.1l0.4-0.5
		l-3.2,0.5c0,0-0.3,2.3-0.5,2.8c-0.2,0.5-0.2,0.9-0.5,1.9c-0.3,1.1-1.6,3-2.2,3.5c-0.6,0.6-1.7,0.7-1.7,0.7L55,84.2z"/>
	<path fill="#917136" d="M43,110.7c5.3-18,10.3-24.3,8.3-34.3c-1.3-6.6,0.2-11,2.1-11.7c1-0.4,1.2,17.8-0.1,23.5
		c-0.8,3.3-2.7,8.5-2,13.1C52,106,56.4,118,50.7,118S43,110.7,43,110.7z"/>
</g>
<g id="schaduw_blad">
	<ellipse fill="#62881B" cx="40.2" cy="60.1" rx="10.2" ry="9.1"/>
	<ellipse fill="#62881B" cx="48.2" cy="63.1" rx="10.2" ry="9.1"/>
	<ellipse fill="#62881B" cx="61.2" cy="63.1" rx="10.2" ry="9.1"/>
	<ellipse fill="#62881B" cx="67.5" cy="54.9" rx="13.8" ry="12.4"/>
</g>
<g id="highlight">
	<ellipse fill="#8FB601" cx="42.6" cy="46" rx="13.6" ry="12.3"/>
</g>
<g id="blad">
	<ellipse fill="#84A800" cx="42.2" cy="56.1" rx="10.2" ry="9.1"/>
	<ellipse fill="#84A800" cx="49.2" cy="59.1" rx="10.2" ry="9.1"/>
	<ellipse fill="#84A800" cx="61.2" cy="61.1" rx="10.2" ry="9.1"/>
	<ellipse fill="#84A800" cx="66.5" cy="53.9" rx="13.8" ry="12.4"/>
	<ellipse fill="#84A800" cx="43.6" cy="47" rx="13.6" ry="12.3"/>
	<ellipse fill="#84A800" cx="59.5" cy="45.9" rx="13.8" ry="12.4"/>
	<ellipse fill="#84A800" cx="68.2" cy="46.1" rx="10.2" ry="9.1"/>
</g>
<g id="hghlights">
	
		<ellipse transform="matrix(0.7817 0.6236 -0.6236 0.7817 39.9498 -18.8275)" fill="#8FB601" cx="46.9" cy="47.7" rx="8.2" ry="7.4"/>
	
		<ellipse transform="matrix(0.7817 0.6236 -0.6236 0.7817 41.2391 -18.745)" fill="#84A800" cx="47.4" cy="49.5" rx="8.7" ry="7.8"/>
	
		<ellipse transform="matrix(-0.9504 0.3112 -0.3112 -0.9504 141.3706 81.0792)" fill="#8FB601" cx="64.2" cy="51.8" rx="8.2" ry="7.4"/>
	<path fill="#84A800" d="M54.8,56c1.5,4.4,6.5,6.8,11.1,5.4c4.6-1.4,7.1-6.1,5.6-10.5c-1.5-4.4-6.5-6.8-11.1-5.4
		C55.8,46.9,53.3,51.6,54.8,56z"/>
	
		<ellipse transform="matrix(0.5861 0.8103 -0.8103 0.5861 67.9413 -22.0404)" fill="#8FB601" cx="55.5" cy="55.5" rx="5.9" ry="5.3"/>
	
		<ellipse transform="matrix(0.5861 0.8103 -0.8103 0.5861 69.1184 -21.1866)" fill="#84A800" cx="55.3" cy="57.1" rx="6.2" ry="6.8"/>
</g>
<g id="Layer_2">
</g>
</svg>
