<svg xmlns="http://www.w3.org/2000/svg" viewBox="0 0 272.26 247.25"><defs><style>.cls-1{fill:#adcffc;}.cls-2{fill:#1dacf0;}.cls-3,.cls-5,.cls-6,.cls-7{fill:#1a6faf;}.cls-4{fill:#b8ddf8;}.cls-5{opacity:0.71;}.cls-20,.cls-5,.cls-6,.cls-7{isolation:isolate;}.cls-6{opacity:0.47;}.cls-7{opacity:0.18;}.cls-8{fill:#c8eced;}.cls-9{fill:#ffffe4;}.cls-10{fill:#d8a796;}.cls-11{fill:#f7f6da;}.cls-12{fill:#edefda;}.cls-13{fill:#d2cecd;}.cls-14{fill:#dfc5ac;}.cls-15{fill:#c05a4b;}.cls-16,.cls-20{fill:#5dc7df;}.cls-17{fill:#004f80;}.cls-18{fill:#0294ad;}.cls-19{fill:#00aae8;}.cls-20{opacity:0.61;}.cls-21{fill:#efdcde;}.cls-22{fill:#ebf5f7;}.cls-23{fill:#7daab2;}.cls-24{fill:#fff;}.cls-25{fill:#715d9a;}.cls-26{fill:#d8ba68;}.cls-27{fill:#fffdc5;}</style></defs><title>zwembad klein</title><g id="Laag_2" data-name="Laag 2"><g id="Laag_6" data-name="Laag 6"><polyline class="cls-1" points="28.57 127.75 28.57 130.42 0.02 133.81 0.05 130.14 28.61 127.75"/><polygon class="cls-2" points="0.02 133.81 28.57 130.42 28.57 132.42 0.02 136.38 0.02 133.81"/><polygon class="cls-3" points="0.02 134.78 28.57 131.08 28.57 131.22 0.02 134.97 0.02 134.78"/><polygon class="cls-3" points="0.02 136.06 28.57 132.1 28.57 132.42 0.02 136.38 0.02 136.06"/><polygon class="cls-4" points="28.57 132.75 28.57 132.22 0.02 136.22 0.03 136.84 28.57 132.75"/><polyline class="cls-1" points="183.45 127.75 183.45 130.42 272.17 141.11 272.17 135.2 183.37 127.75"/><polygon class="cls-2" points="272.17 140.95 183.45 130.42 183.45 132.39 272.16 144.68 272.17 140.95"/><polygon class="cls-3" points="272.16 142.54 183.45 131.08 183.45 131.24 272.16 142.83 272.16 142.54"/><polygon class="cls-3" points="272.15 144.38 183.45 132.14 183.45 132.42 272.16 144.69 272.15 144.38"/><polyline class="cls-4" points="183.45 132.75 183.45 132.27 272.16 144.62 272.16 144.69 272.16 145.4 183.45 132.75"/><polygon class="cls-3" points="270.98 135.09 270.86 140.76 272.16 142.89 272.16 143.21 270.61 140.7 270.73 135.09 270.98 135.09"/><polygon class="cls-5" points="267.39 134.75 267.27 140.23 269.57 144 269.57 144.1 269.45 144.09 269.33 143.89 267.02 140.18 267.14 134.75 267.39 134.75"/><polygon class="cls-5" points="263.9 134.42 263.79 139.89 265.9 143.67 265.9 143.77 265.79 143.76 265.68 143.56 263.57 139.84 263.68 134.42 263.9 134.42"/><polygon class="cls-6" points="260.85 134.09 260.76 139.37 262.56 143.01 262.56 143.1 262.46 143.09 262.38 142.9 260.56 139.31 260.66 134.09 260.85 134.09"/><polygon class="cls-6" points="258.18 134.09 258.08 139.17 259.89 142.68 259.89 142.77 259.8 142.76 259.7 142.57 257.89 139.12 257.99 134.09 258.18 134.09"/><polygon class="cls-7" points="256.13 133.75 256.05 138.84 257.56 142.34 257.56 142.43 257.48 142.43 257.4 142.24 255.89 138.79 255.97 133.75 256.13 133.75"/><polygon class="cls-7" points="254.46 133.75 254.38 138.84 255.89 142.34 255.89 142.43 255.81 142.43 255.73 142.24 254.22 138.79 254.3 133.75 254.46 133.75"/><polygon class="cls-7" points="252.75 133.75 252.68 138.64 253.89 142.01 253.89 142.1 253.82 142.09 253.76 141.91 252.55 138.59 252.61 133.75 252.75 133.75"/><rect class="cls-2" x="28.57" y="130.42" width="154.88" height="2"/><polygon class="cls-4" points="183.45 132.75 28.57 132.75 28.57 132.22 183.45 132.14 183.45 132.75"/><polyline class="cls-3" points="28.57 132.1 28.57 132.22 183.45 132.27 183.45 132.14"/><polygon class="cls-3" points="28.57 131.22 28.57 131.08 183.45 131.08 183.45 131.24 28.57 131.22"/><rect class="cls-1" x="28.57" y="127.75" width="154.88" height="2.67"/></g><g id="Laag_11" data-name="Laag 11"><polygon class="cls-8" points="200.14 92.55 200.14 127.75 272.15 132.15 272.15 127.73 272.15 126.47 272.16 69.03 200.14 92.55"/><polygon class="cls-9" points="254.21 125.76 252.69 125.76 252.43 76.78 258.89 74.67 258.89 73.34 241.54 79.01 241.54 80.08 250.67 77.27 250.66 125.84 241.54 125.59 241.54 126.52 250.66 126.78 250.66 129.31 241.54 129.06 241.54 129.94 268.9 131.08 268.9 130.32 252.69 129.31 252.69 126.78 254.21 125.76"/><polygon class="cls-9" points="241.87 125.74 226.26 125.12 224.85 125.02 224.85 85.57 237.96 81.27 229.52 82.68 217.17 87.02 216.17 88.23 223.44 85.96 223.43 124.92 216.17 125.05 216.17 125.46 223.43 125.67 223.43 128.05 216.17 127.85 216.17 128.56 237.96 129.41 237.96 128.53 224.72 127.98 224.72 125.67 241.54 126.41 241.87 125.74"/><polygon class="cls-9" points="221.17 125.33 206.56 125.13 205.56 124.8 205.39 91.5 216.27 87.88 216.27 87.02 205.39 90.64 198.19 93.22 198.19 93.74 204.23 91.83 204.22 124.63 198.19 124.45 198.19 125.08 204.22 125.26 204.22 127.31 198.19 127.14 198.19 127.74 216.27 128.41 216.27 127.67 205.56 127.21 205.56 125.26 220.9 125.56 221.17 125.33"/><polygon class="cls-10" points="258.89 127.16 258.89 129.7 252.69 129.31 252.69 126.77 258.89 127.16"/><polygon class="cls-11" points="253.64 125.76 253.46 76.44 252.43 76.78 252.68 125.76 253.64 125.76"/><polygon class="cls-10" points="241.54 126.52 250.66 126.77 250.66 129.31 241.54 129.06 241.54 126.52"/><polygon class="cls-10" points="228.85 128.17 228.85 125.8 224.72 125.67 224.72 128 228.85 128.17"/><polygon class="cls-10" points="223.43 125.67 223.43 128.05 217.17 127.88 217.17 125.49 223.43 125.67"/><polygon class="cls-10" points="204.22 125.26 204.22 127.31 200.14 127.2 200.14 125.14 204.22 125.26"/><polygon class="cls-11" points="225.18 85.46 225.19 125.04 224.85 125.02 224.85 85.57 225.18 85.46"/><polygon class="cls-11" points="258.89 74.89 258.89 74.67 253.46 76.44 253.46 76.63 258.89 74.89"/><polygon class="cls-11" points="226.18 85.22 226.18 85.13 225.18 85.46 225.18 85.52 226.18 85.22"/><polygon class="cls-11" points="250.67 77.45 250.67 77.27 241.54 80.01 241.54 80.2 250.67 77.45"/><polygon class="cls-11" points="223.44 86.05 217.17 88.02 217.17 87.92 223.44 85.96 223.44 86.05"/><polygon class="cls-11" points="204.23 91.9 204.23 91.83 200.14 93.12 200.14 93.18 204.23 91.9"/></g><g id="Laag_8" data-name="Laag 8"><polygon class="cls-12" points="0.03 130.13 28.57 127.75 183.45 127.75 272.15 135.27 272.16 132.58 263.9 132.42 259.23 132.09 259.23 130.42 241.54 129.75 228.85 130.08 226.18 129.75 226.18 128.75 218.17 128.41 217.17 128.41 217.17 128.41 206.49 129.08 204.82 128.75 204.82 127.75 200.14 127.75 192.8 127.75 191.13 127.75 189.8 127.41 189.8 127.08 183.79 127.08 28.57 127.08 19.56 127.08 19.56 127.41 9.21 127.41 4.87 127.75 4.54 128.08 2.87 128.41 0.02 128.41 0.03 130.13"/><polygon class="cls-13" points="17.89 92.03 18.22 127.41 19.56 127.41 19.22 92.03 17.89 92.03"/><polygon class="cls-14" points="8.88 92.7 8.88 127.46 18.22 127.41 17.9 92.81 8.88 92.7"/><polygon class="cls-15" points="8.88 92.7 4.87 91.1 4.87 127.75 8.88 127.41 8.88 92.7"/><polygon class="cls-15" points="27.57 96.37 19.27 96.37 19.56 127.08 28.9 127.08 183.79 127.08 189.8 127.08 189.8 96.37 27.57 96.37"/><path class="cls-14" d="M263.21,132.42" transform="translate(0.02)"/></g><g id="Laag_9" data-name="Laag 9"><polygon class="cls-13" points="2.87 128.41 4.87 128.08 4.87 87.36 2.87 85.69 2.87 128.41"/><polygon class="cls-14" points="2.87 87.31 0.02 87.36 0.02 128.41 2.87 128.41 2.87 87.31"/><polyline class="cls-13" points="189.8 93.03 189.8 127.41 191.13 127.75 191.13 92.56 189.8 93.03"/><polygon class="cls-13" points="204.82 128.75 206.49 129.08 206.49 87.02 204.82 87.69 204.82 128.75"/><polygon class="cls-13" points="226.18 129.75 228.85 130.08 228.52 79.01 226.18 79.68 226.18 129.75"/><polygon class="cls-13" points="263.23 132.42 263.23 66.66 258.89 68.33 258.89 132.09 263.23 132.42"/><polygon class="cls-14" points="263.23 132.42 272.02 132.75 272.02 66.66 263.23 66.66 263.23 132.42"/><polygon class="cls-14" points="241.54 79.01 228.52 79.21 228.85 130.08 241.54 129.75 241.54 79.01"/><polygon class="cls-14" points="206.49 129.08 217.17 128.41 217.17 87.02 206.49 87.02 206.49 129.08"/><rect class="cls-14" x="191.13" y="92.56" width="9.01" height="35.19"/></g><g id="Laag_2-2" data-name="Laag 2"><polygon class="cls-16" points="0 136.84 28.57 132.75 183.45 132.75 272.16 145.23 272.16 201.31 133.72 200.85 132.38 199.51 64.62 199.51 63.28 200.85 0.02 201.07 0 136.84"/></g><g id="Laag_3" data-name="Laag 3"><path class="cls-17" d="M0,145.79l.17,0c.33,0,.67.33,1.34,0s.67-.67,1.34-1a5,5,0,0,1,2-.33c.33,0,0,.33,1-.33s1-1,1.67-.67.67.33,1.34,0,.33,0,.67-.33.67-.67,1-.67a21.27,21.27,0,0,0,2.34-.67h1c.33,0,0,0,.67-.33s.67-.67,1.34-.67H17.2a1.16,1.16,0,0,1,.67-.33c.33,0,.67.33,1.34,0a10.71,10.71,0,0,0,1.67-1,3.6,3.6,0,0,1,2.34-.67c.67,0,1,.33,1.67,0s1.67-.33,2-.67a8,8,0,0,1,3-1c.67,0,1.67-.33,2-.33s.67-.33,1.34-.33.33,0,1-.33,1.67,0,2-.33,1.34,0,1.67-.33,2-.33,2-.33l2-.67,1.67-.33,1-.33,2-.33.33-.09,2.1-.57-.43.33a13.92,13.92,0,0,1-2,.67c-.33,0-.33,0-1,.33a4.47,4.47,0,0,1-1.67.33.46.46,0,0,0-.66,0h0c-.33.33,0,.33-.67.33s-1,.33-1.67.33a4.11,4.11,0,0,0-1.67.67s-.33-.67-.67-.33a1.23,1.23,0,0,1-1,.33,14.46,14.46,0,0,0-1.67.33s-.67.67-1,.67-.33-.33-.67,0a8.49,8.49,0,0,1-2.34.67h-1a4.89,4.89,0,0,0-1.34.67l-1.34.33-1.67.33-.33.33c-.33.33-.67-.33-1,0a2.53,2.53,0,0,1-1.34.67h-.67c-.67,0-1-.33-1,0s0,.33-.33.33,0,.33-.33.33-.67.33-1,.33.33-.33-.33,0-.67.33-1,.33h-.67c-.33,0-.33.33-.67.33s0,.33-.33.33h-.67c-.33,0-1-.33-1,0s-.33,0-.33.33-.33.33-.67.33h-1a.33.33,0,0,0-.33.33.33.33,0,0,1-.33.33c-.33,0-.33-.33-.67-.33s0,.33-.33.33,0-.33-.33,0a6.19,6.19,0,0,1-2.34.67c-.33,0-.33-.33-.67,0a1,1,0,0,1-.67.33s0-.33-.33,0-.67,0-.67.33-1,0-1,0-.33.67-.67.67a14.46,14.46,0,0,0-1.67.33s0-.33-.33,0l-.67.67a1.16,1.16,0,0,1-.67.33H1.51c-.33,0-.33.33-.67.33H.17c-.25,0-.13-.38-.19-.28" transform="translate(0.02)"/><path class="cls-17" d="M0,185.75c1.58.85,1.93,1.33,2.85.41s1-.67,1.67-1.67.1-2.78,1.05-2.56,4-.78,1.29-.78h-4c-1,0-1.67-.67-1.67,0s-.3.07-1.17,1.13" transform="translate(0.02)"/><path class="cls-17" d="M5.18,178.15l2-1.67v-1.34a21.27,21.27,0,0,1,2.34-.67c.33,0,1,.33,1.34,0s.33-2.34.33-2.34a3.67,3.67,0,0,1,1.34-.67c1-.33.67-.33,1.67-.67a3.61,3.61,0,0,0,1.67-1.34c.33-.33,1.34-1.34,1.67-1s1-2,1-2-.67.33.67,0a23,23,0,0,0,2.67-1c1-.33,1.34.33,2-.67s-.33-2,1.34-1.67,1.34.67,2,0l1.34-1.34c.67-.67,0-1,1.34-1.34s.67,1,1.34,0,.33-.33,1-1.34a9,9,0,0,0,1-2.67,1.88,1.88,0,0,0,2,0,10.58,10.58,0,0,0,2-1.67c.67-.67-.33-.67.67-.67s1.34,1,1.67,0,0-1,.67-1.34a15.72,15.72,0,0,1,1.67-.67l1.34-1.34a1.65,1.65,0,0,0,1-.33c.33-.33.33-.67,1-1s1-.33,1.67-.67a5.86,5.86,0,0,0,1.67-1.34c.67-.67,1.34-.33,1.67-.67l1-1,1-1c.67-.67.33-.33,1.67-.67s1.34-.67,1.34-.67.33-.67.67-.67h1l.67-.67a1,1,0,0,0,.67-.33c.33-.33.33-1,.67-1s.67.33,1,0,.67,0,1-.67.33-.33.67-.67a1.23,1.23,0,0,1,1-.33,1.23,1.23,0,0,0,1-.33c.33-.33.67-.33,1-.67s2-.67,2.34-1,1-.33,1.34-.67.67-.67,1-.67.67-.67,1.34-.67,1.67-.67,2-.67,2.34-1.67,2.67-1.67h1.67s-3.34,1.34-3.34,1.67-1.67,1-2,1.34a2.53,2.53,0,0,1-1.34.67c-.33,0-.33,0-.67.33s-.67.33-1,.67-.67.67-1,.67,0-.33-.67,0-.33.33-1,.67a2.57,2.57,0,0,0-1,.67l-.67.67c-.33.33-.33.33-.67.33s-.33,0-.67.33l-.33.33c-.33.33-.33,0-.67.33s.33,0-.33.33-.67.67-.67.67.33-.67-.33-.33-1,.33-1,.67v.33c0,.33-.67,0-1.34.33s-.67,0-1,.33,0,.33-.33.67.33.33-.33.33-.33-1-.67-.33a4.13,4.13,0,0,1-.67,1,.33.33,0,0,1-.33.33h-.67c-.33,0-.67,0-.67.33v.67l-2.34.67-1.34,1s0,.67-.33.67a2,2,0,0,0-1.34.33c-.33.33-.33-.33-.67.33s-.33.33-.67,1-.67.33-1,.67l-.67.67c-.67.67-.67,1-1.34,1H42.23c-.33,0-.33.33-.67.67s-.33,1-.67,1,0-.33-.67,0a4.61,4.61,0,0,0-1.34,1c-.33.33-1,0-1,.33s.33-.33-.33.67-1,.67-1.34,1,0-.33-.67.33l-1,1c-.33.33-.67.33-1,.67l-.67.67-1,1c-.33.33-.67,0-1,.67s-1,.67-1.34,1a2.57,2.57,0,0,1-1,.67c-.67.33-.67,0-1,.33s-.33,0-.67.67,0,.67-1,1-.33,0-1.34.67-.33.33-1,1l-1,1c-.67.67-.33.67-1.34,1s-.33-1.34-1.34.33-.67,1.67-1.34,2.34-.33.33-1.34,1-.67.33-1.34,1-.33,1.34-1,1.67-.33.33-1,.67-.67,0-1,.67,0,.33-.67,1-.67,1-1.34,1-5.67-.33-5.67-.33v-.67" transform="translate(0.02)"/><path class="cls-17" d="M98.31,199.51h13.35s-1.67-.67-1.67-1.34,0-1.67.33-2,1.67-.67.33-2S109,192.84,109,192.5s1.34-1.34,1.67-1.67.33,0-.67-1.34-2-1.34-2-2.34a1.54,1.54,0,0,1,1-1.67c.67-.33.67-1-.33-1.67s-1.44-.79-1.56-1.57-.45-1.1.55-1.44,1.89.33.78-1.34-.78-2-1.45-3-1.67-1.34-.67-2,1.67,1.67,1-.67-1.34-2.34-1-3,.33-1,.67-1.34,1-.33-.33-1.67-1.67-1-1-2,.67-.33,1-1.34.67-1,.33-2a6.32,6.32,0,0,0-1.34-2s-.33,0,.67-1,1.34-1.34,1-1.67-.67-.33-.67-1,.33,1.34,0-1.34l-.33-2.67a3.34,3.34,0,0,1,.33-1.34c.33-.67.33,0,.67-1.34s.33-1-.33-2-1-1-.67-1.67,1,0,.33-1.34-1.34-2.67-1-3,.67.67.67-1,.33-1,0-1.67-1-1-.67-1.67.33,1,0-.67,0-1.67,0-1.67-.33-.67,0-1,0,.05,0-1v-.67h-2s-.67,0,0,.67,1,.67.67,1.67,0,.33-.33,1a3.63,3.63,0,0,0-.33,1.67c0,.33.33.67,0,1s-.67-1-.33.33.67.33.33,1.34-1,.33-.33,1,1.67.33.67,1.34-1,0-1,1v1c0,1.34-.67.67,0,1.34s.33.67.67,1,1.34-.33.33.33-1.34-.67-1,.67,0,.67.33,1.34a1.47,1.47,0,0,1-.33,1.67c-.33.33-1.67-.33-.67,1l1,1.34s-.33,0-.33,1.34.33,1.34.33,2,.33,1-.33,1.67-1-.33-.67,1.34,1.34,1.67,1,2.34-1,1-1.34,1.34-.33-.33-.33,1,1,.33,0,2-2.67.67-1.67,2,1.34-.33,1,1.34-1.67,1-1.67,2.67,0,2,1,3,2-.67,1,1a17.36,17.36,0,0,0-1.9,3.38c-.1.62-.77-.71-.1.62s1.34,1.34,1,2.34-.67.67-1.34,2a6.92,6.92,0,0,0-.67,2c-.33,1,0-.33,0,1.67s-.67,2.34,0,3.34.67,1.34.67,1.67-.67.33-1,1.34-1.34.67-.67,1.67,1,1.34.67,2a.73.73,0,0,0,.31,1Z" transform="translate(0.02)"/><path class="cls-17" d="M222.48,200.85s1-1.34-.33-2,.33,0-1.34-.67-2,0-2.67-1-.67-1.67-.33-1.67,0-.33-.67-.67,0-.67-1-.67,0,.67-1.34-.33-1-1.34-1.67-1.67a2.5,2.5,0,0,0-1.67-.33c-1,0-1,.33-1-.33s1,0,0-1.34a5.64,5.64,0,0,0-2.34-2,4.89,4.89,0,0,0-1.34-.67c-1-.33-2-1-2-1.34v-1c0-.33-.33-.33-1.34-.67s-1.34,0-1.67-.67-2.61-.82-2.64-1.25.64-1.09.3-1.43-.67-1.34-1-1-.67.67-.67,0,0-1-.33-1-.72.2-1.2-.23-.81-.77-.81-.77l.33-.67s0-.67-.33-.67-1-1-1.34-.67-2.67-1-2.67-1l-.33-.67a.33.33,0,0,0-.33-.33h-.67l-1-1.34a4.13,4.13,0,0,0-1-.67c-.67-.33-.33-.67-1-1s.33-.33-.67-.67a4.89,4.89,0,0,1-1.34-.67c-.67-.33-.33,0-1-.67s1,0-.67-1-1.34-1-2-1.34-.67-.67-1.34-.67-2-1.34-1.67-1.67,2,0,.33-.67-1.67-1.34-2-1-1.34,0-1.67-.67-.33-.33-.67-1,0-1-.67-1-1.67,0-2-.33-.33-.67-1-1-.67-.67-1-.67-1.34,0-1.34-.67,1.34-.33-.33-1a7.53,7.53,0,0,0-2.34-.67s-.67.33-.67-.67,2.67-.33-.67-1.67c-1.37-.55-2.23-.92-2.77-1.18a1.25,1.25,0,0,1-.73-1.09c0-.33-.18-.74-.83-1.06-1.34-.67-2-.33-2-.67s-.33-.67-.67-1,.67-.67,0-1c-2.55-1.28-1.67-.67-2.34-.67s-.67-.33-1-.67-.33-.67-1-1,.33,0-.67-.33a2.27,2.27,0,0,1-1.34-1c-.33-.33,0,.33-.67-.33s-.67-.33-1-.67l-.33-.33c-.33-.33.33-.33-.33-.33s-.33.33-1,0-1-.33-1-.67,0-.67-.33-.67-.67.67-.67-.33.67-1.34,0-1-.33,0-1,0-.67.67-1,0a3.65,3.65,0,0,0-.93-1.17c-.41-.33-.45-.77-.73-.5a.71.71,0,0,1-.79.15c-.77-.37.22-.81-.55-.81h-1.34a1.23,1.23,0,0,1-1-.33c-.33-.33.33,0-.33-.33s-1.67-1-1.67-1a1.16,1.16,0,0,0-.67-.33c-.33,0,0,0-.67-.33s-.33,0-1-.33-.67,0-1-.33l-.67-.67c-.34-.34-.34-.67-.67-.67h.67c.33,0,0,0,.67.33s.67.33,1,.33.33,0,1,.33.67,0,1,.33l.67.67c.33.33,1.34.33,1.34.33a1,1,0,0,1,.67.33c.33.33-.33,0,.33.33s1-.33,1.34,0,.33-.33.67.33-.33.67.33.67.67,0,1,.33l.67.67c.67.67.33,1,1,.67s0-1,.67-.33.67.33,1,.67.67,0,1,.33-.33,0,.33.67,0,.33.67.67.67,0,1,.33,0,.33.67.67,1.34-.33,1.67.33-.33.33.67.67,1.34,0,1.67.33l.67.67c.67.67,0,0,1,.67s1,.33,1.34,1,.33.33.67.67a1.23,1.23,0,0,0,1,.33c.33,0,.33,0,.67.33s.33,0,1,.67.67.67,1.67.67.67-.67,1,0c.42.84-.21.1.74,1.73a.75.75,0,0,0,.33.3c.59.29.3,0,.95.31s0,0,.67.67,0,1,1,.67,1-.33,1.34,0-.33.33.33.67-.33,0,1,.67,2,1.67,3,2,1-.33,1.34.33.33.33,1,1,1,.33,1.34.67l.67.67c.67.67.33.67,1,1s.67-1,1.34,0a6.23,6.23,0,0,0,1,1.34c.33.33,0-.33.67.33.85.85-.46-.46,2.24,1.55a1.81,1.81,0,0,1,.41.42c.69,1-.33,1,.67,1.37s1-.33,1.34,0-.33.33.67,1-.33-.67,1.34,1,.67,1.34,2,1.67c1.17.29,0-1.34,1-.67,1.24.83.33,1,1,1.67s0,.33,1,1,1,0,1.67,1,1,0,1,1,.33.33,1.67.67,1-.33,1.34.67-.33.67,0,1.34.67,1.67,1.34,1.67.33-.67.67.33.67-.33,2,.33,1,.33,1.34,1,0,1.34.67,2,1,.33,1.67,1,.32.59,1.16,1,.18.12,1.34,1.08a7,7,0,0,0,1.85,1.3,3.5,3.5,0,0,1,1.34,1c.67.67,0,1,1.67,1s1.34-1,2,.33-.33,1,.67,1.67,0,0,1.67,1,1.34.67,2,1.67,0,0,1.34,1,1.34.33,2,1a3.5,3.5,0,0,1,1,1.34c.33.67,1,0,1.67.67l1,1c1,1,1.67.67,1.34,1.34s-1.67.33,0,1,1.34.33,2.34,1.34.33,1,1.34,1.34a8.81,8.81,0,0,0,2.34.33l.33.33Z" transform="translate(0.02)"/><path class="cls-17" d="M272.14,166.77c-.54.26-1.12.1-1.92.37-1,.33-2.34-.33-3-.67s-1-1.34-2-1-1,1-2.67,0a5.64,5.64,0,0,0-2.34-1s-1.67-1.67-3-1.34,0,1.67-2,0l-2-1.67s0,.67-2,0-3-.67-3.67-1a13.93,13.93,0,0,1-2.67-2c-.67-.67-3-1.34-3.34-1s-1.34-1.34-2.34-1-2.67-1-3.34-1a8,8,0,0,1-2.34-1,1.88,1.88,0,0,1-2,0c-1-.67-2.34-.33-3-1a4.12,4.12,0,0,0-2.67-1.67c-1.67-.33-1.67,1-2.67,0s-2.34-2.34-3.34-2-2.34-.67-3-1-1-1-2-1-.33-.33-1.34-.33a2.5,2.5,0,0,1-1.67-.33c-.67-.33-.33,0-1.34,0s-1.34,0-1.67-.33-.33-.67-1-.67-.67.33-1,0-.33-.67-.67-.67a3.63,3.63,0,0,1-1.67-.33c-.67-.33-2.34-.33-3-.67a19.68,19.68,0,0,0-2.67-1.34c-.33,0,0-.33-1.34-.67a35.05,35.05,0,0,0-4.34-.67c-.33,0-1.67-.67-2-.67a6.19,6.19,0,0,1-2.34-.67,2.55,2.55,0,0,0-1.67-.67c-.67,0-2,.67-2.67,0s-1-1-1.67-1a17.13,17.13,0,0,1-3.34-1.34h-1c-.54,0-.87-.44-1.34-.61a1,1,0,0,0-.33-.06,7.74,7.74,0,0,1-1.69.11,1.36,1.36,0,0,1-.32-.11,2.52,2.52,0,0,0-1.34-.33c-.33,0-1.34-.67-2-.67h-1.34a31.51,31.51,0,0,1-3-1s-1,.33-1.34,0-.67-.67-1-.67-2-.67-2.34-.67h-1c-.33,0-.67-.33-1.34-.33a3.45,3.45,0,0,1-1.34-.33h2.67s1.67.33,2.67.67,1.67,0,2,.33.67-.33,1.34.33.33.67,1,1,1.67,0,2.67,0a3.58,3.58,0,0,1,2,.67,70.46,70.46,0,0,0,7,1,4.8,4.8,0,0,1,1,.67c.33.33,1,0,1.67.33a8.57,8.57,0,0,0,1.67.67c1,.33,1,0,2,.33a13.92,13.92,0,0,1,2,.67c.67.33,1.67-.33,2,0s.33,0,1,.33a4.74,4.74,0,0,0,2,.67,4.23,4.23,0,0,1,2,.33,4.89,4.89,0,0,0,1.34.67c1,.33,1.67,0,2.34.33a10.71,10.71,0,0,1,1.67,1,3.3,3.3,0,0,0,2,.67c.33,0,.33-.33,1,0s1,.33,1.67.67,1.34,0,2,.33a4.82,4.82,0,0,0,2.34.67c1,0,1.34-.33,1.67.33s.67,1.34,1.34,1.34,1.34-.33,2,0,1-.33,1.67.33a4.45,4.45,0,0,0,1.67,1c.67.33,1.34,0,1.67,0s1.34.67,1.67.67.67-.67,1-.33,5,1.67,4.34,2-1-.67.33,0,1.67.33,2,.67.67,0,1.67.67,2,.33,2.67,1.34,1,1.34,2,1,.67-.67,1.67,0,.67.33,1.67,1,2,0,2.67.33.67,1,1.67,1.34a8.29,8.29,0,0,0,2.67.33c.67,0,0-1,1.34,0a7,7,0,0,0,2,1.34,4,4,0,0,0,2.67.67c1.34,0,1-.33,2,.33s.67.33,1.34,1,0,.67,1.34.67.67-.67,2,0a6.92,6.92,0,0,0,2,.67c1,.33,1,0,1.67,0s-.33-1,1.34.33,1.67,2,2.67,1.67.67-1,1.67-.33a10.39,10.39,0,0,0,2,1.34c1.13.57,1.54.89,2.25.78C272.26,165.55,272.28,166.7,272.14,166.77Z" transform="translate(0.02)"/><path class="cls-18" d="M0,181.38a2.76,2.76,0,0,0,.51.11,7.44,7.44,0,0,0,3,.67c2,0,4.67-1,5.34-.33s6.34-.33,6.34-.33a15.72,15.72,0,0,1,1.67.67c.67.33.33,1.34,3,.33s3-2,4-1,7.68-.33,8.35,0,6,1.34,6,1.34a15.14,15.14,0,0,1,2.67-.67c.67,0,3.34,1,4,.67s3.34,0,3.34,0l2.67-1h2.67a18.31,18.31,0,0,1,4.34,0c1,.33,2,1.67,3,1a8,8,0,0,1,3.34-.67H66.6s2.67-1.34,3.34-1a19.21,19.21,0,0,0,3.34.67h7l2.34-.33,2,.33,2,1.34,1.67-1h2.34a3.52,3.52,0,0,1,2,0c1,.33.33,1.67,2,1s2.67-1.67,3.67-1.34,18.36.67,18.36.67a4.23,4.23,0,0,1,2-.67h1l2.34.33,4.34-.33,2,.67a3.83,3.83,0,0,0,2,0,9.75,9.75,0,0,1,3-.67h2.34l2.34.67,2-.33h2.67a15.72,15.72,0,0,0,1.67-.67c.67-.33,1-1.34,1.67-.33s-2.34,1,0,1,1.67.33,3.34,0,1.34-1,2.34-.67l2,.67,3-1a13.31,13.31,0,0,1,1.34,1c.33.33,3.67-.33,3.67-.33s3-.33,3.34,0-.33.67,1.34,0,1.34-1.67,2.67-.67.33,1,1.67,1a7.41,7.41,0,0,0,3-.33c.67-.33,1-1,1.67,0s1.67,0,2.67,0,1-.33,1.67-.33a7.15,7.15,0,0,1,2,.33,4.19,4.19,0,0,0,3-.33c1-.33-.67-1.34,1-.33s1.67,1.67,2.67,1.34a4.7,4.7,0,0,0,1.67-1s-2-1,.67,0,2,2.34,4,1,1.34-2.34,2.67-1.34,2,2,2.67,1.67,0-.33,1-.67a3.63,3.63,0,0,1,1.67-.33h1.34a2,2,0,0,0,1.34-.33c.67-.33,1-.67,1.67,0s.33,1,1,.67.33,0,1.34-.33-.33-1,1.34-.33a3.73,3.73,0,0,0,3.34-.67s1,1.34,2,1a10.74,10.74,0,0,0,2.34-1.34l1.67.67a11.8,11.8,0,0,1,2-.33c.67,0,0-.33,1.34.33s2,.33,4,0,2.34-1,3.34-.33,2.34,1.34,3.34.67,1-1.34,2.34-1.34a5,5,0,0,1,2.67,1,3.66,3.66,0,0,0,2.67,0c1-.33.33-1,2.34-.33s3.34-.33,4.67-.33,6.34-.33,6.34-.33h4c.67,0-.33,1.67,1.34.33s1.67-2.34,3-1.67,1,1,2.67,1a9.3,9.3,0,0,1,3.34.33c.77.26,2.67,1.18,2.59.33a29,29,0,0,1,0-3.3c-.94.34-1.28,1-2.25.64s-.67-1.34-2.67-1a24.94,24.94,0,0,0-3.67.67,10.31,10.31,0,0,1-4.34.67c-2.67,0-2.34,0-3.67.33s-3-1-4-1.34-1-.33-2.67.67-2.34.67-3.34,1-.67-.33-2.67-.67-2-1-3.34-.67a9.75,9.75,0,0,1-3,.67c-1.34,0-2.34-.67-3-.67s-.67-.33-2,0-.67.33-2,.67-.67,1.67-1.67.67-1-2-1.67-1.67-.33.67-1.67,1.34-4.67-.33-5.67-.33h-3.34a16.89,16.89,0,0,0-2.31.33,17.46,17.46,0,0,1-2.37.33c-1,0-3.34.67-4,.67s-2.67-1.34-3.34-1.34-3.67.33-4.34,0-1.34,0-2.67.67-1.67,1.34-2.67,1-6.34-1.34-6.34-1.34a7.57,7.57,0,0,1-1.34.33H169.41s-3.34.33-3.67,0-.33-.67-1.34-.33,1,.67-2,.33-4-.67-4.67-.67a6.19,6.19,0,0,0-2.34.67c-.67.33-.67,1.34-1.67,1a32.33,32.33,0,0,0-3.67-1c-.33,0,0-1-1,0s-1,1.34-2,1.34a6.29,6.29,0,0,1-2.67-.67c-.67-.33-1.67,0-2.34,0h-2.67c-1.34,0-1-1.34-2-.67s-.33,1-1.67,1h-8c-2.67,0-5.34.33-5.67.67s-1.67-.67-3-.67a5.68,5.68,0,0,0-2.34.33c-1.34.33-4.67-1.67-5.67-1.34s-.67-.67-1.67,0,1.34.67-2,.67-4.34-1.34-4.67-.67-1,.67-1.34,1-5.67-.33-5.67-.33-2,1-2.34.67a3.52,3.52,0,0,0-1.67-.67H90c-1.34,0-1.34-1.34-2.34-.67s-.67,1.34-1.67,1-.67,0-1.67-.33a2.85,2.85,0,0,0-2.34,0,2.13,2.13,0,0,1-2,0c-1-.33-.67-1.34-2-.67s-1,.33-2.67.67-2-.33-2.67,0,1,0-1.67.67a6.36,6.36,0,0,1-4.67-.33,5,5,0,0,0-2-.33c-.67,0-1,.33-1.34,0s-.33-1.34-1-.33-.33,1.34-1,1a2,2,0,0,0-1.34-.33H58.25c-.33,0-.67.33-1.34.33s0-.67-1-.33-1.67.33-1.67,0,.33-.33-.33-.33,0-.33-.67,0-.33,0-1,0,1.34-.67-1,0-2.67,1.34-3.34,1,1-1-1.34-.67a24.94,24.94,0,0,1-3.67.33c-.33,0-14.35-.67-15-.67s-1.67-.33-1.67,0,.33.67-1.34,0-1-1.34-2-.67-.33,0-2,.33-1.34,0-2,.33,0,.33-1.34,0,.33-1-1.67-.67-1.67,0-2.34.33,0,0-2-.33-2-1-2.67-.67-.33.67-1.34.67-.67,0-2.34-.67-1,0-2.34.33-1,1-2,.67a7.44,7.44,0,0,0-.84-.27" transform="translate(0.02)"/></g><g id="Laag_13" data-name="Laag 13"><polygon class="cls-19" points="0.01 140.27 28.57 134.42 183.45 133.75 272.17 152.17 272.16 145.43 183.45 132.75 28.57 132.75 0 136.84 0.01 140.27"/></g><g id="Laag_7" data-name="Laag 7"><polygon class="cls-20" points="0.02 136.88 28.9 132.75 183.45 132.75 272.16 145.43 272.16 201.31 134.05 200.85 132.72 199.51 64.95 199.51 63.62 200.85 0.02 201.08 0.02 136.88"/></g><g id="Laag_4" data-name="Laag 4"><polyline class="cls-21" points="0.02 214.2 54.61 214.2 63.28 200.85 0.02 201.07"/><polyline class="cls-22" points="0.02 206.86 4.2 206.86 11.3 201.03 12.34 201.03 5.54 206.86 42.26 206.86 46.93 200.85 47.93 200.85 43.59 206.86 59.49 206.69 58.95 207.52 43.26 207.52 38.92 213.53 55.04 213.53 54.27 214.53 38.58 214.53 36.58 214.53 41.92 207.52 4.87 207.52 0.02 211.91 0.02 210.7 3.54 207.52 0.02 207.52"/><polyline class="cls-22" points="36.58 214.53 0.02 214.61 0.02 213.57 37.38 213.49 36.58 214.53"/><path class="cls-21" d="M0,221.31l50.91-.1a3.72,3.72,0,0,1,1-3,23.79,23.79,0,0,0,2.34-3.67L0,214.64Z" transform="translate(0.02)"/><polygon class="cls-23" points="0.02 236 50.94 235.9 51.27 222.88 0.02 222.98 0.02 236"/><rect class="cls-21" x="0.03" y="236.57" width="51.24" height="9.35"/><polygon class="cls-12" points="0.02 246.58 0.02 245.72 51.27 245.58 51.27 246.58 0.02 246.58"/><path class="cls-21" d="M272,201.52V214.2H138.69a.93.93,0,0,1-.82-.72l-4.17-12.63,138.3.67" transform="translate(0.02)"/><path class="cls-21" d="M272,214.87v6.68l-130.17-.33a9.44,9.44,0,0,0-.76-3.67c-.73-1.67-1.67-4-1.67-4Z" transform="translate(0.02)"/><polyline class="cls-22" points="272.16 207.19 269 207.19 256.7 201.29 255.44 201.29 267.62 207.19 229.44 206.86 220.13 201.16 218.87 201.18 228.07 206.86 190.93 206.86 183.61 201.03 182.55 201.03 189.55 206.86 151.72 206.86 146.9 200.85 145.87 200.85 150.34 206.86 136.37 206.71 136.73 207.52 150.69 207.52 155.15 213.53 139.44 213.53 139.97 214.53 155.5 214.53 157.56 214.53 152.06 207.52 190.24 207.52 197.46 213.87 198.84 213.87 191.61 207.52 228.76 207.52 239.07 213.87 241.14 213.87 230.13 207.52 269 207.86 272.15 209.43 272.17 208.84 270.03 207.86 272.18 207.86"/><polyline class="cls-22" points="157.56 214.53 272.15 214.97 272.17 213.74 156.74 213.49 157.56 214.53"/><polygon class="cls-23" points="272.16 236.23 143.02 235.9 142.77 222.88 272.16 223.21 272.16 236.23"/><rect class="cls-21" x="143.12" y="236.57" width="129.04" height="9.35"/><polygon class="cls-12" points="272.15 245.67 144.1 245.58 144.07 246.62 159.57 246.62 161.3 246.62 272.16 246.62 272.15 245.67"/><path class="cls-22" d="M240.42,213.53s6.19,3.67,6.19,8c0,4,.33,24.7.33,24.7h-1.72l-.69-24.7a5.19,5.19,0,0,0-.69-3.34c-1-2-4.81-4.34-4.81-4.34" transform="translate(0.02)"/><path class="cls-22" d="M198.45,213.53s4.47,3.34,4.47,7.68c0,4,.33,24.7.33,24.7h-1.72l-.33-24.7a9.73,9.73,0,0,0-1-4,13.63,13.63,0,0,0-3.09-3.67" transform="translate(0.02)"/><path class="cls-22" d="M156.85,214.53a13.37,13.37,0,0,1,2.75,7.68c0,3.72.29,21.85.33,24.4,0,.2-1.72,0-1.72,0l-.33-24.4a17.64,17.64,0,0,0-.69-4,9.06,9.06,0,0,0-2.06-3.67" transform="translate(0.02)"/><polyline class="cls-22" points="272.16 221.44 142.77 221.21 142.77 222.88 272.16 223.11"/><polygon class="cls-22" points="272.15 237.13 143.12 236.9 143.12 235.9 272.16 236.12 272.15 237.13"/><polygon class="cls-22" points="272.16 245.36 143.12 244.91 143.12 245.91 272.16 246.14 272.16 245.36"/><path class="cls-22" d="M159.94,245.91h-1.72" transform="translate(0.02)"/><path class="cls-22" d="M37.22,213.53a13.59,13.59,0,0,0-2.67,7.68c0,4-.33,24.7-.33,24.7h1.67l.33-24.7a18.14,18.14,0,0,1,.67-4,9.11,9.11,0,0,1,2-3.67" transform="translate(0.02)"/><polyline class="cls-22" points="0.02 221.31 50.94 221.21 50.94 222.88 0.02 222.98"/><polygon class="cls-22" points="0.03 237 51.27 236.9 51.27 235.9 0.02 236 0.03 236.56 0.03 237"/><polygon class="cls-22" points="0.02 245.21 51.27 244.91 51.27 245.91 0.02 246.11 0.02 245.91 0.02 245.21"/><path class="cls-22" d="M34.22,245.91l-.32.7h2.16c.06,0-.17-.71-.17-.71Z" transform="translate(0.02)"/></g><g id="Laag_5" data-name="Laag 5"><rect class="cls-24" x="50.93" y="220.21" width="92.13" height="26.79"/><path class="cls-25" d="M64.6,199.51l-1.34,1.34-9.68,14.69s-2.67,3-2.67,4.34v1.34H143a7.15,7.15,0,0,0-.33-2,16,16,0,0,0-1-2l-3.34-6.68c-2-4-4.6-9.68-4.6-9.68s-1.07-1.34-1.41-1.34Z" transform="translate(0.02)"/><polygon class="cls-21" points="68.63 200.51 58.28 217.2 135.39 217.2 128.71 200.51 68.63 200.51"/><rect class="cls-23" x="51.27" y="232.56" width="21.36" height="14.69"/><rect class="cls-23" x="121.03" y="232.56" width="21.7" height="14.69"/><rect class="cls-21" x="73.97" y="226.55" width="44.73" height="20.45"/><rect class="cls-21" x="51.27" y="221.21" width="44.73" height="3.34"/><rect class="cls-21" x="97.33" y="221.21" width="45.4" height="3.34"/><rect class="cls-21" x="51.27" y="225.88" width="21.36" height="5.67"/><rect class="cls-21" x="121.03" y="225.88" width="21.7" height="5.67"/><polygon class="cls-24" points="50.94 221.21 50.94 219.75 58.28 217.2 58.61 217.2 51.27 219.88 51.27 221.21 50.94 221.21"/><path class="cls-24" d="M143,221.21v-1a.47.47,0,0,0-.28-.43l-7.39-2.57H135l7.23,2.51a.67.67,0,0,1,.45.64v.85Z" transform="translate(0.02)"/><polyline class="cls-24" points="68.59 200.57 64.57 199.57 64.62 199.51 64.68 199.51 68.63 200.51"/><polygon class="cls-24" points="128.74 200.59 132.52 199.56 132.45 199.51 132.33 199.51 128.71 200.51 128.74 200.59"/></g><g id="Laag_10" data-name="Laag 10"><polygon class="cls-26" points="0.01 86.26 27.57 96.37 180.45 96.37 228.52 79.21 272.15 63.63 272.15 63.43 272.15 0 0.02 0 0.01 86.26"/><polygon class="cls-26" points="0.02 87.5 3.2 87.31 0.03 86.11 0.02 87.5"/><polygon class="cls-26" points="8.88 92.7 18.22 92.82 4.87 87.71 4.87 91.36 8.88 92.7"/><polygon class="cls-26" points="19.27 96.37 27.9 96.37 19.24 92.98 19.27 96.37"/><polygon class="cls-26" points="189.8 96.37 189.8 92.7 180.12 96.37 189.8 96.37"/><polygon class="cls-26" points="190.8 92.55 200.14 92.7 204.82 91.03 204.82 87.34 190.8 92.55"/><polygon class="cls-26" points="206.15 87.07 217.17 87.02 226.18 84.02 226.18 79.71 206.15 87.07"/><polygon class="cls-26" points="228.19 79.21 258.89 68.03 258.89 73.34 241.54 79.01 228.19 79.21"/><polygon class="cls-26" points="262.9 66.82 272.15 66.98 272.15 62.41 262.9 66.82"/></g><g id="Laag_12" data-name="Laag 12"><polygon class="cls-27" points="105.01 92.03 104.01 92.03 104.34 94.36 104.68 94.36 105.01 92.03"/><polygon class="cls-27" points="105.34 85.69 103.67 85.69 104.01 89.36 105.01 89.36 105.34 85.69"/><polygon class="cls-27" points="105.68 77.67 103.34 77.67 103.67 81.68 105.34 81.68 105.68 77.67"/><polygon class="cls-27" points="106.01 66.66 103.01 66.66 103.34 72 105.68 72 106.01 66.66"/><polygon class="cls-27" points="106.68 51.97 102.67 51.97 103.01 59.32 106.35 59.32 106.68 51.97"/><polygon class="cls-27" points="107.01 33.28 102.34 33.28 102.67 42.29 106.68 42.29 107.01 33.28"/><polygon class="cls-27" points="107.68 7.91 101.67 7.91 102.34 21.6 107.01 21.6 107.68 7.91"/><polygon class="cls-27" points="51.27 92.03 50.27 92.03 52.27 94.36 52.6 94.36 51.27 92.03"/><polygon class="cls-27" points="47.93 85.69 46.26 85.69 48.93 89.36 49.93 89.36 47.93 85.69"/><polygon class="cls-27" points="43.26 77.67 40.92 77.67 44.26 81.68 45.93 81.68 43.26 77.67"/><polygon class="cls-27" points="35.91 66.66 32.91 66.66 36.58 72 38.92 72 35.91 66.66"/><polygon class="cls-27" points="26.23 51.97 22.23 51.97 27.23 59.32 30.57 59.32 26.23 51.97"/><polygon class="cls-27" points="13.21 33.28 8.54 33.28 14.88 42.29 18.89 42.29 13.21 33.28"/><polygon class="cls-27" points="0.04 20.34 0.86 21.6 5.54 21.6 0.03 11.78 0.04 20.34"/><polygon class="cls-27" points="163.43 92.03 164.43 92.03 162.43 94.36 162.09 94.36 163.43 92.03"/><polygon class="cls-27" points="166.76 85.69 168.43 85.69 165.76 89.36 164.76 89.36 166.76 85.69"/><polygon class="cls-27" points="171.44 77.67 173.77 77.67 170.44 81.68 168.77 81.68 171.44 77.67"/><polygon class="cls-27" points="178.78 66.66 181.78 66.66 178.11 72 175.78 72 178.78 66.66"/><polygon class="cls-27" points="188.46 51.97 192.47 51.97 187.46 59.32 184.12 59.32 188.46 51.97"/><polygon class="cls-27" points="201.48 33.28 206.15 33.28 199.81 42.29 195.81 42.29 201.48 33.28"/><polygon class="cls-27" points="216.83 7.91 222.84 7.91 213.83 21.6 209.16 21.6 216.83 7.91"/></g></g></svg>