<svg xmlns="http://www.w3.org/2000/svg" viewBox="0 0 1366.08 768"><defs><style>.cls-1{fill:#adcffc;}.cls-2{fill:#1dacf0;}.cls-3,.cls-5,.cls-6,.cls-7{fill:#1a6faf;}.cls-4{fill:#b8ddf8;}.cls-5{opacity:0.71;}.cls-6{opacity:0.47;}.cls-7{opacity:0.18;}.cls-8{fill:#c8eced;}.cls-9{fill:#ffffe4;}.cls-10{fill:#f7f6da;}.cls-11{fill:#d8a796;}.cls-12{fill:#edefda;}.cls-13{fill:#d2cecd;}.cls-14{fill:#dfc5ac;}.cls-15{fill:#c05a4b;}.cls-16,.cls-20{fill:#5dc7df;}.cls-17{fill:#004f80;}.cls-18{fill:#0294ad;}.cls-19{fill:#00aae8;}.cls-20{opacity:0.61;}.cls-21{fill:#efdcde;}.cls-22{fill:#ebf5f7;}.cls-23{fill:#7daab2;}.cls-24{fill:#fff;}.cls-25{fill:#715d9a;}.cls-26{fill:#d8ba68;}.cls-27{fill:#fffdc5;}</style></defs><title>zwembad</title><g id="Laag_6" data-name="Laag 6"><polyline class="cls-1" points="0 422 0 446 454 392 454 384"/><polygon class="cls-2" points="0 461 0 446 454 392 454 398 0 461"/><polygon class="cls-3" points="0 452.87 454 394 454 394.41 0 454 0 452.87"/><polygon class="cls-3" points="0 460 454 397.06 454 398 0 461 0 460"/><polygon class="cls-3" points="3 423 3.31 445.61 0 450.84 0 452.4 4 446 4 423 3 423"/><polyline class="cls-3" points="23 421 24 421 24 444 15 458 13.44 458.14 23 444 23 421"/><polygon class="cls-3" points="42 419 42.49 440.96 32.99 455.43 34 456 43.5 440.77 43 419 42 419"/><polygon class="cls-3" points="60 417 60.49 438.96 50.99 453.43 52 453 61.5 438.77 61 417 60 417"/><polygon class="cls-3" points="77 416 77.49 436.96 67.99 451.43 69 451 78.5 436.77 78 416 77 416"/><polygon class="cls-3" points="93 414 93.49 434.96 83.99 449.43 85 449 94.5 434.77 94 414 93 414"/><polyline class="cls-4" points="0 464 0 461 454 397.41 454 399"/><polygon class="cls-3" points="108.17 413.03 108.35 433.12 100.84 446.92 101.63 446.52 109.14 432.94 108.95 413.03 108.17 413.03"/><polygon class="cls-3" points="122.72 412 123.14 431.3 115 444.62 115.87 444.23 124 431.12 123.58 412 122.72 412"/><polygon class="cls-3" points="136.57 411 136.98 429.93 129 443 129.85 442.62 137.83 429.76 137.41 411 136.57 411"/><polygon class="cls-3" points="149.34 410 149.73 428.34 142 441 142.83 440.63 150.56 428.17 150.15 410 149.34 410"/><polygon class="cls-3" points="162.1 409 162.48 426.75 155 439 155.8 438.64 163.28 426.58 162.89 409 162.1 409"/><polygon class="cls-3" points="173.86 408 174.23 425.15 167 437 167 437.3 167.41 437.28 167.77 436.64 175 425 174.62 408 173.86 408"/><polygon class="cls-3" points="185.79 407 186.16 423.98 179 435.69 179 436 179.41 435.98 179.76 435.35 186.92 423.82 186.54 407 185.79 407"/><polygon class="cls-5" points="196.56 406 196.91 422.39 190 433.7 190 434 190.39 433.98 190.74 433.37 197.65 422.24 197.28 406 196.56 406"/><polygon class="cls-5" points="207.01 405 207.33 421.39 201 432.7 201 433 201.36 432.98 201.68 432.37 208 421.24 207.67 405 207.01 405"/><polygon class="cls-6" points="216.15 404 216.43 419.81 211 430.72 211 431 211.31 430.98 211.58 430.39 217 419.66 216.72 404 216.15 404"/><polygon class="cls-6" points="224.15 404 224.43 419.22 219 429.73 219 430 219.31 429.98 219.58 429.42 225 419.08 224.72 404 224.15 404"/><polygon class="cls-7" points="230.29 403 230.52 418.22 226 428.73 226 429 226.26 428.98 226.48 428.42 231 418.08 230.77 403 230.29 403"/><polygon class="cls-7" points="235.29 403 235.52 418.22 231 428.73 231 429 231.26 428.98 231.48 428.42 236 418.08 235.77 403 235.29 403"/><polygon class="cls-7" points="240.43 403 240.62 417.63 237 427.74 237 428 237.21 427.98 237.39 427.44 241 417.5 240.81 403 240.43 403"/><polyline class="cls-1" points="1366 421.61 1366 446 918 392 918 384"/><polygon class="cls-2" points="1366 460 1366 445.22 918 392 918 397.91 1366 460"/><polygon class="cls-3" points="1366.01 451.87 918 394 918 394.46 1366 453 1366.01 451.87"/><polygon class="cls-3" points="1366 459 918 397.17 918 398 1366 460 1366 459"/><polygon class="cls-3" points="1363 422 1362.7 444.61 1366.01 449.84 1366 451.4 1362 445 1362 422 1363 422"/><polyline class="cls-3" points="1343 420 1342 420 1342 443 1351 457 1352.57 457.14 1343 443 1343 420"/><polygon class="cls-3" points="1324 418 1323.52 439.96 1333.01 454.43 1332 455 1322.51 439.77 1323 418 1324 418"/><polygon class="cls-3" points="1306 416 1305.52 437.96 1315.01 452.43 1314 452 1304.51 437.77 1305 416 1306 416"/><polygon class="cls-3" points="1289 415 1288.52 435.96 1298.01 450.43 1297 450 1287.51 435.77 1288 415 1289 415"/><polygon class="cls-3" points="1273 413 1272.52 433.96 1282.01 448.43 1281 448 1271.51 433.77 1272 413 1273 413"/><polyline class="cls-4" points="918 399 918 397.56 1366.01 459.91 1366.01 462.86 918 399"/><polygon class="cls-3" points="1257.83 412.03 1257.65 432.12 1265.17 445.92 1264.38 445.52 1256.87 431.94 1257.06 412.03 1257.83 412.03"/><polygon class="cls-3" points="1243.29 411 1242.87 430.3 1251 443.62 1250.14 443.23 1242 430.12 1242.43 411 1243.29 411"/><polygon class="cls-3" points="1229.43 410 1229.03 428.93 1237 442 1236.15 441.62 1228.17 428.76 1228.59 410 1229.43 410"/><polygon class="cls-3" points="1216.67 409 1216.28 427.34 1224 440 1223.18 439.63 1215.45 427.17 1215.86 409 1216.67 409"/><polygon class="cls-3" points="1203.91 408 1203.53 425.75 1211 438 1210.21 437.64 1202.73 425.58 1203.12 408 1203.91 408"/><polygon class="cls-3" points="1192.14 407 1191.78 424.15 1199 436 1199 436.3 1198.6 436.28 1198.23 435.64 1191 424 1191.38 407 1192.14 407"/><polygon class="cls-3" points="1180.22 406 1179.85 422.98 1187 434.69 1187 435 1186.6 434.98 1186.24 434.35 1179.09 422.82 1179.46 406 1180.22 406"/><polygon class="cls-5" points="1169.45 405 1169.1 421.39 1176 432.7 1176 433 1175.62 432.98 1175.27 432.37 1168.36 421.24 1168.72 405 1169.45 405"/><polygon class="cls-5" points="1159 404 1158.68 420.39 1165 431.7 1165 432 1164.65 431.98 1164.33 431.37 1158 420.24 1158.34 404 1159 404"/><polygon class="cls-6" points="1149.86 403 1149.58 418.81 1155 429.72 1155 430 1154.7 429.98 1154.43 429.39 1149 418.66 1149.29 403 1149.86 403"/><polygon class="cls-6" points="1141.86 403 1141.58 418.22 1147 428.73 1147 429 1146.7 428.98 1146.43 428.42 1141 418.08 1141.29 403 1141.86 403"/><polygon class="cls-7" points="1135.72 402 1135.49 417.22 1140 427.73 1140 428 1139.75 427.98 1139.52 427.42 1135 417.08 1135.24 402 1135.72 402"/><polygon class="cls-7" points="1130.72 402 1130.49 417.22 1135 427.73 1135 428 1134.75 427.98 1134.52 427.42 1130 417.08 1130.24 402 1130.72 402"/><polygon class="cls-7" points="1125.58 402 1125.39 416.63 1129 426.74 1129 427 1128.8 426.98 1128.62 426.44 1125 416.5 1125.19 402 1125.58 402"/><rect class="cls-2" x="454" y="392" width="464" height="6"/><polygon class="cls-4" points="918 399 454 399 454 397.41 918 397.17 918 399"/><polyline class="cls-3" points="454 397.06 454 397.41 918 397.56 918 397.17"/><polygon class="cls-3" points="454 394.41 454 394 918 394 918 394.46 454 394.41"/><rect class="cls-1" x="454" y="384" width="464" height="8"/></g><g id="Laag_11" data-name="Laag 11"><polygon class="cls-8" points="968 278.57 968 384 1366 408.33 1366 148.59 968 278.57"/><polygon class="cls-9" points="1313 385 1255 383 1249 383 1248 191 1313 170 1313 165 1248 186 1205 201 1205 204 1241.04 192.92 1241 382 1205 381 1205 385 1241 387 1241 397 1205 395 1205 399.49 1313 404 1313 401 1249 397 1249 387 1313 390 1313 385"/><polygon class="cls-9" points="1205 381 1129.96 378.06 1125.4 378.06 1124.64 231.32 1144 225 1144 221 1092 238 1092 241.19 1119.36 232.77 1119.33 378.3 1092 377.54 1092 380.34 1119.33 381.1 1119.33 388.69 1092 387.93 1092 390.58 1173.98 394 1173.98 391.72 1125.4 388.69 1125.4 381.1 1205 385 1205 381"/><polygon class="cls-9" points="1093 378 1046.23 376.13 1042 375.82 1042 257.65 1081.3 244.78 1056 249 1019 262 1016 265.62 1037.79 258.82 1037.77 375.52 1016 375.92 1016 377.16 1037.77 377.77 1037.77 384.92 1016 384.3 1016 386.43 1081.3 389 1081.3 386.35 1041.61 384.71 1041.61 377.77 1092 380 1093 378"/><polygon class="cls-9" points="1031 376.76 987.23 376.16 984.22 375.16 983.72 275.42 1016.32 264.58 1016.32 262 983.72 272.84 962.16 280.57 962.16 282.12 980.23 276.4 980.21 374.65 962.16 374.13 962.16 376.03 980.21 376.55 980.21 382.71 962.16 382.19 962.16 383.99 1016.32 386 1016.32 383.77 984.22 382.39 984.22 376.55 1030.17 377.46 1031 376.76"/><polyline class="cls-10" points="1248 191 1252 191 1253 383 1249 383"/><polygon class="cls-10" points="1252 191 1313 172 1313 170 1248 191 1252 191"/><polygon class="cls-11" points="1249 387 1249 397 1313 401 1313 390 1249 387"/><polyline class="cls-11" points="1241 387 1205 385 1205 395 1241 397 1241 387"/><polygon class="cls-11" points="1144 382.24 1144 389.85 1125.4 388.69 1125.41 381.08 1144 382.24"/><polygon class="cls-10" points="1128.25 378.06 1127.73 230.31 1124.65 231.32 1125.39 378.06 1128.25 378.06"/><polygon class="cls-11" points="1092 380.34 1119.33 381.09 1119.33 388.69 1092 387.93 1092 380.34"/><polygon class="cls-11" points="1054 385.27 1054 378.16 1041.61 377.77 1041.61 384.77 1054 385.27"/><polygon class="cls-11" points="1037.77 377.77 1037.77 384.92 1019 384.39 1019 377.24 1037.77 377.77"/><polygon class="cls-11" points="980.21 376.55 980.21 382.71 968 382.36 968 376.2 980.21 376.55"/><polygon class="cls-10" points="1043 257.32 1043.03 375.9 1042 375.82 1042 257.65 1043 257.32"/><polygon class="cls-10" points="1144 225.65 1144 225 1127.73 230.31 1127.73 230.88 1144 225.65"/><polygon class="cls-10" points="1046 256.61 1046 256.34 1043 257.32 1043 257.5 1046 256.61"/><polygon class="cls-10" points="1241.04 194.25 1205 205 1205 204 1241 193 1241.04 194.25"/><polygon class="cls-10" points="1119.36 233.34 1119.36 232.77 1092 241 1092 241.56 1119.36 233.34"/><polygon class="cls-10" points="1037.79 259.1 1019 265 1019 264.68 1037.79 258.82 1037.79 259.1"/><polygon class="cls-10" points="980.23 276.61 980.23 276.4 968 280.27 968 280.46 980.23 276.61"/></g><g id="Laag_8" data-name="Laag 8"><polygon class="cls-12" points="0 417 0 422 454 384 918 384 1366 422 1366 411 1336 412 1313 411 1313 404 1209 399 1159 398 1145 397 1145 392 1092 390 1054 391 1046 390 1046 387 1022 386 1019 386 1019 386 987 388 982 387 982 384 968 384 946 384 941 384 937 383 937 382 919 382 454 382 427 382 427 383 396 383 383 384 382 385 377 386 344 386 319 388 319 390 311 391 283 390 221 394 221 399 209 400 158 400 51 405 51 412 29 414 0 414 0 417"/><polygon class="cls-13" points="422 277 423 383 427 383 426 277 422 277"/><polygon class="cls-14" points="395 279 395 383.15 423 383 422.03 279.34 395 279"/><polyline class="cls-14" points="208 400 158 400 157 201 207 200 208 400"/><polyline class="cls-14" points="29 414 0 414 0 135 29 135.25 29 414"/><polygon class="cls-15" points="157 201 51 164.5 51 405 158 400 157 201"/><polyline class="cls-15" points="272 238 222.01 221.76 222 394 272 391 272 238"/><polyline class="cls-15" points="344 263 319 253.4 319 388 344 386 344 263"/><polygon class="cls-15" points="395 279 383 274.21 383 384 395 383 395 279"/><polygon class="cls-15" points="451 290 426.13 290 427 382 455 382 919 382 937 382 937 290 451 290"/><polyline class="cls-14" points="1336 412 1366 411 1366 137 1336 137.56 1336 412"/><path class="cls-14" d="M1157,398" transform="translate(0)"/></g><g id="Laag_9" data-name="Laag 9"><polygon class="cls-13" points="51 412 29 414 29 128 51 136 51 412"/><polygon class="cls-13" points="222 399 208 400 207 197 222 203 222 399"/><polygon class="cls-13" points="310 236 310 391 319 390 319 240 310 236"/><polygon class="cls-13" points="377 386 383 385 383 263 377 258 377 386"/><polygon class="cls-14" points="377 262.86 344 263 344 386 377 386 377 262.86"/><polygon class="cls-14" points="272 238 272 390.71 310 391 310 238 272 238"/><polyline class="cls-13" points="937 280 937 383 941 384 941 278.58 937 280"/><polygon class="cls-13" points="982 387 987 388 987 262 982 264 982 387"/><polygon class="cls-13" points="1046 390 1054 391 1053 238 1046 240 1046 390"/><polygon class="cls-13" points="1157 398 1157 201 1144 206 1144 397 1157 398"/><polygon class="cls-13" points="1336 412 1336 137 1313 145 1313 411 1336 412"/><polygon class="cls-14" points="1157 398 1205 399 1205 201 1157 201 1157 398"/><polygon class="cls-14" points="1092 238 1053.01 238.59 1054 391 1092 390 1092 238"/><polygon class="cls-14" points="987 388 1019 386 1019 262 987 262 987 388"/><rect class="cls-14" x="941" y="278.58" width="27" height="105.42"/></g><g id="Laag_2" data-name="Laag 2"><polygon class="cls-16" points="0 605 0 570 0 464 454 399 918 399 1366 462 1366 605 769 603 765 599 562 599 558 603 0 605"/></g><g id="Laag_3" data-name="Laag 3"><path class="cls-17" d="M14.7,562.09s.8-3.63,5.79-3.91,9.18,3.08,13.08,1.07,1-.06,5.74-4.8-.39-7.15,4.75-4.74,8.19,3.13,12.13,2,.15,2.68,3.94-1.11l4.75-4.74c3.9-2,.95-.95,5.89-2.12s4-.22,7-.39,1.95-1,3.85-2.9,5-.28,1.9-1.9-2.34-6.15-6.19-3.24-.65,6.31-3.85,2.9,1.75-4.58-3.19-3.41-6-.56-8.84,3.18-1.85,2.79-4.75,4.74-.85,2.74-3.9,2,0-.89-5.09-1.51-4.09-1.57-6.94,1.28,1.25,4.41-3.8,3.79-.1-1.79-5-.62-4.94,1.17-7.79,4-.9,1.84-4.84,3-3.09-1.62-5,.28-5.89,2.12-6.94,1.28-2.14-2.57-3.94,1.11-1.85,2.79-1.7,5.47S-1,567.44,4,567.16s7-4.09,8.91-6" transform="translate(0)"/><path class="cls-17" d="M116,528s-5.55-.89-6,0c-2,4-15,1-15,1l14-8s11-4,13-4,12-2,15-5,8-3,12-3,6-1,12-3,7-2,11-4,4-5,8-6,6-3,8,0l2,3s-1,2,5-2,3,2,6-3-4-5,3-5,5,1,10,0,5-2,9-5a45.74,45.74,0,0,1,6-4s0,2,5,3,7-1,9-3-1-1,2-2,2,0,7,0,8-3,12-6l4-3c4-3,3-3,8-4s14,0,14,0l4-5h9c1,0,10-5,10-5s0,2,3,0a54.36,54.36,0,0,1,8-4,42,42,0,0,1,5-2c3-1,4-4,8-2s5-1,5-1a39.33,39.33,0,0,0,6-2,14.45,14.45,0,0,1,7-2c3,0,3,2,5,0s3-3,4-3,4-1,5-1,2,1,4,0,2-2,4-3a14.86,14.86,0,0,1,6-1c1,0,0,1,3-1s3-3,5-2,2,1,4,0,1,0,2-1,2-2,3-2,7-2,7-2h3c1,0,0,0,2-1s2-2,4-2h4a3.49,3.49,0,0,1,2-1c1,0,2,1,4,0a32.08,32.08,0,0,0,5-3,10.78,10.78,0,0,1,7-2c2,0,3,1,5,0s5-1,6-2,7-3,9-3,5-1,6-1,2-1,4-1,1,0,3-1,5,0,6-1,4,0,5-1,6-1,6-1l6-2,5-1,3-1,6-1,1-.28,6.29-1.72L514,400s-5,2-6,2-1,0-3,1a13.38,13.38,0,0,1-5,1,1.39,1.39,0,0,0-2,0c-1,1,0,1-2,1s-3,1-5,1-5,2-5,2-1-2-2-1a3.67,3.67,0,0,1-3,1,43.31,43.31,0,0,0-5,1s-2,2-3,2-1-1-2,0-7,2-7,2h-3c-1,0-4,2-4,2l-4,1-5,1-1,1c-1,1-2-1-3,0a7.58,7.58,0,0,1-4,2h-2c-2,0-3-1-3,0s0,1-1,1,0,1-1,1-2,1-3,1,1-1-1,0-2,1-3,1h-2c-1,0-1,1-2,1s0,1-1,1h-2c-1,0-3-1-3,0s-1,0-1,1-1,1-2,1h-3a1,1,0,0,0-1,1,1,1,0,0,1-1,1c-1,0-1-1-2-1s0,1-1,1,0-1-1,0-6,2-7,2-1-1-2,0a3.1,3.1,0,0,1-2,1s0-1-1,0-2,0-2,1-3,0-3,0-1,2-2,2a43.31,43.31,0,0,0-5,1s0-1-1,0l-2,2a3.49,3.49,0,0,1-2,1h-2c-1,0-1,1-2,1h-2c-1,0,0-2-1,0s-1,2-2,2h-2c-1,0-1-1-2,0l-1,1a3.67,3.67,0,0,1-3,1c-1,0-2-1-3,0s-2,0-2,1,0,1-1,1-1-2-2-1l-1,1c-1,1-1,0-2,1l-2,2c-1,1-3,0-3,0s1-1-1,0-1,0-3,1-2-1-3,0-4,0-4,0l-1,1a14.39,14.39,0,0,1-3,2s-1,2-2,1l-1-1s-2,0-2,1-1,0-1,1,0,1-1,1,0-1-1,0-1,1-2,1h-2c-1,0-1,1-2,1a22.69,22.69,0,0,0-4,1s-4-1-5,1-1,0-2,2-4,2-5,2-1-2-2-2-1,0-3,2-1,2-2,2-3-1-4-1a2.15,2.15,0,0,0-2,2c0,1,0-1-1,1s-1,2-3,2-1-1-3,0-1-1-3,1-4,1-5,1,0-1-2,0-2,2-3,3-1,2-3,2-4,2-6,2-4,1-5,0-1-1-3,1a5.51,5.51,0,0,1-5,2c-2,0-5,4-7,3s-3-3-4-2-1,2-3,3-1,2-3,2a56.38,56.38,0,0,0-7,1s-4,1-5,2-2,3-4,3h-4a3.1,3.1,0,0,0-2,1c-1,1-5,3-6,3a20.73,20.73,0,0,0-6,2c-2,1-5,0-5,0s-8,0-9,1-2,4-3,4-4,4-6,4-2-1-5-1-4,0-5,1-4,2-5,3-2,4-3,4-3-1-5-1-5,4-3,4,6,1-1,1-7-2-8-1-3-1-3,3-1,2-4,1-7,2-7,3-2,1-2,1" transform="translate(0)"/><path class="cls-17" d="M291,604h35s3-6,1-6,0-2,3-3a16.12,16.12,0,0,0,7-4c2-2,1-6,0-7s1-1,3-3,6-4,9-5,2-2,5-4,6-5,8-5,6-1,5-5-6-8,0-5,7,5,10,2,3-2,5-5,.31-8.33,3.15-7.67S397,544,389,544H377c-3,0-5-2-5,0s-1,0-4,4,3,5-3,4-2-6-7,0-7,9-9,10-4,0-7,3-4,2-6,5-1,4-2,5,0-2-4,1-4,1-7,6-2,7-6,8-3-1-6,1a37.36,37.36,0,0,0-7,6c-3,3-5,3-8,4A14.09,14.09,0,0,0,291,604Z" transform="translate(0)"/><path class="cls-17" d="M384,535l6-5v-4s6-2,7-2,3,1,4,0,1-7,1-7a11,11,0,0,1,4-2c3-1,2-1,5-2s4-3,5-4,4-4,5-3,3-6,3-6-2,1,2,0,5-2,8-3,4,1,6-2-1-6,4-5,4,2,6,0l4-4c2-2,0-3,4-4s2,3,4,0,1-1,3-4,3-8,3-8a5.64,5.64,0,0,0,6,0,31.71,31.71,0,0,0,6-5c2-2-1-2,2-2s4,3,5,0,0-3,2-4a47.09,47.09,0,0,1,5-2l4-4a4.94,4.94,0,0,0,3-1c1-1,1-2,3-3s3-1,5-2,3-2,5-4,4-1,5-2l3-3,3-3c2-2,1-1,5-2s4-2,4-2,1-2,2-2h3l2-2a3.1,3.1,0,0,0,2-1c1-1,1-3,2-3s2,1,3,0,2,0,3-2,1-1,2-2a3.67,3.67,0,0,1,3-1,3.67,3.67,0,0,0,3-1c1-1,2-1,3-2s6-2,7-3,3-1,4-2,2-2,3-2,2-2,4-2,5-2,6-2,7-5,8-5h5s-10,4-10,5-5,3-6,4a7.58,7.58,0,0,1-4,2c-1,0-1,0-2,1s-2,1-3,2-2,2-3,2,0-1-2,0-1,1-3,2a7.69,7.69,0,0,0-3,2l-2,2c-1,1-1,1-2,1s-1,0-2,1l-1,1c-1,1-1,0-2,1s1,0-1,1-2,2-2,2,1-2-1-1-3,1-3,2v1c0,1-2,0-4,1s-2,0-3,1,0,1-1,2,1,1-1,1-1-3-2-1a12.38,12.38,0,0,1-2,3,1,1,0,0,1-1,1h-2c-1,0-2,0-2,1v2l-7,2-4,3s0,2-1,2-3,0-4,1-1-1-2,1-1,1-2,3-2,1-3,2l-2,2c-2,2-2,3-4,3h-5c-1,0-1,1-2,2s-1,3-2,3,0-1-2,0a13.8,13.8,0,0,0-4,3c-1,1-3,0-3,1s1-1-1,2-3,2-4,3,0-1-2,1l-3,3c-1,1-2,1-3,2l-2,2-3,3c-1,1-2,0-3,2s-3,2-4,3a7.69,7.69,0,0,1-3,2c-2,1-2,0-3,1s-1,0-2,2,0,2-3,3-1,0-4,2-1,1-3,3l-3,3c-2,2-1,2-4,3s-1-4-4,1-2,5-4,7-1,1-4,3-2,1-4,3-1,4-3,5-1,1-3,2-2,0-3,2,0,1-2,3-2,3-4,3-17-1-17-1v-2" transform="translate(0)"/><path class="cls-17" d="M663,599h40s-5-2-5-4,0-5,1-6,5-2,1-6-5-4-5-5,4-4,5-5,1,0-2-4-6-4-6-7,1-4,3-5,2-3-1-5-4.31-2.38-4.66-4.69S688,544,691,543s5.67,1,2.33-4-2.33-6-4.33-9-5-4-2-6,5,5,3-2-4-7-3-9,1-3,2-4,3-1-1-5-5-3-3-6,2-1,3-4,2-3,1-6a18.93,18.93,0,0,0-4-6s-1,0,2-3,4-4,3-5-2-1-2-3,1,4,0-4l-1-8a10,10,0,0,1,1-4c1-2,1,0,2-4s1-3-1-6-3-3-2-5,3,0,1-4-4-8-3-9,2,2,2-3,1-3,0-5-3-3-2-5,1,3,0-2,0-5,0-5-1-2,0-3,0,.16,0-3v-2h-6s-2,0,0,2,3,2,2,5,0,1-1,3a10.87,10.87,0,0,0-1,5c0,1,1,2,0,3s-2-3-1,1,2,1,1,4-3,1-1,3,5,1,2,4-3,0-3,3v3c0,4-2,2,0,4s1,2,2,3,4-1,1,1-4-2-3,2,0,2,1,4a4.4,4.4,0,0,1-1,5c-1,1-5-1-2,3l3,4s-1,0-1,4,1,4,1,6,1,3-1,5-3-1-2,4,4,5,3,7-3,3-4,4-1-1-1,3,3,1,0,6-8,2-5,6,4-1,3,4-5,3-5,8,0,6,3,9,6-2,3,3-5.39,8.26-5.7,10.13S664,538,666,542s4,4,3,7-2,2-4,6-1,3-2,6,0-1,0,5-2,7,0,10,2,4,2,5-2,1-3,4-4,2-2,5,3,4,2,6A2.19,2.19,0,0,0,663,599Z" transform="translate(0)"/><path class="cls-17" d="M1035,603s3-4-1-6,1,0-4-2-6,0-8-3-2-5-1-5,0-1-2-2,0-2-3-2,0,2-4-1-3-4-5-5-2-1-5-1-3,1-3-1,3,0,0-4-5-5-7-6-1-1-4-2-6-3-6-4v-3c0-1-1-1-4-2s-4,0-5-2-7.81-2.47-7.91-3.73S967,545,966,544s-2-4-3-3-2,2-2,0,0-3-1-3-2.17.61-3.58-.7S954,535,954,535l1-2s0-2-1-2-3-3-4-2-8-3-8-3l-1-2a1,1,0,0,0-1-1h-2l-3-4a12.38,12.38,0,0,0-3-2c-2-1-1-2-3-3s1-1-2-2-2-1-4-2-1,0-3-2,3,0-2-3-4-3-6-4-2-2-4-2-6-4-5-5,6,0,1-2-5-4-6-3-4,0-5-2-1-1-2-3,0-3-2-3-5,0-6-1-1-2-3-3-2-2-3-2-4,0-4-2,4-1-1-3-7-2-7-2-2,1-2-2,8-1-2-5c-4.1-1.64-6.68-2.77-8.31-3.54a3.74,3.74,0,0,1-2.19-3.27c0-1-.54-2.21-2.5-3.19-4-2-6-1-6-2s-1-2-2-3,2-2,0-3c-7.64-3.82-5-2-7-2s-2-1-3-2-1-2-3-3,1,0-2-1-3-2-4-3,0,1-2-1-2-1-3-2l-1-1c-1-1,1-1-1-1s-1,1-3,0-3-1-3-2,0-2-1-2-2,2-2-1,2-4,0-3-1,0-3,0-2,2-3,0a10.94,10.94,0,0,0-2.79-3.51c-1.22-1-1.36-2.3-2.18-1.51a2.13,2.13,0,0,1-2.38.46c-2.31-1.12.65-2.43-1.64-2.43h-4a3.67,3.67,0,0,1-3-1c-1-1,1,0-1-1s-5-3-5-3a3.49,3.49,0,0,0-2-1c-1,0,0,0-2-1s-1,0-3-1-2,0-3-1l-2-2C764,400,764,399,763,399h2c1,0,0,0,2,1s2,1,3,1,1,0,3,1,2,0,3,1l2,2c1,1,4,1,4,1a3.1,3.1,0,0,1,2,1c1,1-1,0,1,1s3-1,4,0,1-1,2,1-1,2,1,2,2,0,3,1l2,2c2,2,1,3,3,2s0-3,2-1,2,1,3,2,2,0,3,1-1,0,1,2,0,1,2,2,2,0,3,1,0,1,2,2,4-1,5,1-1,1,2,2,4,0,5,1l2,2c2,2,0,0,3,2s3,1,4,3,1,1,2,2a3.67,3.67,0,0,0,3,1c1,0,1,0,2,1s1,0,3,2,2,2,5,2,2-2,3,0c1.25,2.51-.63.3,2.21,5.19a2.24,2.24,0,0,0,1,.89c1.78.86.89-.05,2.84.92s0,0,2,2,0,3,3,2,3-1,4,0-1,1,1,2-1,0,3,2,6,5,9,6,3-1,4,1,1,1,3,3,3,1,4,2l2,2c2,2,1,2,3,3s2-3,4,0,2,3,3,4,0-1,2,1c2.54,2.54-1.37-1.37,6.7,4.65a5.42,5.42,0,0,1,1.24,1.26C918.06,490,915,490,918,491s3-1,4,0-1,1,2,3-1-2,4,3,2,4,6,5c3.5.87,0-4,3-2,3.72,2.48,1,3,3,5s0,1,3,3,3,0,5,3,3,0,3,3,1,1,5,2,3-1,4,2-1,2,0,4,2,5,4,5,1-2,2,1,2-1,6,1,3,1,4,3,0,4,2,6,3,1,5,3,.95,1.76,3.47,2.88.53.37,4,3.24S994,550,996,551s2,1,4,3,0,3,5,3,4-3,6,1-1,3,2,5,0,0,5,3,4,2,6,5,0,0,4,3,4,1,6,3,2,2,3,4,3,0,5,2l3,3c3,3,5,2,4,4s-5,1,0,3,4,1,7,4,1,3,4,4a26.39,26.39,0,0,0,7,1l1,1Z" transform="translate(0)"/><path class="cls-17" d="M1366,568c-3,0-2,0-9-3s2-3-7-3-9,0-14-5-1-7-5-6-4-2-10,0-5,3-8,0,1,0-3-3,0-2-4-3-4-4-10-5-10-4-12-4-1-1-7,0-6,4-11,0-5-7-9-8-4,1-9,0-3,4-7,0-2-3-6-6-6-5-8-6-2,2-8,0-6,0-6,0,0-3-5-5a14.82,14.82,0,0,0-10,0s-1,2-6-3-5-10-7-8-4,1-7,2-7-1-9-2-3-4-6-3-3,3-8,0-7-3-7-3-5-5-9-4,0,5-6,0l-6-5s0,2-6,0-9-2-11-3a41.73,41.73,0,0,1-8-6c-2-2-9-4-10-3s-4-4-7-3-8-3-10-3-7-3-7-3a5.64,5.64,0,0,1-6,0c-3-2-7-1-9-3s-3-4-8-5-5,3-8,0-7-7-10-6-7-2-9-3-3-3-6-3-1-1-4-1-3,0-5-1-1,0-4,0-4,0-5-1-1-2-3-2-2,1-3,0-1-2-2-2a10.87,10.87,0,0,1-5-1c-2-1-7-1-9-2s-7-4-8-4,0-1-4-2a105,105,0,0,0-13-2c-1,0-5-2-6-2s-6-1-7-2a7.64,7.64,0,0,0-5-2c-2,0-6,2-8,0s-3-3-5-3-10-4-10-4h-3c-1.63,0-2.6-1.33-4-1.82a3,3,0,0,0-1-.18c-1.68,0-3.37.71-5.05.34A4.08,4.08,0,0,1,892,411a7.56,7.56,0,0,0-4-1c-1,0-4-2-6-2h-4c-1,0-9-3-9-3s-3,1-4,0-2-2-3-2-6-2-7-2h-3c-1,0-2-1-4-1a10.34,10.34,0,0,1-4-1h8s5,1,8,2,5,0,6,1,2-1,4,1,1,2,3,3,5,0,8,0,4,1,6,2,21,3,21,3a14.39,14.39,0,0,1,3,2c1,1,3,0,5,1a25.67,25.67,0,0,0,5,2c3,1,3,0,6,1s4,1,6,2,5-1,6,0,1,0,3,1,4,2,6,2a12.68,12.68,0,0,1,6,1c2,1,1,1,4,2s5,0,7,1a32.08,32.08,0,0,1,5,3,9.88,9.88,0,0,0,6,2c1,0,1-1,3,0s3,1,5,2,4,0,6,1a14.45,14.45,0,0,0,7,2c3,0,4-1,5,1s2,4,4,4,4-1,6,0,3-1,5,1,3,2,5,3,4,0,5,0,4,2,5,2,2-2,3-1,15,5,13,6-3-2,1,0,5,1,6,2,2,0,5,2,6,1,8,4,3,4,6,3,2-2,5,0,2,1,5,3,6,0,8,1,2,3,5,4a24.85,24.85,0,0,0,8,1c2,0,0-3,4,0s2,2,6,4,4,2,8,2,3-1,6,1,2,1,4,3,0,2,4,2,2-2,6,0,3,1,6,2,3,0,5,0-1-3,4,1,5,6,8,5,2-3,5-1,2,2,6,4,5,3,8,2,8,0,10,1,5,1,7,3,3,2,5,3,2,1,5,1,3-2,5,0,2,1,6,3a9.79,9.79,0,0,0,7,1s1,2,2,2,2,1,4,2,6,0,8,1l4,2,4,2c2,1,4,1,6,2s4,1,5,2-1,1,1,2,3,2,4,1,1-1,3,0,12,0,14,2l3,3c1,1,1,1,5,3s6,5,11,5,7,0,9,1,7,2,8,3,5,1,6,2,2,1,4,2,15,1,17,1,5-1,7,2,0,5,3,5,3.45-4.55,6-2C1366,554,1366,568,1366,568Z" transform="translate(0)"/><path class="cls-18" d="M0,524v10s4,2,7,0,9,0,10,0,0,1,5,1,6,0,8-1a9,9,0,0,1,5-1c2,0,4,1,6,2s3,2,7-1,7,2,9,2,1,2,4,0,3-3,6-2,6,5,8,3,6,2,9,1,8,0,8,0-5,2,6,0,9-6,13-2,12,3,12,3,3-9,7-5,5,3,7,5,2,5,5,2,1-5,5-3,4,5,6,4,5,2,8,0,5-3,7-3,5,4,5,4,0,1,2,0,0-3,0-4,5,2,6,3,6,1,6,1l-1-2s4-1,6,2,8,2,9,0,2-5,3-4,6,4,7,4-1,0,6-1,10-1,12,1,2,3,6,2,6-3,9-3-3,1,7,1h15c6,0,6-1,10,1s8,2,13,1,5-2,11-2,9,1,11,3,7,2,10,0,4-3,6-2a18.66,18.66,0,0,1,4,3s8-2,9-2-3-2,0,0,2,5,5,4,8-3,8-3l10-3s6,2,7,2,3,2,9,2,14-3,16-1,19-1,19-1a47.09,47.09,0,0,1,5,2c2,1,1,4,9,1s9-6,12-3,23-1,25,0,18,4,18,4,6-2,8-2,10,3,12,2,10,0,10,0l8-3h8s10-1,13,0,6,5,9,3,10-2,10-2h7s8-4,10-3,10,2,10,2h21l7-1,6,1,6,4,5-3h7a10.56,10.56,0,0,1,6,0c3,1,1,5,6,3s8-5,11-4,55,2,55,2a12.68,12.68,0,0,1,6-2h3l7,1,13-1,6,2s4,1,6,0a29.2,29.2,0,0,1,9-2h7l7,2,6-1h8a47.09,47.09,0,0,0,5-2c2-1,3-4,5-1s-7,3,0,3,5,1,10,0,4-3,7-2l6,2,9-3a39.87,39.87,0,0,1,4,3c1,1,11-1,11-1s9-1,10,0-1,2,4,0,4-5,8-2,1,3,5,3,7,0,9-1,3-3,5,0,5,0,8,0,3-1,5-1,1,0,6,1,6,0,9-1-2-4,3-1,5,5,8,4a14.09,14.09,0,0,0,5-3s-6-3,2,0,6,7,12,3,4-7,8-4,6,6,8,5,0-1,3-2,3-1,5-1h4c2,0,2,0,4-1s3-2,5,0,1,3,3,2,1,0,4-1-1-3,4-1,10-2,10-2,3,4,6,3a32.17,32.17,0,0,0,7-4l5,2a35.36,35.36,0,0,1,6-1c2,0,0-1,4,1s6,1,12,0,7-3,10-1,7,4,10,2,3-4,7-4,6,2,8,3,5,1,8,0,1-3,7-1,10-1,14-1,19-1,19-1h12c2,0-1,5,4,1s5-7,9-5,3,3,8,3,7,0,10,1,7,1,10,1,7-3,9-3,5,2,10,3,7-4,12-5,7-2,11,0-3-2,9,0,9,0,17,2,7,4,12,3,4-2,9-3,4-4,9-2,5,2,8,2,2-4,5-4,5-1,8,0,3,1,6,0,23-1,23-1-1-4,3-2,1,4,6,3,2-2,9-1,4,0,7,1-2,4,3,2c1.64-.65,4-.12,4-1.21,0-1.79,0-1.29,0-2.79v-3c0-3.67,0-1,0-1.63s-1.11-.19-2-.37c-5-1-1-1-5-1s-5,0-8,1-8-2-11-1-7,5-9,5-6-2-8-3-6,2-10,2h-7c-2,0,1,0-6,1s-15-1-18-1-4-2-8-1-2,0-8,1-6,1-10,1-2-2-8,0-4,4-8,2-3-2-6-3a24.85,24.85,0,0,0-8-1c-2,0-6,3-8,4s-7,0-10-1,1-3-3-1-7,2-9,3,0,2-4-1-5-3-8-2-4,3-7,2-2-4-8-3-8,1-11,2-5,2-13,2-7,0-11,1-9-3-12-4-3-1-8,2-7,2-10,3-2-1-8-2-6-3-10-2-5,2-9,2-7-2-9-2-2-1-6,0-2,1-6,2-2,5-5,2-3-6-5-5-1,2-5,4-14-1-17-1h-10a50.59,50.59,0,0,0-6.91,1,52.29,52.29,0,0,1-7.09,1c-3,0-10,2-12,2s-8-4-10-4-11,1-13,0-4,0-8,2-5,4-8,3-19-4-19-4a22.69,22.69,0,0,1-4,1H876s-10,1-11,0-1-2-4-1,3,2-6,1-12-2-14-2a18.54,18.54,0,0,0-7,2c-2,1-2,4-5,3s-10-3-11-3,0-3-3,0-3,4-6,4a18.84,18.84,0,0,1-8-2c-2-1-5,0-7,0h-8c-4,0-3-4-6-2s-1,3-5,3H751c-8,0-16,1-17,2s-5-2-9-2-3,0-7,1-14-5-17-4-2-2-5,0,4,2-6,2-13-4-14-2-3,2-4,3-17-1-17-1-6,3-7,2a10.56,10.56,0,0,0-5-2h-5c-4,0-4-4-7-2s-2,4-5,3-2,0-5-1-4-1-7,0-3,1-6,0-2-4-6-2-3,1-8,2-6-1-8,0,3,0-5,2-11,0-14-1a14.86,14.86,0,0,0-6-1c-2,0-3,1-4,0s-1-4-3-1-1,4-3,3-2-1-4-1h-4c-1,0-2,1-4,1s0-2-3-1-5,1-5,0,1-1-1-1,0-1-2,0-1,0-3,0,4-2-3,0-8,4-10,3,3-3-4-2a74.71,74.71,0,0,1-11,1c-1,0-43-2-45-2s-5-1-5,0,1,2-4,0-3-4-6-2-1,0-6,1-4,0-6,1,0,1-4,0,1-3-5-2-5,0-7,1,0,0-6-1-6-3-8-2-1,2-4,2-2,0-7-2-3,0-7,1-3,3-6,2-2-1-9-1-9-4-10-3-6,3-7,3-1-3-4-2-2-1-4,0-8-1-10-1a5.2,5.2,0,0,0-4,2c-1,1,0,1-3,0s-5-2-6-2-1,1-3,1-3,1-5,0-1-2-2-1-14-3-17-2-1,2-4,2-3,1-6,0-2-1-5-1-2,0-6,1-8-1-10-1,0-1-4,0-3,2-6,2-6-2-7-2,0-1-4,0-6,0-9-1-4-3-6-2-1,0-4,1-4,0-6,0-1-3-3-1,3,1-4,2-25-2-27-2-2,1-3,1-1,1-3,0-2,0-3,0-26-3-26-3c-3,1-5,2-7,2s0,1-5,0-3-1-6-1-2.33-1-4.67-1-.82-.7-4.08-.85S111,527,110,528s-4,2-6,1-16-2-18-2-2,0-4,1-4,2-6,1-1,0-4-1,0-3-5-1-27-2-30-2-1-2-4,0-1,2-5,1-4-2-6-2-2,1-5,2,0,4-5,2-6-4-6-4-4-2-5-2-1,2-1,2" transform="translate(0)"/></g><g id="Laag_13" data-name="Laag 13"><polygon class="cls-19" points="0 464 0 497 454 404 918 402 1366 495 1366 463 918 399 454 399 0 464"/></g><g id="Laag_7" data-name="Laag 7"><polygon class="cls-20" points="0 605 0 570 0 464 455 399 918 399 1366 463 1366.01 553.14 1366.02 605 770 603 766 599 563 599 559 603 0 605"/></g><g id="Laag_4" data-name="Laag 4"><polyline class="cls-21" points="0 605 0 643 532 643 558 603 0 605"/><polyline class="cls-22" points="0 622 41 622 83.12 604.78 87.59 604.7 45 622 154 622 189.75 604.32 193.42 604.32 158 622 269 621 296.09 603.94 299.75 604 273 621 381 621 402.25 603.56 405.37 603.55 385 621 495 621 509 603 512 603 499 621 546.63 620.5 545 623 498 623 485 641 533.3 641 531 644 484 644 478 644 494 623 383 623 362 642 358 642 379 623 271 623 241 642 235 642 267 623 154 624 119 642 113 642 151 624 41 624 0 641 0 638 37 624 0 624"/><polyline class="cls-22" points="478 644 0 645 0 642 480.4 640.86 478 644"/><path class="cls-21" d="M0,645v20l521-1s-1-4,3-9a71.26,71.26,0,0,0,7-11Z" transform="translate(0)"/><polygon class="cls-23" points="0 670 0 709 521 708 522 669 0 670"/><rect class="cls-21" y="710" width="522" height="28"/><polygon class="cls-12" points="522 768 0 768 0 740 522 737 522 768"/><path class="cls-21" d="M1366,605v38H790.55a3.89,3.89,0,0,1-3.53-2.16l-18-37.84L1366,605" transform="translate(0)"/><path class="cls-21" d="M1366,645v20l-569.29-1a20.94,20.94,0,0,0-3.31-11c-3.18-5-7.3-12-7.3-12Z" transform="translate(0)"/><polyline class="cls-22" points="1366 622 1290.7 622 1247.3 604.78 1242.7 604.7 1286.58 622 1174.27 622 1137.43 604.32 1133.65 604.32 1170.15 622 1055.78 621 1027.87 603.94 1024.09 604 1051.66 621 940.38 621 918.48 603.56 915.28 603.55 936.26 621 822.92 621 808.49 603 805.4 603 818.79 621 776.95 620.57 778.03 623 819.83 623 833.22 641 786.13 641 787.73 644 834.25 644 840.43 644 823.95 623 938.32 623 959.95 642 964.08 642 942.44 623 1053.72 623 1084.63 642 1090.81 642 1057.84 623 1174.27 624 1210.33 642 1216.51 642 1177.36 624 1290.7 624 1335 642 1343 642 1294.82 624 1366 624"/><polyline class="cls-22" points="840.43 644 1366 646 1366 642 837.97 640.86 840.43 644"/><polygon class="cls-23" points="1366 670 1366 709 797.22 708 796.13 669 1366 670"/><rect class="cls-21" x="797.16" y="710" width="568.85" height="28"/><polygon class="cls-12" points="797 768 1366 768 1366 739 797.16 737 797 768"/><path class="cls-22" d="M1216.51,642s20.61,10,20.61,23c0,12,1,74,1,74H1233l-1-74s0-3-3.09-9-18.55-14-18.55-14" transform="translate(0)"/><path class="cls-22" d="M1088.74,641s18.55,11,18.55,24c0,12,1,74,1,74h-5.15l-2.06-74s1-4-2.06-10-14.42-13-14.42-13" transform="translate(0)"/><path class="cls-22" d="M963,641s13.39,10,13.39,23c0,12,1,74,1,74h-5.15l-1-74a29.16,29.16,0,0,0-3.09-12c-3.09-6-9.27-11-9.27-11" transform="translate(0)"/><path class="cls-22" d="M838.37,641s8.24,10,8.24,23c0,12,1,74,1,74h-5.15l-1-74a52.85,52.85,0,0,0-2.06-12,27.13,27.13,0,0,0-6.18-11" transform="translate(0)"/><polyline class="cls-22" points="1366 665 796.13 664 796.13 669 1366 670"/><polygon class="cls-22" points="1366 709 1366 712 797.16 711 797.16 708 1366 709"/><polygon class="cls-22" points="1366 737 797.16 735 797.16 738 1366 739 1366 737"/><path class="cls-22" d="M1238.15,739s33,29,37.09,29h-2.06s-28.85-18-40.18-30C1231.44,736.35,1238.15,739,1238.15,739Z" transform="translate(0)"/><path class="cls-22" d="M1108.32,737l19.58,21s9.19,10,15.46,10h-6.18s-8.67-4.42-10.3-6c-2.06-2-23.7-25-23.7-25Z" transform="translate(0)"/><path class="cls-22" d="M978.69,738.68,991.89,758,1002,768h-3.93s-9.27-7-10.3-9-15.48-23-15.48-23H977Z" transform="translate(0)"/><path class="cls-22" d="M847.64,738l10.08,21.52a11.6,11.6,0,0,0,.55,1c1.17,2,3,7.46,5.74,7.46h-5s-7.24-8-8.27-11-8.24-19-8.24-19Z" transform="translate(0)"/><path class="cls-22" d="M1343,642s20,10,20,23c0,12,.15,74,.15,74H1358V665s.18-2.35-6-11c-5-7-16.67-12-16.67-12" transform="translate(0)"/><path class="cls-22" d="M113,642s-20,10-20,23c0,12-1,74-1,74h5l1-74s0-3,3-9,18-14,18-14" transform="translate(0)"/><path class="cls-22" d="M237,641s-18,11-18,24c0,12-1,74-1,74h5l2-74s-1-4,2-10,14-13,14-13" transform="translate(0)"/><path class="cls-22" d="M359,641s-13,10-13,23c0,12-1,74-1,74h5l1-74a29.9,29.9,0,0,1,3-12c3-6,9-11,9-11" transform="translate(0)"/><path class="cls-22" d="M480,641s-8,10-8,23c0,12-1,74-1,74h5l1-74a54.34,54.34,0,0,1,2-12,27.29,27.29,0,0,1,6-11" transform="translate(0)"/><polyline class="cls-22" points="0 665 521 664 521 669 0 670"/><polygon class="cls-22" points="0 709 0 712 522 711 522 708 0 709"/><polygon class="cls-22" points="0 738 522 735 522 738 0 740 0 738"/><path class="cls-22" d="M92,739s-32,29-36,29h2s28-18,39-30C98.51,736.35,92,739,92,739Z" transform="translate(0)"/><path class="cls-22" d="M218,737l-19,21s-8.92,10-15,10h6s8.42-4.42,10-6c2-2,23-25,23-25Z" transform="translate(0)"/><path class="cls-22" d="M343.81,738.68,331,758s-5.88,10-10,10h4s9-7,10-9,15-23,15-23H345.5Z" transform="translate(0)"/><path class="cls-22" d="M471,738l-9.78,21.52c-.16.35-.34.69-.53,1-1.14,2-4,7.46-6.69,7.46h6s7-8,8-11,8-19,8-19Z" transform="translate(0)"/></g><g id="Laag_5" data-name="Laag 5"><rect class="cls-24" x="521" y="661" width="276" height="107"/><path class="cls-25" d="M562,599l-4,4-29,44s-8,9-8,13v4H797a21.42,21.42,0,0,0-1-6,47.9,47.9,0,0,0-3-6l-10-20c-6-12-13.78-29-13.78-29s-3.22-4-4.22-4Z" transform="translate(0)"/><polygon class="cls-21" points="574 602 543 652 774 652 754 602 574 602"/><rect class="cls-23" x="522" y="698" width="64" height="44"/><rect class="cls-23" x="731" y="698" width="65" height="44"/><rect class="cls-21" x="590" y="680" width="134" height="88"/><rect class="cls-21" x="522" y="664" width="134" height="10"/><rect class="cls-21" x="660" y="664" width="136" height="10"/><rect class="cls-21" x="522" y="678" width="64" height="17"/><rect class="cls-21" x="522" y="745" width="63" height="23"/><rect class="cls-21" x="731" y="678" width="65" height="17"/><rect class="cls-21" x="732" y="745" width="64" height="23"/><polygon class="cls-24" points="521 664 521 659.63 543 652 544 652 522 660 522 664 521 664"/><path class="cls-24" d="M797,664v-3a1.4,1.4,0,0,0-.85-1.3L774,652h-1l21.65,7.53a2,2,0,0,1,1.35,1.91V664Z" transform="translate(0)"/><polyline class="cls-24" points="573.9 602.17 561.85 599.16 562 599 562.18 599 574 602"/><polygon class="cls-24" points="754.1 602.23 765.4 599.13 765.19 599 764.84 599 754 602 754.1 602.23"/></g><g id="Laag_10" data-name="Laag 10"><polygon class="cls-26" points="0 124.6 451 290 909 290 1053.01 238.59 1366.08 126.83 1366.01 0 0 0 0 124.6"/><polygon class="cls-26" points="29 135.24 0 135 0 124 29 135.24"/><polygon class="cls-26" points="157 201 206.67 200.03 51 142.31 51 165 157 201"/><polygon class="cls-26" points="272 238 310.21 238 222 205.02 222 222 272 238"/><polygon class="cls-26" points="344 263 378 262.86 319 240.59 319 254 344 263"/><polygon class="cls-26" points="395 279 423 279.37 383 264.06 383 275 395 279"/><polygon class="cls-26" points="426.13 290 452 290 426.04 279.85 426.13 290"/><polygon class="cls-26" points="937 290 937 279 908 290 937 290"/><polygon class="cls-26" points="940 278.56 968 279 982 274 982 262.94 940 278.56"/><polygon class="cls-26" points="986 262.15 1019 262 1046 253 1046 240.09 986 262.15"/><polygon class="cls-26" points="1052.01 238.59 1144 205.11 1144 221 1092 238 1052.01 238.59"/><polygon class="cls-26" points="1156 201.47 1205 201 1313 165 1313 144 1156 201.47"/><polygon class="cls-26" points="1335.01 137.56 1366 137 1366 126.85 1366 125.85 1335.01 137.56"/></g><g id="Laag_12" data-name="Laag 12"><polygon class="cls-27" points="683 277 680 277 681 284 682 284 683 277"/><polygon class="cls-27" points="684 258 679 258 680 269 683 269 684 258"/><polygon class="cls-27" points="685 234 678 234 679 246 684 246 685 234"/><polygon class="cls-27" points="686 201 677 201 678 217 685 217 686 201"/><polygon class="cls-27" points="688 157 676 157 677 179 687 179 688 157"/><polygon class="cls-27" points="689 101 675 101 676 128 688 128 689 101"/><polygon class="cls-27" points="691 25 673 25 675 66 689 66 691 25"/><polygon class="cls-27" points="522 277 519 277 525 284 526 284 522 277"/><polygon class="cls-27" points="512 258 507 258 515 269 518 269 512 258"/><polygon class="cls-27" points="498 234 491 234 501 246 506 246 498 234"/><polygon class="cls-27" points="476 201 467 201 478 217 485 217 476 201"/><polygon class="cls-27" points="447 157 435 157 450 179 460 179 447 157"/><polygon class="cls-27" points="408 101 394 101 413 128 425 128 408 101"/><polygon class="cls-27" points="362 25 344 25 371 66 385 66 362 25"/><polygon class="cls-27" points="858 277 861 277 855 284 854 284 858 277"/><polygon class="cls-27" points="868 258 873 258 865 269 862 269 868 258"/><polygon class="cls-27" points="882 234 889 234 879 246 874 246 882 234"/><polygon class="cls-27" points="904 201 913 201 902 217 895 217 904 201"/><polygon class="cls-27" points="933 157 945 157 930 179 920 179 933 157"/><polygon class="cls-27" points="972 101 986 101 967 128 955 128 972 101"/><polygon class="cls-27" points="1018 25 1036 25 1009 66 995 66 1018 25"/></g></svg>