<svg xmlns="http://www.w3.org/2000/svg" viewBox="0 0 641.94 556.2"><defs><style>.cls-1{fill:#f3d3c2;}.cls-2{fill:#dab7a7;}.cls-3{fill:#e73b2f;}.cls-4{fill:#c92418;}.cls-5{fill:#fff;}.cls-6{fill:#d08e7b;}.cls-7{fill:#dda196;}.cls-8{fill:#d1a799;}.cls-9{fill:#a98278;}.cls-10{fill:#492813;}.cls-11{fill:#2c130f;}.cls-12{fill:#cca89a;}.cls-13{fill:#c2a67f;}.cls-14{fill:#593e29;}</style></defs><title>zwemsterbadpak</title><g id="Laag_44" data-name="Laag 44"><path class="cls-1" d="M276.19,259.31l-.65,5.18s-3.63,19.9-3.59,23.39-.31,15.92,0,17.05,2.83,14.7,2.83,14.7l10.1,55.67,1.53,9.89s1.53,14.88,1.08,16.86.08,6.41.08,6.41v13.28s-1.79,5.93-1.61,9.51.22,12.29,1.39,18.13,3.95,19.26,3.95,19.26l6.44,33.65L295.19,530c-.47,2.53-4.54,6.12-5.62,8.43-3.62,7.77-2.72,9,10.29,9,18,0,17.16-8.63,17.16-8.63l-5.49-31.12c-.38-3.27.28-6.28.9-9.51l1.26-5.37,1.62-29.11,1.22-24.87s-1.31-23.93-.64-25.2a42.48,42.48,0,0,0,3.66-18.25c-.4-8.76,1.05-53.77,1.05-53.77l3-19.59s1.39-15.21-1.17-19.35-3.94-11.92-3.94-11.92l-40.75-33.82Z"/><path class="cls-1" d="M366.52,251.58l2.45,10,3.58,12.56s3,13,1.88,17.31-1.29,12-1.29,12l-.93,7-1.88,9.4s-2.19,15-2.42,15.93-2,9.79-2,9.79l-1.22,8.89s-2.47,9.42-2.33,9.61,0,8.38,0,8.38-.05,11.73,0,12-.94,4.9-1.12,5.56a33.7,33.7,0,0,0,0,4.29l-.72,9.37.54,10s-.49,14.7-1.17,16.67-2.51,13.57-2.51,13.57l-2.87,17.85-1.39,7.58L351.73,476l-1.48,8.2L346,505.77,349.76,532S364,548,351.84,547.45s-33.72,7.07-22.18-17.76c5.42-11.66,1.12-33.39,1.12-33.39l.49-60.57s.22-19.62.25-20.2a70.09,70.09,0,0,1,1.37-10.37c.89-3.34-1.42-17.05-1.42-17.05a38.55,38.55,0,0,1-2.58-13.89,101.52,101.52,0,0,0-.54-14.36c-.16-1.62-1.51-18.57-1.51-18.57s-.1-5-.37-6.68-2.55-14.37-2.55-14.37l-5.76-26.61Z"/></g><g id="Laag_45" data-name="Laag 45"><path class="cls-2" d="M335.31,290s-9.69,29.11-7.18,35.51,2,28,2,28,1.62,23.27,2.6,24.49,2.6,8.57,2.6,8.57-.18,15.17-.63,17.9-3.14,29.49-3,32.41-.63-9.42-.63-9.42l1-18.91.4-15-1.88-8s-2.11-4.66-2.15-7.21,0-10.5,0-10.5-.9-10.69-.9-10.76-.76-11.82-.65-13.19-.94-12.76-.94-12.76l-1.42-7.46s-.22-1.25-.37-1.79-.44-2.57-.44-2.57.35-8.36.26-8.8-.34-3.51-.34-3.51-.84-2.51-.84-2.79a11.94,11.94,0,0,0-.48-1.63l2.33-1.42Z"/><path class="cls-2" d="M293.89,475s-2.87-37.87-3.59-42.2,1.79-21.29,1.79-21.29S292,384,290.17,379.06s-11.72-60.85-11.72-60.85-4.58-18.14-1.73-25.05,29.42-10.55,40.1,0c4.6,4.55-37.16-34.67-37.16-34.67l-3.5.85-.86,3.72s-3.83,26.2-3.94,30.2C271,306,273.25,313,273.25,313l4.58,22.33,7.27,40.41,1.62,11.73L287.83,401l-.36,9.66L287.29,423a39.36,39.36,0,0,0-.81,5.7c0,1.88-.18,13.24-.09,13.89s1.26,7.3,1.48,8,2.56,13.42,3,14.27S293.89,475,293.89,475Z"/></g><g id="Laag_43" data-name="Laag 43"><path class="cls-1" d="M283.12,111s-19.14,5.18-22.18,7.42c-2.16,1.59-9.12,9.89-10.33,11.8s-9.83,19-11,22.89-10,17.24-10,17.24l-8.41,16.46a43.68,43.68,0,0,0-2.09,6.78c-.27,2.12-.81,2.9-.61,4.24s2.42,13,3,14.91,5.25,18.09,5.25,18.09l3.23,7.63,6,14.34,4.24,7.7,1.82,5.16,2.83,5.86,4,5.3a6.76,6.76,0,0,0,3.63,4c2.69,1,6.58,2.7,7.88,2.58s13.17,8.73,13.17,8.73,1.74,1.27,2.56,1a1.61,1.61,0,0,0,1-2,14.66,14.66,0,0,0-1.31-1.89L268.83,283l-1.53-1.65s0-1.65,1.05-1.37a29.67,29.67,0,0,1,4.46,2.66l7.67,4.44a3.24,3.24,0,0,0,2,.32,2.71,2.71,0,0,0,1.63-1.64c0-.32.15-1.38-.15-1.66s-6.11-3.64-6.11-3.64L272.8,277s-1.22-1.11-.53-1.51a4.06,4.06,0,0,1,2-.28l9.95,4.2s2.55.73,3.18-.31.9-2.17.18-2.89-6.51-3-6.51-3l-4-3-3.23-.68s.34-1.08,2.4-.8,3.95-.47,7.27,1.65,3.05-2.5,2.56-2.87-4.8-2.12-4.8-2.12a10.53,10.53,0,0,0-4.89-1.79c-2.6-.14-5.56-.19-5.56-.19l-3.68-.09-4.89,0s-2.33-.89-2.92-1.74-1.94-.25-3.49-2.15-3.84-9-3.84-9l-7-25.29-3.63-13.6L240,200s5.74-10,8.57-12.13,17.3-26.42,17.64-27.41a31.88,31.88,0,0,1,2.56-4.1s4,18.09,5,18.93,2.56-12.51,2.56-12.51l10.84-37.52-4-14.34"/><path class="cls-1" d="M374.21,131.35s3.15,4.24,2.66,16.91.31,28.5.31,28.5l-.31,20.44a32.81,32.81,0,0,0,1.21,4.9A113.27,113.27,0,0,1,381.35,213c.22,1.37,2,10.6,2,10.6l2,13.52.9,5.65,1.26,13.57s.74,9.87,1.48,11.92,3.77,12.86,3.77,12.86a23.08,23.08,0,0,1-.38,5.16c-.47,1.32.39,11.37.39,11.37L393,311.8s-4.4,12.06-6.1,13.09-2.19.23-2.19.23,0,1.08-.61,1.15-2.22.35-2.22.35l-3.74,2s-5.22,1.13-5.52.18a3.07,3.07,0,0,1,.47-2.15s.5-2.47,1.62-2.86c.33-.11,5.4-1.63,5.45-2.23s2-10.17,1-11.66c-.51-.75-.48-.93-1.25-1.06-.2,0-1.11,7.42-.91,11.9.12,2.74-4.51,2.93-4.51,2.93l-.34-7.74s0-6.46.54-7.7-.61-8.73.71-10.56,3.13-9.22,3.13-9.22.2-5.93-.2-7.14-2-7.45-2-7.45l-3-8.73-4.78-12.93-2.52-5-2.73-12.72-4.21-9.75-2.89-9.33s-2.66-17.8-2.52-17.91,1.35-14.13,1.35-14.13l-1.82-11.76Z"/></g><g id="Laag_46" data-name="Laag 46"><path class="cls-2" d="M223.42,192.43s.61,10.6,2.36,13.85,4,11.52,5.45,12.43-1.88-.64-1.88-.64-5.38-10-5.92-13.14S221.4,195.68,223.42,192.43Z"/><path class="cls-2" d="M384.76,324.85l2-14.37-.36-3.86a41.23,41.23,0,0,1,.9,4.62Z"/><path class="cls-2" d="M388.21,323.14l2.43-12.56s.18.7,0,.8S388.21,323.14,388.21,323.14Z"/><path class="cls-2" d="M376.93,192.92s-7,6.78-12.29,6.43,3.57,1.62,5.65.57,6.82-.8,6.82-.8l.15.06-.29-1.47-.11-.49Z"/><path class="cls-2" d="M276.17,163.43s-2.87-20.07-6.37-13.66-28.14,43.43-28.67,45a47.76,47.76,0,0,0-1.15,5.42l5-8.24,2.83-3.44.81-.68a6.78,6.78,0,0,0,.75-.74c.19-.26,1.7-2.23,1.7-2.23l7.72-11.95,2.14-3.43,1.85-3.19,1.71-2.86,1.5-2.7.28-.61,2.08-3.22.35-.48s2.36,10,2.51,10.62,1.85,7,2,7.21.22,1.18.76,1.18S276.17,163.43,276.17,163.43Z"/></g><g id="Laag_42" data-name="Laag 42"><path class="cls-3" d="M283.12,111l.47,18.58-8.26,35.65s-1.57,8.3-1.57,10.13,1.41,9.75,1.41,9.75l2.76,19.85,1.62,6.6s.27,9.22-.27,11.06-2.76,18.65-2.76,18.65-1.35,19.29-1.08,20.63.67-2.19.67-2.19,1.08-1.2,3,.49,10.7,8.9,10.7,8.9l7.47,5.72,10.23,10.1,8.21,7.7,6.44,9.18.24.83s3.06-1.15,4-2.54,9.69-9.73,9.69-9.73l13.26-15.61L359,263.29l4.71-6.22,2.86-5.19a55.55,55.55,0,0,0-.2-8.09c-.44-2.93-.61-8-.61-8l-2-8.73-4.61-11.59s-1.41-6.61-1.45-8.34-1.45-14.8-1.41-15.76.3-13,.3-13L355.5,169l-1.84-47S289.18,107.76,283.12,111Z"/></g><g id="Laag_47" data-name="Laag 47"><path class="cls-4" d="M276.79,173c.81,1.84,1.62,7.28,5.18,9s10.23,3.71,13.66,2.44a14.63,14.63,0,0,0,4.81-2.61,10.82,10.82,0,0,1-2.12,3.36c-1.28,1.2-7.27,2.9-9.22,3s-12.25,17.1-13,3.85c-.06-1.15-2.3-15.41-2.37-16.19a37.24,37.24,0,0,1,.8-6.6,47,47,0,0,0,.82-4.64Z"/><path class="cls-4" d="M331.9,182.09s10.59,2.17,14.63,0a84,84,0,0,0,9.76-6.74l.37,3-.22,9.5s-11.57,1.22-15.08-.38S332.66,183,331.9,182.09Z"/></g><g id="Laag_37" data-name="Laag 37"><path class="cls-1" d="M322.91,35.65s9.62-.1,13.65,3.95,7.66,12.51,7.66,12.51,1.23,6.49,1.08,7.26.27,4.43,0,4.67a8.23,8.23,0,0,0-.55,3.32,22.77,22.77,0,0,1,.88,4.71c-.15.34,0,3.51-.88,5.68s-2,6.06-2,6.06-5.06,6.64-6.31,7.69-.52,12.45-.52,12.45l2.14,6.71-.07,2.84s3.29,2.31,3.34,10.78-.44,11.21-.44,11.21l-8.93,5.68-8,3.13-6.63,1.4s-11.19.24-14.18-.53a77,77,0,0,1-9.23-3.72s-1.4-14.66,0-16.9,10.8-.24,11.39.12,3.75,1.52,3.75,1.52,1.4-10,.44-11.47-1.91-9.81-1.69-10.75-.69-12.48-2.31-15.08-3.53-5.39-4-8S301,58.65,301,58.65a11.4,11.4,0,0,1,3.53-6.83c3.09-2.6,3.63-7.41,3.63-7.41S315.06,36.61,322.91,35.65Z"/></g><g id="Laag_40" data-name="Laag 40"><polygon class="cls-5" points="333.35 85.27 331 84.85 325.54 83.47 320.44 82.93 317.25 82.39 315.92 81.96 316.89 84.29 320.44 87.7 327.04 89.46 331.01 88.51 332.08 86.84 333.06 86.02 333.7 85.42 333.35 85.27"/><path class="cls-6" d="M334,85.36a9.07,9.07,0,0,1-3.66-1.13c-2.26-1.13-10.73-1.83-12.18-1.92a5.9,5.9,0,0,1-2.49-.59s.63,1.25,4,1.47,9.21,1.13,11.32,2.1A7.91,7.91,0,0,0,334,85.36Z"/><path class="cls-7" d="M333.69,85.42a8.55,8.55,0,0,0-2.37,3.27c-.75,2-6.86,4.42-12.48-1.36a25.45,25.45,0,0,1-3.13-5.65,13.45,13.45,0,0,0,8.49,6c5.69,1.09,7-.29,7-.29A4.31,4.31,0,0,1,333.69,85.42Z"/><path class="cls-8" d="M314.18,80.56s-.2-1.8,2.46-3.52a8.52,8.52,0,0,0,1.76-1.65,6.22,6.22,0,0,1-1.69,2.66C315.58,78.91,315.09,78.77,314.18,80.56Z"/><path class="cls-8" d="M333.28,84.91a5.76,5.76,0,0,0,.65-4,13.73,13.73,0,0,1-.52-3,12.65,12.65,0,0,0,1.33,3C335.27,81.57,334.76,84.55,333.28,84.91Z"/><path class="cls-9" d="M323.64,74.52s-2.07,0-2.11,1.74.78,2.46,1.83,2.62c0,0-.83-.51-.79-2.35S323.64,74.52,323.64,74.52Z"/><path class="cls-9" d="M324.44,79.08a.75.75,0,0,1-.18-1,.7.7,0,0,1,.39-.29s2.42-.47,1.21,1.56A1.18,1.18,0,0,1,324.44,79.08Z"/><path class="cls-9" d="M330.15,77.9c.06-1-.55-2.67,0-4.63a11,11,0,0,0,.28,2.52,3.16,3.16,0,0,1,.09,2.91h0c.17.12.74.53.49,1s-1.48.34-1.57.34-.81-.14-.81-.14A2.18,2.18,0,0,0,330.15,77.9Z"/><path class="cls-9" d="M331.65,79.76a2.29,2.29,0,0,0-.09-2.7S333.79,77.8,331.65,79.76Z"/><path class="cls-10" d="M313,59.22a7.67,7.67,0,0,1,3.37-3.12s5.94.79,8.91,2.74c0,0,.78.51.33,1.21s-1.75.05-1.75.05a26.37,26.37,0,0,0-7-2.39S315.35,57.27,313,59.22Z"/><path class="cls-10" d="M335.5,61s-1.28,0-1.38,1.12,2,.36,2,.36,6,0,6.78.5V61.86S341.36,61,335.5,61Z"/><path class="cls-11" d="M324.13,64.69s-.7-2.42-4.51-2.78-4,.43-4.46,1.66C315.15,63.63,319.09,60.58,324.13,64.69Z"/><path class="cls-11" d="M334,66s2.49-2.18,6.45.18l0,.85S338.81,64.76,334,66Z"/><path class="cls-11" d="M320.06,62.49a1.43,1.43,0,0,0-1.64,1.22,1.49,1.49,0,0,0,1.16,1.72,1.43,1.43,0,0,0,1.64-1.22A1.49,1.49,0,0,0,320.06,62.49Z"/><path class="cls-11" d="M337.43,65.6a1.37,1.37,0,0,0-1.73.94,1.46,1.46,0,0,0,.89,1.82,1.37,1.37,0,0,0,1.73-.94A1.46,1.46,0,0,0,337.43,65.6Z"/></g><g id="Laag_39" data-name="Laag 39"><path class="cls-12" d="M303.46,83.83s2.89,5.87,3.26,6.82,3.16,11,3.16,11.13-1.65-1-1.48.81,1.48,13,1.48,13-6.36-9.29-6.23-9.29S303.46,83.83,303.46,83.83Z"/><path class="cls-2" d="M334.31,93.3l-3.12,2.77s-2.24,9-1.81,10,3.12,7.54,4,8a14.49,14.49,0,0,1,2.14,1.41l-1.83-10.69Z"/><path class="cls-2" d="M315.92,98.11a58.89,58.89,0,0,1-6.63-5.61,76.47,76.47,0,0,1-4.91-6.79l2.29,4.77,3.21,11.3s6.45,2.63,7.86,2.23,6-2.21,6.23-2.61.19-.51.19-.51a4,4,0,0,1-3.16.37A27.18,27.18,0,0,1,315.92,98.11Z"/></g><g id="Laag_38" data-name="Laag 38"><path class="cls-13" d="M322.14,24.58s-9.72-.75-13.49,4.52-7.09,10.64-8.3,13.75-4.78,14.55-4.78,14.55-1.82,15.68-2.09,18.79-.2,10.67-.47,11.3-3.43,21.69-3.43,22.4-6.66,14-6.66,14l-5.52,9.61s-5.18,21.27-4.58,25.86,6,10.67,7.14,10.53,4.64,2.83,6.73-6.22.47,5.93.47,5.93l2.56-1.7,3.16-15.68,1.68-17.8,4.71-8.34s-.81,8.34-1.82,9.75,9.9.57,11.11-1.7,3-13.78,2.22-16.46-5.25-10.17-5.25-10.17-1.14-16.89-1.68-20-.66-21.88-.39-22.23-2.32-3.67,1.79-8.76,1.12-7.54,5.56-11.78a24.35,24.35,0,0,1,9-5.56l5.3-.66s6.82-.24,9.24,2.45,6.91,11.59,6.91,11.59l1.65,6,.05,5.7s-.92,3.37-.52,4.36a50.2,50.2,0,0,1,1,6l-1.88,7.72S340,87,338.41,88.64s-3.93,4.8-3.79,5.86-1.34,9.25-.88,11.59c1,5,1.77,9.18,1.77,9.18s3.89,1,4.49,3.25.34,17.31.34,17.31L341.41,149s1.12,12.79,2.63,14.2,0,15.54,0,15.54,13.35-1.51,15.23-6.41,5.3-14.13,6.46-13.66,2.6,4.9,2.6,4.9l2-2.17s-1-9.33,0-12.81,5.47-5.93,3.68-19.12-11.49-15.26-11.49-15.26a25.18,25.18,0,0,1-5.21-12c-.94-7.07-4.51-21.62-4.17-22.82s-2-21.27-2-21.27-3.3-14.84-4.64-16.32-3.7-10.67-13-16-11-1.36-11-1.36"/></g><g id="Laag_41" data-name="Laag 41"><path class="cls-14" d="M343.39,74.65s-1.67,7.67-2.38,9.08-.88,2.33-1.35,3S337.23,90,337.23,90l-2.92,3.32-.4,5.66-.45,3.11-.07,2.86.17.79.61,1.33,1.35,8.39.66-5.71.61-5.36.77-3.69-.13-3.32a3.92,3.92,0,0,1,1.82-3c1.82-1.27,3.84-2.08,4.24-3.21S344.13,77.19,343.39,74.65Z"/><path class="cls-1" d="M294.43,134.7s.54-13.42,2.83-14.84,2.15,5.93,2.15,5.93Z"/></g></svg>