<?xml version="1.0" encoding="utf-8"?>
<!-- Generator: Adobe Illustrator 18.0.0, SVG Export Plug-In . SVG Version: 6.00 Build 0)  -->
<!DOCTYPE svg PUBLIC "-//W3C//DTD SVG 1.1//EN" "http://www.w3.org/Graphics/SVG/1.1/DTD/svg11.dtd">
<svg version="1.1" id="Layer_1" xmlns="http://www.w3.org/2000/svg" xmlns:xlink="http://www.w3.org/1999/xlink" x="0px" y="0px"
	 viewBox="0 0 1369 768" enable-background="new 0 0 1369 768" xml:space="preserve">
<polygon fill="#FFFFE4" points="1315,385 1257,383 1251,383 1250,191 1315,170 1315,165 1250,186 1207,201 1207,204 1243,192.9 
	1243,382 1207,381 1207,385 1243,387 1243,397 1207,395 1207,399.5 1315,404 1315,401 1251,397 1251,387 1315,390 "/>
<polygon fill="#FFFFE4" points="1207,381 1132,378.1 1127.4,378.1 1126.6,231.3 1146,225 1146,221 1094,238 1094,241.2 
	1121.4,232.8 1121.3,378.3 1094,377.5 1094,380.3 1121.3,381.1 1121.3,388.7 1094,387.9 1094,390.6 1176,394 1176,391.7 
	1127.4,388.7 1127.4,381.1 1207,385 "/>
<polygon fill="#FFFFE4" points="1095,378 1048.2,376.1 1044,375.8 1044,257.6 1083.3,244.8 1058,249 1021,262 1018,265.6 
	1039.8,258.8 1039.8,375.5 1018,375.9 1018,377.2 1039.8,377.8 1039.8,384.9 1018,384.3 1018,386.4 1083.3,389 1083.3,386.4 
	1043.6,384.7 1043.6,377.8 1094,380 "/>
<polygon fill="#FFFFE4" points="1033,376.8 989.2,376.2 986.2,375.2 985.7,275.4 1018.3,264.6 1018.3,262 985.7,272.8 964.2,280.6 
	964.2,282.1 982.2,276.4 982.2,374.6 964.2,374.1 964.2,376 982.2,376.5 982.2,382.7 964.2,382.2 964.2,384 1018.3,386 
	1018.3,383.8 986.2,382.4 986.2,376.5 1032.2,377.5 "/>
<polyline fill="#F7F6DA" points="1250,191 1254,191 1255,383 1251,383 "/>
<polygon fill="#F7F6DA" points="1254,191 1315,172 1315,170 1250,191 "/>
<polygon fill="#D8A796" points="1251,387 1251,397 1315,401 1315,390 "/>
<polyline fill="#D8A796" points="1243,387 1207,385 1207,395 1243,397 1243,387 "/>
<polygon fill="#D8A796" points="1146,382.2 1146,389.9 1127.4,388.7 1127.4,381.1 "/>
<polygon fill="#F7F6DA" points="1130.3,378.1 1129.7,230.3 1126.6,231.3 1127.4,378.1 "/>
<polygon fill="#D8A796" points="1094,380.3 1121.3,381.1 1121.3,388.7 1094,387.9 "/>
<polygon fill="#D8A796" points="1056,385.3 1056,378.2 1043.6,377.8 1043.6,384.8 "/>
<polygon fill="#D8A796" points="1039.8,377.8 1039.8,384.9 1021,384.4 1021,377.2 "/>
<polygon fill="#D8A796" points="982.2,376.5 982.2,382.7 970,382.4 970,376.2 "/>
<polygon fill="#F7F6DA" points="1045,257.3 1045,375.9 1044,375.8 1044,257.6 "/>
<polygon fill="#F7F6DA" points="1146,225.6 1146,225 1129.7,230.3 1129.7,230.9 "/>
<polygon fill="#F7F6DA" points="1048,256.6 1048,256.3 1045,257.3 1045,257.5 "/>
<polygon fill="#F7F6DA" points="1243,194.2 1207,205 1207,204 1243,193 "/>
<polygon fill="#F7F6DA" points="1121.4,233.3 1121.4,232.8 1094,241 1094,241.6 "/>
<polygon fill="#F7F6DA" points="1039.8,259.1 1021,265 1021,264.7 1039.8,258.8 "/>
<polygon fill="#F7F6DA" points="982.2,276.6 982.2,276.4 970,280.3 970,280.5 "/>
<polygon fill="#EDEFDA" points="2,417 2,422 456,384 920,384 1368,422 1368,411 1338,412 1315,411 1315,404 1211,399 1161,398 
	1147,397 1147,392 1094,390 1056,391 1048,390 1048,387 1024,386 1021,386 1021,386 989,388 984,387 984,384 970,384 948,384 
	943,384 939,383 939,382 921,382 456,382 429,382 429,383 398,383 385,384 384,385 379,386 346,386 321,388 321,390 313,391 
	285,390 223,394 223,399 211,400 160,400 53,405 53,412 31,414 2,414 "/>
<polygon fill="#D2CECD" points="424,277 425,383 429,383 428,277 "/>
<polygon fill="#DFC5AC" points="424,279.4 397,279 397,383.2 425,383 "/>
<polyline fill="#DFC5AC" points="210,400 160,400 159,201 209,200 210,400 "/>
<polyline fill="#DFC5AC" points="31,414 0,414 0,135 31,135.3 31,414 "/>
<polygon fill="#C05A4B" points="159,201 53,164.5 53,405 160,400 "/>
<polyline fill="#C05A4B" points="274,238 224,221.8 224,394 274,391 274,238 "/>
<polyline fill="#C05A4B" points="346,263 321,253.4 321,388 346,386 346,263 "/>
<polygon fill="#C05A4B" points="397,279 385,274.2 385,384 397,383 "/>
<polygon fill="#C05A4B" points="453,290 428.1,290 429,382 457,382 921,382 939,382 939,290 "/>
<polyline fill="#DFC5AC" points="1338,412 1368,411 1368,137 1338,137.6 1338,412 "/>
<path fill="#DFC5AC" d="M1159,398"/>
<path fill="#004F80" d="M16.7,562.1c0,0,0.8-3.6,5.8-3.9c5-0.3,9.2,3.1,13.1,1.1c3.9-2,1-0.1,5.7-4.8c4.7-4.7-0.4-7.1,4.7-4.7
	c5.1,2.4,8.2,3.1,12.1,2c3.9-1.1,0.1,2.7,3.9-1.1c3.8-3.8,4.7-4.7,4.7-4.7c3.9-2,0.9-0.9,5.9-2.1c4.9-1.2,4-0.2,7-0.4s1.9-1,3.8-2.9
	s5-0.3,1.9-1.9c-3.1-1.6-2.3-6.1-6.2-3.2c-3.8,2.9-0.7,6.3-3.8,2.9c-3.2-3.4,1.8-4.6-3.2-3.4c-4.9,1.2-6-0.6-8.8,3.2
	c-2.8,3.7-1.8,2.8-4.7,4.7c-2.9,2-0.9,2.7-3.9,2c-3-0.7,0-0.9-5.1-1.5s-4.1-1.6-6.9,1.3s1.2,4.4-3.8,3.8c-5-0.6-0.1-1.8-5-0.6
	s-4.9,1.2-7.8,4s-0.9,1.8-4.8,3c-3.9,1.1-3.1-1.6-5,0.3c-1.9,1.9-5.9,2.1-6.9,1.3s-2.1-2.6-3.9,1.1c-1.8,3.7-1.8,2.8-1.7,5.5
	c0.1,2.7-2.7,4.6,2.2,4.4c5-0.3,7-4.1,8.9-6"/>
<path fill="#004F80" d="M118,528c0,0-5.6-0.9-6,0c-2,4-15,1-15,1l14-8c0,0,11-4,13-4s12-2,15-5s8-3,12-3s6-1,12-3s7-2,11-4s4-5,8-6
	s6-3,8,0s2,3,2,3s-1,2,5-2s3,2,6-3s-4-5,3-5s5,1,10,0s5-2,9-5s6-4,6-4s0,2,5,3s7-1,9-3s-1-1,2-2s2,0,7,0s8-3,12-6s0,0,4-3s3-3,8-4
	s14,0,14,0l4-5c0,0,8,0,9,0s10-5,10-5s0,2,3,0s8-4,8-4s2-1,5-2s4-4,8-2s5-1,5-1s4-1,6-2s4-2,7-2s3,2,5,0s3-3,4-3s4-1,5-1s2,1,4,0
	s2-2,4-3s5-1,6-1s0,1,3-1s3-3,5-2s2,1,4,0s1,0,2-1s2-2,3-2s7-2,7-2s2,0,3,0s0,0,2-1s2-2,4-2s4,0,4,0s1-1,2-1s2,1,4,0s2-1,5-3
	s5-2,7-2s3,1,5,0s5-1,6-2s7-3,9-3s5-1,6-1s2-1,4-1s1,0,3-1s5,0,6-1s4,0,5-1s6-1,6-1l6-2l5-1l3-1l6-1l1-0.3l6.3-1.7l-1.3,1
	c0,0-5,2-6,2s-1,0-3,1s-5,1-5,1s-1-1-2,0s0,1-2,1s-3,1-5,1s-5,2-5,2s-1-2-2-1s-2,1-3,1s-5,1-5,1s-2,2-3,2s-1-1-2,0s-7,2-7,2
	s-2,0-3,0s-4,2-4,2l-4,1l-5,1c0,0,0,0-1,1s-2-1-3,0s-3,2-4,2s0,0-2,0s-3-1-3,0s0,1-1,1s0,1-1,1s-2,1-3,1s1-1-1,0s-2,1-3,1s-1,0-2,0
	s-1,1-2,1s0,1-1,1s-1,0-2,0s-3-1-3,0s-1,0-1,1s-1,1-2,1s0,0-1,0s-1,0-2,0s-1,1-1,1s0,1-1,1s-1-1-2-1s0,1-1,1s0-1-1,0s-6,2-7,2
	s-1-1-2,0s-2,1-2,1s0-1-1,0s-2,0-2,1s-3,0-3,0s-1,2-2,2s-5,1-5,1s0-1-1,0s-2,2-2,2s-1,1-2,1s-1,0-2,0s-1,1-2,1s-1,0-2,0s0-2-1,0
	s-1,2-2,2s-1,0-2,0s-1-1-2,0s0,0-1,1s-2,1-3,1s-2-1-3,0s-2,0-2,1s0,1-1,1s-1-2-2-1s0,0-1,1s-1,0-2,1s-1,1-2,2s-3,0-3,0s1-1-1,0
	s-1,0-3,1s-2-1-3,0s-4,0-4,0s0,0-1,1s-3,2-3,2s-1,2-2,1s-1-1-1-1s-2,0-2,1s-1,0-1,1s0,1-1,1s0-1-1,0s-1,1-2,1s-1,0-2,0s-1,1-2,1
	s-4,1-4,1s-4-1-5,1s-1,0-2,2s-4,2-5,2s-1-2-2-2s-1,0-3,2s-1,2-2,2s-3-1-4-1s-2,1-2,2s0-1-1,1s-1,2-3,2s-1-1-3,0s-1-1-3,1s-4,1-5,1
	s0-1-2,0s-2,2-3,3s-1,2-3,2s-4,2-6,2s-4,1-5,0s-1-1-3,1s-3,2-5,2s-5,4-7,3s-3-3-4-2s-1,2-3,3s-1,2-3,2s-7,1-7,1s-4,1-5,2s-2,3-4,3
	s-4,0-4,0s-1,0-2,1s-5,3-6,3s-4,1-6,2s-5,0-5,0s-8,0-9,1s-2,4-3,4s-4,4-6,4s-2-1-5-1s-4,0-5,1s-4,2-5,3s-2,4-3,4s-3-1-5-1s-5,4-3,4
	s6,1-1,1s-7-2-8-1s-3-1-3,3s-1,2-4,1s-7,2-7,3s-2,1-2,1"/>
<path fill="#004F80" d="M293,604h35c0,0,3-6,1-6s0-2,3-3s5-2,7-4s1-6,0-7s1-1,3-3s6-4,9-5s2-2,5-4s6-5,8-5s6-1,5-5s-6-8,0-5
	s7,5,10,2s3-2,5-5s0.3-8.3,3.2-7.7C390,547,399,544,391,544s-9,0-12,0s-5-2-5,0s-1,0-4,4s3,5-3,4s-2-6-7,0s-7,9-9,10s-4,0-7,3
	s-4,2-6,5s-1,4-2,5s0-2-4,1s-4,1-7,6s-2,7-6,8s-3-1-6,1s-4,3-7,6s-5,3-8,4S293,604,293,604z"/>
<path fill="#004F80" d="M386,535l6-5v-4c0,0,6-2,7-2s3,1,4,0s1-7,1-7s1-1,4-2s2-1,5-2s4-3,5-4s4-4,5-3s3-6,3-6s-2,1,2,0s5-2,8-3
	s4,1,6-2s-1-6,4-5s4,2,6,0s2-2,4-4s0-3,4-4s2,3,4,0s1-1,3-4s3-8,3-8s3,2,6,0s4-3,6-5s-1-2,2-2s4,3,5,0s0-3,2-4s5-2,5-2l4-4
	c0,0,2,0,3-1s1-2,3-3s3-1,5-2s3-2,5-4s4-1,5-2s0,0,3-3s1-1,3-3s1-1,5-2s4-2,4-2s1-2,2-2s3,0,3,0l2-2c0,0,1,0,2-1s1-3,2-3s2,1,3,0
	s2,0,3-2s1-1,2-2s2-1,3-1s2,0,3-1s2-1,3-2s6-2,7-3s3-1,4-2s2-2,3-2s2-2,4-2s5-2,6-2s7-5,8-5s5,0,5,0s-10,4-10,5s-5,3-6,4s-3,2-4,2
	s-1,0-2,1s-2,1-3,2s-2,2-3,2s0-1-2,0s-1,1-3,2s-2,1-3,2s-1,1-2,2s-1,1-2,1s-1,0-2,1s0,0-1,1s-1,0-2,1s1,0-1,1s-2,2-2,2s1-2-1-1
	s-3,1-3,2s0,0,0,1s-2,0-4,1s-2,0-3,1s0,1-1,2s1,1-1,1s-1-3-2-1s-2,3-2,3s0,1-1,1s-1,0-2,0s-2,0-2,1s0,2,0,2l-7,2l-4,3c0,0,0,2-1,2
	s-3,0-4,1s-1-1-2,1s-1,1-2,3s-2,1-3,2s0,0-2,2s-2,3-4,3s-4,0-5,0s-1,1-2,2s-1,3-2,3s0-1-2,0s-3,2-4,3s-3,0-3,1s1-1-1,2s-3,2-4,3
	s0-1-2,1s-2,2-3,3s-2,1-3,2s0,0-2,2s-2,2-3,3s-2,0-3,2s-3,2-4,3s-1,1-3,2s-2,0-3,1s-1,0-2,2s0,2-3,3s-1,0-4,2s-1,1-3,3s-1,1-3,3
	s-1,2-4,3s-1-4-4,1s-2,5-4,7s-1,1-4,3s-2,1-4,3s-1,4-3,5s-1,1-3,2s-2,0-3,2s0,1-2,3s-2,3-4,3s-17-1-17-1V535"/>
<path fill="#004F80" d="M665,599h40c0,0-5-2-5-4s0-5,1-6s5-2,1-6s-5-4-5-5s4-4,5-5s1,0-2-4s-6-4-6-7s1-4,3-5s2-3-1-5
	s-4.3-2.4-4.7-4.7S690,544,693,543s5.7,1,2.3-4c-3.3-5-2.3-6-4.3-9s-5-4-2-6s5,5,3-2s-4-7-3-9s1-3,2-4s3-1-1-5s-5-3-3-6s2-1,3-4
	s2-3,1-6s-4-6-4-6s-1,0,2-3s4-4,3-5s-2-1-2-3s1,4,0-4s-1-8-1-8s0-2,1-4s1,0,2-4s1-3-1-6s-3-3-2-5s3,0,1-4s-4-8-3-9s2,2,2-3s1-3,0-5
	s-3-3-2-5s1,3,0-2s0-5,0-5s-1-2,0-3s0,0.2,0-3c0-2,0-2,0-2h-5h-1c0,0-2,0,0,2s3,2,2,5s0,1-1,3s-1,4-1,5s1,2,0,3s-2-3-1,1s2,1,1,4
	s-3,1-1,3s5,1,2,4s-3,0-3,3s0-1,0,3s-2,2,0,4s1,2,2,3s4-1,1,1s-4-2-3,2s0,2,1,4s0,4-1,5s-5-1-2,3s3,4,3,4s-1,0-1,4s1,4,1,6s1,3-1,5
	s-3-1-2,4s4,5,3,7s-3,3-4,4s-1-1-1,3s3,1,0,6s-8,2-5,6s4-1,3,4s-5,3-5,8s0,6,3,9s6-2,3,3s-5.4,8.3-5.7,10.1C668,542,666,538,668,542
	s4,4,3,7s-2,2-4,6s-1,3-2,6s0-1,0,5s-2,7,0,10s2,4,2,5s-2,1-3,4s-4,2-2,5s3,4,2,6S665,599,665,599z"/>
<path fill="#004F80" d="M1037,603c0,0,3-4-1-6s1,0-4-2s-6,0-8-3s-2-5-1-5s0-1-2-2s0-2-3-2s0,2-4-1s-3-4-5-5s-2-1-5-1s-3,1-3-1
	s3,0,0-4s-5-5-7-6s-1-1-4-2s-6-3-6-4s0-2,0-3s-1-1-4-2s-4,0-5-2s-7.8-2.5-7.9-3.7C967,547,969,545,968,544s-2-4-3-3s-2,2-2,0
	s0-3-1-3s-2.2,0.6-3.6-0.7C957,536,956,535,956,535l1-2c0,0,0-2-1-2s-3-3-4-2s-8-3-8-3l-1-2c0,0,0-1-1-1s-2,0-2,0l-3-4c0,0-1-1-3-2
	s-1-2-3-3s1-1-2-2s-2-1-4-2s-1,0-3-2s3,0-2-3s-4-3-6-4s-2-2-4-2s-6-4-5-5s6,0,1-2s-5-4-6-3s-4,0-5-2s-1-1-2-3s0-3-2-3s-5,0-6-1
	s-1-2-3-3s-2-2-3-2s-4,0-4-2s4-1-1-3s-7-2-7-2s-2,1-2-2s8-1-2-5c-4.1-1.6-6.7-2.8-8.3-3.5c-1.3-0.6-2.2-1.9-2.2-3.3
	c0-1-0.5-2.2-2.5-3.2c-4-2-6-1-6-2s-1-2-2-3s2-2,0-3c-7.6-3.8-5-2-7-2s-2-1-3-2s-1-2-3-3s1,0-2-1s-3-2-4-3s0,1-2-1s-2-1-3-2s0,0-1-1
	s1-1-1-1s-1,1-3,0s-3-1-3-2s0-2-1-2s-2,2-2-1s2-4,0-3s-1,0-3,0c-2,0-2,2-3,0c-0.7-1.3-1.6-2.5-2.8-3.5c-1.2-1-1.4-2.3-2.2-1.5
	c-0.6,0.6-1.6,0.8-2.4,0.5c-2.3-1.1,0.6-2.4-1.6-2.4c-2,0-3,0-4,0s-2,0-3-1s1,0-1-1s-5-3-5-3s-1-1-2-1s0,0-2-1s-1,0-3-1
	c-2-1-2,0-3-1c-0.7-0.7-1.4-1.4-2-2c-0.9-1-1-1.9-1.9-1.9c-1,0-2,0-2,0s0,0,1,0s1,0,3,0c1,0,0,0,2,1s2,1,3,1s1,0,3,1s2,0,3,1
	s1,1,2,2s4,1,4,1s1,0,2,1s-1,0,1,1s3-1,4,0s1-1,2,1s-1,2,1,2s2,0,3,1s0,0,2,2s1,3,3,2s0-3,2-1s2,1,3,2s2,0,3,1s-1,0,1,2s0,1,2,2
	s2,0,3,1s0,1,2,2s4-1,5,1s-1,1,2,2s4,0,5,1s0,0,2,2s0,0,3,2s3,1,4,3s1,1,2,2s2,1,3,1s1,0,2,1s1,0,3,2s2,2,5,2s2-2,3,0
	c1.3,2.5-0.6,0.3,2.2,5.2c0.2,0.4,0.6,0.7,1,0.9c1.8,0.9,0.9-0.1,2.8,0.9c2,1,0,0,2,2s0,3,3,2s3-1,4,0s-1,1,1,2s-1,0,3,2s6,5,9,6
	s3-1,4,1s1,1,3,3s3,1,4,2s0,0,2,2s1,2,3,3s2-3,4,0s2,3,3,4s0-1,2,1c2.5,2.5-1.4-1.4,6.7,4.7c0.5,0.4,0.9,0.8,1.2,1.3
	c2.1,3.1-1,3.1,2.1,4.1c3,1,3-1,4,0s-1,1,2,3s-1-2,4,3s2,4,6,5c3.5,0.9,0-4,3-2c3.7,2.5,1,3,3,5s0,1,3,3s3,0,5,3s3,0,3,3s1,1,5,2
	s3-1,4,2s-1,2,0,4s2,5,4,5s1-2,2,1s2-1,6,1s3,1,4,3s0,4,2,6s3,1,5,3s0.9,1.8,3.5,2.9c2.5,1.1,0.5,0.4,4,3.2s3.5,2.9,5.5,3.9s2,1,4,3
	s0,3,5,3s4-3,6,1s-1,3,2,5s0,0,5,3s4,2,6,5s0,0,4,3s4,1,6,3s2,2,3,4s3,0,5,2s0,0,3,3s5,2,4,4s-5,1,0,3s4,1,7,4s1,3,4,4s7,1,7,1l1,1
	H1037z"/>
<path fill="#004F80" d="M1368,568c-3,0-2,0-9-3s2-3-7-3s-9,0-14-5s-1-7-5-6s-4-2-10,0s-5,3-8,0s1,0-3-3s0-2-4-3s-4-4-10-5
	s-10-4-12-4s-1-1-7,0s-6,4-11,0s-5-7-9-8s-4,1-9,0s-3,4-7,0s-2-3-6-6s-6-5-8-6s-2,2-8,0s-6,0-6,0s0-3-5-5s-10,0-10,0s-1,2-6-3
	s-5-10-7-8s-4,1-7,2s-7-1-9-2s-3-4-6-3s-3,3-8,0s-7-3-7-3s-5-5-9-4s0,5-6,0s-6-5-6-5s0,2-6,0s-9-2-11-3s-6-4-8-6s-9-4-10-3s-4-4-7-3
	s-8-3-10-3s-7-3-7-3s-3,2-6,0s-7-1-9-3s-3-4-8-5s-5,3-8,0s-7-7-10-6s-7-2-9-3s-3-3-6-3s-1-1-4-1s-3,0-5-1s-1,0-4,0s-4,0-5-1
	s-1-2-3-2s-2,1-3,0s-1-2-2-2s-3,0-5-1s-7-1-9-2s-7-4-8-4s0-1-4-2s-12-2-13-2s-5-2-6-2s-6-1-7-2s-3-2-5-2s-6,2-8,0s-3-3-5-3
	s-10-4-10-4s-1,0-3,0c-1.6,0-2.6-1.3-4-1.8c-0.3-0.1-0.6-0.2-1-0.2c-1.7,0-3.4,0.7-5.1,0.3c-0.3-0.1-0.6-0.2-0.9-0.3c-2-1-3-1-4-1
	s-4-2-6-2s-3,0-4,0s-9-3-9-3s-3,1-4,0s-2-2-3-2s-6-2-7-2s-2,0-3,0s-2-1-4-1s-4-1-4-1h8c0,0,5,1,8,2s5,0,6,1s2-1,4,1s1,2,3,3s5,0,8,0
	s4,1,6,2s21,3,21,3s2,1,3,2s3,0,5,1s2,1,5,2s3,0,6,1s4,1,6,2s5-1,6,0s1,0,3,1s4,2,6,2s4,0,6,1s1,1,4,2s5,0,7,1s2,1,5,3s5,2,6,2
	s1-1,3,0s3,1,5,2s4,0,6,1s4,2,7,2s4-1,5,1s2,4,4,4s4-1,6,0s3-1,5,1s3,2,5,3s4,0,5,0s4,2,5,2s2-2,3-1s15,5,13,6s-3-2,1,0s5,1,6,2
	s2,0,5,2s6,1,8,4s3,4,6,3s2-2,5,0s2,1,5,3s6,0,8,1s2,3,5,4s6,1,8,1s0-3,4,0s2,2,6,4s4,2,8,2s3-1,6,1s2,1,4,3s0,2,4,2s2-2,6,0
	s3,1,6,2s3,0,5,0s-1-3,4,1s5,6,8,5s2-3,5-1s2,2,6,4s5,3,8,2s8,0,10,1s5,1,7,3s3,2,5,3s2,1,5,1s3-2,5,0s2,1,6,3s7,1,7,1s1,2,2,2
	s2,1,4,2s6,0,8,1s2,1,4,2s2,1,4,2s4,1,6,2s4,1,5,2s-1,1,1,2s3,2,4,1s1-1,3,0s12,0,14,2s2,2,3,3s1,1,5,3s6,5,11,5s7,0,9,1s7,2,8,3
	s5,1,6,2s2,1,4,2s15,1,17,1s5-1,7,2s0,5,3,5s3-4,6-2s3,2,3,2L1368,568z"/>
<path fill="#0294AD" d="M2,524v10c0,0,4,2,7,0s9,0,10,0s0,1,5,1s6,0,8-1s3-1,5-1s4,1,6,2s3,2,7-1s7,2,9,2s1,2,4,0s3-3,6-2
	c3,1,6,5,8,3c2-2,6,2,9,1c3-1,8,0,8,0s-5,2,6,0s9-6,12.9-2s12,3,12,3s3-9,7-5c4,4,5,3,7,5s2,5,5,2s1-5,5-3c4,2,4,5,6,4s5,2,8,0
	s5-3,7-3s5,4,5,4s0,1,2,0c2-1,0-3,0-4s5,2,6,3c1,1,6,1,6,1l-1-2c0,0,4-1,6,2s8,2,9,0c1-2,2-5,3-4c1,1,6,4,7,4c1,0-1,0,6-1
	c7-1,10-1,12,1s2,3,6,2c4-1,6-3,9-3s-3,1,7,1c10,0,9,0,14.9,0s6-1,10,1s8,2,12.9,1c5-1,5-2,11-2c6,0,9,1,11,3c2,2,7,2,10,0
	c3-2,4-3,6-2c2,1,4,3,4,3s8-2,9-2s-3-2,0,0c3,2,2,5,5,4c3-1,8-3,8-3l10-3c0,0,6,2,7,2s3,2,9,2c6,0,13.9-3,15.9-1c2,2,18.9-1,18.9-1
	s3,1,5,2c2,1,1,4,9,1c8-3,9-6,12-3c3,3,22.9-1,24.9,0s17.9,4,17.9,4s6-2,8-2s10,3,12,2c2-1,10,0,10,0l8-3h8c0,0,10-1,12.9,0s6,5,9,3
	s10-2,10-2h7c0,0,8-4,10-3s10,2,10,2h20.9l7-1l6,1l6,4l5-3h7c0,0,3-1,6,0s1,5,6,3s8-5,11-4s54.8,2,54.8,2s3-2,6-2s3,0,3,0l7,1
	l12.9-1l6,2c0,0,4,1,6,0s7-2,9-2c2,0,7,0,7,0l7,2l6-1h8c0,0,3-1,5-2s3-4,5-1s-7,3,0,3s5,1,10,0s4-3,7-2s6,2,6,2l9-3c0,0,3,2,4,3
	c1,1,11-1,11-1s9-1,10,0s-1,2,4,0s4-5,8-2s1,3,5,3s7,0,9-1c2-1,3-3,5,0c2,3,5,0,8,0s3-1,5-1s1,0,6,1s6,0,9-1s-2-4,3-1s5,5,8,4
	c3-1,5-3,5-3s-6-3,2,0s6,7,12,3s4-7,8-4c4,3,6,6,8,5c2-1,0-1,3-2s3-1,5-1s2,0,4,0c2,0,2,0,4-1s3-2,5,0s1,3,3,2s1,0,4-1s-1-3,4-1
	c5,2,10-2,10-2s3,4,6,3s7-4,7-4l5,2c0,0,4-1,6-1c2,0,0-1,4,1c4,2,6,1,12,0s7-3,10-1c3,2,7,4,10,2s3-4,7-4c4,0,6,2,8,3s5,1,8,0
	c3-1,1-3,7-1s10-1,13.9-1s18.9-1,18.9-1s10,0,12,0s-1,5,4,1s5-7,9-5s3,3,8,3s7,0,10,1c3,1,7,1,10,1c3,0,7-3,9-3c2,0,5,2,10,3
	s7-4,12-5s7-2,11,0s-3-2,9,0c12,2,9,0,16.9,2c8,2,7,4,12,3s4-2,9-3s4-4,9-2s5,2,8,2c3,0,2-4,5-4c3,0,5-1,8,0c3,1,3,1,6,0
	c3-1,22.9-1,22.9-1s-1-4,3-2s1,4,6,3s2-2,9-1s4,0,7,1c3,1-2,4,3,2s7-1,8-3c1-2,4-2,0-4c-4-2-1-1-6-2s-1-1-5-1c-4,0-5,0-8,1
	c-3,1-8-2-11-1c-3,1-7,5-9,5c-2,0-6-2-8-3c-2-1-6,2-10,2s-5,0-7,0c-2,0,1,0-6,1c-7,1-14.9-1-17.9-1c-3,0-4-2-8-1s-2,0-8,1
	c-6,1-6,1-10,1c-4,0-2-2-8,0s-4,4-8,2s-3-2-6-3s-6-1-8-1c-2,0-6,3-8,4c-2,1-7,0-10-1c-3-1,1-3-3-1s-7,2-9,3c-2,1,0,2-4-1
	c-4-3-5-3-8-2s-4,3-7,2c-3-1-2-4-8-3s-8,1-11,2c-3,1-5,2-12.9,2s-7,0-11,1s-9-3-12-4c-3-1-3-1-8,2s-7,2-10,3c-3,1-2-1-8-2s-6-3-10-2
	s-5,2-9,2c-4,0-7-2-9-2c-2,0-2-1-6,0s-2,1-6,2s-2,5-5,2s-3-6-5-5s-1,2-5,4s-13.9-1-16.9-1s-7,0-10,0c-1.5,0-4.2,0.5-6.9,1
	c-2.8,0.5-5.6,1-7.1,1c-3,0-10,2-12,2c-2,0-8-4-10-4c-2,0-11,1-12.9,0c-2-1-4,0-8,2s-5,4-8,3s-18.9-4-18.9-4s-3,1-4,1c-1,0-9,0-9,0
	h-40.8c0,0-10,1-11,0c-1-1-1-2-4-1s3,2-6,1c-9-1-12-2-13.9-2s-5,1-7,2c-2,1-2,4-5,3c-3-1-10-3-11-3c-1,0,0-3-3,0c-3,3-3,4-6,4
	s-6-1-8-2s-5,0-7,0s-4,0-8,0s-3-4-6-2c-3,2-1,3-5,3c-4,0,0,0-8,0s-8,0-15.9,0c-8,0-15.9,1-16.9,2c-1,1-5-2-9-2c-4,0-3,0-7,1
	c-4,1-13.9-5-16.9-4c-3,1-2-2-5,0c-3,2,4,2-6,2s-12.9-4-13.9-2c-1,2-3,2-4,3c-1,1-16.9-1-16.9-1s-6,3-7,2s-4-2-5-2s-1,0-5,0
	s-4-4-7-2s-2,4-5,3s-2,0-5-1s-4-1-7,0s-3,1-6,0s-2-4-6-2c-4,2-3,1-8,2s-6-1-8,0s3,0-5,2s-11,0-13.9-1s-4-1-6-1s-3,1-4,0
	c-1-1-1-4-3-1s-1,4-3,3s-2-1-4-1s-3,0-4,0c-1,0-2,1-4,1s0-2-3-1s-5,1-5,0s1-1-1-1s0-1-2,0c-2,1-1,0-3,0s4-2-3,0s-8,4-10,3s3-3-4-2
	c-7,1-10,1-11,1s-42.8-2-44.8-2c-2,0-5-1-5,0s1,2-4,0s-3-4-6-2c-3,2-1,0-6,1c-5,1-4,0-6,1c-2,1,0,1-4,0c-4-1,1-3-5-2s-5,0-7,1
	c-2,1,0,0-6-1s-6-3-8-2c-2,1-1,2-4,2c-3,0-2,0-7-2s-3,0-7,1s-3,3-6,2c-3-1-2-1-9-1c-7,0-9-4-10-3c-1,1-6,3-7,3s-1-3-4-2
	c-3,1-2-1-4,0c-2,1-8-1-10-1c-2,0-3,1-4,2s0,1-3,0c-3-1-5-2-6-2s-1,1-3,1c-2,0-3,1-5,0c-2-1-1-2-2-1c-1,1-13.9-3-16.9-2
	c-3,1-1,2-4,2c-3,0-3,1-6,0c-3-1-2-1-5-1c-3,0-2,0-6,1s-8-1-10-1c-2,0,0-1-4,0c-4,1-3,2-6,2c-3,0-6-2-7-2s0-1-4,0c-4,1-6,0-9-1
	s-4-3-6-2c-2,1-1,0-4,1s-4,0-6,0s-1-3-3-1c-2,2,3,1-4,2s-24.9-2-26.9-2s-2,1-3,1c-1,0-1,1-3,0c-2-1-2,0-3,0c-1,0-25.9-3-25.9-3
	c-3,1-5,2-7,2s0,1-5,0s-3-1-6-1c-3,0-2.3-1-4.6-1c-2.3,0-0.8-0.7-4.1-0.9s-3.2-0.1-4.2,0.9c-1,1-4,2-6,1c-2-1-15.9-2-17.9-2
	c-2,0-2,0-4,1c-2,1-4,2-6,1c-2-1-1,0-4-1c-3-1,0-3-5-1c-5,2-26.9-2-29.9-2c-3,0-1-2-4,0c-3,2-1,2-5,1s-4-2-6-2s-2,1-5,2s0,4-5,2
	s-6-4-6-4s-4-2-5-2s-3,2-3,2"/>
<polygon fill="#FFFDC5" points="685,277 682,277 683,284 684,284 "/>
<polygon fill="#FFFDC5" points="686,258 681,258 682,269 685,269 "/>
<polygon fill="#FFFDC5" points="687,234 680,234 681,246 686,246 "/>
<polygon fill="#FFFDC5" points="688,201 679,201 680,217 687,217 "/>
<polygon fill="#FFFDC5" points="690,157 678,157 679,179 689,179 "/>
<polygon fill="#FFFDC5" points="691,101 677,101 678,128 690,128 "/>
<polygon fill="#FFFDC5" points="693,25 675,25 677,66 691,66 "/>
<polygon fill="#FFFDC5" points="524,277 521,277 527,284 528,284 "/>
<polygon fill="#FFFDC5" points="514,258 509,258 517,269 520,269 "/>
<polygon fill="#FFFDC5" points="500,234 493,234 503,246 508,246 "/>
<polygon fill="#FFFDC5" points="478,201 469,201 480,217 487,217 "/>
<polygon fill="#FFFDC5" points="449,157 437,157 452,179 462,179 "/>
<polygon fill="#FFFDC5" points="410,101 396,101 415,128 427,128 "/>
<polygon fill="#FFFDC5" points="364,25 346,25 373,66 387,66 "/>
<polygon fill="#FFFDC5" points="860,277 863,277 857,284 856,284 "/>
<polygon fill="#FFFDC5" points="870,258 875,258 867,269 864,269 "/>
<polygon fill="#FFFDC5" points="884,234 891,234 881,246 876,246 "/>
<polygon fill="#FFFDC5" points="906,201 915,201 904,217 897,217 "/>
<polygon fill="#FFFDC5" points="935,157 947,157 932,179 922,179 "/>
<polygon fill="#FFFDC5" points="974,101 988,101 969,128 957,128 "/>
<polygon fill="#FFFDC5" points="1020,25 1038,25 1011,66 997,66 "/>
<polygon fill="#AEEBFD" points="1370,300 0,300 0.7,0 1370,0 "/>
<path fill="#8EE6FE" d="M1370,113.6c0,0-509.4-46.4-688.3-47.5C488.5,64.9,0.2,115.6,0.2,115.6L0,0h1370V113.6z"/>
<path fill="#FFFFFF" d="M739.9,72.3c-0.6-1.1-0.9-2.2-0.9-3.3c0-9.4,21.2-17.1,47.3-17.1c15.3,0,28.9,2.6,37.5,6.7c0,0,0,0,0,0
	s0,0,0,0c6.1-1.3,13.2-2.1,20.8-2.1c23.3,0,42.1,7.2,42.1,16.1c0,8.9-18.9,16.1-42.1,16.1c-4,0-7.8-0.2-11.5-0.6
	c-2.4,6.6-17.2,11.6-35.1,11.6c-14.1,0-26.2-3.1-32-7.7c-3.7,0.8-7.8,1.2-12.2,1.2c-15.1,0-27.3-5-27.3-11.2
	C726.6,77.9,731.9,74.3,739.9,72.3z"/>
<path fill="#FFFFFF" d="M1007,165.5c-0.4-0.7-0.6-1.5-0.6-2.2c0-6.3,14-11.4,31.4-11.4c10.1,0,19.2,1.7,24.9,4.4c0,0,0,0,0,0
	s0,0,0,0c4.1-0.9,8.8-1.4,13.8-1.4c15.4,0,27.9,4.8,27.9,10.7c0,5.9-12.5,10.7-27.9,10.7c-2.6,0-5.2-0.1-7.6-0.4
	c-1.6,4.4-11.4,7.7-23.3,7.7c-9.3,0-17.4-2.1-21.2-5.1c-2.4,0.5-5.2,0.8-8.1,0.8c-10,0-18.1-3.3-18.1-7.4
	C998.3,169.1,1001.8,166.8,1007,165.5z"/>
<path fill="#62881B" d="M0,276.1c15-10.2,15.8-15.3,22.5-12.3s13.6,2.9,22-0.8c8.4-3.7,16.8,0.7,25.2,0c8.4-0.7,16.8,6.7,25.2-1.5
	c8.4-8.2,10.1-16.9,21.8-16.3s26.8,8.1,28.5,8.1c1.7,0,23.5-8.1,23.5-8.1s10.1-10.4,21.8-10.2c11.7,0.3,39.1,0,39.1,0l31.3,0
	c0,0,58.7-22.1,68.7-17.6c10.1,4.5,36.9-6,52,0c15.1,6,35.2-3,50.3,0c15.1,3,15.1-3,25.2,0c10.1,3,20.1-4.9,25.2-4.7
	c5,0.2,10.1-4.7,16.8,0c6.7,4.7,8.4,3.2,20.1,4.7c11.7,1.5,16.8-5.9,26.8-6.7s23.5-8.3,36.9-8.3c13.4,0,21.8-7.5,28.5,0
	c6.7,7.5,5,12,15.1,15c10.1,3,15.1-3.4,25.2-4.7c10.1-1.3,15.1-13.6,15.1-13.6l17.1,6.3c0,0,3,7.2,14.8,7.3
	c11.7,0.2,20.1,4.3,30.2,0c10.1-4.3,16.8-4.7,25.2,0s13.4,13.6,21.8,15.1c8.4,1.5,16.8,5.4,33.5,7.2c16.8,1.8,15.1,2,33.5,4.1
	c18.4,2.1,11.7-1.4,31.9-4.1c20.1-2.7,41.9-1,57,4.1c15.1,5.1,26.8,11.4,36.9,6c10.1-5.4,11.7-12,26.8-7.2c15.1,4.8,22.6,8.5,34,13
	c11.3,4.5,26.4-3.4,39,0s12.6-3.8,22.6-5.8c10.1-2,12.6-2.5,18.9,0s1.3,9.2,13.8,9.2s10.1-9.4,20.1-9.2s8.8-4.7,17.6,0
	s5-11.1,20.1-6s21.4,6.2,27.7,11.9s22.6-12.8,36.5-5.8c13.8,6.9,17.6,12.6,31.4,12.6c13.8,0,28.9,1.1,37.7-3.4s18.5,0,26.1,3.4
	c7.5,3.4,28.4,1.2,28.4,1.2l0,41.1L0,304.3V276.1z"/>
<path fill="#567434" d="M0,301.3c15.1-10.2,15.9-15.5,22.6-12.5s13.5,2.9,21.9-0.8s16.8,0.7,25.2,0c8.4-0.7,16.8,6.7,25.2-1.5
	c8.4-8.2,10.1-16.9,21.8-16.3c11.7,0.6,26.8,8.1,28.5,8.1s23.5-8.1,23.5-8.1s10.1-10.4,21.8-10.2c11.7,0.3,39.1,0,39.1,0l31.3,0
	c0,0,58.7-22.1,68.7-17.6c10.1,4.5,36.9-6,52,0s35.2-3,50.3,0s15.1-3,25.2,0s20.1-4.9,25.2-4.7c5,0.2,10.1-4.7,16.8,0
	c6.7,4.7,8.4,3.2,20.1,4.7c11.7,1.5,16.8-5.9,26.8-6.7s23.5-8.3,36.9-8.3c13.4,0,21.8-7.5,28.5,0s5,12,15.1,15
	c10.1,3,15.1-3.4,25.2-4.7c10.1-1.3,15.1-13.6,15.1-13.6l17.1,6.3c0,0,3,7.2,14.8,7.3c11.7,0.2,20.1,4.3,30.2,0
	c10.1-4.3,16.8-4.7,25.2,0s13.4,13.6,21.8,15.1s16.8,5.4,33.5,7.2c16.8,1.8,15.1,2,33.5,4.1c18.4,2.1,11.7-1.4,31.9-4.1
	c20.1-2.7,41.9-1,57,4.1c15.1,5.1,26.8,11.4,36.9,6c10.1-5.4,11.7-12,26.8-7.2c15.1,4.8,22.6,8.5,34,13c11.3,4.5,26.4-3.4,39,0
	c12.6,3.4,12.6-3.8,22.6-5.8c10.1-2,12.6-2.5,18.9,0s1.3,9.2,13.8,9.2s10.1-9.4,20.1-9.2s8.8-4.7,17.6,0s5-11.1,20.1-6
	s21.4,6.2,27.7,11.9c6.3,5.6,22.6-12.8,36.5-5.8c13.8,6.9,17.6,12.6,31.4,12.6c13.8,0,28.9,1.1,37.7-3.4s18.5,0,26.1,3.4
	c7.5,3.4,28.4,1.1,28.4,1.1l-1,41.2L0.3,329.3L0,301.3z"/>
<path fill="#87B701" d="M0.3,302.3c342-43,326.1-51.1,697.1-42s492.1,34.1,515.2,31.5c23.1-2.6,156.6,6.3,156.6,6.3v470L0.3,768.8
	V302.3z"/>
<path fill="#7AA901" d="M0,549.2c95.7-28.1,279.5-67,393.6-63.7c114.1,3.3,295.8,10.8,340.7,14.6c130.9,10.9,65.4,31.3,343.2,17.4
	c56-2.8,291.8-39.3,291.8-39.3l-0.2,289.8H0V549.2z"/>
<path fill="#AC8647" d="M215.6,345.9c26.8-56.3,52-76.1,41.9-107.3c-10.1-31.3,12.9-46.4,25.2-30.2c9.4,12.4-5,67.3-5,67.3
	s-8.4,26.5-5,41c3.4,14.6,20.5,29.2,20.5,29.2s-10.1,22.9-38.8,22.9S215.6,345.9,215.6,345.9z"/>
<path fill="#917136" d="M258.3,248c-9.9-6.1-8.5-4.9-11.3-13.5c-2.7-8.6-2.9-8.6-2.9-8.6l-10.1-0.8c0,0,1.5,3,3.4,7.5
	c1.9,4.5,3.7,11.3,5.9,13.7c2.2,2.3,7,5.1,9.5,6.4c2.5,1.4,8,3.5,8,3.5V250L258.3,248z"/>
<path fill="#AC8647" d="M276.2,263.2c0,0,7.7-1.2,16.5-4.2c8.8-3,14.3-13.1,14.3-13.1s6.7-9.4,8-10.4s5.9-9.6,5.9-9.6l2.2-1.4
	l-16,1.4c0,0-1.7,7.2-2.5,8.8c-0.8,1.6-1,2.9-2.4,5.9c-1.6,3.3-8.1,9.4-11.1,11.1c-3.1,1.8-8.6,2.3-8.6,2.3L276.2,263.2z"/>
<path fill="#917136" d="M215.6,345.9c26.8-56.3,52-76.1,41.9-107.3c-6.6-20.7,1.1-34.3,10.7-36.5c4.9-1.1,6.2,55.6-0.6,73.6
	c-4,10.4-13.4,26.5-10.1,41c3.4,14.6,25.5,52.1-3.2,52.1S215.6,345.9,215.6,345.9z"/>
<ellipse fill="#62881B" cx="201.3" cy="188" rx="51.1" ry="28.6"/>
<ellipse fill="#62881B" cx="241.6" cy="197.3" rx="51.1" ry="28.6"/>
<ellipse fill="#62881B" cx="307" cy="197.3" rx="51.1" ry="28.6"/>
<ellipse fill="#62881B" cx="339.1" cy="171.5" rx="69.3" ry="38.7"/>
<ellipse fill="#8FB601" cx="213.8" cy="143.8" rx="68.6" ry="38.3"/>
<ellipse fill="#84A800" cx="211.4" cy="175.5" rx="51.1" ry="28.6"/>
<ellipse fill="#84A800" cx="246.6" cy="184.8" rx="51.1" ry="28.6"/>
<ellipse fill="#84A800" cx="307" cy="191.1" rx="51.1" ry="28.6"/>
<ellipse fill="#84A800" cx="334" cy="168.4" rx="69.3" ry="38.7"/>
<ellipse fill="#84A800" cx="218.8" cy="146.9" rx="68.6" ry="38.3"/>
<ellipse fill="#84A800" cx="298.8" cy="143.4" rx="69.3" ry="38.7"/>
<ellipse fill="#84A800" cx="342.2" cy="144.2" rx="51.1" ry="28.6"/>
<path fill="#8FB601" d="M267.5,165c-12.8,10-37.8,10.9-55.7,2s-22-24.2-9.2-34.2c12.8-10,37.8-10.9,55.7-2
	C276.2,139.7,280.3,155,267.5,165z"/>
<path fill="#84A800" d="M271.8,171.7c-13.5,10.5-39.7,11.5-58.5,2.1c-18.8-9.3-23.2-25.4-9.6-35.9s39.7-11.5,58.5-2.1
	C281,145.1,285.3,161.2,271.8,171.7z"/>
<path fill="#8FB601" d="M282.9,170c6.4,12.2,29.3,18.4,51,14c21.8-4.4,34.2-17.9,27.8-30c-6.4-12.2-29.3-18.4-51-14
	C288.9,144.4,276.5,157.8,282.9,170z"/>
<path fill="#84A800" d="M274.8,175c7.6,13.7,32.5,21.2,55.6,16.8c23.1-4.4,35.7-19.1,28.1-32.8c-7.6-13.7-32.5-21.2-55.6-16.8
	C279.8,146.7,267.2,161.4,274.8,175z"/>
<path fill="#8FB601" d="M296.1,188.3c-11.9,5.4-29.4,3-39-5.2c-9.6-8.3-7.7-19.3,4.2-24.7c11.9-5.4,29.4-3,39,5.2
	C309.9,171.9,308,183,296.1,188.3z"/>
<path fill="#84A800" d="M295.7,194c-15.3,6.9-35.9,5.4-46-3.3s-5.9-21.3,9.4-28.1c15.3-6.9,35.9-5.4,46,3.3
	C315.2,174.6,311,187.2,295.7,194z"/>
</svg>
