<svg id="Laag_1" data-name="Laag 1" xmlns="http://www.w3.org/2000/svg" viewBox="0 0 1366.3 768"><defs><style>.cls-1{fill:#008a9e;}.cls-2{fill:#dbb675;}.cls-3{fill:#ddd;}.cls-4{fill:#6bdb71;}.cls-5{fill:#fff;}.cls-6{fill:#e2de49;}.cls-7{fill:#9b9b9b;}.cls-8{fill:#111;}.cls-9{fill:#e5e5e5;}.cls-10{fill:#212121;}.cls-11{fill:#bcbbbb;opacity:0.47;isolation:isolate;}.cls-12{fill:#97a0a0;}.cls-13{fill:#becaca;}.cls-14{fill:#cc9211;}.cls-15{fill:#f6b304;}.cls-16{fill:#d69f11;}.cls-17{fill:#232323;}.cls-18{fill:#aaa;}.cls-19{fill:#434949;}.cls-20{fill:#506578;}.cls-21{fill:#c2c4c6;}.cls-22{fill:#851f10;}.cls-23{fill:#b7b6b6;}.cls-24{fill:#8e6830;}.cls-25{fill:#2f5220;}.cls-26{fill:#006c78;}.cls-27{fill:#004649;}.cls-28{fill:#feffff;}</style></defs><title>zaal korfbal basketbal volleybal</title><g id="Laag_2" data-name="Laag 2"><polygon class="cls-1" points="-387.05 543.61 56.14 480.08 1342.3 467.68 1729.69 515.72 1729.69 864.38 -387.05 864.38 -387.05 543.61"/></g><g id="Laag_11" data-name="Laag 11"><polygon class="cls-2" points="223.49 679.97 488.47 514.17 111.92 515.72 -387.05 622.64 -387.05 673.78 223.49 679.97"/></g><g id="Laag_19" data-name="Laag 19"><polygon class="cls-2" points="959.55 490.92 1466 825.79 1730.16 824.09 1730.16 549.5 1391.88 490.92 959.55 490.92"/></g><g id="Laag_7" data-name="Laag 7"><polyline class="cls-3" points="265.33 648.98 274.63 648.98 226.59 679.97 -387.05 676.88 -387.05 672.23 217.29 676.88 260.68 652.08"/><polyline class="cls-3" points="-387.05 621.09 111.92 514.17 113.47 515.72 -387.05 625.74"/><polyline class="cls-3" points="493.12 512.62 274.63 648.98 265.33 648.98 474.53 521.92 474.53 521.92 486.92 514.17 486.92 514.17 486.92 514.17 113.47 515.72 111.92 514.17"/><polyline class="cls-3" points="-190.25 596.3 308.72 596.3 307.17 597.85 300.97 597.85 -198 597.85 -190.25 596.3"/><polyline class="cls-3" points="431.14 548.26 -35.29 548.26 -28.93 547.02 433.15 547.17 438.88 543.61"/><polygon class="cls-3" points="308.72 596.3 354.74 596.3 352.11 597.85 305.93 597.85 308.72 596.3"/><polyline class="cls-3" points="-51.4 565.3 404.79 565.3 403.4 566.85 397.67 566.85 -58.53 566.85 -51.4 565.3"/></g><g id="Laag_12" data-name="Laag 12"><polygon class="cls-4" points="206.25 772.95 606.24 500.53 909.96 495.57 1254.27 776.05 206.25 772.95"/><polygon class="cls-5" points="182.05 780.7 604.69 498.67 911.51 494.02 1269.33 780.7 1260.04 780.7 908.41 497.12 606.24 501.77 196 780.7 182.05 780.7"/><polygon class="cls-5" points="470.13 593.2 1026.96 591.65 1023.86 587 476.32 588.55 470.13 593.2"/></g><g id="Laag_15" data-name="Laag 15"><path class="cls-6" d="M720.29,512.46c.77-1.55.62-4.18,7.44-6,6.51-1.7,19.37-2.79,29.13-2.79,12.71,0,23.4.77,29.91,3.25,3.72,1.39,6.35,4.49,6.35,5.73s2.63,3.72-1.24,5.11c-6.51,2.48-22.47,3.87-35.18,3.87-9.14,0-25.72,0-32.23-1.55C717.35,518.2,719.52,514.32,720.29,512.46Z"/><ellipse class="cls-5" cx="756.55" cy="518.2" rx="37.81" ry="6.82"/><ellipse class="cls-6" cx="756.71" cy="518.2" rx="36.26" ry="6.2"/><path class="cls-5" d="M794.67,517c-.93-4-2.48-9.14-8.52-10.38-12.71-2.79-11.78-1.39-28.67-3.1-.31,0-.46.15-.46.31h0v.46a.49.49,0,0,0,.46.46c8.52.46,17.2,1.24,25.72,2.48a13.86,13.86,0,0,1,7.44,3.87,10,10,0,0,1,1.55,2c1.7,2.48,1.55,4,1.08,5a2.79,2.79,0,0,0-.31,1.55l.46.46a1.4,1.4,0,0,0,.93-.93C794.52,518.35,794.52,517.58,794.67,517Z"/><path class="cls-5" d="M718.9,514.79c.93-3.41,2.17-7.75,8.21-8.83,12.71-2.32,12.55-1.24,29.29-2.63.31,0,.62.15.62.31v.31a.7.7,0,0,1-.46.46c-2.94.15-17.82.62-27.12,2.17a11.86,11.86,0,0,0-6.51,3.25,14.6,14.6,0,0,0-1.55,1.55c-2.94,3.87-.77,6-.77,6l-1.7,1.08A14.87,14.87,0,0,1,718.9,514.79Z"/><polygon class="cls-5" points="756.24 504.56 756.4 503.32 757.48 503.32 757.64 504.56 756.24 504.56"/></g><g id="Laag_3" data-name="Laag 3"><polygon class="cls-7" points="-387.05 566.85 56.14 487.8 1342.3 472.38 1729.69 532.15 1729.69 0 1353.14 163.89 34.44 185.09 -387.05 21.21 -387.05 566.85"/></g><g id="Laag_10" data-name="Laag 10"><polygon class="cls-8" points="380 407.05 384.65 482.98 432.69 482.98 428.04 405.5 380 407.05"/><polygon class="cls-9" points="380 405.5 380 400.85 428.04 399.3 428.04 405.5 380 407.05 380 405.5"/><polyline class="cls-8" points="999.84 476.93 1004.49 399.3 1052.52 400.85 1047.87 476.47"/><polygon class="cls-9" points="1052.52 399.3 1052.52 394.65 1004.49 393.1 1004.49 399.3 1052.52 400.85 1052.52 399.3"/></g><g id="Laag_8" data-name="Laag 8"><polygon class="cls-10" points="400.3 566.85 406.34 566.85 405.57 393.1 400.15 393.1 400.3 566.85"/><polyline class="cls-5" points="-109.67 385.86 400.15 393.1 400.15 403 -109.67 394.31 -109.67 385.86"/><polygon class="cls-11" points="-109.67 394.31 -109.67 460.19 400.15 470.32 400.15 402.75 -109.67 394.31"/></g><g id="Laag_14" data-name="Laag 14"><ellipse class="cls-12" cx="756.56" cy="514.74" rx="15.4" ry="0.97"/><rect class="cls-13" x="754.61" y="374.18" width="3.9" height="140.17"/><polygon class="cls-14" points="752.27 367.16 752.27 370.28 754.61 375.54 758.5 375.54 760.85 370.28 760.85 367.16 752.27 367.16"/><path class="cls-15" d="M741.93,351.76v14s1.95-1.95,11.11-1.95h9s7,0,9,1.95,1-14,1-14S772,349,758.9,349C741.93,349,741.93,351.76,741.93,351.76Z"/><path class="cls-16" d="M742.13,365.21a.59.59,0,0,0,0,.78l.19.19a33.93,33.93,0,0,0,11.7,1.56h8.19c.58,0,8.19-1,9.16-1.75s-1.36-1.56-1.36-1.56a6,6,0,0,0-2.53-.58,60.34,60.34,0,0,0-8.38-.39H750.9s-5.85,0-8,1.17A2.69,2.69,0,0,0,742.13,365.21Z"/><path class="cls-15" d="M743.69,365.6c-.19.19-.19.58.19.58a38.57,38.57,0,0,0,10.53,1h7.41A59.15,59.15,0,0,0,770,366c1-.58-1.17-1-1.17-1a9.79,9.79,0,0,0-2.34-.39c-1.95-.19-7.6-.19-7.6-.19h-7.41a30.29,30.29,0,0,0-7.21.78C744.08,365.41,743.88,365.41,743.69,365.6Z"/></g><g id="Laag_17" data-name="Laag 17"><ellipse class="cls-5" cx="1250.75" cy="514.58" rx="9.76" ry="55.01" transform="translate(660.77 1731.59) rotate(-86.5)"/><ellipse class="cls-2" cx="1250.77" cy="514.57" rx="8.99" ry="53.46" transform="translate(660.8 1731.59) rotate(-86.5)"/><ellipse class="cls-5" cx="1442.97" cy="591.65" rx="23.24" ry="117.76" transform="translate(764.34 1995.81) rotate(-86.5)"/><ellipse class="cls-2" cx="1442.98" cy="591.62" rx="21.69" ry="114.67" transform="translate(764.37 1995.78) rotate(-86.5)"/><polygon class="cls-5" points="1457 826.41 956.45 489.38 1391.88 489.38 1729.69 546.71 1729.69 551.36 1391.88 490.92 961.1 490.92 1478.69 826.41 1457 826.41"/><rect class="cls-17" x="1212.59" y="359.05" width="8.83" height="134.81"/><polygon class="cls-17" points="1224.99 494.02 1208.57 494.02 1208.57 490.92 1212.6 484.42 1221.27 484.42 1224.99 490.92 1224.99 494.02"/><rect class="cls-17" x="1211.05" y="379.2" width="11.78" height="13.95"/><circle class="cls-18" cx="1211.82" cy="380.59" r="0.46"/><circle class="cls-18" cx="1211.82" cy="391.44" r="0.46"/><circle class="cls-18" cx="1211.82" cy="386.33" r="0.46"/><circle class="cls-18" cx="1222.05" cy="380.59" r="0.46"/><circle class="cls-18" cx="1222.05" cy="391.44" r="0.46"/><circle class="cls-18" cx="1222.05" cy="386.33" r="0.46"/><rect class="cls-19" x="1168.74" y="304.35" width="96.07" height="56.56"/><rect class="cls-5" x="1172.93" y="308.85" width="87.09" height="46.18"/><rect class="cls-20" x="1212.28" y="308.85" width="8.99" height="46.18"/><rect class="cls-21" x="1201.13" y="327.6" width="31.46" height="2.48"/><rect class="cls-21" x="1201.13" y="348.67" width="31.46" height="2.48"/><rect class="cls-21" x="1201.13" y="327.6" width="2.48" height="23.55"/><rect class="cls-21" x="1230.1" y="327.6" width="2.48" height="23.55"/><rect class="cls-22" x="1217.24" y="347.43" width="8.99" height="10.85"/><path class="cls-22" d="M1210.12,347.43c5.27-3.41,18.44-3.87,24-.15,2.48,1.7,4.8-2.32,2.32-4-4-2.63-8.83-2.79-13.48-2.79-5.42,0-10.54-.15-15.19,2.94-2.63,1.55-.31,5.58,2.32,4Z"/><path class="cls-22" d="M1207.17,347.12c3.87,3.56,9.45,3.1,14.41,3.1s11.93.77,15.5-3.1c2-2.17-1.24-5.42-3.25-3.25-2.79,3.1-20.3,2.79-23.4,0-2.17-2-5.58,1.24-3.25,3.25Z"/><path class="cls-22" d="M1214.45,348.36a5.81,5.81,0,0,1-.15,1.55h4.65v.31l-3.41,1.39-.93-1.39,2.32-2.32h0a2.64,2.64,0,0,0-1.08-.15c-.77-.15-1.55-.31-2.48-.46a2.87,2.87,0,0,1-1.86-1.08,5.73,5.73,0,0,1-.77-1.7c-1.24-2.63-5.27-.31-4,2.32a12.35,12.35,0,0,0,1.24,2.48,6.74,6.74,0,0,0,3.1,2,19,19,0,0,0,5.89,1.24,2.38,2.38,0,0,0,2.32-2.32,2.93,2.93,0,0,0-1.39-2.48,2.39,2.39,0,0,0-3.25.93.57.57,0,0,0-.15.46,2,2,0,0,0-.15.93c-.15,3.1,4.34,2.94,4.65,0a5.81,5.81,0,0,1,.15-1.55c.15-2.94-4.49-2.94-4.65,0Z"/><path class="cls-22" d="M1224.22,348.36a5.81,5.81,0,0,0,.15,1.55c.15,2.94,4.8,3.1,4.65,0a2,2,0,0,0-.15-.93,2.26,2.26,0,0,0-2.94-1.55,3.34,3.34,0,0,0-1.86,2.17,2.55,2.55,0,0,0,1.7,2.94h.62a21.3,21.3,0,0,0,8.06-2,5.79,5.79,0,0,0,3.41-4.8,2.32,2.32,0,0,0-4.65,0l-.31.46-.15.31.93-.77a11.69,11.69,0,0,0-2,.93,18.73,18.73,0,0,1-2.79.77l-1.55.31c-.15,0-1.08.15-.62.15l2.17,2.94-.31.46-3.87-1.08v-.31h4.65a5.81,5.81,0,0,0-.15-1.55c-.31-2.94-5-2.94-5,0Z"/><path class="cls-22" d="M1218.33,349.45a4.12,4.12,0,0,0-.46-1.86v2.32l.15-.15-1.39,1.08h.31l-2.79-2.94-.15.31.62-1.08h.15l1.86.15a6.48,6.48,0,0,0-1.55-.62c-.62,0-1.24-.15-1.86-.15l1.24.31a23.33,23.33,0,0,1-2.63-1.55l-1.86,4.18a14,14,0,0,1,3.41.93,4,4,0,0,0,3.72,0,2.44,2.44,0,0,0,.77-3.25,1.87,1.87,0,0,0-.77-.77,7.05,7.05,0,0,0-3.1-.77,2.32,2.32,0,0,0,0,4.65,1.4,1.4,0,0,1,.77.15v-4c.77,0,1.08,0,.62-.15l-.77-.31-1.08-.46a12.91,12.91,0,0,0-2.32-.62,2.41,2.41,0,0,0-2.79,1.39,2.44,2.44,0,0,0,.93,2.94c.77.46,1.7.93,2.48,1.39a10.85,10.85,0,0,0,2.17.46,3.7,3.7,0,0,0,1.39.46,4.52,4.52,0,0,0,1.39-.31,3.66,3.66,0,0,0,1.86-2.17,2.55,2.55,0,0,0-1.7-2.94,1.71,1.71,0,0,0-1.24,0,2.23,2.23,0,0,0-1.7,1.39,2.92,2.92,0,0,0-.31,1.24,2,2,0,0,0,.15.93c.15.46.15.31,0-.15a2.38,2.38,0,0,0,2.32,2.32,2.16,2.16,0,0,0,2.17-2.32Z"/><path class="cls-22" d="M1226.7,350.84a12.6,12.6,0,0,1,5.89-.62c.46-.15,1.08-.62,1.55-.62l-1.24-4.34a10.29,10.29,0,0,1-3.1.93,28.91,28.91,0,0,0-3.41,1.08l1.24,4.49a14,14,0,0,1,3.41-.93,2.38,2.38,0,0,0,1.55-2.94,2.36,2.36,0,0,0-2.79-1.55,12.31,12.31,0,0,0-3.41.93c-2.63,1.08-1.7,5.27,1.24,4.49a24,24,0,0,1,3.56-1.08,19,19,0,0,0,4.18-1.39c2.17-1.08.93-4.34-1.24-4.34a4.77,4.77,0,0,0-2,.46s-.77.31-.46.31-1.08-.15-.93-.15c-1.39,0-2.63.77-3.87.77-3.25-.31-3.25,4.34-.15,4.49Z"/><path class="cls-23" d="M1221.89,343.09c-2.17,1.55-1.86,4.8-1.55,7.28.15,1.24,1.39,5.58,3.25,5.42.31,0,.46-.15.62-.46a8.84,8.84,0,0,0,.15-2,13.88,13.88,0,0,1,.31-3.56,11,11,0,0,0-.62-5c-.15-.93-.46-2-1.55-2.17a1.16,1.16,0,0,0-1.39,1.08h0c-.15.77.93,1.08,1.08.31a1.3,1.3,0,0,1,.93,1.24l.15.77a7.78,7.78,0,0,1,.31,3.25,10.13,10.13,0,0,0-.31,4.34,2.2,2.2,0,0,0,.31.93,7.28,7.28,0,0,1-.93-1.39,10.52,10.52,0,0,1-1.08-3.1c-.31-1.7-.62-5,.93-6,.62-.46,0-1.55-.62-.93Z"/><path class="cls-23" d="M1226.85,343.71c.62,1.24,2.63,1.7,3.41.62.46-.62-.62-1.24-1.08-.62s-1.24-.15-1.39-.62c-.31-.62-1.24,0-.93.62Z"/><path class="cls-23" d="M1228.4,343.4c-2.79,1.55-3.56,4-4,7a6.87,6.87,0,0,0-.31,3.56,3.23,3.23,0,0,0,2.48,1.7c2-.15,2.48-4,2.94-5.42.77-2.63,1.55-4.49-.31-6.82-.46-.62-1.24.31-.77.77,1.55,1.86.77,3.41.15,5.42-.46,1.39-.46,3.41-1.55,4.49s-1.55-1.55-1.39-2.48a6.22,6.22,0,0,1,.46-2.32,7,7,0,0,1,3.25-4.8.54.54,0,0,0,.15-.77c-.46-.31-.77-.46-1.08-.31Z"/><path class="cls-23" d="M1231.65,344.49a1.89,1.89,0,0,0,1.86.77c.77-.15.46-1.24-.31-1.08a.93.93,0,0,1-.62-.15C1232.27,343.4,1231.19,343.87,1231.65,344.49Z"/><path class="cls-23" d="M1232.12,344.33a16.32,16.32,0,0,0-2.63,4.49c-.62,1.55-.93,4.8-2.48,5.73l.93.31h0l-.46.77h0c.77-.15.46-1.24-.31-1.08h0a.85.85,0,0,0-.46.77h0a.85.85,0,0,0,.77.46h.15a6.3,6.3,0,0,0,2.32-3.87,17.52,17.52,0,0,1,3.1-6.66c.31-.62-.62-1.55-.93-.93Z"/><path class="cls-23" d="M1232.74,344.64c.15,2.79-2,5-3.25,7.28-.46.62-.46,1.39-.93,2s-1.24.77-1.7,1.7.62,1.24,1.08.62c.46-.93,1.39-1.08,2-1.86l.46-1.39a11.56,11.56,0,0,1,1.08-1.86,12.66,12.66,0,0,0,2.63-6.51C1233.82,344,1232.58,344,1232.74,344.64Z"/><path class="cls-23" d="M1234.44,345.88c-.77,1.55-2.17,2.63-2.63,4.34a11.27,11.27,0,0,1-.93,3.25,18.74,18.74,0,0,1-2.48,2.48c-.15.31-.15.62.15.77a.47.47,0,0,0,.62,0c1.39-1.39,2.79-2.48,3.25-4.49a9,9,0,0,1,1.24-3.41,13.38,13.38,0,0,0,1.55-2.48c.46-.62-.47-1.24-.77-.46Z"/><path class="cls-23" d="M1229.49,356.88a4.57,4.57,0,0,0,2.17-2c.62-1.08,1.39-2.17,2-3.1a10.71,10.71,0,0,0,.46-1.24,7.86,7.86,0,0,1,1.39-2.48,2.23,2.23,0,0,0,.46-2c-.15-.77-1.24-.46-1.08.31s-1.08,1.55-1.39,2.32c-.31.93-.77,1.7-1.08,2.63-1.08,1.55-1.7,3.41-3.41,4.34-.93.46-.31,1.39.46,1.24Z"/><path class="cls-23" d="M1231.19,349.91a7.22,7.22,0,0,1-.93,3.1,16.92,16.92,0,0,1-2,2.63c-.46.62.62,1.24,1.08.62a22.15,22.15,0,0,0,2.17-3.1,10.11,10.11,0,0,0,.77-3.1c0-.77-1.08-1.08-1.08-.15Z"/><path class="cls-23" d="M1215.85,343.87a16.39,16.39,0,0,1,1.86,1.55,16.94,16.94,0,0,1,1.24,2.32c.93,1.86,2.32,5.11,1.39,7.13l.93-.15-.15-.15c-.46-.62-1.39.31-.77.77l.15.15a.69.69,0,0,0,.77,0l.15-.15c.93-1.86.15-4.8-.62-6.66a20.83,20.83,0,0,0-1.86-3.72c-.62-.93-1.39-1.24-2.17-2-.62-.31-1.55.62-.93.93Z"/><path class="cls-23" d="M1215.38,343.56c-.46,1.39-.77,1.7-.31,3.1a45,45,0,0,1,1.86,6c.46,1.86,1.86,4.49,4,2.63.62-.46-.31-1.39-.77-.77-1.7,1.39-2.63-5-2.79-5.73-.46-1.86-1.39-3.1-.77-5a.64.64,0,0,0-1.24-.31Z"/><path class="cls-23" d="M1221.12,354.25a50.9,50.9,0,0,0-3.1-4.8c-.62-.77-1.55-2.32-2.79-2-.93.31-.93,1.08-.46,1.86,1.24,1.86,2.32,3.87,3.41,5.73a.54.54,0,0,0,.77.15c.15-.15.31-.46.15-.62l-2.17-3.72c-.31-.46-.46-.93-.77-1.39,0,0-1.08-1.24-.46-.77a19.19,19.19,0,0,1,2.17,2.79,37.08,37.08,0,0,1,2,3.25c.62.77,1.7.15,1.24-.46Z"/><path class="cls-23" d="M1218.17,355.18c-1.39-1.7-2.79-3.56-4-5.42s-2.94-3.1-1.39-5.42l-.93.15c.77.77,1.08,2.32,1.55,3.1a9.9,9.9,0,0,0,2,2.32c.46.46,1.39-.31.77-.77a12.12,12.12,0,0,1-2.63-4,3.22,3.22,0,0,0-.93-1.55.69.69,0,0,0-.77,0l-.15.15c-1.24,1.7-1.39,3.1,0,4.8,2,2.32,3.72,5,5.73,7.44.46.46,1.24-.31.77-.77Z"/><path class="cls-23" d="M1208.72,346.66a46.86,46.86,0,0,1,4.8,4.8,10,10,0,0,0,1.55,2,14.15,14.15,0,0,0,2,1.24c.62.46,1.24-.62.62-.93a8.86,8.86,0,0,1-2.48-1.7c-.46-.62-.93-1.39-1.39-2a36.69,36.69,0,0,0-4.34-4.18c-.62-.62-1.39.16-.77.77Z"/><path class="cls-23" d="M1209.19,346.66c2.48.46,2.63,2.63,3.56,4.49a5.23,5.23,0,0,0,3.41,2.63c.77.15,1.08-.93.31-1.08a4,4,0,0,1-2.79-2,16.14,16.14,0,0,0-.93-2.48,4.8,4.8,0,0,0-3.41-2.79c-.62,0-.93,1.08-.15,1.24Z"/><path class="cls-23" d="M1221,349.14a2.7,2.7,0,0,1,1.86.62c.31.31.15.31.15.77s.15.46,0,.77c-.15.77.93,1.08,1.08.31v-1.24a2.5,2.5,0,0,0-.46-1.39,3.73,3.73,0,0,0-2.79-1.08c-.77,0-.77,1.24.16,1.24Z"/><path class="cls-23" d="M1225.77,352.7a7.45,7.45,0,0,1,1.24-2.48l.93-.93c.31-.31,1.08-1.24,1.24-.31s1.39.46,1.08-.31c-.46-1.55-1.86-1.55-2.94-.46a18.55,18.55,0,0,0-1.7,1.86,7.3,7.3,0,0,0-.93,2.32c-.31.62.77.93,1.08.31Z"/><path class="cls-23" d="M1224.53,352.39a5.91,5.91,0,0,0,.15,2.32c.31.77,1.39.46,1.08-.31a3.22,3.22,0,0,1-.15-1.7c.16-.77-.93-1.08-1.08-.31Z"/><path class="cls-23" d="M1217.24,356.11a2,2,0,0,0,2,.31c.62-.15.77-.62,1.7-.77h1.24a25.1,25.1,0,0,1,3.41.15,25.65,25.65,0,0,1,3.25.93c.77.15,1.08-.93.31-1.08-1.08-.15-2-.93-2.94-1.08-.31,0-.31.15-.77.15-.77,0-1.08-.31-1.86-.31a22.88,22.88,0,0,0-3.25.15c-.77.15-1.7,1.08-2.48.62a.56.56,0,1,0-.62.93Z"/><path class="cls-23" d="M1216.78,355.8c.31,1.39.15,2.94.46,4.34.15.93.62,1.08.77,2.32a6.25,6.25,0,0,0,0,1.7c.31,2.17,1.55,2.94,3.56,3.56.31.15.62-.15.77-.46.46-2.17.62-1.24.93-.62.15.15.31.31.46.31,1.24,0,1.55-.93,1.86-2l-.93.31c.62.62,1.08,3.56,2.79,2.32.62-.46.31-.93.46-1.55.31-1.39.31-.31.93-1.08,1.08-1.7-.46-3.87.31-5.58s1.39-2.63,0-4.18c-.46-.62-1.39.31-.77.77,1.55,1.55-.62,2.79-.77,4.18s1.08,2.63-.15,3.87a4.11,4.11,0,0,0-.77.93c-.31.46.15.77-.15.62.31,0-.93-1.24-.93-1.24a.69.69,0,0,0-.77,0,.54.54,0,0,0-.15.31c-.46,1.55-.77.15-1.7.31s-1.39,1.39-1.55,2.17l.77-.46a3,3,0,0,1-2.63-3.41,11.73,11.73,0,0,0-.15-2.32,24.78,24.78,0,0,1-.77-3.25,12,12,0,0,0-.31-2.32.57.57,0,0,0-.77-.31c-.62.15-.78.46-.78.77Z"/><path class="cls-23" d="M1217.24,356.73a8.56,8.56,0,0,0,3.41,4.65c.93.77,2,1.55,2.79,2.32a25.48,25.48,0,0,0,3.41,2.17c.62.46,1.24-.62.62-.93-1.7-1.08-3.41-2.48-5.11-3.72-.62-.62-1.55-.93-2.17-1.55a6.9,6.9,0,0,1-1.86-3.25c-.31-.77-1.39-.46-1.08.31Z"/><path class="cls-23" d="M1217.86,356.57a11.58,11.58,0,0,0,1.86,2.17c1.08.77,2.17,1.08,3.1,2.17a23.93,23.93,0,0,0,4.34,4.49c.62.46,1.24-.62.62-.93a12.34,12.34,0,0,1-2.63-2.32c-.62-.77-1.24-1.7-1.86-2.32a6.88,6.88,0,0,0-1.7-1.24,8.49,8.49,0,0,1-2.79-2.48c-.31-.77-1.24-.15-.93.46Z"/><path class="cls-23" d="M1219.1,355.8c1.08,2,2.94,2.79,4.65,4.34a24.83,24.83,0,0,0,4.18,3.87.57.57,0,0,0,.77-.31c.15-.31,0-.46-.15-.62a22,22,0,0,1-3.87-3.72c-1.55-1.39-3.41-2.17-4.49-4a.59.59,0,1,0-1.08.46Z"/><path class="cls-23" d="M1220.34,355.65a23.13,23.13,0,0,1,4.18,3.56,14.09,14.09,0,0,0,3.25,2.79c.62.31,1.24-.62.62-.93a19.62,19.62,0,0,1-3.87-3.25,17.3,17.3,0,0,0-3.72-2.94c-.46-.62-1.08.46-.46.77Z"/><path class="cls-23" d="M1222,355.65a14.48,14.48,0,0,1,2.79,2.48,18.74,18.74,0,0,0,2.48,2.48c.62.46,1.24-.62.62-.93a15.13,15.13,0,0,1-2.63-2.79,17.84,17.84,0,0,0-2.63-2.17c-.62-.46-1.24.46-.62.93Z"/><path class="cls-23" d="M1223.75,355.49c2,.62,3.25,2.48,4.65,3.87l.62-.93-.15-.15c-.62-.46-1.24.62-.62.93l.15.15c.46.46,1.24-.46.62-.93-1.7-1.55-2.94-3.56-5.11-4.18-.31,0-.62.15-.62.46.16.46.31.77.46.77Z"/><path class="cls-23" d="M1226.08,356.26c1.08.62,1.7,1.7,2.79,2.48.62.46,1.24-.62.62-.93-1.08-.62-1.7-1.7-2.79-2.48C1226.08,354.87,1225.46,355.8,1226.08,356.26Z"/><path class="cls-23" d="M1217.24,359.36a9.35,9.35,0,0,0,2.94,3.56,9.48,9.48,0,0,0,1.86.77,6.86,6.86,0,0,1,2.32,1.86c.46.62,1.24-.31.77-.77a6.6,6.6,0,0,0-3.1-2.32,6.8,6.8,0,0,1-3.87-3.87c-.31-.46-1.24.15-.93.77Z"/><path class="cls-23" d="M1218,362.31a7.7,7.7,0,0,0,2.94,2,3.44,3.44,0,0,1,1.7.77c.46.46.31.62.77.77a.57.57,0,0,0,.77-.31c.15-.31,0-.46-.15-.62-.46-.15-.46-.77-.77-1.08-.46-.15-.77-.31-1.24-.46a6,6,0,0,1-3.1-2c-.46-.46-1.39.31-.93.93Z"/><path class="cls-23" d="M1218,363.7a10.42,10.42,0,0,0,1.86.93c.15,0,2.17.46,2,.77-.15.77.93,1.08,1.08.31a1.43,1.43,0,0,0-1.08-1.7h-.15a12.14,12.14,0,0,1-3.25-1.39c-.62-.46-1.08.62-.46,1.08Z"/><path class="cls-23" d="M1218.33,364.79a19.85,19.85,0,0,1,3.1,1.7c.62.46,1.24-.62.62-.93a19.86,19.86,0,0,0-3.1-1.7C1218.17,363.55,1217.71,364.48,1218.33,364.79Z"/><path class="cls-23" d="M1218.33,358.59a3.69,3.69,0,0,1,.93-1.7,10.43,10.43,0,0,1,1.7-1.08c.62-.46,0-1.39-.62-.93a11,11,0,0,0-2.17,1.55,8.34,8.34,0,0,0-1.08,2c-.15.62.93.93,1.24.16Z"/><path class="cls-23" d="M1218.48,360.45a7,7,0,0,1,.93-1.86c.46-.46.93-.31,1.39-.62,1.08-.62,1.7-1.7,2.79-2.48.62-.46,0-1.39-.62-.93a13.55,13.55,0,0,0-1.55,1.24,4.23,4.23,0,0,1-1.86,1.39c-1.39.46-1.55,1.39-2,2.63-.31.62.77,1.24.93.62Z"/><path class="cls-23" d="M1218.79,361.53c.46-1.86,1.86-2.17,3.25-3.1s2.32-2.17,3.56-3.1c.62-.46,0-1.39-.62-.93a26.4,26.4,0,0,1-4.65,3.56,5.29,5.29,0,0,0-2.79,3.25c0,.31.15.62.46.62s.62,0,.77-.31Z"/><path class="cls-23" d="M1218.48,362.62c1.24-2.32,3.25-2.63,5.42-3.56a9.35,9.35,0,0,0,3.56-2.94c.46-.62-.62-1.24-1.08-.62-1.39,2.17-3.41,2.32-5.73,3.41a6.35,6.35,0,0,0-3.25,3.1c-.16.62.77,1.24,1.08.62Z"/><path class="cls-23" d="M1218.48,363.55a10,10,0,0,0,2-1.55,15.65,15.65,0,0,1,3.87-2.17,14,14,0,0,0,4.65-3.25c.46-.46-.31-1.39-.77-.77a17,17,0,0,1-5.73,3.56c-1.7.77-2.94,2.17-4.65,3.1-.62.31,0,1.24.62,1.08Z"/><path class="cls-23" d="M1218.95,364.63c1.86-1.39,3.72-2.94,5.58-4.18.77-.46,1.55-.77,2.17-1.08.77-.46,1.55-1.24,2.48-1.24a.62.62,0,1,0,0-1.24,5.43,5.43,0,0,0-2.17.93c-.93.62-2,.93-2.94,1.55a61.18,61.18,0,0,0-6,4.49c-.46.31.46,1.08.93.77Z"/><path class="cls-23" d="M1228.09,359.21c-1.86,1.08-3.87,1.55-5.73,2.63a11.13,11.13,0,0,0-3.72,3.87c-.46.62.31,1.39.77.77a11.3,11.3,0,0,1,4.49-4,25.39,25.39,0,0,0,4.65-2.17c.62-.46,0-1.55-.46-1.08Z"/><path class="cls-23" d="M1220.65,366.65a18,18,0,0,1,3.72-3.1,15.09,15.09,0,0,1,3.72-2.32c.77-.15.46-1.39-.31-1.08a21.67,21.67,0,0,0-4,2.48,19.62,19.62,0,0,0-3.87,3.25c-.47.46.31,1.39.77.77Z"/><path class="cls-23" d="M1222.51,366.34a10.24,10.24,0,0,1,3.1-2.17,8.35,8.35,0,0,0,2.48-2.17c.46-.62-.31-1.39-.77-.77a10.85,10.85,0,0,1-2.94,2.32,16.92,16.92,0,0,0-2.63,2c-.46.46.31,1.39.77.77Z"/><path class="cls-23" d="M1225.15,365.87a4.84,4.84,0,0,0,1.7-1.39,10,10,0,0,1,2-1.55.54.54,0,0,0,.15-.77c-.15-.15-.46-.31-.62-.15a6.88,6.88,0,0,0-1.7,1.24c-.62.46-1.08,1.24-1.7,1.55s-.46,1.39.15,1.08Z"/><polygon class="cls-5" points="1100.61 584.2 1729.69 583.9 1729.69 587 1107.1 588.49 1100.61 584.2"/><polygon class="cls-5" points="1159.91 490.92 1198.18 514.17 1302.01 514.17 1262.03 490.92 1258.62 490.92 1295.81 512.62 1198.18 512.62 1162.39 490.92 1159.91 490.92"/></g><g id="Laag_18" data-name="Laag 18"><path class="cls-5" d="M1004.49,490.92l43.39,26.34c10.38,5,27.74,6.51,39.2,7,46.8,2.32,196.49,8.21,234.92,7,47.57-1.55,131.87-10.85,131.87-10.85l-100.1-29.44h9l103.67,31s-93.75,10.85-141.32,12.4-246.38-6.2-255.37-7.75-23.71-6.2-23.71-6.2l-47.73-29.44Z"/><path class="cls-5" d="M1513.06,819.44,1348.8,704.77s91.27-58.57,261.88-62c158.06-3.1,141,1.55,141,1.55v3.1h-141L1585.89,649l-44.94,4.65-72.83,13.95-60.43,17L1357,704.77,1525.9,819.44Z"/></g><g id="Laag_4" data-name="Laag 4"><polygon class="cls-24" points="-387.05 -372.97 -387.05 57.81 34.44 189.53 1353.14 172.48 1729.69 40.77 1729.69 -372.97 -387.05 -372.97"/></g><g id="Laag_6" data-name="Laag 6"><polygon class="cls-25" points="-387.05 28.37 519.46 -2.62 528.76 15.97 -387.05 46.97 -387.05 28.37"/><polygon class="cls-25" points="544.26 54.72 550.46 68.66 -278.57 91.91 -312.67 81.06 544.26 54.72"/><polygon class="cls-25" points="565.95 95 321.12 99.65 57.69 107.4 -199.54 116.7 -171.65 126 -67.83 122.9 164.61 115.15 389.3 108.95 570.6 105.85 565.95 95"/><polygon class="cls-25" points="581.45 126 584.55 133.74 424.94 136.84 328.87 139.94 248.29 141.49 65.44 144.59 -95.72 149.24 -118.97 141.49 581.45 126"/><polygon class="cls-25" points="590.75 149.24 593.84 156.99 397.05 160.09 125.87 166.28 -30.64 169.38 -46.14 164.74 590.75 149.24"/><polygon class="cls-25" points="1729.69 -11.92 758.1 -7.27 753.45 9.78 1729.69 6.68 1729.69 -11.92"/><polygon class="cls-25" points="744.15 50.07 742.61 64.01 1681.65 57.81 1720.39 43.87 744.15 50.07"/><polygon class="cls-25" points="736.41 90.36 1002.93 87.26 1267.91 87.26 1597.98 87.26 1579.38 93.45 1452.32 95 1165.64 96.55 936.3 99.65 734.86 101.2 736.41 90.36"/><polygon class="cls-25" points="730.21 122.9 730.21 130.65 902.21 129.09 1004.49 127.55 1085.06 127.55 1271.01 126 1489.51 124.45 1512.75 116.7 730.21 122.9"/><polygon class="cls-25" points="725.56 147.69 725.56 153.89 925.46 152.34 1198.18 149.24 1429.07 146.14 1443.02 141.49 725.56 147.69"/><polygon class="cls-26" points="657.38 181.78 542.71 -372.97 657.38 -372.97 671.32 181.78 657.38 181.78"/><polygon class="cls-27" points="670.24 181.78 620.19 -372.97 657.38 -372.97 670.24 181.78"/></g><g id="Laag_5" data-name="Laag 5"><polygon class="cls-28" points="63.88 50.07 87.13 64.01 183.2 60.91 161.51 46.97 63.88 50.07"/><polygon class="cls-28" points="448.18 54.72 435.79 39.22 530.31 37.67 542.71 53.17 448.18 54.72"/><polygon class="cls-28" points="830.93 29.92 823.18 46.97 916.16 45.42 927.01 29.92 830.93 29.92"/><polygon class="cls-28" points="1207.48 28.37 1188.89 42.32 1284.96 42.32 1311.3 28.37 1207.48 28.37"/><polygon class="cls-28" points="1288.06 133.74 1309.75 126 1391.88 126 1360.89 133.74 1288.06 133.74"/><polygon class="cls-28" points="1032.38 136.84 1103.66 136.84 1117.61 127.55 1044.77 127.55 1032.38 136.84"/><polygon class="cls-28" points="841.78 139.94 851.08 130.65 778.25 130.65 773.6 139.94 841.78 139.94"/><polygon class="cls-28" points="513.27 135.29 581.45 135.29 586.1 143.04 519.46 144.59 513.27 135.29"/><polygon class="cls-28" points="256.03 141.49 324.22 141.49 335.06 147.69 266.88 149.24 256.03 141.49"/><polygon class="cls-28" points="0.35 147.69 65.44 146.14 87.13 153.89 18.95 156.99 0.35 147.69"/></g></svg>