<svg xmlns="http://www.w3.org/2000/svg" viewBox="0 0 1366 768"><defs><style>.cls-1{fill:#008a9e;}.cls-2{fill:#ddd;}.cls-3{fill:#d8d8d8;}.cls-4{fill:#9b9b9b;}.cls-5{fill:#111;}.cls-6{fill:#e5e5e5;}.cls-7{fill:#795952;}.cls-8{fill:#5b423e;}.cls-9{fill:#1e1e1e;}.cls-10{fill:#212121;}.cls-11{fill:#fff;}.cls-12{fill:#bcbbbb;opacity:0.47;}.cls-13{fill:#777;opacity:0.36;}.cls-14{fill:#695e5a;}.cls-15{fill:#494240;}.cls-16{fill:#cca69a;}.cls-17{fill:#8e6830;}.cls-18{fill:#2f5220;}.cls-19{fill:#006c78;}.cls-20{fill:#004649;}.cls-21{fill:#feffff;}.cls-22{fill:none;}.cls-23{fill:#929eae;}.cls-24{fill:#64777e;}.cls-25{fill:#242d28;}.cls-26{fill:#505b5f;}.cls-27{fill:#a2aab5;}.cls-28{fill:#6b9ae2;}.cls-29{fill:#a0c4d7;}.cls-30{fill:#6b80d3;}.cls-31{fill:#afb9da;}.cls-32{fill:#e6e6e6;}.cls-33{fill:#afccec;}</style></defs><title>zaal met tennis tafeltennis en badminton</title><g id="Laag_2" data-name="Laag 2"><polygon class="cls-1" points="0 561 286 520 1116 512 1366 543 1366 768 0 768 0 561"/></g><g id="Laag_7" data-name="Laag 7"><polygon class="cls-2" points="397 649 0 647 0 644 390 647 418 631 0 627 0 611 322 542 323 543 0 614 0 625 419 629 427 629 397 649"/><polyline class="cls-2" points="569 541 427 629 421 629 556 547 301.61 547.7 304 547 557 546 564 542 323 543 322 542"/><polygon class="cls-2" points="444 597 387 628.7 381.75 628.7 439 598 122 598 12.55 625.12 7.77 625.07 122 597 444 597"/><polygon class="cls-2" points="390 627 353.54 646.72 347.58 646.67 383 628 390 627"/><polygon class="cls-3" points="13 625 0 628 0 627 8 625 13 625"/><polygon class="cls-2" points="444 597 547 542 545 542 439 598 444 597"/><polygon class="cls-2" points="123.92 597 341.13 542.92 338.88 542.92 122 597 123.92 597"/><polyline class="cls-2" points="532.95 561 241.11 561 244.53 560.25 534.31 560.25 533 561"/><polygon class="cls-2" points="444 597 473.68 597 472.04 598 442.2 598 444 597"/><polygon class="cls-2" points="122 597 77.34 597 73.14 597.92 117.93 598 122 597"/><polygon class="cls-2" points="142 645.09 286 598 282.5 598 134 645.03 142 645.09"/><polygon class="cls-2" points="392.75 560.25 430.13 547.34 428.58 547.34 390.54 560.25 392.75 560.25"/></g><g id="Laag_3" data-name="Laag 3"><polygon class="cls-4" points="0 561 286 520 1116 512 1366 543 1366 267 1123 352 272 363 0 278 0 561"/></g><g id="Laag_10" data-name="Laag 10"><polygon class="cls-2" points="703 516 703 471 730 471 730 515.72 732.2 515.7 732.34 468 701 468 701 516 703 516"/><polygon class="cls-5" points="703 516 730 515.72 730 471 703 471 703 516"/><polygon class="cls-5" points="495 469 498 518 529 518 526 468 495 469"/><polygon class="cls-6" points="495 468 495 465 526 464 526 468 495 469 495 468"/><polyline class="cls-5" points="895.05 514.13 898 464 929 465 926.01 513.83"/><polygon class="cls-6" points="929 464 929 461 898 460 898 464 929 465 929 464"/></g><g id="Laag_9" data-name="Laag 9"><polygon class="cls-7" points="0 553 163 534 163 532 156 531 0 549 0 553"/><polygon class="cls-8" points="163 532 0 551.25 0 553 163 534 163 532"/><polygon class="cls-7" points="169 533 249 523 249 521 237 521 162 530 162 531.86 163 532 163 532 163 532.14 169 533"/><polygon class="cls-8" points="162 530 169 531 249 521 249 523 169 533 163 532.14 163 532 162 531.9 162 530"/><polygon class="cls-9" points="9.01 551.95 9 556 4 558 4 560.49 20 561.55 20 559 15 556 15.15 551.23 9.01 551.95"/><polygon class="cls-9" points="55.56 546.52 55.6 546.99 56 551 52 552 52 554 65 555 65 553 60 551 60.23 545.98 55.56 546.52"/><polygon class="cls-9" points="96.05 541.77 96.39 545.17 93 546.07 93 547.77 104 548.61 104 546.92 99.77 545.23 99.94 541.35 96.05 541.77"/><polygon class="cls-9" points="96.05 541.77 96.39 545.17 93 546.07 93 547.77 104 548.61 104 546.92 99.77 545.23 99.94 541.35 96.05 541.77"/><polygon class="cls-9" points="132.47 537.56 132.77 540.47 130 541.22 130 542.6 139 543.29 139 541.91 135.54 540.52 135.7 537.18 132.47 537.56"/><polygon class="cls-9" points="178.47 531.56 178.77 534.47 176 535.22 176 536.6 185 537.29 185 535.91 181.54 534.52 181.7 531.18 178.47 531.56"/><polygon class="cls-9" points="202.23 528.87 202.46 531.3 200 532.01 200 533.34 208 534 208 532.68 204.92 531.35 205.05 528.49 202.23 528.87"/><polygon class="cls-9" points="227.94 525.64 228.16 527.77 226 528.36 226 529.45 233 530 233 528.91 230.31 527.82 230.43 525.32 227.94 525.64"/><polygon class="cls-7" points="1366 537.06 1252.9 525.57 1252.87 523.57 1259.85 522.47 1366 533.12 1366 537.06"/><polygon class="cls-8" points="1252.87 523.57 1366 535.23 1366 537.06 1252.9 525.57 1252.87 523.57"/><polygon class="cls-7" points="1246.88 524.66 1166.74 515.85 1166.71 513.85 1178.71 513.67 1253.84 521.56 1253.86 523.41 1252.87 523.57 1252.87 523.57 1252.87 523.72 1246.88 524.66"/><polygon class="cls-8" points="1253.84 521.56 1246.85 522.66 1166.71 513.85 1166.74 515.85 1246.88 524.66 1252.87 523.72 1252.87 523.57 1253.87 523.46 1253.84 521.56"/><polygon class="cls-9" points="1360.51 536.5 1360.47 536.97 1360.14 540.98 1364.15 541.92 1364.18 543.92 1351.2 545.12 1351.17 543.12 1356.14 541.04 1355.84 536.02 1360.51 536.5"/><polygon class="cls-9" points="1319.95 532.35 1319.67 535.75 1323.07 536.61 1323.09 538.3 1312.11 539.31 1312.08 537.62 1316.29 535.86 1316.05 531.99 1319.95 532.35"/><polygon class="cls-9" points="1319.95 532.35 1319.67 535.75 1323.07 536.61 1323.09 538.3 1312.11 539.31 1312.08 537.62 1316.29 535.86 1316.05 531.99 1319.95 532.35"/><polygon class="cls-9" points="1283.48 528.68 1283.22 531.6 1286 532.3 1286.02 533.68 1277.03 534.51 1277.01 533.12 1280.45 531.69 1280.24 528.35 1283.48 528.68"/><polygon class="cls-9" points="1237.39 523.36 1237.13 526.28 1239.92 526.98 1239.94 528.37 1230.95 529.19 1230.93 527.81 1234.37 526.37 1234.16 523.03 1237.39 523.36"/><polygon class="cls-9" points="1213.6 521.03 1213.4 523.46 1215.87 524.14 1215.89 525.46 1207.9 526.24 1207.88 524.92 1210.94 523.55 1210.77 520.69 1213.6 521.03"/><polygon class="cls-9" points="1187.84 518.17 1187.66 520.32 1189.82 520.87 1189.84 521.96 1182.85 522.61 1182.83 521.52 1185.5 520.39 1185.35 517.9 1187.84 518.17"/></g><g id="Laag_8" data-name="Laag 8"><polygon class="cls-10" points="502.09 579.74 506.63 579.74 506 504 502 504 502.09 579.74"/><rect class="cls-10" x="175" y="501" width="4" height="73"/><polyline class="cls-11" points="179 501 502 504 502 508.08 179 504.54 179 501"/><polygon class="cls-12" points="179 504.5 179 531.75 502 536 502 508 179 504.5"/><polyline class="cls-11" points="1120.46 657.22 947.43 550.16 949.02 550.24 1126.81 657.53 1120.46 657.22"/><polygon class="cls-11" points="1246.31 655.15 982.43 550.19 979.25 550.04 1236.14 655.17 1246.31 655.15"/><polygon class="cls-11" points="1366 656.81 1123.24 657.36 1120.54 655.58 1366 653.56 1366 656.81"/><polygon class="cls-11" points="1096.4 595.17 1264.21 592.85 1366 591.33 1366 593.08 1263.36 594.61 1096.32 596.81 1096.4 595.17"/><polygon class="cls-11" points="1366 581.9 1149.47 549.98 1152.64 550.13 1365.99 579.92 1366 581.9"/><polygon class="cls-11" points="1280.32 592.83 1101.38 557.55 1103.05 555.98 1103.05 555.98 1104.11 557.19 1289.64 592.81 1280.32 592.83"/><polygon class="cls-11" points="1001.95 557.9 1101.38 557.55 1187.73 555.27 1187.4 555.09 1103.05 555.98 999.1 556.78 1001.95 557.9"/><polygon class="cls-11" points="949.02 550.24 1149.47 549.98 949.84 550.73 949.02 550.24"/><polygon class="cls-11" points="1366 572.92 1201.84 552.49 1366 574.26 1366 572.92"/><polygon class="cls-13" points="955.31 535.72 955.28 539.01 955.92 539.04 955.94 545.39 955.92 567.81 991.6 568.32 1035.6 569.21 1073.61 568.44 1105.67 567.63 1118.98 567.2 1126.38 566.98 1131.96 566.71 1136.92 566.39 1140.61 566.08 1143.12 565.83 1145.9 565.45 1147.32 565.19 1148.76 564.76 1149.98 564.23 1151.9 563.51 1154.83 562.62 1155.18 562.62 1155.03 540.55 1154.7 540.35 955.31 535.72"/><polygon class="cls-14" points="956.01 570.32 955.92 539.04 951.16 538.82 949.66 570.02 956.01 570.32"/><path class="cls-11" d="M953.06,532.32l-.16,3.28,120.7,4.15s76.34.37,81.1.6,156.09-4,156.09-4l.16-3.28-156.09,4-81.1-.6Z"/><polygon class="cls-14" points="952 538.86 952.32 532.28 955.29 532.42 955.32 539.02 952 538.86"/><polyline class="cls-14" points="1310.79 536.32 1311.12 562.67 1315.88 562.9 1314.12 533.19 1310.95 533.04"/><polygon class="cls-11" points="1155.03 540.36 1157.16 540.35 1156.6 565.85 1154.9 565.85 1155.03 540.36"/><polyline class="cls-15" points="1310.79 536.32 1312.38 536.4 1312.71 562.75 1311.12 562.67 1310.79 536.32"/><polygon class="cls-15" points="952.51 543.82 952.84 570.17 949.66 570.02 950.92 543.74 952.51 543.82"/><path class="cls-16" d="M956,567.8c10.22.14,70.75,1,78,1.32,7.94.38,92.37-2.15,92.37-2.15s19.88-1.11,23.43-1.12h8.48s44.51-.14,49.27.09S1311.2,561,1311.2,561l0,1-103.67,5.52-50,0c-3.55,0-8.84.44-10.43.37s-19.12.73-19.12.73l-28.65.27-28.73,1.91-36.58-.11-39.68-1.9L956,568.62S955.05,567.79,956,567.8Z"/></g><g id="Laag_4" data-name="Laag 4"><polygon class="cls-17" points="0 0 0 278 272 363 1123 352 1366 267 1366 0 0 0"/></g><g id="Laag_6" data-name="Laag 6"><polygon class="cls-18" points="0 206 560 186 569 204 0 224 0 206"/><polygon class="cls-18" points="0 259 585 239 591 251 0 271 0 259"/><polygon class="cls-18" points="601 276 605 285 70 300 48 293 601 276"/><polygon class="cls-18" points="615 302 457 305 287 310 121 316 139 322 206 320 356 315 501 311 618 309 615 302"/><polygon class="cls-18" points="625 322 627 327 524 329 462 331 410 332 292 334 188 337 173 332 625 322"/><polygon class="cls-18" points="631 337 633 342 506 344 331 348 230 350 220 347 631 337"/><polygon class="cls-18" points="1366 176 750 181 745 200 1366 194 1366 176"/><polygon class="cls-18" points="1366 233 739 236 736 247 1366 245 1366 233"/><polygon class="cls-18" points="730 273 729 282 1335 278 1360 269 730 273"/><polygon class="cls-18" points="725 299 897 297 1068 297 1281 297 1269 301 1187 302 1002 303 854 305 724 306 725 299"/><polygon class="cls-18" points="721 320 721 325 832 324 898 323 950 323 1070 322 1211 321 1226 316 721 320"/><polygon class="cls-18" points="718 336 718 340 847 339 1023 337 1172 335 1181 332 718 336"/><polygon class="cls-18" points="0 147 539 131 525 96 0 109 0 147"/><polygon class="cls-18" points="760 131 1366 134 1366 92 769 92 760 131"/><polygon class="cls-19" points="674 358 600 0 674 0 683 358 674 358"/><polygon class="cls-20" points="682.25 358 650 0 674 0 682.25 358"/></g><g id="Laag_5" data-name="Laag 5"><polygon class="cls-21" points="55 281 118 279 145 289 82 290 55 281"/><polygon class="cls-21" points="291 273 306 282 368 280 354 271 291 273"/><polygon class="cls-21" points="539 276 531 266 592 265 600 275 539 276"/><polygon class="cls-21" points="786 260 781 271 841 270 848 260 786 260"/><polygon class="cls-21" points="1029 259 1017 268 1079 268 1096 259 1029 259"/><polygon class="cls-21" points="1281 258 1257 268 1319 268 1348 258 1281 258"/><polygon class="cls-21" points="1081 327 1095 322 1148 322 1128 327 1081 327"/><polygon class="cls-21" points="916 329 962 329 971 323 924 323 916 329"/><polygon class="cls-21" points="793 331 799 325 752 325 749 331 793 331"/><polygon class="cls-21" points="581 328 625 328 628 333 585 334 581 328"/><polygon class="cls-21" points="415 332 459 332 466 336 422 337 415 332"/><polygon class="cls-21" points="250 336 292 335 306 340 262 342 250 336"/><polygon class="cls-21" points="100 175 55 145 151 142 196 174 100 175"/><polygon class="cls-21" points="480 168 552 165 539 131 455 133 480 168"/><polygon class="cls-21" points="911 168 835 168 854 131 934 131 911 168"/><polygon class="cls-21" points="1264 168 1315 134 1215 134 1170 166 1264 168"/><path class="cls-22" d="M749,331"/><polygon class="cls-23" points="694 603 698.89 603 700.76 644.23 696.1 644.23 694 603"/><polygon class="cls-23" points="705.85 603 706.82 619.62 709.38 619.62 709.26 603 705.85 603"/><polygon class="cls-23" points="806.04 619 806.54 602.38 809.69 602.38 809 619 806.04 619"/><polygon class="cls-23" points="827.76 602.38 824.51 641.77 827.87 641.77 831 602.38 827.76 602.38"/><polyline class="cls-24" points="694 603.34 694.29 608.71 699.2 609.05 698.94 603.31 694 603.34"/><path class="cls-24" d="M709.38,603.13s-1.35,2.18-1.77,3-1.37,3.63-1.37,3.63l-.4-6.82Z"/><path class="cls-24" d="M806.62,602.72l-.17,4.9s2.94,2.16,2.92,2.52l.31-7.43-3.06,0"/><path class="cls-24" d="M826.88,602.37l4.35,0-.68,5.69s-1.06-2.59-1.49-3.4c-.31-.58-1.52-2.29-1.52-2.29"/><polygon class="cls-24" points="824.51 641.77 823.28 639.82 826.41 602.38 827.76 602.38 824.51 641.77"/><polygon class="cls-24" points="700.77 644.23 701.09 642.28 699.44 603 698.92 603 700.77 644.23"/><polygon class="cls-24" points="709.38 619.62 710.32 617.98 709.92 603 709.26 603 709.38 619.62"/><polygon class="cls-24" points="806.08 619 805.28 617.26 805.79 602.38 806.62 602.38 806.08 619"/><polyline class="cls-25" points="700.27 633.55 700.76 632.5 824.08 630.72 824.39 631.75 700.27 633.55"/><polygon class="cls-25" points="824 632.25 824.13 629.59 807.37 612.23 807.44 615.12 824 632.25"/><polygon class="cls-25" points="709.94 611.71 805.66 611.11 805.64 611.81 709.95 612.54 709.94 611.71"/><polygon class="cls-26" points="699.96 626.54 706.42 613.54 708.5 613.58 700.09 630.35 699.96 626.54"/><polygon class="cls-26" points="700.27 633.55 824.39 631.75 824.1 635.36 700.46 637.61 700.27 633.55"/><polygon class="cls-26" points="809.29 612.23 824.31 627.53 824.13 629.59 807.37 612.23 809.29 612.23"/><polygon class="cls-26" points="709.95 612.54 805.64 611.81 805.55 614.62 709.97 615.12 709.95 612.54"/><polygon class="cls-25" points="708.5 613.58 708.4 615.9 700.27 633.55 700.09 630.21 708.5 613.58"/><polyline class="cls-27" points="662 596.23 662 603.51 862 602.41 862 595.81 662 596.62"/><polygon class="cls-28" points="662 596.64 688.46 578.38 824.46 578.38 862 595.81 662 596.64"/><polygon class="cls-29" points="662.04 596.62 688.46 578.38 690.31 578.38 664.23 596.61 662.04 596.62"/><polygon class="cls-30" points="757.38 579 759.85 579 767.54 594.38 765.41 595.15 757.38 579"/><polygon class="cls-30" points="662 596.62 666.53 595 860.07 594.91 862 595.81 662 596.62"/><rect class="cls-31" x="757.38" y="571" width="1.85" height="7.38"/><polygon class="cls-32" points="758.12 577.94 766.39 595.85 766.39 585.15 758.12 571.15 758.12 577.94"/><rect class="cls-33" x="765.38" y="585.15" width="2.46" height="11.05"/></g></svg>