<?xml version="1.0" encoding="utf-8"?>
<!-- Generator: Adobe Illustrator 18.0.0, SVG Export Plug-In . SVG Version: 6.00 Build 0)  -->
<!DOCTYPE svg PUBLIC "-//W3C//DTD SVG 1.1//EN" "http://www.w3.org/Graphics/SVG/1.1/DTD/svg11.dtd">
<svg version="1.1" id="Layer_1" xmlns="http://www.w3.org/2000/svg" xmlns:xlink="http://www.w3.org/1999/xlink" x="0px" y="0px"
	 viewBox="0 0 1369 768" enable-background="new 0 0 1369 768" xml:space="preserve">
<rect fill="#B9BCC1" width="1369" height="383.4"/>
<line fill="none" stroke="#808080" stroke-width="4" stroke-miterlimit="10" x1="133" y1="98" x2="133" y2="0"/>
<rect x="481.1" y="185.7" fill="#BDE7E6" stroke="#4FB4A6" stroke-width="19.1096" stroke-miterlimit="10" width="407.1" height="203.3"/>
<polygon fill="#4FB4A6" points="1369,768 541.6,768 0,768 0,377.1 1369,377.1 "/>
<path fill="#F4FEFF" d="M836.8,235.2c-14.2,19.4-18.9,26.2-26.5,22.8c-7.6-3.3-10.1-14.3,4.1-33.6c14.2-19.4,26.4-28.4,26.4-28.4
	l28.6-0.4C869.3,195.6,844.2,225.1,836.8,235.2z"/>
<path fill="#F4FEFF" d="M761.4,239c-13.8,21-30,35.5-36.1,32.5c-6.1-3,0.2-22.3,14-43.3s29.2-32.5,29.2-32.5l25-0.5
	C793.5,195.3,768.6,228,761.4,239z"/>
<path fill="#4F9F99" d="M405,767.4c0,0,508-100.2,588.6-117.8c83-18.1,165.2-46.6,227.2-92.8c16.3-12.2,147.6-131.9,147.6-131.9
	l0.7,343.7L405,767.4z"/>
<path fill="#C5614D" d="M168.3,115c0,0-2.1,65.5-2.1,87.4c0,23,2.1,92,2.1,92c0,8.6-15.2,15.5-33.9,15.5c-18.6,0-33.8-7-33.9-15.5
	c0,0,2.1-68.6,2.1-91.5c0-22-2.1-87.9-2.1-87.9H168.3z"/>
<ellipse fill="#AD5040" cx="134.5" cy="113.8" rx="33.9" ry="15.7"/>
<path fill="none" stroke="#808080" stroke-width="4.8036" stroke-miterlimit="10" d="M105.9,122.2c0-16.1,27.5-56.3,27.5-56.3"/>
<path fill="none" stroke="#808080" stroke-width="4.8036" stroke-miterlimit="10" d="M163,122.2c0-16.5-30.7-56.3-30.7-56.3"/>
<path fill="#AD5040" d="M100.7,114.5l13.2,11.6c0,0-0.5,15,0,33.4c0.5,18.4,6.4,29.3,5.8,34.8s-4.8,1.5-5.3,22.5
	c-0.5,21.1-4.5,62-3.5,71.5c0.4,4.1,5.1,19.1,5.1,19.1s-14.3-3.2-15.2-11.6c-0.5-4.4,1.6-53.2,1.7-99
	C102.6,154.3,100.7,114.5,100.7,114.5z"/>
<path fill="#AD5040" d="M168.1,114.5l-13.2,11.6c0,0,0.5,15,0,33.4s-6.4,29.3-5.8,34.8s4.8,1.5,5.3,22.5s4.5,62,3.5,71.5
	c-0.4,4.1-5.1,19.1-5.1,19.1s14.3-3.2,15.2-11.6c0.5-4.4-1.6-53.5-1.7-99.5C166.1,154.1,168.1,114.5,168.1,114.5z"/>
<path fill="#C58068" d="M148.3,137c-3.4-2-10.7,4.8-14.9,2.7c-4.2-2-7.1-4.4-9-2.7c-4.3,3.8-3.7,18.3,0,27
	c3.7,8.7,7.3,14.1,11.1,14.1s12.5-3.7,12.8-10c0.3-6.3,7.6-23.4,3.8-27.2C148.3,137,150.6,138.3,148.3,137z"/>
<ellipse fill="#4F9F99" cx="134.1" cy="401.1" rx="32.8" ry="13.2"/>
<path fill="#4F9F99" d="M764.9,416.1H601.5c-1.4,0-2.5-1.1-2.5-2.5v-7.2c0-1.4,1.1-2.5,2.5-2.5h163.4c1.4,0,2.5,1.1,2.5,2.5v7.2
	C767.4,415,766.2,416.1,764.9,416.1z"/>
<ellipse fill="#4F9F99" cx="105.9" cy="655.7" rx="16.1" ry="6.3"/>
<ellipse fill="#4F9F99" cx="134.5" cy="653.2" rx="16.2" ry="6"/>
<path fill="#AD5040" d="M746.5,362.2H620.9c-2,0-3.6-1.6-3.6-3.6v-10.4c0-2,1.6-3.6,3.6-3.6h125.6c2,0,3.6,1.6,3.6,3.6v10.4
	C750.1,360.6,748.5,362.2,746.5,362.2z"/>
<rect x="628.6" y="362.2" fill="#FFFFFF" width="9.4" height="45.4"/>
<rect x="728.2" y="362" fill="#FFFFFF" width="9.4" height="45.3"/>
<rect x="576.9" y="282.5" fill="#999999" width="6.1" height="125.1"/>
<rect x="782.2" y="284.5" fill="#999999" width="6.1" height="122.6"/>
<rect x="572.9" y="279.6" fill="#B3B3B3" width="221.5" height="4.8"/>
<rect x="628.6" y="401.4" fill="#B3B3B3" width="9.4" height="6.1"/>
<rect x="728.2" y="401.4" fill="#B3B3B3" width="9.4" height="5.9"/>
<path fill="none" stroke="#CCCCCC" stroke-width="1.365" stroke-miterlimit="10" d="M560.9,297.9"/>
<path fill="none" stroke="#CCCCCC" stroke-width="1.365" stroke-miterlimit="10" d="M561.7,272.6"/>
<path fill="#3F3F44" d="M571.6,300.3h-7.8c-0.5,0-0.9-0.4-0.9-0.9v-34.7c0-0.5,0.4-0.9,0.9-0.9h7.8c0.5,0,0.9,0.4,0.9,0.9v34.7
	C572.5,299.9,572.1,300.3,571.6,300.3z"/>
<path fill="#666666" d="M560.1,296.8h-6.4c-0.5,0-0.9-0.4-0.9-0.9v-29.3c0-0.5,0.4-0.9,0.9-0.9h6.4c0.5,0,0.9,0.4,0.9,0.9v29.3
	C561,296.4,560.6,296.8,560.1,296.8z"/>
<path fill="#999999" d="M550.1,295.3h-5.1c-0.5,0-0.9-0.4-0.9-0.9v-24.5c0-0.5,0.4-0.9,0.9-0.9h5.1c0.5,0,0.9,0.4,0.9,0.9v24.5
	C550.9,294.9,550.5,295.3,550.1,295.3z"/>
<path fill="#3F3F44" d="M795.7,301.1h7.8c0.5,0,0.9-0.4,0.9-0.9v-34.7c0-0.5-0.4-0.9-0.9-0.9h-7.8c-0.5,0-0.9,0.4-0.9,0.9v34.7
	C794.8,300.7,795.2,301.1,795.7,301.1z"/>
<path fill="#666666" d="M807.1,297.5h6.4c0.5,0,0.9-0.4,0.9-0.9v-29.3c0-0.5-0.4-0.9-0.9-0.9h-6.4c-0.5,0-0.9,0.4-0.9,0.9v29.3
	C806.2,297.1,806.6,297.5,807.1,297.5z"/>
<path fill="#999999" d="M817.2,296h5.1c0.5,0,0.9-0.4,0.9-0.9v-24.5c0-0.5-0.4-0.9-0.9-0.9h-5.1c-0.5,0-0.9,0.4-0.9,0.9v24.5
	C816.3,295.6,816.7,296,817.2,296z"/>
<path fill="#C58068" d="M623.4,348.4c0,0-5.9,2.5-2.8,5.8c3.1,3.3,8.7,1.4,11.8,1.7c3.1,0.3,9.4,1.5,12.6,0.3c3.1-1.2,3.9-7.2,0-7.8
	c-3.9-0.6-9.1,0-11.2-0.6S623.4,348.4,623.4,348.4z"/>
<path fill="#A24133" d="M113.3,105.9c6.4-4.5,9.8-3.6,13.5-4.3c2.1-0.4,16.3-1.4,18.7,0c1.5,0.9,4,2,7.6,5.8c0.5,0.6,0.2,0.8-6,1.1
	c-6.2,0.2-11.6-0.5-13.7,0c-2.1,0.5-14.9,1.1-16.3,1.4c-1.4,0.2-3.8-1-3.8-2.4C113.3,105.9,113.1,106,113.3,105.9z"/>
<path fill="#3F3F44" d="M122,625.7c0,0,1.2-3.1,2-4.4c0.8-1.2,2.3-3.1,4.1-3.8c1.7-0.8,4.4-1.3,5.5-1.3c1.2,0,4-0.2,4.7,0
	c0.9,0.3,3.2,0.5,4.9,1.5c1.4,0.8,4.2,3.8,5.8,6.9c1.7,3.3,2.6,6.7,2.6,8.7c0,3.1-0.9,7.7-0.9,7.7s-0.9,2.1-1.2,2.8
	c-0.3,0.8-3.5,4.9-4.4,5.4c-0.9,0.5-2.9,1.3-5.8,1.8c-2.9,0.5-6.2,0-7.3-0.5c-1.2-0.5-2-0.5-4.9-2.8c-2.3-1.8-3.5-4.9-4.4-6.7
	c-0.8-1.7-2-6.7-2-9.7S122,625.7,122,625.7z"/>
<path fill="none" stroke="#37373A" stroke-width="0.1365" stroke-miterlimit="10" d="M142.8,620.4c0,0-3.6-4.2-9.3-4.1"/>
<path d="M141.2,619c0,0,4.9,5.4,5.8,8.7c0.9,3.3,1.7,7.9,0.9,11c-0.9,3.1-2,7.2-4.7,9.5s-2.9,2.3-2.9,2.3h0.6c0,0,3.5-2.3,4.9-4.9
	c1.5-2.6,3.2-7.7,3.2-9.5s-0.3-6.9-1.5-9.5c-1.2-2.6-4.4-6.7-5.2-7.2C141.5,619,141.2,619,141.2,619z"/>
<path d="M136,621.6c0,0-2-0.8-3.2-0.8s-4.4,0.5-6.1,3.1c-1.7,2.6-2.9,5.4-2.9,7.4s1.2,8.7,2.3,10.3c1.2,1.5,2.6,3.1,5.2,3.8
	c2.6,0.8,4.2,1.1,6.1,0.3c0.6-0.3,3.2-1.8,3.2-1.8s-2.3,2.8-4.4,3.3c-2,0.5-5.2-0.3-6.4-1s-3.8-2.8-4.4-3.6c-0.6-0.8-2-3.8-2-5.4
	s-1.2-5.4-0.3-8.5c0.9-3.1,2-5.6,3.2-6.4c1.2-0.8,2.9-2.3,4.9-2.3c2,0,4.4,1,4.4,1S136,621,136,621.6z"/>
<path d="M134.8,629.2c0,0,0.6,0.5,1.2,1.4s0.9,1.9,0.9,2.9s-1.2,3.3-1.2,3.3s-1.2,1.4-1.7,1.4s-0.3,1-0.3,1s1.5,0,2.6-1.7
	c1.2-1.7,1.2-2.9,1.2-2.9s0.3-2.4-0.6-3.6c-0.5-0.6-1.2-1.4-1.2-1.4L134.8,629.2z"/>
<path fill="#4F4E54" d="M131.6,628.5c0,0,1.6-0.2,2.1,0c0.5,0.2,0.7,0.2,1.3,0.7c0.5,0.5,2.1,2.2,1.8,4.3c-0.3,2.4-1.3,4.1-1.3,4.1
	s-0.8,1.7-1.8,1.7s-2.4,0-3.4-1c-1-1-1.3-2.2-1.3-2.2v-5c0,0,0.5-1.4,1-1.9C130.6,628.7,131.6,628.5,131.6,628.5z"/>
<path fill="#6A6873" d="M134,617.2c0,0,1.2,0.8,2.9,1.5c2.2,1,3.9,2,5.2,3.8c1.5,2.1,4.4,7.9,4.7,11.3c0.3,3.3-0.9,6.9-0.9,6.9
	s-1.7,3.8-2.3,5.1c-0.6,1.3-2.3,3.6-3.2,4.1c-0.7,0.4-0.9,0.8-0.9,0.8l0.9-0.3c0.7-0.1,1.2-0.5,1.7-1l2.3-2.3
	c0.9-0.8,2.6-5.4,2.6-5.4s1.5-4.1,1.2-6.9c-0.2-1.8-1.2-7.4-2.3-9c-1.2-1.5-3.6-6.3-7.6-7.4C136.6,618,134,617.2,134,617.2z"/>
<path fill="none" stroke="#37373A" stroke-width="0.1365" stroke-miterlimit="10" d="M140.6,643.9c0,0,3.2-5.1,2.6-9.5
	s-0.6-4.1-0.6-4.1s-1.5-6.9-6.7-9"/>
<path fill="#E8E8EA" d="M116.2,631.5l13.1-0.5c0,0,0.9-1,1.5-1s1.5-0.3,2.3,0.5c1.2,1,1.5,2.3,1.5,2.3l0.3,1c0,0-0.6,1.8-0.9,2.3
	c-0.3,0.5-0.9,1.5-2.3,1.3c-1.2-0.2-1.5-0.8-1.5-0.8l-14,1V631.5z"/>
<path fill="#66646F" d="M131.3,630L131.3,630c-0.1-0.1,1.2,0,1.3,0.1c0.4,0.2,1.4,0.6,1.9,1.2c0.3,0.4,0.6,1.2,0.7,1.8
	c0.1,0.5,0.1,1,0.1,1.5c-0.1,0.6-0.2,1.4-0.5,1.8c-0.6,0.8-1.5,1.5-2.6,1.5s-1.5-0.8-1.5-0.8s0,0,1.2,0.3c0.9,0.2,1.7-0.8,2-1.3
	c0.3-0.5,0.6-1.8,0.6-2.6c0-0.8-0.7-1.9-1.5-2.6C132.2,630.3,132.5,630.5,131.3,630z"/>
<path fill="#5E5D66" d="M129.6,630.8h1.2l0.6-0.8l0.9,0.3l-0.3,0.8c0,0,0.9,1.3,0.9,1.8c0,0.2,0.1,0.2,0.2,0.1
	c0.3-0.3,0.8-0.4,1.2-0.4h0.9c0,0,0.3,0.8,0.3,1.5c0,0.8-0.3,1-0.6,1c-0.3,0-1.7-0.5-1.7-0.5l-0.6,1.3c0,0-0.8,0.5-1.2,0.5
	c-0.6,0-0.4-0.1-0.2-0.2c0.1,0,0.2-0.1,0.3-0.2l0.5-0.8l0.2-0.6c0-0.1,0.1-0.2,0.1-0.3c0-0.1,0-0.2,0-0.2l-0.2-0.5
	c0-0.1-0.1-0.2-0.1-0.3c-0.5-0.9-0.8-1.4-1.4-1.9c-0.6-0.5-0.9-0.3-0.9-0.3V630.8z"/>
<path fill="#E0E0E0" d="M117.1,635.7l15-1l-0.2,0.5l-0.5,0.9c0,0-0.2,0.2-0.4,0.3c-0.2,0.1-0.8,0.4-0.8,0.4l-12.6,0.9L117.1,635.7"
	/>
<polygon fill="#F4F4F4" points="115.4,632.1 130.5,631.3 130.8,631.6 115.6,632.6 "/>
<path fill="#3F3F44" d="M88,630.8c0,0,1.2-5.1,2-6.4c0.8-1.2,2.6-4.6,4.4-5.4c1.7-0.8,2.9-1.5,4.1-1.5s5.8-0.3,6.4,0
	c0.6,0.3,4.7,1.5,5.5,2.8c0.9,1.3,3.8,3.6,4.9,6.9c1.2,3.3,2.3,7.4,2.3,10.5c0,3.1-0.9,5.9-0.9,5.9s-0.3,1.5-0.6,2.3
	s-2.9,5.4-3.8,5.9s-2.6,2.1-5.5,2.6c-2.9,0.5-5.5,0.5-6.7,0.3c-1.2-0.3-4.1-1.3-6.1-3.6c-2-2.3-3.8-5.6-4.4-7.4
	c-0.6-1.8-1.7-6.7-1.7-9.7S88,630.8,88,630.8z"/>
<path fill="none" stroke="#37373A" stroke-width="0.1365" stroke-miterlimit="10" d="M108.5,621.7c0,0-2.9-4.4-10.2-4.2"/>
<path fill="none" stroke="#37373A" stroke-width="0.1365" stroke-miterlimit="10" d="M109.7,651.2c-0.4,0.6-1.5,1.8-3.3,2.7
	c-1.6,0.8-3.1,0.9-3.9,0.9"/>
<path fill="none" stroke="#37373A" stroke-width="6.824978e-002" stroke-miterlimit="10" d="M98.3,621.9c0,0,5.2,0.3,6.7,3.1
	c0.9,1.7,3.5,6.7,3.8,8.2s0.3,5.4,0,7.2c-0.3,1.8-0.9,5.9-2.6,7.4c-1.7,1.5-3.2,2.5-3.2,2.5"/>
<path fill="#0B090A" d="M107.8,620.8c0,0,3.2,5.4,3.8,7.2c0.9,2.7,2.1,4.9,2.3,9.5c0.4,6.9-5.2,14.9-4.9,14.6c2-1.8,5.2-5.6,5.8-9.5
	c0.7-4.3,0.6-5.4,0.3-7.4s-2-6.7-2-6.7S110.7,623.1,107.8,620.8z"/>
<path d="M101,622.3C101,622.3,101,622.3,101,622.3c-0.4-0.1-2.3-0.5-3.1-0.5c-0.9,0-2.4,0.5-4.1,1.5c-1.2,0.8-3.8,5.4-3.8,7.4
	s2,13.8,3.2,15.1c0.9,1,2.4,2.7,3,3.3c0.2,0.2,0.3,0.3,0.6,0.4c0.7,0.3,2.2,0.9,2.9,1.1c0.8,0.2,3-0.1,3.8-0.8
	c0.6-0.5-1.5,1-3.2,0.5c-2-0.6-3.3-1.4-3.8-1.8c-0.6-0.5-3.2-3.1-3.5-6.2s-1.7-11.6-1.5-12.8c0.3-1.3,1.5-4.4,2.6-5.4
	C95,623.6,96.4,621.8,101,622.3z"/>
<path d="M99.7,626.2c0,0,1.7,1.3,2.3,2.1s2,4.4,2.3,5.4c0.2,0.7,0.3,2.1,0.3,3.3s0,3.8-0.9,5.6s-2,3.3-2.6,3.8s-2.6,0.8-2.6,0.8
	s2.3,0,2.9-0.3s0,1,0,1s4.1-3.1,3.8-3.6c-0.3-0.5,0.9,0,0.9,0s0.9-1.5,1.2-3.1s0-4.1,0-4.1l1.7-1.3c0,0-0.3-1.3-0.9-1
	s-1.7,0.8-1.7,0.8l-1.5-5.1c0,0-2.3-3.3-3.2-3.6C100.8,626.7,99.7,626.2,99.7,626.2z"/>
<path fill="#4F4E54" d="M93,627.2c0,0,1.7-1.3,4.1-1.3c3.5,0,3.3,0.8,4.7,1.8c1.7,1.3,3,5.6,3.2,7.4c0.3,2.3-0.3,5.9-1.5,8.5
	c-1.1,2.5-1.7,2.8-3.5,3.3c-1.7,0.5-4.1-0.3-5.5-1c-2.9-1.5-3.4-15.9-2.6-17.3C92.4,627.7,93,627.2,93,627.2z"/>
<path d="M92.7,629.8l0.9,0.5c0,0,0-1,0.6-1.5c0.9-0.8,3.5-0.9,4.1-0.8c1.2,0.3-0.4-0.3-2.6-0.3c-0.3,0-1.2,0-2,0.5s-1.2,1.3-1.2,1.3
	L92.7,629.8z"/>
<path d="M94.2,643.7c0,0,1.7,1.3,2.5,1.4c1.2,0.2,3-0.5,3-0.5s-2,0.5-2.9,0.3c-0.6-0.2-2.2-1.4-2.2-1.4L94.2,643.7z"/>
<path fill="#6A6873" d="M98.8,627.7c0,0,2.6,2.8,2.9,3.3s1.2,3.6,1.2,4.6s-0.3,5.4-0.9,6.2s-0.6,1.8-2,2.8c-1.5,1-1.2,1-1.2,1
	s2.6-1,2.9-1.5s1.7-3.3,1.7-4.4c0-1,0-6.2-0.6-7.4s-1.5-2.8-2-3.6s-2.3-1.5-2.6-1.5S98.8,627.7,98.8,627.7z"/>
<path fill="#6A6873" d="M98.5,619c0,0,4.7,1,6.4,3.1c2.5,2.9,4.1,7.2,4.4,8.2c0.3,1,1.2,4.4,1.2,4.4s-0.3-5.9-1.2-7.4
	c-0.7-1.2-0.3-2.1-3.2-5.4C103.1,618.5,98.5,619,98.5,619z"/>
<path d="M95.6,631.8c0,0,0.3-0.8,1.2-0.8s0.9,0.8,0.9,1.5c0,0.8,1.2,1.5,1.2,1.5s1.7,0,1.7,1c0,0.8-0.6,1.3-0.6,1.3s0,0.8,0,1
	c0,2.6,1.7,2.6-2.3,4.6S95.6,631.8,95.6,631.8z"/>
<path fill="#66646F" d="M93.7,629.8c0,0,1.2,0.8,1.4,1.1c0.1,0.3,0.2,0.9,0.7,1.1s2,0.5,2.3,1.2c0.3,0.7,1.1,1.6,0.6,2.5
	c-0.5,0.9-1.3,2.6-0.9,3c0.4,0.4,1,1.8,0.9,2c-0.1,0.2-1,1.9-1.6,1.9s-1.2-0.2-1.2-0.2s-0.7,1.4-1.2,1.8s-2.1,0.1-2.1,0.1l0.8-2.5
	l0.7-1.4l1.4,0.3L95,639l0.3-1.8l-0.6-2.5l-0.1-1.1l-1.6-1.8l0.5-1.7L93.7,629.8z"/>
<path fill="#F4F3F9" d="M88.4,633.8c0,0-0.2-2.1,0.3-2.4c0.5-0.4,1.6,0.6,2,0.5c0.4-0.1,1-2.7,1.7-2.7c0.6,0,1.3,0.5,1.3,0.5
	s0.3,1.8,0.6,2.5c0.3,0.7,1.9,0.7,1.9,0.7s0.9,0.1,1,1.2s-1,2.7-1,3.2s0.6,1.9,0.8,2.8c0.2,0.9-0.3,1.8-1.1,1.5
	c-0.8-0.3-1.6-0.6-1.7-0.4c-0.1,0.2-1.4,2.8-1.4,2.8s-0.9-0.1-1.2-0.8c-0.3-0.7,0-2.5-0.8-2.8s-2.1-0.8-2.1-0.8L88.4,633.8z"/>
<path fill="#E8E8EA" d="M92.7,633.6l-7.9,0.5c0,0-1.9,1.8-0.7,3.9c1.1,2,1.5,2,1.5,2l7.9-0.5c0,0,1.5-2.2,0.3-4.4
	C92.8,633.3,92.7,633.6,92.7,633.6z"/>
<path fill="#F4F3F9" d="M86.5,636.2c0,0-0.4-1-0.8-1.5c-0.4-0.4-0.9-0.7-0.9-0.7s-2,2-0.6,4.3c1,1.6,1.3,1.7,1.3,1.7
	S87.1,638.1,86.5,636.2z"/>
<path fill="#E0E0E0" d="M85.5,640l7.9-0.5c0,0,0.1-0.1,0.3-0.5c0.1-0.3,0.4-1,0.4-1l0.1-0.4l0-0.3l-7.6,0.5h0.3h-0.3l-0.3,0.8
	l-0.4,0.7"/>
<ellipse fill="#FF767B" cx="1246.5" cy="649" rx="58.2" ry="55.4"/>
<path fill="#FF6071" d="M1294.2,660.7c3.9,5.4-3,20.3-18.4,30.4s-33.3,11.7-37.3,6.3s11.8-9.1,27.2-19.2
	C1281.1,668,1290.3,655.2,1294.2,660.7z"/>
<path fill="#FF949D" d="M1196.8,642.2c-3.9-5.4,2.9-22.4,18.2-32.6c10.7-7.1,22.8-8.9,30.4-7.6c3.3,0.6,5.8,1.8,7,3.4
	c3.9,5.4-11.8,9.1-27.2,19.2C1209.9,634.9,1200.8,647.7,1196.8,642.2z"/>
</svg>
