<?xml version="1.0" encoding="utf-8"?>
<!-- Generator: Adobe Illustrator 18.0.0, SVG Export Plug-In . SVG Version: 6.00 Build 0)  -->
<!DOCTYPE svg PUBLIC "-//W3C//DTD SVG 1.1//EN" "http://www.w3.org/Graphics/SVG/1.1/DTD/svg11.dtd">
<svg version="1.1" id="Layer_1" xmlns="http://www.w3.org/2000/svg" xmlns:xlink="http://www.w3.org/1999/xlink" x="0px" y="0px"
	 viewBox="0 0 453.5 396.9" enable-background="new 0 0 453.5 396.9" xml:space="preserve">
<polygon fill="#D5A982" points="90,327 85,332 84,68 369.6,68 369.4,332 363,326 363.2,77 90,77 "/>
<polygon fill="#A37659" points="90,77 84.8,68 369.6,68 363.2,77 "/>
<path fill="none" stroke="#0000FF" stroke-width="14.3948" stroke-miterlimit="10" d="M83.1,334.5"/>
<polyline fill="none" stroke="#6B523C" stroke-width="14.8068" stroke-miterlimit="10" points="77.6,332 77.6,61 376.7,61 
	376.7,332 "/>
<polyline fill="#D4AA82" points="77.8,68 12,28 12,368 78,332 "/>
<polygon fill="#AF8058" points="17.4,212 23.9,212 24.3,211 24.3,180.3 23.9,179.4 17.4,179.3 "/>
<polyline fill="#A37659" points="17.8,48 18,167.6 40,178.6 40,62 "/>
<polyline fill="#A37659" points="18,347 18,221.6 72,234.4 72,322 "/>
<rect x="18" y="180.3" fill="#FFD693" width="6.3" height="30.7"/>
<ellipse fill="#AF8058" cx="20.7" cy="192.6" rx="3.2" ry="5.1"/>
<polyline fill="#D4BA92" points="17.8,48 17.4,170.6 40,178.6 37,170.3 21,57 "/>
<polyline fill="#D4BA92" points="18,347 18,221.6 22.8,230.4 68.5,317.3 72,322 "/>
<polyline fill="#D4AA82" points="21,57 21,165 37,170.3 37,67 "/>
<polyline fill="#D4AA82" points="23,338 23,230.4 68.4,241.2 68.5,317.3 "/>
<polyline fill="#A37659" points="49,66 49,181.8 71,190.6 71,80 "/>
<polyline fill="#D4BA92" points="49,66 48.5,181.7 71.2,190.6 69,184.3 67.8,182.4 53,74 "/>
<polyline fill="#D4AA82" points="53,74 53,176.2 68,182.5 68,84 "/>
<ellipse fill="#FFD693" cx="20.9" cy="192.7" rx="2.9" ry="4.7"/>
<polyline fill="#D4AA82" points="376.7,69 442,29 442,369 377,333 "/>
<polygon fill="#AF8058" points="437,213 430.5,213 430.1,212 430.1,181.3 430.5,180.4 437,180.3 "/>
<polyline fill="#A37659" points="436,49 436,168.6 414,179.6 414,63 "/>
<polyline fill="#A37659" points="436,348 436,222.6 383,235.4 383,323 "/>
<rect x="430.1" y="181.3" fill="#FFD693" width="6.3" height="30.7"/>
<ellipse fill="#AF8058" cx="433.6" cy="193.6" rx="3.2" ry="5.1"/>
<polyline fill="#D4BA92" points="436,49 437,171.6 413.9,179.6 417,171.3 418,169.3 433,58 "/>
<polyline fill="#D4BA92" points="436,348 436,222.6 431,231.2 385.6,317.8 383,323 "/>
<polyline fill="#D4AA82" points="433,58 433,166 417,171.3 417,68 "/>
<polyline fill="#D4AA82" points="431,339 431,231.4 385.7,242.2 385.6,317.8 "/>
<polyline fill="#A37659" points="405,67 405,182.8 384,191.6 384,81 "/>
<polyline fill="#D4BA92" points="405,67 405.8,182.7 384,191.6 386,183.5 402,75 "/>
<polyline fill="#D4AA82" points="402,75 402,177.2 386,183.5 386,85 "/>
<ellipse fill="#FFD693" cx="433.5" cy="193.7" rx="2.9" ry="4.7"/>
</svg>
