<?xml version="1.0" encoding="utf-8"?>
<!-- Generator: Adobe Illustrator 21.1.0, SVG Export Plug-In . SVG Version: 6.00 Build 0)  -->
<svg version="1.1" xmlns="http://www.w3.org/2000/svg" xmlns:xlink="http://www.w3.org/1999/xlink" x="0px" y="0px"
	 viewBox="0 0 1920 833" style="enable-background:new 0 0 1920 833;" xml:space="preserve">
<style type="text/css">
	.st0{fill:#BA0404;}
	.st1{fill:none;stroke:#FBFCCA;stroke-width:14.3512;stroke-miterlimit:10;}
	.st2{fill:#FBFCCA;}
</style>
<g id="Layer_2">
	<polygon class="st0" points="311.3,38.3 17.1,431.2 322,833 320.3,827.6 316.5,651.8 1879.2,720 1879.2,720 1689,476 1904.3,235.6 
		316.5,224.9 311.3,38.3 	"/>
</g>
<g id="Layer_3">
	<polygon class="st1" points="316.5,818.4 316.5,651.8 1879.2,720 1689,476 1904.3,235.6 316.5,224.9 311.3,38.3 17.1,431.2 	"/>
	<g>
		<g>
			<path class="st2" d="M557.2,536.3l2.2-181l-83.9-1l0.4-36.9l224.6,2.7l-0.4,36.9l-83.7-1l-2.2,181L557.2,536.3z"/>
			<path class="st2" d="M824.2,489.2l53.9,7.6c-7.1,15.2-18.2,26.7-33.3,34.5s-33.8,11.6-56.3,11.3c-35.6-0.4-61.8-9.7-78.7-27.8
				c-13.3-14.5-19.9-32.7-19.6-54.6c0.3-26.2,9.4-46.5,27.3-61.1c17.9-14.6,40.4-21.7,67.5-21.4c30.5,0.4,54.4,8.4,71.8,24.1
				c17.4,15.7,25.6,39.6,24.4,71.6l-135.7-1.6c0.2,12.4,4.5,22.1,12.8,29.1c8.3,7,18.6,10.6,31.1,10.7c8.5,0.1,15.6-1.6,21.5-5.1
				C816.7,502.8,821.2,497.1,824.2,489.2z M827.8,447.1c-0.2-12.1-4.2-21.3-11.8-27.7c-7.6-6.4-17-9.6-28-9.8
				c-11.8-0.1-21.6,3.1-29.4,9.6c-7.8,6.5-11.7,15.5-11.7,26.9L827.8,447.1z"/>
			<path class="st2" d="M976.5,541.3l-54.2-0.6l1.9-157.8l50.3,0.6l-0.3,22.4c8.7-10.5,16.6-17.4,23.5-20.7
				c6.9-3.3,14.7-4.9,23.5-4.8c12.3,0.1,24.2,2.9,35.6,8.3l-17.2,36.2c-9.1-4.7-17.5-7-25.4-7.1c-7.6-0.1-14,1.4-19.3,4.6
				c-5.3,3.2-9.5,8.9-12.6,17.3c-3.1,8.4-4.8,26-5.2,52.9L976.5,541.3z"/>
			<path class="st2" d="M1213.1,544.1l0.3-23.6c-7.6,8.3-17.4,14.9-29.6,19.6c-12.2,4.7-25.1,7-38.5,6.8
				c-13.8-0.2-26.1-2.6-36.9-7.4c-10.9-4.8-18.7-11.4-23.5-19.9c-4.8-8.5-7.1-20.1-6.9-35l1.2-99.9l54.2,0.6l-0.9,72.5
				c-0.3,22.2,0.6,35.8,2.5,40.8c1.9,5,5.5,9,10.8,12s11.9,4.5,20,4.6c9.3,0.1,17.6-1.7,24.9-5.6c7.4-3.8,12.4-8.6,15.2-14.4
				c2.8-5.8,4.3-19.9,4.6-42.5l0.8-66.6l54.2,0.6l-1.9,157.8L1213.1,544.1z"/>
			<path class="st2" d="M1314.3,555.7l61.8,6.5c1,5.6,3.3,9.4,7,11.5c5.1,3,13.2,4.6,24.2,4.7c14.1,0.2,24.8-1.3,31.9-4.5
				c4.8-2.1,8.4-5.6,10.9-10.4c1.7-3.4,2.6-9.8,2.7-19.1l0.3-23c-16.4,16.8-36.9,25.1-61.6,24.8c-27.5-0.3-49.2-9.6-65-27.7
				c-12.4-14.3-18.5-32-18.3-53.1c0.3-26.5,8.8-46.6,25.5-60.3c16.7-13.8,37.3-20.5,61.8-20.2c25.3,0.3,46.1,9.1,62.3,26.5l0.3-22.1
				l50.7,0.6l-1.7,141.6c-0.2,18.6-2.4,32.5-6.5,41.7c-4.1,9.2-9.8,16.3-17,21.5c-7.3,5.2-16.9,9.2-29,12s-27.3,4.1-45.6,3.9
				c-34.7-0.4-59.3-5.3-73.7-14.6c-14.4-9.3-21.5-21-21.4-35.1C1314.1,559.4,1314.2,557.7,1314.3,555.7z M1363.8,463.7
				c-0.2,16.7,3.9,29.1,12.2,36.9c8.3,7.9,18.7,11.9,31,12c13.2,0.2,24.5-3.7,33.7-11.6c9.2-7.9,13.9-19.6,14.1-35.3
				c0.2-16.3-4-28.5-12.7-36.6c-8.6-8-19.7-12.1-33-12.3c-13-0.2-23.7,3.6-32.2,11.3C1368.4,435.9,1364,447.7,1363.8,463.7z"/>
		</g>
	</g>
</g>
</svg>
