<?xml version="1.0" encoding="utf-8"?>
<!-- Generator: Adobe Illustrator 21.1.0, SVG Export Plug-In . SVG Version: 6.00 Build 0)  -->
<svg version="1.1" id="OBJECTS" xmlns="http://www.w3.org/2000/svg" xmlns:xlink="http://www.w3.org/1999/xlink" x="0px" y="0px"
	 viewBox="0 0 2400 800" style="enable-background:new 0 0 2400 800;" xml:space="preserve">
<style type="text/css">
	.st0{fill:#315D89;}
	.st1{fill:#3D6FB7;}
	.st2{display:none;}
	.st3{display:inline;fill:#F8B366;}
	.st4{display:inline;fill:#3A9122;}
	.st5{display:inline;fill:#F4A153;}
	.st6{display:inline;fill:#F3A254;}
	.st7{display:inline;fill:#F1A75B;}
	.st8{display:inline;fill:#F4A051;}
	.st9{display:inline;fill:#F2A458;}
	.st10{fill:#FFFFFF;}
</style>
<g>
	<g>
		<path class="st0" d="M2358.4,800H82.7c-20.4,0-78.2-18.4-78.2-25.2L45.7,25.2c0-6.8,16.7-12.4,37-12.4L2317.3,0
			c20.4,0,78.2,18.4,78.2,25.2v762.4C2395.4,794.4,2378.8,800,2358.4,800z"/>
	</g>
	<path class="st1" d="M2342.3,787.2H16.6c-6.6,0-12-5.4-12-12V12c0-6.6,5.4-12,12-12h2325.8c6.6,0,12,5.4,12,12v763.2
		C2354.3,781.8,2348.9,787.2,2342.3,787.2z"/>
</g>
<g class="st2">
	<path class="st3" d="M-4895.3,465.9c-2.3-11.5-4.5-22.9-6.8-34.4c2-9.7,0.7-23,6.7-28.6c32.3-30.2,70.1-48,116.2-43.2
		c48.4,5.1,98,14.1,141.4-16.8c8.9-6.3,14-21.9,14.9-33.7c0.5-6.5-11.6-13.8-18-20.8c-19.8-36.8-40.7-73.1-59.3-110.6
		c-21.6-43.4-23.8-89.3-10.3-135.6c6.8-23.4,20.3-40.2,47.6-40c-2,5.4-6.7,11.5-5.5,16c5.6,21.1,12.5,41.9,19.7,62.5
		c12.9,36.8,18.4,79.7,41.2,108.9c48,61.2,105.2,115.3,158.9,172c18.7,19.7,36,42,58.2,56.7c38.5,25.5,87.1,37.3,107.1,85.9
		c0.8,1.9,6.2,2,9.5,2.9c0.2,56.9,0.3,113.8,0.5,170.7c-41.1-5.2-78.3,2.2-112.3,28.3s-70.5,49.1-105.9,73.5
		c-90.5,27.2-183.7,19.7-276.1,21.1c-16.9,0.3-33.8-1.8-50.7-3c-27.7-2-41.2-15.7-36.1-44.4c31.7-19.8,63.5-39.5,91.2-56.8
		c-33.8-7.9-51-11.1-84,8.8c-12.4-15.7-27.9-30-36.2-47.7c-5.1-11,0.7-27.2,1.7-41c5.5,3.8,12.3,11.9,16.2,10.7
		c42.1-13.1,83.6-27.7,121.7-40.7c-28.9-24.8-89.5-26.1-130.3,2.4c-12-20-27.8-38.8-34.6-60.4c-4.6-14.5,3.7-33,6.2-49.7
		c0.7,12,1.5,24,1.9,30.6c52.5-12.5,103.4-24.6,160.3-38.1c-38.1-6.8-72.5-15.1-107.4-18.1C-4863.1,451.9-4879.4,461.4-4895.3,465.9
		z"/>
	<path class="st4" d="M-4273.2,677.9c-0.2-56.9-0.3-113.8-0.5-170.7c0.1-38.9,0.2-77.8,0.3-116.8c6.5-29.5,26-39,54.8-39.4
		c89.6-1.2,90.6-0.8,90.6,89.9c0,87.4,0.1,174.8-0.1,262.2c-0.1,40.5-10.1,50.4-49.9,51.3c-13.6,0.3-27.3-0.3-40.9,0.5
		c-31,1.8-50.1-10.8-54.1-42.9C-4273.1,700.6-4273.2,689.3-4273.2,677.9z"/>
	<path class="st5" d="M-4273.5,390.4c-0.1,38.9-0.2,77.8-0.3,116.8c-3.3-0.9-8.7-1-9.5-2.9c-20-48.6-68.6-60.4-107.1-85.9
		c-22.2-14.7-39.5-37-58.2-56.7c-53.8-56.7-110.9-110.8-158.9-172c-22.9-29.2-28.4-72.1-41.2-108.9c-7.2-20.6-14-41.4-19.7-62.5
		c-1.2-4.5,3.5-10.7,5.5-16c32.4-2.7,50.4,10.9,55.5,44.2c10.7,70.3,45.2,126.8,98.8,174.1c43.5,38.3,83.2,81,123.2,123
		C-4354.5,375.8-4318.2,392.3-4273.5,390.4z"/>
	<path class="st6" d="M-4641,288.4c6.4,7,18.5,14.3,18,20.8c-0.9,11.8-6,27.4-14.9,33.7c-43.4,30.9-93,21.9-141.4,16.8
		c-46.1-4.8-83.8,13-116.2,43.2c-5.9,5.6-4.6,18.9-6.7,28.6c-25.2-56.6-0.4-100.5,59.3-102.3c44.1-1.3,88.4,2.3,132.3-0.8
		c23.5-1.7,46.2-12.9,69.3-19.8c0.7-0.6,2.2-1.3,2.1-1.8c-0.2-1.7-0.9-3.3-1.4-4.9C-4640.7,297.4-4640.8,292.9-4641,288.4z"/>
	<path class="st7" d="M-4273.2,677.9c0.1,11.4,0.1,22.7,0.2,34.1c-50.9-7.5-94.6,8.4-137.2,36.1c-23.8,15.5-53.9,21.4-81.2,31.6
		c35.4-24.4,71.9-47.3,105.9-73.5C-4351.5,680.1-4314.4,672.6-4273.2,677.9z"/>
	<path class="st8" d="M-4895.3,465.9c15.9-4.5,32.1-14,47.5-12.6c34.9,3,69.3,11.4,107.4,18.1c-56.8,13.5-107.8,25.6-160.3,38.1
		c-0.4-6.5-1.1-18.6-1.9-30.6C-4900.1,474.6-4897.7,470.2-4895.3,465.9z"/>
	<path class="st8" d="M-4874.1,589c40.9-28.4,101.5-27.2,130.3-2.4c-38,12.9-79.6,27.5-121.7,40.7c-3.9,1.2-10.7-6.9-16.2-10.7
		l0.2-0.4c2-7.1,3.9-14.3,5.9-21.4C-4875.7,592.7-4875.2,590.8-4874.1,589z"/>
	<path class="st9" d="M-4847.1,705.4c33-19.8,50.2-16.7,84-8.8c-27.8,17.3-59.5,37.1-91.2,56.8v-0.1c-0.1-7-0.2-14.1-0.3-21.1
		c-0.4-2.2-0.1-4.4,0.7-6.5c1.8-3.1,3.5-6.2,5.3-9.3C-4848.1,712.7-4847.6,709-4847.1,705.4z"/>
	<path class="st3" d="M-4875.5,594.8c-2,7.2-3.9,14.3-5.9,21.4C-4879.4,609.1-4877.4,601.9-4875.5,594.8z"/>
	<path class="st3" d="M-4854.6,732.2c0.1,7,0.2,14.1,0.3,21.1C-4854.4,746.3-4854.5,739.2-4854.6,732.2z"/>
	<path class="st3" d="M-4640.6,301.9c0.5,1.6,1.2,3.2,1.4,4.9c0.1,0.5-1.4,1.2-2.1,1.8C-4641.9,306.2-4641.6,304-4640.6,301.9z"/>
	<path class="st3" d="M-4848.6,716.4c-1.8,3.1-3.5,6.2-5.3,9.3C-4852.2,722.6-4850.4,719.5-4848.6,716.4z"/>
</g>
<g>
	<path class="st10" d="M170,453.2l59.4-5.8c3.6,19.9,10.8,34.6,21.7,43.9c10.9,9.3,25.7,14,44.2,14c19.6,0,34.5-4.2,44.4-12.5
		c10-8.3,14.9-18,14.9-29.2c0-7.1-2.1-13.2-6.3-18.2c-4.2-5-11.5-9.4-21.9-13.1c-7.1-2.5-23.4-6.9-48.8-13.2
		c-32.7-8.1-55.6-18.1-68.8-29.9c-18.5-16.6-27.8-36.9-27.8-60.8c0-15.4,4.4-29.8,13.1-43.2c8.7-13.4,21.3-23.6,37.7-30.6
		s36.2-10.5,59.5-10.5c37.9,0,66.5,8.3,85.6,24.9c19.2,16.6,29.2,38.8,30.2,66.6l-61,2.7c-2.6-15.5-8.2-26.7-16.8-33.5
		c-8.6-6.8-21.5-10.2-38.6-10.2c-17.7,0-31.6,3.6-41.6,10.9c-6.5,4.7-9.7,10.9-9.7,18.8c0,7.1,3,13.3,9.1,18.3
		c7.7,6.5,26.4,13.2,56.1,20.2c29.7,7,51.6,14.3,65.8,21.7c14.2,7.5,25.3,17.7,33.4,30.7c8,13,12.1,29,12.1,48.1
		c0,17.3-4.8,33.5-14.4,48.6c-9.6,15.1-23.2,26.3-40.8,33.7c-17.6,7.3-39.5,11-65.7,11c-38.2,0-67.5-8.8-88-26.5
		C186.2,512.7,174,487,170,453.2z"/>
	<path class="st10" d="M535,551.5v-251h-89.6v-51.1h240.1v51.1H596v251H535z"/>
	<path class="st10" d="M965.9,551.5h-66.4l-26.4-68.6H752.4l-24.9,68.6h-64.7l117.7-302.1h64.5L965.9,551.5z M853.6,431.9L812,319.8
		l-40.8,112.1H853.6z"/>
	<path class="st10" d="M998.5,551.5V249.3h128.4c32.3,0,55.7,2.7,70.4,8.1c14.6,5.4,26.3,15.1,35.1,29c8.8,13.9,13.2,29.7,13.2,47.6
		c0,22.7-6.7,41.4-20,56.2c-13.3,14.8-33.2,24.1-59.8,27.9c13.2,7.7,24.1,16.1,32.7,25.3c8.6,9.2,20.2,25.6,34.7,49l36.9,58.9h-73
		l-44.1-65.7c-15.7-23.5-26.4-38.3-32.1-44.4c-5.8-6.1-11.9-10.3-18.3-12.6c-6.5-2.3-16.7-3.4-30.7-3.4h-12.4v126.1H998.5z
		 M1059.5,377.1h45.1c29.3,0,47.5-1.2,54.8-3.7s13-6.7,17.1-12.8c4.1-6,6.2-13.6,6.2-22.7c0-10.2-2.7-18.4-8.1-24.6
		c-5.4-6.3-13.1-10.2-23-11.8c-4.9-0.7-19.8-1-44.5-1h-47.6V377.1z"/>
	<path class="st10" d="M1371.1,551.5v-251h-89.6v-51.1h240.1v51.1h-89.4v251H1371.1z"/>
</g>
<g>
	<path class="st10" d="M2040.5,559.4v-80.8l123.9-78.8l-123.9-78v-80.3l177.6,124.2v68.5L2040.5,559.4z"/>
</g>
</svg>
