<?xml version="1.0" encoding="utf-8"?>
<!-- Generator: Adobe Illustrator 21.1.0, SVG Export Plug-In . SVG Version: 6.00 Build 0)  -->
<svg version="1.1" id="OBJECTS" xmlns="http://www.w3.org/2000/svg" xmlns:xlink="http://www.w3.org/1999/xlink" x="0px" y="0px"
	 viewBox="0 0 800 800" style="enable-background:new 0 0 800 800;" xml:space="preserve">
<style type="text/css">
	.st0{fill:#315D89;}
	.st1{fill:#3D6FB7;}
	.st2{display:none;}
	.st3{display:inline;fill:#F8B366;}
	.st4{display:inline;fill:#3A9122;}
	.st5{display:inline;fill:#F4A153;}
	.st6{display:inline;fill:#F3A254;}
	.st7{display:inline;fill:#F1A75B;}
	.st8{display:inline;fill:#F4A051;}
	.st9{display:inline;fill:#F2A458;}
	.st10{fill:none;stroke:#FFFFFF;stroke-width:75.3061;stroke-miterlimit:10;}
	.st11{fill:#FFFFFF;}
	.st12{fill:none;stroke:#FFFFFF;stroke-width:31.7131;stroke-miterlimit:10;}
	.st13{fill:none;}
	.st14{fill:#337F33;}
	.st15{fill:#43AF43;}
	.st16{fill:#891A1A;}
	.st17{fill:#AF1E1E;}
</style>
<g>
	<g>
		<path class="st0" d="M788.1,800H25.7c-6.8,0-26.2-18.4-26.2-25.2L13.3,25.2c0-6.8,5.6-12.4,12.4-12.4L774.3,0
			c6.8,0,26.2,18.4,26.2,25.2v762.4C800.5,794.4,794.9,800,788.1,800z"/>
	</g>
	<path class="st1" d="M774.7,787.2H11.5c-6.6,0-12-5.4-12-12V12c0-6.6,5.4-12,12-12h763.2c6.6,0,12,5.4,12,12v763.2
		C786.7,781.8,781.3,787.2,774.7,787.2z"/>
</g>
<path class="st13" d="M396.4,273.7c-68.9,0-124.8,55.9-124.8,124.8c0,68.9,55.9,124.8,124.8,124.8s124.8-55.9,124.8-124.8
	C521.2,329.5,465.4,273.7,396.4,273.7z"/>
<g>
	<path class="st11" d="M661.3,250.7H144.1c-13,0-23.7,10.9-23.7,24v317.7c0,13,10.7,26.8,23.7,26.8h517.2
		c13.1,0,26.7-13.7,26.7-26.8V274.7C688,261.5,674.5,250.7,661.3,250.7z M401,546.1c-61.4,0-111.2-49.8-111.2-111.2
		c0-61.4,49.8-111.2,111.2-111.2s111.2,49.8,111.2,111.2C512.2,496.3,462.5,546.1,401,546.1z"/>
	<path class="st11" d="M620.9,280.8H496c-1.4,0-2.6-1.1-2.6-2.6v-74.8c0-1.4,1.1-2.6,2.6-2.6h124.9c1.4,0,2.6,1.1,2.6,2.6v74.8
		C623.4,279.6,622.3,280.8,620.9,280.8z"/>
	<circle class="st11" cx="401" cy="434.9" r="81.8"/>
</g>
</svg>
