<?xml version="1.0" encoding="utf-8"?>
<!-- Generator: Adobe Illustrator 21.1.0, SVG Export Plug-In . SVG Version: 6.00 Build 0)  -->
<svg version="1.1" id="OBJECTS" xmlns="http://www.w3.org/2000/svg" xmlns:xlink="http://www.w3.org/1999/xlink" x="0px" y="0px"
	 viewBox="0 0 800 800" style="enable-background:new 0 0 800 800;" xml:space="preserve">
<style type="text/css">
	.st0{fill:#315D89;}
	.st1{fill:#3D6FB7;}
	.st2{display:none;}
	.st3{display:inline;fill:#F8B366;}
	.st4{display:inline;fill:#3A9122;}
	.st5{display:inline;fill:#F4A153;}
	.st6{display:inline;fill:#F3A254;}
	.st7{display:inline;fill:#F1A75B;}
	.st8{display:inline;fill:#F4A051;}
	.st9{display:inline;fill:#F2A458;}
	.st10{fill:none;stroke:#FFFFFF;stroke-width:75.3061;stroke-miterlimit:10;}
	.st11{fill:#FFFFFF;}
	.st12{fill:none;stroke:#FFFFFF;stroke-width:31.7131;stroke-miterlimit:10;}
	.st13{fill:none;}
	.st14{fill:#337F33;}
	.st15{fill:#43AF43;}
	.st16{fill:#891A1A;}
	.st17{fill:#AF1E1E;}
</style>
<g>
	<g>
		<path class="st0" d="M788.1,800H25.7c-6.8,0-26.2-18.4-26.2-25.2L13.3,25.2c0-6.8,5.6-12.4,12.4-12.4L774.3,0
			c6.8,0,26.2,18.4,26.2,25.2v762.4C800.5,794.4,794.9,800,788.1,800z"/>
	</g>
	<path class="st1" d="M774.7,787.2H11.5c-6.6,0-12-5.4-12-12V12c0-6.6,5.4-12,12-12h763.2c6.6,0,12,5.4,12,12v763.2
		C786.7,781.8,781.3,787.2,774.7,787.2z"/>
</g>
<g>
	<path class="st10" d="M565.2,281.1c-73.6-91.1-217.1-104-307.3-30.4S153,458.7,227.6,548.8s207.9,104,298.1,30.4
		c39.6-32.2,64.4-75.4,73.6-120.5"/>
	<polygon class="st11" points="442.9,355.6 633.3,357.5 633.3,288.5 633.3,173.5 	"/>
	<polygon class="st11" points="442.9,355.6 545.9,335.4 627.8,344.6 633.3,173.5 	"/>
</g>
</svg>
