<?xml version="1.0" encoding="utf-8"?>
<!-- Generator: Adobe Illustrator 18.0.0, SVG Export Plug-In . SVG Version: 6.00 Build 0)  -->
<!DOCTYPE svg PUBLIC "-//W3C//DTD SVG 1.1//EN" "http://www.w3.org/Graphics/SVG/1.1/DTD/svg11.dtd">
<svg version="1.1" id="Layer_1" xmlns="http://www.w3.org/2000/svg" xmlns:xlink="http://www.w3.org/1999/xlink" x="0px" y="0px"
	 viewBox="0 0 57 41.7" enable-background="new 0 0 57 41.7" xml:space="preserve">
<path fill="#4D4D4D" d="M54.3,5H2.4C1.1,5,0,6.1,0,7.4v31.9C0,40.6,1.1,42,2.4,42h51.9c1.3,0,2.7-1.4,2.7-2.7V7.4
	C57,6.1,55.6,5,54.3,5z M28.2,34.7c-6.2,0-11.2-5-11.2-11.2c0-6.2,5-11.2,11.2-11.2s11.2,5,11.2,11.2C39.3,29.7,34.3,34.7,28.2,34.7
	z"/>
<path fill="#4D4D4D" d="M36.8,8H19.6C18.2,8,17,6.9,17,5.5V2.6C17,1.1,18.2,0,19.6,0h17.2c1.4,0,2.6,1.1,2.6,2.6v2.9
	C39.3,6.9,38.2,8,36.8,8z"/>
<circle fill="none" cx="28.2" cy="23.5" r="11.2"/>
<circle fill="#4D4D4D" cx="28.2" cy="23.5" r="9.2"/>
</svg>
